<?xml version="1.0" encoding="UTF-8"?>
<svg id="Layer_1" data-name="Layer 1" xmlns="http://www.w3.org/2000/svg" width="800" height="1091.99" viewBox="0 0 800 1091.99">
  <g id="Layer_2" data-name="Layer 2">
    <rect width="800" height="1091.99" style="fill: #fff; stroke-width: 0px;"/>
  </g>
  <g id="_1.492537313" data-name="1.492537313" style="opacity: .5;">
    <path id="p_690.1545511851691" data-name="p 690.1545511851691" d="M203.27,921.38c-84.13,0-152.34-68.2-152.34-152.34s68.2-152.34,152.34-152.34,152.34,68.2,152.34,152.34-68.2,152.34-152.34,152.34Z" style="fill: #c6ddf4; stroke-width: 0px;"/>
  </g>
  <g id="_1" data-name="1">
    <path id="p_941.5212014134275" data-name="p 941.5212014134275" d="M203.27,921.38c-68.87,0-124.69-55.83-124.69-124.69s55.83-124.69,124.69-124.69,124.69,55.83,124.69,124.69-55.83,124.69-124.69,124.69Z" style="fill: #c6ddf4; stroke-width: 0px;"/>
  </g>
  <g id="_0.3597122302" data-name="0.3597122302">
    <path id="p_936.5955406542181" data-name="p 936.5955406542181" d="M203.27,270.63c-41.3,0-74.79-33.48-74.79-74.79s33.48-74.79,74.79-74.79,74.79,33.48,74.79,74.79-33.48,74.79-74.79,74.79Z" style="fill: #dbb9e6; stroke-width: 0px;"/>
  </g>
  <g id="_0.2369668246" data-name="0.2369668246">
    <path id="p_613.6949515338912" data-name="p 613.6949515338912" d="M203.27,568.54c-33.52,0-60.7-27.17-60.7-60.7,0-33.52,27.17-60.7,60.7-60.7h0c33.52,0,60.7,27.17,60.7,60.7,0,33.52-27.17,60.7-60.7,60.7h0Z" style="fill: #f56647; stroke-width: 0px;"/>
  </g>
  <g id="_1-2" data-name="1" style="opacity: .5;">
    <path id="p_941.5212014134275-2" data-name="p 941.5212014134275" d="M203.27,568.36c-68.87,0-124.69-55.83-124.69-124.69s55.83-124.69,124.69-124.69,124.69,55.83,124.69,124.69-55.83,124.69-124.69,124.69Z" style="fill: #f56647; stroke-width: 0px;"/>
  </g>
  <g id="_1-3" data-name="1" style="opacity: .5;">
    <path id="p_941.5212014134275-3" data-name="p 941.5212014134275" d="M203.27,270.63c-68.87,0-124.69-55.83-124.69-124.69S134.41,21.25,203.27,21.25s124.69,55.83,124.69,124.69-55.83,124.69-124.69,124.69Z" style="fill: #dbb9e6; stroke-width: 0px;"/>
  </g>
  <g style="isolation: isolate;">
    <path d="M450.38,471.34c0,1.77-.64,3.04-1.77,3.94,1.74.75,2.89,2.37,2.89,4.57,0,3.59-2.63,5.96-6.86,5.96h-7.35v-20.26h6.43c4.11,0,6.66,2.2,6.66,5.79ZM441.27,473.86h2.52c1.59,0,2.58-.87,2.58-2.23,0-1.59-1.01-2.37-2.63-2.37h-2.46v4.6ZM441.27,482.11h3.39c1.74,0,2.78-.84,2.78-2.4s-1.04-2.4-2.78-2.4h-3.39v4.81Z" style="fill: #12181e; stroke-width: 0px;"/>
    <path d="M459.47,475.63c-.69.52-1.16,1.39-1.19,2.69v7.5h-3.76v-14.68h3.24l.32,2.34c.52-1.27,1.79-2.49,4.31-2.49v3.73c-1.19,0-2.08.2-2.92.9Z" style="fill: #12181e; stroke-width: 0px;"/>
    <path d="M476,476.17v9.64h-3.21l-.23-1.79c-.78,1.19-2.11,2.11-4.2,2.11-2.61,0-4.46-1.59-4.46-4.23,0-2.87,1.94-3.97,4.54-4.4l3.79-.67v-.58c0-1.48-.69-2.23-2.05-2.23-1.25,0-2.23.75-2.23,1.94h-3.62c.17-2.98,2.37-5.15,5.85-5.15s5.82,1.77,5.82,5.35ZM467.63,481.59c0,.87.61,1.45,1.74,1.45.93,0,1.82-.46,2.34-1.33.32-.49.52-1.22.52-1.94v-.43l-2.92.61c-.98.23-1.68.67-1.68,1.65Z" style="fill: #12181e; stroke-width: 0px;"/>
    <path d="M491.77,476.29v9.52h-3.73v-8.71c0-1.71-.72-2.63-2.14-2.63s-2.58,1.13-2.58,3.59v7.76h-3.73v-14.68h3.21l.26,1.91c.67-1.22,2.03-2.23,3.97-2.23,3.13,0,4.75,2.14,4.75,5.47Z" style="fill: #12181e; stroke-width: 0px;"/>
    <path d="M506.21,485.81l-.26-1.97c-.84,1.19-2.17,2.29-4.69,2.29-3.94,0-6.8-3.36-6.8-7.67s2.87-7.64,6.83-7.64c2.11,0,3.65.87,4.4,1.94v-8.08h3.73v21.13h-3.21ZM498.34,478.46c0,2.55,1.59,4.17,3.71,4.17,1.85,0,3.73-1.45,3.73-4.08v-.17c-.03-2.61-1.91-4.05-3.73-4.05-2.05,0-3.71,1.62-3.71,4.14Z" style="fill: #12181e; stroke-width: 0px;"/>
    <path d="M512.08,479.97v-3.33h9.12v3.33h-9.12Z" style="fill: #12181e; stroke-width: 0px;"/>
    <path d="M536.05,476.29v9.52h-3.73v-8.71c0-1.71-.72-2.63-2.14-2.63s-2.58,1.13-2.58,3.59v7.76h-3.73v-14.68h3.21l.26,1.91c.67-1.22,2.03-2.23,3.97-2.23,3.13,0,4.75,2.14,4.75,5.47Z" style="fill: #12181e; stroke-width: 0px;"/>
    <path d="M551.04,476.17v9.64h-3.21l-.23-1.79c-.78,1.19-2.11,2.11-4.2,2.11-2.61,0-4.46-1.59-4.46-4.23,0-2.87,1.94-3.97,4.54-4.4l3.79-.67v-.58c0-1.48-.69-2.23-2.05-2.23-1.25,0-2.23.75-2.23,1.94h-3.62c.17-2.98,2.37-5.15,5.85-5.15s5.82,1.77,5.82,5.35ZM542.68,481.59c0,.87.61,1.45,1.74,1.45.93,0,1.82-.46,2.34-1.33.32-.49.52-1.22.52-1.94v-.43l-2.92.61c-.98.23-1.68.67-1.68,1.65Z" style="fill: #12181e; stroke-width: 0px;"/>
    <path d="M575.15,476.29v9.52h-3.73v-8.71c0-1.71-.69-2.63-2.08-2.63s-2.58,1.13-2.58,3.59v7.76h-3.73v-8.71c0-1.71-.69-2.63-2.11-2.63s-2.55,1.13-2.55,3.59v7.76h-3.73v-14.68h3.21l.26,1.91c.67-1.22,2-2.23,3.94-2.23,2.08,0,3.5.96,4.2,2.58.7-1.39,2.11-2.58,4.23-2.58,3.13,0,4.69,2.14,4.69,5.47Z" style="fill: #12181e; stroke-width: 0px;"/>
    <path d="M591.91,479.62h-10.22c.12,1.94,1.45,3.3,3.5,3.3,1.48,0,2.58-.58,2.98-1.71h3.65c-.9,3.1-3.18,4.92-6.72,4.92-4.34,0-7.29-3.01-7.29-7.64s2.92-7.67,7.29-7.67c3.88,0,6.8,2.46,6.8,7.61v1.19ZM588.14,477.04c-.06-1.91-1.27-3.13-3.13-3.13s-3.16,1.3-3.33,3.13h6.46Z" style="fill: #12181e; stroke-width: 0px;"/>
    <path d="M611.21,485.81l-.26-1.97c-.84,1.19-2.17,2.29-4.69,2.29-3.94,0-6.8-3.36-6.8-7.67s2.87-7.64,6.83-7.64c2.11,0,3.65.87,4.4,1.94v-8.08h3.73v21.13h-3.21ZM603.34,478.46c0,2.55,1.59,4.17,3.71,4.17,1.85,0,3.73-1.45,3.73-4.08v-.17c-.03-2.61-1.91-4.05-3.73-4.05-2.05,0-3.71,1.62-3.71,4.14Z" style="fill: #12181e; stroke-width: 0px;"/>
    <path d="M623.37,475.63c-.69.52-1.16,1.39-1.19,2.69v7.5h-3.76v-14.68h3.24l.32,2.34c.52-1.27,1.79-2.49,4.31-2.49v3.73c-1.19,0-2.08.2-2.92.9Z" style="fill: #12181e; stroke-width: 0px;"/>
    <path d="M637.66,485.81l-.29-1.91c-.67,1.27-1.97,2.23-3.88,2.23-3.16,0-4.72-2.14-4.72-5.47v-9.52h3.73v8.68c0,1.74.69,2.66,2.08,2.66s2.55-1.1,2.55-3.47v-7.87h3.73v14.68h-3.21Z" style="fill: #12181e; stroke-width: 0px;"/>
    <path d="M657.92,474.32h-2.17c.17.52.26,1.1.26,1.71,0,2.95-2.37,5.09-5.76,5.09-.87,0-1.71-.14-2.43-.38-.2.26-.38.61-.38,1.07,0,.78.58,1.22,1.48,1.22h3.47c3.01,0,4.81,1.48,4.81,4.23,0,3.3-2.58,5.09-6.48,5.09-4.37,0-6.66-1.62-6.66-4.52,0-1.27.75-2.11,1.48-2.58-.9-.61-1.71-1.74-1.71-3.16s.64-2.4,1.53-3.1c-.67-.81-1.01-1.82-1.01-2.98,0-3.04,2.43-5.21,5.91-5.21.75,0,1.48.09,2.11.32h5.56v3.18ZM647.74,487.55c0,1.33,1.16,2,2.98,2s2.81-.69,2.81-2.06c0-1.1-.78-1.62-2.08-1.62h-2.2c-.84.12-1.51.67-1.51,1.68ZM652.42,476.03c0-1.42-.9-2.37-2.2-2.37s-2.2.96-2.2,2.37.87,2.34,2.2,2.34,2.2-.98,2.2-2.34Z" style="fill: #12181e; stroke-width: 0px;"/>
    <path d="M669.93,475.45h-3.71c-.03-1.07-.55-1.68-1.68-1.68s-1.62.61-1.62,1.45c0,.9.49,1.33,2.55,1.71,3.56.58,4.8,2.06,4.8,4.43,0,3.33-2.63,4.78-5.67,4.78-3.62,0-5.62-1.88-5.73-4.78h3.71c.03,1.19.81,1.82,2.11,1.82,1.16,0,1.82-.55,1.82-1.42s-.46-1.42-2.66-1.82c-3.21-.55-4.66-1.94-4.66-4.37s1.77-4.75,5.38-4.75c3.1,0,5.27,1.85,5.35,4.63Z" style="fill: #12181e; stroke-width: 0px;"/>
    <path d="M689.47,476.15v9.67h-2.26l-.12-2c-.72,1.3-2.29,2.32-4.43,2.32-2.55,0-4.25-1.56-4.25-4.11s1.79-3.79,4.08-4.23l4.46-.84v-.72c0-2.08-.96-3.01-2.69-3.01-1.59,0-2.98.87-2.98,2.66h-2.46c.09-2.81,2.23-4.98,5.44-4.98s5.21,1.85,5.21,5.24ZM680.93,481.99c0,1.16.81,1.82,2.23,1.82,1.22,0,2.29-.52,2.95-1.45.49-.67.84-1.68.84-2.69v-.55l-4,.87c-1.1.26-2.03.69-2.03,2Z" style="fill: #12181e; stroke-width: 0px;"/>
    <path d="M697.51,474.64c-.78.72-1.3,1.85-1.33,3.44v7.73h-2.49v-14.59h2.23l.17,2.55c.49-1.33,1.85-2.69,4.37-2.69v2.49c-1.16,0-2.14.32-2.95,1.07Z" style="fill: #12181e; stroke-width: 0px;"/>
    <path d="M715.49,479.5h-11.06c.17,2.69,2,4.31,4.49,4.31,1.94,0,3.36-.84,3.94-2.37h2.49c-.87,2.89-3.13,4.69-6.48,4.69-4.11,0-7.03-2.98-7.03-7.58s2.78-7.64,7.03-7.64c3.82,0,6.63,2.49,6.63,7.41v1.19ZM712.97,477.28c-.03-2.49-1.68-4.05-4.11-4.05s-4.14,1.71-4.43,4.05h8.54Z" style="fill: #12181e; stroke-width: 0px;"/>
    <path d="M450.04,514v2.4h-2.84v4.14h-2.63v-4.14h-8.48v-2.17l7.99-13.95h3.13v13.72h2.84ZM438.98,514.03h5.62v-9.99l-.64,1.25-4.98,8.74Z" style="fill: #12181e; stroke-width: 0px;"/>
    <path d="M455.59,519.07c0,1.01-.81,1.79-1.82,1.79s-1.82-.78-1.82-1.79.78-1.79,1.82-1.79,1.82.75,1.82,1.79Z" style="fill: #12181e; stroke-width: 0px;"/>
    <path d="M469.51,505.52c0,2.34-1.04,4.11-2.46,5.93l-5.18,6.63h7.96v2.46h-11.58v-1.94l6.51-8.22c1.45-1.82,2.08-3.01,2.08-4.78,0-2.08-.98-3.24-3.01-3.24-1.82,0-3.16,1.16-3.16,3.76h-2.63c0-3.82,2.26-6.22,5.82-6.22s5.64,2.23,5.64,5.62Z" style="fill: #12181e; stroke-width: 0px;"/>
    <path d="M483.55,505.52c0,2.34-1.04,4.11-2.46,5.93l-5.18,6.63h7.96v2.46h-11.58v-1.94l6.51-8.22c1.45-1.82,2.08-3.01,2.08-4.78,0-2.08-.98-3.24-3.01-3.24-1.82,0-3.16,1.16-3.16,3.76h-2.63c0-3.82,2.26-6.22,5.82-6.22s5.64,2.23,5.64,5.62Z" style="fill: #12181e; stroke-width: 0px;"/>
    <path d="M498.92,520.54h-2.95l-3.79-5.56-3.76,5.56h-2.95l5.04-7.53-4.72-7.06h2.95l3.45,5.09,3.47-5.09h2.95l-4.75,7.06,5.07,7.53Z" style="fill: #12181e; stroke-width: 0px;"/>
    <path d="M527.43,511.11v9.44h-2.49v-9.03c0-2.26-1.04-3.44-2.81-3.44-1.91,0-3.36,1.68-3.36,4.66v7.82h-2.49v-9.03c0-2.26-1.04-3.44-2.81-3.44-1.91,0-3.36,1.68-3.36,4.66v7.82h-2.49v-14.59h2.23l.15,2c.67-1.27,2.05-2.32,4.05-2.32,2.17,0,3.59,1.07,4.25,2.78.75-1.45,2.14-2.78,4.4-2.78,3.16,0,4.72,2.26,4.72,5.47Z" style="fill: #12181e; stroke-width: 0px;"/>
    <path d="M545.14,513.25c0,4.43-3.04,7.61-7.38,7.61s-7.41-3.18-7.41-7.61,3.04-7.61,7.41-7.61,7.38,3.18,7.38,7.61ZM532.92,513.25c0,3.01,1.94,5.3,4.86,5.3s4.78-2.29,4.78-5.3-1.88-5.3-4.78-5.3-4.86,2.26-4.86,5.3Z" style="fill: #12181e; stroke-width: 0px;"/>
    <path d="M552.37,509.37c-.78.72-1.3,1.85-1.33,3.44v7.73h-2.49v-14.59h2.23l.17,2.55c.49-1.33,1.85-2.69,4.37-2.69v2.49c-1.16,0-2.14.32-2.95,1.07Z" style="fill: #12181e; stroke-width: 0px;"/>
    <path d="M570.35,514.24h-11.06c.17,2.69,2,4.31,4.49,4.31,1.94,0,3.36-.84,3.94-2.37h2.49c-.87,2.89-3.13,4.69-6.48,4.69-4.11,0-7.03-2.98-7.03-7.58s2.78-7.64,7.03-7.64c3.82,0,6.63,2.49,6.63,7.41v1.19ZM567.83,512.01c-.03-2.49-1.68-4.05-4.11-4.05s-4.14,1.71-4.43,4.05h8.54Z" style="fill: #12181e; stroke-width: 0px;"/>
    <path d="M591.94,514.24h-11.06c.17,2.69,2,4.31,4.49,4.31,1.94,0,3.36-.84,3.94-2.37h2.49c-.87,2.89-3.13,4.69-6.48,4.69-4.11,0-7.03-2.98-7.03-7.58s2.78-7.64,7.03-7.64c3.82,0,6.63,2.49,6.63,7.41v1.19ZM589.42,512.01c-.03-2.49-1.68-4.05-4.11-4.05s-4.14,1.71-4.43,4.05h8.54Z" style="fill: #12181e; stroke-width: 0px;"/>
    <path d="M606.38,520.54h-2.95l-3.79-5.56-3.76,5.56h-2.95l5.04-7.53-4.72-7.06h2.95l3.45,5.09,3.47-5.09h2.95l-4.75,7.06,5.07,7.53Z" style="fill: #12181e; stroke-width: 0px;"/>
    <path d="M623.57,513.25c0,4.31-2.72,7.61-6.83,7.61-2.43,0-4.05-1.07-4.83-2.32v8.22h-2.52v-20.81h2.26l.12,2.14c.9-1.3,2.37-2.46,5.01-2.46,4.11,0,6.8,3.3,6.8,7.61ZM611.85,513.11v.14c0,3.24,2.2,5.24,4.52,5.24,2.72,0,4.63-2.17,4.63-5.24s-1.82-5.27-4.6-5.27c-2.37,0-4.54,1.97-4.54,5.12Z" style="fill: #12181e; stroke-width: 0px;"/>
    <path d="M639.52,514.24h-11.06c.17,2.69,2,4.31,4.49,4.31,1.94,0,3.36-.84,3.94-2.37h2.49c-.87,2.89-3.13,4.69-6.48,4.69-4.11,0-7.03-2.98-7.03-7.58s2.78-7.64,7.03-7.64c3.82,0,6.63,2.49,6.63,7.41v1.19ZM637,512.01c-.03-2.49-1.68-4.05-4.11-4.05s-4.14,1.71-4.43,4.05h8.54Z" style="fill: #12181e; stroke-width: 0px;"/>
    <path d="M653.96,511.11v9.44h-2.52v-9.03c0-2.26-1.07-3.44-2.84-3.44-1.91,0-3.39,1.68-3.39,4.66v7.82h-2.49v-14.59h2.23l.15,2c.67-1.27,2.05-2.32,4.11-2.32,3.13,0,4.75,2.26,4.75,5.47Z" style="fill: #12181e; stroke-width: 0px;"/>
    <path d="M667.01,510.24h-2.55c-.03-1.53-.75-2.29-2.32-2.29s-2.23.9-2.23,1.97c0,1.13.58,1.59,2.75,2.11,3.47.81,4.78,2.03,4.78,4.37,0,2.84-2.2,4.46-5.12,4.46-3.39,0-5.27-1.91-5.33-4.75h2.55c.03,1.53,1.01,2.43,2.84,2.43,1.68,0,2.52-.84,2.52-1.97,0-1.21-.64-1.79-3.04-2.34-3.04-.7-4.49-1.77-4.49-4.17s1.68-4.43,4.83-4.43c2.84,0,4.75,1.85,4.8,4.6Z" style="fill: #12181e; stroke-width: 0px;"/>
    <path d="M673.84,501.47c0,.93-.78,1.68-1.74,1.68s-1.71-.75-1.71-1.68.75-1.71,1.71-1.71,1.74.75,1.74,1.71ZM670.86,520.54v-14.59h2.49v14.59h-2.49Z" style="fill: #12181e; stroke-width: 0px;"/>
    <path d="M681.6,520.54l-5.56-14.59h2.66l3.85,10.48.29,1.1.29-1.1,3.85-10.48h2.69l-5.59,14.59h-2.49Z" style="fill: #12181e; stroke-width: 0px;"/>
    <path d="M704.26,514.24h-11.06c.17,2.69,2,4.31,4.49,4.31,1.94,0,3.36-.84,3.94-2.37h2.49c-.87,2.89-3.13,4.69-6.48,4.69-4.11,0-7.03-2.98-7.03-7.58s2.78-7.64,7.03-7.64c3.82,0,6.63,2.49,6.63,7.41v1.19ZM701.74,512.01c-.03-2.49-1.68-4.05-4.11-4.05s-4.14,1.71-4.43,4.05h8.54Z" style="fill: #12181e; stroke-width: 0px;"/>
    <path d="M440.51,536.2c0,.93-.78,1.68-1.74,1.68s-1.71-.75-1.71-1.68.75-1.71,1.71-1.71,1.74.75,1.74,1.71ZM437.53,555.28v-14.59h2.49v14.59h-2.49Z" style="fill: #12181e; stroke-width: 0px;"/>
    <path d="M455.68,545.84v9.44h-2.52v-9.03c0-2.26-1.07-3.44-2.84-3.44-1.91,0-3.39,1.68-3.39,4.66v7.82h-2.49v-14.59h2.23l.15,2c.67-1.27,2.05-2.32,4.11-2.32,3.13,0,4.75,2.26,4.75,5.47Z" style="fill: #12181e; stroke-width: 0px;"/>
    <path d="M472.73,540.69v2.32h-3.76l-.06,7.82c0,1.59.41,2.37,2.08,2.37.81,0,1.3-.12,1.74-.26v2.23c-.43.17-1.1.32-2.17.32-2.75,0-4.17-1.22-4.14-4.2l.06-8.28h-2.72v-2.32h2.72l.03-3.65h2.52l-.03,3.65h3.73Z" style="fill: #12181e; stroke-width: 0px;"/>
    <path d="M482.25,540.37c3.13,0,4.75,2.26,4.75,5.47v9.44h-2.52v-9.03c0-2.26-1.07-3.44-2.84-3.44-1.91,0-3.39,1.68-3.39,4.66v7.82h-2.49v-21.13h2.49v8.37c.55-1.13,1.88-2.14,4-2.14Z" style="fill: #12181e; stroke-width: 0px;"/>
    <path d="M503.58,548.97h-11.06c.17,2.69,2,4.31,4.49,4.31,1.94,0,3.36-.84,3.94-2.37h2.49c-.87,2.89-3.13,4.69-6.48,4.69-4.11,0-7.03-2.98-7.03-7.58s2.78-7.64,7.03-7.64c3.82,0,6.63,2.49,6.63,7.41v1.19ZM501.06,546.74c-.03-2.49-1.68-4.05-4.11-4.05s-4.14,1.71-4.43,4.05h8.54Z" style="fill: #12181e; stroke-width: 0px;"/>
    <path d="M520.45,555.65c-5.01,0-7.96-2.92-7.96-8.39v-12.24h2.63v12.24c0,3.88,1.77,5.93,5.33,5.93s5.3-2.03,5.3-5.93v-12.24h2.63v12.24c0,5.47-2.92,8.39-7.93,8.39Z" style="fill: #12181e; stroke-width: 0px;"/>
    <path d="M543.75,545.84v9.44h-2.52v-9.03c0-2.26-1.07-3.44-2.84-3.44-1.91,0-3.39,1.68-3.39,4.66v7.82h-2.49v-14.59h2.23l.15,2c.67-1.27,2.05-2.32,4.11-2.32,3.13,0,4.75,2.26,4.75,5.47Z" style="fill: #12181e; stroke-width: 0px;"/>
    <path d="M550.93,536.2c0,.93-.78,1.68-1.74,1.68s-1.71-.75-1.71-1.68.75-1.71,1.71-1.71,1.74.75,1.74,1.71ZM547.94,555.28v-14.59h2.49v14.59h-2.49Z" style="fill: #12181e; stroke-width: 0px;"/>
    <path d="M561.9,540.69v2.32h-3.76l-.06,7.82c0,1.59.41,2.37,2.08,2.37.81,0,1.3-.12,1.74-.26v2.23c-.43.17-1.1.32-2.17.32-2.75,0-4.17-1.22-4.14-4.2l.06-8.28h-2.72v-2.32h2.72l.03-3.65h2.52l-.03,3.65h3.73Z" style="fill: #12181e; stroke-width: 0px;"/>
    <path d="M577.41,548.97h-11.06c.17,2.69,2,4.31,4.49,4.31,1.94,0,3.36-.84,3.94-2.37h2.49c-.87,2.89-3.13,4.69-6.48,4.69-4.11,0-7.03-2.98-7.03-7.58s2.78-7.64,7.03-7.64c3.82,0,6.63,2.49,6.63,7.41v1.19ZM574.89,546.74c-.03-2.49-1.68-4.05-4.11-4.05s-4.14,1.71-4.43,4.05h8.54Z" style="fill: #12181e; stroke-width: 0px;"/>
    <path d="M591.56,555.28l-.14-2.14c-.9,1.3-2.37,2.46-5.01,2.46-4.11,0-6.8-3.3-6.8-7.61s2.72-7.61,6.83-7.61c2.43,0,4.05,1.07,4.86,2.32v-8.54h2.49v21.13h-2.23ZM582.18,547.98c0,3.1,1.82,5.27,4.6,5.27,2.37,0,4.54-1.97,4.54-5.12v-.14c0-3.24-2.2-5.24-4.52-5.24-2.72,0-4.63,2.17-4.63,5.24Z" style="fill: #12181e; stroke-width: 0px;"/>
    <path d="M615.38,540.37h-2.66c-.03-2.17-1.39-3.36-3.33-3.36s-3.13,1.13-3.13,3.07,1.27,2.63,4.02,3.73c4.08,1.5,5.73,2.98,5.73,5.96,0,3.71-2.6,5.88-6.28,5.88-4.28,0-6.66-2.58-6.71-6.34h2.66c.06,2.58,1.53,4,4.08,4,2.37,0,3.59-1.45,3.59-3.36,0-1.74-1.22-2.66-4.25-3.73-3.44-1.27-5.5-2.66-5.5-5.93s2.08-5.64,5.85-5.64c3.53,0,5.85,1.97,5.93,5.73Z" style="fill: #12181e; stroke-width: 0px;"/>
    <path d="M626.29,540.69v2.32h-3.76l-.06,7.82c0,1.59.41,2.37,2.08,2.37.81,0,1.3-.12,1.74-.26v2.23c-.43.17-1.1.32-2.17.32-2.75,0-4.17-1.22-4.14-4.2l.06-8.28h-2.72v-2.32h2.72l.03-3.65h2.52l-.03,3.65h3.73Z" style="fill: #12181e; stroke-width: 0px;"/>
    <path d="M639.52,545.61v9.67h-2.26l-.12-2c-.72,1.3-2.29,2.32-4.43,2.32-2.55,0-4.25-1.56-4.25-4.11s1.79-3.79,4.08-4.23l4.46-.84v-.72c0-2.08-.96-3.01-2.69-3.01-1.59,0-2.98.87-2.98,2.66h-2.46c.09-2.81,2.23-4.98,5.44-4.98s5.21,1.85,5.21,5.24ZM630.98,551.45c0,1.16.81,1.82,2.23,1.82,1.22,0,2.29-.52,2.95-1.45.49-.67.84-1.68.84-2.69v-.55l-4,.87c-1.1.26-2.03.7-2.03,2Z" style="fill: #12181e; stroke-width: 0px;"/>
    <path d="M650.57,540.69v2.32h-3.76l-.06,7.82c0,1.59.41,2.37,2.08,2.37.81,0,1.3-.12,1.74-.26v2.23c-.43.17-1.1.32-2.17.32-2.75,0-4.17-1.22-4.14-4.2l.06-8.28h-2.72v-2.32h2.72l.03-3.65h2.52l-.03,3.65h3.73Z" style="fill: #12181e; stroke-width: 0px;"/>
    <path d="M666.09,548.97h-11.06c.17,2.69,2,4.31,4.49,4.31,1.94,0,3.36-.84,3.94-2.37h2.49c-.87,2.89-3.13,4.69-6.48,4.69-4.11,0-7.03-2.98-7.03-7.58s2.78-7.64,7.03-7.64c3.82,0,6.63,2.49,6.63,7.41v1.19ZM663.57,546.74c-.03-2.49-1.68-4.05-4.11-4.05s-4.14,1.71-4.43,4.05h8.54Z" style="fill: #12181e; stroke-width: 0px;"/>
    <path d="M678.24,544.97h-2.55c-.03-1.53-.75-2.29-2.32-2.29s-2.23.9-2.23,1.97c0,1.13.58,1.59,2.75,2.11,3.47.81,4.78,2.03,4.78,4.37,0,2.84-2.2,4.46-5.12,4.46-3.39,0-5.27-1.91-5.33-4.75h2.55c.03,1.53,1.01,2.43,2.84,2.43,1.68,0,2.52-.84,2.52-1.97,0-1.21-.64-1.79-3.04-2.34-3.04-.7-4.49-1.77-4.49-4.17s1.68-4.43,4.83-4.43c2.84,0,4.75,1.85,4.8,4.6Z" style="fill: #12181e; stroke-width: 0px;"/>
  </g>
  <g id="callout-line-svg">
    <path d="M411.3,128.23c-18.5-9.59-38.85-15.96-61.04-19.12" style="fill: none; stroke: #12181e;"/>
    <path d="M357.55,104.74l-7.3,4.37,6.33,6.36" style="fill: none; stroke: #12181e; stroke-miterlimit: 4; stroke-width: 1px;"/>
  </g>
  <g style="isolation: isolate;">
    <path d="M457.3,134.25c0,6.08-4.34,10.54-10.48,10.54s-10.51-4.46-10.51-10.54,4.34-10.48,10.51-10.48,10.48,4.43,10.48,10.48ZM440.43,134.25c0,3.94,2.52,6.83,6.4,6.83s6.37-2.89,6.37-6.83-2.52-6.77-6.37-6.77-6.4,2.87-6.4,6.77Z" style="fill: #12181e; stroke-width: 0px;"/>
    <path d="M463.87,144.41l-5.3-14.68h4.02l2.89,9.03.29,1.27.29-1.27,2.89-9.03h4.02l-5.3,14.68h-3.82Z" style="fill: #12181e; stroke-width: 0px;"/>
    <path d="M487.86,138.21h-10.22c.12,1.94,1.45,3.3,3.5,3.3,1.48,0,2.58-.58,2.98-1.71h3.65c-.9,3.1-3.18,4.92-6.72,4.92-4.34,0-7.29-3.01-7.29-7.64s2.92-7.67,7.29-7.67c3.88,0,6.8,2.46,6.8,7.61v1.19ZM484.1,135.64c-.06-1.91-1.27-3.13-3.13-3.13s-3.16,1.3-3.33,3.13h6.46Z" style="fill: #12181e; stroke-width: 0px;"/>
    <path d="M495.82,134.22c-.69.52-1.16,1.39-1.19,2.69v7.5h-3.76v-14.68h3.24l.32,2.34c.52-1.27,1.79-2.49,4.31-2.49v3.73c-1.19,0-2.08.2-2.92.9Z" style="fill: #12181e; stroke-width: 0px;"/>
    <path d="M512.35,134.77v9.64h-3.21l-.23-1.79c-.78,1.19-2.11,2.11-4.2,2.11-2.61,0-4.46-1.59-4.46-4.23,0-2.87,1.94-3.97,4.54-4.4l3.79-.67v-.58c0-1.48-.69-2.23-2.05-2.23-1.25,0-2.23.75-2.23,1.94h-3.62c.17-2.98,2.37-5.15,5.85-5.15s5.82,1.77,5.82,5.35ZM503.98,140.18c0,.87.61,1.45,1.74,1.45.93,0,1.82-.46,2.34-1.33.32-.49.52-1.22.52-1.94v-.43l-2.92.61c-.98.23-1.68.67-1.68,1.65Z" style="fill: #12181e; stroke-width: 0px;"/>
    <path d="M515.94,144.41v-21.13h3.73v21.13h-3.73Z" style="fill: #12181e; stroke-width: 0px;"/>
    <path d="M523.61,144.41v-21.13h3.73v21.13h-3.73Z" style="fill: #12181e; stroke-width: 0px;"/>
    <path d="M533.88,143.11c0,1.79-.93,3.76-2.11,5.09l-.81-.32c.58-1.01.87-2.08,1.01-3.27-.9-.09-1.56-.72-1.56-1.68s.75-1.71,1.74-1.71,1.74.72,1.74,1.88Z" style="fill: #12181e; stroke-width: 0px;"/>
    <path d="M553.82,144.41l-.14-2.14c-.9,1.3-2.37,2.46-5.01,2.46-4.11,0-6.8-3.3-6.8-7.61s2.72-7.61,6.83-7.61c2.43,0,4.05,1.07,4.86,2.32v-8.54h2.49v21.13h-2.23ZM544.44,137.11c0,3.1,1.82,5.27,4.6,5.27,2.37,0,4.54-1.97,4.54-5.12v-.15c0-3.24-2.2-5.24-4.52-5.24-2.72,0-4.63,2.17-4.63,5.24Z" style="fill: #12181e; stroke-width: 0px;"/>
    <path d="M564.38,133.23c-.78.72-1.3,1.85-1.33,3.44v7.73h-2.49v-14.59h2.23l.17,2.55c.49-1.33,1.85-2.69,4.37-2.69v2.49c-1.16,0-2.14.32-2.95,1.07Z" style="fill: #12181e; stroke-width: 0px;"/>
    <path d="M578.83,144.41l-.15-2c-.67,1.39-2,2.32-4.02,2.32-3.15,0-4.69-2.23-4.69-5.47v-9.44h2.49v9.03c0,2.29,1.01,3.47,2.78,3.47,1.88,0,3.33-1.59,3.33-4.4v-8.1h2.49v14.59h-2.23Z" style="fill: #12181e; stroke-width: 0px;"/>
    <path d="M597.84,132.02h-2.52c.43.78.69,1.71.69,2.72,0,2.89-2.17,5.18-5.56,5.18-1.22,0-2.29-.29-3.13-.78-.35.32-.61.81-.61,1.45,0,.96.75,1.48,1.85,1.48h3.88c3.1,0,4.6,1.53,4.6,3.97,0,3.1-2.34,4.92-6.08,4.92-4.14,0-6.37-1.68-6.37-4.54,0-1.39.75-2.17,1.59-2.63-.98-.49-1.94-1.56-1.94-3.04,0-1.33.67-2.34,1.5-2.98-.61-.84-.93-1.88-.93-3.01,0-3.01,2.2-5.24,5.62-5.24.75,0,1.45.12,2.08.32h5.3v2.2ZM587.07,146.32c0,1.59,1.45,2.43,3.91,2.43,2.26,0,3.62-.87,3.62-2.6,0-1.36-1.01-1.88-2.63-1.88h-2.78c-1.1.06-2.11.64-2.11,2.06ZM593.56,134.74c0-1.74-1.19-3.04-3.13-3.04s-3.13,1.3-3.13,3.04,1.22,2.98,3.13,2.98,3.13-1.3,3.13-2.98Z" style="fill: #12181e; stroke-width: 0px;"/>
    <path d="M608.78,134.1h-2.55c-.03-1.53-.75-2.29-2.32-2.29s-2.23.9-2.23,1.97c0,1.13.58,1.59,2.75,2.11,3.47.81,4.78,2.03,4.78,4.37,0,2.84-2.2,4.46-5.12,4.46-3.39,0-5.27-1.91-5.33-4.75h2.55c.03,1.53,1.01,2.43,2.84,2.43,1.68,0,2.52-.84,2.52-1.97,0-1.22-.64-1.79-3.04-2.34-3.04-.69-4.49-1.77-4.49-4.17s1.68-4.43,4.83-4.43c2.84,0,4.75,1.85,4.8,4.6Z" style="fill: #12181e; stroke-width: 0px;"/>
    <path d="M628.64,134.74v9.67h-2.26l-.12-2c-.72,1.3-2.29,2.32-4.43,2.32-2.55,0-4.25-1.56-4.25-4.11s1.79-3.79,4.08-4.23l4.46-.84v-.72c0-2.08-.96-3.01-2.69-3.01-1.59,0-2.98.87-2.98,2.66h-2.46c.09-2.81,2.23-4.98,5.44-4.98s5.21,1.85,5.21,5.24ZM620.1,140.59c0,1.16.81,1.82,2.23,1.82,1.22,0,2.29-.52,2.95-1.45.49-.67.84-1.68.84-2.69v-.55l-4,.87c-1.1.26-2.03.69-2.03,2Z" style="fill: #12181e; stroke-width: 0px;"/>
    <path d="M636.68,133.23c-.78.72-1.3,1.85-1.33,3.44v7.73h-2.49v-14.59h2.23l.17,2.55c.49-1.33,1.85-2.69,4.37-2.69v2.49c-1.16,0-2.14.32-2.95,1.07Z" style="fill: #12181e; stroke-width: 0px;"/>
    <path d="M654.66,138.1h-11.06c.17,2.69,2,4.31,4.49,4.31,1.94,0,3.36-.84,3.94-2.37h2.49c-.87,2.89-3.13,4.69-6.48,4.69-4.11,0-7.03-2.98-7.03-7.58s2.78-7.64,7.03-7.64c3.82,0,6.63,2.49,6.63,7.41v1.19ZM652.14,135.87c-.03-2.49-1.68-4.05-4.11-4.05s-4.14,1.71-4.43,4.05h8.54Z" style="fill: #12181e; stroke-width: 0px;"/>
    <path d="M674.37,129.38c0,2.34-1.04,4.11-2.46,5.93l-5.18,6.63h7.96v2.46h-11.58v-1.94l6.51-8.22c1.45-1.82,2.08-3.01,2.08-4.78,0-2.08-.98-3.24-3.01-3.24-1.82,0-3.16,1.16-3.16,3.76h-2.63c0-3.82,2.26-6.22,5.82-6.22s5.64,2.23,5.64,5.62Z" style="fill: #12181e; stroke-width: 0px;"/>
    <path d="M680.5,142.93c0,1.01-.81,1.79-1.82,1.79s-1.82-.78-1.82-1.79.78-1.79,1.82-1.79,1.82.75,1.82,1.79Z" style="fill: #12181e; stroke-width: 0px;"/>
    <path d="M686.58,144.41h-2.87l7.99-17.74h-9.06v-2.52h12.07v2.14l-8.13,18.12Z" style="fill: #12181e; stroke-width: 0px;"/>
    <path d="M708.98,129.47c0,2.52-1.45,3.99-2.49,4.52,1.3.58,3.13,2.03,3.13,4.86,0,3.44-2.81,5.93-6.46,5.93s-6.48-2.49-6.48-5.93c0-2.58,1.5-4.25,3.13-4.86-1.07-.55-2.46-2.03-2.46-4.52,0-3.16,2.26-5.7,5.82-5.7s5.82,2.55,5.82,5.7ZM699.34,138.79c0,2.26,1.79,3.56,3.82,3.56s3.79-1.3,3.79-3.56-1.79-3.62-3.79-3.62-3.82,1.36-3.82,3.62ZM699.95,129.53c0,2,1.33,3.24,3.21,3.24s3.21-1.24,3.21-3.24-1.36-3.33-3.21-3.33-3.21,1.3-3.21,3.33Z" style="fill: #12181e; stroke-width: 0px;"/>
    <path d="M725.13,144.41h-2.95l-3.79-5.56-3.76,5.56h-2.95l5.04-7.53-4.72-7.06h2.95l3.45,5.09,3.47-5.09h2.95l-4.75,7.06,5.07,7.53Z" style="fill: #12181e; stroke-width: 0px;"/>
    <path d="M457.24,169.7v9.44h-2.49v-9.03c0-2.26-1.04-3.44-2.81-3.44-1.91,0-3.36,1.68-3.36,4.66v7.82h-2.49v-9.03c0-2.26-1.04-3.44-2.81-3.44-1.91,0-3.36,1.68-3.36,4.66v7.82h-2.49v-14.59h2.23l.15,2c.67-1.27,2.05-2.32,4.05-2.32,2.17,0,3.59,1.07,4.25,2.78.75-1.45,2.14-2.78,4.4-2.78,3.16,0,4.72,2.26,4.72,5.47Z" style="fill: #12181e; stroke-width: 0px;"/>
    <path d="M474.96,171.84c0,4.43-3.04,7.61-7.38,7.61s-7.41-3.18-7.41-7.61,3.04-7.61,7.41-7.61,7.38,3.18,7.38,7.61ZM462.74,171.84c0,3.01,1.94,5.3,4.86,5.3s4.78-2.29,4.78-5.3-1.88-5.3-4.78-5.3-4.86,2.26-4.86,5.3Z" style="fill: #12181e; stroke-width: 0px;"/>
    <path d="M482.19,167.97c-.78.72-1.3,1.85-1.33,3.44v7.73h-2.49v-14.59h2.23l.17,2.55c.49-1.33,1.85-2.69,4.37-2.69v2.49c-1.16,0-2.14.32-2.95,1.07Z" style="fill: #12181e; stroke-width: 0px;"/>
    <path d="M500.16,172.83h-11.06c.17,2.69,2,4.31,4.49,4.31,1.94,0,3.36-.84,3.94-2.37h2.49c-.87,2.89-3.13,4.69-6.48,4.69-4.11,0-7.03-2.98-7.03-7.58s2.78-7.64,7.03-7.64c3.82,0,6.63,2.49,6.63,7.41v1.19ZM497.64,170.6c-.03-2.49-1.68-4.05-4.11-4.05s-4.14,1.71-4.43,4.05h8.54Z" style="fill: #12181e; stroke-width: 0px;"/>
    <path d="M521.75,172.83h-11.06c.17,2.69,2,4.31,4.49,4.31,1.94,0,3.36-.84,3.94-2.37h2.49c-.87,2.89-3.13,4.69-6.48,4.69-4.11,0-7.03-2.98-7.03-7.58s2.78-7.64,7.03-7.64c3.82,0,6.63,2.49,6.63,7.41v1.19ZM519.24,170.6c-.03-2.49-1.68-4.05-4.11-4.05s-4.14,1.71-4.43,4.05h8.54Z" style="fill: #12181e; stroke-width: 0px;"/>
    <path d="M536.2,179.14h-2.95l-3.79-5.56-3.76,5.56h-2.95l5.04-7.53-4.72-7.06h2.95l3.45,5.09,3.47-5.09h2.95l-4.75,7.06,5.07,7.53Z" style="fill: #12181e; stroke-width: 0px;"/>
    <path d="M553.39,171.84c0,4.31-2.72,7.61-6.83,7.61-2.43,0-4.05-1.07-4.83-2.32v8.22h-2.52v-20.81h2.26l.12,2.14c.9-1.3,2.37-2.46,5.01-2.46,4.11,0,6.8,3.3,6.8,7.61ZM541.67,171.7v.14c0,3.24,2.2,5.24,4.52,5.24,2.72,0,4.63-2.17,4.63-5.24s-1.82-5.27-4.6-5.27c-2.37,0-4.54,1.97-4.54,5.12Z" style="fill: #12181e; stroke-width: 0px;"/>
    <path d="M569.33,172.83h-11.06c.17,2.69,2,4.31,4.49,4.31,1.94,0,3.36-.84,3.94-2.37h2.49c-.87,2.89-3.13,4.69-6.48,4.69-4.11,0-7.03-2.98-7.03-7.58s2.78-7.64,7.03-7.64c3.82,0,6.63,2.49,6.63,7.41v1.19ZM566.82,170.6c-.03-2.49-1.68-4.05-4.11-4.05s-4.14,1.71-4.43,4.05h8.54Z" style="fill: #12181e; stroke-width: 0px;"/>
    <path d="M583.78,169.7v9.44h-2.52v-9.03c0-2.26-1.07-3.44-2.84-3.44-1.91,0-3.39,1.68-3.39,4.66v7.82h-2.49v-14.59h2.23l.15,2c.67-1.27,2.05-2.32,4.11-2.32,3.13,0,4.75,2.26,4.75,5.47Z" style="fill: #12181e; stroke-width: 0px;"/>
    <path d="M596.83,168.83h-2.55c-.03-1.53-.75-2.29-2.32-2.29s-2.23.9-2.23,1.97c0,1.13.58,1.59,2.75,2.11,3.47.81,4.78,2.03,4.78,4.37,0,2.84-2.2,4.46-5.12,4.46-3.39,0-5.27-1.91-5.33-4.75h2.55c.03,1.53,1.01,2.43,2.84,2.43,1.68,0,2.52-.84,2.52-1.97,0-1.22-.64-1.79-3.04-2.34-3.04-.69-4.49-1.77-4.49-4.17s1.68-4.43,4.83-4.43c2.84,0,4.75,1.85,4.8,4.6Z" style="fill: #12181e; stroke-width: 0px;"/>
    <path d="M603.66,160.06c0,.93-.78,1.68-1.74,1.68s-1.71-.75-1.71-1.68.75-1.71,1.71-1.71,1.74.75,1.74,1.71ZM600.68,179.14v-14.59h2.49v14.59h-2.49Z" style="fill: #12181e; stroke-width: 0px;"/>
    <path d="M611.42,179.14l-5.56-14.59h2.66l3.85,10.48.29,1.1.29-1.1,3.85-10.48h2.69l-5.59,14.59h-2.49Z" style="fill: #12181e; stroke-width: 0px;"/>
    <path d="M634.08,172.83h-11.06c.17,2.69,2,4.31,4.49,4.31,1.94,0,3.36-.84,3.94-2.37h2.49c-.87,2.89-3.13,4.69-6.48,4.69-4.11,0-7.03-2.98-7.03-7.58s2.78-7.64,7.03-7.64c3.82,0,6.63,2.49,6.63,7.41v1.19ZM631.56,170.6c-.03-2.49-1.68-4.05-4.11-4.05s-4.14,1.71-4.43,4.05h8.54Z" style="fill: #12181e; stroke-width: 0px;"/>
    <path d="M646.26,160.06c0,.93-.78,1.68-1.74,1.68s-1.71-.75-1.71-1.68.75-1.71,1.71-1.71,1.74.75,1.74,1.71ZM643.28,179.14v-14.59h2.49v14.59h-2.49Z" style="fill: #12181e; stroke-width: 0px;"/>
    <path d="M661.43,169.7v9.44h-2.52v-9.03c0-2.26-1.07-3.44-2.84-3.44-1.91,0-3.39,1.68-3.39,4.66v7.82h-2.49v-14.59h2.23l.15,2c.67-1.27,2.05-2.32,4.11-2.32,3.13,0,4.75,2.26,4.75,5.47Z" style="fill: #12181e; stroke-width: 0px;"/>
    <path d="M678.47,164.55v2.32h-3.76l-.06,7.82c0,1.59.41,2.37,2.08,2.37.81,0,1.3-.12,1.74-.26v2.23c-.43.17-1.1.32-2.17.32-2.75,0-4.17-1.22-4.14-4.2l.06-8.28h-2.72v-2.32h2.72l.03-3.65h2.52l-.03,3.65h3.73Z" style="fill: #12181e; stroke-width: 0px;"/>
    <path d="M688,164.23c3.13,0,4.75,2.26,4.75,5.47v9.44h-2.52v-9.03c0-2.26-1.07-3.44-2.84-3.44-1.91,0-3.39,1.68-3.39,4.66v7.82h-2.49v-21.13h2.49v8.37c.55-1.13,1.88-2.14,4-2.14Z" style="fill: #12181e; stroke-width: 0px;"/>
    <path d="M709.33,172.83h-11.06c.17,2.69,2,4.31,4.49,4.31,1.94,0,3.36-.84,3.94-2.37h2.49c-.87,2.89-3.13,4.69-6.48,4.69-4.11,0-7.03-2.98-7.03-7.58s2.78-7.64,7.03-7.64c3.82,0,6.63,2.49,6.63,7.41v1.19ZM706.81,170.6c-.03-2.49-1.68-4.05-4.11-4.05s-4.14,1.71-4.43,4.05h8.54Z" style="fill: #12181e; stroke-width: 0px;"/>
    <path d="M445.2,214.25c-5.01,0-7.96-2.92-7.96-8.39v-12.24h2.63v12.24c0,3.88,1.77,5.93,5.33,5.93s5.3-2.03,5.3-5.93v-12.24h2.63v12.24c0,5.47-2.92,8.39-7.93,8.39Z" style="fill: #12181e; stroke-width: 0px;"/>
    <path d="M468.5,204.43v9.44h-2.52v-9.03c0-2.26-1.07-3.44-2.84-3.44-1.91,0-3.39,1.68-3.39,4.66v7.82h-2.49v-14.59h2.23l.15,2c.67-1.27,2.05-2.32,4.11-2.32,3.13,0,4.75,2.26,4.75,5.47Z" style="fill: #12181e; stroke-width: 0px;"/>
    <path d="M475.68,194.79c0,.93-.78,1.68-1.74,1.68s-1.71-.75-1.71-1.68.75-1.71,1.71-1.71,1.74.75,1.74,1.71ZM472.7,213.87v-14.59h2.49v14.59h-2.49Z" style="fill: #12181e; stroke-width: 0px;"/>
    <path d="M486.65,199.28v2.32h-3.76l-.06,7.82c0,1.59.41,2.37,2.08,2.37.81,0,1.3-.12,1.74-.26v2.23c-.43.17-1.1.32-2.17.32-2.75,0-4.17-1.22-4.14-4.2l.06-8.28h-2.72v-2.32h2.72l.03-3.65h2.52l-.03,3.65h3.73Z" style="fill: #12181e; stroke-width: 0px;"/>
    <path d="M502.16,207.56h-11.06c.17,2.69,2,4.31,4.49,4.31,1.94,0,3.36-.84,3.94-2.37h2.49c-.87,2.89-3.13,4.69-6.48,4.69-4.11,0-7.03-2.98-7.03-7.58s2.78-7.64,7.03-7.64c3.82,0,6.63,2.49,6.63,7.41v1.19ZM499.64,205.33c-.03-2.49-1.68-4.05-4.11-4.05s-4.14,1.71-4.43,4.05h8.54Z" style="fill: #12181e; stroke-width: 0px;"/>
    <path d="M516.31,213.87l-.14-2.14c-.9,1.3-2.37,2.46-5.01,2.46-4.11,0-6.8-3.3-6.8-7.61s2.72-7.61,6.83-7.61c2.43,0,4.05,1.07,4.86,2.32v-8.54h2.49v21.13h-2.23ZM506.93,206.57c0,3.1,1.82,5.27,4.6,5.27,2.37,0,4.54-1.97,4.54-5.12v-.15c0-3.24-2.2-5.24-4.52-5.24-2.72,0-4.63,2.17-4.63,5.24Z" style="fill: #12181e; stroke-width: 0px;"/>
    <path d="M540.13,198.96h-2.66c-.03-2.17-1.39-3.36-3.33-3.36s-3.13,1.13-3.13,3.07,1.27,2.63,4.02,3.73c4.08,1.5,5.73,2.98,5.73,5.96,0,3.71-2.6,5.88-6.28,5.88-4.28,0-6.66-2.58-6.71-6.34h2.66c.06,2.58,1.53,3.99,4.08,3.99,2.37,0,3.59-1.45,3.59-3.36,0-1.74-1.22-2.66-4.25-3.73-3.44-1.27-5.5-2.66-5.5-5.93s2.08-5.64,5.85-5.64c3.53,0,5.85,1.97,5.93,5.73Z" style="fill: #12181e; stroke-width: 0px;"/>
    <path d="M551.04,199.28v2.32h-3.76l-.06,7.82c0,1.59.41,2.37,2.08,2.37.81,0,1.3-.12,1.74-.26v2.23c-.43.17-1.1.32-2.17.32-2.75,0-4.17-1.22-4.14-4.2l.06-8.28h-2.72v-2.32h2.72l.03-3.65h2.52l-.03,3.65h3.73Z" style="fill: #12181e; stroke-width: 0px;"/>
    <path d="M564.27,204.2v9.67h-2.26l-.12-2c-.72,1.3-2.29,2.32-4.43,2.32-2.55,0-4.25-1.56-4.25-4.11s1.79-3.79,4.08-4.23l4.46-.84v-.72c0-2.08-.96-3.01-2.69-3.01-1.59,0-2.98.87-2.98,2.66h-2.46c.09-2.81,2.23-4.98,5.44-4.98s5.21,1.85,5.21,5.24ZM555.73,210.05c0,1.16.81,1.82,2.23,1.82,1.22,0,2.29-.52,2.95-1.45.49-.67.84-1.68.84-2.69v-.55l-4,.87c-1.1.26-2.03.69-2.03,2Z" style="fill: #12181e; stroke-width: 0px;"/>
    <path d="M575.32,199.28v2.32h-3.76l-.06,7.82c0,1.59.41,2.37,2.08,2.37.81,0,1.3-.12,1.74-.26v2.23c-.43.17-1.1.32-2.17.32-2.75,0-4.17-1.22-4.14-4.2l.06-8.28h-2.72v-2.32h2.72l.03-3.65h2.52l-.03,3.65h3.73Z" style="fill: #12181e; stroke-width: 0px;"/>
    <path d="M590.84,207.56h-11.06c.17,2.69,2,4.31,4.49,4.31,1.94,0,3.36-.84,3.94-2.37h2.49c-.87,2.89-3.13,4.69-6.48,4.69-4.11,0-7.03-2.98-7.03-7.58s2.78-7.64,7.03-7.64c3.82,0,6.63,2.49,6.63,7.41v1.19ZM588.32,205.33c-.03-2.49-1.68-4.05-4.11-4.05s-4.14,1.71-4.43,4.05h8.54Z" style="fill: #12181e; stroke-width: 0px;"/>
    <path d="M602.99,203.56h-2.55c-.03-1.53-.75-2.29-2.32-2.29s-2.23.9-2.23,1.97c0,1.13.58,1.59,2.75,2.11,3.47.81,4.78,2.03,4.78,4.37,0,2.84-2.2,4.46-5.12,4.46-3.39,0-5.27-1.91-5.33-4.75h2.55c.03,1.53,1.01,2.43,2.84,2.43,1.68,0,2.52-.84,2.52-1.97,0-1.22-.64-1.79-3.04-2.34-3.04-.69-4.49-1.77-4.49-4.17s1.68-4.43,4.83-4.43c2.84,0,4.75,1.85,4.8,4.6Z" style="fill: #12181e; stroke-width: 0px;"/>
  </g>
  <g style="isolation: isolate;">
    <path d="M455.74,820.06h-4.34c-.75-2-2.23-3.18-5.04-3.18-3.5,0-5.93,2.87-5.93,6.77s2.43,6.83,6.11,6.83c2.95,0,4.89-1.36,5.12-3.91h-4.86v-3.71h9.09v1.77c0,6.08-3.79,9.55-9.35,9.55-6.02,0-10.22-4.46-10.22-10.54s4.2-10.48,10.13-10.48c5.12,0,8.19,2.84,9.29,6.89Z" style="fill: #12181e; stroke-width: 0px;"/>
    <path d="M472.06,827.62h-10.22c.12,1.94,1.45,3.3,3.5,3.3,1.48,0,2.58-.58,2.98-1.71h3.65c-.9,3.1-3.18,4.92-6.72,4.92-4.34,0-7.29-3.01-7.29-7.64s2.92-7.67,7.29-7.67c3.88,0,6.8,2.46,6.8,7.61v1.19ZM468.3,825.04c-.06-1.91-1.27-3.13-3.13-3.13s-3.16,1.3-3.33,3.13h6.46Z" style="fill: #12181e; stroke-width: 0px;"/>
    <path d="M487.2,824.29v9.52h-3.73v-8.71c0-1.71-.72-2.63-2.14-2.63s-2.58,1.13-2.58,3.59v7.76h-3.73v-14.68h3.21l.26,1.91c.67-1.22,2.03-2.23,3.97-2.23,3.13,0,4.75,2.14,4.75,5.47Z" style="fill: #12181e; stroke-width: 0px;"/>
    <path d="M503.98,827.62h-10.22c.12,1.94,1.45,3.3,3.5,3.3,1.48,0,2.58-.58,2.98-1.71h3.65c-.9,3.1-3.18,4.92-6.72,4.92-4.34,0-7.29-3.01-7.29-7.64s2.92-7.67,7.29-7.67c3.88,0,6.8,2.46,6.8,7.61v1.19ZM500.22,825.04c-.06-1.91-1.27-3.13-3.13-3.13s-3.16,1.3-3.33,3.13h6.46Z" style="fill: #12181e; stroke-width: 0px;"/>
    <path d="M511.94,823.62c-.69.52-1.16,1.39-1.19,2.69v7.5h-3.76v-14.68h3.24l.32,2.34c.52-1.27,1.79-2.49,4.31-2.49v3.73c-1.19,0-2.08.2-2.92.9Z" style="fill: #12181e; stroke-width: 0px;"/>
    <path d="M521.72,814.82c0,1.27-1.01,2.23-2.29,2.23s-2.26-.96-2.26-2.23,1.01-2.23,2.26-2.23,2.29.98,2.29,2.23ZM517.58,833.81v-14.68h3.73v14.68h-3.73Z" style="fill: #12181e; stroke-width: 0px;"/>
    <path d="M538.34,824.32h-3.59c-.46-1.33-1.56-2.08-3.1-2.08-2,0-3.53,1.77-3.53,4.25s1.51,4.23,3.65,4.23c1.5,0,2.63-.87,2.98-2.08h3.65c-.7,3.65-3.42,5.5-6.8,5.5-4.28,0-7.35-3.1-7.35-7.64s3.07-7.67,7.35-7.67c3.44,0,6.19,1.79,6.74,5.5Z" style="fill: #12181e; stroke-width: 0px;"/>
    <path d="M557.64,833.81l-.26-1.97c-.84,1.19-2.17,2.29-4.69,2.29-3.94,0-6.8-3.36-6.8-7.67s2.87-7.64,6.83-7.64c2.11,0,3.65.87,4.4,1.94v-8.08h3.73v21.13h-3.21ZM549.77,826.46c0,2.55,1.59,4.17,3.71,4.17,1.85,0,3.73-1.45,3.73-4.08v-.17c-.03-2.61-1.91-4.05-3.73-4.05-2.05,0-3.71,1.62-3.71,4.14Z" style="fill: #12181e; stroke-width: 0px;"/>
    <path d="M569.8,823.62c-.69.52-1.16,1.39-1.19,2.69v7.5h-3.76v-14.68h3.24l.32,2.34c.52-1.27,1.79-2.49,4.31-2.49v3.73c-1.19,0-2.08.2-2.92.9Z" style="fill: #12181e; stroke-width: 0px;"/>
    <path d="M584.09,833.81l-.29-1.91c-.67,1.27-1.97,2.23-3.88,2.23-3.16,0-4.72-2.14-4.72-5.47v-9.52h3.73v8.68c0,1.74.69,2.66,2.08,2.66s2.55-1.1,2.55-3.47v-7.87h3.73v14.68h-3.21Z" style="fill: #12181e; stroke-width: 0px;"/>
    <path d="M604.35,822.32h-2.17c.17.52.26,1.1.26,1.71,0,2.95-2.37,5.09-5.76,5.09-.87,0-1.71-.14-2.43-.38-.2.26-.38.61-.38,1.07,0,.78.58,1.22,1.48,1.22h3.47c3.01,0,4.81,1.48,4.81,4.23,0,3.3-2.58,5.09-6.48,5.09-4.37,0-6.66-1.62-6.66-4.52,0-1.27.75-2.11,1.48-2.58-.9-.61-1.71-1.74-1.71-3.16s.64-2.4,1.53-3.1c-.67-.81-1.01-1.82-1.01-2.98,0-3.04,2.43-5.21,5.91-5.21.75,0,1.48.09,2.11.32h5.56v3.18ZM594.17,835.55c0,1.33,1.16,2,2.98,2s2.81-.69,2.81-2.05c0-1.1-.78-1.62-2.08-1.62h-2.2c-.84.12-1.51.67-1.51,1.68ZM598.85,824.03c0-1.42-.9-2.37-2.2-2.37s-2.2.96-2.2,2.37.87,2.34,2.2,2.34,2.2-.98,2.2-2.34Z" style="fill: #12181e; stroke-width: 0px;"/>
    <path d="M616.36,823.45h-3.71c-.03-1.07-.55-1.68-1.68-1.68s-1.62.61-1.62,1.45c0,.9.49,1.33,2.55,1.71,3.56.58,4.8,2.06,4.8,4.43,0,3.33-2.63,4.78-5.67,4.78-3.62,0-5.62-1.88-5.73-4.78h3.71c.03,1.19.81,1.82,2.11,1.82,1.16,0,1.82-.55,1.82-1.42s-.46-1.42-2.66-1.82c-3.21-.55-4.66-1.94-4.66-4.37s1.77-4.75,5.38-4.75c3.1,0,5.27,1.85,5.35,4.63Z" style="fill: #12181e; stroke-width: 0px;"/>
    <path d="M628.78,814.74c0,.93-.78,1.68-1.74,1.68s-1.71-.75-1.71-1.68.75-1.71,1.71-1.71,1.74.75,1.74,1.71ZM625.8,833.81v-14.59h2.49v14.59h-2.49Z" style="fill: #12181e; stroke-width: 0px;"/>
    <path d="M643.95,824.37v9.44h-2.52v-9.03c0-2.26-1.07-3.44-2.84-3.44-1.91,0-3.39,1.68-3.39,4.66v7.82h-2.49v-14.59h2.23l.15,2c.67-1.27,2.05-2.32,4.11-2.32,3.13,0,4.75,2.26,4.75,5.47Z" style="fill: #12181e; stroke-width: 0px;"/>
    <path d="M444.48,853.95v2.32h-3.76l-.06,7.82c0,1.59.41,2.37,2.08,2.37.81,0,1.3-.12,1.74-.26v2.23c-.43.17-1.1.32-2.17.32-2.75,0-4.17-1.22-4.14-4.2l.06-8.28h-2.72v-2.32h2.72l.03-3.65h2.52l-.03,3.65h3.73Z" style="fill: #12181e; stroke-width: 0px;"/>
    <path d="M454,853.63c3.13,0,4.75,2.26,4.75,5.47v9.44h-2.52v-9.03c0-2.26-1.07-3.44-2.84-3.44-1.91,0-3.39,1.68-3.39,4.66v7.82h-2.49v-21.13h2.49v8.37c.55-1.13,1.88-2.14,4-2.14Z" style="fill: #12181e; stroke-width: 0px;"/>
    <path d="M475.33,862.23h-11.06c.17,2.69,2,4.31,4.49,4.31,1.94,0,3.36-.84,3.94-2.37h2.49c-.87,2.89-3.13,4.69-6.48,4.69-4.11,0-7.03-2.98-7.03-7.58s2.78-7.64,7.03-7.64c3.82,0,6.63,2.49,6.63,7.41v1.19ZM472.81,860c-.03-2.49-1.68-4.05-4.11-4.05s-4.14,1.71-4.43,4.05h8.54Z" style="fill: #12181e; stroke-width: 0px;"/>
    <path d="M492.2,868.92c-5.01,0-7.96-2.92-7.96-8.39v-12.24h2.63v12.24c0,3.88,1.77,5.93,5.33,5.93s5.3-2.03,5.3-5.93v-12.24h2.63v12.24c0,5.47-2.92,8.39-7.93,8.39Z" style="fill: #12181e; stroke-width: 0px;"/>
    <path d="M515.5,859.11v9.44h-2.52v-9.03c0-2.26-1.07-3.44-2.84-3.44-1.91,0-3.39,1.68-3.39,4.66v7.82h-2.49v-14.59h2.23l.15,2c.67-1.27,2.05-2.32,4.11-2.32,3.13,0,4.75,2.26,4.75,5.47Z" style="fill: #12181e; stroke-width: 0px;"/>
    <path d="M522.68,849.47c0,.93-.78,1.68-1.74,1.68s-1.71-.75-1.71-1.68.75-1.71,1.71-1.71,1.74.75,1.74,1.71ZM519.7,868.54v-14.59h2.49v14.59h-2.49Z" style="fill: #12181e; stroke-width: 0px;"/>
    <path d="M533.65,853.95v2.32h-3.76l-.06,7.82c0,1.59.41,2.37,2.08,2.37.81,0,1.3-.12,1.74-.26v2.23c-.43.17-1.1.32-2.17.32-2.75,0-4.17-1.22-4.14-4.2l.06-8.28h-2.72v-2.32h2.72l.03-3.65h2.52l-.03,3.65h3.73Z" style="fill: #12181e; stroke-width: 0px;"/>
    <path d="M549.16,862.23h-11.06c.17,2.69,2,4.31,4.49,4.31,1.94,0,3.36-.84,3.94-2.37h2.49c-.87,2.89-3.13,4.69-6.48,4.69-4.11,0-7.03-2.98-7.03-7.58s2.78-7.64,7.03-7.64c3.82,0,6.63,2.49,6.63,7.41v1.19ZM546.64,860c-.03-2.49-1.68-4.05-4.11-4.05s-4.14,1.71-4.43,4.05h8.54Z" style="fill: #12181e; stroke-width: 0px;"/>
    <path d="M563.31,868.54l-.14-2.14c-.9,1.3-2.37,2.46-5.01,2.46-4.11,0-6.8-3.3-6.8-7.61s2.72-7.61,6.83-7.61c2.43,0,4.05,1.07,4.86,2.32v-8.54h2.49v21.13h-2.23ZM553.94,861.25c0,3.1,1.82,5.27,4.6,5.27,2.37,0,4.54-1.97,4.54-5.12v-.14c0-3.24-2.2-5.24-4.52-5.24-2.72,0-4.63,2.17-4.63,5.24Z" style="fill: #12181e; stroke-width: 0px;"/>
    <path d="M587.13,853.63h-2.66c-.03-2.17-1.39-3.36-3.33-3.36s-3.13,1.13-3.13,3.07,1.27,2.63,4.02,3.73c4.08,1.5,5.73,2.98,5.73,5.96,0,3.71-2.6,5.88-6.28,5.88-4.28,0-6.66-2.58-6.71-6.34h2.66c.06,2.58,1.53,4,4.08,4,2.37,0,3.59-1.45,3.59-3.36,0-1.74-1.22-2.66-4.25-3.73-3.44-1.27-5.5-2.66-5.5-5.93s2.08-5.64,5.85-5.64c3.53,0,5.85,1.97,5.93,5.73Z" style="fill: #12181e; stroke-width: 0px;"/>
    <path d="M598.04,853.95v2.32h-3.76l-.06,7.82c0,1.59.41,2.37,2.08,2.37.81,0,1.3-.12,1.74-.26v2.23c-.43.17-1.1.32-2.17.32-2.75,0-4.17-1.22-4.14-4.2l.06-8.28h-2.72v-2.32h2.72l.03-3.65h2.52l-.03,3.65h3.73Z" style="fill: #12181e; stroke-width: 0px;"/>
    <path d="M611.27,858.87v9.67h-2.26l-.12-2c-.72,1.3-2.29,2.32-4.43,2.32-2.55,0-4.25-1.56-4.25-4.11s1.79-3.79,4.08-4.23l4.46-.84v-.72c0-2.08-.96-3.01-2.69-3.01-1.59,0-2.98.87-2.98,2.66h-2.46c.09-2.81,2.23-4.98,5.44-4.98s5.21,1.85,5.21,5.24ZM602.73,864.72c0,1.16.81,1.82,2.23,1.82,1.22,0,2.29-.52,2.95-1.45.49-.67.84-1.68.84-2.69v-.55l-4,.87c-1.1.26-2.03.7-2.03,2Z" style="fill: #12181e; stroke-width: 0px;"/>
    <path d="M622.33,853.95v2.32h-3.76l-.06,7.82c0,1.59.41,2.37,2.08,2.37.81,0,1.3-.12,1.74-.26v2.23c-.43.17-1.1.32-2.17.32-2.75,0-4.17-1.22-4.14-4.2l.06-8.28h-2.72v-2.32h2.72l.03-3.65h2.52l-.03,3.65h3.73Z" style="fill: #12181e; stroke-width: 0px;"/>
    <path d="M637.84,862.23h-11.06c.17,2.69,2,4.31,4.49,4.31,1.94,0,3.36-.84,3.94-2.37h2.49c-.87,2.89-3.13,4.69-6.48,4.69-4.11,0-7.03-2.98-7.03-7.58s2.78-7.64,7.03-7.64c3.82,0,6.63,2.49,6.63,7.41v1.19ZM635.32,860c-.03-2.49-1.68-4.05-4.11-4.05s-4.14,1.71-4.43,4.05h8.54Z" style="fill: #12181e; stroke-width: 0px;"/>
    <path d="M649.99,858.24h-2.55c-.03-1.53-.75-2.29-2.32-2.29s-2.23.9-2.23,1.97c0,1.13.58,1.59,2.75,2.11,3.47.81,4.78,2.03,4.78,4.37,0,2.84-2.2,4.46-5.12,4.46-3.39,0-5.27-1.91-5.33-4.75h2.55c.03,1.53,1.01,2.43,2.84,2.43,1.68,0,2.52-.84,2.52-1.97,0-1.21-.64-1.79-3.04-2.34-3.04-.7-4.49-1.77-4.49-4.17s1.68-4.43,4.83-4.43c2.84,0,4.75,1.85,4.8,4.6Z" style="fill: #12181e; stroke-width: 0px;"/>
    <path d="M669.85,858.87v9.67h-2.26l-.12-2c-.72,1.3-2.29,2.32-4.43,2.32-2.55,0-4.25-1.56-4.25-4.11s1.79-3.79,4.08-4.23l4.46-.84v-.72c0-2.08-.96-3.01-2.69-3.01-1.59,0-2.98.87-2.98,2.66h-2.46c.09-2.81,2.23-4.98,5.44-4.98s5.21,1.85,5.21,5.24ZM661.31,864.72c0,1.16.81,1.82,2.23,1.82,1.22,0,2.29-.52,2.95-1.45.49-.67.84-1.68.84-2.69v-.55l-4,.87c-1.1.26-2.03.7-2.03,2Z" style="fill: #12181e; stroke-width: 0px;"/>
    <path d="M677.89,857.37c-.78.72-1.3,1.85-1.33,3.44v7.73h-2.49v-14.59h2.23l.17,2.55c.49-1.33,1.85-2.69,4.37-2.69v2.49c-1.16,0-2.14.32-2.95,1.07Z" style="fill: #12181e; stroke-width: 0px;"/>
    <path d="M695.87,862.23h-11.06c.17,2.69,2,4.31,4.49,4.31,1.94,0,3.36-.84,3.94-2.37h2.49c-.87,2.89-3.13,4.69-6.48,4.69-4.11,0-7.03-2.98-7.03-7.58s2.78-7.64,7.03-7.64c3.82,0,6.63,2.49,6.63,7.41v1.19ZM693.35,860c-.03-2.49-1.68-4.05-4.11-4.05s-4.14,1.71-4.43,4.05h8.54Z" style="fill: #12181e; stroke-width: 0px;"/>
    <path d="M450.12,893.11c0,6.4-2.43,10.54-6.8,10.54s-6.8-4.14-6.8-10.54,2.4-10.48,6.8-10.48,6.8,4.11,6.8,10.48ZM439.18,893.11c0,4.95,1.39,8.08,4.14,8.08s4.11-3.13,4.11-8.08-1.39-8.02-4.11-8.02-4.14,3.1-4.14,8.02Z" style="fill: #12181e; stroke-width: 0px;"/>
    <path d="M455.76,901.8c0,1.01-.81,1.79-1.82,1.79s-1.82-.78-1.82-1.79.78-1.79,1.82-1.79,1.82.75,1.82,1.79Z" style="fill: #12181e; stroke-width: 0px;"/>
    <path d="M471.11,897.11c0,3.76-2.49,6.54-6.34,6.54-2.08,0-3.65-.72-4.78-2.03-1.62-1.85-2.03-4.81-2.03-7.96,0-7.15,2.06-11.03,6.92-11.03,3.24,0,5.64,2.17,5.79,5.59h-2.66c-.2-2.2-1.36-3.13-3.21-3.13-2.66,0-4.08,2.23-4.17,7.7.72-1.07,2.32-2.03,4.23-2.03,3.97,0,6.25,2.78,6.25,6.34ZM468.41,897.16c0-2.2-1.48-3.94-3.71-3.94-2.11,0-3.85,1.65-3.85,3.88,0,2.03,1.48,4.11,3.85,4.11,2.23,0,3.71-1.71,3.71-4.05Z" style="fill: #12181e; stroke-width: 0px;"/>
    <path d="M477.01,903.27h-2.87l7.99-17.74h-9.06v-2.52h12.07v2.14l-8.13,18.12Z" style="fill: #12181e; stroke-width: 0px;"/>
    <path d="M500.13,903.27h-2.95l-3.79-5.56-3.76,5.56h-2.95l5.04-7.53-4.72-7.06h2.95l3.45,5.09,3.47-5.09h2.95l-4.75,7.06,5.07,7.53Z" style="fill: #12181e; stroke-width: 0px;"/>
    <path d="M515.88,888.68v2.32h-3.76l-.06,7.82c0,1.59.41,2.37,2.08,2.37.81,0,1.3-.12,1.74-.26v2.23c-.43.17-1.1.32-2.17.32-2.75,0-4.17-1.22-4.14-4.2l.06-8.28h-2.72v-2.32h2.72l.03-3.65h2.52l-.03,3.65h3.73Z" style="fill: #12181e; stroke-width: 0px;"/>
    <path d="M525.4,888.36c3.13,0,4.75,2.26,4.75,5.47v9.44h-2.52v-9.03c0-2.26-1.07-3.44-2.84-3.44-1.91,0-3.39,1.68-3.39,4.66v7.82h-2.49v-21.13h2.49v8.37c.55-1.13,1.88-2.14,4-2.14Z" style="fill: #12181e; stroke-width: 0px;"/>
    <path d="M546.73,896.96h-11.06c.17,2.69,2,4.31,4.49,4.31,1.94,0,3.36-.84,3.94-2.37h2.49c-.87,2.89-3.13,4.69-6.48,4.69-4.11,0-7.03-2.98-7.03-7.58s2.78-7.64,7.03-7.64c3.82,0,6.63,2.49,6.63,7.41v1.19ZM544.21,894.73c-.03-2.49-1.68-4.05-4.11-4.05s-4.14,1.71-4.43,4.05h8.54Z" style="fill: #12181e; stroke-width: 0px;"/>
    <path d="M568.23,893.23h-2.49c-.58-1.62-2.08-2.55-3.97-2.55-2.6,0-4.54,2.23-4.54,5.33s1.94,5.27,4.6,5.27c1.85,0,3.39-.98,3.91-2.55h2.52c-.78,3.18-3.33,4.86-6.51,4.86-4.11,0-7.09-3.18-7.09-7.58s2.98-7.64,7.09-7.64c3.21,0,5.79,1.68,6.48,4.86Z" style="fill: #12181e; stroke-width: 0px;"/>
    <path d="M585.08,895.98c0,4.43-3.04,7.61-7.38,7.61s-7.41-3.18-7.41-7.61,3.04-7.61,7.41-7.61,7.38,3.18,7.38,7.61ZM572.86,895.98c0,3.01,1.94,5.3,4.86,5.3s4.78-2.29,4.78-5.3-1.88-5.3-4.78-5.3-4.86,2.26-4.86,5.3Z" style="fill: #12181e; stroke-width: 0px;"/>
    <path d="M597.2,892.97h-2.55c-.03-1.53-.75-2.29-2.32-2.29s-2.23.9-2.23,1.97c0,1.13.58,1.59,2.75,2.11,3.47.81,4.78,2.03,4.78,4.37,0,2.84-2.2,4.46-5.12,4.46-3.39,0-5.27-1.91-5.33-4.75h2.55c.03,1.53,1.01,2.43,2.84,2.43,1.68,0,2.52-.84,2.52-1.97,0-1.21-.64-1.79-3.04-2.34-3.04-.7-4.49-1.77-4.49-4.17s1.68-4.43,4.83-4.43c2.84,0,4.75,1.85,4.8,4.6Z" style="fill: #12181e; stroke-width: 0px;"/>
    <path d="M608,888.68v2.32h-3.76l-.06,7.82c0,1.59.41,2.37,2.08,2.37.81,0,1.3-.12,1.74-.26v2.23c-.43.17-1.1.32-2.17.32-2.75,0-4.17-1.22-4.14-4.2l.06-8.28h-2.72v-2.32h2.72l.03-3.65h2.52l-.03,3.65h3.73Z" style="fill: #12181e; stroke-width: 0px;"/>
    <path d="M630.55,895.98c0,4.43-3.04,7.61-7.38,7.61s-7.41-3.18-7.41-7.61,3.04-7.61,7.41-7.61,7.38,3.18,7.38,7.61ZM618.33,895.98c0,3.01,1.94,5.3,4.86,5.3s4.78-2.29,4.78-5.3-1.88-5.3-4.78-5.3-4.86,2.26-4.86,5.3Z" style="fill: #12181e; stroke-width: 0px;"/>
    <path d="M640.91,882.23v2.26c-.49-.2-1.01-.35-1.77-.35-1.27,0-2.06.75-2.06,2.37v2.17h3.62v2.29h-3.62v12.3h-2.52v-12.3h-2.63v-2.29h2.63v-2.23c0-2.89,1.59-4.57,4.37-4.57.87,0,1.56.17,1.97.35Z" style="fill: #12181e; stroke-width: 0px;"/>
    <path d="M656.22,888.68v2.32h-3.76l-.06,7.82c0,1.59.41,2.37,2.08,2.37.81,0,1.3-.12,1.74-.26v2.23c-.43.17-1.1.32-2.17.32-2.75,0-4.17-1.22-4.14-4.2l.06-8.28h-2.72v-2.32h2.72l.03-3.65h2.52l-.03,3.65h3.73Z" style="fill: #12181e; stroke-width: 0px;"/>
    <path d="M665.74,888.36c3.13,0,4.75,2.26,4.75,5.47v9.44h-2.52v-9.03c0-2.26-1.07-3.44-2.84-3.44-1.91,0-3.39,1.68-3.39,4.66v7.82h-2.49v-21.13h2.49v8.37c.55-1.13,1.88-2.14,4-2.14Z" style="fill: #12181e; stroke-width: 0px;"/>
    <path d="M688.2,895.98c0,4.43-3.04,7.61-7.38,7.61s-7.41-3.18-7.41-7.61,3.04-7.61,7.41-7.61,7.38,3.18,7.38,7.61ZM675.98,895.98c0,3.01,1.94,5.3,4.86,5.3s4.78-2.29,4.78-5.3-1.88-5.3-4.78-5.3-4.86,2.26-4.86,5.3Z" style="fill: #12181e; stroke-width: 0px;"/>
    <path d="M700.32,892.97h-2.55c-.03-1.53-.75-2.29-2.32-2.29s-2.23.9-2.23,1.97c0,1.13.58,1.59,2.75,2.11,3.47.81,4.78,2.03,4.78,4.37,0,2.84-2.2,4.46-5.12,4.46-3.39,0-5.27-1.91-5.33-4.75h2.55c.03,1.53,1.01,2.43,2.84,2.43,1.68,0,2.52-.84,2.52-1.97,0-1.21-.64-1.79-3.04-2.34-3.04-.7-4.49-1.77-4.49-4.17s1.68-4.43,4.83-4.43c2.84,0,4.75,1.85,4.8,4.6Z" style="fill: #12181e; stroke-width: 0px;"/>
    <path d="M716.56,896.96h-11.06c.17,2.69,2,4.31,4.49,4.31,1.94,0,3.36-.84,3.94-2.37h2.49c-.87,2.89-3.13,4.69-6.48,4.69-4.11,0-7.03-2.98-7.03-7.58s2.78-7.64,7.03-7.64c3.82,0,6.63,2.49,6.63,7.41v1.19ZM714.04,894.73c-.03-2.49-1.68-4.05-4.11-4.05s-4.14,1.71-4.43,4.05h8.54Z" style="fill: #12181e; stroke-width: 0px;"/>
    <path d="M440.51,918.93c0,.93-.78,1.68-1.74,1.68s-1.71-.75-1.71-1.68.75-1.71,1.71-1.71,1.74.75,1.74,1.71ZM437.53,938v-14.59h2.49v14.59h-2.49Z" style="fill: #12181e; stroke-width: 0px;"/>
    <path d="M455.68,928.57v9.44h-2.52v-9.03c0-2.26-1.07-3.44-2.84-3.44-1.91,0-3.39,1.68-3.39,4.66v7.82h-2.49v-14.59h2.23l.15,2c.67-1.27,2.05-2.32,4.11-2.32,3.13,0,4.75,2.26,4.75,5.47Z" style="fill: #12181e; stroke-width: 0px;"/>
    <path d="M479.3,930.71c0,4.43-3.04,7.61-7.38,7.61s-7.41-3.18-7.41-7.61,3.04-7.61,7.41-7.61,7.38,3.18,7.38,7.61ZM467.08,930.71c0,3.01,1.94,5.3,4.86,5.3s4.78-2.29,4.78-5.3-1.88-5.3-4.78-5.3-4.86,2.26-4.86,5.3Z" style="fill: #12181e; stroke-width: 0px;"/>
    <path d="M489.51,923.41v2.32h-3.76l-.06,7.82c0,1.59.41,2.37,2.08,2.37.81,0,1.3-.12,1.74-.26v2.23c-.43.17-1.1.32-2.17.32-2.75,0-4.17-1.22-4.14-4.2l.06-8.28h-2.72v-2.32h2.72l.03-3.65h2.52l-.03,3.65h3.73Z" style="fill: #12181e; stroke-width: 0px;"/>
    <path d="M499.03,923.1c3.13,0,4.75,2.26,4.75,5.47v9.44h-2.52v-9.03c0-2.26-1.07-3.44-2.84-3.44-1.91,0-3.39,1.68-3.39,4.66v7.82h-2.49v-21.13h2.49v8.37c.55-1.13,1.88-2.14,4-2.14Z" style="fill: #12181e; stroke-width: 0px;"/>
    <path d="M520.36,931.69h-11.06c.17,2.69,2,4.31,4.49,4.31,1.94,0,3.36-.84,3.94-2.37h2.49c-.87,2.89-3.13,4.69-6.48,4.69-4.11,0-7.03-2.98-7.03-7.58s2.78-7.64,7.03-7.64c3.82,0,6.63,2.49,6.63,7.41v1.19ZM517.85,929.46c-.03-2.49-1.68-4.05-4.11-4.05s-4.14,1.71-4.43,4.05h8.54Z" style="fill: #12181e; stroke-width: 0px;"/>
    <path d="M527.57,926.83c-.78.72-1.3,1.85-1.33,3.45v7.73h-2.49v-14.59h2.23l.17,2.55c.49-1.33,1.85-2.69,4.37-2.69v2.49c-1.16,0-2.14.32-2.95,1.07Z" style="fill: #12181e; stroke-width: 0px;"/>
    <path d="M551.65,927.96h-2.49c-.58-1.62-2.08-2.55-3.97-2.55-2.6,0-4.54,2.23-4.54,5.33s1.94,5.27,4.6,5.27c1.85,0,3.39-.98,3.91-2.55h2.52c-.78,3.18-3.33,4.86-6.51,4.86-4.11,0-7.09-3.18-7.09-7.58s2.98-7.64,7.09-7.64c3.21,0,5.79,1.68,6.48,4.86Z" style="fill: #12181e; stroke-width: 0px;"/>
    <path d="M568.5,930.71c0,4.43-3.04,7.61-7.38,7.61s-7.41-3.18-7.41-7.61,3.04-7.61,7.41-7.61,7.38,3.18,7.38,7.61ZM556.28,930.71c0,3.01,1.94,5.3,4.86,5.3s4.78-2.29,4.78-5.3-1.88-5.3-4.78-5.3-4.86,2.26-4.86,5.3Z" style="fill: #12181e; stroke-width: 0px;"/>
    <path d="M580.33,938l-.15-2c-.67,1.39-2,2.32-4.02,2.32-3.15,0-4.69-2.23-4.69-5.47v-9.44h2.49v9.03c0,2.29,1.01,3.47,2.78,3.47,1.88,0,3.33-1.59,3.33-4.4v-8.1h2.49v14.59h-2.23Z" style="fill: #12181e; stroke-width: 0px;"/>
    <path d="M598.13,928.57v9.44h-2.52v-9.03c0-2.26-1.07-3.44-2.84-3.44-1.91,0-3.39,1.68-3.39,4.66v7.82h-2.49v-14.59h2.23l.15,2c.67-1.27,2.05-2.32,4.11-2.32,3.13,0,4.75,2.26,4.75,5.47Z" style="fill: #12181e; stroke-width: 0px;"/>
    <path d="M609.27,923.41v2.32h-3.76l-.06,7.82c0,1.59.41,2.37,2.08,2.37.81,0,1.3-.12,1.74-.26v2.23c-.43.17-1.1.32-2.17.32-2.75,0-4.17-1.22-4.14-4.2l.06-8.28h-2.72v-2.32h2.72l.03-3.65h2.52l-.03,3.65h3.73Z" style="fill: #12181e; stroke-width: 0px;"/>
    <path d="M616.3,926.83c-.78.72-1.3,1.85-1.33,3.45v7.73h-2.49v-14.59h2.23l.17,2.55c.49-1.33,1.85-2.69,4.37-2.69v2.49c-1.16,0-2.14.32-2.95,1.07Z" style="fill: #12181e; stroke-width: 0px;"/>
    <path d="M625.16,918.93c0,.93-.78,1.68-1.74,1.68s-1.71-.75-1.71-1.68.75-1.71,1.71-1.71,1.74.75,1.74,1.71ZM622.18,938v-14.59h2.49v14.59h-2.49Z" style="fill: #12181e; stroke-width: 0px;"/>
    <path d="M641.57,931.69h-11.06c.17,2.69,2,4.31,4.49,4.31,1.94,0,3.36-.84,3.94-2.37h2.49c-.87,2.89-3.13,4.69-6.48,4.69-4.11,0-7.03-2.98-7.03-7.58s2.78-7.64,7.03-7.64c3.82,0,6.63,2.49,6.63,7.41v1.19ZM639.05,929.46c-.03-2.49-1.68-4.05-4.11-4.05s-4.14,1.71-4.43,4.05h8.54Z" style="fill: #12181e; stroke-width: 0px;"/>
    <path d="M653.73,927.7h-2.55c-.03-1.53-.75-2.29-2.32-2.29s-2.23.9-2.23,1.97c0,1.13.58,1.59,2.75,2.11,3.47.81,4.78,2.03,4.78,4.37,0,2.84-2.2,4.46-5.12,4.46-3.39,0-5.27-1.91-5.33-4.75h2.55c.03,1.53,1.01,2.43,2.84,2.43,1.68,0,2.52-.84,2.52-1.97,0-1.22-.64-1.79-3.04-2.34-3.04-.69-4.49-1.77-4.49-4.17s1.68-4.43,4.83-4.43c2.84,0,4.75,1.85,4.8,4.6Z" style="fill: #12181e; stroke-width: 0px;"/>
  </g>
  <g>
    <path d="M14.05,1070.86h-1.82c-.52-1.46-1.71-2.45-3.78-2.45-2.67,0-4.52,2.12-4.52,5.01s1.85,5,4.54,5c2.09,0,3.33-1.06,3.83-2.5h1.76c-.7,2.54-2.63,4.03-5.6,4.03-3.66,0-6.25-2.79-6.25-6.54s2.59-6.54,6.23-6.54c2.97,0,4.9,1.55,5.6,3.98Z" style="fill: #777; stroke-width: 0px;"/>
    <path d="M19.97,1070.45c1.94,0,2.95,1.4,2.95,3.4v5.87h-1.57v-5.62c0-1.41-.67-2.14-1.76-2.14-1.19,0-2.11,1.04-2.11,2.9v4.86h-1.55v-13.14h1.55v5.2c.34-.7,1.17-1.33,2.48-1.33Z" style="fill: #777; stroke-width: 0px;"/>
    <path d="M31.81,1073.71v6.01h-1.4l-.07-1.24c-.45.81-1.42,1.44-2.75,1.44-1.58,0-2.65-.97-2.65-2.56s1.12-2.36,2.54-2.63l2.77-.52v-.45c0-1.3-.59-1.87-1.67-1.87-.99,0-1.85.54-1.85,1.66h-1.53c.05-1.75,1.39-3.1,3.38-3.1s3.24,1.15,3.24,3.26ZM26.5,1077.34c0,.72.5,1.13,1.39,1.13.76,0,1.42-.32,1.84-.9.31-.41.52-1.04.52-1.67v-.34l-2.48.54c-.68.16-1.26.43-1.26,1.24Z" style="fill: #777; stroke-width: 0px;"/>
    <path d="M36.81,1072.77c-.49.45-.81,1.15-.83,2.14v4.81h-1.55v-9.07h1.39l.11,1.58c.31-.83,1.15-1.67,2.72-1.67v1.55c-.72,0-1.33.2-1.84.67Z" style="fill: #777; stroke-width: 0px;"/>
    <path d="M44.9,1070.65v1.44h-2.34l-.04,4.86c0,.99.25,1.48,1.3,1.48.5,0,.81-.07,1.08-.16v1.39c-.27.11-.68.2-1.35.2-1.71,0-2.59-.76-2.58-2.61l.04-5.15h-1.69v-1.44h1.69l.02-2.27h1.57l-.02,2.27h2.32Z" style="fill: #777; stroke-width: 0px;"/>
    <path d="M48.49,1071.58c0,.63-.5,1.12-1.13,1.12s-1.13-.49-1.13-1.12.49-1.13,1.13-1.13,1.13.49,1.13,1.13ZM48.49,1078.8c0,.63-.5,1.12-1.13,1.12s-1.13-.49-1.13-1.12.49-1.12,1.13-1.12,1.13.47,1.13,1.12Z" style="fill: #777; stroke-width: 0px;"/>
    <path d="M65.36,1070.86h-1.82c-.52-1.46-1.71-2.45-3.78-2.45-2.67,0-4.52,2.12-4.52,5.01s1.85,5,4.54,5c2.09,0,3.33-1.06,3.83-2.5h1.76c-.7,2.54-2.63,4.03-5.6,4.03-3.66,0-6.25-2.79-6.25-6.54s2.59-6.54,6.23-6.54c2.97,0,4.9,1.55,5.6,3.98Z" style="fill: #777; stroke-width: 0px;"/>
    <path d="M68.92,1068.65v3.98h4.38v1.55h-4.38v5.55h-1.64v-12.6h6.79v1.53h-5.15Z" style="fill: #777; stroke-width: 0px;"/>
    <path d="M82.14,1079.72l-2.75-5.11h-1.84v5.11h-1.64v-12.6h3.44c2.52,0,4.12,1.51,4.12,3.8,0,1.66-.88,2.9-2.38,3.42l2.92,5.38h-1.87ZM77.55,1073.13h1.8c1.46,0,2.47-.79,2.47-2.21s-.99-2.27-2.47-2.27h-1.8v4.48Z" style="fill: #777; stroke-width: 0px;"/>
    <path d="M84.42,1079.72l5.31-12.6h1.53l-5.31,12.6h-1.53Z" style="fill: #777; stroke-width: 0px;"/>
    <path d="M101.25,1079.72l-1.33-3.33h-5.56l-1.31,3.33h-1.8l5.06-12.6h1.69l5.06,12.6h-1.8ZM94.92,1074.86h4.45l-2-4.95-.23-.68-.23.68-1.98,4.95Z" style="fill: #777; stroke-width: 0px;"/>
    <path d="M104.71,1079.72v-13.14h1.55v13.14h-1.55Z" style="fill: #777; stroke-width: 0px;"/>
    <path d="M108.95,1079.72v-13.14h1.55v13.14h-1.55Z" style="fill: #777; stroke-width: 0px;"/>
    <path d="M115.11,1067.86c0,.58-.49,1.04-1.08,1.04s-1.06-.47-1.06-1.04.47-1.06,1.06-1.06,1.08.47,1.08,1.06ZM113.26,1079.72v-9.07h1.55v9.07h-1.55Z" style="fill: #777; stroke-width: 0px;"/>
    <path d="M123.12,1073.31h-1.58c-.02-.95-.47-1.42-1.44-1.42s-1.39.56-1.39,1.22c0,.7.36.99,1.71,1.31,2.16.5,2.97,1.26,2.97,2.72,0,1.76-1.37,2.77-3.19,2.77-2.11,0-3.28-1.19-3.31-2.95h1.58c.02.95.63,1.51,1.76,1.51,1.04,0,1.57-.52,1.57-1.22,0-.76-.4-1.12-1.89-1.46-1.89-.43-2.79-1.1-2.79-2.59s1.04-2.75,3.01-2.75c1.76,0,2.95,1.15,2.99,2.86Z" style="fill: #777; stroke-width: 0px;"/>
    <path d="M133.92,1075.18c0,2.75-1.89,4.74-4.59,4.74s-4.61-1.98-4.61-4.74,1.89-4.74,4.61-4.74,4.59,1.98,4.59,4.74ZM126.32,1075.18c0,1.87,1.21,3.29,3.02,3.29s2.97-1.42,2.97-3.29-1.17-3.29-2.97-3.29-3.02,1.4-3.02,3.29Z" style="fill: #777; stroke-width: 0px;"/>
    <path d="M142.92,1073.85v5.87h-1.57v-5.62c0-1.41-.67-2.14-1.76-2.14-1.19,0-2.11,1.04-2.11,2.9v4.86h-1.55v-9.07h1.39l.09,1.24c.41-.79,1.28-1.44,2.56-1.44,1.94,0,2.95,1.4,2.95,3.4Z" style="fill: #777; stroke-width: 0px;"/>
    <path d="M159.5,1079.72h-2.07l-4.32-5.71-2.18,2.65v3.06h-1.64v-12.6h1.64v7.13l5.6-7.13h2.05l-4.41,5.6,5.33,7Z" style="fill: #777; stroke-width: 0px;"/>
    <path d="M163.48,1072.77c-.49.45-.81,1.15-.83,2.14v4.81h-1.55v-9.07h1.39l.11,1.58c.31-.83,1.15-1.67,2.72-1.67v1.55c-.72,0-1.33.2-1.84.67Z" style="fill: #777; stroke-width: 0px;"/>
    <path d="M172.46,1079.72l-.09-1.24c-.41.86-1.24,1.44-2.5,1.44-1.96,0-2.92-1.39-2.92-3.4v-5.87h1.55v5.62c0,1.42.63,2.16,1.73,2.16,1.17,0,2.07-.99,2.07-2.74v-5.04h1.55v9.07h-1.39Z" style="fill: #777; stroke-width: 0px;"/>
    <path d="M184.29,1072.02h-1.57c.27.49.43,1.06.43,1.69,0,1.8-1.35,3.22-3.46,3.22-.76,0-1.42-.18-1.94-.49-.22.2-.38.5-.38.9,0,.59.47.92,1.15.92h2.41c1.93,0,2.86.95,2.86,2.47,0,1.93-1.46,3.06-3.78,3.06-2.58,0-3.96-1.04-3.96-2.83,0-.86.47-1.35.99-1.64-.61-.31-1.21-.97-1.21-1.89,0-.83.41-1.46.94-1.85-.38-.52-.58-1.17-.58-1.87,0-1.87,1.37-3.26,3.49-3.26.47,0,.9.07,1.3.2h3.29v1.37ZM177.59,1080.91c0,.99.9,1.51,2.43,1.51,1.4,0,2.25-.54,2.25-1.62,0-.85-.63-1.17-1.64-1.17h-1.73c-.68.04-1.31.4-1.31,1.28ZM181.62,1073.71c0-1.08-.74-1.89-1.94-1.89s-1.94.81-1.94,1.89.76,1.85,1.94,1.85,1.94-.81,1.94-1.85Z" style="fill: #777; stroke-width: 0px;"/>
    <path d="M197.84,1073.85v5.87h-1.55v-5.62c0-1.41-.65-2.14-1.75-2.14-1.19,0-2.09,1.04-2.09,2.9v4.86h-1.55v-5.62c0-1.41-.65-2.14-1.75-2.14-1.19,0-2.09,1.04-2.09,2.9v4.86h-1.55v-9.07h1.39l.09,1.24c.41-.79,1.28-1.44,2.52-1.44,1.35,0,2.23.67,2.65,1.73.47-.9,1.33-1.73,2.74-1.73,1.96,0,2.93,1.4,2.93,3.4Z" style="fill: #777; stroke-width: 0px;"/>
    <path d="M206.73,1073.71v6.01h-1.4l-.07-1.24c-.45.81-1.42,1.44-2.75,1.44-1.58,0-2.65-.97-2.65-2.56s1.12-2.36,2.54-2.63l2.77-.52v-.45c0-1.3-.59-1.87-1.67-1.87-.99,0-1.85.54-1.85,1.66h-1.53c.05-1.75,1.39-3.1,3.38-3.1s3.24,1.15,3.24,3.26ZM201.42,1077.34c0,.72.5,1.13,1.39,1.13.76,0,1.42-.32,1.84-.9.31-.41.52-1.04.52-1.67v-.34l-2.48.54c-.68.16-1.26.43-1.26,1.24Z" style="fill: #777; stroke-width: 0px;"/>
    <path d="M216.23,1073.85v5.87h-1.57v-5.62c0-1.41-.67-2.14-1.76-2.14-1.19,0-2.11,1.04-2.11,2.9v4.86h-1.55v-9.07h1.39l.09,1.24c.41-.79,1.28-1.44,2.56-1.44,1.94,0,2.95,1.4,2.95,3.4Z" style="fill: #777; stroke-width: 0px;"/>
    <path d="M226.84,1075.06c0,1.44-1.12,2.54-2.56,2.54s-2.54-1.1-2.54-2.54,1.1-2.56,2.54-2.56,2.56,1.12,2.56,2.56Z" style="fill: #777; stroke-width: 0px;"/>
    <path d="M239.54,1070.45h-1.66c-.02-1.35-.86-2.09-2.07-2.09s-1.94.7-1.94,1.91.79,1.64,2.5,2.32c2.54.94,3.56,1.85,3.56,3.71,0,2.3-1.62,3.66-3.91,3.66-2.66,0-4.14-1.6-4.18-3.94h1.66c.04,1.6.95,2.48,2.54,2.48,1.48,0,2.23-.9,2.23-2.09,0-1.08-.76-1.66-2.65-2.32-2.14-.79-3.42-1.66-3.42-3.69s1.3-3.51,3.64-3.51c2.2,0,3.64,1.22,3.69,3.57Z" style="fill: #777; stroke-width: 0px;"/>
    <path d="M250.42,1075.18c0,2.75-1.89,4.74-4.59,4.74s-4.61-1.98-4.61-4.74,1.89-4.74,4.61-4.74,4.59,1.98,4.59,4.74ZM242.82,1075.18c0,1.87,1.21,3.29,3.02,3.29s2.97-1.42,2.97-3.29-1.17-3.29-2.97-3.29-3.02,1.4-3.02,3.29Z" style="fill: #777; stroke-width: 0px;"/>
    <path d="M257.78,1079.72l-.09-1.24c-.41.86-1.24,1.44-2.5,1.44-1.96,0-2.92-1.39-2.92-3.4v-5.87h1.55v5.62c0,1.42.63,2.16,1.73,2.16,1.17,0,2.07-.99,2.07-2.74v-5.04h1.55v9.07h-1.39Z" style="fill: #777; stroke-width: 0px;"/>
    <path d="M264.35,1072.77c-.49.45-.81,1.15-.83,2.14v4.81h-1.55v-9.07h1.39l.11,1.58c.31-.83,1.15-1.67,2.72-1.67v1.55c-.72,0-1.33.2-1.84.67Z" style="fill: #777; stroke-width: 0px;"/>
    <path d="M275.47,1073.47h-1.55c-.36-1.01-1.3-1.58-2.47-1.58-1.62,0-2.83,1.39-2.83,3.31s1.21,3.28,2.86,3.28c1.15,0,2.11-.61,2.43-1.58h1.57c-.49,1.98-2.07,3.03-4.05,3.03-2.56,0-4.41-1.98-4.41-4.72s1.85-4.75,4.41-4.75c2,0,3.6,1.04,4.03,3.02Z" style="fill: #777; stroke-width: 0px;"/>
    <path d="M285.25,1075.8h-6.88c.11,1.67,1.24,2.68,2.79,2.68,1.21,0,2.09-.52,2.45-1.48h1.55c-.54,1.8-1.94,2.92-4.03,2.92-2.56,0-4.38-1.85-4.38-4.72s1.73-4.75,4.38-4.75c2.38,0,4.12,1.55,4.12,4.61v.74ZM283.68,1074.41c-.02-1.55-1.04-2.52-2.56-2.52s-2.57,1.06-2.75,2.52h5.31Z" style="fill: #777; stroke-width: 0px;"/>
    <path d="M288.83,1071.58c0,.63-.5,1.12-1.13,1.12s-1.13-.49-1.13-1.12.49-1.13,1.13-1.13,1.13.49,1.13,1.13ZM288.83,1078.8c0,.63-.5,1.12-1.13,1.12s-1.13-.49-1.13-1.12.49-1.12,1.13-1.12,1.13.47,1.13,1.12Z" style="fill: #777; stroke-width: 0px;"/>
    <path d="M300.78,1079.72l-2.75-5.11h-1.84v5.11h-1.64v-12.6h3.44c2.52,0,4.12,1.51,4.12,3.8,0,1.66-.88,2.9-2.38,3.42l2.92,5.38h-1.87ZM296.19,1073.13h1.8c1.46,0,2.47-.79,2.47-2.21s-.99-2.27-2.47-2.27h-1.8v4.48Z" style="fill: #777; stroke-width: 0px;"/>
    <path d="M313.31,1079.72l-1.33-3.33h-5.56l-1.31,3.33h-1.8l5.06-12.6h1.69l5.06,12.6h-1.8ZM306.97,1074.86h4.45l-2-4.95-.23-.68-.23.68-1.98,4.95Z" style="fill: #777; stroke-width: 0px;"/>
    <path d="M325.19,1079.72l-6.27-9.04-.49-.77v9.81h-1.64v-12.6h1.6l6.23,9,.54.83v-9.83h1.64v12.6h-1.62Z" style="fill: #777; stroke-width: 0px;"/>
    <path d="M340.49,1073.42c0,3.78-2.48,6.3-6.39,6.3h-4.54v-12.6h4.54c3.91,0,6.39,2.54,6.39,6.3ZM331.2,1078.19h2.9c2.9,0,4.72-1.78,4.72-4.77s-1.78-4.77-4.72-4.77h-2.9v9.54Z" style="fill: #777; stroke-width: 0px;"/>
  </g>
  <g id="image">
    <path d="M637.8,1063.59h-11.67v3.01h4.14v13.93h3.41v-13.93h4.12v-3.01Z" style="fill: #000; stroke-width: 0px;"/>
    <path d="M638.55,1080.53h3.41v-6.89c0-1.69.53-2.53,1.58-2.53.88,0,1.32.6,1.32,1.83v7.59h3.43v-7.98c0-2.69-1.04-4.01-3.13-4.01-1.53,0-2.62.76-3.2,2.25v-7.21h-3.41v16.95Z" style="fill: #000; stroke-width: 0px;"/>
    <path d="M649.78,1066.98h3.52v-3.39h-3.52v3.39ZM649.88,1080.53h3.36v-11.69h-3.36v11.69Z" style="fill: #000; stroke-width: 0px;"/>
    <path d="M654.99,1080.53h3.41v-6.91c0-1.67.53-2.48,1.55-2.48.93,0,1.34.6,1.34,1.92v7.47h3.43v-7.96c0-2.69-1.04-4.01-3.15-4.01-1.58,0-2.66.79-3.31,2.34v-2.06h-3.27v11.69Z" style="fill: #000; stroke-width: 0px;"/>
    <path d="M673.05,1080.53h3.73l-3.45-7.29,3.36-4.4h-3.82l-3.06,4.82v-10.08h-3.41v16.95h3.41v-3.44l1.11-1.58,2.13,5.01Z" style="fill: #000; stroke-width: 0px;"/>
    <path d="M685.17,1080.82c2.11,0,3.52-1.11,4.1-2.92l.14,2.63h2.62v-9.23h-6.26v2.69h2.83v.42c0,2.25-.81,3.64-2.5,3.64-1.95,0-2.85-1.46-2.85-6s.95-5.75,2.78-5.75c1.58,0,2.27,1.09,2.43,3.13l3.54-.67c-.23-3.27-2.27-5.17-5.93-5.17-4.15,0-6.56,2.62-6.56,8.46s2.02,8.78,5.65,8.78Z" style="fill: #000; stroke-width: 0px;"/>
    <path d="M696.93,1063.59h-3.41v16.95h3.41v-16.95Z" style="fill: #000; stroke-width: 0px;"/>
    <path d="M703.42,1080.71c3.1,0,5.26-1.76,5.26-6.07s-2.15-6.07-5.26-6.07-5.26,1.76-5.26,6.07,2.15,6.07,5.26,6.07ZM703.42,1078.35c-1.04,0-1.71-.79-1.71-3.71s.67-3.71,1.71-3.71,1.71.79,1.71,3.71-.67,3.71-1.71,3.71Z" style="fill: #000; stroke-width: 0px;"/>
    <path d="M716.07,1080.71c2.66,0,4.05-1.92,4.05-6.07s-1.37-6.07-3.85-6.07c-1.46,0-2.53.72-3.04,1.95v-6.93h-3.48v16.95h3.11l.23-1.84c.46,1.27,1.53,2.02,2.97,2.02ZM714.79,1078.28c-1.02,0-1.62-.88-1.62-2.46v-2.39c0-1.53.63-2.43,1.65-2.43,1.14,0,1.65.93,1.65,3.64s-.53,3.64-1.67,3.64Z" style="fill: #000; stroke-width: 0px;"/>
    <path d="M724.25,1080.71c1.65,0,2.92-.83,3.27-2.09,0,.56.07,1.35.16,1.91h3.34c-.19-.83-.25-1.72-.25-3.02v-4.82c0-2.92-1.41-4.15-4.68-4.15-2.9,0-4.94,1.3-4.96,4.19h3.45c.02-1.27.37-1.97,1.46-1.97.86,0,1.25.49,1.25,1.6v.86l-2.29.39c-1.39.25-2.41.65-3.04,1.18-.67.58-1.11,1.41-1.11,2.53,0,2.04,1.3,3.38,3.41,3.38ZM725.66,1078.44c-.81,0-1.25-.56-1.25-1.41,0-1,.56-1.53,1.65-1.76l1.32-.28v1.6c0,1.14-.7,1.85-1.71,1.85Z" style="fill: #000; stroke-width: 0px;"/>
    <path d="M735.72,1063.59h-3.41v16.95h3.41v-16.95Z" style="fill: #000; stroke-width: 0px;"/>
    <path d="M751.71,1063.59h-3.59v7.09h-4.68v-7.09h-3.57v16.95h3.57v-7.1h4.68v7.1h3.59v-16.95Z" style="fill: #000; stroke-width: 0px;"/>
    <path d="M762.97,1073.85c0-3.29-1.76-5.28-4.96-5.28s-5.12,1.9-5.12,6.07,2.06,6.07,5.28,6.07c2.43,0,4.31-1.25,4.75-3.52l-2.9-.86c-.23,1.39-.93,1.9-1.81,1.9-1.25,0-1.9-.86-1.95-2.9h6.7v-1.48ZM756.27,1073.43c.05-2.15.7-2.83,1.69-2.83s1.58.6,1.58,2.83h-3.27Z" style="fill: #000; stroke-width: 0px;"/>
    <path d="M766.84,1080.71c1.65,0,2.92-.83,3.27-2.09,0,.56.07,1.35.16,1.91h3.34c-.19-.83-.25-1.72-.25-3.02v-4.82c0-2.92-1.41-4.15-4.68-4.15-2.9,0-4.94,1.3-4.96,4.19h3.45c.02-1.27.37-1.97,1.46-1.97.86,0,1.25.49,1.25,1.6v.86l-2.29.39c-1.39.25-2.41.65-3.04,1.18-.67.58-1.11,1.41-1.11,2.53,0,2.04,1.3,3.38,3.41,3.38ZM768.25,1078.44c-.81,0-1.25-.56-1.25-1.41,0-1,.56-1.53,1.65-1.76l1.32-.28v1.6c0,1.14-.7,1.85-1.71,1.85Z" style="fill: #000; stroke-width: 0px;"/>
    <path d="M778.27,1063.59h-3.41v16.95h3.41v-16.95Z" style="fill: #000; stroke-width: 0px;"/>
    <path d="M778.99,1071.16h1.67v5.86c0,2.39,1.16,3.59,3.85,3.59.69,0,1.27-.07,1.92-.19v-2.78c-.28.05-.53.07-.9.07-.97,0-1.46-.53-1.46-1.55v-5h2.34v-2.32h-2.34v-3.96l-3.41,1.25v2.71h-1.67v2.32Z" style="fill: #000; stroke-width: 0px;"/>
    <path d="M787.31,1080.53h3.41v-6.89c0-1.69.53-2.53,1.58-2.53.88,0,1.32.6,1.32,1.83v7.59h3.43v-7.98c0-2.69-1.04-4.01-3.13-4.01-1.53,0-2.62.76-3.2,2.25v-7.21h-3.41v16.95Z" style="fill: #000; stroke-width: 0px;"/>
  </g>
  <g id="United_States" data-name="United States">
    <g style="isolation: isolate;">
      <g style="isolation: isolate;">
        <path d="M148.56,97.78c-3.63,0-5.77-2.12-5.77-6.09v-8.88h1.91v8.88c0,2.81,1.28,4.3,3.86,4.3s3.84-1.47,3.84-4.3v-8.88h1.91v8.88c0,3.97-2.12,6.09-5.75,6.09Z" style="fill: #000; stroke-width: 0px;"/>
        <path d="M165.46,90.66v6.84h-1.83v-6.55c0-1.64-.78-2.5-2.06-2.5-1.39,0-2.46,1.22-2.46,3.38v5.67h-1.81v-10.58h1.62l.1,1.45c.48-.92,1.49-1.68,2.98-1.68,2.27,0,3.44,1.64,3.44,3.97Z" style="fill: #000; stroke-width: 0px;"/>
        <path d="M170.67,83.67c0,.67-.57,1.22-1.26,1.22s-1.24-.55-1.24-1.22.55-1.24,1.24-1.24,1.26.55,1.26,1.24ZM168.51,97.5v-10.58h1.81v10.58h-1.81Z" style="fill: #000; stroke-width: 0px;"/>
        <path d="M178.63,86.92v1.68h-2.73l-.04,5.67c0,1.15.29,1.72,1.51,1.72.59,0,.94-.08,1.26-.19v1.62c-.31.13-.8.23-1.57.23-1.99,0-3.02-.88-3-3.04l.04-6h-1.97v-1.68h1.97l.02-2.65h1.83l-.02,2.65h2.71Z" style="fill: #000; stroke-width: 0px;"/>
        <path d="M189.88,92.93h-8.02c.13,1.95,1.45,3.13,3.25,3.13,1.41,0,2.44-.61,2.86-1.72h1.81c-.63,2.1-2.27,3.4-4.7,3.4-2.98,0-5.1-2.16-5.1-5.5s2.02-5.54,5.1-5.54c2.77,0,4.81,1.81,4.81,5.38v.86ZM188.06,91.31c-.02-1.81-1.22-2.94-2.98-2.94s-3,1.24-3.21,2.94h6.19Z" style="fill: #000; stroke-width: 0px;"/>
        <path d="M200.15,97.5l-.11-1.55c-.65.94-1.72,1.78-3.63,1.78-2.98,0-4.93-2.39-4.93-5.52s1.97-5.52,4.96-5.52c1.76,0,2.94.78,3.53,1.68v-6.19h1.81v15.33h-1.62ZM193.35,92.21c0,2.25,1.32,3.82,3.34,3.82,1.72,0,3.3-1.43,3.3-3.72v-.1c0-2.35-1.6-3.8-3.28-3.8-1.97,0-3.36,1.57-3.36,3.8Z" style="fill: #000; stroke-width: 0px;"/>
        <path d="M217.44,86.69h-1.93c-.02-1.57-1.01-2.44-2.42-2.44s-2.27.82-2.27,2.23.92,1.91,2.92,2.71c2.96,1.09,4.16,2.16,4.16,4.33,0,2.69-1.89,4.26-4.56,4.26-3.11,0-4.83-1.87-4.87-4.6h1.93c.04,1.87,1.11,2.9,2.96,2.9,1.72,0,2.6-1.05,2.6-2.44,0-1.26-.88-1.93-3.09-2.71-2.5-.92-3.99-1.93-3.99-4.3s1.51-4.09,4.24-4.09c2.56,0,4.24,1.43,4.3,4.16Z" style="fill: #000; stroke-width: 0px;"/>
        <path d="M225.35,86.92v1.68h-2.73l-.04,5.67c0,1.15.29,1.72,1.51,1.72.59,0,.94-.08,1.26-.19v1.62c-.32.13-.8.23-1.58.23-1.99,0-3.02-.88-3-3.04l.04-6h-1.97v-1.68h1.97l.02-2.65h1.83l-.02,2.65h2.71Z" style="fill: #000; stroke-width: 0px;"/>
        <path d="M234.95,90.49v7.01h-1.64l-.08-1.45c-.52.94-1.66,1.68-3.21,1.68-1.85,0-3.09-1.13-3.09-2.98s1.3-2.75,2.96-3.07l3.23-.61v-.52c0-1.51-.69-2.18-1.95-2.18-1.16,0-2.16.63-2.16,1.93h-1.78c.06-2.04,1.62-3.61,3.95-3.61s3.78,1.34,3.78,3.8ZM228.76,94.73c0,.84.59,1.32,1.62,1.32.88,0,1.66-.38,2.14-1.05.36-.48.61-1.22.61-1.95v-.4l-2.9.63c-.8.19-1.47.5-1.47,1.45Z" style="fill: #000; stroke-width: 0px;"/>
        <path d="M242.97,86.92v1.68h-2.73l-.04,5.67c0,1.15.29,1.72,1.51,1.72.59,0,.95-.08,1.26-.19v1.62c-.31.13-.8.23-1.57.23-2,0-3.02-.88-3-3.04l.04-6h-1.97v-1.68h1.97l.02-2.65h1.83l-.02,2.65h2.71Z" style="fill: #000; stroke-width: 0px;"/>
        <path d="M254.23,92.93h-8.02c.13,1.95,1.45,3.13,3.25,3.13,1.41,0,2.44-.61,2.86-1.72h1.81c-.63,2.1-2.27,3.4-4.7,3.4-2.98,0-5.1-2.16-5.1-5.5s2.02-5.54,5.1-5.54c2.77,0,4.81,1.81,4.81,5.38v.86ZM252.4,91.31c-.02-1.81-1.22-2.94-2.98-2.94s-3,1.24-3.21,2.94h6.19Z" style="fill: #000; stroke-width: 0px;"/>
        <path d="M263.05,90.03h-1.85c-.02-1.11-.55-1.66-1.68-1.66s-1.62.65-1.62,1.43c0,.82.42,1.15,1.99,1.53,2.52.59,3.46,1.47,3.46,3.17,0,2.06-1.6,3.23-3.72,3.23-2.46,0-3.82-1.39-3.86-3.44h1.85c.02,1.11.73,1.76,2.06,1.76,1.22,0,1.83-.61,1.83-1.43,0-.88-.46-1.3-2.21-1.7-2.21-.5-3.25-1.28-3.25-3.02s1.22-3.21,3.51-3.21c2.06,0,3.44,1.34,3.49,3.34Z" style="fill: #000; stroke-width: 0px;"/>
      </g>
    </g>
  </g>
  <g id="United_States-2" data-name="United States">
    <g style="isolation: isolate;">
      <g style="isolation: isolate;">
        <path d="M148.56,404.99c-3.63,0-5.77-2.12-5.77-6.09v-8.88h1.91v8.88c0,2.81,1.28,4.3,3.86,4.3s3.84-1.47,3.84-4.3v-8.88h1.91v8.88c0,3.97-2.12,6.09-5.75,6.09Z" style="fill: #000; stroke-width: 0px;"/>
        <path d="M165.46,397.87v6.84h-1.83v-6.55c0-1.64-.78-2.5-2.06-2.5-1.39,0-2.46,1.22-2.46,3.38v5.67h-1.81v-10.58h1.62l.1,1.45c.48-.92,1.49-1.68,2.98-1.68,2.27,0,3.44,1.64,3.44,3.97Z" style="fill: #000; stroke-width: 0px;"/>
        <path d="M170.67,390.88c0,.67-.57,1.22-1.26,1.22s-1.24-.55-1.24-1.22.55-1.24,1.24-1.24,1.26.55,1.26,1.24ZM168.51,404.71v-10.58h1.81v10.58h-1.81Z" style="fill: #000; stroke-width: 0px;"/>
        <path d="M178.63,394.13v1.68h-2.73l-.04,5.67c0,1.15.29,1.72,1.51,1.72.59,0,.94-.08,1.26-.19v1.62c-.31.13-.8.23-1.57.23-1.99,0-3.02-.88-3-3.04l.04-6h-1.97v-1.68h1.97l.02-2.65h1.83l-.02,2.65h2.71Z" style="fill: #000; stroke-width: 0px;"/>
        <path d="M189.88,400.14h-8.02c.13,1.95,1.45,3.13,3.25,3.13,1.41,0,2.44-.61,2.86-1.72h1.81c-.63,2.1-2.27,3.4-4.7,3.4-2.98,0-5.1-2.16-5.1-5.5s2.02-5.54,5.1-5.54c2.77,0,4.81,1.81,4.81,5.38v.86ZM188.06,398.52c-.02-1.81-1.22-2.94-2.98-2.94s-3,1.24-3.21,2.94h6.19Z" style="fill: #000; stroke-width: 0px;"/>
        <path d="M200.15,404.71l-.11-1.55c-.65.94-1.72,1.78-3.63,1.78-2.98,0-4.93-2.39-4.93-5.52s1.97-5.52,4.96-5.52c1.76,0,2.94.78,3.53,1.68v-6.19h1.81v15.33h-1.62ZM193.35,399.42c0,2.25,1.32,3.82,3.34,3.82,1.72,0,3.3-1.43,3.3-3.72v-.1c0-2.35-1.6-3.8-3.28-3.8-1.97,0-3.36,1.58-3.36,3.8Z" style="fill: #000; stroke-width: 0px;"/>
        <path d="M217.44,393.9h-1.93c-.02-1.57-1.01-2.44-2.42-2.44s-2.27.82-2.27,2.23.92,1.91,2.92,2.71c2.96,1.09,4.16,2.16,4.16,4.33,0,2.69-1.89,4.26-4.56,4.26-3.11,0-4.83-1.87-4.87-4.6h1.93c.04,1.87,1.11,2.9,2.96,2.9,1.72,0,2.6-1.05,2.6-2.44,0-1.26-.88-1.93-3.09-2.71-2.5-.92-3.99-1.93-3.99-4.3s1.51-4.09,4.24-4.09c2.56,0,4.24,1.43,4.3,4.16Z" style="fill: #000; stroke-width: 0px;"/>
        <path d="M225.35,394.13v1.68h-2.73l-.04,5.67c0,1.15.29,1.72,1.51,1.72.59,0,.94-.08,1.26-.19v1.62c-.32.13-.8.23-1.58.23-1.99,0-3.02-.88-3-3.04l.04-6h-1.97v-1.68h1.97l.02-2.65h1.83l-.02,2.65h2.71Z" style="fill: #000; stroke-width: 0px;"/>
        <path d="M234.95,397.7v7.01h-1.64l-.08-1.45c-.52.95-1.66,1.68-3.21,1.68-1.85,0-3.09-1.13-3.09-2.98s1.3-2.75,2.96-3.07l3.23-.61v-.53c0-1.51-.69-2.18-1.95-2.18-1.16,0-2.16.63-2.16,1.93h-1.78c.06-2.04,1.62-3.61,3.95-3.61s3.78,1.34,3.78,3.8ZM228.76,401.94c0,.84.59,1.32,1.62,1.32.88,0,1.66-.38,2.14-1.05.36-.48.61-1.22.61-1.95v-.4l-2.9.63c-.8.19-1.47.5-1.47,1.45Z" style="fill: #000; stroke-width: 0px;"/>
        <path d="M242.97,394.13v1.68h-2.73l-.04,5.67c0,1.15.29,1.72,1.51,1.72.59,0,.95-.08,1.26-.19v1.62c-.31.13-.8.23-1.57.23-2,0-3.02-.88-3-3.04l.04-6h-1.97v-1.68h1.97l.02-2.65h1.83l-.02,2.65h2.71Z" style="fill: #000; stroke-width: 0px;"/>
        <path d="M254.23,400.14h-8.02c.13,1.95,1.45,3.13,3.25,3.13,1.41,0,2.44-.61,2.86-1.72h1.81c-.63,2.1-2.27,3.4-4.7,3.4-2.98,0-5.1-2.16-5.1-5.5s2.02-5.54,5.1-5.54c2.77,0,4.81,1.81,4.81,5.38v.86ZM252.4,398.52c-.02-1.81-1.22-2.94-2.98-2.94s-3,1.24-3.21,2.94h6.19Z" style="fill: #000; stroke-width: 0px;"/>
        <path d="M263.05,397.24h-1.85c-.02-1.11-.55-1.66-1.68-1.66s-1.62.65-1.62,1.43c0,.82.42,1.16,1.99,1.53,2.52.59,3.46,1.47,3.46,3.17,0,2.06-1.6,3.23-3.72,3.23-2.46,0-3.82-1.39-3.86-3.44h1.85c.02,1.11.73,1.76,2.06,1.76,1.22,0,1.83-.61,1.83-1.43,0-.88-.46-1.3-2.21-1.7-2.21-.5-3.25-1.28-3.25-3.02s1.22-3.21,3.51-3.21c2.06,0,3.44,1.34,3.49,3.34Z" style="fill: #000; stroke-width: 0px;"/>
      </g>
    </g>
  </g>
  <g id="United_States-3" data-name="United States">
    <g style="isolation: isolate;">
      <g style="isolation: isolate;">
        <path d="M148.56,804.12c-3.63,0-5.77-2.12-5.77-6.09v-8.88h1.91v8.88c0,2.81,1.28,4.3,3.86,4.3s3.84-1.47,3.84-4.3v-8.88h1.91v8.88c0,3.97-2.12,6.09-5.75,6.09Z" style="fill: #000; stroke-width: 0px;"/>
        <path d="M165.46,797v6.84h-1.83v-6.55c0-1.64-.78-2.5-2.06-2.5-1.39,0-2.46,1.22-2.46,3.38v5.67h-1.81v-10.58h1.62l.1,1.45c.48-.92,1.49-1.68,2.98-1.68,2.27,0,3.44,1.64,3.44,3.97Z" style="fill: #000; stroke-width: 0px;"/>
        <path d="M170.67,790.01c0,.67-.57,1.22-1.26,1.22s-1.24-.55-1.24-1.22.55-1.24,1.24-1.24,1.26.55,1.26,1.24ZM168.51,803.85v-10.58h1.81v10.58h-1.81Z" style="fill: #000; stroke-width: 0px;"/>
        <path d="M178.63,793.27v1.68h-2.73l-.04,5.67c0,1.16.29,1.72,1.51,1.72.59,0,.94-.08,1.26-.19v1.62c-.31.13-.8.23-1.57.23-1.99,0-3.02-.88-3-3.04l.04-6h-1.97v-1.68h1.97l.02-2.65h1.83l-.02,2.65h2.71Z" style="fill: #000; stroke-width: 0px;"/>
        <path d="M189.88,799.27h-8.02c.13,1.95,1.45,3.13,3.25,3.13,1.41,0,2.44-.61,2.86-1.72h1.81c-.63,2.1-2.27,3.4-4.7,3.4-2.98,0-5.1-2.16-5.1-5.5s2.02-5.54,5.1-5.54c2.77,0,4.81,1.81,4.81,5.38v.86ZM188.06,797.65c-.02-1.81-1.22-2.94-2.98-2.94s-3,1.24-3.21,2.94h6.19Z" style="fill: #000; stroke-width: 0px;"/>
        <path d="M200.15,803.85l-.11-1.55c-.65.95-1.72,1.79-3.63,1.79-2.98,0-4.93-2.39-4.93-5.52s1.97-5.52,4.96-5.52c1.76,0,2.94.78,3.53,1.68v-6.19h1.81v15.33h-1.62ZM193.35,798.56c0,2.25,1.32,3.82,3.34,3.82,1.72,0,3.3-1.43,3.3-3.72v-.11c0-2.35-1.6-3.8-3.28-3.8-1.97,0-3.36,1.57-3.36,3.8Z" style="fill: #000; stroke-width: 0px;"/>
        <path d="M217.44,793.03h-1.93c-.02-1.58-1.01-2.44-2.42-2.44s-2.27.82-2.27,2.23.92,1.91,2.92,2.71c2.96,1.09,4.16,2.16,4.16,4.33,0,2.69-1.89,4.26-4.56,4.26-3.11,0-4.83-1.87-4.87-4.6h1.93c.04,1.87,1.11,2.9,2.96,2.9,1.72,0,2.6-1.05,2.6-2.44,0-1.26-.88-1.93-3.09-2.71-2.5-.92-3.99-1.93-3.99-4.3s1.51-4.09,4.24-4.09c2.56,0,4.24,1.43,4.3,4.16Z" style="fill: #000; stroke-width: 0px;"/>
        <path d="M225.35,793.27v1.68h-2.73l-.04,5.67c0,1.16.29,1.72,1.51,1.72.59,0,.94-.08,1.26-.19v1.62c-.32.13-.8.23-1.58.23-1.99,0-3.02-.88-3-3.04l.04-6h-1.97v-1.68h1.97l.02-2.65h1.83l-.02,2.65h2.71Z" style="fill: #000; stroke-width: 0px;"/>
        <path d="M234.95,796.83v7.01h-1.64l-.08-1.45c-.52.94-1.66,1.68-3.21,1.68-1.85,0-3.09-1.13-3.09-2.98s1.3-2.75,2.96-3.07l3.23-.61v-.52c0-1.51-.69-2.18-1.95-2.18-1.16,0-2.16.63-2.16,1.93h-1.78c.06-2.04,1.62-3.61,3.95-3.61s3.78,1.34,3.78,3.8ZM228.76,801.08c0,.84.59,1.32,1.62,1.32.88,0,1.66-.38,2.14-1.05.36-.48.61-1.22.61-1.95v-.4l-2.9.63c-.8.19-1.47.5-1.47,1.45Z" style="fill: #000; stroke-width: 0px;"/>
        <path d="M242.97,793.27v1.68h-2.73l-.04,5.67c0,1.16.29,1.72,1.51,1.72.59,0,.95-.08,1.26-.19v1.62c-.31.13-.8.23-1.57.23-2,0-3.02-.88-3-3.04l.04-6h-1.97v-1.68h1.97l.02-2.65h1.83l-.02,2.65h2.71Z" style="fill: #000; stroke-width: 0px;"/>
        <path d="M254.23,799.27h-8.02c.13,1.95,1.45,3.13,3.25,3.13,1.41,0,2.44-.61,2.86-1.72h1.81c-.63,2.1-2.27,3.4-4.7,3.4-2.98,0-5.1-2.16-5.1-5.5s2.02-5.54,5.1-5.54c2.77,0,4.81,1.81,4.81,5.38v.86ZM252.4,797.65c-.02-1.81-1.22-2.94-2.98-2.94s-3,1.24-3.21,2.94h6.19Z" style="fill: #000; stroke-width: 0px;"/>
        <path d="M263.05,796.37h-1.85c-.02-1.11-.55-1.66-1.68-1.66s-1.62.65-1.62,1.43c0,.82.42,1.15,1.99,1.53,2.52.59,3.46,1.47,3.46,3.17,0,2.06-1.6,3.23-3.72,3.23-2.46,0-3.82-1.39-3.86-3.44h1.85c.02,1.11.73,1.76,2.06,1.76,1.22,0,1.83-.61,1.83-1.43,0-.88-.46-1.3-2.21-1.7-2.21-.5-3.25-1.28-3.25-3.02s1.22-3.21,3.51-3.21c2.06,0,3.44,1.34,3.49,3.34Z" style="fill: #000; stroke-width: 0px;"/>
      </g>
    </g>
  </g>
  <g id="United_States-4" data-name="United States">
    <g style="isolation: isolate;">
      <g style="isolation: isolate;">
        <path d="M191.11,180.99c0,4.37-3.13,7.64-7.5,7.64s-7.52-3.28-7.52-7.64,3.13-7.6,7.52-7.6,7.5,3.25,7.5,7.6ZM178.09,180.99c0,3.36,2.25,5.86,5.52,5.86s5.5-2.5,5.5-5.86-2.25-5.82-5.5-5.82-5.52,2.48-5.52,5.82Z" style="fill: #000; stroke-width: 0px;"/>
        <path d="M198.61,177.78v1.68h-2.73l-.04,5.67c0,1.15.29,1.72,1.51,1.72.59,0,.94-.08,1.26-.19v1.62c-.31.13-.8.23-1.57.23-1.99,0-3.02-.88-3-3.04l.04-6h-1.97v-1.68h1.97l.02-2.65h1.83l-.02,2.65h2.71Z" style="fill: #000; stroke-width: 0px;"/>
        <path d="M205.52,177.55c2.27,0,3.44,1.64,3.44,3.97v6.84h-1.83v-6.55c0-1.64-.78-2.5-2.06-2.5-1.39,0-2.46,1.22-2.46,3.38v5.67h-1.81v-15.33h1.81v6.07c.4-.82,1.36-1.55,2.9-1.55Z" style="fill: #000; stroke-width: 0px;"/>
        <path d="M221,183.78h-8.02c.13,1.95,1.45,3.13,3.25,3.13,1.41,0,2.44-.61,2.86-1.72h1.8c-.63,2.1-2.27,3.4-4.7,3.4-2.98,0-5.1-2.16-5.1-5.5s2.02-5.54,5.1-5.54c2.77,0,4.81,1.81,4.81,5.38v.86ZM219.17,182.17c-.02-1.81-1.22-2.94-2.98-2.94s-3,1.24-3.21,2.94h6.19Z" style="fill: #000; stroke-width: 0px;"/>
        <path d="M226.23,180.26c-.57.52-.95,1.34-.97,2.5v5.61h-1.8v-10.58h1.62l.13,1.85c.36-.97,1.34-1.95,3.17-1.95v1.81c-.84,0-1.55.23-2.14.78Z" style="fill: #000; stroke-width: 0px;"/>
        <path d="M172.76,203.23h-2.12c-.61-1.7-1.99-2.86-4.41-2.86-3.11,0-5.27,2.48-5.27,5.84s2.16,5.84,5.29,5.84c2.44,0,3.88-1.24,4.47-2.92h2.06c-.82,2.96-3.07,4.7-6.53,4.7-4.26,0-7.29-3.25-7.29-7.62s3.02-7.62,7.26-7.62c3.46,0,5.71,1.81,6.53,4.64Z" style="fill: #000; stroke-width: 0px;"/>
        <path d="M184.83,208.27c0,3.21-2.2,5.52-5.35,5.52s-5.38-2.31-5.38-5.52,2.2-5.52,5.38-5.52,5.35,2.31,5.35,5.52ZM175.97,208.27c0,2.18,1.41,3.84,3.53,3.84s3.46-1.66,3.46-3.84-1.36-3.84-3.46-3.84-3.53,1.64-3.53,3.84Z" style="fill: #000; stroke-width: 0px;"/>
        <path d="M193.42,213.56l-.1-1.45c-.48,1.01-1.45,1.68-2.92,1.68-2.29,0-3.4-1.62-3.4-3.97v-6.84h1.81v6.55c0,1.66.73,2.52,2.02,2.52,1.36,0,2.41-1.15,2.41-3.19v-5.88h1.81v10.58h-1.62Z" style="fill: #000; stroke-width: 0px;"/>
        <path d="M206.34,206.72v6.84h-1.83v-6.55c0-1.64-.78-2.5-2.06-2.5-1.39,0-2.46,1.22-2.46,3.38v5.67h-1.81v-10.58h1.62l.1,1.45c.48-.92,1.49-1.68,2.98-1.68,2.27,0,3.44,1.64,3.44,3.97Z" style="fill: #000; stroke-width: 0px;"/>
        <path d="M214.42,202.98v1.68h-2.73l-.04,5.67c0,1.15.29,1.72,1.51,1.72.59,0,.95-.08,1.26-.19v1.62c-.31.13-.8.23-1.57.23-2,0-3.02-.88-3-3.04l.04-6h-1.97v-1.68h1.97l.02-2.65h1.83l-.02,2.65h2.71Z" style="fill: #000; stroke-width: 0px;"/>
        <path d="M219.53,205.46c-.57.52-.95,1.34-.97,2.5v5.61h-1.8v-10.58h1.62l.13,1.85c.36-.97,1.34-1.95,3.17-1.95v1.81c-.84,0-1.55.23-2.14.78Z" style="fill: #000; stroke-width: 0px;"/>
        <path d="M225.95,199.73c0,.67-.57,1.22-1.26,1.22s-1.24-.55-1.24-1.22.55-1.24,1.24-1.24,1.26.55,1.26,1.24ZM223.79,213.56v-10.58h1.81v10.58h-1.81Z" style="fill: #000; stroke-width: 0px;"/>
        <path d="M237.86,208.98h-8.02c.13,1.95,1.45,3.13,3.25,3.13,1.41,0,2.44-.61,2.86-1.72h1.81c-.63,2.1-2.27,3.4-4.7,3.4-2.98,0-5.1-2.16-5.1-5.5s2.02-5.54,5.1-5.54c2.77,0,4.81,1.81,4.81,5.38v.86ZM236.03,207.37c-.02-1.81-1.22-2.94-2.98-2.94s-3,1.24-3.21,2.94h6.19Z" style="fill: #000; stroke-width: 0px;"/>
        <path d="M246.68,206.09h-1.85c-.02-1.11-.55-1.66-1.68-1.66s-1.62.65-1.62,1.43c0,.82.42,1.15,1.99,1.53,2.52.59,3.46,1.47,3.46,3.17,0,2.06-1.6,3.23-3.72,3.23-2.46,0-3.82-1.39-3.86-3.44h1.85c.02,1.11.73,1.76,2.06,1.76,1.22,0,1.83-.61,1.83-1.43,0-.88-.46-1.3-2.21-1.7-2.21-.5-3.25-1.28-3.25-3.02s1.22-3.21,3.51-3.21c2.06,0,3.44,1.34,3.49,3.34Z" style="fill: #000; stroke-width: 0px;"/>
      </g>
    </g>
  </g>
  <g id="United_States-5" data-name="United States">
    <g style="isolation: isolate;">
      <g style="isolation: isolate;">
        <path d="M191.11,492.4c0,4.37-3.13,7.64-7.5,7.64s-7.52-3.28-7.52-7.64,3.13-7.6,7.52-7.6,7.5,3.25,7.5,7.6ZM178.09,492.4c0,3.36,2.25,5.86,5.52,5.86s5.5-2.5,5.5-5.86-2.25-5.82-5.5-5.82-5.52,2.48-5.52,5.82Z" style="fill: #000; stroke-width: 0px;"/>
        <path d="M198.61,489.18v1.68h-2.73l-.04,5.67c0,1.16.29,1.72,1.51,1.72.59,0,.94-.08,1.26-.19v1.62c-.31.13-.8.23-1.57.23-1.99,0-3.02-.88-3-3.04l.04-6h-1.97v-1.68h1.97l.02-2.65h1.83l-.02,2.65h2.71Z" style="fill: #000; stroke-width: 0px;"/>
        <path d="M205.52,488.95c2.27,0,3.44,1.64,3.44,3.97v6.84h-1.83v-6.55c0-1.64-.78-2.5-2.06-2.5-1.39,0-2.46,1.22-2.46,3.38v5.67h-1.81v-15.33h1.81v6.07c.4-.82,1.36-1.55,2.9-1.55Z" style="fill: #000; stroke-width: 0px;"/>
        <path d="M221,495.19h-8.02c.13,1.95,1.45,3.13,3.25,3.13,1.41,0,2.44-.61,2.86-1.72h1.8c-.63,2.1-2.27,3.4-4.7,3.4-2.98,0-5.1-2.16-5.1-5.5s2.02-5.54,5.1-5.54c2.77,0,4.81,1.81,4.81,5.38v.86ZM219.17,493.57c-.02-1.81-1.22-2.94-2.98-2.94s-3,1.24-3.21,2.94h6.19Z" style="fill: #000; stroke-width: 0px;"/>
        <path d="M226.23,491.66c-.57.52-.95,1.34-.97,2.5v5.61h-1.8v-10.58h1.62l.13,1.85c.36-.97,1.34-1.95,3.17-1.95v1.81c-.84,0-1.55.23-2.14.78Z" style="fill: #000; stroke-width: 0px;"/>
        <path d="M172.76,514.63h-2.12c-.61-1.7-1.99-2.86-4.41-2.86-3.11,0-5.27,2.48-5.27,5.84s2.16,5.84,5.29,5.84c2.44,0,3.88-1.24,4.47-2.92h2.06c-.82,2.96-3.07,4.7-6.53,4.7-4.26,0-7.29-3.25-7.29-7.62s3.02-7.62,7.26-7.62c3.46,0,5.71,1.81,6.53,4.64Z" style="fill: #000; stroke-width: 0px;"/>
        <path d="M184.83,519.67c0,3.21-2.2,5.52-5.35,5.52s-5.38-2.31-5.38-5.52,2.2-5.52,5.38-5.52,5.35,2.31,5.35,5.52ZM175.97,519.67c0,2.18,1.41,3.84,3.53,3.84s3.46-1.66,3.46-3.84-1.36-3.84-3.46-3.84-3.53,1.64-3.53,3.84Z" style="fill: #000; stroke-width: 0px;"/>
        <path d="M193.42,524.96l-.1-1.45c-.48,1.01-1.45,1.68-2.92,1.68-2.29,0-3.4-1.62-3.4-3.97v-6.84h1.81v6.55c0,1.66.73,2.52,2.02,2.52,1.36,0,2.41-1.15,2.41-3.19v-5.88h1.81v10.58h-1.62Z" style="fill: #000; stroke-width: 0px;"/>
        <path d="M206.34,518.12v6.84h-1.83v-6.55c0-1.64-.78-2.5-2.06-2.5-1.39,0-2.46,1.22-2.46,3.38v5.67h-1.81v-10.58h1.62l.1,1.45c.48-.92,1.49-1.68,2.98-1.68,2.27,0,3.44,1.64,3.44,3.97Z" style="fill: #000; stroke-width: 0px;"/>
        <path d="M214.42,514.38v1.68h-2.73l-.04,5.67c0,1.16.29,1.72,1.51,1.72.59,0,.95-.08,1.26-.19v1.62c-.31.13-.8.23-1.57.23-2,0-3.02-.88-3-3.04l.04-6h-1.97v-1.68h1.97l.02-2.65h1.83l-.02,2.65h2.71Z" style="fill: #000; stroke-width: 0px;"/>
        <path d="M219.53,516.86c-.57.53-.95,1.34-.97,2.5v5.61h-1.8v-10.58h1.62l.13,1.85c.36-.97,1.34-1.95,3.17-1.95v1.81c-.84,0-1.55.23-2.14.78Z" style="fill: #000; stroke-width: 0px;"/>
        <path d="M225.95,511.13c0,.67-.57,1.22-1.26,1.22s-1.24-.55-1.24-1.22.55-1.24,1.24-1.24,1.26.55,1.26,1.24ZM223.79,524.96v-10.58h1.81v10.58h-1.81Z" style="fill: #000; stroke-width: 0px;"/>
        <path d="M237.86,520.39h-8.02c.13,1.95,1.45,3.13,3.25,3.13,1.41,0,2.44-.61,2.86-1.72h1.81c-.63,2.1-2.27,3.4-4.7,3.4-2.98,0-5.1-2.16-5.1-5.5s2.02-5.54,5.1-5.54c2.77,0,4.81,1.81,4.81,5.38v.86ZM236.03,518.77c-.02-1.81-1.22-2.94-2.98-2.94s-3,1.24-3.21,2.94h6.19Z" style="fill: #000; stroke-width: 0px;"/>
        <path d="M246.68,517.49h-1.85c-.02-1.11-.55-1.66-1.68-1.66s-1.62.65-1.62,1.43c0,.82.42,1.15,1.99,1.53,2.52.59,3.46,1.47,3.46,3.17,0,2.06-1.6,3.23-3.72,3.23-2.46,0-3.82-1.39-3.86-3.44h1.85c.02,1.11.73,1.76,2.06,1.76,1.22,0,1.83-.61,1.83-1.43,0-.88-.46-1.3-2.21-1.7-2.21-.5-3.25-1.28-3.25-3.02s1.22-3.21,3.51-3.21c2.06,0,3.44,1.34,3.49,3.34Z" style="fill: #000; stroke-width: 0px;"/>
      </g>
    </g>
  </g>
  <g id="United_States-6" data-name="United States">
    <g style="isolation: isolate;">
      <g style="isolation: isolate;">
        <path d="M191.11,634.32c0,4.37-3.13,7.64-7.5,7.64s-7.52-3.28-7.52-7.64,3.13-7.6,7.52-7.6,7.5,3.25,7.5,7.6ZM178.09,634.32c0,3.36,2.25,5.86,5.52,5.86s5.5-2.5,5.5-5.86-2.25-5.82-5.5-5.82-5.52,2.48-5.52,5.82Z" style="fill: #000; stroke-width: 0px;"/>
        <path d="M198.61,631.11v1.68h-2.73l-.04,5.67c0,1.16.29,1.72,1.51,1.72.59,0,.94-.08,1.26-.19v1.62c-.31.13-.8.23-1.57.23-1.99,0-3.02-.88-3-3.04l.04-6h-1.97v-1.68h1.97l.02-2.65h1.83l-.02,2.65h2.71Z" style="fill: #000; stroke-width: 0px;"/>
        <path d="M205.52,630.88c2.27,0,3.44,1.64,3.44,3.97v6.84h-1.83v-6.55c0-1.64-.78-2.5-2.06-2.5-1.39,0-2.46,1.22-2.46,3.38v5.67h-1.81v-15.33h1.81v6.07c.4-.82,1.36-1.55,2.9-1.55Z" style="fill: #000; stroke-width: 0px;"/>
        <path d="M221,637.12h-8.02c.13,1.95,1.45,3.13,3.25,3.13,1.41,0,2.44-.61,2.86-1.72h1.8c-.63,2.1-2.27,3.4-4.7,3.4-2.98,0-5.1-2.16-5.1-5.5s2.02-5.54,5.1-5.54c2.77,0,4.81,1.8,4.81,5.38v.86ZM219.17,635.5c-.02-1.81-1.22-2.94-2.98-2.94s-3,1.24-3.21,2.94h6.19Z" style="fill: #000; stroke-width: 0px;"/>
        <path d="M226.23,633.59c-.57.52-.95,1.34-.97,2.5v5.61h-1.8v-10.58h1.62l.13,1.85c.36-.97,1.34-1.95,3.17-1.95v1.81c-.84,0-1.55.23-2.14.78Z" style="fill: #000; stroke-width: 0px;"/>
        <path d="M172.76,656.56h-2.12c-.61-1.7-1.99-2.86-4.41-2.86-3.11,0-5.27,2.48-5.27,5.84s2.16,5.84,5.29,5.84c2.44,0,3.88-1.24,4.47-2.92h2.06c-.82,2.96-3.07,4.7-6.53,4.7-4.26,0-7.29-3.25-7.29-7.62s3.02-7.62,7.26-7.62c3.46,0,5.71,1.8,6.53,4.64Z" style="fill: #000; stroke-width: 0px;"/>
        <path d="M184.83,661.6c0,3.21-2.2,5.52-5.35,5.52s-5.38-2.31-5.38-5.52,2.2-5.52,5.38-5.52,5.35,2.31,5.35,5.52ZM175.97,661.6c0,2.18,1.41,3.84,3.53,3.84s3.46-1.66,3.46-3.84-1.36-3.84-3.46-3.84-3.53,1.64-3.53,3.84Z" style="fill: #000; stroke-width: 0px;"/>
        <path d="M193.42,666.89l-.1-1.45c-.48,1.01-1.45,1.68-2.92,1.68-2.29,0-3.4-1.62-3.4-3.97v-6.84h1.81v6.55c0,1.66.73,2.52,2.02,2.52,1.36,0,2.41-1.16,2.41-3.19v-5.88h1.81v10.58h-1.62Z" style="fill: #000; stroke-width: 0px;"/>
        <path d="M206.34,660.05v6.84h-1.83v-6.55c0-1.64-.78-2.5-2.06-2.5-1.39,0-2.46,1.22-2.46,3.38v5.67h-1.81v-10.58h1.62l.1,1.45c.48-.92,1.49-1.68,2.98-1.68,2.27,0,3.44,1.64,3.44,3.97Z" style="fill: #000; stroke-width: 0px;"/>
        <path d="M214.42,656.31v1.68h-2.73l-.04,5.67c0,1.15.29,1.72,1.51,1.72.59,0,.95-.08,1.26-.19v1.62c-.31.13-.8.23-1.57.23-2,0-3.02-.88-3-3.04l.04-6h-1.97v-1.68h1.97l.02-2.65h1.83l-.02,2.65h2.71Z" style="fill: #000; stroke-width: 0px;"/>
        <path d="M219.53,658.79c-.57.53-.95,1.34-.97,2.5v5.61h-1.8v-10.58h1.62l.13,1.85c.36-.97,1.34-1.95,3.17-1.95v1.8c-.84,0-1.55.23-2.14.78Z" style="fill: #000; stroke-width: 0px;"/>
        <path d="M225.95,653.06c0,.67-.57,1.22-1.26,1.22s-1.24-.55-1.24-1.22.55-1.24,1.24-1.24,1.26.55,1.26,1.24ZM223.79,666.89v-10.58h1.81v10.58h-1.81Z" style="fill: #000; stroke-width: 0px;"/>
        <path d="M237.86,662.32h-8.02c.13,1.95,1.45,3.13,3.25,3.13,1.41,0,2.44-.61,2.86-1.72h1.81c-.63,2.1-2.27,3.4-4.7,3.4-2.98,0-5.1-2.16-5.1-5.5s2.02-5.54,5.1-5.54c2.77,0,4.81,1.81,4.81,5.38v.86ZM236.03,660.7c-.02-1.8-1.22-2.94-2.98-2.94s-3,1.24-3.21,2.94h6.19Z" style="fill: #000; stroke-width: 0px;"/>
        <path d="M246.68,659.42h-1.85c-.02-1.11-.55-1.66-1.68-1.66s-1.62.65-1.62,1.43c0,.82.42,1.16,1.99,1.53,2.52.59,3.46,1.47,3.46,3.17,0,2.06-1.6,3.23-3.72,3.23-2.46,0-3.82-1.39-3.86-3.44h1.85c.02,1.11.73,1.76,2.06,1.76,1.22,0,1.83-.61,1.83-1.43,0-.88-.46-1.3-2.21-1.7-2.21-.5-3.25-1.28-3.25-3.02s1.22-3.21,3.51-3.21c2.06,0,3.44,1.34,3.49,3.34Z" style="fill: #000; stroke-width: 0px;"/>
      </g>
    </g>
  </g>
  <g id="callout-line-svg-2" data-name="callout-line-svg">
    <path d="M416.65,470.64c-18.5-9.59-38.85-15.96-61.04-19.12" style="fill: none; stroke: #12181e;"/>
    <path d="M362.91,447.14l-7.3,4.37,6.33,6.36" style="fill: none; stroke: #12181e; stroke-miterlimit: 4; stroke-width: 1px;"/>
  </g>
  <g id="callout-line-svg-3" data-name="callout-line-svg">
    <path d="M423.95,815.87c-18.5-9.59-38.85-15.96-61.04-19.12" style="fill: none; stroke: #12181e;"/>
    <path d="M370.2,792.37l-7.3,4.37,6.33,6.36" style="fill: none; stroke: #12181e; stroke-miterlimit: 4; stroke-width: 1px;"/>
  </g>
</svg>