<?xml version="1.0" encoding="UTF-8"?>
<svg id="exportSvg" xmlns="http://www.w3.org/2000/svg" width="800" height="401.3" xmlns:xlink="http://www.w3.org/1999/xlink" viewBox="0 0 800 401.3">
  <defs>
    <clipPath id="clippath">
      <rect width="799.58" height="401.3" style="fill: none; stroke-width: 0px;"/>
    </clipPath>
  </defs>
  <rect x="0" width="800.85" height="401.3" style="fill: #fff; stroke-width: 0px;"/>
  <g style="clip-path: url(#clippath);">
    <polygon points="-2 .3 799.18 1.57 799.18 402.3 -2 401.03 -2 .3" style="fill: #fff; stroke-width: 0px;"/>
    <g style="isolation: isolate;">
      <g style="isolation: isolate;">
        <g style="isolation: isolate;">
          <g style="isolation: isolate;">
            <path d="M15.92,266.48h-4.17v4.22h4.17v1.92H6.12v-1.92h3.84v-4.22h-3.84v-1.92h9.81v1.92Z" style="fill: #1a1a1a; stroke-width: 0px;"/>
            <path d="M12.36,255.7c2.2,0,3.71,1.6,3.71,3.74s-1.51,3.71-3.71,3.71-3.7-1.58-3.7-3.71,1.5-3.74,3.7-3.74ZM12.36,261.28c1.18,0,2.06-.74,2.06-1.85s-.88-1.85-2.06-1.85-2.04.74-2.04,1.85.87,1.85,2.04,1.85Z" style="fill: #1a1a1a; stroke-width: 0px;"/>
            <path d="M10.91,249.46v1.79c-.52.01-.81.27-.81.81s.29.78.7.78c.43,0,.64-.24.83-1.23.28-1.72.99-2.33,2.14-2.33,1.61,0,2.31,1.27,2.31,2.75,0,1.75-.91,2.72-2.31,2.77v-1.79c.57-.01.88-.39.88-1.02,0-.56-.27-.88-.69-.88s-.69.22-.88,1.29c-.27,1.55-.94,2.25-2.11,2.25s-2.3-.85-2.3-2.61c0-1.5.9-2.55,2.24-2.59Z" style="fill: #1a1a1a; stroke-width: 0px;"/>
            <path d="M12.36,240.61c2.09,0,3.71,1.39,3.71,3.31,0,1.02-.42,1.76-.94,2.13h3.8v1.81h-10.11v-1.56l.95-.13c-.57-.41-1.11-1.05-1.11-2.27,0-1.91,1.61-3.29,3.7-3.29ZM12.34,246.09h.08c1.26-.01,1.95-.92,1.95-1.81,0-.99-.78-1.79-2-1.79s-2,.77-2,1.79c0,.9.7,1.81,1.98,1.81Z" style="fill: #1a1a1a; stroke-width: 0px;"/>
            <path d="M6.73,237.2c.62,0,1.08.49,1.08,1.11s-.46,1.09-1.08,1.09-1.08-.49-1.08-1.09.48-1.11,1.08-1.11ZM15.92,239.2h-7.1v-1.81h7.1v1.81Z" style="fill: #1a1a1a; stroke-width: 0px;"/>
            <path d="M8.82,231.62h1.65v1.64l2.89.03c.71,0,1.02-.22,1.02-.94,0-.34-.04-.55-.1-.73h1.58c.08.22.15.57.15,1.13,0,1.55-.63,2.35-2.24,2.34l-3.31-.03v1.16h-1.65v-1.18h-1.72v-1.83l1.72.03v-1.62Z" style="fill: #1a1a1a; stroke-width: 0px;"/>
            <path d="M11.26,224.75h4.66v1.55l-.87.11c.57.38,1.02,1.02,1.02,2.03,0,1.26-.77,2.16-2.05,2.16-1.39,0-1.92-.94-2.13-2.2l-.32-1.83h-.28c-.71,0-1.08.34-1.08.99,0,.6.36,1.08.94,1.08v1.75c-1.44-.08-2.49-1.15-2.49-2.83s.85-2.82,2.59-2.82ZM13.88,228.8c.42,0,.7-.29.7-.84,0-.45-.22-.88-.64-1.13-.24-.15-.59-.25-.94-.25h-.21l.29,1.41c.11.48.32.81.8.81Z" style="fill: #1a1a1a; stroke-width: 0px;"/>
            <path d="M15.92,223.02H5.7v-1.81h10.23v1.81Z" style="fill: #1a1a1a; stroke-width: 0px;"/>
            <path d="M6.73,217.29c.62,0,1.08.49,1.08,1.11s-.46,1.09-1.08,1.09-1.08-.49-1.08-1.09.48-1.11,1.08-1.11ZM15.92,219.29h-7.1v-1.81h7.1v1.81Z" style="fill: #1a1a1a; stroke-width: 0px;"/>
            <path d="M14.34,213.64v-3.4h1.58v5.81h-1.36l-4.16-3.22v3.21h-1.58v-5.62h1.34l4.17,3.22Z" style="fill: #1a1a1a; stroke-width: 0px;"/>
            <path d="M11.26,203.46h4.66v1.55l-.87.11c.57.38,1.02,1.02,1.02,2.03,0,1.26-.77,2.16-2.05,2.16-1.39,0-1.92-.94-2.13-2.2l-.32-1.83h-.28c-.71,0-1.08.34-1.08.99,0,.6.36,1.08.94,1.08v1.75c-1.44-.08-2.49-1.15-2.49-2.83s.85-2.82,2.59-2.82ZM13.88,207.5c.42,0,.7-.29.7-.84,0-.45-.22-.88-.64-1.13-.24-.15-.59-.25-.94-.25h-.21l.29,1.41c.11.48.32.81.8.81Z" style="fill: #1a1a1a; stroke-width: 0px;"/>
            <path d="M8.82,197.89h1.65v1.64l2.89.03c.71,0,1.02-.22,1.02-.94,0-.34-.04-.55-.1-.73h1.58c.08.22.15.57.15,1.13,0,1.55-.63,2.35-2.24,2.34l-3.31-.03v1.16h-1.65v-1.18h-1.72v-1.83l1.72.03v-1.62Z" style="fill: #1a1a1a; stroke-width: 0px;"/>
            <path d="M6.73,194.44c.62,0,1.08.49,1.08,1.11s-.46,1.09-1.08,1.09-1.08-.49-1.08-1.09.48-1.11,1.08-1.11ZM15.92,196.45h-7.1v-1.81h7.1v1.81Z" style="fill: #1a1a1a; stroke-width: 0px;"/>
            <path d="M12.36,185.77c2.2,0,3.71,1.6,3.71,3.74s-1.51,3.71-3.71,3.71-3.7-1.58-3.7-3.71,1.5-3.74,3.7-3.74ZM12.36,191.35c1.18,0,2.06-.74,2.06-1.85s-.88-1.85-2.06-1.85-2.04.74-2.04,1.85.87,1.85,2.04,1.85Z" style="fill: #1a1a1a; stroke-width: 0px;"/>
            <path d="M11.31,178.42h4.61v1.81h-4.22c-.83,0-1.27.35-1.27,1.04s.55,1.25,1.74,1.25h3.75v1.81h-7.1v-1.55l.92-.13c-.59-.32-1.08-.98-1.08-1.92,0-1.51,1.04-2.3,2.65-2.3Z" style="fill: #1a1a1a; stroke-width: 0px;"/>
            <path d="M10.99,171.47c.25.34.67.56,1.3.57h3.63v1.82h-7.1v-1.57l1.13-.15c-.62-.25-1.2-.87-1.2-2.09h1.81c0,.57.1,1.01.43,1.41Z" style="fill: #1a1a1a; stroke-width: 0px;"/>
            <path d="M11.26,163.47h4.66v1.55l-.87.11c.57.38,1.02,1.02,1.02,2.03,0,1.26-.77,2.16-2.05,2.16-1.39,0-1.92-.94-2.13-2.2l-.32-1.83h-.28c-.71,0-1.08.34-1.08.99,0,.6.36,1.08.94,1.08v1.75c-1.44-.08-2.49-1.15-2.49-2.83s.85-2.82,2.59-2.82ZM13.88,167.52c.42,0,.7-.29.7-.84,0-.45-.22-.88-.64-1.13-.24-.15-.59-.25-.94-.25h-.21l.29,1.42c.11.48.32.81.8.81Z" style="fill: #1a1a1a; stroke-width: 0px;"/>
            <path d="M8.82,157.9h1.65v1.64l2.89.03c.71,0,1.02-.22,1.02-.94,0-.34-.04-.55-.1-.73h1.58c.08.22.15.57.15,1.13,0,1.55-.63,2.35-2.24,2.34l-3.31-.03v1.16h-1.65v-1.18h-1.72v-1.83l1.72.03v-1.62Z" style="fill: #1a1a1a; stroke-width: 0px;"/>
            <path d="M12.92,150.16v4.94c.94-.06,1.6-.7,1.6-1.69,0-.71-.28-1.25-.83-1.44v-1.77c1.5.43,2.38,1.54,2.38,3.25,0,2.1-1.46,3.53-3.7,3.53s-3.71-1.41-3.71-3.53c0-1.88,1.19-3.29,3.68-3.29h.57ZM11.68,151.98c-.92.03-1.51.62-1.51,1.51s.63,1.53,1.51,1.61v-3.12Z" style="fill: #1a1a1a; stroke-width: 0px;"/>
            <path d="M12.36,138.72c2.09,0,3.71,1.39,3.71,3.31,0,1.02-.42,1.77-.94,2.13h3.8v1.81h-10.11v-1.55l.95-.13c-.57-.41-1.11-1.05-1.11-2.27,0-1.9,1.61-3.29,3.7-3.29ZM12.34,144.2h.08c1.26-.01,1.95-.92,1.95-1.81,0-.99-.78-1.79-2-1.79s-2,.77-2,1.79c0,.9.7,1.81,1.98,1.81Z" style="fill: #1a1a1a; stroke-width: 0px;"/>
            <path d="M12.92,130.91v4.94c.94-.06,1.6-.7,1.6-1.69,0-.71-.28-1.25-.83-1.44v-1.77c1.5.43,2.38,1.54,2.38,3.25,0,2.1-1.46,3.53-3.7,3.53s-3.71-1.41-3.71-3.53c0-1.88,1.19-3.29,3.68-3.29h.57ZM11.68,132.73c-.92.03-1.51.62-1.51,1.51s.63,1.53,1.51,1.61v-3.12Z" style="fill: #1a1a1a; stroke-width: 0px;"/>
            <path d="M10.99,127.06c.25.34.67.56,1.3.57h3.63v1.82h-7.1v-1.57l1.13-.15c-.62-.25-1.2-.87-1.2-2.09h1.81c0,.57.1,1.01.43,1.41Z" style="fill: #1a1a1a; stroke-width: 0px;"/>
            <path d="M15.92,120.09h-6.81v2.06h-1.62c0-1.51-.32-2.31-1.37-2.58v-1.4h9.81v1.92Z" style="fill: #1a1a1a; stroke-width: 0px;"/>
            <path d="M11,109.76c3.14,0,5.1,1.23,5.1,3.47s-1.96,3.47-5.1,3.47-5.07-1.23-5.07-3.47,1.95-3.47,5.07-3.47ZM11,114.77c2.09,0,3.31-.52,3.31-1.54s-1.22-1.54-3.31-1.54-3.28.5-3.28,1.54,1.2,1.54,3.28,1.54Z" style="fill: #1a1a1a; stroke-width: 0px;"/>
            <path d="M11,101.78c3.14,0,5.1,1.23,5.1,3.47s-1.96,3.47-5.1,3.47-5.07-1.23-5.07-3.47,1.95-3.47,5.07-3.47ZM11,106.79c2.09,0,3.31-.52,3.31-1.54s-1.22-1.54-3.31-1.54-3.28.5-3.28,1.54,1.2,1.54,3.28,1.54Z" style="fill: #1a1a1a; stroke-width: 0px;"/>
            <path d="M15.09,98.78c.94,0,1.98.53,2.69,1.16l-.2.52c-.49-.24-.98-.36-1.6-.42-.06.53-.46.92-1.01.92-.6,0-1.06-.48-1.06-1.09s.45-1.09,1.18-1.09Z" style="fill: #1a1a1a; stroke-width: 0px;"/>
            <path d="M11,91.02c3.14,0,5.1,1.23,5.1,3.47s-1.96,3.47-5.1,3.47-5.07-1.23-5.07-3.47,1.95-3.47,5.07-3.47ZM11,96.04c2.09,0,3.31-.52,3.31-1.54s-1.22-1.54-3.31-1.54-3.28.5-3.28,1.54,1.2,1.54,3.28,1.54Z" style="fill: #1a1a1a; stroke-width: 0px;"/>
            <path d="M11,83.04c3.14,0,5.1,1.23,5.1,3.47s-1.96,3.47-5.1,3.47-5.07-1.23-5.07-3.47,1.95-3.47,5.07-3.47ZM11,88.06c2.09,0,3.31-.52,3.31-1.54s-1.22-1.54-3.31-1.54-3.28.5-3.28,1.54,1.2,1.54,3.28,1.54Z" style="fill: #1a1a1a; stroke-width: 0px;"/>
            <path d="M11,75.06c3.14,0,5.1,1.23,5.1,3.47s-1.96,3.47-5.1,3.47-5.07-1.23-5.07-3.47,1.95-3.47,5.07-3.47ZM11,80.08c2.09,0,3.31-.52,3.31-1.54s-1.22-1.54-3.31-1.54-3.28.5-3.28,1.54,1.2,1.54,3.28,1.54Z" style="fill: #1a1a1a; stroke-width: 0px;"/>
          </g>
        </g>
      </g>
    </g>
    <g id="footer-svg">
      <g style="isolation: isolate;">
        <g style="isolation: isolate;">
          <g style="isolation: isolate;">
            <g style="isolation: isolate;">
              <path d="M11.28,392.97h-1.31c-.38-1.05-1.23-1.77-2.73-1.77-1.92,0-3.26,1.53-3.26,3.61s1.34,3.61,3.28,3.61c1.51,0,2.41-.77,2.77-1.81h1.27c-.51,1.83-1.9,2.91-4.04,2.91-2.64,0-4.51-2.01-4.51-4.72s1.87-4.72,4.5-4.72c2.15,0,3.54,1.12,4.04,2.87Z" style="fill: #767676; stroke-width: 0px;"/>
              <path d="M15.56,392.67c1.4,0,2.13,1.01,2.13,2.46v4.24h-1.13v-4.06c0-1.01-.48-1.55-1.27-1.55-.86,0-1.52.75-1.52,2.09v3.51h-1.12v-9.49h1.12v3.76c.25-.51.84-.96,1.79-.96Z" style="fill: #767676; stroke-width: 0px;"/>
              <path d="M24.12,395.03v4.34h-1.01l-.05-.9c-.33.58-1.03,1.04-1.99,1.04-1.14,0-1.91-.7-1.91-1.85s.81-1.7,1.83-1.9l2-.38v-.32c0-.94-.43-1.35-1.21-1.35-.71,0-1.34.39-1.34,1.2h-1.1c.04-1.26,1-2.24,2.44-2.24s2.34.83,2.34,2.35ZM20.28,397.65c0,.52.36.82,1,.82.55,0,1.03-.23,1.33-.65.22-.3.38-.75.38-1.21v-.25l-1.79.39c-.49.12-.91.31-.91.9Z" style="fill: #767676; stroke-width: 0px;"/>
              <path d="M27.73,394.35c-.35.33-.58.83-.6,1.55v3.47h-1.12v-6.55h1l.08,1.14c.22-.6.83-1.21,1.96-1.21v1.12c-.52,0-.96.14-1.33.48Z" style="fill: #767676; stroke-width: 0px;"/>
              <path d="M33.57,392.82v1.04h-1.69l-.03,3.51c0,.71.18,1.07.94,1.07.36,0,.58-.05.78-.12v1c-.2.08-.49.14-.98.14-1.23,0-1.87-.55-1.86-1.88l.03-3.72h-1.22v-1.04h1.22v-1.64h1.14v1.64s1.66,0,1.66,0Z" style="fill: #767676; stroke-width: 0px;"/>
              <path d="M36.17,393.49c0,.46-.36.81-.82.81s-.82-.35-.82-.81.35-.82.82-.82.82.35.82.82ZM36.17,398.71c0,.46-.36.81-.82.81s-.82-.35-.82-.81.35-.81.82-.81.82.34.82.81Z" style="fill: #767676; stroke-width: 0px;"/>
            </g>
          </g>
        </g>
        <g style="isolation: isolate;">
          <g style="isolation: isolate;">
            <g style="isolation: isolate;">
              <path d="M55.49,392.97h-1.31c-.38-1.05-1.23-1.77-2.73-1.77-1.92,0-3.26,1.53-3.26,3.61s1.34,3.61,3.28,3.61c1.51,0,2.41-.77,2.77-1.81h1.27c-.51,1.83-1.9,2.91-4.04,2.91-2.64,0-4.51-2.01-4.51-4.72s1.87-4.72,4.5-4.72c2.15,0,3.54,1.12,4.04,2.87Z" style="fill: #767676; stroke-width: 0px;"/>
              <path d="M58.07,391.37v2.87h3.16v1.12h-3.16v4h-1.18v-9.1h4.9v1.11h-3.72Z" style="fill: #767676; stroke-width: 0px;"/>
              <path d="M67.61,399.37l-1.99-3.69h-1.33v3.69h-1.18v-9.1h2.48c1.82,0,2.98,1.09,2.98,2.74,0,1.2-.64,2.09-1.72,2.47l2.11,3.89h-1.35ZM64.3,394.61h1.3c1.05,0,1.78-.57,1.78-1.6s-.71-1.64-1.78-1.64h-1.3v3.24Z" style="fill: #767676; stroke-width: 0px;"/>
              <path d="M69.27,399.37l3.84-9.1h1.1l-3.83,9.1h-1.11Z" style="fill: #767676; stroke-width: 0px;"/>
              <path d="M81.42,399.37l-.96-2.41h-4.02l-.95,2.41h-1.3l3.65-9.1h1.22l3.65,9.1h-1.3ZM76.85,395.86h3.21l-1.44-3.58-.17-.49-.17.49-1.43,3.58Z" style="fill: #767676; stroke-width: 0px;"/>
              <path d="M83.92,399.37v-9.49h1.12v9.49h-1.12Z" style="fill: #767676; stroke-width: 0px;"/>
              <path d="M86.99,399.37v-9.49h1.12v9.49h-1.12Z" style="fill: #767676; stroke-width: 0px;"/>
              <path d="M91.43,390.8c0,.42-.35.75-.78.75s-.77-.34-.77-.75.34-.77.77-.77.78.34.78.77ZM90.1,399.37v-6.55h1.12v6.55h-1.12Z" style="fill: #767676; stroke-width: 0px;"/>
              <path d="M97.22,394.74h-1.14c-.01-.69-.34-1.03-1.04-1.03s-1,.4-1,.88c0,.51.26.71,1.23.95,1.56.36,2.15.91,2.15,1.96,0,1.27-.99,2-2.3,2-1.52,0-2.37-.86-2.39-2.13h1.14c.01.69.46,1.09,1.27,1.09.75,0,1.13-.38,1.13-.88,0-.55-.29-.81-1.36-1.05-1.37-.31-2.02-.79-2.02-1.87s.75-1.99,2.17-1.99c1.27,0,2.13.83,2.16,2.07Z" style="fill: #767676; stroke-width: 0px;"/>
              <path d="M105.02,396.09c0,1.99-1.37,3.42-3.32,3.42s-3.33-1.43-3.33-3.42,1.37-3.42,3.33-3.42,3.32,1.43,3.32,3.42ZM99.54,396.09c0,1.35.87,2.38,2.18,2.38s2.15-1.03,2.15-2.38-.85-2.38-2.15-2.38-2.18,1.01-2.18,2.38Z" style="fill: #767676; stroke-width: 0px;"/>
              <path d="M111.52,395.13v4.24h-1.13v-4.06c0-1.01-.48-1.55-1.27-1.55-.86,0-1.52.75-1.52,2.09v3.51h-1.12v-6.55h1l.06.9c.3-.57.92-1.04,1.85-1.04,1.4,0,2.13,1.01,2.13,2.46Z" style="fill: #767676; stroke-width: 0px;"/>
              <path d="M123.5,399.37h-1.5l-3.12-4.12-1.57,1.91v2.21h-1.18v-9.1h1.18v5.15l4.04-5.15h1.48l-3.19,4.04,3.85,5.06Z" style="fill: #767676; stroke-width: 0px;"/>
              <path d="M126.37,394.35c-.35.33-.58.83-.6,1.55v3.47h-1.12v-6.55h1l.08,1.14c.22-.6.83-1.21,1.96-1.21v1.12c-.52,0-.96.14-1.33.48Z" style="fill: #767676; stroke-width: 0px;"/>
              <path d="M132.86,399.37l-.06-.9c-.3.62-.9,1.04-1.81,1.04-1.42,0-2.11-1-2.11-2.46v-4.24h1.12v4.06c0,1.03.46,1.56,1.25,1.56.85,0,1.5-.72,1.5-1.98v-3.64h1.12v6.55h-1Z" style="fill: #767676; stroke-width: 0px;"/>
              <path d="M141.4,393.8h-1.13c.2.35.31.77.31,1.22,0,1.3-.98,2.33-2.5,2.33-.55,0-1.03-.13-1.4-.35-.16.14-.27.36-.27.65,0,.43.34.66.83.66h1.74c1.39,0,2.07.69,2.07,1.78,0,1.39-1.05,2.21-2.73,2.21-1.86,0-2.86-.75-2.86-2.04,0-.62.34-.98.71-1.18-.44-.22-.87-.7-.87-1.37,0-.6.3-1.05.68-1.34-.27-.38-.42-.84-.42-1.35,0-1.35.99-2.35,2.52-2.35.34,0,.65.05.94.14h2.38v.99ZM136.57,400.23c0,.71.65,1.09,1.75,1.09,1.01,0,1.63-.39,1.63-1.17,0-.61-.46-.85-1.18-.85h-1.25c-.49.03-.95.29-.95.92ZM139.48,395.03c0-.78-.53-1.37-1.4-1.37s-1.4.58-1.4,1.37.55,1.34,1.4,1.34,1.4-.58,1.4-1.34Z" style="fill: #767676; stroke-width: 0px;"/>
              <path d="M151.19,395.13v4.24h-1.12v-4.06c0-1.01-.47-1.55-1.26-1.55-.86,0-1.51.75-1.51,2.09v3.51h-1.12v-4.06c0-1.01-.47-1.55-1.26-1.55-.86,0-1.51.75-1.51,2.09v3.51h-1.12v-6.55h1l.06.9c.3-.57.92-1.04,1.82-1.04.97,0,1.61.48,1.91,1.25.34-.65.96-1.25,1.98-1.25,1.42,0,2.12,1.01,2.12,2.46Z" style="fill: #767676; stroke-width: 0px;"/>
              <path d="M157.62,395.03v4.34h-1.01l-.05-.9c-.33.58-1.03,1.04-1.99,1.04-1.14,0-1.91-.7-1.91-1.85s.81-1.7,1.83-1.9l2-.38v-.32c0-.94-.43-1.35-1.21-1.35-.71,0-1.34.39-1.34,1.2h-1.1c.04-1.26,1-2.24,2.44-2.24s2.34.83,2.34,2.35ZM153.78,397.65c0,.52.36.82,1,.82.55,0,1.03-.23,1.33-.65.22-.3.38-.75.38-1.21v-.25l-1.79.39c-.49.12-.91.31-.91.9Z" style="fill: #767676; stroke-width: 0px;"/>
              <path d="M164.48,395.13v4.24h-1.13v-4.06c0-1.01-.48-1.55-1.27-1.55-.86,0-1.52.75-1.52,2.09v3.51h-1.12v-6.55h1l.06.9c.3-.57.92-1.04,1.85-1.04,1.4,0,2.13,1.01,2.13,2.46Z" style="fill: #767676; stroke-width: 0px;"/>
              <path d="M172.14,396c0,1.04-.81,1.83-1.85,1.83s-1.83-.79-1.83-1.83.79-1.85,1.83-1.85,1.85.81,1.85,1.85Z" style="fill: #767676; stroke-width: 0px;"/>
              <path d="M181.32,392.67h-1.2c-.01-.97-.62-1.51-1.5-1.51s-1.4.51-1.4,1.38.57,1.18,1.81,1.68c1.83.68,2.57,1.34,2.57,2.68,0,1.66-1.17,2.64-2.82,2.64-1.92,0-2.99-1.16-3.02-2.85h1.2c.03,1.16.69,1.79,1.83,1.79,1.07,0,1.61-.65,1.61-1.51,0-.78-.55-1.2-1.91-1.68-1.55-.57-2.47-1.2-2.47-2.67s.94-2.54,2.63-2.54c1.59,0,2.63.88,2.67,2.57Z" style="fill: #767676; stroke-width: 0px;"/>
              <path d="M189.18,396.09c0,1.99-1.37,3.42-3.32,3.42s-3.33-1.43-3.33-3.42,1.37-3.42,3.33-3.42,3.32,1.43,3.32,3.42ZM183.69,396.09c0,1.35.87,2.38,2.18,2.38s2.15-1.03,2.15-2.38-.85-2.38-2.15-2.38-2.18,1.01-2.18,2.38Z" style="fill: #767676; stroke-width: 0px;"/>
              <path d="M194.49,399.37l-.06-.9c-.3.62-.9,1.04-1.81,1.04-1.42,0-2.11-1-2.11-2.46v-4.24h1.12v4.06c0,1.03.46,1.56,1.25,1.56.85,0,1.5-.72,1.5-1.98v-3.64h1.12v6.55h-1Z" style="fill: #767676; stroke-width: 0px;"/>
              <path d="M199.24,394.35c-.35.33-.58.83-.6,1.55v3.47h-1.12v-6.55h1l.08,1.14c.22-.6.83-1.21,1.96-1.21v1.12c-.52,0-.96.14-1.33.48Z" style="fill: #767676; stroke-width: 0px;"/>
              <path d="M207.28,394.86h-1.12c-.26-.73-.94-1.14-1.78-1.14-1.17,0-2.04,1-2.04,2.39s.87,2.37,2.07,2.37c.83,0,1.52-.44,1.76-1.14h1.13c-.35,1.43-1.5,2.18-2.93,2.18-1.85,0-3.19-1.43-3.19-3.41s1.34-3.43,3.19-3.43c1.44,0,2.6.75,2.91,2.18Z" style="fill: #767676; stroke-width: 0px;"/>
              <path d="M214.34,396.54h-4.97c.08,1.21.9,1.94,2.01,1.94.87,0,1.51-.38,1.77-1.07h1.12c-.39,1.3-1.4,2.11-2.91,2.11-1.85,0-3.16-1.34-3.16-3.41s1.25-3.43,3.16-3.43c1.72,0,2.98,1.12,2.98,3.33v.53ZM213.2,395.53c-.01-1.12-.75-1.82-1.85-1.82s-1.86.77-1.99,1.82h3.83Z" style="fill: #767676; stroke-width: 0px;"/>
              <path d="M216.92,393.49c0,.46-.36.81-.82.81s-.82-.35-.82-.81.35-.82.82-.82.82.35.82.82ZM216.92,398.71c0,.46-.36.81-.82.81s-.82-.35-.82-.81.35-.81.82-.81.82.34.82.81Z" style="fill: #767676; stroke-width: 0px;"/>
              <path d="M226.29,398.26v1.11h-5.24v-9.1h1.18v8h4.06Z" style="fill: #767676; stroke-width: 0px;"/>
              <path d="M233.66,396.09c0,1.99-1.37,3.42-3.32,3.42s-3.33-1.43-3.33-3.42,1.37-3.42,3.33-3.42,3.32,1.43,3.32,3.42ZM228.17,396.09c0,1.35.87,2.38,2.18,2.38s2.15-1.03,2.15-2.38-.85-2.38-2.15-2.38-2.18,1.01-2.18,2.38Z" style="fill: #767676; stroke-width: 0px;"/>
              <path d="M240.16,395.13v4.24h-1.13v-4.06c0-1.01-.48-1.55-1.27-1.55-.86,0-1.52.75-1.52,2.09v3.51h-1.12v-6.55h1l.06.9c.3-.57.92-1.04,1.85-1.04,1.4,0,2.13,1.01,2.13,2.46Z" style="fill: #767676; stroke-width: 0px;"/>
              <path d="M246.84,399.37l-.06-.96c-.4.58-1.07,1.1-2.25,1.1-1.85,0-3.06-1.48-3.06-3.42s1.22-3.42,3.07-3.42c1.09,0,1.82.48,2.18,1.04v-3.83h1.12v9.49h-1ZM242.63,396.09c0,1.39.82,2.37,2.07,2.37,1.07,0,2.04-.88,2.04-2.3v-.07c0-1.46-.99-2.35-2.03-2.35-1.22,0-2.08.97-2.08,2.35Z" style="fill: #767676; stroke-width: 0px;"/>
              <path d="M255.91,396.09c0,1.99-1.37,3.42-3.32,3.42s-3.33-1.43-3.33-3.42,1.37-3.42,3.33-3.42,3.32,1.43,3.32,3.42ZM250.42,396.09c0,1.35.87,2.38,2.18,2.38s2.15-1.03,2.15-2.38-.85-2.38-2.15-2.38-2.18,1.01-2.18,2.38Z" style="fill: #767676; stroke-width: 0px;"/>
              <path d="M262.41,395.13v4.24h-1.13v-4.06c0-1.01-.48-1.55-1.27-1.55-.86,0-1.52.75-1.52,2.09v3.51h-1.12v-6.55h1l.06.9c.3-.57.92-1.04,1.85-1.04,1.4,0,2.13,1.01,2.13,2.46Z" style="fill: #767676; stroke-width: 0px;"/>
              <path d="M272,392.67h-1.2c-.01-.97-.62-1.51-1.5-1.51s-1.4.51-1.4,1.38.57,1.18,1.81,1.68c1.83.68,2.57,1.34,2.57,2.68,0,1.66-1.17,2.64-2.82,2.64-1.92,0-2.99-1.16-3.02-2.85h1.2c.03,1.16.69,1.79,1.83,1.79,1.07,0,1.61-.65,1.61-1.51,0-.78-.55-1.2-1.91-1.68-1.55-.57-2.47-1.2-2.47-2.67s.94-2.54,2.63-2.54c1.59,0,2.63.88,2.67,2.57Z" style="fill: #767676; stroke-width: 0px;"/>
              <path d="M279.31,394.86h-1.12c-.26-.73-.94-1.14-1.78-1.14-1.17,0-2.04,1-2.04,2.39s.87,2.37,2.07,2.37c.83,0,1.52-.44,1.76-1.14h1.13c-.35,1.43-1.5,2.18-2.93,2.18-1.85,0-3.19-1.43-3.19-3.41s1.34-3.43,3.19-3.43c1.44,0,2.6.75,2.91,2.18Z" style="fill: #767676; stroke-width: 0px;"/>
              <path d="M283.65,392.67c1.4,0,2.13,1.01,2.13,2.46v4.24h-1.13v-4.06c0-1.01-.48-1.55-1.27-1.55-.86,0-1.52.75-1.52,2.09v3.51h-1.12v-9.49h1.12v3.76c.25-.51.84-.96,1.79-.96Z" style="fill: #767676; stroke-width: 0px;"/>
              <path d="M293.74,396.09c0,1.99-1.37,3.42-3.32,3.42s-3.33-1.43-3.33-3.42,1.37-3.42,3.33-3.42,3.32,1.43,3.32,3.42ZM288.26,396.09c0,1.35.87,2.38,2.18,2.38s2.15-1.03,2.15-2.38-.85-2.38-2.15-2.38-2.18,1.01-2.18,2.38Z" style="fill: #767676; stroke-width: 0px;"/>
              <path d="M301.42,396.09c0,1.99-1.37,3.42-3.32,3.42s-3.33-1.43-3.33-3.42,1.37-3.42,3.33-3.42,3.32,1.43,3.32,3.42ZM295.93,396.09c0,1.35.87,2.38,2.18,2.38s2.15-1.03,2.15-2.38-.85-2.38-2.15-2.38-2.18,1.01-2.18,2.38Z" style="fill: #767676; stroke-width: 0px;"/>
              <path d="M302.85,399.37v-9.49h1.12v9.49h-1.12Z" style="fill: #767676; stroke-width: 0px;"/>
              <path d="M314.68,396.09c0,1.99-1.37,3.42-3.32,3.42s-3.33-1.43-3.33-3.42,1.37-3.42,3.33-3.42,3.32,1.43,3.32,3.42ZM309.19,396.09c0,1.35.87,2.38,2.18,2.38s2.15-1.03,2.15-2.38-.85-2.38-2.15-2.38-2.18,1.01-2.18,2.38Z" style="fill: #767676; stroke-width: 0px;"/>
              <path d="M319.33,389.92v1.01c-.22-.09-.46-.16-.79-.16-.57,0-.92.34-.92,1.07v.97h1.63v1.03h-1.63v5.53h-1.13v-5.53h-1.18v-1.03h1.18v-1c0-1.3.71-2.05,1.96-2.05.39,0,.7.08.88.16Z" style="fill: #767676; stroke-width: 0px;"/>
              <path d="M329.07,399.37v-4.15h-4.81v4.15h-1.18v-9.1h1.18v3.83h4.81v-3.83h1.18v9.1h-1.18Z" style="fill: #767676; stroke-width: 0px;"/>
              <path d="M332.82,402.16l1.09-2.89-2.46-6.46h1.2l1.73,4.71.13.49.13-.49,1.73-4.71h1.21l-3.58,9.35h-1.18Z" style="fill: #767676; stroke-width: 0px;"/>
              <path d="M344.18,393.8h-1.13c.2.35.31.77.31,1.22,0,1.3-.98,2.33-2.5,2.33-.55,0-1.03-.13-1.4-.35-.16.14-.27.36-.27.65,0,.43.34.66.83.66h1.74c1.39,0,2.07.69,2.07,1.78,0,1.39-1.05,2.21-2.73,2.21-1.86,0-2.86-.75-2.86-2.04,0-.62.34-.98.71-1.18-.44-.22-.87-.7-.87-1.37,0-.6.3-1.05.68-1.34-.27-.38-.42-.84-.42-1.35,0-1.35.99-2.35,2.52-2.35.34,0,.65.05.94.14h2.38v.99ZM339.35,400.23c0,.71.65,1.09,1.75,1.09,1.01,0,1.63-.39,1.63-1.17,0-.61-.46-.85-1.18-.85h-1.25c-.49.03-.95.29-.95.92ZM342.26,395.03c0-.78-.53-1.37-1.4-1.37s-1.4.58-1.4,1.37.55,1.34,1.4,1.34,1.4-.58,1.4-1.34Z" style="fill: #767676; stroke-width: 0px;"/>
              <path d="M346.46,390.8c0,.42-.35.75-.78.75s-.77-.34-.77-.75.34-.77.77-.77.78.34.78.77ZM345.12,399.37v-6.55h1.12v6.55h-1.12Z" style="fill: #767676; stroke-width: 0px;"/>
              <path d="M353.83,396.54h-4.97c.08,1.21.9,1.94,2.02,1.94.87,0,1.51-.38,1.77-1.07h1.12c-.39,1.3-1.4,2.11-2.91,2.11-1.85,0-3.16-1.34-3.16-3.41s1.25-3.43,3.16-3.43c1.72,0,2.98,1.12,2.98,3.33v.53ZM352.7,395.53c-.01-1.12-.75-1.82-1.85-1.82s-1.86.77-1.99,1.82h3.84Z" style="fill: #767676; stroke-width: 0px;"/>
              <path d="M360.32,395.13v4.24h-1.13v-4.06c0-1.01-.48-1.55-1.27-1.55-.86,0-1.52.75-1.52,2.09v3.51h-1.12v-6.55h1l.06.9c.3-.57.92-1.04,1.85-1.04,1.4,0,2.13,1.01,2.13,2.46Z" style="fill: #767676; stroke-width: 0px;"/>
              <path d="M367.77,396.54h-4.97c.08,1.21.9,1.94,2.01,1.94.87,0,1.51-.38,1.77-1.07h1.12c-.39,1.3-1.4,2.11-2.91,2.11-1.85,0-3.16-1.34-3.16-3.41s1.25-3.43,3.16-3.43c1.72,0,2.98,1.12,2.98,3.33v.53ZM366.64,395.53c-.01-1.12-.75-1.82-1.85-1.82s-1.86.77-1.99,1.82h3.83Z" style="fill: #767676; stroke-width: 0px;"/>
              <path d="M376.44,395.03v4.34h-1.01l-.05-.9c-.33.58-1.03,1.04-1.99,1.04-1.14,0-1.91-.7-1.91-1.85s.81-1.7,1.83-1.9l2-.38v-.32c0-.94-.43-1.35-1.21-1.35-.71,0-1.34.39-1.34,1.2h-1.11c.04-1.26,1-2.24,2.44-2.24s2.34.83,2.34,2.35ZM372.61,397.65c0,.52.36.82,1,.82.55,0,1.03-.23,1.33-.65.22-.3.38-.75.38-1.21v-.25l-1.79.39c-.49.12-.91.31-.91.9Z" style="fill: #767676; stroke-width: 0px;"/>
              <path d="M383.31,395.13v4.24h-1.13v-4.06c0-1.01-.48-1.55-1.27-1.55-.86,0-1.52.75-1.52,2.09v3.51h-1.12v-6.55h1l.06.9c.3-.57.92-1.04,1.85-1.04,1.4,0,2.13,1.01,2.13,2.46Z" style="fill: #767676; stroke-width: 0px;"/>
              <path d="M389.99,399.37l-.07-.96c-.4.58-1.07,1.1-2.25,1.1-1.85,0-3.05-1.48-3.05-3.42s1.22-3.42,3.07-3.42c1.09,0,1.82.48,2.18,1.04v-3.83h1.12v9.49h-1ZM385.78,396.09c0,1.39.82,2.37,2.07,2.37,1.07,0,2.04-.88,2.04-2.3v-.07c0-1.46-.99-2.35-2.03-2.35-1.22,0-2.08.97-2.08,2.35Z" style="fill: #767676; stroke-width: 0px;"/>
              <path d="M399.15,391.37v8h-1.18v-8h-3.22v-1.11h7.63v1.11h-3.22Z" style="fill: #767676; stroke-width: 0px;"/>
              <path d="M404.05,394.35c-.35.33-.59.83-.6,1.55v3.47h-1.12v-6.55h1l.08,1.14c.22-.6.83-1.21,1.96-1.21v1.12c-.52,0-.96.14-1.33.48Z" style="fill: #767676; stroke-width: 0px;"/>
              <path d="M412.63,396.09c0,1.99-1.36,3.42-3.31,3.42s-3.33-1.43-3.33-3.42,1.36-3.42,3.33-3.42,3.31,1.43,3.31,3.42ZM407.14,396.09c0,1.35.87,2.38,2.18,2.38s2.14-1.03,2.14-2.38-.84-2.38-2.14-2.38-2.18,1.01-2.18,2.38Z" style="fill: #767676; stroke-width: 0px;"/>
              <path d="M420.52,396.09c0,1.94-1.22,3.42-3.07,3.42-1.09,0-1.82-.48-2.17-1.04v3.69h-1.13v-9.35h1.01l.05.96c.4-.58,1.07-1.11,2.25-1.11,1.85,0,3.06,1.48,3.06,3.42ZM415.26,396.03v.06c0,1.46.99,2.35,2.03,2.35,1.22,0,2.08-.98,2.08-2.35s-.82-2.37-2.07-2.37c-1.07,0-2.04.88-2.04,2.3Z" style="fill: #767676; stroke-width: 0px;"/>
              <path d="M423.33,390.8c0,.42-.35.75-.78.75s-.77-.34-.77-.75.34-.77.77-.77.78.34.78.77ZM421.99,399.37v-6.55h1.12v6.55h-1.12Z" style="fill: #767676; stroke-width: 0px;"/>
              <path d="M430.66,394.86h-1.12c-.26-.73-.94-1.14-1.78-1.14-1.17,0-2.04,1-2.04,2.39s.87,2.37,2.07,2.37c.83,0,1.52-.44,1.75-1.14h1.13c-.35,1.43-1.5,2.18-2.93,2.18-1.85,0-3.18-1.43-3.18-3.41s1.34-3.43,3.18-3.43c1.44,0,2.6.75,2.91,2.18Z" style="fill: #767676; stroke-width: 0px;"/>
              <path d="M436.67,395.03v4.34h-1.01l-.05-.9c-.33.58-1.03,1.04-1.99,1.04-1.14,0-1.91-.7-1.91-1.85s.81-1.7,1.83-1.9l2-.38v-.32c0-.94-.43-1.35-1.21-1.35-.71,0-1.34.39-1.34,1.2h-1.11c.04-1.26,1-2.24,2.44-2.24s2.34.83,2.34,2.35ZM432.84,397.65c0,.52.36.82,1,.82.55,0,1.03-.23,1.33-.65.22-.3.38-.75.38-1.21v-.25l-1.79.39c-.49.12-.91.31-.91.9Z" style="fill: #767676; stroke-width: 0px;"/>
              <path d="M438.49,399.37v-9.49h1.12v9.49h-1.12Z" style="fill: #767676; stroke-width: 0px;"/>
              <path d="M452.42,399.37v-6.77l-.25.68-2.78,6.1h-.95l-2.77-6.1-.25-.68v6.77h-1.18v-9.1h1.3l3.12,6.68.25.58.26-.58,3.13-6.68h1.3v9.1h-1.18Z" style="fill: #767676; stroke-width: 0px;"/>
              <path d="M461.17,396.54h-4.97c.08,1.21.9,1.94,2.01,1.94.87,0,1.51-.38,1.77-1.07h1.12c-.39,1.3-1.4,2.11-2.91,2.11-1.85,0-3.16-1.34-3.16-3.41s1.25-3.43,3.16-3.43c1.72,0,2.98,1.12,2.98,3.33v.53ZM460.04,395.53c-.01-1.12-.75-1.82-1.85-1.82s-1.86.77-1.99,1.82h3.83Z" style="fill: #767676; stroke-width: 0px;"/>
              <path d="M467.53,399.37l-.07-.96c-.4.58-1.07,1.1-2.25,1.1-1.85,0-3.05-1.48-3.05-3.42s1.22-3.42,3.07-3.42c1.09,0,1.82.48,2.18,1.04v-3.83h1.12v9.49h-1ZM463.31,396.09c0,1.39.82,2.37,2.07,2.37,1.07,0,2.04-.88,2.04-2.3v-.07c0-1.46-.99-2.35-2.03-2.35-1.22,0-2.08.97-2.08,2.35Z" style="fill: #767676; stroke-width: 0px;"/>
              <path d="M471.86,390.8c0,.42-.35.75-.78.75s-.77-.34-.77-.75.34-.77.77-.77.78.34.78.77ZM470.52,399.37v-6.55h1.12v6.55h-1.12Z" style="fill: #767676; stroke-width: 0px;"/>
              <path d="M479.19,394.86h-1.12c-.26-.73-.94-1.14-1.78-1.14-1.17,0-2.04,1-2.04,2.39s.87,2.37,2.07,2.37c.83,0,1.52-.44,1.75-1.14h1.13c-.35,1.43-1.49,2.18-2.92,2.18-1.85,0-3.18-1.43-3.18-3.41s1.34-3.43,3.18-3.43c1.44,0,2.6.75,2.91,2.18Z" style="fill: #767676; stroke-width: 0px;"/>
              <path d="M482,390.8c0,.42-.35.75-.78.75s-.77-.34-.77-.75.34-.77.77-.77.78.34.78.77ZM480.66,399.37v-6.55h1.12v6.55h-1.12Z" style="fill: #767676; stroke-width: 0px;"/>
              <path d="M488.81,395.13v4.24h-1.13v-4.06c0-1.01-.48-1.55-1.27-1.55-.86,0-1.52.75-1.52,2.09v3.51h-1.12v-6.55h1l.07.9c.3-.57.92-1.04,1.85-1.04,1.4,0,2.13,1.01,2.13,2.46Z" style="fill: #767676; stroke-width: 0px;"/>
              <path d="M496.26,396.54h-4.97c.08,1.21.9,1.94,2.01,1.94.87,0,1.51-.38,1.77-1.07h1.12c-.39,1.3-1.4,2.11-2.91,2.11-1.85,0-3.16-1.34-3.16-3.41s1.25-3.43,3.16-3.43c1.72,0,2.98,1.12,2.98,3.33v.53ZM495.13,395.53c-.01-1.12-.75-1.82-1.85-1.82s-1.86.77-1.99,1.82h3.83Z" style="fill: #767676; stroke-width: 0px;"/>
              <path d="M498.66,398.78c0,.81-.42,1.69-.95,2.29l-.36-.14c.26-.46.39-.94.46-1.47-.4-.04-.7-.33-.7-.75s.34-.77.78-.77.78.32.78.84Z" style="fill: #767676; stroke-width: 0px;"/>
              <path d="M510.85,392.97h-1.31c-.38-1.05-1.24-1.77-2.73-1.77-1.92,0-3.26,1.53-3.26,3.61s1.34,3.61,3.28,3.61c1.51,0,2.4-.77,2.77-1.81h1.27c-.51,1.83-1.9,2.91-4.04,2.91-2.64,0-4.51-2.01-4.51-4.72s1.87-4.72,4.5-4.72c2.15,0,3.54,1.12,4.04,2.87Z" style="fill: #767676; stroke-width: 0px;"/>
              <path d="M520.14,394.82c0,2.73-1.79,4.55-4.62,4.55h-3.28v-9.1h3.28c2.82,0,4.62,1.83,4.62,4.55ZM513.43,398.26h2.09c2.09,0,3.41-1.29,3.41-3.44s-1.29-3.45-3.41-3.45h-2.09v6.89Z" style="fill: #767676; stroke-width: 0px;"/>
              <path d="M529.86,392.97h-1.31c-.38-1.05-1.24-1.77-2.73-1.77-1.92,0-3.26,1.53-3.26,3.61s1.34,3.61,3.28,3.61c1.51,0,2.4-.77,2.77-1.81h1.27c-.51,1.83-1.9,2.91-4.04,2.91-2.64,0-4.51-2.01-4.51-4.72s1.87-4.72,4.5-4.72c2.15,0,3.54,1.12,4.04,2.87Z" style="fill: #767676; stroke-width: 0px;"/>
            </g>
          </g>
        </g>
      </g>
      <g id="image">
        <path d="M704.96,389.47h-6.7v1.7h2.4v8h2v-8h2.4v-1.7h-.1Z" style="fill: #000; stroke-width: 0px;"/>
        <path d="M705.36,399.27h2v-4c0-1,.3-1.5.9-1.5s.8.3.8,1.1v4.4h2v-4.6c0-1.6-.6-2.3-1.8-2.3s-1.5.4-1.8,1.3v-4.2h-2v9.8h-.1Z" style="fill: #000; stroke-width: 0px;"/>
        <path d="M711.86,391.47h2v-2h-2v2ZM711.96,399.27h1.9v-6.7h-1.9v6.7Z" style="fill: #000; stroke-width: 0px;"/>
        <path d="M714.86,399.27h2v-4c0-1,.3-1.4.9-1.4s.8.3.8,1.1v4.3h2v-4.6c0-1.6-.6-2.3-1.8-2.3s-1.5.5-1.9,1.4v-1.2h-1.9v6.7h-.1Z" style="fill: #000; stroke-width: 0px;"/>
        <path d="M725.27,399.27h2.2l-2-4.2,1.9-2.5h-2.2l-1.8,2.8v-5.8h-2v9.8h2v-2l.6-.9,1.2,2.9h0l.1-.1Z" style="fill: #000; stroke-width: 0px;"/>
        <path d="M732.27,399.47c1.2,0,2-.6,2.4-1.7v1.5h1.6v-5.3h-3.6v1.6h1.6v.2c0,1.3-.5,2.1-1.4,2.1s-1.6-.8-1.6-3.5.5-3.3,1.6-3.3,1.3.6,1.4,1.8l2-.4c0-1.9-1.3-3-3.4-3s-3.8,1.5-3.8,4.9,1.2,5.1,3.3,5.1h-.1Z" style="fill: #000; stroke-width: 0px;"/>
        <path d="M739.07,389.47h-2v9.8h2v-9.8Z" style="fill: #000; stroke-width: 0px;"/>
        <path d="M742.87,399.37c1.8,0,3-1,3-3.5s-1.2-3.5-3-3.5-3,1-3,3.5,1.2,3.5,3,3.5ZM742.87,397.97c-.6,0-1-.5-1-2.1s.4-2.1,1-2.1,1,.5,1,2.1-.4,2.1-1,2.1Z" style="fill: #000; stroke-width: 0px;"/>
        <path d="M750.17,399.37c1.5,0,2.3-1.1,2.3-3.5s-.8-3.5-2.2-3.5-1.5.4-1.8,1.1v-4h-2v9.8h1.8v-1.1c.4.7,1,1.2,1.8,1.2h.1ZM749.37,397.97c-.6,0-.9-.5-.9-1.4v-1.4c0-.9.4-1.4.9-1.4s.9.5.9,2.1-.3,2.1-1,2.1h.1Z" style="fill: #000; stroke-width: 0px;"/>
        <path d="M754.87,399.37c.9,0,1.7-.5,1.9-1.2v1.1h1.9v-4.5c0-1.7-.8-2.4-2.7-2.4s-2.8.7-2.9,2.4h2c0-.7.2-1.1.8-1.1s.7.3.7.9v.5l-1.3.2c-.8.1-1.4.4-1.8.7-.4.3-.6.8-.6,1.5,0,1.2.7,2,2,2h0v-.1ZM755.67,398.07c-.5,0-.7-.3-.7-.8s.3-.9.9-1l.8-.2v.9c0,.7-.4,1.1-1,1.1Z" style="fill: #000; stroke-width: 0px;"/>
        <path d="M761.47,389.47h-2v9.8h2v-9.8Z" style="fill: #000; stroke-width: 0px;"/>
        <path d="M770.68,389.47h-2.1v4.1h-2.7v-4.1h-2.1v9.8h2.1v-4.1h2.7v4.1h2.1v-9.8Z" style="fill: #000; stroke-width: 0px;"/>
        <path d="M777.18,395.37c0-1.9-1-3-2.9-3s-3,1.1-3,3.5,1.2,3.5,3,3.5,2.5-.7,2.7-2l-1.7-.5c0,.8-.5,1.1-1,1.1s-1.1-.5-1.1-1.7h3.9v-.9h.1ZM773.38,395.17c0-1.2.4-1.6,1-1.6s.9.3.9,1.6h-1.9Z" style="fill: #000; stroke-width: 0px;"/>
        <path d="M779.48,399.37c.9,0,1.7-.5,1.9-1.2v1.1h1.9v-4.5c0-1.7-.8-2.4-2.7-2.4s-2.8.7-2.9,2.4h2c0-.7.2-1.1.8-1.1s.7.3.7.9v.5l-1.3.2c-.8.1-1.4.4-1.8.7-.4.3-.6.8-.6,1.5,0,1.2.7,2,2,2h0v-.1ZM780.28,398.07c-.5,0-.7-.3-.7-.8s.3-.9.9-1l.8-.2v.9c0,.7-.4,1.1-1,1.1Z" style="fill: #000; stroke-width: 0px;"/>
        <path d="M786.08,389.47h-2v9.8h2v-9.8Z" style="fill: #000; stroke-width: 0px;"/>
        <path d="M786.48,393.87h1v3.4c0,1.4.7,2.1,2.2,2.1s.7,0,1.1-.1v-1.6h-.5c-.6,0-.8-.3-.8-.9v-2.9h1.4v-1.3h-1.4v-2.3l-2,.7v1.6h-1v1.3h0Z" style="fill: #000; stroke-width: 0px;"/>
        <path d="M791.28,399.27h2v-4c0-1,.3-1.5.9-1.5s.8.3.8,1.1v4.4h2v-4.6c0-1.6-.6-2.3-1.8-2.3s-1.5.4-1.8,1.3v-4.2h-2v9.8h-.1Z" style="fill: #000; stroke-width: 0px;"/>
      </g>
    </g>
    <g style="isolation: isolate;">
      <g style="isolation: isolate;">
        <g style="isolation: isolate;">
          <path d="M120.3,353.5l-4.66-6.73-.36-.58v7.3h-1.22v-9.38h1.19l4.64,6.7.4.62v-7.31h1.22v9.38h-1.21Z" style="fill: #1a1a1a; stroke-width: 0px;"/>
          <path d="M129.83,350.12c0,2.05-1.41,3.52-3.42,3.52s-3.43-1.47-3.43-3.52,1.41-3.52,3.43-3.52,3.42,1.47,3.42,3.52ZM124.18,350.12c0,1.39.9,2.45,2.25,2.45s2.21-1.06,2.21-2.45-.87-2.45-2.21-2.45-2.25,1.04-2.25,2.45Z" style="fill: #1a1a1a; stroke-width: 0px;"/>
          <path d="M132.86,353.5l-2.57-6.75h1.23l1.78,4.85.13.51.13-.51,1.78-4.85h1.25l-2.59,6.75h-1.15Z" style="fill: #1a1a1a; stroke-width: 0px;"/>
        </g>
      </g>
    </g>
    <g style="isolation: isolate;">
      <g style="isolation: isolate;">
        <g style="isolation: isolate;">
          <path d="M242.72,348.91c0,2.81-1.85,4.69-4.76,4.69h-3.38v-9.38h3.38c2.91,0,4.76,1.89,4.76,4.69ZM235.8,352.46h2.16c2.16,0,3.51-1.33,3.51-3.55s-1.33-3.55-3.51-3.55h-2.16v7.1Z" style="fill: #1a1a1a; stroke-width: 0px;"/>
          <path d="M250.08,350.68h-5.12c.08,1.25.92,2,2.08,2,.9,0,1.55-.39,1.82-1.1h1.15c-.4,1.34-1.45,2.17-3,2.17-1.9,0-3.26-1.38-3.26-3.51s1.29-3.54,3.26-3.54c1.77,0,3.07,1.15,3.07,3.43v.55ZM248.91,349.65c-.01-1.15-.78-1.88-1.9-1.88s-1.92.79-2.05,1.88h3.95Z" style="fill: #1a1a1a; stroke-width: 0px;"/>
          <path d="M257.38,348.95h-1.15c-.27-.75-.96-1.18-1.84-1.18-1.21,0-2.1,1.03-2.1,2.47s.9,2.44,2.13,2.44c.86,0,1.57-.46,1.81-1.18h1.17c-.36,1.47-1.54,2.25-3.01,2.25-1.9,0-3.28-1.47-3.28-3.51s1.38-3.54,3.28-3.54c1.49,0,2.68.78,3,2.25Z" style="fill: #1a1a1a; stroke-width: 0px;"/>
        </g>
      </g>
    </g>
    <g style="isolation: isolate;">
      <g style="isolation: isolate;">
        <g style="isolation: isolate;">
          <path d="M358.12,352.73c-1.89,0-2.72-1.18-2.79-2.97h1.22c.05,1.22.58,1.83,1.57,1.83.91,0,1.41-.62,1.41-1.74v-6.63h1.22v6.69c0,1.86-.95,2.83-2.63,2.83Z" style="fill: #1a1a1a; stroke-width: 0px;"/>
          <path d="M367.38,348.12v4.47h-1.04l-.05-.92c-.33.6-1.06,1.07-2.05,1.07-1.18,0-1.97-.72-1.97-1.9s.83-1.75,1.89-1.96l2.06-.39v-.33c0-.96-.44-1.39-1.25-1.39-.74,0-1.38.4-1.38,1.23h-1.14c.04-1.3,1.03-2.3,2.52-2.3s2.41.86,2.41,2.42ZM363.43,350.83c0,.54.38.84,1.03.84.56,0,1.06-.24,1.37-.67.23-.31.39-.78.39-1.25v-.25l-1.85.4c-.51.12-.94.32-.94.92Z" style="fill: #1a1a1a; stroke-width: 0px;"/>
          <path d="M374.45,348.23v4.37h-1.17v-4.18c0-1.04-.5-1.59-1.31-1.59-.88,0-1.57.78-1.57,2.16v3.62h-1.15v-6.75h1.03l.07.92c.31-.59.95-1.07,1.9-1.07,1.45,0,2.2,1.04,2.2,2.53Z" style="fill: #1a1a1a; stroke-width: 0px;"/>
        </g>
      </g>
    </g>
    <g style="isolation: isolate;">
      <g style="isolation: isolate;">
        <g style="isolation: isolate;">
          <path d="M462.96,344.96v2.96h3.25v1.15h-3.25v4.13h-1.22v-9.38h5.05v1.14h-3.83Z" style="fill: #1a1a1a; stroke-width: 0px;"/>
          <path d="M473.73,350.28h-5.12c.08,1.25.92,2,2.08,2,.9,0,1.55-.39,1.82-1.1h1.15c-.4,1.34-1.45,2.17-3,2.17-1.9,0-3.26-1.38-3.26-3.51s1.29-3.54,3.26-3.54c1.77,0,3.07,1.15,3.07,3.43v.55ZM472.57,349.25c-.01-1.15-.78-1.88-1.9-1.88s-1.92.79-2.05,1.88h3.95Z" style="fill: #1a1a1a; stroke-width: 0px;"/>
          <path d="M478.62,346.3c1.9,0,3.16,1.53,3.16,3.52s-1.25,3.52-3.15,3.52c-1.22,0-1.9-.54-2.32-1.14l-.07.99h-1.03v-9.78h1.15v3.95c.38-.58,1.12-1.07,2.25-1.07ZM476.36,349.82v.07c0,1.46,1,2.37,2.1,2.37,1.29,0,2.13-1,2.13-2.44s-.88-2.42-2.14-2.42c-1.07,0-2.09.92-2.09,2.42Z" style="fill: #1a1a1a; stroke-width: 0px;"/>
        </g>
      </g>
    </g>
    <g style="isolation: isolate;">
      <g style="isolation: isolate;">
        <g style="isolation: isolate;">
          <path d="M568.89,353v-6.98l-.25.7-2.87,6.28h-.98l-2.85-6.28-.25-.7v6.98h-1.22v-9.38h1.34l3.22,6.89.25.6.27-.6,3.23-6.89h1.34v9.38h-1.22Z" style="fill: #1a1a1a; stroke-width: 0px;"/>
          <path d="M576.85,348.53v4.47h-1.04l-.05-.92c-.33.6-1.06,1.07-2.05,1.07-1.18,0-1.97-.72-1.97-1.9s.83-1.75,1.89-1.96l2.06-.39v-.33c0-.96-.44-1.39-1.25-1.39-.74,0-1.38.4-1.38,1.23h-1.14c.04-1.3,1.03-2.3,2.52-2.3s2.41.86,2.41,2.42ZM572.9,351.23c0,.54.38.84,1.03.84.56,0,1.06-.24,1.37-.67.23-.31.39-.78.39-1.25v-.25l-1.85.4c-.51.12-.94.32-.94.92Z" style="fill: #1a1a1a; stroke-width: 0px;"/>
          <path d="M580.58,347.83c-.36.33-.6.86-.62,1.59v3.58h-1.15v-6.75h1.03l.08,1.18c.23-.62.86-1.25,2.02-1.25v1.15c-.54,0-.99.15-1.37.5Z" style="fill: #1a1a1a; stroke-width: 0px;"/>
        </g>
      </g>
    </g>
    <g style="isolation: isolate;">
      <g style="isolation: isolate;">
        <g style="isolation: isolate;">
          <path d="M658.13,353.8l-.99-2.48h-4.14l-.98,2.48h-1.34l3.76-9.38h1.26l3.76,9.38h-1.34ZM653.41,350.18h3.31l-1.49-3.68-.17-.51-.17.51-1.47,3.68Z" style="fill: #1a1a1a; stroke-width: 0px;"/>
          <path d="M667.36,350.42c0,2-1.26,3.52-3.16,3.52-1.12,0-1.88-.5-2.24-1.07v3.81h-1.17v-9.63h1.04l.05.99c.42-.6,1.1-1.14,2.32-1.14,1.9,0,3.15,1.53,3.15,3.52ZM661.93,350.36v.07c0,1.5,1.02,2.42,2.09,2.42,1.26,0,2.14-1,2.14-2.42s-.84-2.44-2.13-2.44c-1.1,0-2.1.91-2.1,2.37Z" style="fill: #1a1a1a; stroke-width: 0px;"/>
          <path d="M670.71,348.63c-.36.33-.6.86-.62,1.59v3.58h-1.15v-6.75h1.03l.08,1.18c.23-.62.86-1.25,2.02-1.25v1.15c-.54,0-.99.15-1.37.5Z" style="fill: #1a1a1a; stroke-width: 0px;"/>
        </g>
      </g>
    </g>
    <g style="isolation: isolate;">
      <g style="isolation: isolate;">
        <g style="isolation: isolate;">
          <path d="M748.43,352.7v-6.98l-.25.7-2.87,6.28h-.98l-2.85-6.28-.25-.7v6.98h-1.22v-9.38h1.34l3.22,6.89.25.6.27-.6,3.23-6.89h1.34v9.38h-1.22Z" style="fill: #1a1a1a; stroke-width: 0px;"/>
          <path d="M756.39,348.23v4.47h-1.04l-.05-.92c-.33.6-1.06,1.07-2.05,1.07-1.18,0-1.97-.72-1.97-1.9s.83-1.75,1.89-1.96l2.06-.39v-.33c0-.96-.44-1.39-1.25-1.39-.74,0-1.38.4-1.38,1.23h-1.14c.04-1.3,1.03-2.3,2.52-2.3s2.41.86,2.41,2.42ZM752.44,350.93c0,.54.38.84,1.03.84.56,0,1.06-.24,1.37-.67.23-.31.39-.78.39-1.25v-.25l-1.85.4c-.51.12-.94.32-.94.92Z" style="fill: #1a1a1a; stroke-width: 0px;"/>
          <path d="M758.74,355.58l1.13-2.97-2.53-6.66h1.23l1.78,4.85.13.51.13-.51,1.78-4.85h1.25l-3.68,9.63h-1.22Z" style="fill: #1a1a1a; stroke-width: 0px;"/>
        </g>
      </g>
    </g>
    <g id="area-fills-svg">
      <path d="M.6,330.6l24.91-4.3,24.91,1.2,24.91-6.8,24.91,2.1,24.91-5.3,24.91-8.9,24.91-24.1,24.91-20.2,24.91-22.6,24.91-20.6,24.91-14.2,24.91,15.9,24.91,39.7,24.91,30.6,24.91,17.2,24.91,6,24.91-4.8,24.91,6,24.91-.4,24.91,1,24.91-3.7,24.91,2.5,24.91,4.7v-6.8l-24.91,1.1-24.91-1.7-24.91-4.4-24.91-5.1-24.91,9.9-24.91-6.8-24.91-4.1-24.91-1.1-24.91-32.3-24.91-72.2-24.91-77.5-24.91-89.6-24.91,90-24.91,70.9-24.91,58.7-24.91,27.1-24.91,9.7-24.91,16-24.91,4.9-24.91,3.1-24.91,2-24.91,1.5-24.91,5.1v10.6Z" style="fill: #c6ddf4; isolation: isolate; opacity: .7; stroke-width: 0px;"/>
      <path d="M.6,331.2h572.34v-9.5l-24.91-4.7-24.91-2.5-24.91,3.7-24.91-1-24.91.4-24.91-6-24.91,4.8-24.91-6-24.91-17.2-24.91-30.6-24.91-39.7-24.91-15.9-24.91,14.2-24.91,20.6-24.91,22.6-24.91,20.2-24.91,24.1-24.91,8.9-24.91,5.3-24.91-2.1-24.91,6.8-24.91-1.2L.1,330.7v.6l.5-.1Z" style="fill: #dbb9e6; isolation: isolate; opacity: .7; stroke-width: 0px;"/>
      <path d="M.6,328.9l24.91.9,24.91.3,24.91-.7,24.91,1,24.91-.3,24.91-2.9,24.91-1.7,24.91-3.1,24.91-4.1,24.91-8.6,24.91-25.8,24.91-36.6v-19.4l-24.91,19.1-24.91,26.2-24.91,23.3-24.91,19.6-24.91,4.5-24.91,3.9-24.91-.5h-24.91l-24.91,3.5-24.91,1.3-24.91-.9-24.91,1h0Z" style="fill: #04284a; isolation: isolate; opacity: .7; stroke-width: 0px;"/>
      <path d="M.6,330.5l24.91-.5,24.91.8,24.91-.9h24.91l24.91-1.5,24.91-.3,24.91-.9,24.91-1.8,24.91-2.1,24.91-4.1,24.91-3.8,24.91-19.6,24.91-17.2,24.91-18,24.91-4.2,24.91-13.6,24.91-1,24.91-11.2,24.91,13.5,24.91,26,24.91,30.1,24.91,8.4,24.91.4,24.91,5.3,24.91,1.3,24.91,3,24.91,2.2,24.91,1,24.91-2.1,24.91,7.4,24.91,1.2,24.91-.9v2.3h-24.91l-24.91-.9-24.91-2.6-24.91-5.1-24.91-7.3-24.91-17.8-24.91-7.1-24.91-6.5-24.91-5.6-24.91-8.2-24.91-7.1-24.91-33.4-24.91-.5-24.91,12.5-24.91-2.5-24.91-18.6-24.91-4.2-24.91-14.7-24.91,26-24.91,21.1-24.91,36.6-24.91,25.8-24.91,8.6-24.91,4.1-24.91,3.1-24.91,1.7-24.91,2.9-24.91.3-24.91-1-24.91.7-24.91-.3-24.91-.9v1.7Z" style="fill: #efd952; isolation: isolate; opacity: .7; stroke-width: 0px;"/>
      <path d="M.6,331.2h796.39v-3.8l-24.91.9-24.91-1.2-24.91-7.4-24.91,2.1-24.91-1-24.91-2.2-24.91-3-24.91-1.3-24.91-5.3-24.91-.4-24.91-8.4-24.91-30.1-24.91-26-24.91-13.5-24.91,11.2-24.91,1-24.91,13.6-24.91,4.2-24.91,18-24.91,17.2-24.91,19.6-24.91,3.8-24.91,4.1-24.91,2.1-24.91,1.8-24.91.9-24.91.3-24.91,1.5h-24.91l-24.91.9-24.91-.8-24.91.5v.6l.6.1Z" style="fill: #f56647; isolation: isolate; opacity: .7; stroke-width: 0px;"/>
    </g>
    <line x1="796.98" y1="331.2" x2="-1.45" y2="331.2" style="fill: none; stroke: #1a1a1a; stroke-linecap: square;"/>
    <g id="_2022-2023-4" data-name=" 2022-2023-4" style="isolation: isolate;">
      <g style="isolation: isolate;">
        <g style="isolation: isolate;">
          <path d="M193.32,47.23c0,1.13-.5,1.99-1.19,2.87l-2.51,3.21h3.85v1.19h-5.6v-.94l3.15-3.98c.7-.88,1.01-1.46,1.01-2.31,0-1.01-.48-1.57-1.46-1.57-.88,0-1.53.56-1.53,1.82h-1.27c0-1.85,1.09-3.01,2.82-3.01s2.73,1.08,2.73,2.72Z" style="fill: #647a8e; stroke-width: 0px;"/>
          <path d="M201.12,49.58c0,3.1-1.18,5.1-3.29,5.1s-3.29-2-3.29-5.1,1.16-5.07,3.29-5.07,3.29,1.99,3.29,5.07ZM195.83,49.58c0,2.4.67,3.91,2,3.91s1.99-1.51,1.99-3.91-.67-3.88-1.99-3.88-2,1.5-2,3.88Z" style="fill: #647a8e; stroke-width: 0px;"/>
          <path d="M207.88,47.23c0,1.13-.5,1.99-1.19,2.87l-2.51,3.21h3.85v1.19h-5.6v-.94l3.15-3.98c.7-.88,1.01-1.46,1.01-2.31,0-1.01-.48-1.57-1.46-1.57-.88,0-1.53.56-1.53,1.82h-1.27c0-1.85,1.09-3.01,2.82-3.01s2.73,1.08,2.73,2.72Z" style="fill: #647a8e; stroke-width: 0px;"/>
          <path d="M214.67,47.23c0,1.13-.5,1.99-1.19,2.87l-2.51,3.21h3.85v1.19h-5.6v-.94l3.15-3.98c.7-.88,1.01-1.46,1.01-2.31,0-1.01-.48-1.57-1.46-1.57-.88,0-1.53.56-1.53,1.82h-1.27c0-1.85,1.09-3.01,2.82-3.01s2.73,1.08,2.73,2.72Z" style="fill: #647a8e; stroke-width: 0px;"/>
          <path d="M215.54,51.4v-1.08h4.41v1.08h-4.41Z" style="fill: #647a8e; stroke-width: 0px;"/>
          <path d="M226.28,47.23c0,1.13-.5,1.99-1.19,2.87l-2.51,3.21h3.85v1.19h-5.6v-.94l3.15-3.98c.7-.88,1.01-1.46,1.01-2.31,0-1.01-.48-1.57-1.46-1.57-.88,0-1.53.56-1.53,1.82h-1.27c0-1.85,1.09-3.01,2.82-3.01s2.73,1.08,2.73,2.72Z" style="fill: #647a8e; stroke-width: 0px;"/>
          <path d="M234.08,49.58c0,3.1-1.18,5.1-3.29,5.1s-3.29-2-3.29-5.1,1.16-5.07,3.29-5.07,3.29,1.99,3.29,5.07ZM228.79,49.58c0,2.4.67,3.91,2,3.91s1.99-1.51,1.99-3.91-.67-3.88-1.99-3.88-2,1.5-2,3.88Z" style="fill: #647a8e; stroke-width: 0px;"/>
          <path d="M240.85,47.23c0,1.13-.5,1.99-1.19,2.87l-2.51,3.21h3.85v1.19h-5.6v-.94l3.15-3.98c.7-.88,1.01-1.46,1.01-2.31,0-1.01-.48-1.57-1.46-1.57-.88,0-1.53.56-1.53,1.82h-1.27c0-1.85,1.09-3.01,2.82-3.01s2.73,1.08,2.73,2.72Z" style="fill: #647a8e; stroke-width: 0px;"/>
          <path d="M247.86,47.27c0,1.25-.71,1.92-1.37,2.14.85.22,1.71,1.02,1.71,2.42,0,1.68-1.22,2.84-3.04,2.84s-3.1-1.09-3.1-3h1.26c.01,1.27.81,1.81,1.86,1.81s1.72-.66,1.72-1.69c0-1.18-.84-1.81-2.31-1.81h-.32v-1.12h.31c1.37,0,1.99-.48,1.99-1.57,0-.97-.5-1.6-1.47-1.6-.85,0-1.56.53-1.56,1.77h-1.27c0-1.82,1.11-2.96,2.82-2.96s2.77,1.22,2.77,2.76Z" style="fill: #647a8e; stroke-width: 0px;"/>
        </g>
      </g>
    </g>
    <g id="_2017-2018-2" data-name=" 2017-2018-2" style="isolation: isolate;">
      <g style="isolation: isolate;">
        <g style="isolation: isolate;">
          <path d="M388.57,184.73c0,1.13-.5,1.99-1.19,2.87l-2.51,3.21h3.85v1.19h-5.6v-.94l3.15-3.98c.7-.88,1.01-1.46,1.01-2.31,0-1.01-.48-1.57-1.46-1.57-.88,0-1.53.56-1.53,1.82h-1.28c0-1.85,1.09-3.01,2.82-3.01s2.73,1.08,2.73,2.72Z" style="fill: #857700; stroke-width: 0px;"/>
          <path d="M396.36,187.08c0,3.1-1.18,5.1-3.29,5.1s-3.29-2-3.29-5.1,1.16-5.07,3.29-5.07,3.29,1.99,3.29,5.07ZM391.07,187.08c0,2.4.67,3.91,2,3.91s1.99-1.51,1.99-3.91-.67-3.88-1.99-3.88-2,1.5-2,3.88Z" style="fill: #857700; stroke-width: 0px;"/>
          <path d="M399.39,192v-7.51h-2.06v-1.09c1.43,0,2.12-.24,2.35-1.2h.98v9.81h-1.27Z" style="fill: #857700; stroke-width: 0px;"/>
          <path d="M404.14,192h-1.39l3.87-8.59h-4.38v-1.22h5.84v1.04l-3.94,8.77Z" style="fill: #857700; stroke-width: 0px;"/>
          <path d="M408.57,188.9v-1.08h4.41v1.08h-4.41Z" style="fill: #857700; stroke-width: 0px;"/>
          <path d="M419.32,184.73c0,1.13-.5,1.99-1.19,2.87l-2.51,3.21h3.85v1.19h-5.6v-.94l3.15-3.98c.7-.88,1.01-1.46,1.01-2.31,0-1.01-.48-1.57-1.46-1.57-.88,0-1.53.56-1.53,1.82h-1.28c0-1.85,1.09-3.01,2.82-3.01s2.73,1.08,2.73,2.72Z" style="fill: #857700; stroke-width: 0px;"/>
          <path d="M427.12,187.08c0,3.1-1.18,5.1-3.29,5.1s-3.29-2-3.29-5.1,1.16-5.07,3.29-5.07,3.29,1.99,3.29,5.07ZM421.82,187.08c0,2.4.67,3.91,2,3.91s1.99-1.51,1.99-3.91-.67-3.88-1.99-3.88-2,1.5-2,3.88Z" style="fill: #857700; stroke-width: 0px;"/>
          <path d="M430.14,192v-7.51h-2.06v-1.09c1.43,0,2.12-.24,2.35-1.2h.98v9.81h-1.27Z" style="fill: #857700; stroke-width: 0px;"/>
          <path d="M439.09,184.77c0,1.22-.7,1.93-1.21,2.19.63.28,1.51.98,1.51,2.35,0,1.67-1.36,2.87-3.12,2.87s-3.14-1.2-3.14-2.87c0-1.25.73-2.06,1.51-2.35-.52-.27-1.19-.98-1.19-2.19,0-1.53,1.09-2.76,2.82-2.76s2.82,1.23,2.82,2.76ZM434.42,189.28c0,1.09.87,1.72,1.85,1.72s1.84-.63,1.84-1.72-.87-1.75-1.84-1.75-1.85.66-1.85,1.75ZM434.72,184.8c0,.97.64,1.57,1.55,1.57s1.56-.6,1.56-1.57-.66-1.61-1.56-1.61-1.55.63-1.55,1.61Z" style="fill: #857700; stroke-width: 0px;"/>
        </g>
      </g>
    </g>
    <g id="_2019-2020-2" data-name=" 2019-2020-2" style="isolation: isolate;">
      <g style="isolation: isolate;">
        <g style="isolation: isolate;">
          <path d="M140.91,215.03c0,1.13-.5,1.99-1.19,2.87l-2.51,3.21h3.85v1.19h-5.6v-.94l3.15-3.98c.7-.88,1.01-1.46,1.01-2.31,0-1.01-.48-1.57-1.46-1.57-.88,0-1.53.56-1.53,1.82h-1.27c0-1.85,1.09-3.01,2.82-3.01s2.73,1.08,2.73,2.72Z" style="fill: #8b6c96; stroke-width: 0px;"/>
          <path d="M148.71,217.38c0,3.1-1.18,5.1-3.29,5.1s-3.29-2-3.29-5.1,1.16-5.07,3.29-5.07,3.29,1.99,3.29,5.07ZM143.41,217.38c0,2.4.67,3.91,2,3.91s1.99-1.51,1.99-3.91-.67-3.88-1.99-3.88-2,1.5-2,3.88Z" style="fill: #8b6c96; stroke-width: 0px;"/>
          <path d="M151.73,222.3v-7.51h-2.06v-1.09c1.43,0,2.11-.24,2.35-1.21h.98v9.81h-1.27Z" style="fill: #8b6c96; stroke-width: 0px;"/>
          <path d="M161,217.14c0,3.46-.99,5.34-3.35,5.34-1.57,0-2.73-1.05-2.8-2.7h1.29c.1,1.06.66,1.51,1.56,1.51,1.29,0,1.98-1.08,2.02-3.73-.35.52-1.12.98-2.05.98-1.92,0-3.03-1.34-3.03-3.07,0-1.82,1.2-3.17,3.07-3.17,1.01,0,1.77.35,2.31.98.78.9.98,2.33.98,3.85ZM159.6,215.48c0-.98-.71-1.99-1.86-1.99-1.08,0-1.79.83-1.79,1.96,0,1.06.71,1.91,1.79,1.91,1.02,0,1.86-.8,1.86-1.88Z" style="fill: #8b6c96; stroke-width: 0px;"/>
          <path d="M162.01,219.2v-1.08h4.41v1.08h-4.41Z" style="fill: #8b6c96; stroke-width: 0px;"/>
          <path d="M172.75,215.03c0,1.13-.5,1.99-1.19,2.87l-2.51,3.21h3.85v1.19h-5.6v-.94l3.15-3.98c.7-.88,1.01-1.46,1.01-2.31,0-1.01-.48-1.57-1.46-1.57-.88,0-1.53.56-1.53,1.82h-1.27c0-1.85,1.09-3.01,2.82-3.01s2.73,1.08,2.73,2.72Z" style="fill: #8b6c96; stroke-width: 0px;"/>
          <path d="M180.55,217.38c0,3.1-1.18,5.1-3.29,5.1s-3.29-2-3.29-5.1,1.16-5.07,3.29-5.07,3.29,1.99,3.29,5.07ZM175.26,217.38c0,2.4.67,3.91,2,3.91s1.99-1.51,1.99-3.91-.67-3.88-1.99-3.88-2,1.5-2,3.88Z" style="fill: #8b6c96; stroke-width: 0px;"/>
          <path d="M187.31,215.03c0,1.13-.5,1.99-1.19,2.87l-2.51,3.21h3.85v1.19h-5.6v-.94l3.15-3.98c.7-.88,1.01-1.46,1.01-2.31,0-1.01-.48-1.57-1.46-1.57-.88,0-1.53.56-1.53,1.82h-1.27c0-1.85,1.09-3.01,2.82-3.01s2.73,1.08,2.73,2.72Z" style="fill: #8b6c96; stroke-width: 0px;"/>
          <path d="M195.11,217.38c0,3.1-1.18,5.1-3.29,5.1s-3.29-2-3.29-5.1,1.16-5.07,3.29-5.07,3.29,1.99,3.29,5.07ZM189.82,217.38c0,2.4.67,3.91,2,3.91s1.99-1.51,1.99-3.91-.67-3.88-1.99-3.88-2,1.5-2,3.88Z" style="fill: #8b6c96; stroke-width: 0px;"/>
        </g>
      </g>
    </g>
    <g id="_2018-2019-2" data-name=" 2018-2019-2" style="isolation: isolate;">
      <g style="isolation: isolate;">
        <g style="isolation: isolate;">
          <path d="M465.78,201.93c0,1.13-.5,1.99-1.19,2.87l-2.51,3.21h3.85v1.19h-5.6v-.94l3.15-3.98c.7-.88,1.01-1.46,1.01-2.31,0-1.01-.48-1.57-1.46-1.57-.88,0-1.53.56-1.53,1.82h-1.28c0-1.85,1.09-3.01,2.82-3.01s2.73,1.08,2.73,2.72Z" style="fill: #d0452b; stroke-width: 0px;"/>
          <path d="M473.58,204.28c0,3.1-1.18,5.1-3.29,5.1s-3.29-2-3.29-5.1,1.16-5.07,3.29-5.07,3.29,1.99,3.29,5.07ZM468.29,204.28c0,2.4.67,3.91,2,3.91s1.99-1.51,1.99-3.91-.67-3.88-1.99-3.88-2,1.5-2,3.88Z" style="fill: #d0452b; stroke-width: 0px;"/>
          <path d="M476.61,209.2v-7.51h-2.06v-1.09c1.43,0,2.12-.24,2.35-1.21h.98v9.81h-1.27Z" style="fill: #d0452b; stroke-width: 0px;"/>
          <path d="M485.55,201.97c0,1.22-.7,1.93-1.21,2.18.63.28,1.51.98,1.51,2.35,0,1.67-1.36,2.87-3.12,2.87s-3.14-1.2-3.14-2.87c0-1.25.73-2.06,1.51-2.35-.52-.27-1.19-.98-1.19-2.18,0-1.53,1.09-2.76,2.82-2.76s2.82,1.23,2.82,2.76ZM480.89,206.48c0,1.09.87,1.72,1.85,1.72s1.83-.63,1.83-1.72-.87-1.75-1.83-1.75-1.85.66-1.85,1.75ZM481.18,202c0,.97.64,1.57,1.56,1.57s1.55-.6,1.55-1.57-.66-1.61-1.55-1.61-1.56.63-1.56,1.61Z" style="fill: #d0452b; stroke-width: 0px;"/>
          <path d="M486.88,206.1v-1.08h4.41v1.08h-4.41Z" style="fill: #d0452b; stroke-width: 0px;"/>
          <path d="M497.62,201.93c0,1.13-.5,1.99-1.19,2.87l-2.51,3.21h3.85v1.19h-5.6v-.94l3.15-3.98c.7-.88,1.01-1.46,1.01-2.31,0-1.01-.48-1.57-1.46-1.57-.88,0-1.53.56-1.53,1.82h-1.28c0-1.85,1.09-3.01,2.82-3.01s2.73,1.08,2.73,2.72Z" style="fill: #d0452b; stroke-width: 0px;"/>
          <path d="M505.42,204.28c0,3.1-1.18,5.1-3.29,5.1s-3.29-2-3.29-5.1,1.16-5.07,3.29-5.07,3.29,1.99,3.29,5.07ZM500.13,204.28c0,2.4.67,3.91,2,3.91s1.99-1.51,1.99-3.91-.67-3.88-1.99-3.88-2,1.5-2,3.88Z" style="fill: #d0452b; stroke-width: 0px;"/>
          <path d="M508.45,209.2v-7.51h-2.06v-1.09c1.43,0,2.12-.24,2.35-1.21h.98v9.81h-1.27Z" style="fill: #d0452b; stroke-width: 0px;"/>
          <path d="M517.72,204.04c0,3.46-1,5.34-3.35,5.34-1.57,0-2.73-1.05-2.8-2.7h1.29c.1,1.06.66,1.51,1.55,1.51,1.29,0,1.98-1.08,2.02-3.73-.35.52-1.12.98-2.04.98-1.92,0-3.03-1.34-3.03-3.07,0-1.82,1.21-3.17,3.07-3.17,1.01,0,1.76.35,2.31.98.79.9.98,2.33.98,3.85ZM516.32,202.38c0-.98-.71-1.99-1.86-1.99-1.08,0-1.79.83-1.79,1.96,0,1.06.71,1.91,1.79,1.91,1.02,0,1.86-.8,1.86-1.88Z" style="fill: #d0452b; stroke-width: 0px;"/>
        </g>
      </g>
    </g>
    <g id="svelte-zo497q-svg">
      <g id="callout-line-svg">
        <path d="M249.96,43.2c5.6-2.3,10.9-5.3,15.9-9.1" style="fill: none; stroke: #647a8e;"/>
      </g>
    </g>
    <g id="svelte-zo497q-svg-2">
      <g id="callout-line-svg-2">
        <path d="M331.08,182.3c-17.7,8.8-29.71,23.5-35.91,44" style="fill: none; stroke: #04284a;"/>
      </g>
    </g>
    <g style="isolation: isolate;">
      <g style="isolation: isolate;">
        <g style="isolation: isolate;">
          <path d="M341.25,174.93c0,1.13-.5,1.99-1.19,2.87l-2.51,3.21h3.85v1.19h-5.6v-.94l3.15-3.98c.7-.88,1.01-1.46,1.01-2.31,0-1.01-.48-1.57-1.46-1.57-.88,0-1.53.56-1.53,1.82h-1.27c0-1.85,1.09-3.01,2.82-3.01s2.73,1.08,2.73,2.72Z" style="fill: #04284a; stroke-width: 0px;"/>
          <path d="M349.05,177.28c0,3.1-1.18,5.1-3.29,5.1s-3.29-2-3.29-5.1,1.16-5.07,3.29-5.07,3.29,1.99,3.29,5.07ZM343.76,177.28c0,2.4.67,3.91,2,3.91s1.99-1.51,1.99-3.91-.67-3.88-1.99-3.88-2,1.5-2,3.88Z" style="fill: #04284a; stroke-width: 0px;"/>
          <path d="M355.82,174.93c0,1.13-.5,1.99-1.19,2.87l-2.51,3.21h3.85v1.19h-5.6v-.94l3.15-3.98c.7-.88,1.01-1.46,1.01-2.31,0-1.01-.48-1.57-1.46-1.57-.88,0-1.53.56-1.53,1.82h-1.27c0-1.85,1.09-3.01,2.82-3.01s2.73,1.08,2.73,2.72Z" style="fill: #04284a; stroke-width: 0px;"/>
          <path d="M362.83,174.97c0,1.25-.71,1.92-1.37,2.14.85.22,1.71,1.02,1.71,2.42,0,1.68-1.22,2.84-3.04,2.84s-3.1-1.09-3.1-3h1.26c.01,1.27.81,1.81,1.86,1.81s1.72-.66,1.72-1.69c0-1.18-.84-1.81-2.31-1.81h-.32v-1.12h.31c1.37,0,1.99-.48,1.99-1.57,0-.97-.5-1.6-1.47-1.6-.85,0-1.55.53-1.55,1.77h-1.27c0-1.82,1.11-2.96,2.82-2.96s2.77,1.22,2.77,2.76Z" style="fill: #04284a; stroke-width: 0px;"/>
        </g>
      </g>
    </g>
    <g id="svelte-zo497q-svg-3">
      <g id="callout-line-svg-3">
        <path d="M377.09,192c-9.8-.2-19.6,2.2-29.51,7.3" style="fill: none; stroke: #857700;"/>
      </g>
    </g>
    <g id="svelte-zo497q-svg-4">
      <g id="callout-line-svg-4">
        <path d="M199.95,211.4c20.5-9.2,40.31-11.9,69.32-5.4" style="fill: none; stroke: #8b6c96;"/>
      </g>
    </g>
    <g id="svelte-zo497q-svg-5">
      <g id="callout-line-svg-5">
        <path d="M459.61,213.2c-4.6,4.1-8.6,9.3-11.8,15.5" style="fill: none; stroke: #f56647;"/>
      </g>
    </g>
    <g id="y-tick-labels-svg_number-axis-svg_grid-y-svg_datawrapper-RtHpC-uu7shf-svg-2" data-name="y-tick-labels-svg number-axis-svg grid-y-svg datawrapper-RtHpC-uu7shf-svg-2">
      <g style="isolation: isolate;">
        <g style="isolation: isolate;">
          <g style="isolation: isolate;">
            <path d="M42.93,247.89v2.84c.32-.2.87-.36,1.6-.36,1.72,0,2.91,1.13,2.91,3.05s-1.15,3.26-3.08,3.26c-1.79,0-3-.97-3-2.86h1.27c.01,1.16.73,1.67,1.74,1.67,1.15,0,1.78-.84,1.78-2.03s-.66-1.9-1.81-1.9c-.71,0-1.23.22-1.57.45h-1.13v-5.31h5.28v1.19h-3.99Z" style="fill: #1a1a1a; stroke-width: 0px;"/>
          </g>
        </g>
      </g>
      <g style="isolation: isolate;">
        <g style="isolation: isolate;">
          <g style="isolation: isolate;">
            <path d="M42.95,173.6v-7.51h-2.06v-1.09c1.43,0,2.11-.24,2.35-1.2h.98v9.81h-1.27Z" style="fill: #1a1a1a; stroke-width: 0px;"/>
            <path d="M52.46,168.68c0,3.1-1.18,5.1-3.29,5.1s-3.29-2-3.29-5.1,1.16-5.07,3.29-5.07,3.29,1.99,3.29,5.07ZM47.16,168.68c0,2.4.67,3.91,2,3.91s1.99-1.51,1.99-3.91-.67-3.88-1.99-3.88-2,1.5-2,3.88Z" style="fill: #1a1a1a; stroke-width: 0px;"/>
          </g>
        </g>
      </g>
      <g style="isolation: isolate;">
        <g style="isolation: isolate;">
          <g style="isolation: isolate;">
            <path d="M42.95,90.7v-7.51h-2.06v-1.09c1.43,0,2.11-.24,2.35-1.2h.98v9.81h-1.27Z" style="fill: #1a1a1a; stroke-width: 0px;"/>
            <path d="M47.69,82.09v2.84c.32-.2.87-.36,1.6-.36,1.72,0,2.91,1.13,2.91,3.05s-1.15,3.26-3.08,3.26c-1.79,0-3-.97-3-2.86h1.27c.01,1.16.73,1.67,1.74,1.67,1.15,0,1.78-.84,1.78-2.03s-.66-1.91-1.81-1.91c-.71,0-1.23.22-1.57.45h-1.13v-5.31h5.28v1.19h-3.99Z" style="fill: #1a1a1a; stroke-width: 0px;"/>
          </g>
        </g>
      </g>
    </g>
    <g style="isolation: isolate;">
      <g style="isolation: isolate;">
        <path d="M313.39,43.36v1.14h-5.4v-9.38h1.22v8.24h4.18Z" style="fill: #1a1a1a; stroke-width: 0px;"/>
        <path d="M320.99,41.12c0,2.05-1.41,3.52-3.42,3.52s-3.43-1.47-3.43-3.52,1.41-3.52,3.43-3.52,3.42,1.47,3.42,3.52ZM315.33,41.12c0,1.39.9,2.45,2.25,2.45s2.21-1.06,2.21-2.45-.87-2.45-2.21-2.45-2.25,1.04-2.25,2.45Z" style="fill: #1a1a1a; stroke-width: 0px;"/>
        <path d="M328,44.5l-1.63-4.82-1.65,4.82h-1.12l-2.14-6.75h1.23l1.41,4.72.13.62.15-.62,1.51-4.72h.99l1.51,4.72.15.62.13-.62,1.41-4.72h1.23l-2.14,6.75h-1.17Z" style="fill: #1a1a1a; stroke-width: 0px;"/>
        <path d="M337.02,44.5l-2.57-6.75h1.23l1.78,4.85.13.51.13-.51,1.78-4.85h1.25l-2.59,6.75h-1.15Z" style="fill: #1a1a1a; stroke-width: 0px;"/>
        <path d="M346.51,40.03v4.47h-1.04l-.05-.92c-.33.6-1.06,1.07-2.05,1.07-1.18,0-1.97-.72-1.97-1.9s.83-1.76,1.89-1.96l2.06-.39v-.33c0-.96-.44-1.39-1.25-1.39-.74,0-1.38.4-1.38,1.23h-1.14c.04-1.3,1.03-2.3,2.52-2.3s2.41.86,2.41,2.42ZM342.55,42.73c0,.54.38.84,1.03.84.56,0,1.06-.24,1.37-.67.23-.31.39-.78.39-1.25v-.25l-1.85.4c-.51.12-.94.32-.94.92Z" style="fill: #1a1a1a; stroke-width: 0px;"/>
        <path d="M354.12,39.85h-1.15c-.27-.75-.96-1.18-1.83-1.18-1.21,0-2.1,1.03-2.1,2.46s.9,2.44,2.13,2.44c.86,0,1.57-.46,1.81-1.18h1.17c-.36,1.47-1.54,2.25-3.01,2.25-1.9,0-3.28-1.47-3.28-3.51s1.38-3.54,3.28-3.54c1.49,0,2.68.78,3,2.25Z" style="fill: #1a1a1a; stroke-width: 0px;"/>
        <path d="M361.36,39.85h-1.15c-.27-.75-.96-1.18-1.84-1.18-1.21,0-2.1,1.03-2.1,2.46s.9,2.44,2.13,2.44c.86,0,1.57-.46,1.81-1.18h1.17c-.36,1.47-1.54,2.25-3.01,2.25-1.9,0-3.28-1.47-3.28-3.51s1.38-3.54,3.28-3.54c1.49,0,2.68.78,3,2.25Z" style="fill: #1a1a1a; stroke-width: 0px;"/>
        <path d="M364.25,35.67c0,.43-.36.78-.8.78s-.79-.35-.79-.78.35-.79.79-.79.8.35.8.79ZM362.87,44.5v-6.75h1.15v6.75h-1.15Z" style="fill: #1a1a1a; stroke-width: 0px;"/>
        <path d="M371.28,40.13v4.37h-1.17v-4.18c0-1.05-.5-1.59-1.31-1.59-.88,0-1.57.78-1.57,2.16v3.62h-1.15v-6.75h1.03l.07.92c.31-.59.95-1.07,1.9-1.07,1.45,0,2.2,1.04,2.2,2.53Z" style="fill: #1a1a1a; stroke-width: 0px;"/>
        <path d="M378.95,41.58h-5.12c.08,1.25.92,2,2.08,2,.9,0,1.55-.39,1.82-1.1h1.15c-.4,1.34-1.45,2.17-3,2.17-1.9,0-3.26-1.38-3.26-3.51s1.29-3.54,3.26-3.54c1.77,0,3.07,1.15,3.07,3.43v.55ZM377.79,40.55c-.01-1.15-.78-1.88-1.9-1.88s-1.92.79-2.05,1.88h3.95Z" style="fill: #1a1a1a; stroke-width: 0px;"/>
        <path d="M388.91,39.85h-1.15c-.27-.75-.96-1.18-1.84-1.18-1.21,0-2.1,1.03-2.1,2.46s.9,2.44,2.13,2.44c.86,0,1.57-.46,1.81-1.18h1.17c-.36,1.47-1.54,2.25-3.01,2.25-1.9,0-3.28-1.47-3.28-3.51s1.38-3.54,3.28-3.54c1.49,0,2.68.78,3,2.25Z" style="fill: #1a1a1a; stroke-width: 0px;"/>
        <path d="M396.71,41.12c0,2.05-1.41,3.52-3.42,3.52s-3.43-1.47-3.43-3.52,1.41-3.52,3.43-3.52,3.42,1.47,3.42,3.52ZM391.06,41.12c0,1.39.9,2.45,2.25,2.45s2.21-1.06,2.21-2.45-.87-2.45-2.21-2.45-2.25,1.04-2.25,2.45Z" style="fill: #1a1a1a; stroke-width: 0px;"/>
        <path d="M399.74,44.5l-2.57-6.75h1.23l1.78,4.85.13.51.13-.51,1.78-4.85h1.25l-2.58,6.75h-1.15Z" style="fill: #1a1a1a; stroke-width: 0px;"/>
        <path d="M410.24,41.58h-5.12c.08,1.25.92,2,2.08,2,.9,0,1.55-.39,1.82-1.1h1.15c-.4,1.34-1.45,2.17-3,2.17-1.9,0-3.26-1.38-3.26-3.51s1.29-3.54,3.26-3.54c1.77,0,3.07,1.15,3.07,3.43v.55ZM409.07,40.55c-.01-1.15-.78-1.88-1.9-1.88s-1.92.79-2.05,1.88h3.95Z" style="fill: #1a1a1a; stroke-width: 0px;"/>
        <path d="M413.58,39.33c-.36.33-.6.86-.62,1.59v3.58h-1.15v-6.75h1.03l.08,1.18c.23-.62.86-1.25,2.02-1.25v1.15c-.54,0-.99.15-1.37.5Z" style="fill: #1a1a1a; stroke-width: 0px;"/>
        <path d="M420.79,40.03v4.47h-1.04l-.05-.92c-.33.6-1.06,1.07-2.05,1.07-1.18,0-1.97-.72-1.97-1.9s.83-1.76,1.89-1.96l2.06-.39v-.33c0-.96-.44-1.39-1.25-1.39-.74,0-1.38.4-1.38,1.23h-1.14c.04-1.3,1.03-2.3,2.52-2.3s2.41.86,2.41,2.42ZM416.83,42.73c0,.54.38.84,1.03.84.56,0,1.06-.24,1.37-.67.23-.31.39-.78.39-1.25v-.25l-1.85.4c-.51.12-.94.32-.94.92Z" style="fill: #1a1a1a; stroke-width: 0px;"/>
        <path d="M428.42,38.77h-1.17c.2.36.32.79.32,1.26,0,1.34-1,2.4-2.57,2.4-.56,0-1.06-.13-1.45-.36-.16.15-.28.38-.28.67,0,.44.35.68.86.68h1.79c1.43,0,2.13.71,2.13,1.83,0,1.43-1.09,2.28-2.81,2.28-1.92,0-2.95-.78-2.95-2.1,0-.64.35-1,.74-1.22-.46-.23-.9-.72-.9-1.41,0-.62.31-1.08.7-1.38-.28-.39-.43-.87-.43-1.39,0-1.39,1.02-2.42,2.6-2.42.35,0,.67.05.96.15h2.45v1.02ZM423.44,45.38c0,.74.67,1.13,1.81,1.13,1.04,0,1.67-.4,1.67-1.21,0-.63-.47-.87-1.22-.87h-1.29c-.51.03-.98.29-.98.95ZM426.44,40.03c0-.8-.55-1.41-1.45-1.41s-1.45.6-1.45,1.41.56,1.38,1.45,1.38,1.45-.6,1.45-1.38Z" style="fill: #1a1a1a; stroke-width: 0px;"/>
        <path d="M435.17,41.58h-5.12c.08,1.25.92,2,2.08,2,.9,0,1.55-.39,1.82-1.1h1.15c-.4,1.34-1.45,2.17-3,2.17-1.9,0-3.26-1.38-3.26-3.51s1.29-3.54,3.26-3.54c1.77,0,3.07,1.15,3.07,3.43v.55ZM434,40.55c-.01-1.15-.78-1.88-1.9-1.88s-1.92.79-2.05,1.88h3.95Z" style="fill: #1a1a1a; stroke-width: 0px;"/>
        <path d="M444.11,40.03v4.47h-1.04l-.05-.92c-.33.6-1.06,1.07-2.05,1.07-1.18,0-1.97-.72-1.97-1.9s.83-1.76,1.89-1.96l2.06-.39v-.33c0-.96-.44-1.39-1.25-1.39-.74,0-1.38.4-1.38,1.23h-1.14c.04-1.3,1.03-2.3,2.52-2.3s2.41.86,2.41,2.42ZM440.15,42.73c0,.54.38.84,1.03.84.56,0,1.06-.24,1.37-.67.23-.31.39-.78.39-1.25v-.25l-1.85.4c-.51.12-.94.32-.94.92Z" style="fill: #1a1a1a; stroke-width: 0px;"/>
        <path d="M451.18,40.13v4.37h-1.17v-4.18c0-1.05-.5-1.59-1.31-1.59-.88,0-1.57.78-1.57,2.16v3.62h-1.15v-6.75h1.03l.07.92c.31-.59.95-1.07,1.9-1.07,1.45,0,2.2,1.04,2.2,2.53Z" style="fill: #1a1a1a; stroke-width: 0px;"/>
        <path d="M458.07,44.5l-.07-.99c-.42.6-1.1,1.14-2.32,1.14-1.9,0-3.15-1.53-3.15-3.52s1.26-3.52,3.16-3.52c1.12,0,1.88.5,2.25,1.07v-3.95h1.15v9.78h-1.03ZM453.73,41.12c0,1.43.84,2.44,2.13,2.44,1.1,0,2.1-.91,2.1-2.37v-.07c0-1.5-1.02-2.42-2.09-2.42-1.26,0-2.14,1-2.14,2.42Z" style="fill: #1a1a1a; stroke-width: 0px;"/>
        <path d="M467.86,44.5l-.07-.92c-.31.64-.92,1.07-1.86,1.07-1.46,0-2.17-1.03-2.17-2.53v-4.37h1.15v4.18c0,1.06.47,1.61,1.29,1.61.87,0,1.54-.74,1.54-2.04v-3.75h1.15v6.75h-1.03Z" style="fill: #1a1a1a; stroke-width: 0px;"/>
        <path d="M476.1,40.13v4.37h-1.17v-4.18c0-1.05-.5-1.59-1.31-1.59-.88,0-1.57.78-1.57,2.16v3.62h-1.15v-6.75h1.03l.07.92c.31-.59.95-1.07,1.9-1.07,1.45,0,2.2,1.04,2.2,2.53Z" style="fill: #1a1a1a; stroke-width: 0px;"/>
        <path d="M482.01,44.5l-.07-.92c-.31.64-.92,1.07-1.86,1.07-1.46,0-2.17-1.03-2.17-2.53v-4.37h1.15v4.18c0,1.06.47,1.61,1.29,1.61.87,0,1.54-.74,1.54-2.04v-3.75h1.15v6.75h-1.03Z" style="fill: #1a1a1a; stroke-width: 0px;"/>
        <path d="M489.19,39.73h-1.18c-.01-.71-.35-1.06-1.07-1.06s-1.03.42-1.03.91c0,.52.27.74,1.27.98,1.61.38,2.21.94,2.21,2.02,0,1.31-1.02,2.06-2.37,2.06-1.57,0-2.44-.88-2.47-2.2h1.18c.01.71.47,1.13,1.31,1.13.78,0,1.17-.39,1.17-.91,0-.56-.29-.83-1.41-1.08-1.41-.32-2.08-.82-2.08-1.93s.78-2.05,2.24-2.05c1.31,0,2.2.86,2.22,2.13Z" style="fill: #1a1a1a; stroke-width: 0px;"/>
        <path d="M494.94,44.5l-.07-.92c-.31.64-.92,1.07-1.86,1.07-1.46,0-2.17-1.03-2.17-2.53v-4.37h1.15v4.18c0,1.06.47,1.61,1.29,1.61.87,0,1.54-.74,1.54-2.04v-3.75h1.15v6.75h-1.03Z" style="fill: #1a1a1a; stroke-width: 0px;"/>
        <path d="M502.7,40.03v4.47h-1.04l-.05-.92c-.33.6-1.06,1.07-2.05,1.07-1.18,0-1.97-.72-1.97-1.9s.83-1.76,1.89-1.96l2.06-.39v-.33c0-.96-.44-1.39-1.25-1.39-.74,0-1.38.4-1.38,1.23h-1.14c.04-1.3,1.03-2.3,2.52-2.3s2.41.86,2.41,2.42ZM498.75,42.73c0,.54.38.84,1.03.84.56,0,1.06-.24,1.37-.67.23-.31.39-.78.39-1.25v-.25l-1.85.4c-.51.12-.94.32-.94.92Z" style="fill: #1a1a1a; stroke-width: 0px;"/>
        <path d="M504.58,44.5v-9.78h1.15v9.78h-1.15Z" style="fill: #1a1a1a; stroke-width: 0px;"/>
        <path d="M507.74,44.5v-9.78h1.15v9.78h-1.15Z" style="fill: #1a1a1a; stroke-width: 0px;"/>
        <path d="M511.51,47.38l1.13-2.97-2.53-6.66h1.23l1.78,4.85.13.51.13-.51,1.78-4.85h1.25l-3.68,9.63h-1.22Z" style="fill: #1a1a1a; stroke-width: 0px;"/>
        <path d="M526.15,41.58h-5.12c.08,1.25.92,2,2.08,2,.9,0,1.55-.39,1.82-1.1h1.15c-.4,1.34-1.45,2.17-3,2.17-1.9,0-3.26-1.38-3.26-3.51s1.29-3.54,3.26-3.54c1.77,0,3.07,1.15,3.07,3.43v.55ZM524.98,40.55c-.01-1.15-.78-1.88-1.9-1.88s-1.92.79-2.05,1.88h3.95Z" style="fill: #1a1a1a; stroke-width: 0px;"/>
        <path d="M532.35,40.03v4.47h-1.04l-.05-.92c-.33.6-1.06,1.07-2.05,1.07-1.18,0-1.97-.72-1.97-1.9s.83-1.76,1.89-1.96l2.06-.39v-.33c0-.96-.44-1.39-1.25-1.39-.74,0-1.38.4-1.38,1.23h-1.14c.04-1.3,1.03-2.3,2.52-2.3s2.41.86,2.41,2.42ZM528.4,42.73c0,.54.38.84,1.03.84.56,0,1.06-.24,1.37-.67.23-.31.39-.78.39-1.25v-.25l-1.85.4c-.51.12-.94.32-.94.92Z" style="fill: #1a1a1a; stroke-width: 0px;"/>
        <path d="M536.08,39.33c-.36.33-.6.86-.62,1.59v3.58h-1.15v-6.75h1.03l.08,1.18c.23-.62.86-1.25,2.02-1.25v1.15c-.54,0-.99.15-1.37.5Z" style="fill: #1a1a1a; stroke-width: 0px;"/>
        <path d="M538.76,44.5v-9.78h1.15v9.78h-1.15Z" style="fill: #1a1a1a; stroke-width: 0px;"/>
        <path d="M542.53,47.38l1.13-2.97-2.53-6.66h1.23l1.78,4.85.13.51.13-.51,1.78-4.85h1.25l-3.68,9.63h-1.22Z" style="fill: #1a1a1a; stroke-width: 0px;"/>
      </g>
      <g style="isolation: isolate;">
        <path d="M309.4,51.67c0,.43-.36.78-.8.78s-.79-.35-.79-.78.35-.79.79-.79.8.35.8.79ZM308.02,60.5v-6.75h1.15v6.75h-1.15Z" style="fill: #1a1a1a; stroke-width: 0px;"/>
        <path d="M316.42,56.13v4.37h-1.17v-4.18c0-1.05-.5-1.59-1.31-1.59-.88,0-1.57.78-1.57,2.16v3.62h-1.15v-6.75h1.03l.07.92c.31-.59.95-1.07,1.9-1.07,1.45,0,2.2,1.04,2.2,2.53Z" style="fill: #1a1a1a; stroke-width: 0px;"/>
        <path d="M321.64,50.76v1.04c-.23-.09-.47-.16-.82-.16-.59,0-.95.35-.95,1.1v1h1.67v1.06h-1.67v5.69h-1.17v-5.69h-1.22v-1.06h1.22v-1.03c0-1.34.74-2.12,2.02-2.12.4,0,.72.08.91.16Z" style="fill: #1a1a1a; stroke-width: 0px;"/>
        <path d="M322.75,60.5v-9.78h1.15v9.78h-1.15Z" style="fill: #1a1a1a; stroke-width: 0px;"/>
        <path d="M329.91,60.5l-.07-.92c-.31.64-.92,1.07-1.86,1.07-1.46,0-2.17-1.03-2.17-2.53v-4.37h1.15v4.18c0,1.06.47,1.61,1.29,1.61.87,0,1.54-.74,1.54-2.04v-3.75h1.15v6.75h-1.03Z" style="fill: #1a1a1a; stroke-width: 0px;"/>
        <path d="M338.73,57.58h-5.12c.08,1.25.92,2,2.08,2,.9,0,1.55-.39,1.82-1.1h1.15c-.4,1.34-1.45,2.17-3,2.17-1.9,0-3.26-1.38-3.26-3.51s1.29-3.54,3.26-3.54c1.77,0,3.07,1.15,3.07,3.43v.55ZM337.57,56.55c-.01-1.15-.78-1.88-1.9-1.88s-1.92.79-2.05,1.88h3.95Z" style="fill: #1a1a1a; stroke-width: 0px;"/>
        <path d="M345.42,56.13v4.37h-1.17v-4.18c0-1.05-.5-1.59-1.31-1.59-.88,0-1.57.78-1.57,2.16v3.62h-1.15v-6.75h1.03l.07.92c.31-.59.95-1.07,1.9-1.07,1.45,0,2.2,1.04,2.2,2.53Z" style="fill: #1a1a1a; stroke-width: 0px;"/>
        <path d="M348.32,59.47h3.8v1.03h-5.35v-.88l3.59-4.84h-3.56v-1.03h5.1v.88l-3.59,4.84Z" style="fill: #1a1a1a; stroke-width: 0px;"/>
        <path d="M358.17,56.03v4.47h-1.04l-.05-.92c-.33.6-1.06,1.07-2.05,1.07-1.18,0-1.97-.72-1.97-1.9s.83-1.76,1.89-1.96l2.06-.39v-.33c0-.96-.44-1.39-1.25-1.39-.74,0-1.38.4-1.38,1.23h-1.14c.04-1.3,1.03-2.3,2.52-2.3s2.41.86,2.41,2.42ZM354.21,58.73c0,.54.38.84,1.03.84.56,0,1.06-.24,1.37-.67.23-.31.39-.78.39-1.25v-.25l-1.85.4c-.51.12-.94.32-.94.92Z" style="fill: #1a1a1a; stroke-width: 0px;"/>
        <path d="M367.49,56.03v4.47h-1.04l-.05-.92c-.33.6-1.06,1.07-2.05,1.07-1.18,0-1.97-.72-1.97-1.9s.83-1.76,1.89-1.96l2.06-.39v-.33c0-.96-.44-1.39-1.25-1.39-.74,0-1.38.4-1.38,1.23h-1.14c.04-1.3,1.03-2.3,2.52-2.3s2.41.86,2.41,2.42ZM363.54,58.73c0,.54.38.84,1.03.84.56,0,1.06-.24,1.37-.67.23-.31.39-.78.39-1.25v-.25l-1.85.4c-.51.12-.94.32-.94.92Z" style="fill: #1a1a1a; stroke-width: 0px;"/>
        <path d="M375.11,55.85h-1.15c-.27-.75-.96-1.18-1.84-1.18-1.21,0-2.1,1.03-2.1,2.46s.9,2.44,2.13,2.44c.86,0,1.57-.46,1.81-1.18h1.17c-.36,1.47-1.54,2.25-3.01,2.25-1.9,0-3.28-1.47-3.28-3.51s1.38-3.54,3.28-3.54c1.49,0,2.68.78,3,2.25Z" style="fill: #1a1a1a; stroke-width: 0px;"/>
        <path d="M379.84,53.75v1.07h-1.74l-.03,3.62c0,.74.19,1.1.96,1.1.38,0,.6-.05.8-.12v1.03c-.2.08-.51.15-1,.15-1.27,0-1.93-.56-1.92-1.94l.03-3.83h-1.26v-1.07h1.26v-1.69h1.18v1.69s1.71,0,1.71,0Z" style="fill: #1a1a1a; stroke-width: 0px;"/>
        <path d="M382.67,51.67c0,.43-.36.78-.8.78s-.79-.35-.79-.78.35-.79.79-.79.8.35.8.79ZM381.29,60.5v-6.75h1.15v6.75h-1.15Z" style="fill: #1a1a1a; stroke-width: 0px;"/>
        <path d="M386.26,60.5l-2.57-6.75h1.23l1.78,4.85.13.51.13-.51,1.78-4.85h1.25l-2.58,6.75h-1.15Z" style="fill: #1a1a1a; stroke-width: 0px;"/>
        <path d="M392.61,51.67c0,.43-.36.78-.8.78s-.79-.35-.79-.78.35-.79.79-.79.8.35.8.79ZM391.23,60.5v-6.75h1.15v6.75h-1.15Z" style="fill: #1a1a1a; stroke-width: 0px;"/>
        <path d="M397.69,53.75v1.07h-1.74l-.03,3.62c0,.74.19,1.1.96,1.1.38,0,.6-.05.8-.12v1.03c-.2.08-.51.15-1,.15-1.27,0-1.93-.56-1.92-1.94l.03-3.83h-1.26v-1.07h1.26v-1.69h1.18v1.69s1.71,0,1.71,0Z" style="fill: #1a1a1a; stroke-width: 0px;"/>
        <path d="M399.7,63.38l1.13-2.97-2.53-6.66h1.23l1.78,4.85.13.51.13-.51,1.78-4.85h1.25l-3.68,9.63h-1.22Z" style="fill: #1a1a1a; stroke-width: 0px;"/>
        <path d="M414.3,55.85h-1.15c-.27-.75-.96-1.18-1.84-1.18-1.21,0-2.1,1.03-2.1,2.46s.9,2.44,2.13,2.44c.86,0,1.57-.46,1.81-1.18h1.17c-.36,1.47-1.54,2.25-3.01,2.25-1.9,0-3.28-1.47-3.28-3.51s1.38-3.54,3.28-3.54c1.49,0,2.68.78,3,2.25Z" style="fill: #1a1a1a; stroke-width: 0px;"/>
        <path d="M422.1,57.12c0,2.05-1.41,3.52-3.42,3.52s-3.43-1.47-3.43-3.52,1.41-3.52,3.43-3.52,3.42,1.47,3.42,3.52ZM416.44,57.12c0,1.39.9,2.45,2.25,2.45s2.21-1.06,2.21-2.45-.87-2.45-2.21-2.45-2.25,1.04-2.25,2.45Z" style="fill: #1a1a1a; stroke-width: 0px;"/>
        <path d="M428.8,56.13v4.37h-1.17v-4.18c0-1.05-.5-1.59-1.31-1.59-.88,0-1.57.78-1.57,2.16v3.62h-1.15v-6.75h1.03l.07.92c.31-.59.95-1.07,1.9-1.07,1.45,0,2.2,1.04,2.2,2.53Z" style="fill: #1a1a1a; stroke-width: 0px;"/>
        <path d="M433.96,53.75v1.07h-1.74l-.03,3.62c0,.74.19,1.1.96,1.1.38,0,.6-.05.8-.12v1.03c-.2.08-.51.15-1,.15-1.27,0-1.93-.56-1.92-1.94l.03-3.83h-1.26v-1.07h1.26v-1.69h1.18v1.69s1.71,0,1.71,0Z" style="fill: #1a1a1a; stroke-width: 0px;"/>
        <path d="M437.22,55.33c-.36.33-.6.86-.62,1.59v3.58h-1.15v-6.75h1.03l.08,1.18c.23-.62.86-1.25,2.02-1.25v1.15c-.54,0-.99.15-1.37.5Z" style="fill: #1a1a1a; stroke-width: 0px;"/>
        <path d="M441.32,51.67c0,.43-.36.78-.8.78s-.79-.35-.79-.78.35-.79.79-.79.8.35.8.79ZM439.94,60.5v-6.75h1.15v6.75h-1.15Z" style="fill: #1a1a1a; stroke-width: 0px;"/>
        <path d="M446.54,53.6c1.9,0,3.16,1.53,3.16,3.52s-1.25,3.52-3.15,3.52c-1.22,0-1.9-.54-2.32-1.14l-.07.99h-1.03v-9.78h1.15v3.95c.38-.58,1.12-1.07,2.25-1.07ZM444.28,57.12v.07c0,1.46,1,2.37,2.1,2.37,1.29,0,2.13-1,2.13-2.44s-.88-2.42-2.14-2.42c-1.07,0-2.09.92-2.09,2.42Z" style="fill: #1a1a1a; stroke-width: 0px;"/>
        <path d="M455.18,60.5l-.07-.92c-.31.64-.92,1.07-1.86,1.07-1.46,0-2.17-1.03-2.17-2.53v-4.37h1.15v4.18c0,1.06.47,1.61,1.29,1.61.87,0,1.54-.74,1.54-2.04v-3.75h1.15v6.75h-1.03Z" style="fill: #1a1a1a; stroke-width: 0px;"/>
        <path d="M461.48,53.75v1.07h-1.74l-.03,3.62c0,.74.19,1.1.96,1.1.38,0,.6-.05.8-.12v1.03c-.2.08-.51.15-1,.15-1.27,0-1.93-.56-1.92-1.94l.03-3.83h-1.26v-1.07h1.26v-1.69h1.18v1.69s1.71,0,1.71,0Z" style="fill: #1a1a1a; stroke-width: 0px;"/>
        <path d="M468.66,57.58h-5.12c.08,1.25.92,2,2.08,2,.9,0,1.55-.39,1.82-1.1h1.15c-.4,1.34-1.45,2.17-3,2.17-1.9,0-3.26-1.38-3.26-3.51s1.29-3.54,3.26-3.54c1.77,0,3.07,1.15,3.07,3.43v.55ZM467.49,56.55c-.01-1.15-.78-1.88-1.9-1.88s-1.92.79-2.05,1.88h3.95Z" style="fill: #1a1a1a; stroke-width: 0px;"/>
        <path d="M475.21,60.5l-.07-.99c-.42.6-1.1,1.14-2.32,1.14-1.9,0-3.15-1.53-3.15-3.52s1.26-3.52,3.16-3.52c1.12,0,1.88.5,2.25,1.07v-3.95h1.15v9.78h-1.03ZM470.87,57.12c0,1.43.84,2.44,2.13,2.44,1.1,0,2.1-.91,2.1-2.37v-.07c0-1.5-1.02-2.42-2.09-2.42-1.26,0-2.14,1-2.14,2.42Z" style="fill: #1a1a1a; stroke-width: 0px;"/>
        <path d="M484.25,53.75v1.07h-1.74l-.03,3.62c0,.74.19,1.1.96,1.1.38,0,.6-.05.8-.12v1.03c-.2.08-.51.15-1,.15-1.27,0-1.93-.56-1.92-1.94l.03-3.83h-1.26v-1.07h1.26v-1.69h1.18v1.69s1.71,0,1.71,0Z" style="fill: #1a1a1a; stroke-width: 0px;"/>
        <path d="M491.95,57.12c0,2.05-1.41,3.52-3.42,3.52s-3.43-1.47-3.43-3.52,1.41-3.52,3.43-3.52,3.42,1.47,3.42,3.52ZM486.3,57.12c0,1.39.9,2.45,2.25,2.45s2.21-1.06,2.21-2.45-.87-2.45-2.21-2.45-2.25,1.04-2.25,2.45Z" style="fill: #1a1a1a; stroke-width: 0px;"/>
        <path d="M499.16,53.6c1.45,0,2.2,1.04,2.2,2.53v4.37h-1.17v-4.18c0-1.05-.5-1.59-1.31-1.59-.88,0-1.57.78-1.57,2.16v3.62h-1.15v-9.78h1.15v3.87c.25-.52.87-.99,1.85-.99Z" style="fill: #1a1a1a; stroke-width: 0px;"/>
        <path d="M504.69,51.67c0,.43-.36.78-.8.78s-.79-.35-.79-.78.35-.79.79-.79.8.35.8.79ZM503.31,60.5v-6.75h1.15v6.75h-1.15Z" style="fill: #1a1a1a; stroke-width: 0px;"/>
        <path d="M512.27,54.77h-1.17c.2.36.32.79.32,1.26,0,1.34-1,2.4-2.57,2.4-.56,0-1.06-.13-1.45-.36-.16.15-.28.38-.28.67,0,.44.35.68.86.68h1.79c1.43,0,2.13.71,2.13,1.83,0,1.43-1.09,2.28-2.81,2.28-1.92,0-2.95-.78-2.95-2.1,0-.64.35-1,.74-1.22-.46-.23-.9-.72-.9-1.41,0-.62.31-1.08.7-1.38-.28-.39-.43-.87-.43-1.39,0-1.39,1.02-2.42,2.6-2.42.35,0,.67.05.96.15h2.45v1.02ZM507.29,61.38c0,.74.67,1.13,1.81,1.13,1.04,0,1.67-.4,1.67-1.21,0-.63-.47-.87-1.22-.87h-1.29c-.51.03-.98.29-.98.95ZM510.29,56.03c0-.8-.55-1.41-1.45-1.41s-1.45.6-1.45,1.41.56,1.38,1.45,1.38,1.45-.6,1.45-1.38Z" style="fill: #1a1a1a; stroke-width: 0px;"/>
        <path d="M516.2,53.6c1.45,0,2.2,1.04,2.2,2.53v4.37h-1.17v-4.18c0-1.05-.5-1.59-1.31-1.59-.88,0-1.57.78-1.57,2.16v3.62h-1.15v-9.78h1.15v3.87c.25-.52.87-.99,1.85-.99Z" style="fill: #1a1a1a; stroke-width: 0px;"/>
        <path d="M528.24,56.13v4.37h-1.17v-4.18c0-1.05-.5-1.59-1.31-1.59-.88,0-1.57.78-1.57,2.16v3.62h-1.15v-6.75h1.03l.07.92c.31-.59.95-1.07,1.9-1.07,1.45,0,2.2,1.04,2.2,2.53Z" style="fill: #1a1a1a; stroke-width: 0px;"/>
        <path d="M534.15,60.5l-.07-.92c-.31.64-.92,1.07-1.86,1.07-1.46,0-2.17-1.03-2.17-2.53v-4.37h1.15v4.18c0,1.06.47,1.61,1.29,1.61.87,0,1.54-.74,1.54-2.04v-3.75h1.15v6.75h-1.03Z" style="fill: #1a1a1a; stroke-width: 0px;"/>
        <path d="M546.35,56.13v4.37h-1.15v-4.18c0-1.05-.48-1.59-1.3-1.59-.88,0-1.55.78-1.55,2.16v3.62h-1.15v-4.18c0-1.05-.48-1.59-1.3-1.59-.88,0-1.55.78-1.55,2.16v3.62h-1.15v-6.75h1.03l.07.92c.31-.59.95-1.07,1.88-1.07,1,0,1.66.5,1.97,1.29.35-.67.99-1.29,2.04-1.29,1.46,0,2.18,1.04,2.18,2.53Z" style="fill: #1a1a1a; stroke-width: 0px;"/>
        <path d="M551.66,53.6c1.9,0,3.16,1.53,3.16,3.52s-1.25,3.52-3.15,3.52c-1.22,0-1.9-.54-2.32-1.14l-.07.99h-1.03v-9.78h1.15v3.95c.38-.58,1.12-1.07,2.25-1.07ZM549.4,57.12v.07c0,1.46,1,2.37,2.1,2.37,1.29,0,2.13-1,2.13-2.44s-.88-2.42-2.14-2.42c-1.07,0-2.09.92-2.09,2.42Z" style="fill: #1a1a1a; stroke-width: 0px;"/>
        <path d="M562.2,57.58h-5.12c.08,1.25.92,2,2.08,2,.9,0,1.55-.39,1.82-1.1h1.15c-.4,1.34-1.45,2.17-3,2.17-1.9,0-3.26-1.38-3.26-3.51s1.29-3.54,3.26-3.54c1.77,0,3.07,1.15,3.07,3.43v.55ZM561.03,56.55c-.01-1.15-.78-1.88-1.9-1.88s-1.92.79-2.05,1.88h3.95Z" style="fill: #1a1a1a; stroke-width: 0px;"/>
        <path d="M565.54,55.33c-.36.33-.6.86-.62,1.59v3.58h-1.15v-6.75h1.03l.08,1.18c.23-.62.86-1.25,2.02-1.25v1.15c-.54,0-.99.15-1.37.5Z" style="fill: #1a1a1a; stroke-width: 0px;"/>
      </g>
      <g style="isolation: isolate;">
        <path d="M314.27,73.22c0,2.05-1.41,3.52-3.42,3.52s-3.43-1.47-3.43-3.52,1.41-3.52,3.43-3.52,3.42,1.47,3.42,3.52ZM308.62,73.22c0,1.39.9,2.45,2.25,2.45s2.21-1.06,2.21-2.45-.87-2.45-2.21-2.45-2.25,1.04-2.25,2.45Z" style="fill: #1a1a1a; stroke-width: 0px;"/>
        <path d="M319.07,66.86v1.04c-.23-.09-.47-.16-.82-.16-.59,0-.95.35-.95,1.1v1h1.67v1.06h-1.67v5.69h-1.17v-5.69h-1.22v-1.06h1.22v-1.03c0-1.34.74-2.12,2.02-2.12.4,0,.72.08.91.16Z" style="fill: #1a1a1a; stroke-width: 0px;"/>
        <path d="M325.91,69.7c1.45,0,2.2,1.04,2.2,2.53v4.37h-1.17v-4.18c0-1.04-.5-1.59-1.31-1.59-.88,0-1.57.78-1.57,2.16v3.62h-1.15v-9.78h1.15v3.87c.25-.52.87-.99,1.85-.99Z" style="fill: #1a1a1a; stroke-width: 0px;"/>
        <path d="M336.31,73.22c0,2.05-1.41,3.52-3.42,3.52s-3.43-1.47-3.43-3.52,1.41-3.52,3.43-3.52,3.42,1.47,3.42,3.52ZM330.65,73.22c0,1.39.9,2.45,2.25,2.45s2.21-1.06,2.21-2.45-.87-2.45-2.21-2.45-2.25,1.04-2.25,2.45Z" style="fill: #1a1a1a; stroke-width: 0px;"/>
        <path d="M341.92,71.83h-1.18c-.01-.71-.35-1.06-1.07-1.06s-1.03.42-1.03.91c0,.52.27.74,1.27.98,1.61.38,2.21.94,2.21,2.02,0,1.31-1.02,2.06-2.37,2.06-1.57,0-2.44-.88-2.46-2.2h1.18c.01.71.47,1.13,1.31,1.13.78,0,1.17-.39,1.17-.91,0-.56-.29-.83-1.41-1.08-1.41-.32-2.08-.82-2.08-1.93s.78-2.05,2.24-2.05c1.31,0,2.2.86,2.22,2.13Z" style="fill: #1a1a1a; stroke-width: 0px;"/>
        <path d="M350.32,73.22c0,2-1.26,3.52-3.16,3.52-1.13,0-1.88-.5-2.24-1.07v3.8h-1.17v-9.63h1.04l.05.99c.42-.6,1.1-1.14,2.32-1.14,1.9,0,3.15,1.53,3.15,3.52ZM344.9,73.16v.07c0,1.5,1.02,2.42,2.09,2.42,1.26,0,2.14-1,2.14-2.42s-.84-2.44-2.13-2.44c-1.1,0-2.1.91-2.1,2.37Z" style="fill: #1a1a1a; stroke-width: 0px;"/>
        <path d="M353.22,67.77c0,.43-.36.78-.8.78s-.79-.35-.79-.78.35-.79.79-.79.8.35.8.79ZM351.84,76.6v-6.75h1.15v6.75h-1.15Z" style="fill: #1a1a1a; stroke-width: 0px;"/>
        <path d="M358.3,69.85v1.07h-1.74l-.03,3.62c0,.74.19,1.1.96,1.1.38,0,.6-.05.8-.12v1.03c-.2.08-.51.15-1,.15-1.27,0-1.93-.56-1.92-1.94l.03-3.83h-1.26v-1.07h1.26v-1.69h1.18v1.69s1.71,0,1.71,0Z" style="fill: #1a1a1a; stroke-width: 0px;"/>
        <path d="M364.43,72.13v4.47h-1.04l-.05-.92c-.33.6-1.06,1.07-2.05,1.07-1.18,0-1.97-.72-1.97-1.9s.83-1.76,1.89-1.96l2.06-.39v-.33c0-.96-.44-1.39-1.25-1.39-.74,0-1.38.4-1.38,1.23h-1.14c.04-1.3,1.03-2.3,2.52-2.3s2.41.86,2.41,2.42ZM360.47,74.83c0,.54.38.84,1.03.84.56,0,1.06-.24,1.37-.67.23-.31.39-.78.39-1.25v-.25l-1.85.4c-.51.12-.94.32-.94.92Z" style="fill: #1a1a1a; stroke-width: 0px;"/>
        <path d="M366.3,76.6v-9.78h1.15v9.78h-1.15Z" style="fill: #1a1a1a; stroke-width: 0px;"/>
        <path d="M370.89,67.77c0,.43-.36.78-.8.78s-.79-.35-.79-.78.35-.79.79-.79.8.35.8.79ZM369.51,76.6v-6.75h1.15v6.75h-1.15Z" style="fill: #1a1a1a; stroke-width: 0px;"/>
        <path d="M373.7,75.57h3.8v1.03h-5.35v-.88l3.59-4.84h-3.56v-1.03h5.1v.88l-3.59,4.84Z" style="fill: #1a1a1a; stroke-width: 0px;"/>
        <path d="M383.55,72.13v4.47h-1.04l-.05-.92c-.33.6-1.06,1.07-2.05,1.07-1.18,0-1.97-.72-1.97-1.9s.83-1.76,1.89-1.96l2.06-.39v-.33c0-.96-.44-1.39-1.25-1.39-.74,0-1.38.4-1.38,1.23h-1.14c.04-1.3,1.03-2.3,2.52-2.3s2.41.86,2.41,2.42ZM379.6,74.83c0,.54.38.84,1.03.84.56,0,1.06-.24,1.37-.67.23-.31.39-.78.39-1.25v-.25l-1.85.4c-.51.12-.94.32-.94.92Z" style="fill: #1a1a1a; stroke-width: 0px;"/>
        <path d="M388.67,69.85v1.07h-1.74l-.03,3.62c0,.74.19,1.1.96,1.1.38,0,.6-.05.8-.12v1.03c-.2.08-.51.15-1,.15-1.27,0-1.93-.56-1.92-1.94l.03-3.83h-1.26v-1.07h1.26v-1.69h1.18v1.69s1.71,0,1.71,0Z" style="fill: #1a1a1a; stroke-width: 0px;"/>
        <path d="M391.5,67.77c0,.43-.36.78-.8.78s-.79-.35-.79-.78.35-.79.79-.79.8.35.8.79ZM390.12,76.6v-6.75h1.15v6.75h-1.15Z" style="fill: #1a1a1a; stroke-width: 0px;"/>
        <path d="M399.62,73.22c0,2.05-1.41,3.52-3.42,3.52s-3.43-1.47-3.43-3.52,1.41-3.52,3.43-3.52,3.42,1.47,3.42,3.52ZM393.97,73.22c0,1.39.9,2.45,2.25,2.45s2.21-1.06,2.21-2.45-.87-2.45-2.21-2.45-2.25,1.04-2.25,2.45Z" style="fill: #1a1a1a; stroke-width: 0px;"/>
        <path d="M406.32,72.23v4.37h-1.17v-4.18c0-1.04-.5-1.59-1.31-1.59-.88,0-1.57.78-1.57,2.16v3.62h-1.15v-6.75h1.03l.07.92c.31-.59.95-1.07,1.9-1.07,1.45,0,2.2,1.04,2.2,2.53Z" style="fill: #1a1a1a; stroke-width: 0px;"/>
        <path d="M412.37,71.83h-1.18c-.01-.71-.35-1.06-1.07-1.06s-1.03.42-1.03.91c0,.52.27.74,1.27.98,1.61.38,2.21.94,2.21,2.02,0,1.31-1.02,2.06-2.37,2.06-1.57,0-2.44-.88-2.47-2.2h1.18c.01.71.47,1.13,1.31,1.13.78,0,1.17-.39,1.17-.91,0-.56-.29-.83-1.41-1.08-1.41-.32-2.08-.82-2.08-1.93s.78-2.05,2.24-2.05c1.31,0,2.2.86,2.22,2.13Z" style="fill: #1a1a1a; stroke-width: 0px;"/>
        <path d="M418.27,67.77c0,.43-.36.78-.8.78s-.79-.35-.79-.78.35-.79.79-.79.8.35.8.79ZM416.89,76.6v-6.75h1.15v6.75h-1.15Z" style="fill: #1a1a1a; stroke-width: 0px;"/>
        <path d="M425.29,72.23v4.37h-1.17v-4.18c0-1.04-.5-1.59-1.31-1.59-.88,0-1.57.78-1.57,2.16v3.62h-1.15v-6.75h1.03l.07.92c.31-.59.95-1.07,1.9-1.07,1.45,0,2.2,1.04,2.2,2.53Z" style="fill: #1a1a1a; stroke-width: 0px;"/>
        <path d="M433.18,69.85v1.07h-1.74l-.03,3.62c0,.74.19,1.1.96,1.1.38,0,.6-.05.8-.12v1.03c-.2.08-.51.15-1,.15-1.27,0-1.93-.56-1.92-1.94l.03-3.83h-1.26v-1.07h1.26v-1.69h1.18v1.69s1.71,0,1.71,0Z" style="fill: #1a1a1a; stroke-width: 0px;"/>
        <path d="M437.59,69.7c1.45,0,2.2,1.04,2.2,2.53v4.37h-1.17v-4.18c0-1.04-.5-1.59-1.31-1.59-.88,0-1.57.78-1.57,2.16v3.62h-1.15v-9.78h1.15v3.87c.25-.52.87-.99,1.85-.99Z" style="fill: #1a1a1a; stroke-width: 0px;"/>
        <path d="M447.47,73.68h-5.12c.08,1.25.92,2,2.08,2,.9,0,1.55-.39,1.82-1.1h1.15c-.4,1.34-1.45,2.17-3,2.17-1.9,0-3.26-1.38-3.26-3.51s1.29-3.54,3.26-3.54c1.77,0,3.07,1.15,3.07,3.43v.55ZM446.3,72.65c-.01-1.15-.78-1.88-1.9-1.88s-1.92.79-2.05,1.88h3.95Z" style="fill: #1a1a1a; stroke-width: 0px;"/>
        <path d="M456.6,69.65c0,1.08-.48,1.9-1.14,2.75l-2.4,3.07h3.68v1.14h-5.36v-.9l3.01-3.81c.67-.84.96-1.39.96-2.21,0-.96-.46-1.5-1.39-1.5-.84,0-1.46.54-1.46,1.74h-1.22c0-1.77,1.04-2.88,2.69-2.88s2.61,1.03,2.61,2.6Z" style="fill: #1a1a1a; stroke-width: 0px;"/>
        <path d="M464.06,71.9c0,2.96-1.13,4.88-3.15,4.88s-3.15-1.92-3.15-4.88,1.11-4.85,3.15-4.85,3.15,1.9,3.15,4.85ZM459,71.9c0,2.29.64,3.74,1.92,3.74s1.9-1.45,1.9-3.74-.64-3.71-1.9-3.71-1.92,1.43-1.92,3.71Z" style="fill: #1a1a1a; stroke-width: 0px;"/>
        <path d="M470.54,69.65c0,1.08-.48,1.9-1.14,2.75l-2.4,3.07h3.68v1.14h-5.36v-.9l3.01-3.81c.67-.84.96-1.39.96-2.21,0-.96-.46-1.5-1.39-1.5-.84,0-1.46.54-1.46,1.74h-1.22c0-1.77,1.04-2.88,2.69-2.88s2.61,1.03,2.61,2.6Z" style="fill: #1a1a1a; stroke-width: 0px;"/>
        <path d="M477.04,69.65c0,1.08-.48,1.9-1.14,2.75l-2.4,3.07h3.68v1.14h-5.36v-.9l3.01-3.81c.67-.84.96-1.39.96-2.21,0-.96-.46-1.5-1.39-1.5-.84,0-1.46.54-1.46,1.74h-1.22c0-1.77,1.04-2.88,2.69-2.88s2.61,1.03,2.61,2.6Z" style="fill: #1a1a1a; stroke-width: 0px;"/>
        <path d="M477.87,73.64v-1.03h4.22v1.03h-4.22Z" style="fill: #1a1a1a; stroke-width: 0px;"/>
        <path d="M488.15,69.65c0,1.08-.48,1.9-1.14,2.75l-2.4,3.07h3.68v1.14h-5.36v-.9l3.01-3.81c.67-.84.96-1.39.96-2.21,0-.96-.46-1.5-1.39-1.5-.84,0-1.46.54-1.46,1.74h-1.22c0-1.77,1.04-2.88,2.69-2.88s2.61,1.03,2.61,2.6Z" style="fill: #1a1a1a; stroke-width: 0px;"/>
        <path d="M495.61,71.9c0,2.96-1.13,4.88-3.15,4.88s-3.15-1.92-3.15-4.88,1.11-4.85,3.15-4.85,3.15,1.9,3.15,4.85ZM490.55,71.9c0,2.29.64,3.74,1.92,3.74s1.9-1.45,1.9-3.74-.64-3.71-1.9-3.71-1.92,1.43-1.92,3.71Z" style="fill: #1a1a1a; stroke-width: 0px;"/>
        <path d="M502.09,69.65c0,1.08-.48,1.9-1.14,2.75l-2.4,3.07h3.68v1.14h-5.36v-.9l3.01-3.81c.67-.84.96-1.39.96-2.21,0-.96-.46-1.5-1.39-1.5-.84,0-1.46.54-1.46,1.74h-1.22c0-1.77,1.04-2.88,2.69-2.88s2.61,1.03,2.61,2.6Z" style="fill: #1a1a1a; stroke-width: 0px;"/>
        <path d="M508.8,69.69c0,1.19-.68,1.84-1.31,2.05.82.21,1.63.98,1.63,2.32,0,1.61-1.17,2.72-2.91,2.72s-2.96-1.04-2.96-2.87h1.21c.01,1.22.78,1.73,1.78,1.73s1.65-.63,1.65-1.62c0-1.13-.8-1.73-2.21-1.73h-.31v-1.07h.29c1.31,0,1.9-.46,1.9-1.5,0-.92-.48-1.53-1.41-1.53-.82,0-1.49.51-1.49,1.69h-1.22c0-1.74,1.06-2.83,2.69-2.83s2.65,1.17,2.65,2.64Z" style="fill: #1a1a1a; stroke-width: 0px;"/>
        <path d="M517.66,71.83h-1.18c-.01-.71-.35-1.06-1.07-1.06s-1.03.42-1.03.91c0,.52.27.74,1.27.98,1.61.38,2.21.94,2.21,2.02,0,1.31-1.02,2.06-2.37,2.06-1.57,0-2.44-.88-2.47-2.2h1.18c.01.71.47,1.13,1.31,1.13.78,0,1.17-.39,1.17-.91,0-.56-.29-.83-1.41-1.08-1.41-.32-2.08-.82-2.08-1.93s.78-2.05,2.24-2.05c1.31,0,2.2.86,2.22,2.13Z" style="fill: #1a1a1a; stroke-width: 0px;"/>
        <path d="M525.18,73.68h-5.12c.08,1.25.92,2,2.08,2,.9,0,1.55-.39,1.82-1.1h1.15c-.4,1.34-1.45,2.17-3,2.17-1.9,0-3.26-1.38-3.26-3.51s1.29-3.54,3.26-3.54c1.77,0,3.07,1.15,3.07,3.43v.55ZM524.01,72.65c-.01-1.15-.78-1.88-1.9-1.88s-1.92.79-2.05,1.88h3.95Z" style="fill: #1a1a1a; stroke-width: 0px;"/>
        <path d="M531.38,72.13v4.47h-1.04l-.05-.92c-.33.6-1.06,1.07-2.05,1.07-1.18,0-1.97-.72-1.97-1.9s.83-1.76,1.89-1.96l2.06-.39v-.33c0-.96-.44-1.39-1.25-1.39-.74,0-1.38.4-1.38,1.23h-1.14c.04-1.3,1.03-2.3,2.52-2.3s2.41.86,2.41,2.42ZM527.43,74.83c0,.54.38.84,1.03.84.56,0,1.06-.24,1.37-.67.23-.31.39-.78.39-1.25v-.25l-1.85.4c-.51.12-.94.32-.94.92Z" style="fill: #1a1a1a; stroke-width: 0px;"/>
        <path d="M537.4,71.83h-1.18c-.01-.71-.35-1.06-1.07-1.06s-1.03.42-1.03.91c0,.52.27.74,1.27.98,1.61.38,2.21.94,2.21,2.02,0,1.31-1.02,2.06-2.37,2.06-1.57,0-2.44-.88-2.47-2.2h1.18c.01.71.47,1.13,1.31,1.13.78,0,1.17-.39,1.17-.91,0-.56-.29-.83-1.41-1.08-1.41-.32-2.08-.82-2.08-1.93s.78-2.05,2.24-2.05c1.31,0,2.2.86,2.22,2.13Z" style="fill: #1a1a1a; stroke-width: 0px;"/>
        <path d="M545.44,73.22c0,2.05-1.41,3.52-3.42,3.52s-3.43-1.47-3.43-3.52,1.41-3.52,3.43-3.52,3.42,1.47,3.42,3.52ZM539.79,73.22c0,1.39.9,2.45,2.25,2.45s2.21-1.06,2.21-2.45-.87-2.45-2.21-2.45-2.25,1.04-2.25,2.45Z" style="fill: #1a1a1a; stroke-width: 0px;"/>
        <path d="M552.15,72.23v4.37h-1.17v-4.18c0-1.04-.5-1.59-1.31-1.59-.88,0-1.57.78-1.57,2.16v3.62h-1.15v-6.75h1.03l.07.92c.31-.59.95-1.07,1.9-1.07,1.45,0,2.2,1.04,2.2,2.53Z" style="fill: #1a1a1a; stroke-width: 0px;"/>
        <path d="M555.16,76c0,.83-.43,1.74-.98,2.36l-.38-.15c.27-.47.4-.96.47-1.51-.42-.04-.72-.33-.72-.78s.35-.79.8-.79.8.33.8.87Z" style="fill: #1a1a1a; stroke-width: 0px;"/>
      </g>
      <g style="isolation: isolate;">
        <path d="M314.63,89.22c0,2-1.26,3.52-3.16,3.52-1.13,0-1.88-.5-2.24-1.07v3.8h-1.17v-9.63h1.04l.05.99c.42-.6,1.1-1.14,2.32-1.14,1.9,0,3.15,1.53,3.15,3.52ZM309.21,89.16v.07c0,1.5,1.02,2.42,2.09,2.42,1.26,0,2.14-1,2.14-2.42s-.84-2.44-2.13-2.44c-1.1,0-2.1.91-2.1,2.37Z" style="fill: #1a1a1a; stroke-width: 0px;"/>
        <path d="M320.83,88.13v4.47h-1.04l-.05-.92c-.33.6-1.06,1.07-2.05,1.07-1.18,0-1.97-.72-1.97-1.9s.83-1.76,1.89-1.96l2.06-.39v-.33c0-.96-.44-1.39-1.25-1.39-.74,0-1.38.4-1.38,1.23h-1.14c.04-1.3,1.03-2.3,2.52-2.3s2.41.86,2.41,2.42ZM316.87,90.83c0,.54.38.84,1.03.84.56,0,1.06-.24,1.37-.67.23-.31.39-.78.39-1.25v-.25l-1.85.4c-.51.12-.94.32-.94.92Z" style="fill: #1a1a1a; stroke-width: 0px;"/>
        <path d="M324.55,87.43c-.36.33-.6.86-.62,1.59v3.58h-1.15v-6.75h1.03l.08,1.18c.23-.62.86-1.25,2.02-1.25v1.15c-.54,0-.99.15-1.37.5Z" style="fill: #1a1a1a; stroke-width: 0px;"/>
        <path d="M330.57,85.85v1.07h-1.74l-.03,3.62c0,.74.19,1.1.96,1.1.38,0,.6-.05.8-.12v1.03c-.2.08-.51.15-1,.15-1.27,0-1.93-.56-1.92-1.94l.03-3.83h-1.26v-1.07h1.26v-1.69h1.18v1.69s1.71,0,1.71,0Z" style="fill: #1a1a1a; stroke-width: 0px;"/>
        <path d="M333.4,83.77c0,.43-.36.78-.8.78s-.79-.35-.79-.78.35-.79.79-.79.8.35.8.79ZM332.02,92.6v-6.75h1.15v6.75h-1.15Z" style="fill: #1a1a1a; stroke-width: 0px;"/>
        <path d="M340.96,87.95h-1.15c-.27-.75-.96-1.18-1.84-1.18-1.21,0-2.1,1.03-2.1,2.46s.9,2.44,2.13,2.44c.86,0,1.57-.46,1.81-1.18h1.17c-.36,1.47-1.54,2.25-3.01,2.25-1.9,0-3.28-1.47-3.28-3.51s1.38-3.54,3.28-3.54c1.49,0,2.68.78,3,2.25Z" style="fill: #1a1a1a; stroke-width: 0px;"/>
        <path d="M346.44,92.6l-.07-.92c-.31.64-.92,1.07-1.86,1.07-1.46,0-2.17-1.03-2.17-2.53v-4.37h1.15v4.18c0,1.06.47,1.61,1.29,1.61.87,0,1.54-.74,1.54-2.04v-3.75h1.15v6.75h-1.03Z" style="fill: #1a1a1a; stroke-width: 0px;"/>
        <path d="M349.48,92.6v-9.78h1.15v9.78h-1.15Z" style="fill: #1a1a1a; stroke-width: 0px;"/>
        <path d="M357.36,88.13v4.47h-1.04l-.05-.92c-.33.6-1.06,1.07-2.05,1.07-1.18,0-1.97-.72-1.97-1.9s.83-1.76,1.89-1.96l2.06-.39v-.33c0-.96-.44-1.39-1.25-1.39-.74,0-1.38.4-1.38,1.23h-1.14c.04-1.3,1.03-2.3,2.52-2.3s2.41.86,2.41,2.42ZM353.41,90.83c0,.54.38.84,1.03.84.56,0,1.06-.24,1.37-.67.23-.31.39-.78.39-1.25v-.25l-1.85.4c-.51.12-.94.32-.94.92Z" style="fill: #1a1a1a; stroke-width: 0px;"/>
        <path d="M361.09,87.43c-.36.33-.6.86-.62,1.59v3.58h-1.15v-6.75h1.03l.08,1.18c.23-.62.86-1.25,2.02-1.25v1.15c-.54,0-.99.15-1.37.5Z" style="fill: #1a1a1a; stroke-width: 0px;"/>
        <path d="M363.77,92.6v-9.78h1.15v9.78h-1.15Z" style="fill: #1a1a1a; stroke-width: 0px;"/>
        <path d="M367.54,95.48l1.13-2.97-2.53-6.66h1.23l1.78,4.85.13.51.13-.51,1.78-4.85h1.25l-3.68,9.63h-1.22Z" style="fill: #1a1a1a; stroke-width: 0px;"/>
        <path d="M381.11,88.13v4.47h-1.04l-.05-.92c-.33.6-1.06,1.07-2.05,1.07-1.18,0-1.97-.72-1.97-1.9s.83-1.76,1.89-1.96l2.06-.39v-.33c0-.96-.44-1.39-1.25-1.39-.74,0-1.38.4-1.38,1.23h-1.14c.04-1.3,1.03-2.3,2.52-2.3s2.41.86,2.41,2.42ZM377.16,90.83c0,.54.38.84,1.03.84.56,0,1.06-.24,1.37-.67.23-.31.39-.78.39-1.25v-.25l-1.85.4c-.51.12-.94.32-.94.92Z" style="fill: #1a1a1a; stroke-width: 0px;"/>
        <path d="M392.16,88.23v4.37h-1.15v-4.18c0-1.04-.48-1.59-1.3-1.59-.88,0-1.55.78-1.55,2.16v3.62h-1.15v-4.18c0-1.04-.48-1.59-1.3-1.59-.88,0-1.55.78-1.55,2.16v3.62h-1.15v-6.75h1.03l.07.92c.31-.59.95-1.07,1.88-1.07,1,0,1.66.5,1.97,1.29.35-.67.99-1.29,2.04-1.29,1.46,0,2.18,1.04,2.18,2.53Z" style="fill: #1a1a1a; stroke-width: 0px;"/>
        <path d="M400.36,89.22c0,2.05-1.41,3.52-3.42,3.52s-3.43-1.47-3.43-3.52,1.41-3.52,3.43-3.52,3.42,1.47,3.42,3.52ZM394.7,89.22c0,1.39.9,2.45,2.25,2.45s2.21-1.06,2.21-2.45-.87-2.45-2.21-2.45-2.25,1.04-2.25,2.45Z" style="fill: #1a1a1a; stroke-width: 0px;"/>
        <path d="M407.06,88.23v4.37h-1.17v-4.18c0-1.04-.5-1.59-1.31-1.59-.88,0-1.57.78-1.57,2.16v3.62h-1.15v-6.75h1.03l.07.92c.31-.59.95-1.07,1.9-1.07,1.45,0,2.2,1.04,2.2,2.53Z" style="fill: #1a1a1a; stroke-width: 0px;"/>
        <path d="M414.73,86.87h-1.17c.2.36.32.79.32,1.26,0,1.34-1,2.4-2.57,2.4-.56,0-1.06-.13-1.45-.36-.16.15-.28.38-.28.67,0,.44.35.68.86.68h1.79c1.43,0,2.13.71,2.13,1.84,0,1.43-1.09,2.28-2.81,2.28-1.92,0-2.95-.78-2.95-2.1,0-.64.35-1,.74-1.22-.46-.23-.9-.72-.9-1.41,0-.62.31-1.08.7-1.38-.28-.39-.43-.87-.43-1.39,0-1.39,1.02-2.42,2.6-2.42.35,0,.67.05.96.15h2.45v1.02ZM409.74,93.48c0,.74.67,1.13,1.81,1.13,1.04,0,1.67-.4,1.67-1.21,0-.63-.47-.87-1.22-.87h-1.29c-.51.03-.98.29-.98.95ZM412.74,88.13c0-.8-.55-1.41-1.45-1.41s-1.45.6-1.45,1.41.56,1.38,1.45,1.38,1.45-.6,1.45-1.38Z" style="fill: #1a1a1a; stroke-width: 0px;"/>
        <path d="M424.12,87.95h-1.15c-.27-.75-.96-1.18-1.84-1.18-1.21,0-2.1,1.03-2.1,2.46s.9,2.44,2.13,2.44c.86,0,1.57-.46,1.81-1.18h1.17c-.36,1.47-1.54,2.25-3.01,2.25-1.9,0-3.28-1.47-3.28-3.51s1.38-3.54,3.28-3.54c1.49,0,2.68.78,3,2.25Z" style="fill: #1a1a1a; stroke-width: 0px;"/>
        <path d="M428.6,85.7c1.45,0,2.2,1.04,2.2,2.53v4.37h-1.17v-4.18c0-1.04-.5-1.59-1.31-1.59-.88,0-1.57.78-1.57,2.16v3.62h-1.15v-9.78h1.15v3.87c.25-.52.87-.99,1.85-.99Z" style="fill: #1a1a1a; stroke-width: 0px;"/>
        <path d="M434.12,83.77c0,.43-.36.78-.8.78s-.79-.35-.79-.78.35-.79.79-.79.8.35.8.79ZM432.74,92.6v-6.75h1.15v6.75h-1.15Z" style="fill: #1a1a1a; stroke-width: 0px;"/>
        <path d="M435.95,92.6v-9.78h1.15v9.78h-1.15Z" style="fill: #1a1a1a; stroke-width: 0px;"/>
        <path d="M444.09,92.6l-.07-.99c-.42.6-1.1,1.14-2.32,1.14-1.9,0-3.15-1.53-3.15-3.52s1.26-3.52,3.16-3.52c1.12,0,1.88.5,2.25,1.07v-3.95h1.15v9.78h-1.03ZM439.75,89.22c0,1.43.84,2.44,2.13,2.44,1.1,0,2.1-.91,2.1-2.37v-.07c0-1.5-1.02-2.42-2.09-2.42-1.26,0-2.14,1-2.14,2.42Z" style="fill: #1a1a1a; stroke-width: 0px;"/>
        <path d="M448.99,87.43c-.36.33-.6.86-.62,1.59v3.58h-1.15v-6.75h1.03l.08,1.18c.23-.62.86-1.25,2.02-1.25v1.15c-.54,0-.99.15-1.37.5Z" style="fill: #1a1a1a; stroke-width: 0px;"/>
        <path d="M457.31,89.68h-5.12c.08,1.25.92,2,2.08,2,.9,0,1.55-.39,1.82-1.1h1.15c-.4,1.34-1.45,2.17-3,2.17-1.9,0-3.26-1.38-3.26-3.51s1.29-3.54,3.26-3.54c1.77,0,3.07,1.15,3.07,3.43v.55ZM456.14,88.65c-.01-1.15-.78-1.88-1.9-1.88s-1.92.79-2.05,1.88h3.95Z" style="fill: #1a1a1a; stroke-width: 0px;"/>
        <path d="M464,88.23v4.37h-1.17v-4.18c0-1.04-.5-1.59-1.31-1.59-.88,0-1.57.78-1.57,2.16v3.62h-1.15v-6.75h1.03l.07.92c.31-.59.95-1.07,1.9-1.07,1.45,0,2.2,1.04,2.2,2.53Z" style="fill: #1a1a1a; stroke-width: 0px;"/>
        <path d="M473.35,88.13v4.47h-1.04l-.05-.92c-.33.6-1.06,1.07-2.05,1.07-1.18,0-1.97-.72-1.97-1.9s.83-1.76,1.89-1.96l2.06-.39v-.33c0-.96-.44-1.39-1.25-1.39-.74,0-1.38.4-1.38,1.23h-1.14c.04-1.3,1.03-2.3,2.52-2.3s2.41.86,2.41,2.42ZM469.4,90.83c0,.54.38.84,1.03.84.56,0,1.06-.24,1.37-.67.23-.31.39-.78.39-1.25v-.25l-1.85.4c-.51.12-.94.32-.94.92Z" style="fill: #1a1a1a; stroke-width: 0px;"/>
        <path d="M480.43,88.23v4.37h-1.17v-4.18c0-1.04-.5-1.59-1.31-1.59-.88,0-1.57.78-1.57,2.16v3.62h-1.15v-6.75h1.03l.07.92c.31-.59.95-1.07,1.9-1.07,1.45,0,2.2,1.04,2.2,2.53Z" style="fill: #1a1a1a; stroke-width: 0px;"/>
        <path d="M487.32,92.6l-.07-.99c-.42.6-1.1,1.14-2.32,1.14-1.9,0-3.15-1.53-3.15-3.52s1.26-3.52,3.16-3.52c1.12,0,1.88.5,2.25,1.07v-3.95h1.15v9.78h-1.03ZM482.98,89.22c0,1.43.84,2.44,2.13,2.44,1.1,0,2.1-.91,2.1-2.37v-.07c0-1.5-1.02-2.42-2.09-2.42-1.26,0-2.14,1-2.14,2.42Z" style="fill: #1a1a1a; stroke-width: 0px;"/>
        <path d="M497.81,88.13v4.47h-1.04l-.05-.92c-.33.6-1.06,1.07-2.05,1.07-1.18,0-1.97-.72-1.97-1.9s.83-1.76,1.89-1.96l2.06-.39v-.33c0-.96-.44-1.39-1.25-1.39-.74,0-1.38.4-1.38,1.23h-1.14c.04-1.3,1.03-2.3,2.52-2.3s2.41.86,2.41,2.42ZM493.86,90.83c0,.54.38.84,1.03.84.56,0,1.06-.24,1.37-.67.23-.31.39-.78.39-1.25v-.25l-1.85.4c-.51.12-.94.32-.94.92Z" style="fill: #1a1a1a; stroke-width: 0px;"/>
        <path d="M504.67,92.6l-.07-.99c-.42.6-1.1,1.14-2.32,1.14-1.9,0-3.15-1.53-3.15-3.52s1.26-3.52,3.16-3.52c1.12,0,1.88.5,2.25,1.07v-3.95h1.15v9.78h-1.03ZM500.33,89.22c0,1.43.84,2.44,2.13,2.44,1.1,0,2.1-.91,2.1-2.37v-.07c0-1.5-1.02-2.42-2.09-2.42-1.26,0-2.14,1-2.14,2.42Z" style="fill: #1a1a1a; stroke-width: 0px;"/>
        <path d="M514.02,89.22c0,2.05-1.41,3.52-3.42,3.52s-3.43-1.47-3.43-3.52,1.41-3.52,3.43-3.52,3.42,1.47,3.42,3.52ZM508.36,89.22c0,1.39.9,2.45,2.25,2.45s2.21-1.06,2.21-2.45-.87-2.45-2.21-2.45-2.25,1.04-2.25,2.45Z" style="fill: #1a1a1a; stroke-width: 0px;"/>
        <path d="M515.49,92.6v-9.78h1.15v9.78h-1.15Z" style="fill: #1a1a1a; stroke-width: 0px;"/>
        <path d="M524.43,89.68h-5.12c.08,1.25.92,2,2.08,2,.9,0,1.55-.39,1.82-1.1h1.15c-.4,1.34-1.45,2.17-3,2.17-1.9,0-3.26-1.38-3.26-3.51s1.29-3.54,3.26-3.54c1.77,0,3.07,1.15,3.07,3.43v.55ZM523.26,88.65c-.01-1.15-.78-1.88-1.9-1.88s-1.92.79-2.05,1.88h3.95Z" style="fill: #1a1a1a; stroke-width: 0px;"/>
        <path d="M530.06,87.83h-1.18c-.01-.71-.35-1.06-1.07-1.06s-1.03.42-1.03.91c0,.52.27.74,1.27.98,1.61.38,2.21.94,2.21,2.02,0,1.31-1.02,2.06-2.37,2.06-1.57,0-2.44-.88-2.47-2.2h1.18c.01.71.47,1.13,1.31,1.13.78,0,1.17-.39,1.17-.91,0-.56-.29-.83-1.41-1.08-1.41-.32-2.08-.82-2.08-1.93s.78-2.05,2.24-2.05c1.31,0,2.2.86,2.22,2.13Z" style="fill: #1a1a1a; stroke-width: 0px;"/>
        <path d="M537.54,87.95h-1.15c-.27-.75-.96-1.18-1.84-1.18-1.21,0-2.1,1.03-2.1,2.46s.9,2.44,2.13,2.44c.86,0,1.57-.46,1.81-1.18h1.17c-.36,1.47-1.54,2.25-3.01,2.25-1.9,0-3.28-1.47-3.28-3.51s1.38-3.54,3.28-3.54c1.49,0,2.68.78,3,2.25Z" style="fill: #1a1a1a; stroke-width: 0px;"/>
        <path d="M544.82,89.68h-5.12c.08,1.25.92,2,2.08,2,.9,0,1.55-.39,1.82-1.1h1.15c-.4,1.34-1.45,2.17-3,2.17-1.9,0-3.26-1.38-3.26-3.51s1.29-3.54,3.26-3.54c1.77,0,3.07,1.15,3.07,3.43v.55ZM543.65,88.65c-.01-1.15-.78-1.88-1.9-1.88s-1.92.79-2.05,1.88h3.95Z" style="fill: #1a1a1a; stroke-width: 0px;"/>
        <path d="M551.5,88.23v4.37h-1.17v-4.18c0-1.04-.5-1.59-1.31-1.59-.88,0-1.57.78-1.57,2.16v3.62h-1.15v-6.75h1.03l.07.92c.31-.59.95-1.07,1.9-1.07,1.45,0,2.2,1.04,2.2,2.53Z" style="fill: #1a1a1a; stroke-width: 0px;"/>
        <path d="M556.66,85.85v1.07h-1.74l-.03,3.62c0,.74.19,1.1.96,1.1.38,0,.6-.05.8-.12v1.03c-.2.08-.51.15-1,.15-1.27,0-1.93-.56-1.92-1.94l.03-3.83h-1.26v-1.07h1.26v-1.69h1.18v1.69s1.71,0,1.71,0Z" style="fill: #1a1a1a; stroke-width: 0px;"/>
        <path d="M562.21,87.83h-1.18c-.01-.71-.35-1.06-1.07-1.06s-1.03.42-1.03.91c0,.52.27.74,1.27.98,1.61.38,2.21.94,2.21,2.02,0,1.31-1.02,2.06-2.37,2.06-1.57,0-2.44-.88-2.47-2.2h1.18c.01.71.47,1.13,1.31,1.13.78,0,1.17-.39,1.17-.91,0-.56-.29-.83-1.41-1.08-1.41-.32-2.08-.82-2.08-1.93s.78-2.05,2.24-2.05c1.31,0,2.2.86,2.22,2.13Z" style="fill: #1a1a1a; stroke-width: 0px;"/>
      </g>
    </g>
  </g>
</svg>