<?xml version="1.0" encoding="UTF-8"?>
<svg id="exportSvg" xmlns="http://www.w3.org/2000/svg" width="800" height="401.3" xmlns:xlink="http://www.w3.org/1999/xlink" viewBox="0 0 800 401.3">
  <defs>
    <clipPath id="clippath">
      <rect x="1.45" width="799.4" height="401.3" style="fill: none; stroke-width: 0px;"/>
    </clipPath>
  </defs>
  <g style="clip-path: url(#clippath);">
    <polygon points="0 0 800.85 1.27 800.85 402.31 0 401.03 0 0" style="fill: #fff; stroke-width: 0px;"/>
    <g style="isolation: isolate;">
      <g style="isolation: isolate;">
        <g style="isolation: isolate;">
          <g style="isolation: isolate;">
            <path d="M17.37,266.48h-4.17v4.22h4.17v1.92H7.56v-1.92h3.84v-4.22h-3.84v-1.92h9.81v1.92Z" style="fill: #1a1a1a; stroke-width: 0px;"/>
            <path d="M13.81,255.7c2.2,0,3.71,1.6,3.71,3.74s-1.51,3.71-3.71,3.71-3.7-1.58-3.7-3.71,1.5-3.74,3.7-3.74ZM13.81,261.28c1.18,0,2.06-.74,2.06-1.85s-.88-1.85-2.06-1.85-2.05.74-2.05,1.85.87,1.85,2.05,1.85Z" style="fill: #1a1a1a; stroke-width: 0px;"/>
            <path d="M12.35,249.46v1.79c-.52.01-.81.27-.81.81s.29.78.7.78c.43,0,.64-.24.83-1.23.28-1.72,1-2.32,2.14-2.32,1.61,0,2.31,1.27,2.31,2.75,0,1.75-.91,2.72-2.31,2.77v-1.79c.57-.01.88-.39.88-1.02,0-.56-.27-.88-.69-.88s-.69.22-.88,1.29c-.27,1.55-.94,2.25-2.12,2.25s-2.3-.85-2.3-2.6c0-1.5.9-2.55,2.24-2.59Z" style="fill: #1a1a1a; stroke-width: 0px;"/>
            <path d="M13.81,240.61c2.09,0,3.71,1.39,3.71,3.31,0,1.02-.42,1.76-.94,2.13h3.8v1.81h-10.11v-1.55l.95-.13c-.57-.41-1.11-1.05-1.11-2.27,0-1.91,1.61-3.29,3.7-3.29ZM13.78,246.09h.08c1.26-.01,1.95-.92,1.95-1.81,0-.99-.78-1.79-2-1.79s-2,.77-2,1.79c0,.9.7,1.81,1.97,1.81Z" style="fill: #1a1a1a; stroke-width: 0px;"/>
            <path d="M8.18,237.2c.62,0,1.08.49,1.08,1.11s-.46,1.09-1.08,1.09-1.08-.49-1.08-1.09.48-1.11,1.08-1.11ZM17.37,239.2h-7.1v-1.81h7.1v1.81Z" style="fill: #1a1a1a; stroke-width: 0px;"/>
            <path d="M10.27,231.62h1.65v1.64l2.89.03c.71,0,1.02-.22,1.02-.94,0-.34-.04-.55-.1-.73h1.58c.08.22.15.57.15,1.13,0,1.55-.63,2.35-2.24,2.34l-3.31-.03v1.16h-1.65v-1.18h-1.72v-1.83l1.72.03v-1.62Z" style="fill: #1a1a1a; stroke-width: 0px;"/>
            <path d="M12.7,224.75h4.66v1.55l-.87.11c.57.38,1.02,1.02,1.02,2.03,0,1.26-.77,2.16-2.04,2.16-1.39,0-1.92-.94-2.13-2.2l-.32-1.83h-.28c-.71,0-1.08.34-1.08,1,0,.6.36,1.08.94,1.08v1.75c-1.44-.08-2.49-1.15-2.49-2.83s.85-2.82,2.59-2.82ZM15.32,228.8c.42,0,.7-.29.7-.84,0-.45-.22-.88-.64-1.13-.24-.15-.59-.25-.94-.25h-.21l.29,1.42c.11.48.32.81.8.81Z" style="fill: #1a1a1a; stroke-width: 0px;"/>
            <path d="M17.37,223.02H7.14v-1.81h10.23v1.81Z" style="fill: #1a1a1a; stroke-width: 0px;"/>
            <path d="M8.18,217.29c.62,0,1.08.49,1.08,1.11s-.46,1.09-1.08,1.09-1.08-.49-1.08-1.09.48-1.11,1.08-1.11ZM17.37,219.29h-7.1v-1.81h7.1v1.81Z" style="fill: #1a1a1a; stroke-width: 0px;"/>
            <path d="M15.78,213.64v-3.4h1.58v5.81h-1.36l-4.16-3.22v3.21h-1.58v-5.62h1.34l4.17,3.22Z" style="fill: #1a1a1a; stroke-width: 0px;"/>
            <path d="M12.7,203.46h4.66v1.55l-.87.11c.57.38,1.02,1.02,1.02,2.03,0,1.26-.77,2.16-2.04,2.16-1.39,0-1.92-.94-2.13-2.2l-.32-1.84h-.28c-.71,0-1.08.34-1.08,1,0,.6.36,1.08.94,1.08v1.75c-1.44-.08-2.49-1.15-2.49-2.83s.85-2.82,2.59-2.82ZM15.32,207.5c.42,0,.7-.29.7-.84,0-.45-.22-.88-.64-1.13-.24-.15-.59-.25-.94-.25h-.21l.29,1.42c.11.48.32.81.8.81Z" style="fill: #1a1a1a; stroke-width: 0px;"/>
            <path d="M10.27,197.89h1.65v1.64l2.89.03c.71,0,1.02-.22,1.02-.94,0-.34-.04-.55-.1-.73h1.58c.08.22.15.57.15,1.13,0,1.55-.63,2.35-2.24,2.34l-3.31-.03v1.16h-1.65v-1.18h-1.72v-1.84l1.72.03v-1.62Z" style="fill: #1a1a1a; stroke-width: 0px;"/>
            <path d="M8.18,194.44c.62,0,1.08.49,1.08,1.11s-.46,1.09-1.08,1.09-1.08-.49-1.08-1.09.48-1.11,1.08-1.11ZM17.37,196.45h-7.1v-1.81h7.1v1.81Z" style="fill: #1a1a1a; stroke-width: 0px;"/>
            <path d="M13.81,185.77c2.2,0,3.71,1.6,3.71,3.74s-1.51,3.71-3.71,3.71-3.7-1.58-3.7-3.71,1.5-3.74,3.7-3.74ZM13.81,191.35c1.18,0,2.06-.74,2.06-1.85s-.88-1.85-2.06-1.85-2.05.74-2.05,1.85.87,1.85,2.05,1.85Z" style="fill: #1a1a1a; stroke-width: 0px;"/>
            <path d="M12.76,178.42h4.61v1.81h-4.22c-.83,0-1.28.35-1.28,1.04s.55,1.25,1.74,1.25h3.75v1.81h-7.1v-1.55l.92-.13c-.59-.32-1.08-.98-1.08-1.92,0-1.51,1.04-2.3,2.65-2.3Z" style="fill: #1a1a1a; stroke-width: 0px;"/>
            <path d="M12.44,171.47c.25.34.67.56,1.3.57h3.63v1.82h-7.1v-1.57l1.13-.15c-.62-.25-1.21-.87-1.21-2.09h1.81c0,.57.1,1.01.43,1.41Z" style="fill: #1a1a1a; stroke-width: 0px;"/>
            <path d="M12.7,163.47h4.66v1.55l-.87.11c.57.38,1.02,1.02,1.02,2.03,0,1.26-.77,2.16-2.04,2.16-1.39,0-1.92-.94-2.13-2.2l-.32-1.83h-.28c-.71,0-1.08.34-1.08.99,0,.6.36,1.08.94,1.08v1.75c-1.44-.08-2.49-1.15-2.49-2.83s.85-2.82,2.59-2.82ZM15.32,167.52c.42,0,.7-.29.7-.84,0-.45-.22-.88-.64-1.13-.24-.15-.59-.25-.94-.25h-.21l.29,1.42c.11.48.32.81.8.81Z" style="fill: #1a1a1a; stroke-width: 0px;"/>
            <path d="M10.27,157.9h1.65v1.64l2.89.03c.71,0,1.02-.22,1.02-.94,0-.34-.04-.55-.1-.73h1.58c.08.22.15.57.15,1.13,0,1.55-.63,2.35-2.24,2.34l-3.31-.03v1.16h-1.65v-1.18h-1.72v-1.83l1.72.03v-1.62Z" style="fill: #1a1a1a; stroke-width: 0px;"/>
            <path d="M14.37,150.16v4.94c.94-.06,1.6-.7,1.6-1.69,0-.71-.28-1.25-.83-1.44v-1.77c1.5.43,2.38,1.54,2.38,3.25,0,2.1-1.46,3.53-3.7,3.53s-3.71-1.41-3.71-3.53c0-1.88,1.19-3.29,3.68-3.29h.57ZM13.12,151.98c-.92.03-1.51.62-1.51,1.51s.63,1.53,1.51,1.61v-3.12Z" style="fill: #1a1a1a; stroke-width: 0px;"/>
            <path d="M13.81,138.72c2.09,0,3.71,1.39,3.71,3.31,0,1.02-.42,1.77-.94,2.13h3.8v1.81h-10.11v-1.55l.95-.13c-.57-.41-1.11-1.05-1.11-2.27,0-1.9,1.61-3.29,3.7-3.29ZM13.78,144.2h.08c1.26-.01,1.95-.92,1.95-1.81,0-.99-.78-1.79-2-1.79s-2,.77-2,1.79c0,.9.7,1.81,1.97,1.81Z" style="fill: #1a1a1a; stroke-width: 0px;"/>
            <path d="M14.37,130.91v4.94c.94-.06,1.6-.7,1.6-1.69,0-.71-.28-1.25-.83-1.44v-1.77c1.5.43,2.38,1.54,2.38,3.25,0,2.1-1.46,3.53-3.7,3.53s-3.71-1.41-3.71-3.53c0-1.88,1.19-3.29,3.68-3.29h.57ZM13.12,132.73c-.92.03-1.51.62-1.51,1.51s.63,1.53,1.51,1.61v-3.12Z" style="fill: #1a1a1a; stroke-width: 0px;"/>
            <path d="M12.44,127.06c.25.34.67.56,1.3.57h3.63v1.82h-7.1v-1.57l1.13-.15c-.62-.25-1.21-.87-1.21-2.09h1.81c0,.57.1,1.01.43,1.41Z" style="fill: #1a1a1a; stroke-width: 0px;"/>
            <path d="M17.37,120.09h-6.81v2.06h-1.62c0-1.51-.32-2.31-1.37-2.58v-1.4h9.81v1.92Z" style="fill: #1a1a1a; stroke-width: 0px;"/>
            <path d="M12.45,109.76c3.14,0,5.1,1.23,5.1,3.47s-1.96,3.47-5.1,3.47-5.07-1.23-5.07-3.47,1.95-3.47,5.07-3.47ZM12.45,114.77c2.09,0,3.31-.52,3.31-1.54s-1.22-1.54-3.31-1.54-3.28.5-3.28,1.54,1.2,1.54,3.28,1.54Z" style="fill: #1a1a1a; stroke-width: 0px;"/>
            <path d="M12.45,101.78c3.14,0,5.1,1.23,5.1,3.47s-1.96,3.47-5.1,3.47-5.07-1.23-5.07-3.47,1.95-3.47,5.07-3.47ZM12.45,106.79c2.09,0,3.31-.52,3.31-1.54s-1.22-1.54-3.31-1.54-3.28.5-3.28,1.54,1.2,1.54,3.28,1.54Z" style="fill: #1a1a1a; stroke-width: 0px;"/>
            <path d="M16.54,98.78c.94,0,1.97.53,2.69,1.16l-.2.52c-.49-.24-.98-.36-1.6-.42-.06.53-.46.92-1.01.92-.6,0-1.06-.48-1.06-1.09s.45-1.09,1.18-1.09Z" style="fill: #1a1a1a; stroke-width: 0px;"/>
            <path d="M12.45,91.02c3.14,0,5.1,1.23,5.1,3.47s-1.96,3.47-5.1,3.47-5.07-1.23-5.07-3.47,1.95-3.47,5.07-3.47ZM12.45,96.04c2.09,0,3.31-.52,3.31-1.54s-1.22-1.54-3.31-1.54-3.28.5-3.28,1.54,1.2,1.54,3.28,1.54Z" style="fill: #1a1a1a; stroke-width: 0px;"/>
            <path d="M12.45,83.04c3.14,0,5.1,1.23,5.1,3.47s-1.96,3.47-5.1,3.47-5.07-1.23-5.07-3.47,1.95-3.47,5.07-3.47ZM12.45,88.06c2.09,0,3.31-.52,3.31-1.54s-1.22-1.54-3.31-1.54-3.28.5-3.28,1.54,1.2,1.54,3.28,1.54Z" style="fill: #1a1a1a; stroke-width: 0px;"/>
            <path d="M12.45,75.06c3.14,0,5.1,1.23,5.1,3.47s-1.96,3.47-5.1,3.47-5.07-1.23-5.07-3.47,1.95-3.47,5.07-3.47ZM12.45,80.08c2.09,0,3.31-.52,3.31-1.54s-1.22-1.54-3.31-1.54-3.28.5-3.28,1.54,1.2,1.54,3.28,1.54Z" style="fill: #1a1a1a; stroke-width: 0px;"/>
          </g>
        </g>
      </g>
    </g>
    <g id="footer-svg">
      <g style="isolation: isolate;">
        <g style="isolation: isolate;">
          <g style="isolation: isolate;">
            <g style="isolation: isolate;">
              <path d="M12.73,392.97h-1.31c-.38-1.05-1.24-1.77-2.73-1.77-1.92,0-3.26,1.53-3.26,3.61s1.34,3.61,3.28,3.61c1.51,0,2.41-.77,2.77-1.81h1.27c-.51,1.83-1.9,2.91-4.04,2.91-2.64,0-4.51-2.01-4.51-4.72s1.87-4.72,4.5-4.72c2.15,0,3.54,1.12,4.04,2.87Z" style="fill: #767676; stroke-width: 0px;"/>
              <path d="M17.01,392.67c1.4,0,2.13,1.01,2.13,2.46v4.24h-1.13v-4.06c0-1.01-.48-1.55-1.27-1.55-.86,0-1.52.75-1.52,2.09v3.51h-1.12v-9.49h1.12v3.76c.25-.51.84-.96,1.79-.96Z" style="fill: #767676; stroke-width: 0px;"/>
              <path d="M25.56,395.03v4.34h-1.01l-.05-.9c-.33.58-1.03,1.04-1.99,1.04-1.14,0-1.91-.7-1.91-1.85s.81-1.7,1.83-1.9l2-.38v-.32c0-.94-.43-1.35-1.21-1.35-.71,0-1.34.39-1.34,1.2h-1.1c.04-1.26,1-2.24,2.44-2.24s2.34.83,2.34,2.35ZM21.73,397.65c0,.52.36.82,1,.82.55,0,1.03-.23,1.33-.65.22-.3.38-.75.38-1.21v-.25l-1.79.39c-.49.12-.91.31-.91.9Z" style="fill: #767676; stroke-width: 0px;"/>
              <path d="M29.18,394.35c-.35.33-.58.83-.6,1.55v3.47h-1.12v-6.55h1l.08,1.14c.22-.6.83-1.21,1.96-1.21v1.12c-.52,0-.96.14-1.33.48Z" style="fill: #767676; stroke-width: 0px;"/>
              <path d="M35.01,392.82v1.04h-1.69l-.03,3.51c0,.71.18,1.07.94,1.07.36,0,.58-.05.78-.12v1c-.2.08-.49.14-.98.14-1.23,0-1.87-.55-1.86-1.88l.03-3.72h-1.22v-1.04h1.22v-1.64h1.14v1.64s1.66,0,1.66,0Z" style="fill: #767676; stroke-width: 0px;"/>
              <path d="M37.61,393.49c0,.46-.36.81-.82.81s-.82-.35-.82-.81.35-.82.82-.82.82.35.82.82ZM37.61,398.71c0,.46-.36.81-.82.81s-.82-.35-.82-.81.35-.81.82-.81.82.34.82.81Z" style="fill: #767676; stroke-width: 0px;"/>
            </g>
          </g>
        </g>
        <g style="isolation: isolate;">
          <g style="isolation: isolate;">
            <g style="isolation: isolate;">
              <path d="M56.93,392.97h-1.31c-.38-1.05-1.24-1.77-2.73-1.77-1.92,0-3.26,1.53-3.26,3.61s1.34,3.61,3.28,3.61c1.51,0,2.41-.77,2.77-1.81h1.27c-.51,1.83-1.9,2.91-4.04,2.91-2.64,0-4.51-2.01-4.51-4.72s1.87-4.72,4.5-4.72c2.15,0,3.54,1.12,4.04,2.87Z" style="fill: #767676; stroke-width: 0px;"/>
              <path d="M59.51,391.37v2.87h3.16v1.12h-3.16v4h-1.18v-9.1h4.9v1.11h-3.72Z" style="fill: #767676; stroke-width: 0px;"/>
              <path d="M69.05,399.37l-1.99-3.69h-1.33v3.69h-1.18v-9.1h2.48c1.82,0,2.98,1.09,2.98,2.74,0,1.2-.64,2.09-1.72,2.47l2.11,3.89h-1.35ZM65.73,394.61h1.3c1.05,0,1.78-.57,1.78-1.6s-.71-1.64-1.78-1.64h-1.3v3.24Z" style="fill: #767676; stroke-width: 0px;"/>
              <path d="M70.7,399.37l3.84-9.1h1.1l-3.83,9.1h-1.11Z" style="fill: #767676; stroke-width: 0px;"/>
              <path d="M82.85,399.37l-.96-2.41h-4.02l-.95,2.41h-1.3l3.65-9.1h1.22l3.65,9.1h-1.3ZM78.28,395.86h3.21l-1.44-3.58-.17-.49-.17.49-1.43,3.58Z" style="fill: #767676; stroke-width: 0px;"/>
              <path d="M85.35,399.37v-9.49h1.12v9.49h-1.12Z" style="fill: #767676; stroke-width: 0px;"/>
              <path d="M88.42,399.37v-9.49h1.12v9.49h-1.12Z" style="fill: #767676; stroke-width: 0px;"/>
              <path d="M92.86,390.8c0,.42-.35.75-.78.75s-.77-.34-.77-.75.34-.77.77-.77.78.34.78.77ZM91.53,399.37v-6.55h1.12v6.55h-1.12Z" style="fill: #767676; stroke-width: 0px;"/>
              <path d="M98.65,394.74h-1.14c-.01-.69-.34-1.03-1.04-1.03s-1,.4-1,.88c0,.51.26.71,1.23.95,1.56.36,2.15.91,2.15,1.96,0,1.27-.99,2-2.3,2-1.52,0-2.37-.86-2.39-2.13h1.14c.01.69.46,1.09,1.27,1.09.75,0,1.13-.38,1.13-.88,0-.55-.29-.81-1.36-1.05-1.37-.31-2.02-.79-2.02-1.87s.75-1.99,2.17-1.99c1.27,0,2.13.83,2.16,2.07Z" style="fill: #767676; stroke-width: 0px;"/>
              <path d="M106.45,396.09c0,1.99-1.37,3.42-3.32,3.42s-3.33-1.43-3.33-3.42,1.37-3.42,3.33-3.42,3.32,1.43,3.32,3.42ZM100.96,396.09c0,1.35.87,2.38,2.18,2.38s2.15-1.03,2.15-2.38-.85-2.38-2.15-2.38-2.18,1.01-2.18,2.38Z" style="fill: #767676; stroke-width: 0px;"/>
              <path d="M112.95,395.13v4.24h-1.13v-4.06c0-1.01-.48-1.55-1.27-1.55-.86,0-1.52.75-1.52,2.09v3.51h-1.12v-6.55h1l.06.9c.3-.57.92-1.04,1.85-1.04,1.4,0,2.13,1.01,2.13,2.46Z" style="fill: #767676; stroke-width: 0px;"/>
              <path d="M124.92,399.37h-1.5l-3.12-4.12-1.57,1.91v2.21h-1.18v-9.1h1.18v5.15l4.04-5.15h1.48l-3.19,4.04,3.85,5.06Z" style="fill: #767676; stroke-width: 0px;"/>
              <path d="M127.8,394.35c-.35.33-.58.83-.6,1.55v3.47h-1.12v-6.55h1l.08,1.14c.22-.6.83-1.21,1.96-1.21v1.12c-.52,0-.96.14-1.33.48Z" style="fill: #767676; stroke-width: 0px;"/>
              <path d="M134.28,399.37l-.06-.9c-.3.62-.9,1.04-1.81,1.04-1.42,0-2.11-1-2.11-2.46v-4.24h1.12v4.06c0,1.03.46,1.56,1.25,1.56.85,0,1.5-.72,1.5-1.98v-3.64h1.12v6.55h-1Z" style="fill: #767676; stroke-width: 0px;"/>
              <path d="M142.82,393.8h-1.13c.2.35.31.77.31,1.22,0,1.3-.98,2.33-2.5,2.33-.55,0-1.03-.13-1.4-.35-.16.14-.27.36-.27.65,0,.43.34.66.83.66h1.74c1.39,0,2.07.69,2.07,1.78,0,1.39-1.05,2.21-2.73,2.21-1.86,0-2.86-.75-2.86-2.04,0-.62.34-.98.71-1.18-.44-.22-.87-.7-.87-1.37,0-.6.3-1.05.68-1.34-.27-.38-.42-.84-.42-1.35,0-1.35.99-2.35,2.52-2.35.34,0,.65.05.94.14h2.38v.99ZM137.99,400.23c0,.71.65,1.09,1.75,1.09,1.01,0,1.63-.39,1.63-1.17,0-.61-.46-.85-1.18-.85h-1.25c-.49.03-.95.29-.95.92ZM140.9,395.03c0-.78-.53-1.37-1.4-1.37s-1.4.58-1.4,1.37.55,1.34,1.4,1.34,1.4-.58,1.4-1.34Z" style="fill: #767676; stroke-width: 0px;"/>
              <path d="M152.61,395.13v4.24h-1.12v-4.06c0-1.01-.47-1.55-1.26-1.55-.86,0-1.51.75-1.51,2.09v3.51h-1.12v-4.06c0-1.01-.47-1.55-1.26-1.55-.86,0-1.51.75-1.51,2.09v3.51h-1.12v-6.55h1l.06.9c.3-.57.92-1.04,1.82-1.04.97,0,1.61.48,1.91,1.25.34-.65.96-1.25,1.98-1.25,1.42,0,2.12,1.01,2.12,2.46Z" style="fill: #767676; stroke-width: 0px;"/>
              <path d="M159.03,395.03v4.34h-1.01l-.05-.9c-.33.58-1.03,1.04-1.99,1.04-1.14,0-1.91-.7-1.91-1.85s.81-1.7,1.83-1.9l2-.38v-.32c0-.94-.43-1.35-1.21-1.35-.71,0-1.34.39-1.34,1.2h-1.1c.04-1.26,1-2.24,2.44-2.24s2.34.83,2.34,2.35ZM155.2,397.65c0,.52.36.82,1,.82.55,0,1.03-.23,1.33-.65.22-.3.38-.75.38-1.21v-.25l-1.79.39c-.49.12-.91.31-.91.9Z" style="fill: #767676; stroke-width: 0px;"/>
              <path d="M165.9,395.13v4.24h-1.13v-4.06c0-1.01-.48-1.55-1.27-1.55-.86,0-1.52.75-1.52,2.09v3.51h-1.12v-6.55h1l.06.9c.3-.57.92-1.04,1.85-1.04,1.4,0,2.13,1.01,2.13,2.46Z" style="fill: #767676; stroke-width: 0px;"/>
              <path d="M173.55,396c0,1.04-.81,1.83-1.85,1.83s-1.83-.79-1.83-1.83.79-1.85,1.83-1.85,1.85.81,1.85,1.85Z" style="fill: #767676; stroke-width: 0px;"/>
              <path d="M182.73,392.67h-1.2c-.01-.97-.62-1.51-1.49-1.51s-1.4.51-1.4,1.38.57,1.18,1.81,1.68c1.83.68,2.57,1.34,2.57,2.68,0,1.66-1.17,2.64-2.82,2.64-1.92,0-2.99-1.16-3.02-2.85h1.2c.03,1.16.69,1.79,1.83,1.79,1.07,0,1.61-.65,1.61-1.51,0-.78-.55-1.2-1.91-1.68-1.55-.57-2.47-1.2-2.47-2.67s.94-2.54,2.63-2.54c1.59,0,2.63.88,2.67,2.57Z" style="fill: #767676; stroke-width: 0px;"/>
              <path d="M190.58,396.09c0,1.99-1.37,3.42-3.32,3.42s-3.33-1.43-3.33-3.42,1.37-3.42,3.33-3.42,3.32,1.43,3.32,3.42ZM185.1,396.09c0,1.35.87,2.38,2.18,2.38s2.15-1.03,2.15-2.38-.85-2.38-2.15-2.38-2.18,1.01-2.18,2.38Z" style="fill: #767676; stroke-width: 0px;"/>
              <path d="M195.9,399.37l-.06-.9c-.3.62-.9,1.04-1.81,1.04-1.42,0-2.11-1-2.11-2.46v-4.24h1.12v4.06c0,1.03.46,1.56,1.25,1.56.85,0,1.5-.72,1.5-1.98v-3.64h1.12v6.55h-1Z" style="fill: #767676; stroke-width: 0px;"/>
              <path d="M200.65,394.35c-.35.33-.58.83-.6,1.55v3.47h-1.12v-6.55h1l.08,1.14c.22-.6.83-1.21,1.96-1.21v1.12c-.52,0-.96.14-1.33.48Z" style="fill: #767676; stroke-width: 0px;"/>
              <path d="M208.68,394.86h-1.12c-.26-.73-.94-1.14-1.78-1.14-1.17,0-2.04,1-2.04,2.39s.87,2.37,2.07,2.37c.83,0,1.52-.44,1.76-1.14h1.13c-.35,1.43-1.5,2.18-2.93,2.18-1.85,0-3.19-1.43-3.19-3.41s1.34-3.43,3.19-3.43c1.44,0,2.6.75,2.91,2.18Z" style="fill: #767676; stroke-width: 0px;"/>
              <path d="M215.74,396.54h-4.97c.08,1.21.9,1.94,2.01,1.94.87,0,1.51-.38,1.77-1.07h1.12c-.39,1.3-1.4,2.11-2.91,2.11-1.85,0-3.16-1.34-3.16-3.41s1.25-3.43,3.16-3.43c1.72,0,2.98,1.12,2.98,3.33v.53ZM214.61,395.53c-.01-1.12-.75-1.82-1.85-1.82s-1.86.77-1.99,1.82h3.83Z" style="fill: #767676; stroke-width: 0px;"/>
              <path d="M218.33,393.49c0,.46-.36.81-.82.81s-.82-.35-.82-.81.35-.82.82-.82.82.35.82.82ZM218.33,398.71c0,.46-.36.81-.82.81s-.82-.35-.82-.81.35-.81.82-.81.82.34.82.81Z" style="fill: #767676; stroke-width: 0px;"/>
              <path d="M227.69,398.26v1.11h-5.24v-9.1h1.18v8h4.06Z" style="fill: #767676; stroke-width: 0px;"/>
              <path d="M235.06,396.09c0,1.99-1.37,3.42-3.32,3.42s-3.33-1.43-3.33-3.42,1.37-3.42,3.33-3.42,3.32,1.43,3.32,3.42ZM229.57,396.09c0,1.35.87,2.38,2.18,2.38s2.15-1.03,2.15-2.38-.85-2.38-2.15-2.38-2.18,1.01-2.18,2.38Z" style="fill: #767676; stroke-width: 0px;"/>
              <path d="M241.56,395.13v4.24h-1.13v-4.06c0-1.01-.48-1.55-1.27-1.55-.86,0-1.52.75-1.52,2.09v3.51h-1.12v-6.55h1l.06.9c.3-.57.92-1.04,1.85-1.04,1.4,0,2.13,1.01,2.13,2.46Z" style="fill: #767676; stroke-width: 0px;"/>
              <path d="M248.24,399.37l-.06-.96c-.4.58-1.07,1.1-2.25,1.1-1.85,0-3.06-1.48-3.06-3.42s1.22-3.42,3.07-3.42c1.09,0,1.82.48,2.18,1.04v-3.83h1.12v9.49h-1ZM244.03,396.09c0,1.39.82,2.37,2.07,2.37,1.07,0,2.04-.88,2.04-2.3v-.07c0-1.46-.99-2.35-2.03-2.35-1.22,0-2.08.97-2.08,2.35Z" style="fill: #767676; stroke-width: 0px;"/>
              <path d="M257.3,396.09c0,1.99-1.37,3.42-3.32,3.42s-3.33-1.43-3.33-3.42,1.37-3.42,3.33-3.42,3.32,1.43,3.32,3.42ZM251.81,396.09c0,1.35.87,2.38,2.18,2.38s2.15-1.03,2.15-2.38-.85-2.38-2.15-2.38-2.18,1.01-2.18,2.38Z" style="fill: #767676; stroke-width: 0px;"/>
              <path d="M263.8,395.13v4.24h-1.13v-4.06c0-1.01-.48-1.55-1.27-1.55-.86,0-1.52.75-1.52,2.09v3.51h-1.12v-6.55h1l.06.9c.3-.57.92-1.04,1.85-1.04,1.4,0,2.13,1.01,2.13,2.46Z" style="fill: #767676; stroke-width: 0px;"/>
              <path d="M273.39,392.67h-1.2c-.01-.97-.62-1.51-1.5-1.51s-1.4.51-1.4,1.38.57,1.18,1.81,1.68c1.83.68,2.57,1.34,2.57,2.68,0,1.66-1.17,2.64-2.82,2.64-1.92,0-2.99-1.16-3.02-2.85h1.2c.03,1.16.69,1.79,1.83,1.79,1.07,0,1.61-.65,1.61-1.51,0-.78-.55-1.2-1.91-1.68-1.55-.57-2.47-1.2-2.47-2.67s.94-2.54,2.63-2.54c1.59,0,2.63.88,2.67,2.57Z" style="fill: #767676; stroke-width: 0px;"/>
              <path d="M280.7,394.86h-1.12c-.26-.73-.94-1.14-1.78-1.14-1.17,0-2.04,1-2.04,2.39s.87,2.37,2.07,2.37c.83,0,1.52-.44,1.76-1.14h1.13c-.35,1.43-1.5,2.18-2.93,2.18-1.85,0-3.19-1.43-3.19-3.41s1.34-3.43,3.19-3.43c1.44,0,2.6.75,2.91,2.18Z" style="fill: #767676; stroke-width: 0px;"/>
              <path d="M285.04,392.67c1.4,0,2.13,1.01,2.13,2.46v4.24h-1.13v-4.06c0-1.01-.48-1.55-1.27-1.55-.86,0-1.52.75-1.52,2.09v3.51h-1.12v-9.49h1.12v3.76c.25-.51.84-.96,1.79-.96Z" style="fill: #767676; stroke-width: 0px;"/>
              <path d="M295.13,396.09c0,1.99-1.37,3.42-3.32,3.42s-3.33-1.43-3.33-3.42,1.37-3.42,3.33-3.42,3.32,1.43,3.32,3.42ZM289.64,396.09c0,1.35.87,2.38,2.18,2.38s2.15-1.03,2.15-2.38-.85-2.38-2.15-2.38-2.18,1.01-2.18,2.38Z" style="fill: #767676; stroke-width: 0px;"/>
              <path d="M302.8,396.09c0,1.99-1.37,3.42-3.32,3.42s-3.33-1.43-3.33-3.42,1.37-3.42,3.33-3.42,3.32,1.43,3.32,3.42ZM297.31,396.09c0,1.35.87,2.38,2.18,2.38s2.15-1.03,2.15-2.38-.85-2.38-2.15-2.38-2.18,1.01-2.18,2.38Z" style="fill: #767676; stroke-width: 0px;"/>
              <path d="M304.23,399.37v-9.49h1.12v9.49h-1.12Z" style="fill: #767676; stroke-width: 0px;"/>
              <path d="M316.06,396.09c0,1.99-1.37,3.42-3.32,3.42s-3.33-1.43-3.33-3.42,1.37-3.42,3.33-3.42,3.32,1.43,3.32,3.42ZM310.57,396.09c0,1.35.87,2.38,2.18,2.38s2.15-1.03,2.15-2.38-.85-2.38-2.15-2.38-2.18,1.01-2.18,2.38Z" style="fill: #767676; stroke-width: 0px;"/>
              <path d="M320.71,389.92v1.01c-.22-.09-.46-.16-.79-.16-.57,0-.92.34-.92,1.07v.97h1.62v1.03h-1.62v5.53h-1.13v-5.53h-1.18v-1.03h1.18v-1c0-1.3.71-2.05,1.96-2.05.39,0,.7.08.88.16Z" style="fill: #767676; stroke-width: 0px;"/>
              <path d="M330.45,399.37v-4.15h-4.81v4.15h-1.18v-9.1h1.18v3.83h4.81v-3.83h1.18v9.1h-1.18Z" style="fill: #767676; stroke-width: 0px;"/>
              <path d="M334.19,402.16l1.09-2.89-2.46-6.46h1.2l1.73,4.71.13.49.13-.49,1.73-4.71h1.21l-3.58,9.35h-1.18Z" style="fill: #767676; stroke-width: 0px;"/>
              <path d="M345.55,393.8h-1.13c.2.35.31.77.31,1.22,0,1.3-.98,2.33-2.5,2.33-.55,0-1.03-.13-1.4-.35-.16.14-.27.36-.27.65,0,.43.34.66.83.66h1.74c1.39,0,2.07.69,2.07,1.78,0,1.39-1.05,2.21-2.73,2.21-1.86,0-2.86-.75-2.86-2.04,0-.62.34-.98.71-1.18-.44-.22-.87-.7-.87-1.37,0-.6.3-1.05.68-1.34-.27-.38-.42-.84-.42-1.35,0-1.35.99-2.35,2.52-2.35.34,0,.65.05.94.14h2.38v.99ZM340.72,400.23c0,.71.65,1.09,1.76,1.09,1.01,0,1.62-.39,1.62-1.17,0-.61-.46-.85-1.18-.85h-1.25c-.49.03-.95.29-.95.92ZM343.63,395.03c0-.78-.53-1.37-1.4-1.37s-1.4.58-1.4,1.37.55,1.34,1.4,1.34,1.4-.58,1.4-1.34Z" style="fill: #767676; stroke-width: 0px;"/>
              <path d="M347.83,390.8c0,.42-.35.75-.78.75s-.77-.34-.77-.75.34-.77.77-.77.78.34.78.77ZM346.49,399.37v-6.55h1.12v6.55h-1.12Z" style="fill: #767676; stroke-width: 0px;"/>
              <path d="M355.2,396.54h-4.97c.08,1.21.9,1.94,2.01,1.94.87,0,1.51-.38,1.77-1.07h1.12c-.39,1.3-1.4,2.11-2.91,2.11-1.85,0-3.16-1.34-3.16-3.41s1.25-3.43,3.16-3.43c1.72,0,2.98,1.12,2.98,3.33v.53ZM354.07,395.53c-.01-1.12-.75-1.82-1.85-1.82s-1.86.77-1.99,1.82h3.83Z" style="fill: #767676; stroke-width: 0px;"/>
              <path d="M361.69,395.13v4.24h-1.13v-4.06c0-1.01-.48-1.55-1.27-1.55-.86,0-1.52.75-1.52,2.09v3.51h-1.12v-6.55h1l.06.9c.3-.57.92-1.04,1.85-1.04,1.4,0,2.13,1.01,2.13,2.46Z" style="fill: #767676; stroke-width: 0px;"/>
              <path d="M369.14,396.54h-4.97c.08,1.21.9,1.94,2.02,1.94.87,0,1.51-.38,1.77-1.07h1.12c-.39,1.3-1.4,2.11-2.91,2.11-1.85,0-3.16-1.34-3.16-3.41s1.25-3.43,3.16-3.43c1.72,0,2.98,1.12,2.98,3.33v.53ZM368.01,395.53c-.01-1.12-.75-1.82-1.85-1.82s-1.86.77-1.99,1.82h3.84Z" style="fill: #767676; stroke-width: 0px;"/>
              <path d="M377.81,395.03v4.34h-1.01l-.05-.9c-.33.58-1.03,1.04-1.99,1.04-1.14,0-1.91-.7-1.91-1.85s.81-1.7,1.83-1.9l2-.38v-.32c0-.94-.43-1.35-1.21-1.35-.71,0-1.34.39-1.34,1.2h-1.1c.04-1.26,1-2.24,2.44-2.24s2.34.83,2.34,2.35ZM373.97,397.65c0,.52.36.82,1,.82.55,0,1.03-.23,1.33-.65.22-.3.38-.75.38-1.21v-.25l-1.79.39c-.49.12-.91.31-.91.9Z" style="fill: #767676; stroke-width: 0px;"/>
              <path d="M384.67,395.13v4.24h-1.13v-4.06c0-1.01-.48-1.55-1.27-1.55-.86,0-1.52.75-1.52,2.09v3.51h-1.12v-6.55h1l.06.9c.3-.57.92-1.04,1.85-1.04,1.4,0,2.13,1.01,2.13,2.46Z" style="fill: #767676; stroke-width: 0px;"/>
              <path d="M391.35,399.37l-.06-.96c-.4.58-1.07,1.1-2.25,1.1-1.85,0-3.06-1.48-3.06-3.42s1.22-3.42,3.07-3.42c1.09,0,1.82.48,2.18,1.04v-3.83h1.12v9.49h-1ZM387.14,396.09c0,1.39.82,2.37,2.07,2.37,1.07,0,2.04-.88,2.04-2.3v-.07c0-1.46-.99-2.35-2.03-2.35-1.22,0-2.08.97-2.08,2.35Z" style="fill: #767676; stroke-width: 0px;"/>
              <path d="M400.5,391.37v8h-1.18v-8h-3.22v-1.11h7.63v1.11h-3.22Z" style="fill: #767676; stroke-width: 0px;"/>
              <path d="M405.41,394.35c-.35.33-.58.83-.6,1.55v3.47h-1.12v-6.55h1l.08,1.14c.22-.6.83-1.21,1.96-1.21v1.12c-.52,0-.96.14-1.33.48Z" style="fill: #767676; stroke-width: 0px;"/>
              <path d="M413.99,396.09c0,1.99-1.37,3.42-3.32,3.42s-3.33-1.43-3.33-3.42,1.37-3.42,3.33-3.42,3.32,1.43,3.32,3.42ZM408.5,396.09c0,1.35.87,2.38,2.18,2.38s2.14-1.03,2.14-2.38-.84-2.38-2.14-2.38-2.18,1.01-2.18,2.38Z" style="fill: #767676; stroke-width: 0px;"/>
              <path d="M421.88,396.09c0,1.94-1.22,3.42-3.07,3.42-1.09,0-1.82-.48-2.17-1.04v3.69h-1.13v-9.35h1.01l.05.96c.4-.58,1.07-1.11,2.25-1.11,1.85,0,3.05,1.48,3.05,3.42ZM416.61,396.03v.06c0,1.46.99,2.35,2.03,2.35,1.22,0,2.08-.98,2.08-2.35s-.82-2.37-2.07-2.37c-1.07,0-2.04.88-2.04,2.3Z" style="fill: #767676; stroke-width: 0px;"/>
              <path d="M424.68,390.8c0,.42-.35.75-.78.75s-.77-.34-.77-.75.34-.77.77-.77.78.34.78.77ZM423.35,399.37v-6.55h1.12v6.55h-1.12Z" style="fill: #767676; stroke-width: 0px;"/>
              <path d="M432.02,394.86h-1.12c-.26-.73-.94-1.14-1.78-1.14-1.17,0-2.04,1-2.04,2.39s.87,2.37,2.07,2.37c.83,0,1.52-.44,1.76-1.14h1.13c-.35,1.43-1.5,2.18-2.93,2.18-1.85,0-3.18-1.43-3.18-3.41s1.34-3.43,3.18-3.43c1.44,0,2.6.75,2.91,2.18Z" style="fill: #767676; stroke-width: 0px;"/>
              <path d="M438.02,395.03v4.34h-1.01l-.05-.9c-.33.58-1.03,1.04-1.99,1.04-1.14,0-1.91-.7-1.91-1.85s.81-1.7,1.83-1.9l2-.38v-.32c0-.94-.43-1.35-1.21-1.35-.71,0-1.34.39-1.34,1.2h-1.11c.04-1.26,1-2.24,2.44-2.24s2.34.83,2.34,2.35ZM434.19,397.65c0,.52.36.82,1,.82.55,0,1.03-.23,1.33-.65.22-.3.38-.75.38-1.21v-.25l-1.79.39c-.49.12-.91.31-.91.9Z" style="fill: #767676; stroke-width: 0px;"/>
              <path d="M439.84,399.37v-9.49h1.12v9.49h-1.12Z" style="fill: #767676; stroke-width: 0px;"/>
              <path d="M453.77,399.37v-6.77l-.25.68-2.78,6.1h-.95l-2.77-6.1-.25-.68v6.77h-1.18v-9.1h1.3l3.12,6.68.25.58.26-.58,3.13-6.68h1.3v9.1h-1.18Z" style="fill: #767676; stroke-width: 0px;"/>
              <path d="M462.51,396.54h-4.97c.08,1.21.9,1.94,2.01,1.94.87,0,1.51-.38,1.77-1.07h1.12c-.39,1.3-1.4,2.11-2.91,2.11-1.85,0-3.16-1.34-3.16-3.41s1.25-3.43,3.16-3.43c1.72,0,2.98,1.12,2.98,3.33v.53ZM461.38,395.53c-.01-1.12-.75-1.82-1.85-1.82s-1.86.77-1.99,1.82h3.83Z" style="fill: #767676; stroke-width: 0px;"/>
              <path d="M468.87,399.37l-.07-.96c-.4.58-1.07,1.1-2.25,1.1-1.85,0-3.05-1.48-3.05-3.42s1.22-3.42,3.07-3.42c1.09,0,1.82.48,2.18,1.04v-3.83h1.12v9.49h-1ZM464.66,396.09c0,1.39.82,2.37,2.07,2.37,1.07,0,2.04-.88,2.04-2.3v-.07c0-1.46-.99-2.35-2.03-2.35-1.22,0-2.08.97-2.08,2.35Z" style="fill: #767676; stroke-width: 0px;"/>
              <path d="M473.2,390.8c0,.42-.35.75-.78.75s-.77-.34-.77-.75.34-.77.77-.77.78.34.78.77ZM471.86,399.37v-6.55h1.12v6.55h-1.12Z" style="fill: #767676; stroke-width: 0px;"/>
              <path d="M480.53,394.86h-1.12c-.26-.73-.94-1.14-1.78-1.14-1.17,0-2.04,1-2.04,2.39s.87,2.37,2.07,2.37c.83,0,1.52-.44,1.76-1.14h1.13c-.35,1.43-1.5,2.18-2.93,2.18-1.85,0-3.18-1.43-3.18-3.41s1.34-3.43,3.18-3.43c1.44,0,2.6.75,2.91,2.18Z" style="fill: #767676; stroke-width: 0px;"/>
              <path d="M483.34,390.8c0,.42-.35.75-.78.75s-.77-.34-.77-.75.34-.77.77-.77.78.34.78.77ZM482,399.37v-6.55h1.12v6.55h-1.12Z" style="fill: #767676; stroke-width: 0px;"/>
              <path d="M490.15,395.13v4.24h-1.13v-4.06c0-1.01-.48-1.55-1.27-1.55-.86,0-1.52.75-1.52,2.09v3.51h-1.12v-6.55h1l.07.9c.3-.57.92-1.04,1.85-1.04,1.4,0,2.13,1.01,2.13,2.46Z" style="fill: #767676; stroke-width: 0px;"/>
              <path d="M497.6,396.54h-4.97c.08,1.21.9,1.94,2.01,1.94.87,0,1.51-.38,1.77-1.07h1.12c-.39,1.3-1.4,2.11-2.91,2.11-1.85,0-3.16-1.34-3.16-3.41s1.25-3.43,3.16-3.43c1.72,0,2.98,1.12,2.98,3.33v.53ZM496.47,395.53c-.01-1.12-.75-1.82-1.85-1.82s-1.86.77-1.99,1.82h3.83Z" style="fill: #767676; stroke-width: 0px;"/>
              <path d="M499.99,398.78c0,.81-.42,1.69-.95,2.29l-.36-.14c.26-.46.39-.94.45-1.47-.4-.04-.7-.33-.7-.75s.34-.77.78-.77.78.32.78.84Z" style="fill: #767676; stroke-width: 0px;"/>
              <path d="M512.19,392.97h-1.31c-.38-1.05-1.24-1.77-2.73-1.77-1.92,0-3.26,1.53-3.26,3.61s1.34,3.61,3.28,3.61c1.51,0,2.41-.77,2.77-1.81h1.27c-.51,1.83-1.9,2.91-4.04,2.91-2.64,0-4.51-2.01-4.51-4.72s1.87-4.72,4.5-4.72c2.15,0,3.54,1.12,4.04,2.87Z" style="fill: #767676; stroke-width: 0px;"/>
              <path d="M521.47,394.82c0,2.73-1.79,4.55-4.62,4.55h-3.28v-9.1h3.28c2.82,0,4.62,1.83,4.62,4.55ZM514.76,398.26h2.09c2.09,0,3.41-1.29,3.41-3.44s-1.29-3.45-3.41-3.45h-2.09v6.89Z" style="fill: #767676; stroke-width: 0px;"/>
              <path d="M531.19,392.97h-1.31c-.38-1.05-1.24-1.77-2.73-1.77-1.92,0-3.26,1.53-3.26,3.61s1.34,3.61,3.28,3.61c1.51,0,2.41-.77,2.77-1.81h1.27c-.51,1.83-1.9,2.91-4.04,2.91-2.64,0-4.51-2.01-4.51-4.72s1.87-4.72,4.5-4.72c2.14,0,3.54,1.12,4.04,2.87Z" style="fill: #767676; stroke-width: 0px;"/>
            </g>
          </g>
        </g>
      </g>
      <g id="image">
        <path d="M706.25,389.47h-6.7v1.7h2.4v8h2v-8h2.4v-1.7h-.1Z" style="fill: #000; stroke-width: 0px;"/>
        <path d="M706.65,399.27h2v-4c0-1,.3-1.5.9-1.5s.8.3.8,1.1v4.4h2v-4.6c0-1.6-.6-2.3-1.8-2.3s-1.5.4-1.8,1.3v-4.2h-2v9.8h-.1Z" style="fill: #000; stroke-width: 0px;"/>
        <path d="M713.15,391.47h2v-2h-2v2ZM713.25,399.27h1.9v-6.7h-1.9v6.7Z" style="fill: #000; stroke-width: 0px;"/>
        <path d="M716.15,399.27h2v-4c0-1,.3-1.4.9-1.4s.8.3.8,1.1v4.3h2v-4.6c0-1.6-.6-2.3-1.8-2.3s-1.5.5-1.9,1.4v-1.2h-1.9v6.7h-.1Z" style="fill: #000; stroke-width: 0px;"/>
        <path d="M726.55,399.27h2.2l-2-4.2,1.9-2.5h-2.2l-1.8,2.8v-5.8h-2v9.8h2v-2l.6-.9,1.2,2.9h0l.1-.1Z" style="fill: #000; stroke-width: 0px;"/>
        <path d="M733.55,399.47c1.2,0,2-.6,2.4-1.7v1.5h1.6v-5.3h-3.6v1.6h1.6v.2c0,1.3-.5,2.1-1.4,2.1s-1.6-.8-1.6-3.5.5-3.3,1.6-3.3,1.3.6,1.4,1.8l2-.4c0-1.9-1.3-3-3.4-3s-3.8,1.5-3.8,4.9,1.2,5.1,3.3,5.1h-.1Z" style="fill: #000; stroke-width: 0px;"/>
        <path d="M740.35,389.47h-2v9.8h2v-9.8Z" style="fill: #000; stroke-width: 0px;"/>
        <path d="M744.15,399.37c1.8,0,3-1,3-3.5s-1.2-3.5-3-3.5-3,1-3,3.5,1.2,3.5,3,3.5ZM744.15,397.97c-.6,0-1-.5-1-2.1s.4-2.1,1-2.1,1,.5,1,2.1-.4,2.1-1,2.1Z" style="fill: #000; stroke-width: 0px;"/>
        <path d="M751.45,399.37c1.5,0,2.3-1.1,2.3-3.5s-.8-3.5-2.2-3.5-1.5.4-1.8,1.1v-4h-2v9.8h1.8v-1.1c.4.7,1,1.2,1.8,1.2h.1ZM750.65,397.97c-.6,0-.9-.5-.9-1.4v-1.4c0-.9.4-1.4.9-1.4s.9.5.9,2.1-.3,2.1-1,2.1h.1Z" style="fill: #000; stroke-width: 0px;"/>
        <path d="M756.15,399.37c.9,0,1.7-.5,1.9-1.2v1.1h1.9v-4.5c0-1.7-.8-2.4-2.7-2.4s-2.8.7-2.9,2.4h2c0-.7.2-1.1.8-1.1s.7.3.7.9v.5l-1.3.2c-.8.1-1.4.4-1.8.7-.4.3-.6.8-.6,1.5,0,1.2.7,2,2,2h0v-.1ZM756.95,398.07c-.5,0-.7-.3-.7-.8s.3-.9.9-1l.8-.2v.9c0,.7-.4,1.1-1,1.1Z" style="fill: #000; stroke-width: 0px;"/>
        <path d="M762.75,389.47h-2v9.8h2v-9.8Z" style="fill: #000; stroke-width: 0px;"/>
        <path d="M771.95,389.47h-2.1v4.1h-2.7v-4.1h-2.1v9.8h2.1v-4.1h2.7v4.1h2.1v-9.8Z" style="fill: #000; stroke-width: 0px;"/>
        <path d="M778.45,395.37c0-1.9-1-3-2.9-3s-3,1.1-3,3.5,1.2,3.5,3,3.5,2.5-.7,2.7-2l-1.7-.5c0,.8-.5,1.1-1,1.1s-1.1-.5-1.1-1.7h3.9v-.9h.1ZM774.65,395.17c0-1.2.4-1.6,1-1.6s.9.3.9,1.6h-1.9Z" style="fill: #000; stroke-width: 0px;"/>
        <path d="M780.75,399.37c.9,0,1.7-.5,1.9-1.2v1.1h1.9v-4.5c0-1.7-.8-2.4-2.7-2.4s-2.8.7-2.9,2.4h2c0-.7.2-1.1.8-1.1s.7.3.7.9v.5l-1.3.2c-.8.1-1.4.4-1.8.7-.4.3-.6.8-.6,1.5,0,1.2.7,2,2,2h0v-.1ZM781.55,398.07c-.5,0-.7-.3-.7-.8s.3-.9.9-1l.8-.2v.9c0,.7-.4,1.1-1,1.1Z" style="fill: #000; stroke-width: 0px;"/>
        <path d="M787.35,389.47h-2v9.8h2v-9.8Z" style="fill: #000; stroke-width: 0px;"/>
        <path d="M787.75,393.87h1v3.4c0,1.4.7,2.1,2.2,2.1s.7,0,1.1-.1v-1.6h-.5c-.6,0-.8-.3-.8-.9v-2.9h1.4v-1.3h-1.4v-2.3l-2,.7v1.6h-1v1.3h0Z" style="fill: #000; stroke-width: 0px;"/>
        <path d="M792.55,399.27h2v-4c0-1,.3-1.5.9-1.5s.8.3.8,1.1v4.4h2v-4.6c0-1.6-.6-2.3-1.8-2.3s-1.5.4-1.8,1.3v-4.2h-2v9.8h-.1Z" style="fill: #000; stroke-width: 0px;"/>
      </g>
    </g>
    <g style="isolation: isolate;">
      <g style="isolation: isolate;">
        <g style="isolation: isolate;">
          <path d="M121.72,353.5l-4.66-6.73-.36-.58v7.3h-1.22v-9.38h1.19l4.64,6.7.4.62v-7.31h1.22v9.38h-1.21Z" style="fill: #1a1a1a; stroke-width: 0px;"/>
          <path d="M131.25,350.12c0,2.05-1.41,3.52-3.42,3.52s-3.43-1.47-3.43-3.52,1.41-3.52,3.43-3.52,3.42,1.47,3.42,3.52ZM125.6,350.12c0,1.39.9,2.45,2.25,2.45s2.21-1.06,2.21-2.45-.87-2.45-2.21-2.45-2.25,1.04-2.25,2.45Z" style="fill: #1a1a1a; stroke-width: 0px;"/>
          <path d="M134.28,353.5l-2.57-6.75h1.23l1.78,4.85.13.51.13-.51,1.78-4.85h1.25l-2.59,6.75h-1.15Z" style="fill: #1a1a1a; stroke-width: 0px;"/>
        </g>
      </g>
    </g>
    <g style="isolation: isolate;">
      <g style="isolation: isolate;">
        <g style="isolation: isolate;">
          <path d="M244.11,348.91c0,2.81-1.85,4.69-4.76,4.69h-3.38v-9.38h3.38c2.91,0,4.76,1.89,4.76,4.69ZM237.2,352.46h2.16c2.16,0,3.51-1.33,3.51-3.55s-1.33-3.55-3.51-3.55h-2.16v7.1Z" style="fill: #1a1a1a; stroke-width: 0px;"/>
          <path d="M251.47,350.68h-5.12c.08,1.25.92,2,2.08,2,.9,0,1.55-.39,1.82-1.1h1.15c-.4,1.34-1.45,2.17-3,2.17-1.9,0-3.26-1.38-3.26-3.51s1.29-3.54,3.26-3.54c1.77,0,3.07,1.15,3.07,3.43v.55ZM250.3,349.65c-.01-1.15-.78-1.88-1.9-1.88s-1.92.79-2.05,1.88h3.95Z" style="fill: #1a1a1a; stroke-width: 0px;"/>
          <path d="M258.77,348.95h-1.15c-.27-.75-.96-1.18-1.83-1.18-1.21,0-2.1,1.03-2.1,2.47s.9,2.44,2.13,2.44c.86,0,1.57-.46,1.81-1.18h1.17c-.36,1.47-1.54,2.25-3.01,2.25-1.9,0-3.28-1.47-3.28-3.51s1.38-3.54,3.28-3.54c1.49,0,2.68.78,3,2.25Z" style="fill: #1a1a1a; stroke-width: 0px;"/>
        </g>
      </g>
    </g>
    <g style="isolation: isolate;">
      <g style="isolation: isolate;">
        <g style="isolation: isolate;">
          <path d="M359.49,352.73c-1.89,0-2.72-1.18-2.79-2.97h1.22c.05,1.22.58,1.83,1.57,1.83.91,0,1.41-.62,1.41-1.74v-6.63h1.22v6.69c0,1.86-.95,2.83-2.63,2.83Z" style="fill: #1a1a1a; stroke-width: 0px;"/>
          <path d="M368.74,348.12v4.47h-1.04l-.05-.92c-.33.6-1.06,1.07-2.05,1.07-1.18,0-1.97-.72-1.97-1.9s.83-1.75,1.89-1.96l2.06-.39v-.33c0-.96-.44-1.39-1.25-1.39-.74,0-1.38.4-1.38,1.23h-1.14c.04-1.3,1.03-2.3,2.52-2.3s2.41.86,2.41,2.42ZM364.79,350.83c0,.54.38.84,1.03.84.56,0,1.06-.24,1.37-.67.23-.31.39-.78.39-1.25v-.25l-1.85.4c-.51.12-.94.32-.94.92Z" style="fill: #1a1a1a; stroke-width: 0px;"/>
          <path d="M375.82,348.23v4.37h-1.17v-4.18c0-1.04-.5-1.59-1.31-1.59-.88,0-1.57.78-1.57,2.16v3.62h-1.15v-6.75h1.03l.07.92c.31-.59.95-1.07,1.9-1.07,1.45,0,2.2,1.04,2.2,2.53Z" style="fill: #1a1a1a; stroke-width: 0px;"/>
        </g>
      </g>
    </g>
    <g style="isolation: isolate;">
      <g style="isolation: isolate;">
        <g style="isolation: isolate;">
          <path d="M464.3,344.96v2.96h3.26v1.15h-3.26v4.13h-1.22v-9.38h5.05v1.14h-3.83Z" style="fill: #1a1a1a; stroke-width: 0px;"/>
          <path d="M475.07,350.28h-5.12c.08,1.25.92,2,2.08,2,.9,0,1.55-.39,1.82-1.1h1.15c-.4,1.34-1.45,2.17-3,2.17-1.9,0-3.26-1.38-3.26-3.51s1.29-3.54,3.26-3.54c1.77,0,3.07,1.15,3.07,3.43v.55ZM473.91,349.25c-.01-1.15-.78-1.88-1.9-1.88s-1.92.79-2.05,1.88h3.95Z" style="fill: #1a1a1a; stroke-width: 0px;"/>
          <path d="M479.96,346.3c1.9,0,3.16,1.53,3.16,3.52s-1.25,3.52-3.15,3.52c-1.22,0-1.9-.54-2.32-1.14l-.07.99h-1.03v-9.78h1.15v3.95c.38-.58,1.13-1.07,2.25-1.07ZM477.7,349.82v.07c0,1.46,1,2.37,2.1,2.37,1.29,0,2.13-1,2.13-2.44s-.88-2.42-2.14-2.42c-1.07,0-2.09.92-2.09,2.42Z" style="fill: #1a1a1a; stroke-width: 0px;"/>
        </g>
      </g>
    </g>
    <g style="isolation: isolate;">
      <g style="isolation: isolate;">
        <g style="isolation: isolate;">
          <path d="M570.21,353v-6.98l-.25.7-2.87,6.28h-.98l-2.85-6.28-.25-.7v6.98h-1.22v-9.38h1.34l3.22,6.89.25.6.27-.6,3.23-6.89h1.34v9.38h-1.22Z" style="fill: #1a1a1a; stroke-width: 0px;"/>
          <path d="M578.17,348.53v4.47h-1.04l-.05-.92c-.33.6-1.06,1.07-2.05,1.07-1.18,0-1.97-.72-1.97-1.9s.83-1.75,1.89-1.96l2.06-.39v-.33c0-.96-.44-1.39-1.25-1.39-.74,0-1.38.4-1.38,1.23h-1.14c.04-1.3,1.03-2.3,2.52-2.3s2.41.86,2.41,2.42ZM574.22,351.23c0,.54.38.84,1.03.84.56,0,1.06-.24,1.37-.67.23-.31.39-.78.39-1.25v-.25l-1.85.4c-.51.12-.94.32-.94.92Z" style="fill: #1a1a1a; stroke-width: 0px;"/>
          <path d="M581.89,347.83c-.36.33-.6.86-.62,1.59v3.58h-1.15v-6.75h1.03l.08,1.18c.23-.62.86-1.25,2.02-1.25v1.15c-.54,0-.99.15-1.37.5Z" style="fill: #1a1a1a; stroke-width: 0px;"/>
        </g>
      </g>
    </g>
    <g style="isolation: isolate;">
      <g style="isolation: isolate;">
        <g style="isolation: isolate;">
          <path d="M659.43,353.8l-.99-2.48h-4.14l-.98,2.48h-1.34l3.76-9.38h1.26l3.76,9.38h-1.34ZM654.71,350.18h3.31l-1.49-3.68-.17-.51-.17.51-1.47,3.68Z" style="fill: #1a1a1a; stroke-width: 0px;"/>
          <path d="M668.66,350.42c0,2-1.26,3.52-3.16,3.52-1.12,0-1.88-.5-2.24-1.07v3.81h-1.17v-9.63h1.04l.05.99c.42-.6,1.1-1.14,2.32-1.14,1.9,0,3.15,1.53,3.15,3.52ZM663.23,350.36v.07c0,1.5,1.02,2.42,2.09,2.42,1.26,0,2.14-1,2.14-2.42s-.84-2.44-2.13-2.44c-1.1,0-2.1.91-2.1,2.37Z" style="fill: #1a1a1a; stroke-width: 0px;"/>
          <path d="M672.01,348.63c-.36.33-.6.86-.62,1.59v3.58h-1.15v-6.75h1.03l.08,1.18c.23-.62.86-1.25,2.02-1.25v1.15c-.54,0-.99.15-1.37.5Z" style="fill: #1a1a1a; stroke-width: 0px;"/>
        </g>
      </g>
    </g>
    <g style="isolation: isolate;">
      <g style="isolation: isolate;">
        <g style="isolation: isolate;">
          <path d="M749.71,352.7v-6.98l-.25.7-2.87,6.28h-.98l-2.85-6.28-.25-.7v6.98h-1.22v-9.38h1.34l3.22,6.89.25.6.27-.6,3.23-6.89h1.34v9.38h-1.22Z" style="fill: #1a1a1a; stroke-width: 0px;"/>
          <path d="M757.67,348.23v4.47h-1.04l-.05-.92c-.33.6-1.06,1.07-2.05,1.07-1.18,0-1.97-.72-1.97-1.9s.83-1.75,1.89-1.96l2.06-.39v-.33c0-.96-.44-1.39-1.25-1.39-.74,0-1.38.4-1.38,1.23h-1.14c.04-1.3,1.03-2.3,2.52-2.3s2.41.86,2.41,2.42ZM753.72,350.93c0,.54.38.84,1.03.84.56,0,1.06-.24,1.37-.67.23-.31.39-.78.39-1.25v-.25l-1.85.4c-.51.12-.94.32-.94.92Z" style="fill: #1a1a1a; stroke-width: 0px;"/>
          <path d="M760.01,355.58l1.12-2.97-2.53-6.66h1.23l1.78,4.85.13.51.13-.51,1.78-4.85h1.25l-3.68,9.63h-1.22Z" style="fill: #1a1a1a; stroke-width: 0px;"/>
        </g>
      </g>
    </g>
    <g id="area-fills-svg">
      <path d="M2.04,330.6l24.9-4.3,24.9,1.2,24.9-6.8,24.9,2.1,24.9-5.3,24.9-8.9,24.9-24.1,24.9-20.2,24.9-22.6,24.9-20.6,24.9-14.2,24.9,15.9,24.9,39.7,24.9,30.6,24.9,17.2,24.9,6,24.9-4.8,24.9,6,24.9-.4,24.9,1,24.9-3.7,24.9,2.5,24.9,4.7v-6.8l-24.9,1.1-24.9-1.7-24.9-4.4-24.9-5.1-24.9,9.9-24.9-6.8-24.9-4.1-24.9-1.1-24.9-32.3-24.9-72.2-24.9-77.5-24.9-89.6-24.9,90-24.9,70.9-24.9,58.7-24.9,27.1-24.9,9.7-24.9,16-24.9,4.9-24.9,3.1-24.9,2-24.9,1.5-24.9,5.1v10.6Z" style="fill: #c6ddf4; isolation: isolate; opacity: .7; stroke-width: 0px;"/>
      <path d="M2.04,331.2h572.21v-9.5l-24.9-4.7-24.9-2.5-24.9,3.7-24.9-1-24.9.4-24.9-6-24.9,4.8-24.9-6-24.9-17.2-24.9-30.6-24.9-39.7-24.9-15.9-24.9,14.2-24.9,20.6-24.9,22.6-24.9,20.2-24.9,24.1-24.9,8.9-24.9,5.3-24.9-2.1-24.9,6.8-24.9-1.2-24.9,4.3v.6l.5-.1Z" style="fill: #dbb9e6; isolation: isolate; opacity: .7; stroke-width: 0px;"/>
      <path d="M2.04,328.9l24.9.9,24.9.3,24.9-.7,24.9,1,24.9-.3,24.9-2.9,24.9-1.7,24.9-3.1,24.9-4.1,24.9-8.6,24.9-25.8,24.9-36.6v-19.4l-24.9,19.1-24.9,26.2-24.9,23.3-24.9,19.6-24.9,4.5-24.9,3.9-24.9-.5h-24.9l-24.9,3.5-24.9,1.3-24.9-.9-24.9,1h0Z" style="fill: #04284a; isolation: isolate; opacity: .7; stroke-width: 0px;"/>
      <path d="M2.04,330.5l24.9-.5,24.9.8,24.9-.9h24.9l24.9-1.5,24.9-.3,24.9-.9,24.9-1.8,24.9-2.1,24.9-4.1,24.9-3.8,24.9-19.6,24.9-17.2,24.9-18,24.9-4.2,24.9-13.6,24.9-1,24.9-11.2,24.9,13.5,24.9,26,24.9,30.1,24.9,8.4,24.9.4,24.9,5.3,24.9,1.3,24.9,3,24.9,2.2,24.9,1,24.9-2.1,24.9,7.4,24.9,1.2,24.9-.9v2.3h-24.9l-24.9-.9-24.9-2.6-24.9-5.1-24.9-7.3-24.9-17.8-24.9-7.1-24.9-6.5-24.9-5.6-24.9-8.2-24.9-7.1-24.9-33.4-24.9-.5-24.9,12.5-24.9-2.5-24.9-18.6-24.9-4.2-24.9-14.7-24.9,26-24.9,21.1-24.9,36.6-24.9,25.8-24.9,8.6-24.9,4.1-24.9,3.1-24.9,1.7-24.9,2.9-24.9.3-24.9-1-24.9.7-24.9-.3-24.9-.9v1.7Z" style="fill: #efd952; isolation: isolate; opacity: .7; stroke-width: 0px;"/>
      <path d="M2.04,331.2h796.21v-3.8l-24.9.9-24.9-1.2-24.9-7.4-24.9,2.1-24.9-1-24.9-2.2-24.9-3-24.9-1.3-24.9-5.3-24.9-.4-24.9-8.4-24.9-30.1-24.9-26-24.9-13.5-24.9,11.2-24.9,1-24.9,13.6-24.9,4.2-24.9,18-24.9,17.2-24.9,19.6-24.9,3.8-24.9,4.1-24.9,2.1-24.9,1.8-24.9.9-24.9.3-24.9,1.5h-24.9l-24.9.9-24.9-.8-24.9.5v.6l.59.1Z" style="fill: #f56647; isolation: isolate; opacity: .7; stroke-width: 0px;"/>
    </g>
    <line x1="798.25" y1="331.2" y2="331.2" style="fill: none; stroke: #1a1a1a; stroke-linecap: square;"/>
    <g id="_2022-2023-4" data-name=" 2022-2023-4" style="isolation: isolate;">
      <g style="isolation: isolate;">
        <g style="isolation: isolate;">
          <path d="M194.73,47.23c0,1.13-.5,1.99-1.19,2.87l-2.51,3.21h3.85v1.19h-5.6v-.94l3.15-3.98c.7-.88,1.01-1.46,1.01-2.31,0-1.01-.48-1.57-1.46-1.57-.88,0-1.53.56-1.53,1.82h-1.27c0-1.85,1.09-3.01,2.82-3.01s2.73,1.08,2.73,2.72Z" style="fill: #647a8e; stroke-width: 0px;"/>
          <path d="M202.53,49.58c0,3.1-1.18,5.1-3.29,5.1s-3.29-2-3.29-5.1,1.16-5.07,3.29-5.07,3.29,1.99,3.29,5.07ZM197.23,49.58c0,2.4.67,3.91,2,3.91s1.99-1.51,1.99-3.91-.67-3.88-1.99-3.88-2,1.5-2,3.88Z" style="fill: #647a8e; stroke-width: 0px;"/>
          <path d="M209.29,47.23c0,1.13-.5,1.99-1.19,2.87l-2.51,3.21h3.85v1.19h-5.6v-.94l3.15-3.98c.7-.88,1.01-1.46,1.01-2.31,0-1.01-.48-1.57-1.46-1.57-.88,0-1.53.56-1.53,1.82h-1.27c0-1.85,1.09-3.01,2.82-3.01s2.73,1.08,2.73,2.72Z" style="fill: #647a8e; stroke-width: 0px;"/>
          <path d="M216.08,47.23c0,1.13-.5,1.99-1.19,2.87l-2.51,3.21h3.85v1.19h-5.6v-.94l3.15-3.98c.7-.88,1.01-1.46,1.01-2.31,0-1.01-.48-1.57-1.46-1.57-.88,0-1.53.56-1.53,1.82h-1.27c0-1.85,1.09-3.01,2.82-3.01s2.73,1.08,2.73,2.72Z" style="fill: #647a8e; stroke-width: 0px;"/>
          <path d="M216.94,51.4v-1.08h4.41v1.08h-4.41Z" style="fill: #647a8e; stroke-width: 0px;"/>
          <path d="M227.68,47.23c0,1.13-.5,1.99-1.19,2.87l-2.51,3.21h3.85v1.19h-5.6v-.94l3.15-3.98c.7-.88,1.01-1.46,1.01-2.31,0-1.01-.48-1.57-1.46-1.57-.88,0-1.53.56-1.53,1.82h-1.27c0-1.85,1.09-3.01,2.82-3.01s2.73,1.08,2.73,2.72Z" style="fill: #647a8e; stroke-width: 0px;"/>
          <path d="M235.48,49.58c0,3.1-1.18,5.1-3.29,5.1s-3.29-2-3.29-5.1,1.16-5.07,3.29-5.07,3.29,1.99,3.29,5.07ZM230.19,49.58c0,2.4.67,3.91,2,3.91s1.99-1.51,1.99-3.91-.67-3.88-1.99-3.88-2,1.5-2,3.88Z" style="fill: #647a8e; stroke-width: 0px;"/>
          <path d="M242.24,47.23c0,1.13-.5,1.99-1.19,2.87l-2.51,3.21h3.85v1.19h-5.6v-.94l3.15-3.98c.7-.88,1.01-1.46,1.01-2.31,0-1.01-.48-1.57-1.46-1.57-.88,0-1.53.56-1.53,1.82h-1.27c0-1.85,1.09-3.01,2.82-3.01s2.73,1.08,2.73,2.72Z" style="fill: #647a8e; stroke-width: 0px;"/>
          <path d="M249.26,47.27c0,1.25-.71,1.92-1.37,2.14.85.22,1.71,1.02,1.71,2.42,0,1.68-1.22,2.84-3.04,2.84s-3.1-1.09-3.1-3h1.26c.01,1.27.81,1.81,1.86,1.81s1.72-.66,1.72-1.69c0-1.18-.84-1.81-2.31-1.81h-.32v-1.12h.31c1.37,0,1.99-.48,1.99-1.57,0-.97-.5-1.6-1.47-1.6-.85,0-1.56.53-1.56,1.76h-1.27c0-1.82,1.11-2.96,2.82-2.96s2.77,1.22,2.77,2.76Z" style="fill: #647a8e; stroke-width: 0px;"/>
        </g>
      </g>
    </g>
    <g id="_2017-2018-2" data-name=" 2017-2018-2" style="isolation: isolate;">
      <g style="isolation: isolate;">
        <g style="isolation: isolate;">
          <path d="M389.93,184.73c0,1.13-.5,1.99-1.19,2.87l-2.51,3.21h3.85v1.19h-5.6v-.94l3.15-3.98c.7-.88,1.01-1.46,1.01-2.31,0-1.01-.48-1.57-1.46-1.57-.88,0-1.53.56-1.53,1.82h-1.27c0-1.85,1.09-3.01,2.82-3.01s2.73,1.08,2.73,2.72Z" style="fill: #857700; stroke-width: 0px;"/>
          <path d="M397.73,187.08c0,3.1-1.18,5.1-3.29,5.1s-3.29-2-3.29-5.1,1.16-5.07,3.29-5.07,3.29,1.99,3.29,5.07ZM392.43,187.08c0,2.4.67,3.91,2,3.91s1.99-1.51,1.99-3.91-.67-3.88-1.99-3.88-2,1.5-2,3.88Z" style="fill: #857700; stroke-width: 0px;"/>
          <path d="M400.75,192v-7.51h-2.06v-1.09c1.43,0,2.11-.24,2.35-1.21h.98v9.81h-1.27Z" style="fill: #857700; stroke-width: 0px;"/>
          <path d="M405.49,192h-1.39l3.87-8.59h-4.38v-1.22h5.84v1.04l-3.94,8.77Z" style="fill: #857700; stroke-width: 0px;"/>
          <path d="M409.93,188.9v-1.08h4.41v1.08h-4.41Z" style="fill: #857700; stroke-width: 0px;"/>
          <path d="M420.67,184.73c0,1.13-.5,1.99-1.19,2.87l-2.51,3.21h3.85v1.19h-5.6v-.94l3.15-3.98c.7-.88,1.01-1.46,1.01-2.31,0-1.01-.48-1.57-1.46-1.57-.88,0-1.53.56-1.53,1.82h-1.27c0-1.85,1.09-3.01,2.82-3.01s2.73,1.08,2.73,2.72Z" style="fill: #857700; stroke-width: 0px;"/>
          <path d="M428.47,187.08c0,3.1-1.18,5.1-3.29,5.1s-3.29-2-3.29-5.1,1.16-5.07,3.29-5.07,3.29,1.99,3.29,5.07ZM423.17,187.08c0,2.4.67,3.91,2,3.91s1.99-1.51,1.99-3.91-.67-3.88-1.99-3.88-2,1.5-2,3.88Z" style="fill: #857700; stroke-width: 0px;"/>
          <path d="M431.49,192v-7.51h-2.06v-1.09c1.43,0,2.12-.24,2.35-1.21h.98v9.81h-1.27Z" style="fill: #857700; stroke-width: 0px;"/>
          <path d="M440.44,184.77c0,1.22-.7,1.93-1.2,2.18.63.28,1.51.98,1.51,2.35,0,1.67-1.36,2.87-3.12,2.87s-3.14-1.2-3.14-2.87c0-1.25.73-2.06,1.51-2.35-.52-.27-1.19-.98-1.19-2.18,0-1.53,1.09-2.76,2.82-2.76s2.82,1.23,2.82,2.76ZM435.77,189.28c0,1.09.87,1.72,1.85,1.72s1.83-.63,1.83-1.72-.87-1.75-1.83-1.75-1.85.66-1.85,1.75ZM436.07,184.8c0,.97.64,1.57,1.55,1.57s1.55-.6,1.55-1.57-.66-1.61-1.55-1.61-1.55.63-1.55,1.61Z" style="fill: #857700; stroke-width: 0px;"/>
        </g>
      </g>
    </g>
    <g id="_2019-2020-2" data-name=" 2019-2020-2" style="isolation: isolate;">
      <g style="isolation: isolate;">
        <g style="isolation: isolate;">
          <path d="M142.33,215.03c0,1.13-.5,1.99-1.19,2.87l-2.51,3.21h3.85v1.19h-5.6v-.94l3.15-3.98c.7-.88,1.01-1.46,1.01-2.31,0-1.01-.48-1.57-1.46-1.57-.88,0-1.53.56-1.53,1.82h-1.27c0-1.85,1.09-3.01,2.82-3.01s2.73,1.08,2.73,2.72Z" style="fill: #8b6c96; stroke-width: 0px;"/>
          <path d="M150.13,217.38c0,3.1-1.18,5.1-3.29,5.1s-3.29-2-3.29-5.1,1.16-5.07,3.29-5.07,3.29,1.99,3.29,5.07ZM144.83,217.38c0,2.4.67,3.91,2,3.91s1.99-1.51,1.99-3.91-.67-3.88-1.99-3.88-2,1.5-2,3.88Z" style="fill: #8b6c96; stroke-width: 0px;"/>
          <path d="M153.15,222.3v-7.51h-2.06v-1.09c1.43,0,2.11-.24,2.35-1.21h.98v9.81h-1.27Z" style="fill: #8b6c96; stroke-width: 0px;"/>
          <path d="M162.42,217.15c0,3.46-.99,5.34-3.35,5.34-1.57,0-2.73-1.05-2.8-2.7h1.29c.1,1.06.66,1.51,1.56,1.51,1.29,0,1.98-1.08,2.02-3.73-.35.52-1.12.98-2.05.98-1.92,0-3.03-1.34-3.03-3.07,0-1.82,1.2-3.17,3.07-3.17,1.01,0,1.77.35,2.31.98.78.9.98,2.33.98,3.85ZM161.02,215.48c0-.98-.71-1.99-1.86-1.99-1.08,0-1.79.83-1.79,1.96,0,1.06.71,1.91,1.79,1.91,1.02,0,1.86-.8,1.86-1.88Z" style="fill: #8b6c96; stroke-width: 0px;"/>
          <path d="M163.42,219.2v-1.08h4.41v1.08h-4.41Z" style="fill: #8b6c96; stroke-width: 0px;"/>
          <path d="M174.16,215.03c0,1.13-.5,1.99-1.19,2.87l-2.51,3.21h3.85v1.19h-5.6v-.94l3.15-3.98c.7-.88,1.01-1.46,1.01-2.31,0-1.01-.48-1.57-1.46-1.57-.88,0-1.53.56-1.53,1.82h-1.27c0-1.85,1.09-3.01,2.82-3.01s2.73,1.08,2.73,2.72Z" style="fill: #8b6c96; stroke-width: 0px;"/>
          <path d="M181.96,217.38c0,3.1-1.18,5.1-3.29,5.1s-3.29-2-3.29-5.1,1.16-5.07,3.29-5.07,3.29,1.99,3.29,5.07ZM176.67,217.38c0,2.4.67,3.91,2,3.91s1.99-1.51,1.99-3.91-.67-3.88-1.99-3.88-2,1.5-2,3.88Z" style="fill: #8b6c96; stroke-width: 0px;"/>
          <path d="M188.72,215.03c0,1.13-.5,1.99-1.19,2.87l-2.51,3.21h3.85v1.19h-5.6v-.94l3.15-3.98c.7-.88,1.01-1.46,1.01-2.31,0-1.01-.48-1.57-1.46-1.57-.88,0-1.53.56-1.53,1.82h-1.27c0-1.85,1.09-3.01,2.82-3.01s2.73,1.08,2.73,2.72Z" style="fill: #8b6c96; stroke-width: 0px;"/>
          <path d="M196.52,217.38c0,3.1-1.18,5.1-3.29,5.1s-3.29-2-3.29-5.1,1.16-5.07,3.29-5.07,3.29,1.99,3.29,5.07ZM191.23,217.38c0,2.4.67,3.91,2,3.91s1.99-1.51,1.99-3.91-.67-3.88-1.99-3.88-2,1.5-2,3.88Z" style="fill: #8b6c96; stroke-width: 0px;"/>
        </g>
      </g>
    </g>
    <g id="_2018-2019-2" data-name=" 2018-2019-2" style="isolation: isolate;">
      <g style="isolation: isolate;">
        <g style="isolation: isolate;">
          <path d="M467.13,201.93c0,1.13-.5,1.99-1.19,2.87l-2.51,3.21h3.85v1.19h-5.6v-.94l3.15-3.98c.7-.88,1.01-1.46,1.01-2.31,0-1.01-.48-1.57-1.46-1.57-.88,0-1.53.56-1.53,1.82h-1.27c0-1.85,1.09-3.01,2.81-3.01s2.73,1.08,2.73,2.72Z" style="fill: #d0452b; stroke-width: 0px;"/>
          <path d="M474.93,204.28c0,3.1-1.18,5.1-3.29,5.1s-3.29-2-3.29-5.1,1.16-5.07,3.29-5.07,3.29,1.99,3.29,5.07ZM469.63,204.28c0,2.4.67,3.91,2,3.91s1.99-1.51,1.99-3.91-.67-3.88-1.99-3.88-2,1.5-2,3.88Z" style="fill: #d0452b; stroke-width: 0px;"/>
          <path d="M477.95,209.2v-7.51h-2.06v-1.09c1.43,0,2.12-.24,2.35-1.21h.98v9.81h-1.27Z" style="fill: #d0452b; stroke-width: 0px;"/>
          <path d="M486.9,201.97c0,1.22-.7,1.93-1.21,2.18.63.28,1.51.98,1.51,2.35,0,1.67-1.36,2.87-3.12,2.87s-3.14-1.2-3.14-2.87c0-1.25.73-2.06,1.51-2.35-.52-.27-1.19-.98-1.19-2.18,0-1.53,1.09-2.76,2.82-2.76s2.82,1.23,2.82,2.76ZM482.23,206.48c0,1.09.87,1.72,1.85,1.72s1.83-.63,1.83-1.72-.87-1.75-1.83-1.75-1.85.66-1.85,1.75ZM482.53,202c0,.97.64,1.57,1.55,1.57s1.55-.6,1.55-1.57-.66-1.61-1.55-1.61-1.55.63-1.55,1.61Z" style="fill: #d0452b; stroke-width: 0px;"/>
          <path d="M488.22,206.1v-1.08h4.41v1.08h-4.41Z" style="fill: #d0452b; stroke-width: 0px;"/>
          <path d="M498.96,201.93c0,1.13-.5,1.99-1.19,2.87l-2.51,3.21h3.85v1.19h-5.6v-.94l3.15-3.98c.7-.88,1.01-1.46,1.01-2.31,0-1.01-.48-1.57-1.46-1.57-.88,0-1.53.56-1.53,1.82h-1.27c0-1.85,1.09-3.01,2.82-3.01s2.73,1.08,2.73,2.72Z" style="fill: #d0452b; stroke-width: 0px;"/>
          <path d="M506.76,204.28c0,3.1-1.18,5.1-3.29,5.1s-3.29-2-3.29-5.1,1.16-5.07,3.29-5.07,3.29,1.99,3.29,5.07ZM501.47,204.28c0,2.4.67,3.91,2,3.91s1.99-1.51,1.99-3.91-.67-3.88-1.99-3.88-2,1.5-2,3.88Z" style="fill: #d0452b; stroke-width: 0px;"/>
          <path d="M509.78,209.2v-7.51h-2.06v-1.09c1.43,0,2.12-.24,2.35-1.21h.98v9.81h-1.27Z" style="fill: #d0452b; stroke-width: 0px;"/>
          <path d="M519.05,204.05c0,3.46-1,5.34-3.35,5.34-1.57,0-2.73-1.05-2.8-2.7h1.29c.1,1.06.66,1.51,1.55,1.51,1.29,0,1.98-1.08,2.02-3.73-.35.52-1.12.98-2.04.98-1.92,0-3.03-1.34-3.03-3.07,0-1.82,1.2-3.17,3.07-3.17,1.01,0,1.77.35,2.31.98.78.9.98,2.33.98,3.85ZM517.65,202.38c0-.98-.71-1.99-1.86-1.99-1.08,0-1.79.83-1.79,1.96,0,1.06.71,1.91,1.79,1.91,1.02,0,1.86-.8,1.86-1.88Z" style="fill: #d0452b; stroke-width: 0px;"/>
        </g>
      </g>
    </g>
    <g id="svelte-zo497q-svg">
      <g id="callout-line-svg">
        <path d="M251.35,43.2c5.6-2.3,10.9-5.3,15.9-9.1" style="fill: none; stroke: #647a8e;"/>
      </g>
    </g>
    <g id="svelte-zo497q-svg-2">
      <g id="callout-line-svg-2">
        <path d="M332.45,182.3c-17.7,8.8-29.7,23.5-35.9,44" style="fill: none; stroke: #04284a;"/>
      </g>
    </g>
    <g style="isolation: isolate;">
      <g style="isolation: isolate;">
        <g style="isolation: isolate;">
          <path d="M342.63,174.93c0,1.13-.5,1.99-1.19,2.87l-2.51,3.21h3.85v1.19h-5.6v-.94l3.15-3.98c.7-.88,1.01-1.46,1.01-2.31,0-1.01-.48-1.57-1.46-1.57-.88,0-1.53.56-1.53,1.82h-1.27c0-1.85,1.09-3.01,2.82-3.01s2.73,1.08,2.73,2.72Z" style="fill: #04284a; stroke-width: 0px;"/>
          <path d="M350.43,177.28c0,3.1-1.18,5.1-3.29,5.1s-3.29-2-3.29-5.1,1.16-5.07,3.29-5.07,3.29,1.99,3.29,5.07ZM345.13,177.28c0,2.4.67,3.91,2,3.91s1.99-1.51,1.99-3.91-.67-3.88-1.99-3.88-2,1.5-2,3.88Z" style="fill: #04284a; stroke-width: 0px;"/>
          <path d="M357.19,174.93c0,1.13-.5,1.99-1.19,2.87l-2.51,3.21h3.85v1.19h-5.6v-.94l3.15-3.98c.7-.88,1.01-1.46,1.01-2.31,0-1.01-.48-1.57-1.46-1.57-.88,0-1.53.56-1.53,1.82h-1.27c0-1.85,1.09-3.01,2.82-3.01s2.73,1.08,2.73,2.72Z" style="fill: #04284a; stroke-width: 0px;"/>
          <path d="M364.2,174.97c0,1.25-.71,1.92-1.37,2.14.85.22,1.71,1.02,1.71,2.42,0,1.68-1.22,2.84-3.04,2.84s-3.1-1.09-3.1-3h1.26c.01,1.27.81,1.81,1.86,1.81s1.72-.66,1.72-1.69c0-1.18-.84-1.81-2.31-1.81h-.32v-1.12h.31c1.37,0,1.99-.48,1.99-1.57,0-.97-.5-1.6-1.47-1.6-.86,0-1.56.53-1.56,1.76h-1.27c0-1.82,1.11-2.96,2.82-2.96s2.77,1.22,2.77,2.76Z" style="fill: #04284a; stroke-width: 0px;"/>
        </g>
      </g>
    </g>
    <g id="svelte-zo497q-svg-3">
      <g id="callout-line-svg-3">
        <path d="M378.45,192c-9.8-.2-19.6,2.2-29.5,7.3" style="fill: none; stroke: #857700;"/>
      </g>
    </g>
    <g id="svelte-zo497q-svg-4">
      <g id="callout-line-svg-4">
        <path d="M201.35,211.4c20.5-9.2,40.3-11.9,69.3-5.4" style="fill: none; stroke: #8b6c96;"/>
      </g>
    </g>
    <g id="svelte-zo497q-svg-5">
      <g id="callout-line-svg-5">
        <path d="M460.95,213.2c-4.6,4.1-8.6,9.3-11.8,15.5" style="fill: none; stroke: #f56647;"/>
      </g>
    </g>
    <g id="y-tick-labels-svg_number-axis-svg_grid-y-svg_datawrapper-RtHpC-uu7shf-svg-2" data-name="y-tick-labels-svg number-axis-svg grid-y-svg datawrapper-RtHpC-uu7shf-svg-2">
      <g style="isolation: isolate;">
        <g style="isolation: isolate;">
          <g style="isolation: isolate;">
            <path d="M44.37,247.89v2.84c.32-.2.87-.36,1.6-.36,1.72,0,2.91,1.13,2.91,3.05s-1.15,3.26-3.08,3.26c-1.79,0-3-.97-3-2.86h1.27c.01,1.16.73,1.67,1.74,1.67,1.15,0,1.78-.84,1.78-2.03s-.66-1.9-1.81-1.9c-.71,0-1.23.22-1.57.45h-1.13v-5.31h5.28v1.19h-3.99Z" style="fill: #1a1a1a; stroke-width: 0px;"/>
          </g>
        </g>
      </g>
      <g style="isolation: isolate;">
        <g style="isolation: isolate;">
          <g style="isolation: isolate;">
            <path d="M44.39,173.6v-7.51h-2.06v-1.09c1.43,0,2.11-.24,2.35-1.21h.98v9.81h-1.27Z" style="fill: #1a1a1a; stroke-width: 0px;"/>
            <path d="M53.9,168.68c0,3.1-1.18,5.1-3.29,5.1s-3.29-2-3.29-5.1,1.16-5.07,3.29-5.07,3.29,1.99,3.29,5.07ZM48.6,168.68c0,2.4.67,3.91,2,3.91s1.99-1.51,1.99-3.91-.67-3.88-1.99-3.88-2,1.5-2,3.88Z" style="fill: #1a1a1a; stroke-width: 0px;"/>
          </g>
        </g>
      </g>
      <g style="isolation: isolate;">
        <g style="isolation: isolate;">
          <g style="isolation: isolate;">
            <path d="M44.39,90.7v-7.51h-2.06v-1.09c1.43,0,2.11-.24,2.35-1.21h.98v9.81h-1.27Z" style="fill: #1a1a1a; stroke-width: 0px;"/>
            <path d="M49.13,82.09v2.84c.32-.2.87-.36,1.6-.36,1.72,0,2.91,1.13,2.91,3.05s-1.15,3.26-3.08,3.26c-1.79,0-3-.97-3-2.86h1.27c.01,1.16.73,1.67,1.74,1.67,1.15,0,1.78-.84,1.78-2.03s-.66-1.9-1.81-1.9c-.71,0-1.23.22-1.57.45h-1.13v-5.31h5.28v1.19h-3.99Z" style="fill: #1a1a1a; stroke-width: 0px;"/>
          </g>
        </g>
      </g>
    </g>
    <g style="isolation: isolate;">
      <g style="isolation: isolate;">
        <path d="M314.77,43.36v1.14h-5.4v-9.38h1.22v8.24h4.18Z" style="fill: #1a1a1a; stroke-width: 0px;"/>
        <path d="M322.36,41.12c0,2.05-1.41,3.52-3.42,3.52s-3.43-1.47-3.43-3.52,1.41-3.52,3.43-3.52,3.42,1.47,3.42,3.52ZM316.71,41.12c0,1.39.9,2.45,2.25,2.45s2.21-1.06,2.21-2.45-.87-2.45-2.21-2.45-2.25,1.04-2.25,2.45Z" style="fill: #1a1a1a; stroke-width: 0px;"/>
        <path d="M329.37,44.5l-1.63-4.82-1.65,4.82h-1.12l-2.14-6.75h1.23l1.41,4.72.13.62.15-.62,1.51-4.72h.99l1.51,4.72.15.62.13-.62,1.41-4.72h1.23l-2.14,6.75h-1.17Z" style="fill: #1a1a1a; stroke-width: 0px;"/>
        <path d="M338.39,44.5l-2.57-6.75h1.23l1.78,4.85.13.51.13-.51,1.78-4.85h1.25l-2.59,6.75h-1.15Z" style="fill: #1a1a1a; stroke-width: 0px;"/>
        <path d="M347.88,40.03v4.47h-1.04l-.05-.92c-.33.6-1.06,1.07-2.05,1.07-1.18,0-1.97-.72-1.97-1.9s.83-1.75,1.89-1.96l2.06-.39v-.33c0-.96-.44-1.39-1.25-1.39-.74,0-1.38.4-1.38,1.23h-1.14c.04-1.3,1.03-2.3,2.52-2.3s2.41.86,2.41,2.42ZM343.93,42.73c0,.54.38.84,1.03.84.56,0,1.06-.24,1.37-.67.23-.31.39-.78.39-1.25v-.25l-1.85.4c-.51.12-.94.32-.94.92Z" style="fill: #1a1a1a; stroke-width: 0px;"/>
        <path d="M355.49,39.85h-1.15c-.27-.75-.96-1.18-1.84-1.18-1.21,0-2.1,1.03-2.1,2.47s.9,2.44,2.13,2.44c.86,0,1.57-.46,1.81-1.18h1.17c-.36,1.47-1.54,2.25-3.01,2.25-1.9,0-3.28-1.47-3.28-3.51s1.38-3.54,3.28-3.54c1.49,0,2.68.78,3,2.25Z" style="fill: #1a1a1a; stroke-width: 0px;"/>
        <path d="M362.73,39.85h-1.15c-.27-.75-.96-1.18-1.83-1.18-1.21,0-2.1,1.03-2.1,2.47s.9,2.44,2.13,2.44c.86,0,1.57-.46,1.81-1.18h1.17c-.36,1.47-1.54,2.25-3.01,2.25-1.9,0-3.28-1.47-3.28-3.51s1.38-3.54,3.28-3.54c1.49,0,2.68.78,3,2.25Z" style="fill: #1a1a1a; stroke-width: 0px;"/>
        <path d="M365.62,35.67c0,.43-.36.78-.8.78s-.79-.35-.79-.78.35-.79.79-.79.8.35.8.79ZM364.24,44.5v-6.75h1.15v6.75h-1.15Z" style="fill: #1a1a1a; stroke-width: 0px;"/>
        <path d="M372.64,40.13v4.37h-1.17v-4.18c0-1.04-.5-1.59-1.31-1.59-.88,0-1.57.78-1.57,2.16v3.62h-1.15v-6.75h1.03l.07.92c.31-.59.95-1.07,1.9-1.07,1.45,0,2.2,1.04,2.2,2.53Z" style="fill: #1a1a1a; stroke-width: 0px;"/>
        <path d="M380.32,41.58h-5.12c.08,1.25.92,2,2.08,2,.9,0,1.55-.39,1.82-1.1h1.15c-.4,1.34-1.45,2.17-3,2.17-1.9,0-3.26-1.38-3.26-3.51s1.29-3.54,3.26-3.54c1.77,0,3.07,1.15,3.07,3.43v.55ZM379.15,40.55c-.01-1.15-.78-1.88-1.9-1.88s-1.92.79-2.05,1.88h3.95Z" style="fill: #1a1a1a; stroke-width: 0px;"/>
        <path d="M390.28,39.85h-1.15c-.27-.75-.96-1.18-1.83-1.18-1.21,0-2.1,1.03-2.1,2.47s.9,2.44,2.13,2.44c.86,0,1.57-.46,1.81-1.18h1.17c-.36,1.47-1.54,2.25-3.01,2.25-1.9,0-3.28-1.47-3.28-3.51s1.38-3.54,3.28-3.54c1.49,0,2.68.78,3,2.25Z" style="fill: #1a1a1a; stroke-width: 0px;"/>
        <path d="M398.07,41.12c0,2.05-1.41,3.52-3.42,3.52s-3.43-1.47-3.43-3.52,1.41-3.52,3.43-3.52,3.42,1.47,3.42,3.52ZM392.42,41.12c0,1.39.9,2.45,2.25,2.45s2.21-1.06,2.21-2.45-.87-2.45-2.21-2.45-2.25,1.04-2.25,2.45Z" style="fill: #1a1a1a; stroke-width: 0px;"/>
        <path d="M401.1,44.5l-2.57-6.75h1.23l1.78,4.85.13.51.13-.51,1.78-4.85h1.25l-2.59,6.75h-1.15Z" style="fill: #1a1a1a; stroke-width: 0px;"/>
        <path d="M411.59,41.58h-5.12c.08,1.25.92,2,2.08,2,.9,0,1.55-.39,1.82-1.1h1.15c-.4,1.34-1.45,2.17-3,2.17-1.9,0-3.25-1.38-3.25-3.51s1.29-3.54,3.25-3.54c1.77,0,3.07,1.15,3.07,3.43v.55ZM410.43,40.55c-.01-1.15-.78-1.88-1.9-1.88s-1.92.79-2.05,1.88h3.95Z" style="fill: #1a1a1a; stroke-width: 0px;"/>
        <path d="M414.93,39.33c-.36.33-.6.86-.62,1.59v3.58h-1.15v-6.75h1.03l.08,1.18c.23-.62.86-1.25,2.02-1.25v1.15c-.54,0-.99.15-1.37.5Z" style="fill: #1a1a1a; stroke-width: 0px;"/>
        <path d="M422.14,40.03v4.47h-1.04l-.05-.92c-.33.6-1.06,1.07-2.05,1.07-1.18,0-1.97-.72-1.97-1.9s.83-1.75,1.89-1.96l2.06-.39v-.33c0-.96-.44-1.39-1.25-1.39-.74,0-1.38.4-1.38,1.23h-1.14c.04-1.3,1.03-2.3,2.52-2.3s2.41.86,2.41,2.42ZM418.19,42.73c0,.54.38.84,1.03.84.56,0,1.06-.24,1.37-.67.23-.31.39-.78.39-1.25v-.25l-1.85.4c-.51.12-.94.32-.94.92Z" style="fill: #1a1a1a; stroke-width: 0px;"/>
        <path d="M429.78,38.77h-1.17c.2.36.32.79.32,1.26,0,1.34-1,2.4-2.57,2.4-.56,0-1.06-.13-1.45-.36-.16.15-.28.38-.28.67,0,.44.35.68.86.68h1.8c1.43,0,2.13.71,2.13,1.83,0,1.43-1.08,2.28-2.81,2.28-1.92,0-2.95-.78-2.95-2.1,0-.64.35-1,.74-1.22-.46-.23-.9-.72-.9-1.41,0-.62.31-1.09.7-1.38-.28-.39-.43-.87-.43-1.39,0-1.39,1.02-2.42,2.6-2.42.35,0,.67.05.96.15h2.45v1.02ZM424.79,45.38c0,.74.67,1.13,1.81,1.13,1.04,0,1.67-.4,1.67-1.21,0-.63-.47-.87-1.22-.87h-1.29c-.51.03-.98.29-.98.95ZM427.8,40.03c0-.8-.55-1.41-1.45-1.41s-1.45.6-1.45,1.41.56,1.38,1.45,1.38,1.45-.6,1.45-1.38Z" style="fill: #1a1a1a; stroke-width: 0px;"/>
        <path d="M436.52,41.58h-5.12c.08,1.25.92,2,2.08,2,.9,0,1.55-.39,1.82-1.1h1.15c-.4,1.34-1.45,2.17-3,2.17-1.9,0-3.25-1.38-3.25-3.51s1.29-3.54,3.25-3.54c1.77,0,3.07,1.15,3.07,3.43v.55ZM435.35,40.55c-.01-1.15-.78-1.88-1.9-1.88s-1.92.79-2.05,1.88h3.95Z" style="fill: #1a1a1a; stroke-width: 0px;"/>
        <path d="M445.46,40.03v4.47h-1.04l-.05-.92c-.33.6-1.06,1.07-2.05,1.07-1.18,0-1.97-.72-1.97-1.9s.83-1.75,1.89-1.96l2.06-.39v-.33c0-.96-.44-1.39-1.25-1.39-.74,0-1.38.4-1.38,1.23h-1.14c.04-1.3,1.03-2.3,2.52-2.3s2.41.86,2.41,2.42ZM441.5,42.73c0,.54.38.84,1.03.84.56,0,1.06-.24,1.37-.67.23-.31.39-.78.39-1.25v-.25l-1.85.4c-.51.12-.94.32-.94.92Z" style="fill: #1a1a1a; stroke-width: 0px;"/>
        <path d="M452.53,40.13v4.37h-1.17v-4.18c0-1.04-.5-1.59-1.31-1.59-.88,0-1.57.78-1.57,2.16v3.62h-1.15v-6.75h1.03l.07.92c.31-.59.95-1.07,1.9-1.07,1.45,0,2.2,1.04,2.2,2.53Z" style="fill: #1a1a1a; stroke-width: 0px;"/>
        <path d="M459.42,44.5l-.07-.99c-.42.6-1.1,1.14-2.32,1.14-1.9,0-3.15-1.53-3.15-3.52s1.26-3.52,3.16-3.52c1.12,0,1.88.5,2.25,1.07v-3.95h1.15v9.78h-1.03ZM455.08,41.12c0,1.43.84,2.44,2.13,2.44,1.1,0,2.1-.91,2.1-2.37v-.07c0-1.5-1.02-2.42-2.09-2.42-1.26,0-2.14,1-2.14,2.42Z" style="fill: #1a1a1a; stroke-width: 0px;"/>
        <path d="M469.2,44.5l-.07-.92c-.31.64-.92,1.07-1.86,1.07-1.46,0-2.17-1.03-2.17-2.53v-4.37h1.15v4.18c0,1.06.47,1.61,1.29,1.61.87,0,1.54-.74,1.54-2.04v-3.75h1.15v6.75h-1.03Z" style="fill: #1a1a1a; stroke-width: 0px;"/>
        <path d="M477.44,40.13v4.37h-1.17v-4.18c0-1.04-.5-1.59-1.31-1.59-.88,0-1.57.78-1.57,2.16v3.62h-1.15v-6.75h1.03l.07.92c.31-.59.95-1.07,1.9-1.07,1.45,0,2.2,1.04,2.2,2.53Z" style="fill: #1a1a1a; stroke-width: 0px;"/>
        <path d="M483.35,44.5l-.07-.92c-.31.64-.92,1.07-1.86,1.07-1.46,0-2.17-1.03-2.17-2.53v-4.37h1.15v4.18c0,1.06.47,1.61,1.29,1.61.87,0,1.54-.74,1.54-2.04v-3.75h1.15v6.75h-1.03Z" style="fill: #1a1a1a; stroke-width: 0px;"/>
        <path d="M490.53,39.73h-1.18c-.01-.71-.35-1.06-1.07-1.06s-1.03.42-1.03.91c0,.52.27.74,1.27.98,1.61.38,2.21.94,2.21,2.02,0,1.31-1.02,2.06-2.37,2.06-1.57,0-2.44-.88-2.46-2.2h1.18c.01.71.47,1.12,1.31,1.12.78,0,1.17-.39,1.17-.91,0-.56-.29-.83-1.41-1.09-1.41-.32-2.08-.82-2.08-1.93s.78-2.05,2.24-2.05c1.31,0,2.2.86,2.22,2.13Z" style="fill: #1a1a1a; stroke-width: 0px;"/>
        <path d="M496.28,44.5l-.07-.92c-.31.64-.92,1.07-1.86,1.07-1.46,0-2.17-1.03-2.17-2.53v-4.37h1.15v4.18c0,1.06.47,1.61,1.29,1.61.87,0,1.54-.74,1.54-2.04v-3.75h1.15v6.75h-1.03Z" style="fill: #1a1a1a; stroke-width: 0px;"/>
        <path d="M504.04,40.03v4.47h-1.04l-.05-.92c-.33.6-1.06,1.07-2.05,1.07-1.18,0-1.97-.72-1.97-1.9s.83-1.75,1.89-1.96l2.06-.39v-.33c0-.96-.44-1.39-1.25-1.39-.74,0-1.38.4-1.38,1.23h-1.14c.04-1.3,1.03-2.3,2.52-2.3s2.41.86,2.41,2.42ZM500.09,42.73c0,.54.38.84,1.03.84.56,0,1.06-.24,1.37-.67.23-.31.39-.78.39-1.25v-.25l-1.85.4c-.51.12-.94.32-.94.92Z" style="fill: #1a1a1a; stroke-width: 0px;"/>
        <path d="M505.92,44.5v-9.78h1.15v9.78h-1.15Z" style="fill: #1a1a1a; stroke-width: 0px;"/>
        <path d="M509.08,44.5v-9.78h1.15v9.78h-1.15Z" style="fill: #1a1a1a; stroke-width: 0px;"/>
        <path d="M512.84,47.38l1.12-2.97-2.53-6.66h1.23l1.78,4.85.13.51.13-.51,1.78-4.85h1.25l-3.68,9.63h-1.22Z" style="fill: #1a1a1a; stroke-width: 0px;"/>
        <path d="M527.48,41.58h-5.12c.08,1.25.92,2,2.08,2,.9,0,1.55-.39,1.82-1.1h1.15c-.4,1.34-1.45,2.17-3,2.17-1.9,0-3.26-1.38-3.26-3.51s1.29-3.54,3.26-3.54c1.77,0,3.07,1.15,3.07,3.43v.55ZM526.31,40.55c-.01-1.15-.78-1.88-1.9-1.88s-1.92.79-2.05,1.88h3.95Z" style="fill: #1a1a1a; stroke-width: 0px;"/>
        <path d="M533.68,40.03v4.47h-1.04l-.05-.92c-.33.6-1.06,1.07-2.05,1.07-1.18,0-1.97-.72-1.97-1.9s.83-1.75,1.89-1.96l2.06-.39v-.33c0-.96-.44-1.39-1.25-1.39-.74,0-1.38.4-1.38,1.23h-1.14c.04-1.3,1.03-2.3,2.52-2.3s2.41.86,2.41,2.42ZM529.73,42.73c0,.54.38.84,1.03.84.56,0,1.06-.24,1.37-.67.23-.31.39-.78.39-1.25v-.25l-1.85.4c-.51.12-.94.32-.94.92Z" style="fill: #1a1a1a; stroke-width: 0px;"/>
        <path d="M537.41,39.33c-.36.33-.6.86-.62,1.59v3.58h-1.15v-6.75h1.03l.08,1.18c.23-.62.86-1.25,2.02-1.25v1.15c-.54,0-.99.15-1.37.5Z" style="fill: #1a1a1a; stroke-width: 0px;"/>
        <path d="M540.09,44.5v-9.78h1.15v9.78h-1.15Z" style="fill: #1a1a1a; stroke-width: 0px;"/>
        <path d="M543.85,47.38l1.12-2.97-2.53-6.66h1.23l1.78,4.85.13.51.13-.51,1.78-4.85h1.25l-3.68,9.63h-1.22Z" style="fill: #1a1a1a; stroke-width: 0px;"/>
      </g>
      <g style="isolation: isolate;">
        <path d="M310.77,51.67c0,.43-.36.78-.8.78s-.79-.35-.79-.78.35-.79.79-.79.8.35.8.79ZM309.39,60.5v-6.75h1.15v6.75h-1.15Z" style="fill: #1a1a1a; stroke-width: 0px;"/>
        <path d="M317.8,56.13v4.37h-1.17v-4.18c0-1.04-.5-1.59-1.31-1.59-.88,0-1.57.78-1.57,2.16v3.62h-1.15v-6.75h1.03l.07.92c.31-.59.95-1.07,1.9-1.07,1.45,0,2.2,1.04,2.2,2.53Z" style="fill: #1a1a1a; stroke-width: 0px;"/>
        <path d="M323.02,50.76v1.05c-.23-.09-.47-.16-.82-.16-.59,0-.95.35-.95,1.1v1h1.67v1.06h-1.67v5.69h-1.17v-5.69h-1.22v-1.06h1.22v-1.03c0-1.34.74-2.12,2.02-2.12.4,0,.72.08.91.16Z" style="fill: #1a1a1a; stroke-width: 0px;"/>
        <path d="M324.12,60.5v-9.78h1.15v9.78h-1.15Z" style="fill: #1a1a1a; stroke-width: 0px;"/>
        <path d="M331.29,60.5l-.07-.92c-.31.64-.92,1.07-1.86,1.07-1.46,0-2.17-1.03-2.17-2.53v-4.37h1.15v4.18c0,1.06.47,1.61,1.29,1.61.87,0,1.54-.74,1.54-2.04v-3.75h1.15v6.75h-1.03Z" style="fill: #1a1a1a; stroke-width: 0px;"/>
        <path d="M340.11,57.58h-5.12c.08,1.25.92,2,2.08,2,.9,0,1.55-.39,1.82-1.1h1.15c-.4,1.34-1.45,2.17-3,2.17-1.9,0-3.26-1.38-3.26-3.51s1.29-3.54,3.26-3.54c1.77,0,3.07,1.15,3.07,3.43v.55ZM338.94,56.55c-.01-1.15-.78-1.88-1.9-1.88s-1.92.79-2.05,1.88h3.95Z" style="fill: #1a1a1a; stroke-width: 0px;"/>
        <path d="M346.79,56.13v4.37h-1.17v-4.18c0-1.04-.5-1.59-1.31-1.59-.88,0-1.57.78-1.57,2.16v3.62h-1.15v-6.75h1.03l.07.92c.31-.59.95-1.07,1.9-1.07,1.45,0,2.2,1.04,2.2,2.53Z" style="fill: #1a1a1a; stroke-width: 0px;"/>
        <path d="M349.69,59.47h3.8v1.03h-5.35v-.88l3.59-4.84h-3.56v-1.03h5.1v.88l-3.59,4.84Z" style="fill: #1a1a1a; stroke-width: 0px;"/>
        <path d="M359.54,56.03v4.47h-1.04l-.05-.92c-.33.6-1.06,1.07-2.05,1.07-1.18,0-1.97-.72-1.97-1.9s.83-1.75,1.89-1.96l2.06-.39v-.33c0-.96-.44-1.39-1.25-1.39-.74,0-1.38.4-1.38,1.23h-1.14c.04-1.3,1.03-2.3,2.52-2.3s2.41.86,2.41,2.42ZM355.58,58.73c0,.54.38.84,1.03.84.56,0,1.06-.24,1.37-.67.23-.31.39-.78.39-1.25v-.25l-1.85.4c-.51.12-.94.32-.94.92Z" style="fill: #1a1a1a; stroke-width: 0px;"/>
        <path d="M368.86,56.03v4.47h-1.04l-.05-.92c-.33.6-1.06,1.07-2.05,1.07-1.18,0-1.97-.72-1.97-1.9s.83-1.75,1.89-1.96l2.06-.39v-.33c0-.96-.44-1.39-1.25-1.39-.74,0-1.38.4-1.38,1.23h-1.14c.04-1.3,1.03-2.3,2.52-2.3s2.41.86,2.41,2.42ZM364.91,58.73c0,.54.38.84,1.03.84.56,0,1.06-.24,1.37-.67.23-.31.39-.78.39-1.25v-.25l-1.85.4c-.51.12-.94.32-.94.92Z" style="fill: #1a1a1a; stroke-width: 0px;"/>
        <path d="M376.47,55.85h-1.15c-.27-.75-.96-1.18-1.83-1.18-1.21,0-2.1,1.03-2.1,2.47s.9,2.44,2.13,2.44c.86,0,1.57-.46,1.81-1.18h1.17c-.36,1.47-1.54,2.25-3.01,2.25-1.9,0-3.28-1.47-3.28-3.51s1.38-3.54,3.28-3.54c1.49,0,2.68.78,3,2.25Z" style="fill: #1a1a1a; stroke-width: 0px;"/>
        <path d="M381.2,53.75v1.07h-1.74l-.03,3.62c0,.74.19,1.1.96,1.1.38,0,.6-.05.8-.12v1.03c-.2.08-.51.15-1,.15-1.27,0-1.93-.56-1.92-1.94l.03-3.83h-1.26v-1.07h1.26v-1.69h1.18v1.69s1.71,0,1.71,0Z" style="fill: #1a1a1a; stroke-width: 0px;"/>
        <path d="M384.03,51.67c0,.43-.36.78-.8.78s-.79-.35-.79-.78.35-.79.79-.79.8.35.8.79ZM382.65,60.5v-6.75h1.15v6.75h-1.15Z" style="fill: #1a1a1a; stroke-width: 0px;"/>
        <path d="M387.62,60.5l-2.57-6.75h1.23l1.78,4.85.13.51.13-.51,1.78-4.85h1.25l-2.59,6.75h-1.15Z" style="fill: #1a1a1a; stroke-width: 0px;"/>
        <path d="M393.97,51.67c0,.43-.36.78-.8.78s-.79-.35-.79-.78.35-.79.79-.79.8.35.8.79ZM392.59,60.5v-6.75h1.15v6.75h-1.15Z" style="fill: #1a1a1a; stroke-width: 0px;"/>
        <path d="M399.05,53.75v1.07h-1.74l-.03,3.62c0,.74.19,1.1.96,1.1.38,0,.6-.05.8-.12v1.03c-.2.08-.51.15-1,.15-1.27,0-1.93-.56-1.92-1.94l.03-3.83h-1.26v-1.07h1.26v-1.69h1.18v1.69s1.71,0,1.71,0Z" style="fill: #1a1a1a; stroke-width: 0px;"/>
        <path d="M401.06,63.38l1.12-2.97-2.53-6.66h1.23l1.78,4.85.13.51.13-.51,1.78-4.85h1.25l-3.68,9.63h-1.22Z" style="fill: #1a1a1a; stroke-width: 0px;"/>
        <path d="M415.65,55.85h-1.15c-.27-.75-.96-1.18-1.83-1.18-1.21,0-2.1,1.03-2.1,2.47s.9,2.44,2.13,2.44c.86,0,1.57-.46,1.81-1.18h1.17c-.36,1.47-1.54,2.25-3.01,2.25-1.9,0-3.28-1.47-3.28-3.51s1.38-3.54,3.28-3.54c1.49,0,2.68.78,3,2.25Z" style="fill: #1a1a1a; stroke-width: 0px;"/>
        <path d="M423.45,57.12c0,2.05-1.41,3.52-3.42,3.52s-3.43-1.47-3.43-3.52,1.41-3.52,3.43-3.52,3.42,1.47,3.42,3.52ZM417.8,57.12c0,1.39.9,2.45,2.25,2.45s2.21-1.06,2.21-2.45-.87-2.45-2.21-2.45-2.25,1.04-2.25,2.45Z" style="fill: #1a1a1a; stroke-width: 0px;"/>
        <path d="M430.15,56.13v4.37h-1.17v-4.18c0-1.04-.5-1.59-1.31-1.59-.88,0-1.57.78-1.57,2.16v3.62h-1.15v-6.75h1.03l.07.92c.31-.59.95-1.07,1.9-1.07,1.45,0,2.2,1.04,2.2,2.53Z" style="fill: #1a1a1a; stroke-width: 0px;"/>
        <path d="M435.31,53.75v1.07h-1.74l-.03,3.62c0,.74.19,1.1.96,1.1.38,0,.6-.05.8-.12v1.03c-.2.08-.51.15-1,.15-1.27,0-1.93-.56-1.92-1.94l.03-3.83h-1.26v-1.07h1.26v-1.69h1.18v1.69s1.71,0,1.71,0Z" style="fill: #1a1a1a; stroke-width: 0px;"/>
        <path d="M438.57,55.33c-.36.33-.6.86-.62,1.59v3.58h-1.15v-6.75h1.03l.08,1.18c.23-.62.86-1.25,2.02-1.25v1.15c-.54,0-.99.15-1.37.5Z" style="fill: #1a1a1a; stroke-width: 0px;"/>
        <path d="M442.67,51.67c0,.43-.36.78-.8.78s-.79-.35-.79-.78.35-.79.79-.79.8.35.8.79ZM441.29,60.5v-6.75h1.15v6.75h-1.15Z" style="fill: #1a1a1a; stroke-width: 0px;"/>
        <path d="M447.89,53.6c1.9,0,3.16,1.53,3.16,3.52s-1.25,3.52-3.15,3.52c-1.22,0-1.9-.54-2.32-1.14l-.07.99h-1.03v-9.78h1.15v3.95c.38-.58,1.12-1.07,2.25-1.07ZM445.63,57.12v.07c0,1.46,1,2.37,2.1,2.37,1.29,0,2.13-1,2.13-2.44s-.88-2.42-2.14-2.42c-1.07,0-2.09.92-2.09,2.42Z" style="fill: #1a1a1a; stroke-width: 0px;"/>
        <path d="M456.52,60.5l-.07-.92c-.31.64-.92,1.07-1.86,1.07-1.46,0-2.17-1.03-2.17-2.53v-4.37h1.15v4.18c0,1.06.47,1.61,1.29,1.61.87,0,1.54-.74,1.54-2.04v-3.75h1.15v6.75h-1.03Z" style="fill: #1a1a1a; stroke-width: 0px;"/>
        <path d="M462.82,53.75v1.07h-1.74l-.03,3.62c0,.74.19,1.1.96,1.1.38,0,.6-.05.8-.12v1.03c-.2.08-.51.15-1,.15-1.27,0-1.93-.56-1.92-1.94l.03-3.83h-1.26v-1.07h1.26v-1.69h1.18v1.69s1.71,0,1.71,0Z" style="fill: #1a1a1a; stroke-width: 0px;"/>
        <path d="M470,57.58h-5.12c.08,1.25.92,2,2.08,2,.9,0,1.55-.39,1.82-1.1h1.15c-.4,1.34-1.45,2.17-3,2.17-1.9,0-3.26-1.38-3.26-3.51s1.29-3.54,3.26-3.54c1.77,0,3.07,1.15,3.07,3.43v.55ZM468.84,56.55c-.01-1.15-.78-1.88-1.9-1.88s-1.92.79-2.05,1.88h3.95Z" style="fill: #1a1a1a; stroke-width: 0px;"/>
        <path d="M476.56,60.5l-.07-.99c-.42.6-1.1,1.14-2.32,1.14-1.9,0-3.15-1.53-3.15-3.52s1.26-3.52,3.16-3.52c1.13,0,1.88.5,2.25,1.07v-3.95h1.15v9.78h-1.03ZM472.22,57.12c0,1.43.84,2.44,2.13,2.44,1.1,0,2.1-.91,2.1-2.37v-.07c0-1.5-1.02-2.42-2.09-2.42-1.26,0-2.14,1-2.14,2.42Z" style="fill: #1a1a1a; stroke-width: 0px;"/>
        <path d="M485.59,53.75v1.07h-1.74l-.03,3.62c0,.74.19,1.1.96,1.1.38,0,.6-.05.8-.12v1.03c-.2.08-.51.15-1,.15-1.27,0-1.93-.56-1.92-1.94l.03-3.83h-1.26v-1.07h1.26v-1.69h1.18v1.69s1.71,0,1.71,0Z" style="fill: #1a1a1a; stroke-width: 0px;"/>
        <path d="M493.29,57.12c0,2.05-1.41,3.52-3.42,3.52s-3.43-1.47-3.43-3.52,1.41-3.52,3.43-3.52,3.42,1.47,3.42,3.52ZM487.64,57.12c0,1.39.9,2.45,2.25,2.45s2.21-1.06,2.21-2.45-.87-2.45-2.21-2.45-2.25,1.04-2.25,2.45Z" style="fill: #1a1a1a; stroke-width: 0px;"/>
        <path d="M500.5,53.6c1.45,0,2.2,1.04,2.2,2.53v4.37h-1.17v-4.18c0-1.04-.5-1.59-1.31-1.59-.88,0-1.57.78-1.57,2.16v3.62h-1.15v-9.78h1.15v3.87c.25-.52.87-.99,1.85-.99Z" style="fill: #1a1a1a; stroke-width: 0px;"/>
        <path d="M506.02,51.67c0,.43-.36.78-.8.78s-.79-.35-.79-.78.35-.79.79-.79.8.35.8.79ZM504.64,60.5v-6.75h1.15v6.75h-1.15Z" style="fill: #1a1a1a; stroke-width: 0px;"/>
        <path d="M513.61,54.77h-1.17c.2.36.32.79.32,1.26,0,1.34-1,2.4-2.57,2.4-.56,0-1.06-.13-1.45-.36-.16.15-.28.38-.28.67,0,.44.35.68.86.68h1.79c1.43,0,2.13.71,2.13,1.83,0,1.43-1.08,2.28-2.81,2.28-1.92,0-2.95-.78-2.95-2.1,0-.64.35-1,.74-1.22-.46-.23-.9-.72-.9-1.41,0-.62.31-1.09.7-1.38-.28-.39-.43-.87-.43-1.39,0-1.39,1.02-2.42,2.6-2.42.35,0,.67.05.96.15h2.45v1.02ZM508.62,61.38c0,.74.67,1.13,1.81,1.13,1.04,0,1.67-.4,1.67-1.21,0-.63-.47-.87-1.22-.87h-1.29c-.51.03-.98.29-.98.95ZM511.62,56.03c0-.8-.55-1.41-1.45-1.41s-1.45.6-1.45,1.41.56,1.38,1.45,1.38,1.45-.6,1.45-1.38Z" style="fill: #1a1a1a; stroke-width: 0px;"/>
        <path d="M517.53,53.6c1.45,0,2.2,1.04,2.2,2.53v4.37h-1.17v-4.18c0-1.04-.5-1.59-1.31-1.59-.88,0-1.57.78-1.57,2.16v3.62h-1.15v-9.78h1.15v3.87c.25-.52.87-.99,1.85-.99Z" style="fill: #1a1a1a; stroke-width: 0px;"/>
        <path d="M529.57,56.13v4.37h-1.17v-4.18c0-1.04-.5-1.59-1.31-1.59-.88,0-1.57.78-1.57,2.16v3.62h-1.15v-6.75h1.03l.07.92c.31-.59.95-1.07,1.9-1.07,1.45,0,2.2,1.04,2.2,2.53Z" style="fill: #1a1a1a; stroke-width: 0px;"/>
        <path d="M535.48,60.5l-.07-.92c-.31.64-.92,1.07-1.86,1.07-1.46,0-2.17-1.03-2.17-2.53v-4.37h1.15v4.18c0,1.06.47,1.61,1.29,1.61.87,0,1.54-.74,1.54-2.04v-3.75h1.15v6.75h-1.03Z" style="fill: #1a1a1a; stroke-width: 0px;"/>
        <path d="M547.68,56.13v4.37h-1.15v-4.18c0-1.04-.48-1.59-1.3-1.59-.88,0-1.55.78-1.55,2.16v3.62h-1.15v-4.18c0-1.04-.48-1.59-1.3-1.59-.88,0-1.55.78-1.55,2.16v3.62h-1.15v-6.75h1.03l.07.92c.31-.59.95-1.07,1.88-1.07,1,0,1.66.5,1.97,1.29.35-.67.99-1.29,2.04-1.29,1.46,0,2.18,1.04,2.18,2.53Z" style="fill: #1a1a1a; stroke-width: 0px;"/>
        <path d="M552.99,53.6c1.9,0,3.16,1.53,3.16,3.52s-1.25,3.52-3.15,3.52c-1.22,0-1.9-.54-2.32-1.14l-.07.99h-1.03v-9.78h1.15v3.95c.38-.58,1.13-1.07,2.25-1.07ZM550.72,57.12v.07c0,1.46,1,2.37,2.1,2.37,1.29,0,2.13-1,2.13-2.44s-.88-2.42-2.14-2.42c-1.07,0-2.09.92-2.09,2.42Z" style="fill: #1a1a1a; stroke-width: 0px;"/>
        <path d="M563.52,57.58h-5.12c.08,1.25.92,2,2.08,2,.9,0,1.55-.39,1.82-1.1h1.15c-.4,1.34-1.45,2.17-3,2.17-1.9,0-3.25-1.38-3.25-3.51s1.29-3.54,3.25-3.54c1.77,0,3.07,1.15,3.07,3.43v.55ZM562.35,56.55c-.01-1.15-.78-1.88-1.9-1.88s-1.92.79-2.05,1.88h3.95Z" style="fill: #1a1a1a; stroke-width: 0px;"/>
        <path d="M566.86,55.33c-.36.33-.6.86-.62,1.59v3.58h-1.15v-6.75h1.03l.08,1.18c.23-.62.86-1.25,2.02-1.25v1.15c-.54,0-.99.15-1.37.5Z" style="fill: #1a1a1a; stroke-width: 0px;"/>
      </g>
      <g style="isolation: isolate;">
        <path d="M315.65,73.22c0,2.05-1.41,3.52-3.42,3.52s-3.43-1.47-3.43-3.52,1.41-3.52,3.43-3.52,3.42,1.47,3.42,3.52ZM310,73.22c0,1.39.9,2.45,2.25,2.45s2.21-1.06,2.21-2.45-.87-2.45-2.21-2.45-2.25,1.04-2.25,2.45Z" style="fill: #1a1a1a; stroke-width: 0px;"/>
        <path d="M320.45,66.86v1.05c-.23-.09-.47-.16-.82-.16-.59,0-.95.35-.95,1.1v1h1.67v1.06h-1.67v5.69h-1.17v-5.69h-1.22v-1.06h1.22v-1.03c0-1.34.74-2.12,2.02-2.12.4,0,.72.08.91.16Z" style="fill: #1a1a1a; stroke-width: 0px;"/>
        <path d="M327.28,69.7c1.45,0,2.2,1.04,2.2,2.53v4.37h-1.17v-4.18c0-1.04-.5-1.59-1.31-1.59-.88,0-1.57.78-1.57,2.16v3.62h-1.15v-9.78h1.15v3.87c.25-.52.87-.99,1.85-.99Z" style="fill: #1a1a1a; stroke-width: 0px;"/>
        <path d="M337.68,73.22c0,2.05-1.41,3.52-3.42,3.52s-3.43-1.47-3.43-3.52,1.41-3.52,3.43-3.52,3.42,1.47,3.42,3.52ZM332.03,73.22c0,1.39.9,2.45,2.25,2.45s2.21-1.06,2.21-2.45-.87-2.45-2.21-2.45-2.25,1.04-2.25,2.45Z" style="fill: #1a1a1a; stroke-width: 0px;"/>
        <path d="M343.3,71.83h-1.18c-.01-.71-.35-1.06-1.07-1.06s-1.03.42-1.03.91c0,.52.27.74,1.27.98,1.61.38,2.21.94,2.21,2.02,0,1.31-1.02,2.06-2.37,2.06-1.57,0-2.44-.88-2.46-2.2h1.18c.01.71.47,1.12,1.31,1.12.78,0,1.17-.39,1.17-.91,0-.56-.29-.83-1.41-1.09-1.41-.32-2.08-.82-2.08-1.93s.78-2.05,2.24-2.05c1.31,0,2.2.86,2.22,2.13Z" style="fill: #1a1a1a; stroke-width: 0px;"/>
        <path d="M351.7,73.22c0,2-1.26,3.52-3.16,3.52-1.13,0-1.88-.5-2.24-1.07v3.81h-1.17v-9.63h1.04l.05.99c.42-.6,1.1-1.14,2.32-1.14,1.9,0,3.15,1.53,3.15,3.52ZM346.27,73.16v.07c0,1.5,1.02,2.42,2.09,2.42,1.26,0,2.14-1,2.14-2.42s-.84-2.44-2.13-2.44c-1.1,0-2.1.91-2.1,2.37Z" style="fill: #1a1a1a; stroke-width: 0px;"/>
        <path d="M354.59,67.77c0,.43-.36.78-.8.78s-.79-.35-.79-.78.35-.79.79-.79.8.35.8.79ZM353.21,76.6v-6.75h1.15v6.75h-1.15Z" style="fill: #1a1a1a; stroke-width: 0px;"/>
        <path d="M359.67,69.85v1.07h-1.74l-.03,3.62c0,.74.19,1.1.96,1.1.38,0,.6-.05.8-.12v1.03c-.2.08-.51.15-1,.15-1.27,0-1.93-.56-1.92-1.94l.03-3.83h-1.26v-1.07h1.26v-1.69h1.18v1.69s1.71,0,1.71,0Z" style="fill: #1a1a1a; stroke-width: 0px;"/>
        <path d="M365.79,72.13v4.47h-1.04l-.05-.92c-.33.6-1.06,1.07-2.05,1.07-1.18,0-1.97-.72-1.97-1.9s.83-1.75,1.89-1.96l2.06-.39v-.33c0-.96-.44-1.39-1.25-1.39-.74,0-1.38.4-1.38,1.23h-1.14c.04-1.3,1.03-2.3,2.52-2.3s2.41.86,2.41,2.42ZM361.84,74.83c0,.54.38.84,1.03.84.56,0,1.06-.24,1.37-.67.23-.31.39-.78.39-1.25v-.25l-1.85.4c-.51.12-.94.32-.94.92Z" style="fill: #1a1a1a; stroke-width: 0px;"/>
        <path d="M367.67,76.6v-9.78h1.15v9.78h-1.15Z" style="fill: #1a1a1a; stroke-width: 0px;"/>
        <path d="M372.25,67.77c0,.43-.36.78-.8.78s-.79-.35-.79-.78.35-.79.79-.79.8.35.8.79ZM370.87,76.6v-6.75h1.15v6.75h-1.15Z" style="fill: #1a1a1a; stroke-width: 0px;"/>
        <path d="M375.07,75.57h3.8v1.03h-5.35v-.88l3.59-4.84h-3.56v-1.03h5.1v.88l-3.59,4.84Z" style="fill: #1a1a1a; stroke-width: 0px;"/>
        <path d="M384.91,72.13v4.47h-1.04l-.05-.92c-.33.6-1.06,1.07-2.05,1.07-1.18,0-1.97-.72-1.97-1.9s.83-1.75,1.89-1.96l2.06-.39v-.33c0-.96-.44-1.39-1.25-1.39-.74,0-1.38.4-1.38,1.23h-1.14c.04-1.3,1.03-2.3,2.52-2.3s2.41.86,2.41,2.42ZM380.96,74.83c0,.54.38.84,1.03.84.56,0,1.06-.24,1.37-.67.23-.31.39-.78.39-1.25v-.25l-1.85.4c-.51.12-.94.32-.94.92Z" style="fill: #1a1a1a; stroke-width: 0px;"/>
        <path d="M390.03,69.85v1.07h-1.74l-.03,3.62c0,.74.19,1.1.96,1.1.38,0,.6-.05.8-.12v1.03c-.2.08-.51.15-1,.15-1.27,0-1.93-.56-1.92-1.94l.03-3.83h-1.26v-1.07h1.26v-1.69h1.18v1.69s1.71,0,1.71,0Z" style="fill: #1a1a1a; stroke-width: 0px;"/>
        <path d="M392.86,67.77c0,.43-.36.78-.8.78s-.79-.35-.79-.78.35-.79.79-.79.8.35.8.79ZM391.48,76.6v-6.75h1.15v6.75h-1.15Z" style="fill: #1a1a1a; stroke-width: 0px;"/>
        <path d="M400.98,73.22c0,2.05-1.41,3.52-3.42,3.52s-3.43-1.47-3.43-3.52,1.41-3.52,3.43-3.52,3.42,1.47,3.42,3.52ZM395.33,73.22c0,1.39.9,2.45,2.25,2.45s2.21-1.06,2.21-2.45-.87-2.45-2.21-2.45-2.25,1.04-2.25,2.45Z" style="fill: #1a1a1a; stroke-width: 0px;"/>
        <path d="M407.68,72.23v4.37h-1.17v-4.18c0-1.04-.5-1.59-1.31-1.59-.88,0-1.57.78-1.57,2.16v3.62h-1.15v-6.75h1.03l.07.92c.31-.59.95-1.07,1.9-1.07,1.45,0,2.2,1.04,2.2,2.53Z" style="fill: #1a1a1a; stroke-width: 0px;"/>
        <path d="M413.72,71.83h-1.18c-.01-.71-.35-1.06-1.07-1.06s-1.03.42-1.03.91c0,.52.27.74,1.27.98,1.61.38,2.21.94,2.21,2.02,0,1.31-1.02,2.06-2.37,2.06-1.57,0-2.44-.88-2.46-2.2h1.18c.01.71.47,1.12,1.31,1.12.78,0,1.17-.39,1.17-.91,0-.56-.29-.83-1.41-1.09-1.41-.32-2.08-.82-2.08-1.93s.78-2.05,2.24-2.05c1.31,0,2.2.86,2.22,2.13Z" style="fill: #1a1a1a; stroke-width: 0px;"/>
        <path d="M419.62,67.77c0,.43-.36.78-.8.78s-.79-.35-.79-.78.35-.79.79-.79.8.35.8.79ZM418.24,76.6v-6.75h1.15v6.75h-1.15Z" style="fill: #1a1a1a; stroke-width: 0px;"/>
        <path d="M426.64,72.23v4.37h-1.17v-4.18c0-1.04-.5-1.59-1.31-1.59-.88,0-1.57.78-1.57,2.16v3.62h-1.15v-6.75h1.03l.07.92c.31-.59.95-1.07,1.9-1.07,1.45,0,2.2,1.04,2.2,2.53Z" style="fill: #1a1a1a; stroke-width: 0px;"/>
        <path d="M434.53,69.85v1.07h-1.74l-.03,3.62c0,.74.19,1.1.96,1.1.38,0,.6-.05.8-.12v1.03c-.2.08-.51.15-1,.15-1.27,0-1.93-.56-1.92-1.94l.03-3.83h-1.26v-1.07h1.26v-1.69h1.18v1.69s1.71,0,1.71,0Z" style="fill: #1a1a1a; stroke-width: 0px;"/>
        <path d="M438.94,69.7c1.45,0,2.2,1.04,2.2,2.53v4.37h-1.17v-4.18c0-1.04-.5-1.59-1.31-1.59-.88,0-1.57.78-1.57,2.16v3.62h-1.15v-9.78h1.15v3.87c.25-.52.87-.99,1.85-.99Z" style="fill: #1a1a1a; stroke-width: 0px;"/>
        <path d="M448.82,73.68h-5.12c.08,1.25.92,2,2.08,2,.9,0,1.55-.39,1.82-1.1h1.15c-.4,1.34-1.45,2.17-3,2.17-1.9,0-3.25-1.38-3.25-3.51s1.29-3.54,3.25-3.54c1.77,0,3.07,1.15,3.07,3.43v.55ZM447.65,72.65c-.01-1.15-.78-1.88-1.9-1.88s-1.92.79-2.05,1.88h3.95Z" style="fill: #1a1a1a; stroke-width: 0px;"/>
        <path d="M457.94,69.65c0,1.08-.48,1.9-1.14,2.75l-2.4,3.07h3.68v1.14h-5.36v-.9l3.01-3.8c.67-.84.96-1.39.96-2.21,0-.96-.46-1.5-1.39-1.5-.84,0-1.46.54-1.46,1.74h-1.22c0-1.77,1.04-2.88,2.69-2.88s2.61,1.03,2.61,2.6Z" style="fill: #1a1a1a; stroke-width: 0px;"/>
        <path d="M465.41,71.9c0,2.96-1.12,4.88-3.15,4.88s-3.15-1.92-3.15-4.88,1.11-4.85,3.15-4.85,3.15,1.9,3.15,4.85ZM460.34,71.9c0,2.29.64,3.74,1.92,3.74s1.9-1.45,1.9-3.74-.64-3.71-1.9-3.71-1.92,1.43-1.92,3.71Z" style="fill: #1a1a1a; stroke-width: 0px;"/>
        <path d="M471.88,69.65c0,1.08-.48,1.9-1.14,2.75l-2.4,3.07h3.68v1.14h-5.36v-.9l3.01-3.8c.67-.84.96-1.39.96-2.21,0-.96-.46-1.5-1.39-1.5-.84,0-1.46.54-1.46,1.74h-1.22c0-1.77,1.04-2.88,2.69-2.88s2.61,1.03,2.61,2.6Z" style="fill: #1a1a1a; stroke-width: 0px;"/>
        <path d="M478.38,69.65c0,1.08-.48,1.9-1.14,2.75l-2.4,3.07h3.68v1.14h-5.36v-.9l3.01-3.8c.67-.84.96-1.39.96-2.21,0-.96-.46-1.5-1.39-1.5-.84,0-1.46.54-1.46,1.74h-1.22c0-1.77,1.04-2.88,2.69-2.88s2.61,1.03,2.61,2.6Z" style="fill: #1a1a1a; stroke-width: 0px;"/>
        <path d="M479.21,73.64v-1.03h4.22v1.03h-4.22Z" style="fill: #1a1a1a; stroke-width: 0px;"/>
        <path d="M489.49,69.65c0,1.08-.48,1.9-1.14,2.75l-2.4,3.07h3.68v1.14h-5.36v-.9l3.01-3.8c.67-.84.96-1.39.96-2.21,0-.96-.46-1.5-1.39-1.5-.84,0-1.46.54-1.46,1.74h-1.22c0-1.77,1.04-2.88,2.69-2.88s2.61,1.03,2.61,2.6Z" style="fill: #1a1a1a; stroke-width: 0px;"/>
        <path d="M496.95,71.9c0,2.96-1.12,4.88-3.15,4.88s-3.15-1.92-3.15-4.88,1.11-4.85,3.15-4.85,3.15,1.9,3.15,4.85ZM491.89,71.9c0,2.29.64,3.74,1.92,3.74s1.9-1.45,1.9-3.74-.64-3.71-1.9-3.71-1.92,1.43-1.92,3.71Z" style="fill: #1a1a1a; stroke-width: 0px;"/>
        <path d="M503.42,69.65c0,1.08-.48,1.9-1.14,2.75l-2.4,3.07h3.68v1.14h-5.36v-.9l3.01-3.8c.67-.84.96-1.39.96-2.21,0-.96-.46-1.5-1.39-1.5-.84,0-1.46.54-1.46,1.74h-1.22c0-1.77,1.04-2.88,2.69-2.88s2.61,1.03,2.61,2.6Z" style="fill: #1a1a1a; stroke-width: 0px;"/>
        <path d="M510.14,69.69c0,1.19-.68,1.84-1.31,2.05.82.21,1.63.98,1.63,2.32,0,1.61-1.17,2.72-2.91,2.72s-2.96-1.04-2.96-2.87h1.21c.01,1.22.78,1.73,1.78,1.73s1.65-.63,1.65-1.62c0-1.12-.8-1.73-2.21-1.73h-.31v-1.07h.29c1.31,0,1.9-.46,1.9-1.5,0-.92-.48-1.53-1.41-1.53-.82,0-1.49.51-1.49,1.69h-1.22c0-1.74,1.06-2.83,2.69-2.83s2.65,1.17,2.65,2.64Z" style="fill: #1a1a1a; stroke-width: 0px;"/>
        <path d="M518.99,71.83h-1.18c-.01-.71-.35-1.06-1.07-1.06s-1.03.42-1.03.91c0,.52.27.74,1.27.98,1.61.38,2.21.94,2.21,2.02,0,1.31-1.02,2.06-2.37,2.06-1.57,0-2.44-.88-2.46-2.2h1.18c.01.71.47,1.12,1.31,1.12.78,0,1.17-.39,1.17-.91,0-.56-.29-.83-1.41-1.09-1.41-.32-2.08-.82-2.08-1.93s.78-2.05,2.24-2.05c1.31,0,2.2.86,2.22,2.13Z" style="fill: #1a1a1a; stroke-width: 0px;"/>
        <path d="M526.51,73.68h-5.12c.08,1.25.92,2,2.08,2,.9,0,1.55-.39,1.82-1.1h1.15c-.4,1.34-1.45,2.17-3,2.17-1.9,0-3.26-1.38-3.26-3.51s1.29-3.54,3.26-3.54c1.77,0,3.07,1.15,3.07,3.43v.55ZM525.34,72.65c-.01-1.15-.78-1.88-1.9-1.88s-1.92.79-2.05,1.88h3.95Z" style="fill: #1a1a1a; stroke-width: 0px;"/>
        <path d="M532.71,72.13v4.47h-1.04l-.05-.92c-.33.6-1.06,1.07-2.05,1.07-1.18,0-1.97-.72-1.97-1.9s.83-1.75,1.89-1.96l2.06-.39v-.33c0-.96-.44-1.39-1.25-1.39-.74,0-1.38.4-1.38,1.23h-1.14c.04-1.3,1.03-2.3,2.52-2.3s2.41.86,2.41,2.42ZM528.76,74.83c0,.54.38.84,1.03.84.56,0,1.06-.24,1.37-.67.23-.31.39-.78.39-1.25v-.25l-1.85.4c-.51.12-.94.32-.94.92Z" style="fill: #1a1a1a; stroke-width: 0px;"/>
        <path d="M538.73,71.83h-1.18c-.01-.71-.35-1.06-1.07-1.06s-1.03.42-1.03.91c0,.52.27.74,1.27.98,1.61.38,2.21.94,2.21,2.02,0,1.31-1.02,2.06-2.37,2.06-1.57,0-2.44-.88-2.46-2.2h1.18c.01.71.47,1.12,1.31,1.12.78,0,1.17-.39,1.17-.91,0-.56-.29-.83-1.41-1.09-1.41-.32-2.08-.82-2.08-1.93s.78-2.05,2.24-2.05c1.31,0,2.2.86,2.22,2.13Z" style="fill: #1a1a1a; stroke-width: 0px;"/>
        <path d="M546.77,73.22c0,2.05-1.41,3.52-3.42,3.52s-3.43-1.47-3.43-3.52,1.41-3.52,3.43-3.52,3.42,1.47,3.42,3.52ZM541.12,73.22c0,1.39.9,2.45,2.25,2.45s2.21-1.06,2.21-2.45-.87-2.45-2.21-2.45-2.25,1.04-2.25,2.45Z" style="fill: #1a1a1a; stroke-width: 0px;"/>
        <path d="M553.47,72.23v4.37h-1.17v-4.18c0-1.04-.5-1.59-1.31-1.59-.88,0-1.57.78-1.57,2.16v3.62h-1.15v-6.75h1.03l.07.92c.31-.59.95-1.07,1.9-1.07,1.45,0,2.2,1.04,2.2,2.53Z" style="fill: #1a1a1a; stroke-width: 0px;"/>
        <path d="M556.49,76c0,.83-.43,1.74-.98,2.36l-.38-.15c.27-.47.4-.96.47-1.51-.42-.04-.72-.33-.72-.78s.35-.79.8-.79.8.33.8.87Z" style="fill: #1a1a1a; stroke-width: 0px;"/>
      </g>
      <g style="isolation: isolate;">
        <path d="M316.01,89.22c0,2-1.26,3.52-3.16,3.52-1.13,0-1.88-.5-2.24-1.07v3.81h-1.17v-9.63h1.04l.05.99c.42-.6,1.1-1.14,2.32-1.14,1.9,0,3.15,1.53,3.15,3.52ZM310.59,89.16v.07c0,1.5,1.02,2.42,2.09,2.42,1.26,0,2.14-1,2.14-2.42s-.84-2.44-2.13-2.44c-1.1,0-2.1.91-2.1,2.37Z" style="fill: #1a1a1a; stroke-width: 0px;"/>
        <path d="M322.2,88.13v4.47h-1.04l-.05-.92c-.33.6-1.06,1.07-2.05,1.07-1.18,0-1.97-.72-1.97-1.9s.83-1.75,1.89-1.96l2.06-.39v-.33c0-.96-.44-1.39-1.25-1.39-.74,0-1.38.4-1.38,1.23h-1.14c.04-1.3,1.03-2.3,2.52-2.3s2.41.86,2.41,2.42ZM318.25,90.83c0,.54.38.84,1.03.84.56,0,1.06-.24,1.37-.67.23-.31.39-.78.39-1.25v-.25l-1.85.4c-.51.12-.94.32-.94.92Z" style="fill: #1a1a1a; stroke-width: 0px;"/>
        <path d="M325.93,87.43c-.36.33-.6.86-.62,1.59v3.58h-1.15v-6.75h1.03l.08,1.18c.23-.62.86-1.25,2.02-1.25v1.15c-.54,0-.99.15-1.37.5Z" style="fill: #1a1a1a; stroke-width: 0px;"/>
        <path d="M331.95,85.85v1.07h-1.74l-.03,3.62c0,.74.19,1.1.96,1.1.38,0,.6-.05.8-.12v1.03c-.2.08-.51.15-1,.15-1.27,0-1.93-.56-1.92-1.94l.03-3.83h-1.26v-1.07h1.26v-1.69h1.18v1.69s1.71,0,1.71,0Z" style="fill: #1a1a1a; stroke-width: 0px;"/>
        <path d="M334.77,83.77c0,.43-.36.78-.8.78s-.79-.35-.79-.78.35-.79.79-.79.8.35.8.79ZM333.39,92.6v-6.75h1.15v6.75h-1.15Z" style="fill: #1a1a1a; stroke-width: 0px;"/>
        <path d="M342.33,87.95h-1.15c-.27-.75-.96-1.18-1.83-1.18-1.21,0-2.1,1.03-2.1,2.47s.9,2.44,2.13,2.44c.86,0,1.57-.46,1.81-1.18h1.17c-.36,1.47-1.54,2.25-3.01,2.25-1.9,0-3.28-1.47-3.28-3.51s1.38-3.54,3.28-3.54c1.49,0,2.68.78,3,2.25Z" style="fill: #1a1a1a; stroke-width: 0px;"/>
        <path d="M347.81,92.6l-.07-.92c-.31.64-.92,1.07-1.86,1.07-1.46,0-2.17-1.03-2.17-2.53v-4.37h1.15v4.18c0,1.06.47,1.61,1.29,1.61.87,0,1.54-.74,1.54-2.04v-3.75h1.15v6.75h-1.03Z" style="fill: #1a1a1a; stroke-width: 0px;"/>
        <path d="M350.85,92.6v-9.78h1.15v9.78h-1.15Z" style="fill: #1a1a1a; stroke-width: 0px;"/>
        <path d="M358.73,88.13v4.47h-1.04l-.05-.92c-.34.6-1.06,1.07-2.05,1.07-1.18,0-1.97-.72-1.97-1.9s.83-1.75,1.89-1.96l2.06-.39v-.33c0-.96-.44-1.39-1.25-1.39-.74,0-1.38.4-1.38,1.23h-1.14c.04-1.3,1.03-2.3,2.52-2.3s2.41.86,2.41,2.42ZM354.78,90.83c0,.54.38.84,1.03.84.56,0,1.06-.24,1.37-.67.23-.31.39-.78.39-1.25v-.25l-1.85.4c-.51.12-.94.32-.94.92Z" style="fill: #1a1a1a; stroke-width: 0px;"/>
        <path d="M362.46,87.43c-.36.33-.6.86-.62,1.59v3.58h-1.15v-6.75h1.03l.08,1.18c.23-.62.86-1.25,2.02-1.25v1.15c-.54,0-.99.15-1.37.5Z" style="fill: #1a1a1a; stroke-width: 0px;"/>
        <path d="M365.14,92.6v-9.78h1.15v9.78h-1.15Z" style="fill: #1a1a1a; stroke-width: 0px;"/>
        <path d="M368.9,95.48l1.12-2.97-2.53-6.66h1.23l1.78,4.85.13.51.13-.51,1.78-4.85h1.25l-3.68,9.63h-1.22Z" style="fill: #1a1a1a; stroke-width: 0px;"/>
        <path d="M382.48,88.13v4.47h-1.04l-.05-.92c-.33.6-1.06,1.07-2.05,1.07-1.18,0-1.97-.72-1.97-1.9s.83-1.75,1.89-1.96l2.06-.39v-.33c0-.96-.44-1.39-1.25-1.39-.74,0-1.38.4-1.38,1.23h-1.14c.04-1.3,1.03-2.3,2.52-2.3s2.41.86,2.41,2.42ZM378.52,90.83c0,.54.38.84,1.03.84.56,0,1.06-.24,1.37-.67.23-.31.39-.78.39-1.25v-.25l-1.85.4c-.51.12-.94.32-.94.92Z" style="fill: #1a1a1a; stroke-width: 0px;"/>
        <path d="M393.52,88.23v4.37h-1.15v-4.18c0-1.04-.48-1.59-1.3-1.59-.88,0-1.55.78-1.55,2.16v3.62h-1.15v-4.18c0-1.04-.48-1.59-1.3-1.59-.88,0-1.55.78-1.55,2.16v3.62h-1.15v-6.75h1.03l.07.92c.31-.59.95-1.07,1.88-1.07,1,0,1.66.5,1.97,1.29.35-.67.99-1.29,2.04-1.29,1.46,0,2.18,1.04,2.18,2.53Z" style="fill: #1a1a1a; stroke-width: 0px;"/>
        <path d="M401.72,89.22c0,2.05-1.41,3.52-3.42,3.52s-3.43-1.47-3.43-3.52,1.41-3.52,3.43-3.52,3.42,1.47,3.42,3.52ZM396.06,89.22c0,1.39.9,2.45,2.25,2.45s2.21-1.06,2.21-2.45-.87-2.45-2.21-2.45-2.25,1.04-2.25,2.45Z" style="fill: #1a1a1a; stroke-width: 0px;"/>
        <path d="M408.42,88.23v4.37h-1.17v-4.18c0-1.04-.5-1.59-1.31-1.59-.88,0-1.57.78-1.57,2.16v3.62h-1.15v-6.75h1.03l.07.92c.31-.59.95-1.07,1.9-1.07,1.45,0,2.2,1.04,2.2,2.53Z" style="fill: #1a1a1a; stroke-width: 0px;"/>
        <path d="M416.08,86.87h-1.17c.2.36.32.79.32,1.26,0,1.34-1,2.4-2.57,2.4-.56,0-1.06-.13-1.45-.36-.16.15-.28.38-.28.67,0,.44.35.68.86.68h1.8c1.43,0,2.13.71,2.13,1.83,0,1.43-1.08,2.28-2.81,2.28-1.92,0-2.95-.78-2.95-2.1,0-.64.35-1,.74-1.22-.46-.23-.9-.72-.9-1.41,0-.62.31-1.09.7-1.38-.28-.39-.43-.87-.43-1.39,0-1.39,1.02-2.42,2.6-2.42.35,0,.67.05.96.15h2.45v1.02ZM411.1,93.48c0,.74.67,1.13,1.81,1.13,1.04,0,1.67-.4,1.67-1.21,0-.63-.47-.87-1.22-.87h-1.29c-.51.03-.98.29-.98.95ZM414.1,88.13c0-.8-.55-1.41-1.45-1.41s-1.45.6-1.45,1.41.56,1.38,1.45,1.38,1.45-.6,1.45-1.38Z" style="fill: #1a1a1a; stroke-width: 0px;"/>
        <path d="M425.48,87.95h-1.15c-.27-.75-.96-1.18-1.83-1.18-1.21,0-2.1,1.03-2.1,2.47s.9,2.44,2.13,2.44c.86,0,1.57-.46,1.81-1.18h1.17c-.36,1.47-1.54,2.25-3.01,2.25-1.9,0-3.28-1.47-3.28-3.51s1.38-3.54,3.28-3.54c1.49,0,2.68.78,3,2.25Z" style="fill: #1a1a1a; stroke-width: 0px;"/>
        <path d="M429.95,85.7c1.45,0,2.2,1.04,2.2,2.53v4.37h-1.17v-4.18c0-1.04-.5-1.59-1.31-1.59-.88,0-1.57.78-1.57,2.16v3.62h-1.15v-9.78h1.15v3.87c.25-.52.87-.99,1.85-.99Z" style="fill: #1a1a1a; stroke-width: 0px;"/>
        <path d="M435.47,83.77c0,.43-.36.78-.8.78s-.79-.35-.79-.78.35-.79.79-.79.8.35.8.79ZM434.09,92.6v-6.75h1.15v6.75h-1.15Z" style="fill: #1a1a1a; stroke-width: 0px;"/>
        <path d="M437.3,92.6v-9.78h1.15v9.78h-1.15Z" style="fill: #1a1a1a; stroke-width: 0px;"/>
        <path d="M445.44,92.6l-.07-.99c-.42.6-1.1,1.14-2.32,1.14-1.9,0-3.15-1.53-3.15-3.52s1.26-3.52,3.16-3.52c1.13,0,1.88.5,2.25,1.07v-3.95h1.15v9.78h-1.03ZM441.1,89.22c0,1.43.84,2.44,2.13,2.44,1.1,0,2.1-.91,2.1-2.37v-.07c0-1.5-1.02-2.42-2.09-2.42-1.26,0-2.14,1-2.14,2.42Z" style="fill: #1a1a1a; stroke-width: 0px;"/>
        <path d="M450.33,87.43c-.36.33-.6.86-.62,1.59v3.58h-1.15v-6.75h1.03l.08,1.18c.23-.62.86-1.25,2.02-1.25v1.15c-.54,0-.99.15-1.37.5Z" style="fill: #1a1a1a; stroke-width: 0px;"/>
        <path d="M458.65,89.68h-5.12c.08,1.25.92,2,2.08,2,.9,0,1.55-.39,1.82-1.1h1.15c-.4,1.34-1.45,2.17-3,2.17-1.9,0-3.25-1.38-3.25-3.51s1.29-3.54,3.25-3.54c1.77,0,3.07,1.15,3.07,3.43v.55ZM457.49,88.65c-.01-1.15-.78-1.88-1.9-1.88s-1.92.79-2.05,1.88h3.95Z" style="fill: #1a1a1a; stroke-width: 0px;"/>
        <path d="M465.34,88.23v4.37h-1.17v-4.18c0-1.04-.5-1.59-1.31-1.59-.88,0-1.57.78-1.57,2.16v3.62h-1.15v-6.75h1.03l.07.92c.31-.59.95-1.07,1.9-1.07,1.45,0,2.2,1.04,2.2,2.53Z" style="fill: #1a1a1a; stroke-width: 0px;"/>
        <path d="M474.69,88.13v4.47h-1.04l-.05-.92c-.33.6-1.06,1.07-2.05,1.07-1.18,0-1.97-.72-1.97-1.9s.83-1.75,1.89-1.96l2.06-.39v-.33c0-.96-.44-1.39-1.25-1.39-.74,0-1.38.4-1.38,1.23h-1.14c.04-1.3,1.03-2.3,2.52-2.3s2.41.86,2.41,2.42ZM470.74,90.83c0,.54.38.84,1.03.84.56,0,1.06-.24,1.37-.67.23-.31.39-.78.39-1.25v-.25l-1.85.4c-.51.12-.94.32-.94.92Z" style="fill: #1a1a1a; stroke-width: 0px;"/>
        <path d="M481.77,88.23v4.37h-1.17v-4.18c0-1.04-.5-1.59-1.31-1.59-.88,0-1.57.78-1.57,2.16v3.62h-1.15v-6.75h1.03l.07.92c.31-.59.95-1.07,1.9-1.07,1.45,0,2.2,1.04,2.2,2.53Z" style="fill: #1a1a1a; stroke-width: 0px;"/>
        <path d="M488.66,92.6l-.07-.99c-.42.6-1.1,1.14-2.32,1.14-1.9,0-3.15-1.53-3.15-3.52s1.26-3.52,3.16-3.52c1.13,0,1.88.5,2.25,1.07v-3.95h1.15v9.78h-1.03ZM484.32,89.22c0,1.43.84,2.44,2.13,2.44,1.1,0,2.1-.91,2.1-2.37v-.07c0-1.5-1.02-2.42-2.09-2.42-1.26,0-2.14,1-2.14,2.42Z" style="fill: #1a1a1a; stroke-width: 0px;"/>
        <path d="M499.15,88.13v4.47h-1.04l-.05-.92c-.33.6-1.06,1.07-2.05,1.07-1.18,0-1.97-.72-1.97-1.9s.83-1.75,1.89-1.96l2.06-.39v-.33c0-.96-.44-1.39-1.25-1.39-.74,0-1.38.4-1.38,1.23h-1.14c.04-1.3,1.03-2.3,2.52-2.3s2.41.86,2.41,2.42ZM495.2,90.83c0,.54.38.84,1.03.84.56,0,1.06-.24,1.37-.67.23-.31.39-.78.39-1.25v-.25l-1.85.4c-.51.12-.94.32-.94.92Z" style="fill: #1a1a1a; stroke-width: 0px;"/>
        <path d="M506.01,92.6l-.07-.99c-.42.6-1.1,1.14-2.32,1.14-1.9,0-3.15-1.53-3.15-3.52s1.26-3.52,3.16-3.52c1.13,0,1.88.5,2.25,1.07v-3.95h1.15v9.78h-1.03ZM501.67,89.22c0,1.43.84,2.44,2.13,2.44,1.1,0,2.1-.91,2.1-2.37v-.07c0-1.5-1.02-2.42-2.09-2.42-1.26,0-2.14,1-2.14,2.42Z" style="fill: #1a1a1a; stroke-width: 0px;"/>
        <path d="M515.35,89.22c0,2.05-1.41,3.52-3.42,3.52s-3.43-1.47-3.43-3.52,1.41-3.52,3.43-3.52,3.42,1.47,3.42,3.52ZM509.7,89.22c0,1.39.9,2.45,2.25,2.45s2.21-1.06,2.21-2.45-.87-2.45-2.21-2.45-2.25,1.04-2.25,2.45Z" style="fill: #1a1a1a; stroke-width: 0px;"/>
        <path d="M516.82,92.6v-9.78h1.15v9.78h-1.15Z" style="fill: #1a1a1a; stroke-width: 0px;"/>
        <path d="M525.76,89.68h-5.12c.08,1.25.92,2,2.08,2,.9,0,1.55-.39,1.82-1.1h1.15c-.4,1.34-1.45,2.17-3,2.17-1.9,0-3.25-1.38-3.25-3.51s1.29-3.54,3.25-3.54c1.77,0,3.07,1.15,3.07,3.43v.55ZM524.59,88.65c-.01-1.15-.78-1.88-1.9-1.88s-1.92.79-2.05,1.88h3.95Z" style="fill: #1a1a1a; stroke-width: 0px;"/>
        <path d="M531.39,87.83h-1.18c-.01-.71-.35-1.06-1.07-1.06s-1.03.42-1.03.91c0,.52.27.74,1.27.98,1.61.38,2.21.94,2.21,2.02,0,1.31-1.02,2.06-2.37,2.06-1.57,0-2.44-.88-2.46-2.2h1.18c.01.71.47,1.12,1.31,1.12.78,0,1.17-.39,1.17-.91,0-.56-.29-.83-1.41-1.09-1.41-.32-2.08-.82-2.08-1.93s.78-2.05,2.24-2.05c1.31,0,2.2.86,2.22,2.13Z" style="fill: #1a1a1a; stroke-width: 0px;"/>
        <path d="M538.86,87.95h-1.15c-.27-.75-.96-1.18-1.83-1.18-1.21,0-2.1,1.03-2.1,2.47s.9,2.44,2.13,2.44c.86,0,1.57-.46,1.81-1.18h1.17c-.36,1.47-1.54,2.25-3.01,2.25-1.9,0-3.28-1.47-3.28-3.51s1.38-3.54,3.28-3.54c1.49,0,2.68.78,3,2.25Z" style="fill: #1a1a1a; stroke-width: 0px;"/>
        <path d="M546.14,89.68h-5.12c.08,1.25.92,2,2.08,2,.9,0,1.55-.39,1.82-1.1h1.15c-.4,1.34-1.45,2.17-3,2.17-1.9,0-3.25-1.38-3.25-3.51s1.29-3.54,3.25-3.54c1.77,0,3.07,1.15,3.07,3.43v.55ZM544.98,88.65c-.01-1.15-.78-1.88-1.9-1.88s-1.92.79-2.05,1.88h3.95Z" style="fill: #1a1a1a; stroke-width: 0px;"/>
        <path d="M552.83,88.23v4.37h-1.17v-4.18c0-1.04-.5-1.59-1.31-1.59-.88,0-1.57.78-1.57,2.16v3.62h-1.15v-6.75h1.03l.07.92c.31-.59.95-1.07,1.9-1.07,1.45,0,2.2,1.04,2.2,2.53Z" style="fill: #1a1a1a; stroke-width: 0px;"/>
        <path d="M557.99,85.85v1.07h-1.74l-.03,3.62c0,.74.19,1.1.96,1.1.38,0,.6-.05.8-.12v1.03c-.2.08-.51.15-1,.15-1.27,0-1.93-.56-1.92-1.94l.03-3.83h-1.26v-1.07h1.26v-1.69h1.18v1.69s1.71,0,1.71,0Z" style="fill: #1a1a1a; stroke-width: 0px;"/>
        <path d="M563.53,87.83h-1.18c-.01-.71-.35-1.06-1.07-1.06s-1.03.42-1.03.91c0,.52.27.74,1.27.98,1.61.38,2.21.94,2.21,2.02,0,1.31-1.02,2.06-2.37,2.06-1.57,0-2.44-.88-2.46-2.2h1.18c.01.71.47,1.12,1.31,1.12.78,0,1.17-.39,1.17-.91,0-.56-.29-.83-1.41-1.09-1.41-.32-2.08-.82-2.08-1.93s.78-2.05,2.24-2.05c1.31,0,2.2.86,2.22,2.13Z" style="fill: #1a1a1a; stroke-width: 0px;"/>
      </g>
    </g>
  </g>
</svg>