<?xml version="1.0" encoding="UTF-8"?>
<svg id="exportSvg" xmlns="http://www.w3.org/2000/svg" width="800" height="401.3" xmlns:xlink="http://www.w3.org/1999/xlink" viewBox="0 0 800 401.3">
  <defs>
    <clipPath id="clippath">
      <rect x="1.45" width="798.13" height="401.3" style="fill: none; stroke-width: 0px;"/>
    </clipPath>
  </defs>
  <rect x="1.45" width="799.4" height="401.3" style="fill: #fff; stroke-width: 0px;"/>
  <g style="clip-path: url(#clippath);">
    <polygon points="-.55 .3 799.18 1.57 799.18 402.3 -.55 401.03 -.55 .3" style="fill: #fff; stroke-width: 0px;"/>
    <g style="isolation: isolate;">
      <g style="isolation: isolate;">
        <g style="isolation: isolate;">
          <g style="isolation: isolate;">
            <path d="M17.34,266.48h-4.17v4.22h4.17v1.92H7.56v-1.92h3.83v-4.22h-3.83v-1.92h9.78v1.92Z" style="fill: #1a1a1a; stroke-width: 0px;"/>
            <path d="M13.79,255.7c2.19,0,3.7,1.6,3.7,3.74s-1.51,3.71-3.7,3.71-3.69-1.58-3.69-3.71,1.5-3.74,3.69-3.74ZM13.79,261.28c1.17,0,2.05-.74,2.05-1.85s-.88-1.85-2.05-1.85-2.04.74-2.04,1.85.87,1.85,2.04,1.85Z" style="fill: #1a1a1a; stroke-width: 0px;"/>
            <path d="M12.34,249.46v1.79c-.52.01-.81.27-.81.81s.29.78.7.78c.43,0,.64-.24.82-1.23.28-1.72.99-2.33,2.14-2.33,1.61,0,2.31,1.27,2.31,2.75,0,1.75-.91,2.72-2.31,2.77v-1.79c.57-.01.88-.39.88-1.02,0-.56-.27-.88-.68-.88s-.69.22-.88,1.29c-.27,1.55-.94,2.25-2.11,2.25s-2.29-.85-2.29-2.61c0-1.5.89-2.55,2.24-2.59Z" style="fill: #1a1a1a; stroke-width: 0px;"/>
            <path d="M13.79,240.61c2.08,0,3.7,1.39,3.7,3.31,0,1.02-.42,1.76-.94,2.13h3.79v1.81h-10.09v-1.56l.95-.13c-.57-.41-1.1-1.05-1.1-2.27,0-1.91,1.61-3.29,3.69-3.29ZM13.76,246.09h.08c1.26-.01,1.94-.92,1.94-1.81,0-.99-.78-1.79-2-1.79s-2,.77-2,1.79c0,.9.7,1.81,1.97,1.81Z" style="fill: #1a1a1a; stroke-width: 0px;"/>
            <path d="M8.17,237.2c.61,0,1.08.49,1.08,1.11s-.46,1.09-1.08,1.09-1.08-.49-1.08-1.09.48-1.11,1.08-1.11ZM17.34,239.2h-7.09v-1.81h7.09v1.81Z" style="fill: #1a1a1a; stroke-width: 0px;"/>
            <path d="M10.26,231.62h1.65v1.64l2.88.03c.71,0,1.02-.22,1.02-.94,0-.34-.04-.55-.1-.73h1.58c.08.22.15.57.15,1.13,0,1.55-.63,2.35-2.24,2.34l-3.3-.03v1.16h-1.65v-1.18h-1.72v-1.83l1.72.03v-1.62Z" style="fill: #1a1a1a; stroke-width: 0px;"/>
            <path d="M12.69,224.75h4.65v1.55l-.87.11c.57.38,1.02,1.02,1.02,2.03,0,1.26-.77,2.16-2.04,2.16-1.38,0-1.92-.94-2.12-2.2l-.32-1.83h-.28c-.71,0-1.08.34-1.08.99,0,.6.36,1.08.94,1.08v1.75c-1.44-.08-2.49-1.15-2.49-2.83s.85-2.82,2.59-2.82ZM15.3,228.8c.42,0,.7-.29.7-.84,0-.45-.22-.88-.64-1.13-.24-.15-.59-.25-.94-.25h-.21l.29,1.41c.11.48.32.81.8.81Z" style="fill: #1a1a1a; stroke-width: 0px;"/>
            <path d="M17.34,223.02H7.14v-1.81h10.2v1.81Z" style="fill: #1a1a1a; stroke-width: 0px;"/>
            <path d="M8.17,217.29c.61,0,1.08.49,1.08,1.11s-.46,1.09-1.08,1.09-1.08-.49-1.08-1.09.48-1.11,1.08-1.11ZM17.34,219.29h-7.09v-1.81h7.09v1.81Z" style="fill: #1a1a1a; stroke-width: 0px;"/>
            <path d="M15.76,213.64v-3.4h1.58v5.81h-1.36l-4.15-3.22v3.21h-1.58v-5.62h1.34l4.17,3.22Z" style="fill: #1a1a1a; stroke-width: 0px;"/>
            <path d="M12.69,203.46h4.65v1.55l-.87.11c.57.38,1.02,1.02,1.02,2.03,0,1.26-.77,2.16-2.04,2.16-1.38,0-1.92-.94-2.12-2.2l-.32-1.83h-.28c-.71,0-1.08.34-1.08.99,0,.6.36,1.08.94,1.08v1.75c-1.44-.08-2.49-1.15-2.49-2.83s.85-2.82,2.59-2.82ZM15.3,207.5c.42,0,.7-.29.7-.84,0-.45-.22-.88-.64-1.13-.24-.15-.59-.25-.94-.25h-.21l.29,1.41c.11.48.32.81.8.81Z" style="fill: #1a1a1a; stroke-width: 0px;"/>
            <path d="M10.26,197.89h1.65v1.64l2.88.03c.71,0,1.02-.22,1.02-.94,0-.34-.04-.55-.1-.73h1.58c.08.22.15.57.15,1.13,0,1.55-.63,2.35-2.24,2.34l-3.3-.03v1.16h-1.65v-1.18h-1.72v-1.83l1.72.03v-1.62Z" style="fill: #1a1a1a; stroke-width: 0px;"/>
            <path d="M8.17,194.44c.61,0,1.08.49,1.08,1.11s-.46,1.09-1.08,1.09-1.08-.49-1.08-1.09.48-1.11,1.08-1.11ZM17.34,196.45h-7.09v-1.81h7.09v1.81Z" style="fill: #1a1a1a; stroke-width: 0px;"/>
            <path d="M13.79,185.77c2.19,0,3.7,1.6,3.7,3.74s-1.51,3.71-3.7,3.71-3.69-1.58-3.69-3.71,1.5-3.74,3.69-3.74ZM13.79,191.35c1.17,0,2.05-.74,2.05-1.85s-.88-1.85-2.05-1.85-2.04.74-2.04,1.85.87,1.85,2.04,1.85Z" style="fill: #1a1a1a; stroke-width: 0px;"/>
            <path d="M12.74,178.42h4.6v1.81h-4.21c-.82,0-1.27.35-1.27,1.04s.54,1.25,1.73,1.25h3.75v1.81h-7.09v-1.55l.92-.13c-.59-.32-1.08-.98-1.08-1.92,0-1.51,1.03-2.3,2.64-2.3Z" style="fill: #1a1a1a; stroke-width: 0px;"/>
            <path d="M12.42,171.47c.25.34.67.56,1.3.57h3.62v1.82h-7.09v-1.57l1.13-.15c-.62-.25-1.2-.87-1.2-2.09h1.8c0,.57.1,1.01.43,1.41Z" style="fill: #1a1a1a; stroke-width: 0px;"/>
            <path d="M12.69,163.47h4.65v1.55l-.87.11c.57.38,1.02,1.02,1.02,2.03,0,1.26-.77,2.16-2.04,2.16-1.38,0-1.92-.94-2.12-2.2l-.32-1.83h-.28c-.71,0-1.08.34-1.08.99,0,.6.36,1.08.94,1.08v1.75c-1.44-.08-2.49-1.15-2.49-2.83s.85-2.82,2.59-2.82ZM15.3,167.52c.42,0,.7-.29.7-.84,0-.45-.22-.88-.64-1.13-.24-.15-.59-.25-.94-.25h-.21l.29,1.42c.11.48.32.81.8.81Z" style="fill: #1a1a1a; stroke-width: 0px;"/>
            <path d="M10.26,157.9h1.65v1.64l2.88.03c.71,0,1.02-.22,1.02-.94,0-.34-.04-.55-.1-.73h1.58c.08.22.15.57.15,1.13,0,1.55-.63,2.35-2.24,2.34l-3.3-.03v1.16h-1.65v-1.18h-1.72v-1.83l1.72.03v-1.62Z" style="fill: #1a1a1a; stroke-width: 0px;"/>
            <path d="M14.35,150.16v4.94c.94-.06,1.59-.7,1.59-1.69,0-.71-.28-1.25-.82-1.44v-1.77c1.5.43,2.38,1.54,2.38,3.25,0,2.1-1.45,3.53-3.69,3.53s-3.7-1.41-3.7-3.53c0-1.88,1.19-3.29,3.68-3.29h.57ZM13.11,151.98c-.92.03-1.51.62-1.51,1.51s.63,1.53,1.51,1.61v-3.12Z" style="fill: #1a1a1a; stroke-width: 0px;"/>
            <path d="M13.79,138.72c2.08,0,3.7,1.39,3.7,3.31,0,1.02-.42,1.77-.94,2.13h3.79v1.81h-10.09v-1.55l.95-.13c-.57-.41-1.1-1.05-1.1-2.27,0-1.9,1.61-3.29,3.69-3.29ZM13.76,144.2h.08c1.26-.01,1.94-.92,1.94-1.81,0-.99-.78-1.79-2-1.79s-2,.77-2,1.79c0,.9.7,1.81,1.97,1.81Z" style="fill: #1a1a1a; stroke-width: 0px;"/>
            <path d="M14.35,130.91v4.94c.94-.06,1.59-.7,1.59-1.69,0-.71-.28-1.25-.82-1.44v-1.77c1.5.43,2.38,1.54,2.38,3.25,0,2.1-1.45,3.53-3.69,3.53s-3.7-1.41-3.7-3.53c0-1.88,1.19-3.29,3.68-3.29h.57ZM13.11,132.73c-.92.03-1.51.62-1.51,1.51s.63,1.53,1.51,1.61v-3.12Z" style="fill: #1a1a1a; stroke-width: 0px;"/>
            <path d="M12.42,127.06c.25.34.67.56,1.3.57h3.62v1.82h-7.09v-1.57l1.13-.15c-.62-.25-1.2-.87-1.2-2.09h1.8c0,.57.1,1.01.43,1.41Z" style="fill: #1a1a1a; stroke-width: 0px;"/>
            <path d="M17.34,120.09h-6.79v2.06h-1.62c0-1.51-.32-2.31-1.37-2.58v-1.4h9.78v1.92Z" style="fill: #1a1a1a; stroke-width: 0px;"/>
            <path d="M12.44,109.76c3.13,0,5.09,1.23,5.09,3.47s-1.96,3.47-5.09,3.47-5.06-1.23-5.06-3.47,1.94-3.47,5.06-3.47ZM12.44,114.77c2.08,0,3.3-.52,3.3-1.54s-1.22-1.54-3.3-1.54-3.27.5-3.27,1.54,1.2,1.54,3.27,1.54Z" style="fill: #1a1a1a; stroke-width: 0px;"/>
            <path d="M12.44,101.78c3.13,0,5.09,1.23,5.09,3.47s-1.96,3.47-5.09,3.47-5.06-1.23-5.06-3.47,1.94-3.47,5.06-3.47ZM12.44,106.79c2.08,0,3.3-.52,3.3-1.54s-1.22-1.54-3.3-1.54-3.27.5-3.27,1.54,1.2,1.54,3.27,1.54Z" style="fill: #1a1a1a; stroke-width: 0px;"/>
            <path d="M16.52,98.78c.94,0,1.97.53,2.68,1.16l-.2.52c-.49-.24-.98-.36-1.59-.42-.06.53-.46.92-1.01.92-.6,0-1.06-.48-1.06-1.09s.45-1.09,1.17-1.09Z" style="fill: #1a1a1a; stroke-width: 0px;"/>
            <path d="M12.44,91.02c3.13,0,5.09,1.23,5.09,3.47s-1.96,3.47-5.09,3.47-5.06-1.23-5.06-3.47,1.94-3.47,5.06-3.47ZM12.44,96.04c2.08,0,3.3-.52,3.3-1.54s-1.22-1.54-3.3-1.54-3.27.5-3.27,1.54,1.2,1.54,3.27,1.54Z" style="fill: #1a1a1a; stroke-width: 0px;"/>
            <path d="M12.44,83.04c3.13,0,5.09,1.23,5.09,3.47s-1.96,3.47-5.09,3.47-5.06-1.23-5.06-3.47,1.94-3.47,5.06-3.47ZM12.44,88.06c2.08,0,3.3-.52,3.3-1.54s-1.22-1.54-3.3-1.54-3.27.5-3.27,1.54,1.2,1.54,3.27,1.54Z" style="fill: #1a1a1a; stroke-width: 0px;"/>
            <path d="M12.44,75.06c3.13,0,5.09,1.23,5.09,3.47s-1.96,3.47-5.09,3.47-5.06-1.23-5.06-3.47,1.94-3.47,5.06-3.47ZM12.44,80.08c2.08,0,3.3-.52,3.3-1.54s-1.22-1.54-3.3-1.54-3.27.5-3.27,1.54,1.2,1.54,3.27,1.54Z" style="fill: #1a1a1a; stroke-width: 0px;"/>
          </g>
        </g>
      </g>
    </g>
    <g id="footer-svg">
      <g style="isolation: isolate;">
        <g style="isolation: isolate;">
          <g style="isolation: isolate;">
            <g style="isolation: isolate;">
              <path d="M12.72,392.97h-1.31c-.38-1.05-1.23-1.77-2.73-1.77-1.92,0-3.26,1.53-3.26,3.61s1.34,3.61,3.27,3.61c1.51,0,2.4-.77,2.77-1.81h1.27c-.51,1.83-1.9,2.91-4.04,2.91-2.64,0-4.51-2.01-4.51-4.72s1.87-4.72,4.49-4.72c2.14,0,3.53,1.12,4.04,2.87Z" style="fill: #767676; stroke-width: 0px;"/>
              <path d="M16.99,392.67c1.4,0,2.13,1.01,2.13,2.46v4.24h-1.13v-4.06c0-1.01-.48-1.55-1.27-1.55-.86,0-1.52.75-1.52,2.09v3.51h-1.12v-9.49h1.12v3.76c.25-.51.84-.96,1.79-.96Z" style="fill: #767676; stroke-width: 0px;"/>
              <path d="M25.53,395.03v4.34h-1.01l-.05-.9c-.32.58-1.03,1.04-1.99,1.04-1.14,0-1.91-.7-1.91-1.85s.81-1.7,1.83-1.9l2-.38v-.32c0-.94-.43-1.35-1.21-1.35-.71,0-1.34.39-1.34,1.2h-1.1c.04-1.26,1-2.24,2.44-2.24s2.34.83,2.34,2.35ZM21.7,397.65c0,.52.36.82,1,.82.55,0,1.03-.23,1.32-.65.22-.3.38-.75.38-1.21v-.25l-1.79.39c-.49.12-.91.31-.91.9Z" style="fill: #767676; stroke-width: 0px;"/>
              <path d="M29.13,394.35c-.35.33-.58.83-.6,1.55v3.47h-1.12v-6.55h1l.08,1.14c.22-.6.83-1.21,1.96-1.21v1.12c-.52,0-.96.14-1.32.48Z" style="fill: #767676; stroke-width: 0px;"/>
              <path d="M34.96,392.82v1.04h-1.69l-.03,3.51c0,.71.18,1.07.94,1.07.36,0,.58-.05.78-.12v1c-.19.08-.49.14-.97.14-1.23,0-1.87-.55-1.86-1.88l.03-3.72h-1.22v-1.04h1.22v-1.64h1.14v1.64s1.66,0,1.66,0Z" style="fill: #767676; stroke-width: 0px;"/>
              <path d="M37.56,393.49c0,.46-.36.81-.82.81s-.82-.35-.82-.81.35-.82.82-.82.82.35.82.82ZM37.56,398.71c0,.46-.36.81-.82.81s-.82-.35-.82-.81.35-.81.82-.81.82.34.82.81Z" style="fill: #767676; stroke-width: 0px;"/>
            </g>
          </g>
        </g>
        <g style="isolation: isolate;">
          <g style="isolation: isolate;">
            <g style="isolation: isolate;">
              <path d="M56.85,392.97h-1.31c-.38-1.05-1.23-1.77-2.73-1.77-1.92,0-3.26,1.53-3.26,3.61s1.34,3.61,3.27,3.61c1.51,0,2.4-.77,2.77-1.81h1.27c-.51,1.83-1.9,2.91-4.04,2.91-2.64,0-4.51-2.01-4.51-4.72s1.87-4.72,4.49-4.72c2.14,0,3.53,1.12,4.04,2.87Z" style="fill: #767676; stroke-width: 0px;"/>
              <path d="M59.42,391.37v2.87h3.16v1.12h-3.16v4h-1.18v-9.1h4.9v1.11h-3.71Z" style="fill: #767676; stroke-width: 0px;"/>
              <path d="M68.94,399.37l-1.99-3.69h-1.32v3.69h-1.18v-9.1h2.48c1.82,0,2.97,1.09,2.97,2.74,0,1.2-.64,2.09-1.71,2.47l2.1,3.89h-1.35ZM65.63,394.61h1.3c1.05,0,1.78-.57,1.78-1.6s-.71-1.64-1.78-1.64h-1.3v3.24Z" style="fill: #767676; stroke-width: 0px;"/>
              <path d="M70.59,399.37l3.83-9.1h1.1l-3.83,9.1h-1.1Z" style="fill: #767676; stroke-width: 0px;"/>
              <path d="M82.73,399.37l-.96-2.41h-4.01l-.95,2.41h-1.3l3.65-9.1h1.22l3.65,9.1h-1.3ZM78.16,395.86h3.21l-1.44-3.58-.17-.49-.17.49-1.43,3.58Z" style="fill: #767676; stroke-width: 0px;"/>
              <path d="M85.22,399.37v-9.49h1.12v9.49h-1.12Z" style="fill: #767676; stroke-width: 0px;"/>
              <path d="M88.28,399.37v-9.49h1.12v9.49h-1.12Z" style="fill: #767676; stroke-width: 0px;"/>
              <path d="M92.72,390.8c0,.42-.35.75-.78.75s-.77-.34-.77-.75.34-.77.77-.77.78.34.78.77ZM91.38,399.37v-6.55h1.12v6.55h-1.12Z" style="fill: #767676; stroke-width: 0px;"/>
              <path d="M98.5,394.74h-1.14c-.01-.69-.34-1.03-1.04-1.03s-1,.4-1,.88c0,.51.26.71,1.23.95,1.56.36,2.14.91,2.14,1.96,0,1.27-.99,2-2.3,2-1.52,0-2.36-.86-2.39-2.13h1.14c.01.69.45,1.09,1.27,1.09.75,0,1.13-.38,1.13-.88,0-.55-.29-.81-1.36-1.05-1.36-.31-2.01-.79-2.01-1.87s.75-1.99,2.17-1.99c1.27,0,2.13.83,2.16,2.07Z" style="fill: #767676; stroke-width: 0px;"/>
              <path d="M106.29,396.09c0,1.99-1.36,3.42-3.31,3.42s-3.32-1.43-3.32-3.42,1.36-3.42,3.32-3.42,3.31,1.43,3.31,3.42ZM100.81,396.09c0,1.35.87,2.38,2.18,2.38s2.14-1.03,2.14-2.38-.84-2.38-2.14-2.38-2.18,1.01-2.18,2.38Z" style="fill: #767676; stroke-width: 0px;"/>
              <path d="M112.77,395.13v4.24h-1.13v-4.06c0-1.01-.48-1.55-1.27-1.55-.86,0-1.52.75-1.52,2.09v3.51h-1.12v-6.55h1l.06.9c.3-.57.92-1.04,1.84-1.04,1.4,0,2.13,1.01,2.13,2.46Z" style="fill: #767676; stroke-width: 0px;"/>
              <path d="M124.73,399.37h-1.49l-3.12-4.12-1.57,1.91v2.21h-1.18v-9.1h1.18v5.15l4.04-5.15h1.48l-3.18,4.04,3.84,5.06Z" style="fill: #767676; stroke-width: 0px;"/>
              <path d="M127.6,394.35c-.35.33-.58.83-.6,1.55v3.47h-1.12v-6.55h1l.08,1.14c.22-.6.83-1.21,1.96-1.21v1.12c-.52,0-.96.14-1.32.48Z" style="fill: #767676; stroke-width: 0px;"/>
              <path d="M134.07,399.37l-.06-.9c-.3.62-.9,1.04-1.8,1.04-1.42,0-2.1-1-2.1-2.46v-4.24h1.12v4.06c0,1.03.45,1.56,1.25,1.56.84,0,1.49-.72,1.49-1.98v-3.64h1.12v6.55h-1Z" style="fill: #767676; stroke-width: 0px;"/>
              <path d="M142.6,393.8h-1.13c.19.35.31.77.31,1.22,0,1.3-.97,2.33-2.49,2.33-.54,0-1.03-.13-1.4-.35-.16.14-.27.36-.27.65,0,.43.34.66.83.66h1.74c1.39,0,2.06.69,2.06,1.78,0,1.39-1.05,2.21-2.73,2.21-1.86,0-2.86-.75-2.86-2.04,0-.62.34-.98.71-1.18-.44-.22-.87-.7-.87-1.37,0-.6.3-1.05.68-1.34-.27-.38-.42-.84-.42-1.35,0-1.35.99-2.35,2.52-2.35.34,0,.65.05.94.14h2.38v.99ZM137.77,400.23c0,.71.65,1.09,1.75,1.09,1.01,0,1.62-.39,1.62-1.17,0-.61-.45-.85-1.18-.85h-1.25c-.49.03-.95.29-.95.92ZM140.68,395.03c0-.78-.53-1.37-1.4-1.37s-1.4.58-1.4,1.37.55,1.34,1.4,1.34,1.4-.58,1.4-1.34Z" style="fill: #767676; stroke-width: 0px;"/>
              <path d="M152.38,395.13v4.24h-1.12v-4.06c0-1.01-.47-1.55-1.26-1.55-.86,0-1.51.75-1.51,2.09v3.51h-1.12v-4.06c0-1.01-.47-1.55-1.26-1.55-.86,0-1.51.75-1.51,2.09v3.51h-1.12v-6.55h1l.06.9c.3-.57.92-1.04,1.82-1.04.97,0,1.61.48,1.91,1.25.34-.65.96-1.25,1.97-1.25,1.42,0,2.12,1.01,2.12,2.46Z" style="fill: #767676; stroke-width: 0px;"/>
              <path d="M158.79,395.03v4.34h-1.01l-.05-.9c-.32.58-1.03,1.04-1.99,1.04-1.14,0-1.91-.7-1.91-1.85s.81-1.7,1.83-1.9l2-.38v-.32c0-.94-.43-1.35-1.21-1.35-.71,0-1.34.39-1.34,1.2h-1.1c.04-1.26,1-2.24,2.44-2.24s2.34.83,2.34,2.35ZM154.96,397.65c0,.52.36.82,1,.82.55,0,1.03-.23,1.32-.65.22-.3.38-.75.38-1.21v-.25l-1.79.39c-.49.12-.91.31-.91.9Z" style="fill: #767676; stroke-width: 0px;"/>
              <path d="M165.64,395.13v4.24h-1.13v-4.06c0-1.01-.48-1.55-1.27-1.55-.86,0-1.52.75-1.52,2.09v3.51h-1.12v-6.55h1l.06.9c.3-.57.92-1.04,1.84-1.04,1.4,0,2.13,1.01,2.13,2.46Z" style="fill: #767676; stroke-width: 0px;"/>
              <path d="M173.28,396c0,1.04-.81,1.83-1.84,1.83s-1.83-.79-1.83-1.83.79-1.85,1.83-1.85,1.84.81,1.84,1.85Z" style="fill: #767676; stroke-width: 0px;"/>
              <path d="M182.45,392.67h-1.19c-.01-.97-.62-1.51-1.49-1.51s-1.4.51-1.4,1.38.57,1.18,1.81,1.68c1.83.68,2.57,1.34,2.57,2.68,0,1.66-1.17,2.64-2.82,2.64-1.92,0-2.99-1.16-3.01-2.85h1.19c.03,1.16.69,1.79,1.83,1.79,1.06,0,1.61-.65,1.61-1.51,0-.78-.55-1.2-1.91-1.68-1.54-.57-2.47-1.2-2.47-2.67s.93-2.54,2.62-2.54c1.58,0,2.62.88,2.66,2.57Z" style="fill: #767676; stroke-width: 0px;"/>
              <path d="M190.29,396.09c0,1.99-1.36,3.42-3.31,3.42s-3.32-1.43-3.32-3.42,1.36-3.42,3.32-3.42,3.31,1.43,3.31,3.42ZM184.81,396.09c0,1.35.87,2.38,2.18,2.38s2.14-1.03,2.14-2.38-.84-2.38-2.14-2.38-2.18,1.01-2.18,2.38Z" style="fill: #767676; stroke-width: 0px;"/>
              <path d="M195.59,399.37l-.06-.9c-.3.62-.9,1.04-1.8,1.04-1.42,0-2.1-1-2.1-2.46v-4.24h1.12v4.06c0,1.03.45,1.56,1.25,1.56.84,0,1.49-.72,1.49-1.98v-3.64h1.12v6.55h-1Z" style="fill: #767676; stroke-width: 0px;"/>
              <path d="M200.33,394.35c-.35.33-.58.83-.6,1.55v3.47h-1.12v-6.55h1l.08,1.14c.22-.6.83-1.21,1.96-1.21v1.12c-.52,0-.96.14-1.32.48Z" style="fill: #767676; stroke-width: 0px;"/>
              <path d="M208.35,394.86h-1.12c-.26-.73-.94-1.14-1.78-1.14-1.17,0-2.04,1-2.04,2.39s.87,2.37,2.06,2.37c.83,0,1.52-.44,1.75-1.14h1.13c-.35,1.43-1.49,2.18-2.92,2.18-1.84,0-3.18-1.43-3.18-3.41s1.34-3.43,3.18-3.43c1.44,0,2.6.75,2.91,2.18Z" style="fill: #767676; stroke-width: 0px;"/>
              <path d="M215.4,396.54h-4.96c.08,1.21.9,1.94,2.01,1.94.87,0,1.51-.38,1.77-1.07h1.12c-.39,1.3-1.4,2.11-2.91,2.11-1.84,0-3.16-1.34-3.16-3.41s1.25-3.43,3.16-3.43c1.71,0,2.97,1.12,2.97,3.33v.53ZM214.27,395.53c-.01-1.12-.75-1.82-1.84-1.82s-1.86.77-1.99,1.82h3.83Z" style="fill: #767676; stroke-width: 0px;"/>
              <path d="M217.98,393.49c0,.46-.36.81-.82.81s-.82-.35-.82-.81.35-.82.82-.82.82.35.82.82ZM217.98,398.71c0,.46-.36.81-.82.81s-.82-.35-.82-.81.35-.81.82-.81.82.34.82.81Z" style="fill: #767676; stroke-width: 0px;"/>
              <path d="M227.33,398.26v1.11h-5.23v-9.1h1.18v8h4.05Z" style="fill: #767676; stroke-width: 0px;"/>
              <path d="M234.69,396.09c0,1.99-1.36,3.42-3.31,3.42s-3.32-1.43-3.32-3.42,1.36-3.42,3.32-3.42,3.31,1.43,3.31,3.42ZM229.21,396.09c0,1.35.87,2.38,2.18,2.38s2.14-1.03,2.14-2.38-.84-2.38-2.14-2.38-2.18,1.01-2.18,2.38Z" style="fill: #767676; stroke-width: 0px;"/>
              <path d="M241.18,395.13v4.24h-1.13v-4.06c0-1.01-.48-1.55-1.27-1.55-.86,0-1.52.75-1.52,2.09v3.51h-1.12v-6.55h1l.06.9c.3-.57.92-1.04,1.84-1.04,1.4,0,2.13,1.01,2.13,2.46Z" style="fill: #767676; stroke-width: 0px;"/>
              <path d="M247.85,399.37l-.06-.96c-.4.58-1.06,1.1-2.25,1.1-1.84,0-3.05-1.48-3.05-3.42s1.22-3.42,3.06-3.42c1.09,0,1.82.48,2.18,1.04v-3.83h1.12v9.49h-1ZM243.64,396.09c0,1.39.82,2.37,2.06,2.37,1.06,0,2.04-.88,2.04-2.3v-.07c0-1.46-.99-2.35-2.03-2.35-1.22,0-2.08.97-2.08,2.35Z" style="fill: #767676; stroke-width: 0px;"/>
              <path d="M256.9,396.09c0,1.99-1.36,3.42-3.31,3.42s-3.32-1.43-3.32-3.42,1.36-3.42,3.32-3.42,3.31,1.43,3.31,3.42ZM251.42,396.09c0,1.35.87,2.38,2.18,2.38s2.14-1.03,2.14-2.38-.84-2.38-2.14-2.38-2.18,1.01-2.18,2.38Z" style="fill: #767676; stroke-width: 0px;"/>
              <path d="M263.39,395.13v4.24h-1.13v-4.06c0-1.01-.48-1.55-1.27-1.55-.86,0-1.52.75-1.52,2.09v3.51h-1.12v-6.55h1l.06.9c.3-.57.92-1.04,1.84-1.04,1.4,0,2.13,1.01,2.13,2.46Z" style="fill: #767676; stroke-width: 0px;"/>
              <path d="M272.96,392.67h-1.19c-.01-.97-.62-1.51-1.49-1.51s-1.4.51-1.4,1.38.57,1.18,1.81,1.68c1.83.68,2.57,1.34,2.57,2.68,0,1.66-1.17,2.64-2.82,2.64-1.92,0-2.99-1.16-3.01-2.85h1.19c.03,1.16.69,1.79,1.83,1.79,1.06,0,1.61-.65,1.61-1.51,0-.78-.55-1.2-1.91-1.68-1.54-.57-2.47-1.2-2.47-2.67s.93-2.54,2.62-2.54c1.58,0,2.62.88,2.66,2.57Z" style="fill: #767676; stroke-width: 0px;"/>
              <path d="M280.26,394.86h-1.12c-.26-.73-.94-1.14-1.78-1.14-1.17,0-2.04,1-2.04,2.39s.87,2.37,2.06,2.37c.83,0,1.52-.44,1.75-1.14h1.13c-.35,1.43-1.49,2.18-2.92,2.18-1.84,0-3.18-1.43-3.18-3.41s1.34-3.43,3.18-3.43c1.44,0,2.6.75,2.91,2.18Z" style="fill: #767676; stroke-width: 0px;"/>
              <path d="M284.59,392.67c1.4,0,2.13,1.01,2.13,2.46v4.24h-1.13v-4.06c0-1.01-.48-1.55-1.27-1.55-.86,0-1.52.75-1.52,2.09v3.51h-1.12v-9.49h1.12v3.76c.25-.51.84-.96,1.79-.96Z" style="fill: #767676; stroke-width: 0px;"/>
              <path d="M294.67,396.09c0,1.99-1.36,3.42-3.31,3.42s-3.32-1.43-3.32-3.42,1.36-3.42,3.32-3.42,3.31,1.43,3.31,3.42ZM289.19,396.09c0,1.35.87,2.38,2.18,2.38s2.14-1.03,2.14-2.38-.84-2.38-2.14-2.38-2.18,1.01-2.18,2.38Z" style="fill: #767676; stroke-width: 0px;"/>
              <path d="M302.32,396.09c0,1.99-1.36,3.42-3.31,3.42s-3.32-1.43-3.32-3.42,1.36-3.42,3.32-3.42,3.31,1.43,3.31,3.42ZM296.84,396.09c0,1.35.87,2.38,2.18,2.38s2.14-1.03,2.14-2.38-.84-2.38-2.14-2.38-2.18,1.01-2.18,2.38Z" style="fill: #767676; stroke-width: 0px;"/>
              <path d="M303.75,399.37v-9.49h1.12v9.49h-1.12Z" style="fill: #767676; stroke-width: 0px;"/>
              <path d="M315.56,396.09c0,1.99-1.36,3.42-3.31,3.42s-3.32-1.43-3.32-3.42,1.36-3.42,3.32-3.42,3.31,1.43,3.31,3.42ZM310.08,396.09c0,1.35.87,2.38,2.18,2.38s2.14-1.03,2.14-2.38-.84-2.38-2.14-2.38-2.18,1.01-2.18,2.38Z" style="fill: #767676; stroke-width: 0px;"/>
              <path d="M320.21,389.92v1.01c-.22-.09-.45-.16-.79-.16-.57,0-.92.34-.92,1.07v.97h1.62v1.03h-1.62v5.53h-1.13v-5.53h-1.18v-1.03h1.18v-1c0-1.3.71-2.05,1.96-2.05.39,0,.7.08.88.16Z" style="fill: #767676; stroke-width: 0px;"/>
              <path d="M329.93,399.37v-4.15h-4.8v4.15h-1.18v-9.1h1.18v3.83h4.8v-3.83h1.18v9.1h-1.18Z" style="fill: #767676; stroke-width: 0px;"/>
              <path d="M333.67,402.16l1.09-2.89-2.45-6.46h1.19l1.73,4.71.13.49.13-.49,1.73-4.71h1.21l-3.57,9.35h-1.18Z" style="fill: #767676; stroke-width: 0px;"/>
              <path d="M345.01,393.8h-1.13c.19.35.31.77.31,1.22,0,1.3-.97,2.33-2.49,2.33-.55,0-1.03-.13-1.4-.35-.16.14-.27.36-.27.65,0,.43.34.66.83.66h1.74c1.39,0,2.06.69,2.06,1.78,0,1.39-1.05,2.21-2.73,2.21-1.86,0-2.86-.75-2.86-2.04,0-.62.34-.98.71-1.18-.44-.22-.87-.7-.87-1.37,0-.6.3-1.05.68-1.34-.27-.38-.42-.84-.42-1.35,0-1.35.99-2.35,2.52-2.35.34,0,.65.05.94.14h2.38v.99ZM340.18,400.23c0,.71.65,1.09,1.75,1.09,1.01,0,1.62-.39,1.62-1.17,0-.61-.45-.85-1.18-.85h-1.25c-.49.03-.95.29-.95.92ZM343.09,395.03c0-.78-.53-1.37-1.4-1.37s-1.4.58-1.4,1.37.55,1.34,1.4,1.34,1.4-.58,1.4-1.34Z" style="fill: #767676; stroke-width: 0px;"/>
              <path d="M347.28,390.8c0,.42-.35.75-.78.75s-.77-.34-.77-.75.34-.77.77-.77.78.34.78.77ZM345.94,399.37v-6.55h1.12v6.55h-1.12Z" style="fill: #767676; stroke-width: 0px;"/>
              <path d="M354.64,396.54h-4.96c.08,1.21.9,1.94,2.01,1.94.87,0,1.51-.38,1.77-1.07h1.12c-.39,1.3-1.4,2.11-2.91,2.11-1.84,0-3.16-1.34-3.16-3.41s1.25-3.43,3.16-3.43c1.71,0,2.97,1.12,2.97,3.33v.53ZM353.51,395.53c-.01-1.12-.75-1.82-1.84-1.82s-1.86.77-1.99,1.82h3.83Z" style="fill: #767676; stroke-width: 0px;"/>
              <path d="M361.12,395.13v4.24h-1.13v-4.06c0-1.01-.48-1.55-1.27-1.55-.86,0-1.52.75-1.52,2.09v3.51h-1.12v-6.55h1l.06.9c.3-.57.92-1.04,1.84-1.04,1.4,0,2.13,1.01,2.13,2.46Z" style="fill: #767676; stroke-width: 0px;"/>
              <path d="M368.56,396.54h-4.96c.08,1.21.9,1.94,2.01,1.94.87,0,1.51-.38,1.77-1.07h1.12c-.39,1.3-1.4,2.11-2.91,2.11-1.84,0-3.16-1.34-3.16-3.41s1.25-3.43,3.16-3.43c1.71,0,2.97,1.12,2.97,3.33v.53ZM367.43,395.53c-.01-1.12-.75-1.82-1.84-1.82s-1.86.77-1.99,1.82h3.83Z" style="fill: #767676; stroke-width: 0px;"/>
              <path d="M377.21,395.03v4.34h-1.01l-.05-.9c-.32.58-1.03,1.04-1.99,1.04-1.14,0-1.91-.7-1.91-1.85s.81-1.7,1.83-1.9l2-.38v-.32c0-.94-.43-1.35-1.21-1.35-.71,0-1.34.39-1.34,1.2h-1.1c.04-1.26,1-2.24,2.44-2.24s2.34.83,2.34,2.35ZM373.38,397.65c0,.52.36.82,1,.82.55,0,1.03-.23,1.32-.65.22-.3.38-.75.38-1.21v-.25l-1.79.39c-.49.12-.91.31-.91.9Z" style="fill: #767676; stroke-width: 0px;"/>
              <path d="M384.07,395.13v4.24h-1.13v-4.06c0-1.01-.48-1.55-1.27-1.55-.86,0-1.52.75-1.52,2.09v3.51h-1.12v-6.55h1l.07.9c.3-.57.92-1.04,1.84-1.04,1.4,0,2.13,1.01,2.13,2.46Z" style="fill: #767676; stroke-width: 0px;"/>
              <path d="M390.74,399.37l-.07-.96c-.4.58-1.06,1.1-2.25,1.1-1.84,0-3.05-1.48-3.05-3.42s1.22-3.42,3.06-3.42c1.09,0,1.82.48,2.18,1.04v-3.83h1.12v9.49h-1ZM386.53,396.09c0,1.39.82,2.37,2.06,2.37,1.06,0,2.04-.88,2.04-2.3v-.07c0-1.46-.99-2.35-2.03-2.35-1.22,0-2.08.97-2.08,2.35Z" style="fill: #767676; stroke-width: 0px;"/>
              <path d="M399.87,391.37v8h-1.18v-8h-3.22v-1.11h7.62v1.11h-3.22Z" style="fill: #767676; stroke-width: 0px;"/>
              <path d="M404.77,394.35c-.35.33-.58.83-.6,1.55v3.47h-1.12v-6.55h1l.08,1.14c.22-.6.83-1.21,1.96-1.21v1.12c-.52,0-.96.14-1.33.48Z" style="fill: #767676; stroke-width: 0px;"/>
              <path d="M413.33,396.09c0,1.99-1.36,3.42-3.31,3.42s-3.32-1.43-3.32-3.42,1.36-3.42,3.32-3.42,3.31,1.43,3.31,3.42ZM407.86,396.09c0,1.35.87,2.38,2.18,2.38s2.14-1.03,2.14-2.38-.84-2.38-2.14-2.38-2.18,1.01-2.18,2.38Z" style="fill: #767676; stroke-width: 0px;"/>
              <path d="M421.21,396.09c0,1.94-1.22,3.42-3.06,3.42-1.09,0-1.82-.48-2.17-1.04v3.69h-1.13v-9.35h1.01l.05.96c.4-.58,1.06-1.11,2.25-1.11,1.84,0,3.05,1.48,3.05,3.42ZM415.95,396.03v.06c0,1.46.99,2.35,2.03,2.35,1.22,0,2.08-.98,2.08-2.35s-.82-2.37-2.06-2.37c-1.06,0-2.04.88-2.04,2.3Z" style="fill: #767676; stroke-width: 0px;"/>
              <path d="M424.01,390.8c0,.42-.35.75-.78.75s-.77-.34-.77-.75.34-.77.77-.77.78.34.78.77ZM422.68,399.37v-6.55h1.12v6.55h-1.12Z" style="fill: #767676; stroke-width: 0px;"/>
              <path d="M431.34,394.86h-1.12c-.26-.73-.94-1.14-1.78-1.14-1.17,0-2.04,1-2.04,2.39s.87,2.37,2.06,2.37c.83,0,1.52-.44,1.75-1.14h1.13c-.35,1.43-1.49,2.18-2.92,2.18-1.84,0-3.18-1.43-3.18-3.41s1.34-3.43,3.18-3.43c1.44,0,2.6.75,2.91,2.18Z" style="fill: #767676; stroke-width: 0px;"/>
              <path d="M437.33,395.03v4.34h-1.01l-.05-.9c-.32.58-1.03,1.04-1.99,1.04-1.14,0-1.91-.7-1.91-1.85s.81-1.7,1.83-1.9l2-.38v-.32c0-.94-.43-1.35-1.21-1.35-.71,0-1.34.39-1.34,1.2h-1.1c.04-1.26,1-2.24,2.44-2.24s2.34.83,2.34,2.35ZM433.5,397.65c0,.52.36.82,1,.82.55,0,1.03-.23,1.32-.65.22-.3.38-.75.38-1.21v-.25l-1.79.39c-.49.12-.91.31-.91.9Z" style="fill: #767676; stroke-width: 0px;"/>
              <path d="M439.15,399.37v-9.49h1.12v9.49h-1.12Z" style="fill: #767676; stroke-width: 0px;"/>
              <path d="M453.05,399.37v-6.77l-.25.68-2.78,6.1h-.95l-2.77-6.1-.25-.68v6.77h-1.18v-9.1h1.3l3.12,6.68.25.58.26-.58,3.13-6.68h1.3v9.1h-1.18Z" style="fill: #767676; stroke-width: 0px;"/>
              <path d="M461.79,396.54h-4.96c.08,1.21.9,1.94,2.01,1.94.87,0,1.51-.38,1.77-1.07h1.12c-.39,1.3-1.4,2.11-2.91,2.11-1.84,0-3.16-1.34-3.16-3.41s1.25-3.43,3.16-3.43c1.71,0,2.97,1.12,2.97,3.33v.53ZM460.66,395.53c-.01-1.12-.75-1.82-1.84-1.82s-1.86.77-1.99,1.82h3.83Z" style="fill: #767676; stroke-width: 0px;"/>
              <path d="M468.13,399.37l-.07-.96c-.4.58-1.06,1.1-2.25,1.1-1.84,0-3.05-1.48-3.05-3.42s1.22-3.42,3.06-3.42c1.09,0,1.82.48,2.18,1.04v-3.83h1.12v9.49h-1ZM463.93,396.09c0,1.39.82,2.37,2.06,2.37,1.06,0,2.04-.88,2.04-2.3v-.07c0-1.46-.99-2.35-2.03-2.35-1.22,0-2.08.97-2.08,2.35Z" style="fill: #767676; stroke-width: 0px;"/>
              <path d="M472.45,390.8c0,.42-.35.75-.78.75s-.77-.34-.77-.75.34-.77.77-.77.78.34.78.77ZM471.11,399.37v-6.55h1.12v6.55h-1.12Z" style="fill: #767676; stroke-width: 0px;"/>
              <path d="M479.77,394.86h-1.12c-.26-.73-.94-1.14-1.78-1.14-1.17,0-2.04,1-2.04,2.39s.87,2.37,2.06,2.37c.83,0,1.52-.44,1.75-1.14h1.13c-.35,1.43-1.49,2.18-2.92,2.18-1.84,0-3.18-1.43-3.18-3.41s1.34-3.43,3.18-3.43c1.44,0,2.6.75,2.91,2.18Z" style="fill: #767676; stroke-width: 0px;"/>
              <path d="M482.58,390.8c0,.42-.35.75-.78.75s-.77-.34-.77-.75.34-.77.77-.77.78.34.78.77ZM481.24,399.37v-6.55h1.12v6.55h-1.12Z" style="fill: #767676; stroke-width: 0px;"/>
              <path d="M489.38,395.13v4.24h-1.13v-4.06c0-1.01-.48-1.55-1.27-1.55-.86,0-1.52.75-1.52,2.09v3.51h-1.12v-6.55h1l.07.9c.3-.57.92-1.04,1.84-1.04,1.4,0,2.13,1.01,2.13,2.46Z" style="fill: #767676; stroke-width: 0px;"/>
              <path d="M496.82,396.54h-4.96c.08,1.21.9,1.94,2.01,1.94.87,0,1.51-.38,1.77-1.07h1.12c-.39,1.3-1.4,2.11-2.91,2.11-1.84,0-3.16-1.34-3.16-3.41s1.25-3.43,3.16-3.43c1.71,0,2.97,1.12,2.97,3.33v.53ZM495.69,395.53c-.01-1.12-.75-1.82-1.84-1.82s-1.86.77-1.99,1.82h3.83Z" style="fill: #767676; stroke-width: 0px;"/>
              <path d="M499.2,398.78c0,.81-.42,1.69-.95,2.29l-.36-.14c.26-.46.39-.94.45-1.47-.4-.04-.7-.33-.7-.75s.34-.77.78-.77.78.32.78.84Z" style="fill: #767676; stroke-width: 0px;"/>
              <path d="M511.38,392.97h-1.31c-.38-1.05-1.23-1.77-2.73-1.77-1.92,0-3.26,1.53-3.26,3.61s1.34,3.61,3.27,3.61c1.51,0,2.4-.77,2.77-1.81h1.27c-.51,1.83-1.9,2.91-4.04,2.91-2.64,0-4.51-2.01-4.51-4.72s1.87-4.72,4.49-4.72c2.14,0,3.53,1.12,4.04,2.87Z" style="fill: #767676; stroke-width: 0px;"/>
              <path d="M520.65,394.82c0,2.73-1.79,4.55-4.61,4.55h-3.27v-9.1h3.27c2.82,0,4.61,1.83,4.61,4.55ZM513.95,398.26h2.09c2.09,0,3.4-1.29,3.4-3.44s-1.29-3.45-3.4-3.45h-2.09v6.89Z" style="fill: #767676; stroke-width: 0px;"/>
              <path d="M530.36,392.97h-1.31c-.38-1.05-1.23-1.77-2.73-1.77-1.92,0-3.26,1.53-3.26,3.61s1.34,3.61,3.27,3.61c1.51,0,2.4-.77,2.77-1.81h1.27c-.51,1.83-1.9,2.91-4.04,2.91-2.64,0-4.51-2.01-4.51-4.72s1.87-4.72,4.49-4.72c2.14,0,3.53,1.12,4.04,2.87Z" style="fill: #767676; stroke-width: 0px;"/>
            </g>
          </g>
        </g>
      </g>
      <g id="image">
        <path d="M705.13,389.47h-6.69v1.7h2.4v8h2v-8h2.4v-1.7h-.1Z" style="fill: #000; stroke-width: 0px;"/>
        <path d="M705.53,399.27h2v-4c0-1,.3-1.5.9-1.5s.8.3.8,1.1v4.4h2v-4.6c0-1.6-.6-2.3-1.8-2.3s-1.5.4-1.8,1.3v-4.2h-2v9.8h-.1Z" style="fill: #000; stroke-width: 0px;"/>
        <path d="M712.02,391.47h2v-2h-2v2ZM712.12,399.27h1.9v-6.7h-1.9v6.7Z" style="fill: #000; stroke-width: 0px;"/>
        <path d="M715.02,399.27h2v-4c0-1,.3-1.4.9-1.4s.8.3.8,1.1v4.3h2v-4.6c0-1.6-.6-2.3-1.8-2.3s-1.5.5-1.9,1.4v-1.2h-1.9v6.7h-.1Z" style="fill: #000; stroke-width: 0px;"/>
        <path d="M725.4,399.27h2.2l-2-4.2,1.9-2.5h-2.2l-1.8,2.8v-5.8h-2v9.8h2v-2l.6-.9,1.2,2.9h0l.1-.1Z" style="fill: #000; stroke-width: 0px;"/>
        <path d="M732.39,399.47c1.2,0,2-.6,2.4-1.7v1.5h1.6v-5.3h-3.59v1.6h1.6v.2c0,1.3-.5,2.1-1.4,2.1s-1.6-.8-1.6-3.5.5-3.3,1.6-3.3,1.3.6,1.4,1.8l2-.4c0-1.9-1.3-3-3.39-3s-3.79,1.5-3.79,4.9,1.2,5.1,3.29,5.1h-.1Z" style="fill: #000; stroke-width: 0px;"/>
        <path d="M739.18,389.47h-2v9.8h2v-9.8Z" style="fill: #000; stroke-width: 0px;"/>
        <path d="M742.97,399.37c1.8,0,3-1,3-3.5s-1.2-3.5-3-3.5-3,1-3,3.5,1.2,3.5,3,3.5ZM742.97,397.97c-.6,0-1-.5-1-2.1s.4-2.1,1-2.1,1,.5,1,2.1-.4,2.1-1,2.1Z" style="fill: #000; stroke-width: 0px;"/>
        <path d="M750.26,399.37c1.5,0,2.3-1.1,2.3-3.5s-.8-3.5-2.2-3.5-1.5.4-1.8,1.1v-4h-2v9.8h1.8v-1.1c.4.7,1,1.2,1.8,1.2h.1ZM749.46,397.97c-.6,0-.9-.5-.9-1.4v-1.4c0-.9.4-1.4.9-1.4s.9.5.9,2.1-.3,2.1-1,2.1h.1Z" style="fill: #000; stroke-width: 0px;"/>
        <path d="M754.95,399.37c.9,0,1.7-.5,1.9-1.2v1.1h1.9v-4.5c0-1.7-.8-2.4-2.7-2.4s-2.8.7-2.9,2.4h2c0-.7.2-1.1.8-1.1s.7.3.7.9v.5l-1.3.2c-.8.1-1.4.4-1.8.7-.4.3-.6.8-.6,1.5,0,1.2.7,2,2,2h0v-.1ZM755.75,398.07c-.5,0-.7-.3-.7-.8s.3-.9.9-1l.8-.2v.9c0,.7-.4,1.1-1,1.1Z" style="fill: #000; stroke-width: 0px;"/>
        <path d="M761.54,389.47h-2v9.8h2v-9.8Z" style="fill: #000; stroke-width: 0px;"/>
        <path d="M770.73,389.47h-2.1v4.1h-2.7v-4.1h-2.1v9.8h2.1v-4.1h2.7v4.1h2.1v-9.8Z" style="fill: #000; stroke-width: 0px;"/>
        <path d="M777.22,395.37c0-1.9-1-3-2.9-3s-3,1.1-3,3.5,1.2,3.5,3,3.5,2.5-.7,2.7-2l-1.7-.5c0,.8-.5,1.1-1,1.1s-1.1-.5-1.1-1.7h3.89v-.9h.1ZM773.42,395.17c0-1.2.4-1.6,1-1.6s.9.3.9,1.6h-1.9Z" style="fill: #000; stroke-width: 0px;"/>
        <path d="M779.52,399.37c.9,0,1.7-.5,1.9-1.2v1.1h1.9v-4.5c0-1.7-.8-2.4-2.7-2.4s-2.8.7-2.9,2.4h2c0-.7.2-1.1.8-1.1s.7.3.7.9v.5l-1.3.2c-.8.1-1.4.4-1.8.7-.4.3-.6.8-.6,1.5,0,1.2.7,2,2,2h0v-.1ZM780.31,398.07c-.5,0-.7-.3-.7-.8s.3-.9.9-1l.8-.2v.9c0,.7-.4,1.1-1,1.1Z" style="fill: #000; stroke-width: 0px;"/>
        <path d="M786.1,389.47h-2v9.8h2v-9.8Z" style="fill: #000; stroke-width: 0px;"/>
        <path d="M786.5,393.87h1v3.4c0,1.4.7,2.1,2.2,2.1s.7,0,1.1-.1v-1.6h-.5c-.6,0-.8-.3-.8-.9v-2.9h1.4v-1.3h-1.4v-2.3l-2,.7v1.6h-1v1.3h0Z" style="fill: #000; stroke-width: 0px;"/>
        <path d="M791.3,399.27h2v-4c0-1,.3-1.5.9-1.5s.8.3.8,1.1v4.4h2v-4.6c0-1.6-.6-2.3-1.8-2.3s-1.5.4-1.8,1.3v-4.2h-2v9.8h-.1Z" style="fill: #000; stroke-width: 0px;"/>
      </g>
    </g>
    <g style="isolation: isolate;">
      <g style="isolation: isolate;">
        <g style="isolation: isolate;">
          <path d="M121.54,353.5l-4.66-6.73-.36-.58v7.3h-1.22v-9.38h1.19l4.63,6.7.4.62v-7.31h1.22v9.38h-1.2Z" style="fill: #1a1a1a; stroke-width: 0px;"/>
          <path d="M131.05,350.12c0,2.05-1.4,3.52-3.41,3.52s-3.43-1.47-3.43-3.52,1.4-3.52,3.43-3.52,3.41,1.47,3.41,3.52ZM125.4,350.12c0,1.39.9,2.45,2.25,2.45s2.21-1.06,2.21-2.45-.87-2.45-2.21-2.45-2.25,1.04-2.25,2.45Z" style="fill: #1a1a1a; stroke-width: 0px;"/>
          <path d="M134.07,353.5l-2.57-6.75h1.23l1.78,4.85.13.51.13-.51,1.78-4.85h1.24l-2.58,6.75h-1.15Z" style="fill: #1a1a1a; stroke-width: 0px;"/>
        </g>
      </g>
    </g>
    <g style="isolation: isolate;">
      <g style="isolation: isolate;">
        <g style="isolation: isolate;">
          <path d="M243.73,348.91c0,2.81-1.85,4.69-4.75,4.69h-3.37v-9.38h3.37c2.9,0,4.75,1.89,4.75,4.69ZM236.83,352.46h2.15c2.15,0,3.51-1.33,3.51-3.55s-1.32-3.55-3.51-3.55h-2.15v7.1Z" style="fill: #1a1a1a; stroke-width: 0px;"/>
          <path d="M251.08,350.68h-5.11c.08,1.25.92,2,2.07,2,.9,0,1.55-.39,1.82-1.1h1.15c-.4,1.34-1.45,2.17-3,2.17-1.9,0-3.25-1.38-3.25-3.51s1.28-3.54,3.25-3.54c1.77,0,3.06,1.15,3.06,3.43v.55ZM249.91,349.65c-.01-1.15-.78-1.88-1.9-1.88s-1.91.79-2.05,1.88h3.95Z" style="fill: #1a1a1a; stroke-width: 0px;"/>
          <path d="M258.37,348.95h-1.15c-.27-.75-.96-1.18-1.83-1.18-1.2,0-2.1,1.03-2.1,2.47s.9,2.44,2.13,2.44c.86,0,1.57-.46,1.81-1.18h1.16c-.36,1.47-1.54,2.25-3.01,2.25-1.9,0-3.28-1.47-3.28-3.51s1.38-3.54,3.28-3.54c1.49,0,2.68.78,3,2.25Z" style="fill: #1a1a1a; stroke-width: 0px;"/>
        </g>
      </g>
    </g>
    <g style="isolation: isolate;">
      <g style="isolation: isolate;">
        <g style="isolation: isolate;">
          <path d="M358.92,352.73c-1.89,0-2.72-1.18-2.78-2.97h1.22c.05,1.22.57,1.83,1.57,1.83.91,0,1.4-.62,1.4-1.74v-6.63h1.22v6.69c0,1.86-.95,2.83-2.62,2.83Z" style="fill: #1a1a1a; stroke-width: 0px;"/>
          <path d="M368.16,348.12v4.47h-1.04l-.05-.92c-.33.6-1.06,1.07-2.05,1.07-1.18,0-1.97-.72-1.97-1.9s.83-1.75,1.89-1.96l2.06-.39v-.33c0-.96-.44-1.39-1.24-1.39-.74,0-1.38.4-1.38,1.23h-1.14c.04-1.3,1.03-2.3,2.52-2.3s2.41.86,2.41,2.42ZM364.22,350.83c0,.54.37.84,1.03.84.56,0,1.06-.24,1.37-.67.23-.31.39-.78.39-1.25v-.25l-1.85.4c-.51.12-.94.32-.94.92Z" style="fill: #1a1a1a; stroke-width: 0px;"/>
          <path d="M375.23,348.23v4.37h-1.17v-4.18c0-1.04-.5-1.59-1.31-1.59-.88,0-1.57.78-1.57,2.16v3.62h-1.15v-6.75h1.03l.07.92c.31-.59.95-1.07,1.9-1.07,1.45,0,2.2,1.04,2.2,2.53Z" style="fill: #1a1a1a; stroke-width: 0px;"/>
        </g>
      </g>
    </g>
    <g style="isolation: isolate;">
      <g style="isolation: isolate;">
        <g style="isolation: isolate;">
          <path d="M463.57,344.96v2.96h3.25v1.15h-3.25v4.13h-1.22v-9.38h5.04v1.14h-3.83Z" style="fill: #1a1a1a; stroke-width: 0px;"/>
          <path d="M474.33,350.28h-5.11c.08,1.25.92,2,2.07,2,.9,0,1.55-.39,1.82-1.1h1.15c-.4,1.34-1.45,2.17-3,2.17-1.9,0-3.25-1.38-3.25-3.51s1.28-3.54,3.25-3.54c1.77,0,3.06,1.15,3.06,3.43v.55ZM473.16,349.25c-.01-1.15-.78-1.88-1.9-1.88s-1.91.79-2.05,1.88h3.95Z" style="fill: #1a1a1a; stroke-width: 0px;"/>
          <path d="M479.21,346.3c1.9,0,3.16,1.53,3.16,3.52s-1.24,3.52-3.14,3.52c-1.22,0-1.9-.54-2.32-1.14l-.07.99h-1.03v-9.78h1.15v3.95c.38-.58,1.12-1.07,2.25-1.07ZM476.95,349.82v.07c0,1.46,1,2.37,2.1,2.37,1.28,0,2.13-1,2.13-2.44s-.88-2.42-2.14-2.42c-1.07,0-2.09.92-2.09,2.42Z" style="fill: #1a1a1a; stroke-width: 0px;"/>
        </g>
      </g>
    </g>
    <g style="isolation: isolate;">
      <g style="isolation: isolate;">
        <g style="isolation: isolate;">
          <path d="M569.31,353v-6.98l-.25.7-2.86,6.28h-.98l-2.85-6.28-.25-.7v6.98h-1.22v-9.38h1.34l3.21,6.89.25.6.27-.6,3.22-6.89h1.34v9.38h-1.22Z" style="fill: #1a1a1a; stroke-width: 0px;"/>
          <path d="M577.26,348.53v4.47h-1.04l-.05-.92c-.33.6-1.06,1.07-2.05,1.07-1.18,0-1.97-.72-1.97-1.9s.83-1.75,1.89-1.96l2.06-.39v-.33c0-.96-.44-1.39-1.24-1.39-.74,0-1.38.4-1.38,1.23h-1.14c.04-1.3,1.03-2.3,2.52-2.3s2.41.86,2.41,2.42ZM573.31,351.23c0,.54.37.84,1.03.84.56,0,1.06-.24,1.37-.67.23-.31.39-.78.39-1.25v-.25l-1.85.4c-.51.12-.94.32-.94.92Z" style="fill: #1a1a1a; stroke-width: 0px;"/>
          <path d="M580.98,347.83c-.36.33-.6.86-.62,1.59v3.58h-1.15v-6.75h1.03l.08,1.18c.23-.62.86-1.25,2.02-1.25v1.15c-.54,0-.99.15-1.36.5Z" style="fill: #1a1a1a; stroke-width: 0px;"/>
        </g>
      </g>
    </g>
    <g style="isolation: isolate;">
      <g style="isolation: isolate;">
        <g style="isolation: isolate;">
          <path d="M658.39,353.8l-.99-2.48h-4.13l-.98,2.48h-1.34l3.76-9.38h1.26l3.76,9.38h-1.34ZM653.68,350.18h3.31l-1.49-3.68-.17-.51-.17.51-1.47,3.68Z" style="fill: #1a1a1a; stroke-width: 0px;"/>
          <path d="M667.61,350.42c0,2-1.26,3.52-3.16,3.52-1.12,0-1.87-.5-2.23-1.07v3.81h-1.16v-9.63h1.04l.05.99c.42-.6,1.1-1.14,2.32-1.14,1.9,0,3.14,1.53,3.14,3.52ZM662.19,350.36v.07c0,1.5,1.02,2.42,2.09,2.42,1.26,0,2.14-1,2.14-2.42s-.84-2.44-2.13-2.44c-1.1,0-2.1.91-2.1,2.37Z" style="fill: #1a1a1a; stroke-width: 0px;"/>
          <path d="M670.95,348.63c-.36.33-.6.86-.62,1.59v3.58h-1.15v-6.75h1.03l.08,1.18c.23-.62.86-1.25,2.02-1.25v1.15c-.54,0-.99.15-1.36.5Z" style="fill: #1a1a1a; stroke-width: 0px;"/>
        </g>
      </g>
    </g>
    <g style="isolation: isolate;">
      <g style="isolation: isolate;">
        <g style="isolation: isolate;">
          <path d="M748.53,352.7v-6.98l-.25.7-2.86,6.28h-.98l-2.85-6.28-.25-.7v6.98h-1.22v-9.38h1.34l3.21,6.89.25.6.27-.6,3.22-6.89h1.34v9.38h-1.22Z" style="fill: #1a1a1a; stroke-width: 0px;"/>
          <path d="M756.47,348.23v4.47h-1.04l-.05-.92c-.33.6-1.06,1.07-2.05,1.07-1.18,0-1.97-.72-1.97-1.9s.83-1.75,1.89-1.96l2.06-.39v-.33c0-.96-.44-1.39-1.24-1.39-.74,0-1.38.4-1.38,1.23h-1.14c.04-1.3,1.03-2.3,2.52-2.3s2.41.86,2.41,2.42ZM752.53,350.93c0,.54.37.84,1.03.84.56,0,1.06-.24,1.37-.67.23-.31.39-.78.39-1.25v-.25l-1.85.4c-.51.12-.94.32-.94.92Z" style="fill: #1a1a1a; stroke-width: 0px;"/>
          <path d="M758.81,355.58l1.12-2.97-2.53-6.66h1.23l1.78,4.85.13.51.13-.51,1.78-4.85h1.25l-3.68,9.63h-1.22Z" style="fill: #1a1a1a; stroke-width: 0px;"/>
        </g>
      </g>
    </g>
    <g id="area-fills-svg">
      <path d="M2.04,330.6l24.86-4.3,24.86,1.2,24.86-6.8,24.86,2.1,24.86-5.3,24.86-8.9,24.86-24.1,24.86-20.2,24.86-22.6,24.86-20.6,24.86-14.2,24.86,15.9,24.86,39.7,24.86,30.6,24.86,17.2,24.86,6,24.86-4.8,24.86,6,24.86-.4,24.86,1,24.86-3.7,24.86,2.5,24.86,4.7v-6.8l-24.86,1.1-24.86-1.7-24.86-4.4-24.86-5.1-24.86,9.9-24.86-6.8-24.86-4.1-24.86-1.1-24.86-32.3-24.86-72.2-24.86-77.5-24.86-89.6-24.86,90-24.86,70.9-24.86,58.7-24.86,27.1-24.86,9.7-24.86,16-24.86,4.9-24.86,3.1-24.86,2-24.86,1.5-24.86,5.1v10.6Z" style="fill: #c6ddf4; isolation: isolate; opacity: .7; stroke-width: 0px;"/>
      <path d="M2.04,331.2h571.3v-9.5l-24.86-4.7-24.86-2.5-24.86,3.7-24.86-1-24.86.4-24.86-6-24.86,4.8-24.86-6-24.86-17.2-24.86-30.6-24.86-39.7-24.86-15.9-24.86,14.2-24.86,20.6-24.86,22.6-24.86,20.2-24.86,24.1-24.86,8.9-24.86,5.3-24.86-2.1-24.86,6.8-24.86-1.2-24.86,4.3v.6l.5-.1Z" style="fill: #dbb9e6; isolation: isolate; opacity: .7; stroke-width: 0px;"/>
      <path d="M2.04,328.9l24.86.9,24.86.3,24.86-.7,24.86,1,24.86-.3,24.86-2.9,24.86-1.7,24.86-3.1,24.86-4.1,24.86-8.6,24.86-25.8,24.86-36.6v-19.4l-24.86,19.1-24.86,26.2-24.86,23.3-24.86,19.6-24.86,4.5-24.86,3.9-24.86-.5h-24.86l-24.86,3.5-24.86,1.3-24.86-.9-24.86,1h0Z" style="fill: #04284a; isolation: isolate; opacity: .7; stroke-width: 0px;"/>
      <path d="M2.04,330.5l24.86-.5,24.86.8,24.86-.9h24.86l24.86-1.5,24.86-.3,24.86-.9,24.86-1.8,24.86-2.1,24.86-4.1,24.86-3.8,24.86-19.6,24.86-17.2,24.86-18,24.86-4.2,24.86-13.6,24.86-1,24.86-11.2,24.86,13.5,24.86,26,24.86,30.1,24.86,8.4,24.86.4,24.86,5.3,24.86,1.3,24.86,3,24.86,2.2,24.86,1,24.86-2.1,24.86,7.4,24.86,1.2,24.86-.9v2.3h-24.86l-24.86-.9-24.86-2.6-24.86-5.1-24.86-7.3-24.86-17.8-24.86-7.1-24.86-6.5-24.86-5.6-24.86-8.2-24.86-7.1-24.86-33.4-24.86-.5-24.86,12.5-24.86-2.5-24.86-18.6-24.86-4.2-24.86-14.7-24.86,26-24.86,21.1-24.86,36.6-24.86,25.8-24.86,8.6-24.86,4.1-24.86,3.1-24.86,1.7-24.86,2.9-24.86.3-24.86-1-24.86.7-24.86-.3-24.86-.9v1.7Z" style="fill: #efd952; isolation: isolate; opacity: .7; stroke-width: 0px;"/>
      <path d="M2.04,331.2h794.95v-3.8l-24.86.9-24.86-1.2-24.86-7.4-24.86,2.1-24.86-1-24.86-2.2-24.86-3-24.86-1.3-24.86-5.3-24.86-.4-24.86-8.4-24.86-30.1-24.86-26-24.86-13.5-24.86,11.2-24.86,1-24.86,13.6-24.86,4.2-24.86,18-24.86,17.2-24.86,19.6-24.86,3.8-24.86,4.1-24.86,2.1-24.86,1.8-24.86.9-24.86.3-24.86,1.5h-24.86l-24.86.9-24.86-.8-24.86.5v.6l.59.1Z" style="fill: #f56647; isolation: isolate; opacity: .7; stroke-width: 0px;"/>
    </g>
    <line x1="796.99" y1="331.2" x2="0" y2="331.2" style="fill: none; stroke: #1a1a1a; stroke-linecap: square;"/>
    <g id="_2022-2023-4" data-name=" 2022-2023-4" style="isolation: isolate;">
      <g style="isolation: isolate;">
        <g style="isolation: isolate;">
          <path d="M194.42,47.23c0,1.13-.5,1.99-1.19,2.87l-2.5,3.21h3.84v1.19h-5.59v-.94l3.15-3.98c.7-.88,1.01-1.46,1.01-2.31,0-1.01-.48-1.57-1.45-1.57-.88,0-1.52.56-1.52,1.82h-1.27c0-1.85,1.09-3.01,2.81-3.01s2.73,1.08,2.73,2.72Z" style="fill: #647a8e; stroke-width: 0px;"/>
          <path d="M202.2,49.58c0,3.1-1.17,5.1-3.28,5.1s-3.28-2-3.28-5.1,1.16-5.07,3.28-5.07,3.28,1.99,3.28,5.07ZM196.92,49.58c0,2.4.67,3.91,2,3.91s1.98-1.51,1.98-3.91-.67-3.88-1.98-3.88-2,1.5-2,3.88Z" style="fill: #647a8e; stroke-width: 0px;"/>
          <path d="M208.95,47.23c0,1.13-.5,1.99-1.19,2.87l-2.5,3.21h3.84v1.19h-5.59v-.94l3.14-3.98c.7-.88,1.01-1.46,1.01-2.31,0-1.01-.48-1.57-1.45-1.57-.88,0-1.52.56-1.52,1.82h-1.27c0-1.85,1.09-3.01,2.81-3.01s2.73,1.08,2.73,2.72Z" style="fill: #647a8e; stroke-width: 0px;"/>
          <path d="M215.73,47.23c0,1.13-.5,1.99-1.19,2.87l-2.5,3.21h3.84v1.19h-5.59v-.94l3.15-3.98c.7-.88,1.01-1.46,1.01-2.31,0-1.01-.48-1.57-1.45-1.57-.88,0-1.52.56-1.52,1.82h-1.27c0-1.85,1.09-3.01,2.81-3.01s2.73,1.08,2.73,2.72Z" style="fill: #647a8e; stroke-width: 0px;"/>
          <path d="M216.6,51.4v-1.08h4.4v1.08h-4.4Z" style="fill: #647a8e; stroke-width: 0px;"/>
          <path d="M227.32,47.23c0,1.13-.5,1.99-1.19,2.87l-2.5,3.21h3.84v1.19h-5.59v-.94l3.15-3.98c.7-.88,1.01-1.46,1.01-2.31,0-1.01-.48-1.57-1.45-1.57-.88,0-1.52.56-1.52,1.82h-1.27c0-1.85,1.09-3.01,2.81-3.01s2.73,1.08,2.73,2.72Z" style="fill: #647a8e; stroke-width: 0px;"/>
          <path d="M235.11,49.58c0,3.1-1.17,5.1-3.28,5.1s-3.28-2-3.28-5.1,1.16-5.07,3.28-5.07,3.28,1.99,3.28,5.07ZM229.82,49.58c0,2.4.67,3.91,2,3.91s1.98-1.51,1.98-3.91-.67-3.88-1.98-3.88-2,1.5-2,3.88Z" style="fill: #647a8e; stroke-width: 0px;"/>
          <path d="M241.86,47.23c0,1.13-.5,1.99-1.19,2.87l-2.5,3.21h3.84v1.19h-5.59v-.94l3.14-3.98c.7-.88,1.01-1.46,1.01-2.31,0-1.01-.48-1.57-1.45-1.57-.88,0-1.52.56-1.52,1.82h-1.27c0-1.85,1.09-3.01,2.81-3.01s2.73,1.08,2.73,2.72Z" style="fill: #647a8e; stroke-width: 0px;"/>
          <path d="M248.86,47.27c0,1.25-.71,1.92-1.37,2.14.85.22,1.71,1.02,1.71,2.42,0,1.68-1.22,2.84-3.03,2.84s-3.09-1.09-3.09-3h1.26c.01,1.27.81,1.81,1.86,1.81s1.72-.66,1.72-1.69c0-1.18-.84-1.81-2.31-1.81h-.32v-1.12h.31c1.37,0,1.98-.48,1.98-1.57,0-.97-.5-1.6-1.47-1.6-.85,0-1.55.53-1.55,1.77h-1.27c0-1.82,1.1-2.96,2.81-2.96s2.77,1.22,2.77,2.76Z" style="fill: #647a8e; stroke-width: 0px;"/>
        </g>
      </g>
    </g>
    <g id="_2017-2018-2" data-name=" 2017-2018-2" style="isolation: isolate;">
      <g style="isolation: isolate;">
        <g style="isolation: isolate;">
          <path d="M389.31,184.73c0,1.13-.5,1.99-1.19,2.87l-2.5,3.21h3.84v1.19h-5.59v-.94l3.15-3.98c.7-.88,1.01-1.46,1.01-2.31,0-1.01-.48-1.57-1.45-1.57-.88,0-1.52.56-1.52,1.82h-1.27c0-1.85,1.09-3.01,2.81-3.01s2.73,1.08,2.73,2.72Z" style="fill: #857700; stroke-width: 0px;"/>
          <path d="M397.09,187.08c0,3.1-1.17,5.1-3.28,5.1s-3.29-2-3.29-5.1,1.16-5.07,3.29-5.07,3.28,1.99,3.28,5.07ZM391.81,187.08c0,2.4.67,3.91,2,3.91s1.98-1.51,1.98-3.91-.67-3.88-1.98-3.88-2,1.5-2,3.88Z" style="fill: #857700; stroke-width: 0px;"/>
          <path d="M400.11,192v-7.51h-2.05v-1.09c1.43,0,2.11-.24,2.35-1.2h.98v9.81h-1.27Z" style="fill: #857700; stroke-width: 0px;"/>
          <path d="M404.85,192h-1.38l3.86-8.59h-4.37v-1.22h5.83v1.04l-3.93,8.77Z" style="fill: #857700; stroke-width: 0px;"/>
          <path d="M409.28,188.9v-1.08h4.4v1.08h-4.4Z" style="fill: #857700; stroke-width: 0px;"/>
          <path d="M420,184.73c0,1.13-.5,1.99-1.19,2.87l-2.5,3.21h3.84v1.19h-5.59v-.94l3.15-3.98c.7-.88,1.01-1.46,1.01-2.31,0-1.01-.48-1.57-1.45-1.57-.88,0-1.52.56-1.52,1.82h-1.27c0-1.85,1.09-3.01,2.81-3.01s2.73,1.08,2.73,2.72Z" style="fill: #857700; stroke-width: 0px;"/>
          <path d="M427.79,187.08c0,3.1-1.17,5.1-3.28,5.1s-3.29-2-3.29-5.1,1.16-5.07,3.29-5.07,3.28,1.99,3.28,5.07ZM422.5,187.08c0,2.4.67,3.91,2,3.91s1.98-1.51,1.98-3.91-.67-3.88-1.98-3.88-2,1.5-2,3.88Z" style="fill: #857700; stroke-width: 0px;"/>
          <path d="M430.81,192v-7.51h-2.05v-1.09c1.43,0,2.11-.24,2.35-1.2h.98v9.81h-1.27Z" style="fill: #857700; stroke-width: 0px;"/>
          <path d="M439.74,184.77c0,1.22-.7,1.93-1.2,2.19.63.28,1.51.98,1.51,2.35,0,1.67-1.36,2.87-3.12,2.87s-3.13-1.2-3.13-2.87c0-1.25.73-2.06,1.51-2.35-.52-.27-1.19-.98-1.19-2.19,0-1.53,1.09-2.76,2.81-2.76s2.81,1.23,2.81,2.76ZM435.08,189.28c0,1.09.87,1.72,1.84,1.72s1.83-.63,1.83-1.72-.87-1.75-1.83-1.75-1.84.66-1.84,1.75ZM435.38,184.8c0,.97.64,1.57,1.55,1.57s1.55-.6,1.55-1.57-.66-1.61-1.55-1.61-1.55.63-1.55,1.61Z" style="fill: #857700; stroke-width: 0px;"/>
        </g>
      </g>
    </g>
    <g id="_2019-2020-2" data-name=" 2019-2020-2" style="isolation: isolate;">
      <g style="isolation: isolate;">
        <g style="isolation: isolate;">
          <path d="M142.1,215.03c0,1.13-.5,1.99-1.19,2.87l-2.5,3.21h3.84v1.19h-5.59v-.94l3.15-3.98c.7-.88,1.01-1.46,1.01-2.31,0-1.01-.48-1.57-1.45-1.57-.88,0-1.52.56-1.52,1.82h-1.27c0-1.85,1.09-3.01,2.81-3.01s2.73,1.08,2.73,2.72Z" style="fill: #8b6c96; stroke-width: 0px;"/>
          <path d="M149.89,217.38c0,3.1-1.17,5.1-3.28,5.1s-3.28-2-3.28-5.1,1.16-5.07,3.28-5.07,3.28,1.99,3.28,5.07ZM144.6,217.38c0,2.4.67,3.91,2,3.91s1.98-1.51,1.98-3.91-.67-3.88-1.98-3.88-2,1.5-2,3.88Z" style="fill: #8b6c96; stroke-width: 0px;"/>
          <path d="M152.91,222.3v-7.51h-2.05v-1.09c1.43,0,2.11-.24,2.35-1.21h.98v9.81h-1.27Z" style="fill: #8b6c96; stroke-width: 0px;"/>
          <path d="M162.16,217.14c0,3.46-.99,5.34-3.34,5.34-1.57,0-2.73-1.05-2.8-2.7h1.29c.1,1.06.66,1.51,1.55,1.51,1.29,0,1.97-1.08,2.01-3.73-.35.52-1.12.98-2.04.98-1.91,0-3.02-1.34-3.02-3.07,0-1.82,1.2-3.17,3.06-3.17,1.01,0,1.76.35,2.31.98.78.9.98,2.33.98,3.85ZM160.76,215.48c0-.98-.71-1.99-1.86-1.99-1.08,0-1.79.83-1.79,1.96,0,1.06.71,1.91,1.79,1.91,1.02,0,1.86-.8,1.86-1.88Z" style="fill: #8b6c96; stroke-width: 0px;"/>
          <path d="M163.16,219.2v-1.08h4.4v1.08h-4.4Z" style="fill: #8b6c96; stroke-width: 0px;"/>
          <path d="M173.89,215.03c0,1.13-.5,1.99-1.19,2.87l-2.5,3.21h3.84v1.19h-5.59v-.94l3.15-3.98c.7-.88,1.01-1.46,1.01-2.31,0-1.01-.48-1.57-1.45-1.57-.88,0-1.52.56-1.52,1.82h-1.27c0-1.85,1.09-3.01,2.81-3.01s2.73,1.08,2.73,2.72Z" style="fill: #8b6c96; stroke-width: 0px;"/>
          <path d="M181.67,217.38c0,3.1-1.17,5.1-3.28,5.1s-3.28-2-3.28-5.1,1.16-5.07,3.28-5.07,3.28,1.99,3.28,5.07ZM176.39,217.38c0,2.4.67,3.91,2,3.91s1.98-1.51,1.98-3.91-.67-3.88-1.98-3.88-2,1.5-2,3.88Z" style="fill: #8b6c96; stroke-width: 0px;"/>
          <path d="M188.42,215.03c0,1.13-.5,1.99-1.19,2.87l-2.5,3.21h3.84v1.19h-5.59v-.94l3.14-3.98c.7-.88,1.01-1.46,1.01-2.31,0-1.01-.48-1.57-1.45-1.57-.88,0-1.52.56-1.52,1.82h-1.27c0-1.85,1.09-3.01,2.81-3.01s2.73,1.08,2.73,2.72Z" style="fill: #8b6c96; stroke-width: 0px;"/>
          <path d="M196.21,217.38c0,3.1-1.17,5.1-3.28,5.1s-3.28-2-3.28-5.1,1.16-5.07,3.28-5.07,3.28,1.99,3.28,5.07ZM190.92,217.38c0,2.4.67,3.91,2,3.91s1.98-1.51,1.98-3.91-.67-3.88-1.98-3.88-2,1.5-2,3.88Z" style="fill: #8b6c96; stroke-width: 0px;"/>
        </g>
      </g>
    </g>
    <g id="_2018-2019-2" data-name=" 2018-2019-2" style="isolation: isolate;">
      <g style="isolation: isolate;">
        <g style="isolation: isolate;">
          <path d="M466.39,201.93c0,1.13-.5,1.99-1.19,2.87l-2.5,3.21h3.84v1.19h-5.59v-.94l3.15-3.98c.7-.88,1.01-1.46,1.01-2.31,0-1.01-.48-1.57-1.45-1.57-.88,0-1.52.56-1.52,1.82h-1.27c0-1.85,1.09-3.01,2.81-3.01s2.73,1.08,2.73,2.72Z" style="fill: #d0452b; stroke-width: 0px;"/>
          <path d="M474.17,204.28c0,3.1-1.17,5.1-3.28,5.1s-3.29-2-3.29-5.1,1.16-5.07,3.29-5.07,3.28,1.99,3.28,5.07ZM468.89,204.28c0,2.4.67,3.91,2,3.91s1.98-1.51,1.98-3.91-.67-3.88-1.98-3.88-2,1.5-2,3.88Z" style="fill: #d0452b; stroke-width: 0px;"/>
          <path d="M477.19,209.2v-7.51h-2.05v-1.09c1.43,0,2.11-.24,2.35-1.21h.98v9.81h-1.27Z" style="fill: #d0452b; stroke-width: 0px;"/>
          <path d="M486.12,201.97c0,1.22-.7,1.93-1.2,2.18.63.28,1.51.98,1.51,2.35,0,1.67-1.36,2.87-3.12,2.87s-3.13-1.2-3.13-2.87c0-1.25.73-2.06,1.51-2.35-.52-.27-1.19-.98-1.19-2.18,0-1.53,1.09-2.76,2.81-2.76s2.81,1.23,2.81,2.76ZM481.47,206.48c0,1.09.87,1.72,1.84,1.72s1.83-.63,1.83-1.72-.87-1.75-1.83-1.75-1.84.66-1.84,1.75ZM481.76,202c0,.97.64,1.57,1.55,1.57s1.55-.6,1.55-1.57-.66-1.61-1.55-1.61-1.55.63-1.55,1.61Z" style="fill: #d0452b; stroke-width: 0px;"/>
          <path d="M487.45,206.1v-1.08h4.4v1.08h-4.4Z" style="fill: #d0452b; stroke-width: 0px;"/>
          <path d="M498.17,201.93c0,1.13-.5,1.99-1.19,2.87l-2.5,3.21h3.84v1.19h-5.59v-.94l3.15-3.98c.7-.88,1.01-1.46,1.01-2.31,0-1.01-.48-1.57-1.45-1.57-.88,0-1.52.56-1.52,1.82h-1.27c0-1.85,1.09-3.01,2.81-3.01s2.73,1.08,2.73,2.72Z" style="fill: #d0452b; stroke-width: 0px;"/>
          <path d="M505.96,204.28c0,3.1-1.17,5.1-3.28,5.1s-3.29-2-3.29-5.1,1.16-5.07,3.29-5.07,3.28,1.99,3.28,5.07ZM500.67,204.28c0,2.4.67,3.91,2,3.91s1.98-1.51,1.98-3.91-.67-3.88-1.98-3.88-2,1.5-2,3.88Z" style="fill: #d0452b; stroke-width: 0px;"/>
          <path d="M508.97,209.2v-7.51h-2.05v-1.09c1.43,0,2.11-.24,2.35-1.21h.98v9.81h-1.27Z" style="fill: #d0452b; stroke-width: 0px;"/>
          <path d="M518.23,204.04c0,3.46-.99,5.34-3.34,5.34-1.57,0-2.73-1.05-2.79-2.7h1.29c.1,1.06.66,1.51,1.55,1.51,1.29,0,1.97-1.08,2.01-3.73-.35.52-1.12.98-2.04.98-1.92,0-3.02-1.34-3.02-3.07,0-1.82,1.2-3.17,3.06-3.17,1.01,0,1.76.35,2.31.98.78.9.98,2.33.98,3.85ZM516.83,202.38c0-.98-.71-1.99-1.86-1.99-1.08,0-1.79.83-1.79,1.96,0,1.06.71,1.91,1.79,1.91,1.02,0,1.86-.8,1.86-1.88Z" style="fill: #d0452b; stroke-width: 0px;"/>
        </g>
      </g>
    </g>
    <g id="svelte-zo497q-svg">
      <g id="callout-line-svg">
        <path d="M250.95,43.2c5.59-2.3,10.88-5.3,15.87-9.1" style="fill: none; stroke: #647a8e;"/>
      </g>
    </g>
    <g id="svelte-zo497q-svg-2">
      <g id="callout-line-svg-2">
        <path d="M331.93,182.3c-17.67,8.8-29.65,23.5-35.84,44" style="fill: none; stroke: #04284a;"/>
      </g>
    </g>
    <g style="isolation: isolate;">
      <g style="isolation: isolate;">
        <g style="isolation: isolate;">
          <path d="M342.08,174.93c0,1.13-.5,1.99-1.19,2.87l-2.5,3.21h3.84v1.19h-5.59v-.94l3.14-3.98c.7-.88,1.01-1.46,1.01-2.31,0-1.01-.48-1.57-1.45-1.57-.88,0-1.52.56-1.52,1.82h-1.27c0-1.85,1.09-3.01,2.81-3.01s2.73,1.08,2.73,2.72Z" style="fill: #04284a; stroke-width: 0px;"/>
          <path d="M349.87,177.28c0,3.1-1.17,5.1-3.28,5.1s-3.28-2-3.28-5.1,1.16-5.07,3.28-5.07,3.28,1.99,3.28,5.07ZM344.58,177.28c0,2.4.67,3.91,2,3.91s1.98-1.51,1.98-3.91-.67-3.88-1.98-3.88-2,1.5-2,3.88Z" style="fill: #04284a; stroke-width: 0px;"/>
          <path d="M356.62,174.93c0,1.13-.5,1.99-1.19,2.87l-2.5,3.21h3.84v1.19h-5.59v-.94l3.15-3.98c.7-.88,1.01-1.46,1.01-2.31,0-1.01-.48-1.57-1.45-1.57-.88,0-1.52.56-1.52,1.82h-1.27c0-1.85,1.09-3.01,2.81-3.01s2.73,1.08,2.73,2.72Z" style="fill: #04284a; stroke-width: 0px;"/>
          <path d="M363.62,174.97c0,1.25-.71,1.92-1.37,2.14.85.22,1.71,1.02,1.71,2.42,0,1.68-1.22,2.84-3.03,2.84s-3.09-1.09-3.09-3h1.26c.01,1.27.81,1.81,1.86,1.81s1.72-.66,1.72-1.69c0-1.18-.84-1.81-2.31-1.81h-.32v-1.12h.31c1.37,0,1.99-.48,1.99-1.57,0-.97-.5-1.6-1.47-1.6-.85,0-1.55.53-1.55,1.77h-1.27c0-1.82,1.1-2.96,2.81-2.96s2.77,1.22,2.77,2.76Z" style="fill: #04284a; stroke-width: 0px;"/>
        </g>
      </g>
    </g>
    <g id="svelte-zo497q-svg-3">
      <g id="callout-line-svg-3">
        <path d="M377.85,192c-9.78-.2-19.57,2.2-29.45,7.3" style="fill: none; stroke: #857700;"/>
      </g>
    </g>
    <g id="svelte-zo497q-svg-4">
      <g id="callout-line-svg-4">
        <path d="M201.03,211.4c20.47-9.2,40.24-11.9,69.19-5.4" style="fill: none; stroke: #8b6c96;"/>
      </g>
    </g>
    <g id="svelte-zo497q-svg-5">
      <g id="callout-line-svg-5">
        <path d="M460.22,213.2c-4.59,4.1-8.59,9.3-11.78,15.5" style="fill: none; stroke: #f56647;"/>
      </g>
    </g>
    <g id="y-tick-labels-svg_number-axis-svg_grid-y-svg_datawrapper-RtHpC-uu7shf-svg-2" data-name="y-tick-labels-svg number-axis-svg grid-y-svg datawrapper-RtHpC-uu7shf-svg-2">
      <g style="isolation: isolate;">
        <g style="isolation: isolate;">
          <g style="isolation: isolate;">
            <path d="M44.3,247.89v2.84c.32-.2.87-.36,1.59-.36,1.72,0,2.91,1.13,2.91,3.05s-1.15,3.26-3.07,3.26c-1.79,0-2.99-.97-2.99-2.86h1.27c.01,1.16.73,1.67,1.73,1.67,1.15,0,1.77-.84,1.77-2.03s-.66-1.9-1.8-1.9c-.71,0-1.23.22-1.57.45h-1.13v-5.31h5.27v1.19h-3.98Z" style="fill: #1a1a1a; stroke-width: 0px;"/>
          </g>
        </g>
      </g>
      <g style="isolation: isolate;">
        <g style="isolation: isolate;">
          <g style="isolation: isolate;">
            <path d="M44.32,173.6v-7.51h-2.05v-1.09c1.43,0,2.11-.24,2.35-1.2h.98v9.81h-1.27Z" style="fill: #1a1a1a; stroke-width: 0px;"/>
            <path d="M53.81,168.68c0,3.1-1.17,5.1-3.28,5.1s-3.28-2-3.28-5.1,1.16-5.07,3.28-5.07,3.28,1.99,3.28,5.07ZM48.53,168.68c0,2.4.67,3.91,2,3.91s1.98-1.51,1.98-3.91-.67-3.88-1.98-3.88-2,1.5-2,3.88Z" style="fill: #1a1a1a; stroke-width: 0px;"/>
          </g>
        </g>
      </g>
      <g style="isolation: isolate;">
        <g style="isolation: isolate;">
          <g style="isolation: isolate;">
            <path d="M44.32,90.7v-7.51h-2.05v-1.09c1.43,0,2.11-.24,2.35-1.2h.98v9.81h-1.27Z" style="fill: #1a1a1a; stroke-width: 0px;"/>
            <path d="M49.06,82.09v2.84c.32-.2.87-.36,1.59-.36,1.72,0,2.91,1.13,2.91,3.05s-1.15,3.26-3.07,3.26c-1.79,0-2.99-.97-2.99-2.86h1.27c.01,1.16.73,1.67,1.73,1.67,1.15,0,1.78-.84,1.78-2.03s-.66-1.91-1.8-1.91c-.71,0-1.23.22-1.57.45h-1.13v-5.31h5.27v1.19h-3.98Z" style="fill: #1a1a1a; stroke-width: 0px;"/>
          </g>
        </g>
      </g>
    </g>
    <g style="isolation: isolate;">
      <g style="isolation: isolate;">
        <path d="M314.27,43.36v1.14h-5.39v-9.38h1.22v8.24h4.18Z" style="fill: #1a1a1a; stroke-width: 0px;"/>
        <path d="M321.86,41.12c0,2.05-1.4,3.52-3.41,3.52s-3.43-1.47-3.43-3.52,1.4-3.52,3.43-3.52,3.41,1.47,3.41,3.52ZM316.21,41.12c0,1.39.9,2.45,2.25,2.45s2.21-1.06,2.21-2.45-.87-2.45-2.21-2.45-2.25,1.04-2.25,2.45Z" style="fill: #1a1a1a; stroke-width: 0px;"/>
        <path d="M328.86,44.5l-1.63-4.82-1.65,4.82h-1.12l-2.14-6.75h1.23l1.41,4.72.13.62.15-.62,1.51-4.72h.99l1.51,4.72.15.62.13-.62,1.41-4.72h1.23l-2.14,6.75h-1.16Z" style="fill: #1a1a1a; stroke-width: 0px;"/>
        <path d="M337.86,44.5l-2.57-6.75h1.23l1.78,4.85.13.51.13-.51,1.78-4.85h1.24l-2.58,6.75h-1.15Z" style="fill: #1a1a1a; stroke-width: 0px;"/>
        <path d="M347.33,40.03v4.47h-1.04l-.05-.92c-.33.6-1.06,1.07-2.05,1.07-1.18,0-1.97-.72-1.97-1.9s.83-1.76,1.89-1.96l2.06-.39v-.33c0-.96-.44-1.39-1.24-1.39-.74,0-1.38.4-1.38,1.23h-1.14c.04-1.3,1.03-2.3,2.52-2.3s2.41.86,2.41,2.42ZM343.38,42.73c0,.54.37.84,1.03.84.56,0,1.06-.24,1.36-.67.23-.31.39-.78.39-1.25v-.25l-1.85.4c-.51.12-.94.32-.94.92Z" style="fill: #1a1a1a; stroke-width: 0px;"/>
        <path d="M354.93,39.85h-1.15c-.27-.75-.96-1.18-1.83-1.18-1.2,0-2.1,1.03-2.1,2.46s.9,2.44,2.13,2.44c.86,0,1.57-.46,1.81-1.18h1.16c-.36,1.47-1.54,2.25-3.01,2.25-1.9,0-3.28-1.47-3.28-3.51s1.38-3.54,3.28-3.54c1.49,0,2.68.78,3,2.25Z" style="fill: #1a1a1a; stroke-width: 0px;"/>
        <path d="M362.16,39.85h-1.15c-.27-.75-.96-1.18-1.83-1.18-1.2,0-2.1,1.03-2.1,2.46s.9,2.44,2.13,2.44c.86,0,1.57-.46,1.81-1.18h1.16c-.36,1.47-1.54,2.25-3.01,2.25-1.9,0-3.28-1.47-3.28-3.51s1.38-3.54,3.28-3.54c1.49,0,2.68.78,3,2.25Z" style="fill: #1a1a1a; stroke-width: 0px;"/>
        <path d="M365.04,35.67c0,.43-.36.78-.8.78s-.79-.35-.79-.78.35-.79.79-.79.8.35.8.79ZM363.67,44.5v-6.75h1.15v6.75h-1.15Z" style="fill: #1a1a1a; stroke-width: 0px;"/>
        <path d="M372.06,40.13v4.37h-1.17v-4.18c0-1.05-.5-1.59-1.31-1.59-.88,0-1.57.78-1.57,2.16v3.62h-1.15v-6.75h1.03l.07.92c.31-.59.95-1.07,1.9-1.07,1.45,0,2.2,1.04,2.2,2.53Z" style="fill: #1a1a1a; stroke-width: 0px;"/>
        <path d="M379.72,41.58h-5.11c.08,1.25.92,2,2.07,2,.9,0,1.55-.39,1.82-1.1h1.15c-.4,1.34-1.45,2.17-3,2.17-1.9,0-3.25-1.38-3.25-3.51s1.28-3.54,3.25-3.54c1.77,0,3.06,1.15,3.06,3.43v.55ZM378.56,40.55c-.01-1.15-.78-1.88-1.9-1.88s-1.91.79-2.05,1.88h3.95Z" style="fill: #1a1a1a; stroke-width: 0px;"/>
        <path d="M389.66,39.85h-1.15c-.27-.75-.96-1.18-1.83-1.18-1.2,0-2.1,1.03-2.1,2.46s.9,2.44,2.13,2.44c.86,0,1.57-.46,1.81-1.18h1.16c-.36,1.47-1.54,2.25-3.01,2.25-1.9,0-3.28-1.47-3.28-3.51s1.38-3.54,3.28-3.54c1.49,0,2.68.78,3,2.25Z" style="fill: #1a1a1a; stroke-width: 0px;"/>
        <path d="M397.45,41.12c0,2.05-1.41,3.52-3.41,3.52s-3.43-1.47-3.43-3.52,1.41-3.52,3.43-3.52,3.41,1.47,3.41,3.52ZM391.8,41.12c0,1.39.9,2.45,2.25,2.45s2.21-1.06,2.21-2.45-.87-2.45-2.21-2.45-2.25,1.04-2.25,2.45Z" style="fill: #1a1a1a; stroke-width: 0px;"/>
        <path d="M400.47,44.5l-2.57-6.75h1.23l1.78,4.85.13.51.13-.51,1.78-4.85h1.25l-2.58,6.75h-1.15Z" style="fill: #1a1a1a; stroke-width: 0px;"/>
        <path d="M410.95,41.58h-5.11c.08,1.25.92,2,2.07,2,.9,0,1.55-.39,1.82-1.1h1.15c-.4,1.34-1.45,2.17-3,2.17-1.9,0-3.25-1.38-3.25-3.51s1.28-3.54,3.25-3.54c1.77,0,3.06,1.15,3.06,3.43v.55ZM409.78,40.55c-.01-1.15-.78-1.88-1.9-1.88s-1.91.79-2.05,1.88h3.95Z" style="fill: #1a1a1a; stroke-width: 0px;"/>
        <path d="M414.28,39.33c-.36.33-.6.86-.62,1.59v3.58h-1.15v-6.75h1.03l.08,1.18c.23-.62.86-1.25,2.02-1.25v1.15c-.54,0-.99.15-1.36.5Z" style="fill: #1a1a1a; stroke-width: 0px;"/>
        <path d="M421.48,40.03v4.47h-1.04l-.05-.92c-.33.6-1.06,1.07-2.05,1.07-1.18,0-1.97-.72-1.97-1.9s.83-1.76,1.89-1.96l2.06-.39v-.33c0-.96-.44-1.39-1.24-1.39-.74,0-1.38.4-1.38,1.23h-1.14c.04-1.3,1.03-2.3,2.52-2.3s2.41.86,2.41,2.42ZM417.53,42.73c0,.54.37.84,1.03.84.56,0,1.06-.24,1.37-.67.23-.31.39-.78.39-1.25v-.25l-1.85.4c-.51.12-.94.32-.94.92Z" style="fill: #1a1a1a; stroke-width: 0px;"/>
        <path d="M429.1,38.77h-1.16c.2.36.32.79.32,1.26,0,1.34-1,2.4-2.57,2.4-.56,0-1.06-.13-1.45-.36-.16.15-.28.38-.28.67,0,.44.35.68.86.68h1.79c1.43,0,2.13.71,2.13,1.83,0,1.43-1.08,2.28-2.81,2.28-1.91,0-2.94-.78-2.94-2.1,0-.64.35-1,.74-1.22-.45-.23-.9-.72-.9-1.41,0-.62.31-1.08.7-1.38-.28-.39-.43-.87-.43-1.39,0-1.39,1.02-2.42,2.6-2.42.35,0,.67.05.96.15h2.45v1.02ZM424.12,45.38c0,.74.67,1.13,1.81,1.13,1.04,0,1.67-.4,1.67-1.21,0-.63-.47-.87-1.22-.87h-1.28c-.51.03-.98.29-.98.95ZM427.12,40.03c0-.8-.55-1.41-1.45-1.41s-1.45.6-1.45,1.41.56,1.38,1.45,1.38,1.45-.6,1.45-1.38Z" style="fill: #1a1a1a; stroke-width: 0px;"/>
        <path d="M435.83,41.58h-5.11c.08,1.25.92,2,2.07,2,.9,0,1.55-.39,1.82-1.1h1.15c-.4,1.34-1.45,2.17-3,2.17-1.9,0-3.25-1.38-3.25-3.51s1.28-3.54,3.25-3.54c1.77,0,3.06,1.15,3.06,3.43v.55ZM434.67,40.55c-.01-1.15-.78-1.88-1.9-1.88s-1.91.79-2.05,1.88h3.95Z" style="fill: #1a1a1a; stroke-width: 0px;"/>
        <path d="M444.75,40.03v4.47h-1.04l-.05-.92c-.33.6-1.06,1.07-2.05,1.07-1.18,0-1.97-.72-1.97-1.9s.83-1.76,1.89-1.96l2.06-.39v-.33c0-.96-.44-1.39-1.24-1.39-.74,0-1.38.4-1.38,1.23h-1.14c.04-1.3,1.03-2.3,2.52-2.3s2.41.86,2.41,2.42ZM440.81,42.73c0,.54.38.84,1.03.84.56,0,1.06-.24,1.37-.67.23-.31.39-.78.39-1.25v-.25l-1.85.4c-.51.12-.94.32-.94.92Z" style="fill: #1a1a1a; stroke-width: 0px;"/>
        <path d="M451.82,40.13v4.37h-1.17v-4.18c0-1.05-.5-1.59-1.31-1.59-.88,0-1.57.78-1.57,2.16v3.62h-1.15v-6.75h1.03l.07.92c.31-.59.95-1.07,1.9-1.07,1.45,0,2.2,1.04,2.2,2.53Z" style="fill: #1a1a1a; stroke-width: 0px;"/>
        <path d="M458.7,44.5l-.07-.99c-.42.6-1.1,1.14-2.32,1.14-1.9,0-3.14-1.53-3.14-3.52s1.26-3.52,3.16-3.52c1.12,0,1.87.5,2.25,1.07v-3.95h1.15v9.78h-1.03ZM454.36,41.12c0,1.43.84,2.44,2.13,2.44,1.1,0,2.1-.91,2.1-2.37v-.07c0-1.5-1.02-2.42-2.09-2.42-1.26,0-2.14,1-2.14,2.42Z" style="fill: #1a1a1a; stroke-width: 0px;"/>
        <path d="M468.46,44.5l-.07-.92c-.31.64-.92,1.07-1.86,1.07-1.46,0-2.17-1.03-2.17-2.53v-4.37h1.15v4.18c0,1.06.47,1.61,1.29,1.61.87,0,1.54-.74,1.54-2.04v-3.75h1.15v6.75h-1.03Z" style="fill: #1a1a1a; stroke-width: 0px;"/>
        <path d="M476.69,40.13v4.37h-1.17v-4.18c0-1.05-.5-1.59-1.31-1.59-.88,0-1.57.78-1.57,2.16v3.62h-1.15v-6.75h1.03l.07.92c.31-.59.95-1.07,1.9-1.07,1.45,0,2.2,1.04,2.2,2.53Z" style="fill: #1a1a1a; stroke-width: 0px;"/>
        <path d="M482.59,44.5l-.07-.92c-.31.64-.92,1.07-1.86,1.07-1.46,0-2.17-1.03-2.17-2.53v-4.37h1.15v4.18c0,1.06.47,1.61,1.29,1.61.87,0,1.54-.74,1.54-2.04v-3.75h1.15v6.75h-1.03Z" style="fill: #1a1a1a; stroke-width: 0px;"/>
        <path d="M489.76,39.73h-1.18c-.01-.71-.35-1.06-1.07-1.06s-1.03.42-1.03.91c0,.52.27.74,1.27.98,1.61.38,2.21.94,2.21,2.02,0,1.31-1.02,2.06-2.37,2.06-1.57,0-2.44-.88-2.46-2.2h1.18c.01.71.47,1.13,1.31,1.13.78,0,1.16-.39,1.16-.91,0-.56-.29-.83-1.41-1.08-1.41-.32-2.07-.82-2.07-1.93s.78-2.05,2.23-2.05c1.31,0,2.2.86,2.22,2.13Z" style="fill: #1a1a1a; stroke-width: 0px;"/>
        <path d="M495.5,44.5l-.07-.92c-.31.64-.92,1.07-1.86,1.07-1.46,0-2.17-1.03-2.17-2.53v-4.37h1.15v4.18c0,1.06.47,1.61,1.29,1.61.87,0,1.54-.74,1.54-2.04v-3.75h1.15v6.75h-1.03Z" style="fill: #1a1a1a; stroke-width: 0px;"/>
        <path d="M503.25,40.03v4.47h-1.04l-.05-.92c-.33.6-1.06,1.07-2.05,1.07-1.18,0-1.97-.72-1.97-1.9s.83-1.76,1.89-1.96l2.06-.39v-.33c0-.96-.44-1.39-1.24-1.39-.74,0-1.38.4-1.38,1.23h-1.14c.04-1.3,1.03-2.3,2.52-2.3s2.41.86,2.41,2.42ZM499.3,42.73c0,.54.37.84,1.03.84.56,0,1.06-.24,1.37-.67.23-.31.39-.78.39-1.25v-.25l-1.85.4c-.51.12-.94.32-.94.92Z" style="fill: #1a1a1a; stroke-width: 0px;"/>
        <path d="M505.12,44.5v-9.78h1.15v9.78h-1.15Z" style="fill: #1a1a1a; stroke-width: 0px;"/>
        <path d="M508.28,44.5v-9.78h1.15v9.78h-1.15Z" style="fill: #1a1a1a; stroke-width: 0px;"/>
        <path d="M512.03,47.38l1.12-2.97-2.53-6.66h1.23l1.78,4.85.13.51.13-.51,1.78-4.85h1.25l-3.68,9.63h-1.22Z" style="fill: #1a1a1a; stroke-width: 0px;"/>
        <path d="M526.65,41.58h-5.11c.08,1.25.92,2,2.07,2,.9,0,1.55-.39,1.82-1.1h1.15c-.4,1.34-1.45,2.17-3,2.17-1.9,0-3.25-1.38-3.25-3.51s1.28-3.54,3.25-3.54c1.77,0,3.06,1.15,3.06,3.43v.55ZM525.48,40.55c-.01-1.15-.78-1.88-1.9-1.88s-1.91.79-2.05,1.88h3.95Z" style="fill: #1a1a1a; stroke-width: 0px;"/>
        <path d="M532.84,40.03v4.47h-1.04l-.05-.92c-.33.6-1.06,1.07-2.05,1.07-1.18,0-1.97-.72-1.97-1.9s.83-1.76,1.89-1.96l2.06-.39v-.33c0-.96-.44-1.39-1.24-1.39-.74,0-1.38.4-1.38,1.23h-1.14c.04-1.3,1.03-2.3,2.52-2.3s2.41.86,2.41,2.42ZM528.89,42.73c0,.54.38.84,1.03.84.56,0,1.06-.24,1.37-.67.23-.31.39-.78.39-1.25v-.25l-1.85.4c-.51.12-.94.32-.94.92Z" style="fill: #1a1a1a; stroke-width: 0px;"/>
        <path d="M536.56,39.33c-.36.33-.6.86-.62,1.59v3.58h-1.15v-6.75h1.03l.08,1.18c.23-.62.86-1.25,2.02-1.25v1.15c-.54,0-.99.15-1.36.5Z" style="fill: #1a1a1a; stroke-width: 0px;"/>
        <path d="M539.23,44.5v-9.78h1.15v9.78h-1.15Z" style="fill: #1a1a1a; stroke-width: 0px;"/>
        <path d="M542.99,47.38l1.12-2.97-2.53-6.66h1.23l1.78,4.85.13.51.13-.51,1.78-4.85h1.25l-3.68,9.63h-1.22Z" style="fill: #1a1a1a; stroke-width: 0px;"/>
      </g>
      <g style="isolation: isolate;">
        <path d="M310.29,51.67c0,.43-.36.78-.8.78s-.79-.35-.79-.78.35-.79.79-.79.8.35.8.79ZM308.91,60.5v-6.75h1.15v6.75h-1.15Z" style="fill: #1a1a1a; stroke-width: 0px;"/>
        <path d="M317.3,56.13v4.37h-1.16v-4.18c0-1.05-.5-1.59-1.31-1.59-.88,0-1.57.78-1.57,2.16v3.62h-1.15v-6.75h1.03l.07.92c.31-.59.95-1.07,1.9-1.07,1.45,0,2.19,1.04,2.19,2.53Z" style="fill: #1a1a1a; stroke-width: 0px;"/>
        <path d="M322.51,50.76v1.04c-.23-.09-.47-.16-.82-.16-.59,0-.95.35-.95,1.1v1h1.67v1.06h-1.67v5.69h-1.16v-5.69h-1.22v-1.06h1.22v-1.03c0-1.34.74-2.12,2.02-2.12.4,0,.72.08.91.16Z" style="fill: #1a1a1a; stroke-width: 0px;"/>
        <path d="M323.61,60.5v-9.78h1.15v9.78h-1.15Z" style="fill: #1a1a1a; stroke-width: 0px;"/>
        <path d="M330.77,60.5l-.07-.92c-.31.64-.92,1.07-1.86,1.07-1.46,0-2.17-1.03-2.17-2.53v-4.37h1.15v4.18c0,1.06.47,1.61,1.28,1.61.87,0,1.54-.74,1.54-2.04v-3.75h1.15v6.75h-1.03Z" style="fill: #1a1a1a; stroke-width: 0px;"/>
        <path d="M339.57,57.58h-5.11c.08,1.25.92,2,2.07,2,.9,0,1.55-.39,1.82-1.1h1.15c-.4,1.34-1.45,2.17-3,2.17-1.9,0-3.25-1.38-3.25-3.51s1.28-3.54,3.25-3.54c1.77,0,3.06,1.15,3.06,3.43v.55ZM338.41,56.55c-.01-1.15-.78-1.88-1.9-1.88s-1.91.79-2.05,1.88h3.95Z" style="fill: #1a1a1a; stroke-width: 0px;"/>
        <path d="M346.25,56.13v4.37h-1.16v-4.18c0-1.05-.5-1.59-1.31-1.59-.88,0-1.57.78-1.57,2.16v3.62h-1.15v-6.75h1.03l.07.92c.31-.59.95-1.07,1.9-1.07,1.45,0,2.19,1.04,2.19,2.53Z" style="fill: #1a1a1a; stroke-width: 0px;"/>
        <path d="M349.14,59.47h3.8v1.03h-5.34v-.88l3.59-4.84h-3.56v-1.03h5.1v.88l-3.59,4.84Z" style="fill: #1a1a1a; stroke-width: 0px;"/>
        <path d="M358.97,56.03v4.47h-1.04l-.05-.92c-.33.6-1.06,1.07-2.05,1.07-1.18,0-1.97-.72-1.97-1.9s.83-1.76,1.89-1.96l2.06-.39v-.33c0-.96-.44-1.39-1.24-1.39-.74,0-1.38.4-1.38,1.23h-1.14c.04-1.3,1.03-2.3,2.52-2.3s2.41.86,2.41,2.42ZM355.02,58.73c0,.54.37.84,1.03.84.56,0,1.06-.24,1.36-.67.23-.31.39-.78.39-1.25v-.25l-1.85.4c-.51.12-.94.32-.94.92Z" style="fill: #1a1a1a; stroke-width: 0px;"/>
        <path d="M368.28,56.03v4.47h-1.04l-.05-.92c-.33.6-1.06,1.07-2.05,1.07-1.18,0-1.97-.72-1.97-1.9s.83-1.76,1.89-1.96l2.06-.39v-.33c0-.96-.44-1.39-1.24-1.39-.74,0-1.38.4-1.38,1.23h-1.14c.04-1.3,1.03-2.3,2.52-2.3s2.41.86,2.41,2.42ZM364.33,58.73c0,.54.38.84,1.03.84.56,0,1.06-.24,1.37-.67.23-.31.39-.78.39-1.25v-.25l-1.85.4c-.51.12-.94.32-.94.92Z" style="fill: #1a1a1a; stroke-width: 0px;"/>
        <path d="M375.88,55.85h-1.15c-.27-.75-.96-1.18-1.83-1.18-1.2,0-2.1,1.03-2.1,2.46s.9,2.44,2.13,2.44c.86,0,1.57-.46,1.81-1.18h1.16c-.36,1.47-1.54,2.25-3.01,2.25-1.9,0-3.28-1.47-3.28-3.51s1.38-3.54,3.28-3.54c1.49,0,2.68.78,3,2.25Z" style="fill: #1a1a1a; stroke-width: 0px;"/>
        <path d="M380.6,53.75v1.07h-1.74l-.03,3.62c0,.74.19,1.1.96,1.1.38,0,.6-.05.8-.12v1.03c-.2.08-.51.15-1,.15-1.27,0-1.93-.56-1.91-1.94l.03-3.83h-1.26v-1.07h1.26v-1.69h1.18v1.69s1.71,0,1.71,0Z" style="fill: #1a1a1a; stroke-width: 0px;"/>
        <path d="M383.43,51.67c0,.43-.36.78-.8.78s-.79-.35-.79-.78.35-.79.79-.79.8.35.8.79ZM382.05,60.5v-6.75h1.15v6.75h-1.15Z" style="fill: #1a1a1a; stroke-width: 0px;"/>
        <path d="M387.01,60.5l-2.57-6.75h1.23l1.78,4.85.13.51.13-.51,1.78-4.85h1.25l-2.58,6.75h-1.15Z" style="fill: #1a1a1a; stroke-width: 0px;"/>
        <path d="M393.35,51.67c0,.43-.36.78-.8.78s-.79-.35-.79-.78.35-.79.79-.79.8.35.8.79ZM391.97,60.5v-6.75h1.15v6.75h-1.15Z" style="fill: #1a1a1a; stroke-width: 0px;"/>
        <path d="M398.42,53.75v1.07h-1.74l-.03,3.62c0,.74.19,1.1.96,1.1.38,0,.6-.05.8-.12v1.03c-.2.08-.51.15-1,.15-1.27,0-1.93-.56-1.91-1.94l.03-3.83h-1.26v-1.07h1.26v-1.69h1.18v1.69s1.71,0,1.71,0Z" style="fill: #1a1a1a; stroke-width: 0px;"/>
        <path d="M400.43,63.38l1.12-2.97-2.53-6.66h1.23l1.78,4.85.13.51.13-.51,1.78-4.85h1.25l-3.68,9.63h-1.22Z" style="fill: #1a1a1a; stroke-width: 0px;"/>
        <path d="M415,55.85h-1.15c-.27-.75-.96-1.18-1.83-1.18-1.2,0-2.1,1.03-2.1,2.46s.9,2.44,2.13,2.44c.86,0,1.57-.46,1.81-1.18h1.16c-.36,1.47-1.54,2.25-3.01,2.25-1.9,0-3.28-1.47-3.28-3.51s1.38-3.54,3.28-3.54c1.49,0,2.68.78,3,2.25Z" style="fill: #1a1a1a; stroke-width: 0px;"/>
        <path d="M422.79,57.12c0,2.05-1.41,3.52-3.41,3.52s-3.43-1.47-3.43-3.52,1.41-3.52,3.43-3.52,3.41,1.47,3.41,3.52ZM417.14,57.12c0,1.39.9,2.45,2.25,2.45s2.21-1.06,2.21-2.45-.87-2.45-2.21-2.45-2.25,1.04-2.25,2.45Z" style="fill: #1a1a1a; stroke-width: 0px;"/>
        <path d="M429.48,56.13v4.37h-1.17v-4.18c0-1.05-.5-1.59-1.31-1.59-.88,0-1.57.78-1.57,2.16v3.62h-1.15v-6.75h1.03l.07.92c.31-.59.95-1.07,1.9-1.07,1.45,0,2.2,1.04,2.2,2.53Z" style="fill: #1a1a1a; stroke-width: 0px;"/>
        <path d="M434.63,53.75v1.07h-1.74l-.03,3.62c0,.74.19,1.1.96,1.1.38,0,.6-.05.8-.12v1.03c-.2.08-.51.15-1,.15-1.27,0-1.93-.56-1.91-1.94l.03-3.83h-1.26v-1.07h1.26v-1.69h1.18v1.69s1.71,0,1.71,0Z" style="fill: #1a1a1a; stroke-width: 0px;"/>
        <path d="M437.88,55.33c-.36.33-.6.86-.62,1.59v3.58h-1.15v-6.75h1.03l.08,1.18c.23-.62.86-1.25,2.02-1.25v1.15c-.54,0-.99.15-1.36.5Z" style="fill: #1a1a1a; stroke-width: 0px;"/>
        <path d="M441.97,51.67c0,.43-.36.78-.8.78s-.79-.35-.79-.78.35-.79.79-.79.8.35.8.79ZM440.59,60.5v-6.75h1.15v6.75h-1.15Z" style="fill: #1a1a1a; stroke-width: 0px;"/>
        <path d="M447.19,53.6c1.9,0,3.16,1.53,3.16,3.52s-1.24,3.52-3.14,3.52c-1.22,0-1.9-.54-2.32-1.14l-.07.99h-1.03v-9.78h1.15v3.95c.38-.58,1.12-1.07,2.25-1.07ZM444.93,57.12v.07c0,1.46,1,2.37,2.1,2.37,1.28,0,2.13-1,2.13-2.44s-.88-2.42-2.14-2.42c-1.07,0-2.09.92-2.09,2.42Z" style="fill: #1a1a1a; stroke-width: 0px;"/>
        <path d="M455.8,60.5l-.07-.92c-.31.64-.92,1.07-1.86,1.07-1.46,0-2.17-1.03-2.17-2.53v-4.37h1.15v4.18c0,1.06.47,1.61,1.29,1.61.87,0,1.54-.74,1.54-2.04v-3.75h1.15v6.75h-1.03Z" style="fill: #1a1a1a; stroke-width: 0px;"/>
        <path d="M462.09,53.75v1.07h-1.74l-.03,3.62c0,.74.19,1.1.96,1.1.38,0,.6-.05.8-.12v1.03c-.2.08-.51.15-1,.15-1.27,0-1.93-.56-1.91-1.94l.03-3.83h-1.26v-1.07h1.26v-1.69h1.18v1.69s1.71,0,1.71,0Z" style="fill: #1a1a1a; stroke-width: 0px;"/>
        <path d="M469.26,57.58h-5.11c.08,1.25.92,2,2.07,2,.9,0,1.55-.39,1.82-1.1h1.15c-.4,1.34-1.45,2.17-3,2.17-1.9,0-3.25-1.38-3.25-3.51s1.28-3.54,3.25-3.54c1.77,0,3.06,1.15,3.06,3.43v.55ZM468.1,56.55c-.01-1.15-.78-1.88-1.9-1.88s-1.91.79-2.05,1.88h3.95Z" style="fill: #1a1a1a; stroke-width: 0px;"/>
        <path d="M475.81,60.5l-.07-.99c-.42.6-1.1,1.14-2.32,1.14-1.9,0-3.14-1.53-3.14-3.52s1.26-3.52,3.16-3.52c1.12,0,1.87.5,2.25,1.07v-3.95h1.15v9.78h-1.03ZM471.47,57.12c0,1.43.84,2.44,2.13,2.44,1.1,0,2.1-.91,2.1-2.37v-.07c0-1.5-1.02-2.42-2.09-2.42-1.26,0-2.14,1-2.14,2.42Z" style="fill: #1a1a1a; stroke-width: 0px;"/>
        <path d="M484.82,53.75v1.07h-1.74l-.03,3.62c0,.74.19,1.1.96,1.1.38,0,.6-.05.8-.12v1.03c-.2.08-.51.15-1,.15-1.27,0-1.93-.56-1.91-1.94l.03-3.83h-1.26v-1.07h1.26v-1.69h1.18v1.69s1.71,0,1.71,0Z" style="fill: #1a1a1a; stroke-width: 0px;"/>
        <path d="M492.52,57.12c0,2.05-1.41,3.52-3.41,3.52s-3.43-1.47-3.43-3.52,1.41-3.52,3.43-3.52,3.41,1.47,3.41,3.52ZM486.87,57.12c0,1.39.9,2.45,2.25,2.45s2.21-1.06,2.21-2.45-.87-2.45-2.21-2.45-2.25,1.04-2.25,2.45Z" style="fill: #1a1a1a; stroke-width: 0px;"/>
        <path d="M499.71,53.6c1.45,0,2.2,1.04,2.2,2.53v4.37h-1.17v-4.18c0-1.05-.5-1.59-1.31-1.59-.88,0-1.57.78-1.57,2.16v3.62h-1.15v-9.78h1.15v3.87c.25-.52.87-.99,1.85-.99Z" style="fill: #1a1a1a; stroke-width: 0px;"/>
        <path d="M505.22,51.67c0,.43-.36.78-.8.78s-.79-.35-.79-.78.35-.79.79-.79.8.35.8.79ZM503.85,60.5v-6.75h1.15v6.75h-1.15Z" style="fill: #1a1a1a; stroke-width: 0px;"/>
        <path d="M512.8,54.77h-1.16c.2.36.32.79.32,1.26,0,1.34-1,2.4-2.57,2.4-.56,0-1.06-.13-1.45-.36-.16.15-.28.38-.28.67,0,.44.35.68.86.68h1.79c1.43,0,2.13.71,2.13,1.83,0,1.43-1.08,2.28-2.81,2.28-1.91,0-2.94-.78-2.94-2.1,0-.64.35-1,.74-1.22-.45-.23-.9-.72-.9-1.41,0-.62.31-1.08.7-1.38-.28-.39-.43-.87-.43-1.39,0-1.39,1.02-2.42,2.6-2.42.35,0,.67.05.96.15h2.45v1.02ZM507.82,61.38c0,.74.67,1.13,1.81,1.13,1.04,0,1.67-.4,1.67-1.21,0-.63-.47-.87-1.22-.87h-1.28c-.51.03-.98.29-.98.95ZM510.82,56.03c0-.8-.55-1.41-1.45-1.41s-1.45.6-1.45,1.41.56,1.38,1.45,1.38,1.45-.6,1.45-1.38Z" style="fill: #1a1a1a; stroke-width: 0px;"/>
        <path d="M516.72,53.6c1.45,0,2.2,1.04,2.2,2.53v4.37h-1.17v-4.18c0-1.05-.5-1.59-1.31-1.59-.88,0-1.57.78-1.57,2.16v3.62h-1.15v-9.78h1.15v3.87c.25-.52.87-.99,1.85-.99Z" style="fill: #1a1a1a; stroke-width: 0px;"/>
        <path d="M528.73,56.13v4.37h-1.17v-4.18c0-1.05-.5-1.59-1.31-1.59-.88,0-1.57.78-1.57,2.16v3.62h-1.15v-6.75h1.03l.07.92c.31-.59.95-1.07,1.9-1.07,1.45,0,2.2,1.04,2.2,2.53Z" style="fill: #1a1a1a; stroke-width: 0px;"/>
        <path d="M534.63,60.5l-.07-.92c-.31.64-.92,1.07-1.86,1.07-1.46,0-2.17-1.03-2.17-2.53v-4.37h1.15v4.18c0,1.06.47,1.61,1.29,1.61.87,0,1.54-.74,1.54-2.04v-3.75h1.15v6.75h-1.03Z" style="fill: #1a1a1a; stroke-width: 0px;"/>
        <path d="M546.82,56.13v4.37h-1.15v-4.18c0-1.05-.48-1.59-1.3-1.59-.88,0-1.55.78-1.55,2.16v3.62h-1.15v-4.18c0-1.05-.48-1.59-1.3-1.59-.88,0-1.55.78-1.55,2.16v3.62h-1.15v-6.75h1.03l.07.92c.31-.59.95-1.07,1.87-1.07,1,0,1.66.5,1.97,1.29.35-.67.99-1.29,2.03-1.29,1.46,0,2.18,1.04,2.18,2.53Z" style="fill: #1a1a1a; stroke-width: 0px;"/>
        <path d="M552.12,53.6c1.9,0,3.16,1.53,3.16,3.52s-1.24,3.52-3.14,3.52c-1.22,0-1.9-.54-2.32-1.14l-.07.99h-1.03v-9.78h1.15v3.95c.38-.58,1.12-1.07,2.25-1.07ZM549.85,57.12v.07c0,1.46,1,2.37,2.1,2.37,1.28,0,2.13-1,2.13-2.44s-.88-2.42-2.14-2.42c-1.07,0-2.09.92-2.09,2.42Z" style="fill: #1a1a1a; stroke-width: 0px;"/>
        <path d="M562.63,57.58h-5.11c.08,1.25.92,2,2.07,2,.9,0,1.55-.39,1.82-1.1h1.15c-.4,1.34-1.45,2.17-3,2.17-1.9,0-3.25-1.38-3.25-3.51s1.28-3.54,3.25-3.54c1.77,0,3.06,1.15,3.06,3.43v.55ZM561.47,56.55c-.01-1.15-.78-1.88-1.9-1.88s-1.91.79-2.05,1.88h3.95Z" style="fill: #1a1a1a; stroke-width: 0px;"/>
        <path d="M565.96,55.33c-.36.33-.6.86-.62,1.59v3.58h-1.15v-6.75h1.03l.08,1.18c.23-.62.86-1.25,2.02-1.25v1.15c-.54,0-.99.15-1.36.5Z" style="fill: #1a1a1a; stroke-width: 0px;"/>
      </g>
      <g style="isolation: isolate;">
        <path d="M315.16,73.22c0,2.05-1.4,3.52-3.41,3.52s-3.43-1.47-3.43-3.52,1.4-3.52,3.43-3.52,3.41,1.47,3.41,3.52ZM309.51,73.22c0,1.39.9,2.45,2.25,2.45s2.21-1.06,2.21-2.45-.87-2.45-2.21-2.45-2.25,1.04-2.25,2.45Z" style="fill: #1a1a1a; stroke-width: 0px;"/>
        <path d="M319.95,66.86v1.04c-.23-.09-.47-.16-.82-.16-.59,0-.95.35-.95,1.1v1h1.67v1.06h-1.67v5.69h-1.16v-5.69h-1.22v-1.06h1.22v-1.03c0-1.34.74-2.12,2.02-2.12.4,0,.72.08.91.16Z" style="fill: #1a1a1a; stroke-width: 0px;"/>
        <path d="M326.77,69.7c1.45,0,2.19,1.04,2.19,2.53v4.37h-1.16v-4.18c0-1.04-.5-1.59-1.31-1.59-.88,0-1.57.78-1.57,2.16v3.62h-1.15v-9.78h1.15v3.87c.25-.52.87-.99,1.85-.99Z" style="fill: #1a1a1a; stroke-width: 0px;"/>
        <path d="M337.15,73.22c0,2.05-1.4,3.52-3.41,3.52s-3.43-1.47-3.43-3.52,1.4-3.52,3.43-3.52,3.41,1.47,3.41,3.52ZM331.5,73.22c0,1.39.9,2.45,2.25,2.45s2.21-1.06,2.21-2.45-.87-2.45-2.21-2.45-2.25,1.04-2.25,2.45Z" style="fill: #1a1a1a; stroke-width: 0px;"/>
        <path d="M342.76,71.83h-1.18c-.01-.71-.35-1.06-1.07-1.06s-1.03.42-1.03.91c0,.52.27.74,1.27.98,1.61.38,2.21.94,2.21,2.02,0,1.31-1.02,2.06-2.37,2.06-1.57,0-2.44-.88-2.46-2.2h1.18c.01.71.47,1.13,1.31,1.13.78,0,1.16-.39,1.16-.91,0-.56-.29-.83-1.4-1.08-1.41-.32-2.07-.82-2.07-1.93s.78-2.05,2.23-2.05c1.31,0,2.19.86,2.22,2.13Z" style="fill: #1a1a1a; stroke-width: 0px;"/>
        <path d="M351.14,73.22c0,2-1.26,3.52-3.16,3.52-1.12,0-1.87-.5-2.23-1.07v3.8h-1.16v-9.63h1.04l.05.99c.41-.6,1.1-1.14,2.31-1.14,1.9,0,3.14,1.53,3.14,3.52ZM345.73,73.16v.07c0,1.5,1.02,2.42,2.09,2.42,1.26,0,2.14-1,2.14-2.42s-.84-2.44-2.13-2.44c-1.1,0-2.1.91-2.1,2.37Z" style="fill: #1a1a1a; stroke-width: 0px;"/>
        <path d="M354.03,67.77c0,.43-.36.78-.8.78s-.79-.35-.79-.78.35-.79.79-.79.8.35.8.79ZM352.66,76.6v-6.75h1.15v6.75h-1.15Z" style="fill: #1a1a1a; stroke-width: 0px;"/>
        <path d="M359.1,69.85v1.07h-1.74l-.03,3.62c0,.74.19,1.1.96,1.1.38,0,.6-.05.8-.12v1.03c-.2.08-.51.15-1,.15-1.27,0-1.93-.56-1.91-1.94l.03-3.83h-1.26v-1.07h1.26v-1.69h1.18v1.69s1.71,0,1.71,0Z" style="fill: #1a1a1a; stroke-width: 0px;"/>
        <path d="M365.22,72.13v4.47h-1.04l-.05-.92c-.33.6-1.06,1.07-2.05,1.07-1.18,0-1.97-.72-1.97-1.9s.83-1.76,1.89-1.96l2.06-.39v-.33c0-.96-.44-1.39-1.24-1.39-.74,0-1.38.4-1.38,1.23h-1.14c.04-1.3,1.03-2.3,2.52-2.3s2.41.86,2.41,2.42ZM361.27,74.83c0,.54.37.84,1.03.84.56,0,1.06-.24,1.37-.67.23-.31.39-.78.39-1.25v-.25l-1.85.4c-.51.12-.94.32-.94.92Z" style="fill: #1a1a1a; stroke-width: 0px;"/>
        <path d="M367.09,76.6v-9.78h1.15v9.78h-1.15Z" style="fill: #1a1a1a; stroke-width: 0px;"/>
        <path d="M371.67,67.77c0,.43-.36.78-.8.78s-.79-.35-.79-.78.35-.79.79-.79.8.35.8.79ZM370.29,76.6v-6.75h1.15v6.75h-1.15Z" style="fill: #1a1a1a; stroke-width: 0px;"/>
        <path d="M374.48,75.57h3.8v1.03h-5.34v-.88l3.59-4.84h-3.56v-1.03h5.1v.88l-3.59,4.84Z" style="fill: #1a1a1a; stroke-width: 0px;"/>
        <path d="M384.31,72.13v4.47h-1.04l-.05-.92c-.33.6-1.06,1.07-2.05,1.07-1.18,0-1.97-.72-1.97-1.9s.83-1.76,1.89-1.96l2.06-.39v-.33c0-.96-.44-1.39-1.24-1.39-.74,0-1.38.4-1.38,1.23h-1.14c.04-1.3,1.03-2.3,2.52-2.3s2.41.86,2.41,2.42ZM380.36,74.83c0,.54.38.84,1.03.84.56,0,1.06-.24,1.37-.67.23-.31.39-.78.39-1.25v-.25l-1.85.4c-.51.12-.94.32-.94.92Z" style="fill: #1a1a1a; stroke-width: 0px;"/>
        <path d="M389.42,69.85v1.07h-1.74l-.03,3.62c0,.74.19,1.1.96,1.1.38,0,.6-.05.8-.12v1.03c-.2.08-.51.15-1,.15-1.27,0-1.93-.56-1.91-1.94l.03-3.83h-1.26v-1.07h1.26v-1.69h1.18v1.69s1.71,0,1.71,0Z" style="fill: #1a1a1a; stroke-width: 0px;"/>
        <path d="M392.24,67.77c0,.43-.36.78-.8.78s-.79-.35-.79-.78.35-.79.79-.79.8.35.8.79ZM390.86,76.6v-6.75h1.15v6.75h-1.15Z" style="fill: #1a1a1a; stroke-width: 0px;"/>
        <path d="M400.35,73.22c0,2.05-1.41,3.52-3.41,3.52s-3.43-1.47-3.43-3.52,1.41-3.52,3.43-3.52,3.41,1.47,3.41,3.52ZM394.7,73.22c0,1.39.9,2.45,2.25,2.45s2.21-1.06,2.21-2.45-.87-2.45-2.21-2.45-2.25,1.04-2.25,2.45Z" style="fill: #1a1a1a; stroke-width: 0px;"/>
        <path d="M407.04,72.23v4.37h-1.17v-4.18c0-1.04-.5-1.59-1.31-1.59-.88,0-1.57.78-1.57,2.16v3.62h-1.15v-6.75h1.03l.07.92c.31-.59.95-1.07,1.9-1.07,1.45,0,2.2,1.04,2.2,2.53Z" style="fill: #1a1a1a; stroke-width: 0px;"/>
        <path d="M413.07,71.83h-1.18c-.01-.71-.35-1.06-1.07-1.06s-1.03.42-1.03.91c0,.52.27.74,1.27.98,1.61.38,2.21.94,2.21,2.02,0,1.31-1.02,2.06-2.37,2.06-1.57,0-2.44-.88-2.46-2.2h1.18c.01.71.47,1.13,1.31,1.13.78,0,1.16-.39,1.16-.91,0-.56-.29-.83-1.41-1.08-1.41-.32-2.07-.82-2.07-1.93s.78-2.05,2.23-2.05c1.31,0,2.2.86,2.22,2.13Z" style="fill: #1a1a1a; stroke-width: 0px;"/>
        <path d="M418.96,67.77c0,.43-.36.78-.8.78s-.79-.35-.79-.78.35-.79.79-.79.8.35.8.79ZM417.58,76.6v-6.75h1.15v6.75h-1.15Z" style="fill: #1a1a1a; stroke-width: 0px;"/>
        <path d="M425.97,72.23v4.37h-1.17v-4.18c0-1.04-.5-1.59-1.31-1.59-.88,0-1.57.78-1.57,2.16v3.62h-1.15v-6.75h1.03l.07.92c.31-.59.95-1.07,1.9-1.07,1.45,0,2.2,1.04,2.2,2.53Z" style="fill: #1a1a1a; stroke-width: 0px;"/>
        <path d="M433.85,69.85v1.07h-1.74l-.03,3.62c0,.74.19,1.1.96,1.1.38,0,.6-.05.8-.12v1.03c-.2.08-.51.15-1,.15-1.27,0-1.93-.56-1.91-1.94l.03-3.83h-1.26v-1.07h1.26v-1.69h1.18v1.69s1.71,0,1.71,0Z" style="fill: #1a1a1a; stroke-width: 0px;"/>
        <path d="M438.25,69.7c1.45,0,2.2,1.04,2.2,2.53v4.37h-1.17v-4.18c0-1.04-.5-1.59-1.31-1.59-.88,0-1.57.78-1.57,2.16v3.62h-1.15v-9.78h1.15v3.87c.25-.52.87-.99,1.85-.99Z" style="fill: #1a1a1a; stroke-width: 0px;"/>
        <path d="M448.11,73.68h-5.11c.08,1.25.92,2,2.07,2,.9,0,1.55-.39,1.82-1.1h1.15c-.4,1.34-1.45,2.17-3,2.17-1.9,0-3.25-1.38-3.25-3.51s1.28-3.54,3.25-3.54c1.77,0,3.06,1.15,3.06,3.43v.55ZM446.95,72.65c-.01-1.15-.78-1.88-1.9-1.88s-1.91.79-2.05,1.88h3.95Z" style="fill: #1a1a1a; stroke-width: 0px;"/>
        <path d="M457.22,69.65c0,1.08-.48,1.9-1.14,2.75l-2.4,3.07h3.68v1.14h-5.35v-.9l3.01-3.81c.67-.84.96-1.39.96-2.21,0-.96-.46-1.5-1.39-1.5-.84,0-1.46.54-1.46,1.74h-1.22c0-1.77,1.04-2.88,2.69-2.88s2.61,1.03,2.61,2.6Z" style="fill: #1a1a1a; stroke-width: 0px;"/>
        <path d="M464.67,71.9c0,2.96-1.12,4.88-3.15,4.88s-3.14-1.92-3.14-4.88,1.11-4.85,3.14-4.85,3.15,1.9,3.15,4.85ZM459.62,71.9c0,2.29.64,3.74,1.91,3.74s1.9-1.45,1.9-3.74-.64-3.71-1.9-3.71-1.91,1.43-1.91,3.71Z" style="fill: #1a1a1a; stroke-width: 0px;"/>
        <path d="M471.14,69.65c0,1.08-.48,1.9-1.14,2.75l-2.4,3.07h3.68v1.14h-5.35v-.9l3.01-3.81c.67-.84.96-1.39.96-2.21,0-.96-.46-1.5-1.39-1.5-.84,0-1.46.54-1.46,1.74h-1.22c0-1.77,1.04-2.88,2.69-2.88s2.61,1.03,2.61,2.6Z" style="fill: #1a1a1a; stroke-width: 0px;"/>
        <path d="M477.62,69.65c0,1.08-.48,1.9-1.14,2.75l-2.4,3.07h3.68v1.14h-5.35v-.9l3.01-3.81c.67-.84.96-1.39.96-2.21,0-.96-.46-1.5-1.39-1.5-.84,0-1.46.54-1.46,1.74h-1.22c0-1.77,1.04-2.88,2.69-2.88s2.61,1.03,2.61,2.6Z" style="fill: #1a1a1a; stroke-width: 0px;"/>
        <path d="M478.45,73.64v-1.03h4.21v1.03h-4.21Z" style="fill: #1a1a1a; stroke-width: 0px;"/>
        <path d="M488.72,69.65c0,1.08-.48,1.9-1.14,2.75l-2.4,3.07h3.68v1.14h-5.35v-.9l3.01-3.81c.67-.84.96-1.39.96-2.21,0-.96-.46-1.5-1.39-1.5-.84,0-1.46.54-1.46,1.74h-1.22c0-1.77,1.04-2.88,2.69-2.88s2.61,1.03,2.61,2.6Z" style="fill: #1a1a1a; stroke-width: 0px;"/>
        <path d="M496.17,71.9c0,2.96-1.12,4.88-3.15,4.88s-3.14-1.92-3.14-4.88,1.11-4.85,3.14-4.85,3.15,1.9,3.15,4.85ZM491.11,71.9c0,2.29.64,3.74,1.91,3.74s1.9-1.45,1.9-3.74-.64-3.71-1.9-3.71-1.91,1.43-1.91,3.71Z" style="fill: #1a1a1a; stroke-width: 0px;"/>
        <path d="M502.63,69.65c0,1.08-.48,1.9-1.14,2.75l-2.4,3.07h3.68v1.14h-5.35v-.9l3.01-3.81c.67-.84.96-1.39.96-2.21,0-.96-.46-1.5-1.39-1.5-.84,0-1.46.54-1.46,1.74h-1.22c0-1.77,1.04-2.88,2.69-2.88s2.61,1.03,2.61,2.6Z" style="fill: #1a1a1a; stroke-width: 0px;"/>
        <path d="M509.33,69.69c0,1.19-.68,1.84-1.31,2.05.82.21,1.63.98,1.63,2.32,0,1.61-1.16,2.72-2.9,2.72s-2.96-1.04-2.96-2.87h1.21c.01,1.22.78,1.73,1.78,1.73s1.65-.63,1.65-1.62c0-1.13-.8-1.73-2.21-1.73h-.31v-1.07h.29c1.31,0,1.9-.46,1.9-1.5,0-.92-.48-1.53-1.41-1.53-.82,0-1.49.51-1.49,1.69h-1.22c0-1.74,1.06-2.83,2.69-2.83s2.65,1.17,2.65,2.64Z" style="fill: #1a1a1a; stroke-width: 0px;"/>
        <path d="M518.17,71.83h-1.18c-.01-.71-.35-1.06-1.07-1.06s-1.03.42-1.03.91c0,.52.27.74,1.27.98,1.61.38,2.21.94,2.21,2.02,0,1.31-1.02,2.06-2.37,2.06-1.57,0-2.44-.88-2.46-2.2h1.18c.01.71.47,1.13,1.31,1.13.78,0,1.16-.39,1.16-.91,0-.56-.29-.83-1.41-1.08-1.41-.32-2.07-.82-2.07-1.93s.78-2.05,2.23-2.05c1.31,0,2.2.86,2.22,2.13Z" style="fill: #1a1a1a; stroke-width: 0px;"/>
        <path d="M525.68,73.68h-5.11c.08,1.25.92,2,2.07,2,.9,0,1.55-.39,1.82-1.1h1.15c-.4,1.34-1.45,2.17-3,2.17-1.9,0-3.25-1.38-3.25-3.51s1.28-3.54,3.25-3.54c1.77,0,3.06,1.15,3.06,3.43v.55ZM524.52,72.65c-.01-1.15-.78-1.88-1.9-1.88s-1.91.79-2.05,1.88h3.95Z" style="fill: #1a1a1a; stroke-width: 0px;"/>
        <path d="M531.87,72.13v4.47h-1.04l-.05-.92c-.33.6-1.06,1.07-2.05,1.07-1.18,0-1.97-.72-1.97-1.9s.83-1.76,1.89-1.96l2.06-.39v-.33c0-.96-.44-1.39-1.24-1.39-.74,0-1.38.4-1.38,1.23h-1.14c.04-1.3,1.03-2.3,2.52-2.3s2.41.86,2.41,2.42ZM527.93,74.83c0,.54.37.84,1.03.84.56,0,1.06-.24,1.37-.67.23-.31.39-.78.39-1.25v-.25l-1.85.4c-.51.12-.94.32-.94.92Z" style="fill: #1a1a1a; stroke-width: 0px;"/>
        <path d="M537.88,71.83h-1.18c-.01-.71-.35-1.06-1.07-1.06s-1.03.42-1.03.91c0,.52.27.74,1.27.98,1.61.38,2.21.94,2.21,2.02,0,1.31-1.02,2.06-2.37,2.06-1.57,0-2.44-.88-2.46-2.2h1.18c.01.71.47,1.13,1.31,1.13.78,0,1.16-.39,1.16-.91,0-.56-.29-.83-1.41-1.08-1.41-.32-2.07-.82-2.07-1.93s.78-2.05,2.23-2.05c1.31,0,2.2.86,2.22,2.13Z" style="fill: #1a1a1a; stroke-width: 0px;"/>
        <path d="M545.91,73.22c0,2.05-1.41,3.52-3.41,3.52s-3.43-1.47-3.43-3.52,1.41-3.52,3.43-3.52,3.41,1.47,3.41,3.52ZM540.26,73.22c0,1.39.9,2.45,2.25,2.45s2.21-1.06,2.21-2.45-.87-2.45-2.21-2.45-2.25,1.04-2.25,2.45Z" style="fill: #1a1a1a; stroke-width: 0px;"/>
        <path d="M552.6,72.23v4.37h-1.17v-4.18c0-1.04-.5-1.59-1.31-1.59-.88,0-1.57.78-1.57,2.16v3.62h-1.15v-6.75h1.03l.07.92c.31-.59.95-1.07,1.9-1.07,1.45,0,2.2,1.04,2.2,2.53Z" style="fill: #1a1a1a; stroke-width: 0px;"/>
        <path d="M555.61,76c0,.83-.43,1.74-.98,2.36l-.38-.15c.27-.47.4-.96.47-1.51-.42-.04-.72-.33-.72-.78s.35-.79.8-.79.8.33.8.87Z" style="fill: #1a1a1a; stroke-width: 0px;"/>
      </g>
      <g style="isolation: isolate;">
        <path d="M315.52,89.22c0,2-1.26,3.52-3.16,3.52-1.12,0-1.87-.5-2.23-1.07v3.8h-1.16v-9.63h1.04l.05.99c.41-.6,1.1-1.14,2.31-1.14,1.9,0,3.14,1.53,3.14,3.52ZM310.1,89.16v.07c0,1.5,1.02,2.42,2.09,2.42,1.26,0,2.14-1,2.14-2.42s-.84-2.44-2.13-2.44c-1.1,0-2.1.91-2.1,2.37Z" style="fill: #1a1a1a; stroke-width: 0px;"/>
        <path d="M321.7,88.13v4.47h-1.04l-.05-.92c-.33.6-1.06,1.07-2.05,1.07-1.18,0-1.97-.72-1.97-1.9s.83-1.76,1.89-1.96l2.06-.39v-.33c0-.96-.44-1.39-1.24-1.39-.74,0-1.38.4-1.38,1.23h-1.14c.04-1.3,1.03-2.3,2.52-2.3s2.41.86,2.41,2.42ZM317.75,90.83c0,.54.37.84,1.03.84.56,0,1.06-.24,1.36-.67.23-.31.39-.78.39-1.25v-.25l-1.85.4c-.51.12-.94.32-.94.92Z" style="fill: #1a1a1a; stroke-width: 0px;"/>
        <path d="M325.42,87.43c-.36.33-.6.86-.62,1.59v3.58h-1.15v-6.75h1.03l.08,1.18c.23-.62.86-1.25,2.02-1.25v1.15c-.54,0-.99.15-1.36.5Z" style="fill: #1a1a1a; stroke-width: 0px;"/>
        <path d="M331.42,85.85v1.07h-1.74l-.03,3.62c0,.74.19,1.1.96,1.1.37,0,.6-.05.8-.12v1.03c-.2.08-.51.15-1,.15-1.27,0-1.93-.56-1.91-1.94l.03-3.83h-1.26v-1.07h1.26v-1.69h1.18v1.69s1.71,0,1.71,0Z" style="fill: #1a1a1a; stroke-width: 0px;"/>
        <path d="M334.25,83.77c0,.43-.36.78-.8.78s-.79-.35-.79-.78.35-.79.79-.79.8.35.8.79ZM332.87,92.6v-6.75h1.15v6.75h-1.15Z" style="fill: #1a1a1a; stroke-width: 0px;"/>
        <path d="M341.79,87.95h-1.15c-.27-.75-.96-1.18-1.83-1.18-1.2,0-2.1,1.03-2.1,2.46s.9,2.44,2.13,2.44c.86,0,1.57-.46,1.81-1.18h1.16c-.36,1.47-1.54,2.25-3.01,2.25-1.9,0-3.28-1.47-3.28-3.51s1.38-3.54,3.28-3.54c1.49,0,2.68.78,3,2.25Z" style="fill: #1a1a1a; stroke-width: 0px;"/>
        <path d="M347.26,92.6l-.07-.92c-.31.64-.92,1.07-1.86,1.07-1.46,0-2.17-1.03-2.17-2.53v-4.37h1.15v4.18c0,1.06.47,1.61,1.28,1.61.87,0,1.54-.74,1.54-2.04v-3.75h1.15v6.75h-1.03Z" style="fill: #1a1a1a; stroke-width: 0px;"/>
        <path d="M350.3,92.6v-9.78h1.15v9.78h-1.15Z" style="fill: #1a1a1a; stroke-width: 0px;"/>
        <path d="M358.17,88.13v4.47h-1.04l-.05-.92c-.33.6-1.06,1.07-2.05,1.07-1.18,0-1.97-.72-1.97-1.9s.83-1.76,1.89-1.96l2.06-.39v-.33c0-.96-.44-1.39-1.24-1.39-.74,0-1.38.4-1.38,1.23h-1.14c.04-1.3,1.03-2.3,2.52-2.3s2.41.86,2.41,2.42ZM354.22,90.83c0,.54.37.84,1.03.84.56,0,1.06-.24,1.36-.67.23-.31.39-.78.39-1.25v-.25l-1.85.4c-.51.12-.94.32-.94.92Z" style="fill: #1a1a1a; stroke-width: 0px;"/>
        <path d="M361.89,87.43c-.36.33-.6.86-.62,1.59v3.58h-1.15v-6.75h1.03l.08,1.18c.23-.62.86-1.25,2.02-1.25v1.15c-.54,0-.99.15-1.36.5Z" style="fill: #1a1a1a; stroke-width: 0px;"/>
        <path d="M364.56,92.6v-9.78h1.15v9.78h-1.15Z" style="fill: #1a1a1a; stroke-width: 0px;"/>
        <path d="M368.32,95.48l1.12-2.97-2.53-6.66h1.23l1.78,4.85.13.51.13-.51,1.78-4.85h1.25l-3.68,9.63h-1.22Z" style="fill: #1a1a1a; stroke-width: 0px;"/>
        <path d="M381.87,88.13v4.47h-1.04l-.05-.92c-.33.6-1.06,1.07-2.05,1.07-1.18,0-1.97-.72-1.97-1.9s.83-1.76,1.89-1.96l2.06-.39v-.33c0-.96-.44-1.39-1.24-1.39-.74,0-1.38.4-1.38,1.23h-1.14c.04-1.3,1.03-2.3,2.52-2.3s2.41.86,2.41,2.42ZM377.93,90.83c0,.54.37.84,1.03.84.56,0,1.06-.24,1.37-.67.23-.31.39-.78.39-1.25v-.25l-1.85.4c-.51.12-.94.32-.94.92Z" style="fill: #1a1a1a; stroke-width: 0px;"/>
        <path d="M392.9,88.23v4.37h-1.15v-4.18c0-1.04-.48-1.59-1.3-1.59-.88,0-1.55.78-1.55,2.16v3.62h-1.15v-4.18c0-1.04-.48-1.59-1.3-1.59-.88,0-1.55.78-1.55,2.16v3.62h-1.15v-6.75h1.03l.07.92c.31-.59.95-1.07,1.87-1.07,1,0,1.66.5,1.97,1.29.35-.67.99-1.29,2.03-1.29,1.46,0,2.18,1.04,2.18,2.53Z" style="fill: #1a1a1a; stroke-width: 0px;"/>
        <path d="M401.09,89.22c0,2.05-1.41,3.52-3.41,3.52s-3.43-1.47-3.43-3.52,1.41-3.52,3.43-3.52,3.41,1.47,3.41,3.52ZM395.44,89.22c0,1.39.9,2.45,2.25,2.45s2.21-1.06,2.21-2.45-.87-2.45-2.21-2.45-2.25,1.04-2.25,2.45Z" style="fill: #1a1a1a; stroke-width: 0px;"/>
        <path d="M407.78,88.23v4.37h-1.17v-4.18c0-1.04-.5-1.59-1.31-1.59-.88,0-1.57.78-1.57,2.16v3.62h-1.15v-6.75h1.03l.07.92c.31-.59.95-1.07,1.9-1.07,1.45,0,2.2,1.04,2.2,2.53Z" style="fill: #1a1a1a; stroke-width: 0px;"/>
        <path d="M415.43,86.87h-1.16c.2.36.32.79.32,1.26,0,1.34-1,2.4-2.57,2.4-.56,0-1.06-.13-1.45-.36-.16.15-.28.38-.28.67,0,.44.35.68.86.68h1.79c1.43,0,2.13.71,2.13,1.84,0,1.43-1.08,2.28-2.81,2.28-1.91,0-2.94-.78-2.94-2.1,0-.64.35-1,.74-1.22-.45-.23-.9-.72-.9-1.41,0-.62.31-1.08.7-1.38-.28-.39-.43-.87-.43-1.39,0-1.39,1.02-2.42,2.6-2.42.35,0,.67.05.96.15h2.45v1.02ZM410.45,93.48c0,.74.67,1.13,1.81,1.13,1.04,0,1.67-.4,1.67-1.21,0-.63-.47-.87-1.22-.87h-1.28c-.51.03-.98.29-.98.95ZM413.45,88.13c0-.8-.55-1.41-1.45-1.41s-1.45.6-1.45,1.41.56,1.38,1.45,1.38,1.45-.6,1.45-1.38Z" style="fill: #1a1a1a; stroke-width: 0px;"/>
        <path d="M424.81,87.95h-1.15c-.27-.75-.96-1.18-1.83-1.18-1.2,0-2.1,1.03-2.1,2.46s.9,2.44,2.13,2.44c.86,0,1.57-.46,1.81-1.18h1.16c-.36,1.47-1.54,2.25-3.01,2.25-1.9,0-3.28-1.47-3.28-3.51s1.38-3.54,3.28-3.54c1.49,0,2.68.78,3,2.25Z" style="fill: #1a1a1a; stroke-width: 0px;"/>
        <path d="M429.27,85.7c1.45,0,2.2,1.04,2.2,2.53v4.37h-1.17v-4.18c0-1.04-.5-1.59-1.31-1.59-.88,0-1.57.78-1.57,2.16v3.62h-1.15v-9.78h1.15v3.87c.25-.52.87-.99,1.85-.99Z" style="fill: #1a1a1a; stroke-width: 0px;"/>
        <path d="M434.79,83.77c0,.43-.36.78-.8.78s-.79-.35-.79-.78.35-.79.79-.79.8.35.8.79ZM433.41,92.6v-6.75h1.15v6.75h-1.15Z" style="fill: #1a1a1a; stroke-width: 0px;"/>
        <path d="M436.61,92.6v-9.78h1.15v9.78h-1.15Z" style="fill: #1a1a1a; stroke-width: 0px;"/>
        <path d="M444.74,92.6l-.07-.99c-.42.6-1.1,1.14-2.32,1.14-1.9,0-3.14-1.53-3.14-3.52s1.26-3.52,3.16-3.52c1.12,0,1.87.5,2.25,1.07v-3.95h1.15v9.78h-1.03ZM440.4,89.22c0,1.43.84,2.44,2.13,2.44,1.1,0,2.1-.91,2.1-2.37v-.07c0-1.5-1.02-2.42-2.09-2.42-1.26,0-2.14,1-2.14,2.42Z" style="fill: #1a1a1a; stroke-width: 0px;"/>
        <path d="M449.62,87.43c-.36.33-.6.86-.62,1.59v3.58h-1.15v-6.75h1.03l.08,1.18c.23-.62.86-1.25,2.02-1.25v1.15c-.54,0-.99.15-1.36.5Z" style="fill: #1a1a1a; stroke-width: 0px;"/>
        <path d="M457.93,89.68h-5.11c.08,1.25.92,2,2.07,2,.9,0,1.55-.39,1.82-1.1h1.15c-.4,1.34-1.45,2.17-3,2.17-1.9,0-3.25-1.38-3.25-3.51s1.28-3.54,3.25-3.54c1.77,0,3.06,1.15,3.06,3.43v.55ZM456.77,88.65c-.01-1.15-.78-1.88-1.9-1.88s-1.91.79-2.05,1.88h3.95Z" style="fill: #1a1a1a; stroke-width: 0px;"/>
        <path d="M464.61,88.23v4.37h-1.17v-4.18c0-1.04-.5-1.59-1.31-1.59-.88,0-1.57.78-1.57,2.16v3.62h-1.15v-6.75h1.03l.07.92c.31-.59.95-1.07,1.9-1.07,1.45,0,2.2,1.04,2.2,2.53Z" style="fill: #1a1a1a; stroke-width: 0px;"/>
        <path d="M473.95,88.13v4.47h-1.04l-.05-.92c-.33.6-1.06,1.07-2.05,1.07-1.18,0-1.97-.72-1.97-1.9s.83-1.76,1.89-1.96l2.06-.39v-.33c0-.96-.44-1.39-1.24-1.39-.74,0-1.38.4-1.38,1.23h-1.14c.04-1.3,1.03-2.3,2.52-2.3s2.41.86,2.41,2.42ZM470,90.83c0,.54.38.84,1.03.84.56,0,1.06-.24,1.37-.67.23-.31.39-.78.39-1.25v-.25l-1.85.4c-.51.12-.94.32-.94.92Z" style="fill: #1a1a1a; stroke-width: 0px;"/>
        <path d="M481.01,88.23v4.37h-1.17v-4.18c0-1.04-.5-1.59-1.31-1.59-.88,0-1.57.78-1.57,2.16v3.62h-1.15v-6.75h1.03l.07.92c.31-.59.95-1.07,1.9-1.07,1.45,0,2.2,1.04,2.2,2.53Z" style="fill: #1a1a1a; stroke-width: 0px;"/>
        <path d="M487.89,92.6l-.07-.99c-.42.6-1.1,1.14-2.32,1.14-1.9,0-3.14-1.53-3.14-3.52s1.26-3.52,3.16-3.52c1.12,0,1.87.5,2.25,1.07v-3.95h1.15v9.78h-1.03ZM483.55,89.22c0,1.43.84,2.44,2.13,2.44,1.1,0,2.1-.91,2.1-2.37v-.07c0-1.5-1.02-2.42-2.09-2.42-1.26,0-2.14,1-2.14,2.42Z" style="fill: #1a1a1a; stroke-width: 0px;"/>
        <path d="M498.36,88.13v4.47h-1.04l-.05-.92c-.33.6-1.06,1.07-2.05,1.07-1.18,0-1.97-.72-1.97-1.9s.83-1.76,1.89-1.96l2.06-.39v-.33c0-.96-.44-1.39-1.24-1.39-.74,0-1.38.4-1.38,1.23h-1.14c.04-1.3,1.03-2.3,2.52-2.3s2.41.86,2.41,2.42ZM494.41,90.83c0,.54.38.84,1.03.84.56,0,1.06-.24,1.37-.67.23-.31.39-.78.39-1.25v-.25l-1.85.4c-.51.12-.94.32-.94.92Z" style="fill: #1a1a1a; stroke-width: 0px;"/>
        <path d="M505.21,92.6l-.07-.99c-.42.6-1.1,1.14-2.32,1.14-1.9,0-3.14-1.53-3.14-3.52s1.26-3.52,3.16-3.52c1.12,0,1.87.5,2.25,1.07v-3.95h1.15v9.78h-1.03ZM500.88,89.22c0,1.43.84,2.44,2.13,2.44,1.1,0,2.1-.91,2.1-2.37v-.07c0-1.5-1.02-2.42-2.09-2.42-1.26,0-2.14,1-2.14,2.42Z" style="fill: #1a1a1a; stroke-width: 0px;"/>
        <path d="M514.54,89.22c0,2.05-1.41,3.52-3.41,3.52s-3.43-1.47-3.43-3.52,1.41-3.52,3.43-3.52,3.41,1.47,3.41,3.52ZM508.89,89.22c0,1.39.9,2.45,2.25,2.45s2.21-1.06,2.21-2.45-.87-2.45-2.21-2.45-2.25,1.04-2.25,2.45Z" style="fill: #1a1a1a; stroke-width: 0px;"/>
        <path d="M516.01,92.6v-9.78h1.15v9.78h-1.15Z" style="fill: #1a1a1a; stroke-width: 0px;"/>
        <path d="M524.93,89.68h-5.11c.08,1.25.92,2,2.07,2,.9,0,1.55-.39,1.82-1.1h1.15c-.4,1.34-1.45,2.17-3,2.17-1.9,0-3.25-1.38-3.25-3.51s1.28-3.54,3.25-3.54c1.77,0,3.06,1.15,3.06,3.43v.55ZM523.77,88.65c-.01-1.15-.78-1.88-1.9-1.88s-1.91.79-2.05,1.88h3.95Z" style="fill: #1a1a1a; stroke-width: 0px;"/>
        <path d="M530.55,87.83h-1.18c-.01-.71-.35-1.06-1.07-1.06s-1.03.42-1.03.91c0,.52.27.74,1.27.98,1.61.38,2.21.94,2.21,2.02,0,1.31-1.02,2.06-2.37,2.06-1.57,0-2.44-.88-2.46-2.2h1.18c.01.71.47,1.13,1.31,1.13.78,0,1.17-.39,1.17-.91,0-.56-.29-.83-1.41-1.08-1.41-.32-2.07-.82-2.07-1.93s.78-2.05,2.23-2.05c1.31,0,2.2.86,2.22,2.13Z" style="fill: #1a1a1a; stroke-width: 0px;"/>
        <path d="M538.02,87.95h-1.15c-.27-.75-.96-1.18-1.83-1.18-1.2,0-2.1,1.03-2.1,2.46s.9,2.44,2.13,2.44c.86,0,1.57-.46,1.81-1.18h1.16c-.36,1.47-1.54,2.25-3.01,2.25-1.9,0-3.28-1.47-3.28-3.51s1.38-3.54,3.28-3.54c1.49,0,2.68.78,3,2.25Z" style="fill: #1a1a1a; stroke-width: 0px;"/>
        <path d="M545.28,89.68h-5.11c.08,1.25.92,2,2.07,2,.9,0,1.55-.39,1.82-1.1h1.15c-.4,1.34-1.45,2.17-3,2.17-1.9,0-3.25-1.38-3.25-3.51s1.28-3.54,3.25-3.54c1.77,0,3.06,1.15,3.06,3.43v.55ZM544.12,88.65c-.01-1.15-.78-1.88-1.9-1.88s-1.91.79-2.05,1.88h3.95Z" style="fill: #1a1a1a; stroke-width: 0px;"/>
        <path d="M551.96,88.23v4.37h-1.17v-4.18c0-1.04-.5-1.59-1.31-1.59-.88,0-1.57.78-1.57,2.16v3.62h-1.15v-6.75h1.03l.07.92c.31-.59.95-1.07,1.9-1.07,1.45,0,2.2,1.04,2.2,2.53Z" style="fill: #1a1a1a; stroke-width: 0px;"/>
        <path d="M557.11,85.85v1.07h-1.74l-.03,3.62c0,.74.19,1.1.96,1.1.38,0,.6-.05.8-.12v1.03c-.2.08-.51.15-1,.15-1.27,0-1.93-.56-1.91-1.94l.03-3.83h-1.26v-1.07h1.26v-1.69h1.18v1.69s1.71,0,1.71,0Z" style="fill: #1a1a1a; stroke-width: 0px;"/>
        <path d="M562.65,87.83h-1.18c-.01-.71-.35-1.06-1.07-1.06s-1.03.42-1.03.91c0,.52.27.74,1.27.98,1.61.38,2.21.94,2.21,2.02,0,1.31-1.02,2.06-2.37,2.06-1.57,0-2.44-.88-2.46-2.2h1.18c.01.71.47,1.13,1.31,1.13.78,0,1.17-.39,1.17-.91,0-.56-.29-.83-1.41-1.08-1.41-.32-2.07-.82-2.07-1.93s.78-2.05,2.23-2.05c1.31,0,2.2.86,2.22,2.13Z" style="fill: #1a1a1a; stroke-width: 0px;"/>
      </g>
    </g>
  </g>
</svg>