<?xml version="1.0" encoding="UTF-8"?>
<svg id="exportSvg" xmlns="http://www.w3.org/2000/svg" width="1020" height="472.7" viewBox="0 0 1020 472.7">
  <polygon points="1.8 55.4 960 56.7 960 465.7 1.8 464.4 1.8 55.4" style="fill: #fff; stroke-width: 0px;"/>
  <g style="isolation: isolate;">
    <g style="isolation: isolate;">
      <g style="isolation: isolate;">
        <g style="isolation: isolate;">
          <path d="M53.6,339.58h-4.17v4.22h4.17v1.92h-9.81v-1.92h3.84v-4.22h-3.84v-1.92h9.81v1.92Z" style="fill: #1a1a1a; stroke-width: 0px;"/>
          <path d="M50.04,328.8c2.2,0,3.71,1.6,3.71,3.74s-1.51,3.71-3.71,3.71-3.7-1.58-3.7-3.71,1.5-3.74,3.7-3.74ZM50.04,334.38c1.18,0,2.06-.74,2.06-1.85s-.88-1.85-2.06-1.85-2.05.74-2.05,1.85.87,1.85,2.05,1.85Z" style="fill: #1a1a1a; stroke-width: 0px;"/>
          <path d="M48.59,322.56v1.79c-.52.01-.81.27-.81.81s.29.79.7.79c.43,0,.64-.24.83-1.23.28-1.72,1-2.33,2.14-2.33,1.61,0,2.31,1.28,2.31,2.75,0,1.75-.91,2.72-2.31,2.77v-1.79c.57-.01.88-.39.88-1.02,0-.56-.27-.88-.69-.88s-.69.22-.88,1.29c-.27,1.55-.94,2.25-2.12,2.25s-2.3-.85-2.3-2.61c0-1.5.9-2.55,2.24-2.59Z" style="fill: #1a1a1a; stroke-width: 0px;"/>
          <path d="M50.04,313.71c2.09,0,3.71,1.39,3.71,3.3,0,1.02-.42,1.77-.94,2.13h3.8v1.81h-10.11v-1.55l.95-.13c-.57-.41-1.11-1.05-1.11-2.27,0-1.9,1.61-3.29,3.7-3.29ZM50.01,319.19h.08c1.26-.01,1.95-.92,1.95-1.81,0-1-.78-1.79-2-1.79s-2,.77-2,1.79c0,.9.7,1.81,1.97,1.81Z" style="fill: #1a1a1a; stroke-width: 0px;"/>
          <path d="M44.41,310.3c.62,0,1.08.49,1.08,1.11s-.46,1.09-1.08,1.09-1.08-.49-1.08-1.09.48-1.11,1.08-1.11ZM53.6,312.3h-7.1v-1.81h7.1v1.81Z" style="fill: #1a1a1a; stroke-width: 0px;"/>
          <path d="M46.5,304.73h1.65v1.64l2.89.03c.71,0,1.02-.22,1.02-.94,0-.34-.04-.55-.1-.73h1.58c.08.22.15.57.15,1.13,0,1.55-.63,2.35-2.24,2.34l-3.31-.03v1.16h-1.65v-1.18h-1.72v-1.83l1.72.03v-1.62Z" style="fill: #1a1a1a; stroke-width: 0px;"/>
          <path d="M48.94,297.85h4.66v1.55l-.87.11c.57.38,1.02,1.02,1.02,2.03,0,1.26-.77,2.16-2.04,2.16-1.39,0-1.92-.94-2.13-2.2l-.32-1.83h-.28c-.71,0-1.08.34-1.08.99,0,.6.36,1.08.94,1.08v1.75c-1.44-.08-2.49-1.15-2.49-2.83s.85-2.81,2.59-2.81ZM51.56,301.9c.42,0,.7-.29.7-.84,0-.45-.22-.88-.64-1.13-.24-.15-.59-.25-.94-.25h-.21l.29,1.42c.11.48.32.81.8.81Z" style="fill: #1a1a1a; stroke-width: 0px;"/>
          <path d="M53.6,296.12h-10.23v-1.81h10.23v1.81Z" style="fill: #1a1a1a; stroke-width: 0px;"/>
          <path d="M44.41,290.39c.62,0,1.08.49,1.08,1.11s-.46,1.09-1.08,1.09-1.08-.49-1.08-1.09.48-1.11,1.08-1.11ZM53.6,292.39h-7.1v-1.81h7.1v1.81Z" style="fill: #1a1a1a; stroke-width: 0px;"/>
          <path d="M52.02,286.74v-3.4h1.58v5.81h-1.36l-4.16-3.22v3.21h-1.58v-5.62h1.34l4.17,3.22Z" style="fill: #1a1a1a; stroke-width: 0px;"/>
          <path d="M48.94,276.56h4.66v1.55l-.87.11c.57.38,1.02,1.02,1.02,2.03,0,1.26-.77,2.16-2.04,2.16-1.39,0-1.92-.94-2.13-2.2l-.32-1.83h-.28c-.71,0-1.08.34-1.08.99,0,.6.36,1.08.94,1.08v1.75c-1.44-.08-2.49-1.15-2.49-2.83s.85-2.82,2.59-2.82ZM51.56,280.61c.42,0,.7-.29.7-.84,0-.45-.22-.88-.64-1.13-.24-.15-.59-.25-.94-.25h-.21l.29,1.41c.11.48.32.81.8.81Z" style="fill: #1a1a1a; stroke-width: 0px;"/>
          <path d="M46.5,270.99h1.65v1.64l2.89.03c.71,0,1.02-.22,1.02-.94,0-.34-.04-.55-.1-.73h1.58c.08.22.15.57.15,1.13,0,1.55-.63,2.35-2.24,2.34l-3.31-.03v1.16h-1.65v-1.18h-1.72v-1.83l1.72.03v-1.62Z" style="fill: #1a1a1a; stroke-width: 0px;"/>
          <path d="M44.41,267.54c.62,0,1.08.49,1.08,1.11s-.46,1.09-1.08,1.09-1.08-.49-1.08-1.09.48-1.11,1.08-1.11ZM53.6,269.55h-7.1v-1.81h7.1v1.81Z" style="fill: #1a1a1a; stroke-width: 0px;"/>
          <path d="M50.04,258.87c2.2,0,3.71,1.6,3.71,3.74s-1.51,3.71-3.71,3.71-3.7-1.58-3.7-3.71,1.5-3.74,3.7-3.74ZM50.04,264.45c1.18,0,2.06-.74,2.06-1.85s-.88-1.85-2.06-1.85-2.05.74-2.05,1.85.87,1.85,2.05,1.85Z" style="fill: #1a1a1a; stroke-width: 0px;"/>
          <path d="M48.99,251.53h4.61v1.81h-4.22c-.83,0-1.28.35-1.28,1.04s.55,1.25,1.74,1.25h3.75v1.81h-7.1v-1.55l.92-.13c-.59-.32-1.08-.98-1.08-1.92,0-1.51,1.04-2.3,2.65-2.3Z" style="fill: #1a1a1a; stroke-width: 0px;"/>
          <path d="M48.67,244.57c.25.34.67.56,1.3.57h3.63v1.82h-7.1v-1.57l1.13-.15c-.62-.25-1.21-.87-1.21-2.09h1.81c0,.57.1,1.01.43,1.41Z" style="fill: #1a1a1a; stroke-width: 0px;"/>
          <path d="M48.94,236.57h4.66v1.55l-.87.11c.57.38,1.02,1.02,1.02,2.03,0,1.26-.77,2.16-2.04,2.16-1.39,0-1.92-.94-2.13-2.2l-.32-1.83h-.28c-.71,0-1.08.34-1.08.99,0,.6.36,1.08.94,1.08v1.75c-1.44-.08-2.49-1.15-2.49-2.83s.85-2.82,2.59-2.82ZM51.56,240.62c.42,0,.7-.29.7-.84,0-.45-.22-.88-.64-1.13-.24-.15-.59-.25-.94-.25h-.21l.29,1.42c.11.48.32.81.8.81Z" style="fill: #1a1a1a; stroke-width: 0px;"/>
          <path d="M46.5,231h1.65v1.64l2.89.03c.71,0,1.02-.22,1.02-.94,0-.34-.04-.55-.1-.73h1.58c.08.22.15.57.15,1.13,0,1.55-.63,2.35-2.24,2.34l-3.31-.03v1.16h-1.65v-1.18h-1.72v-1.83l1.72.03v-1.62Z" style="fill: #1a1a1a; stroke-width: 0px;"/>
          <path d="M50.6,223.26v4.94c.94-.06,1.6-.7,1.6-1.69,0-.71-.28-1.25-.83-1.44v-1.77c1.5.43,2.38,1.54,2.38,3.25,0,2.1-1.46,3.53-3.7,3.53s-3.71-1.41-3.71-3.53c0-1.88,1.19-3.29,3.68-3.29h.57ZM49.36,225.08c-.92.03-1.51.62-1.51,1.51s.63,1.53,1.51,1.61v-3.12Z" style="fill: #1a1a1a; stroke-width: 0px;"/>
          <path d="M50.04,211.82c2.09,0,3.71,1.39,3.71,3.31,0,1.02-.42,1.77-.94,2.13h3.8v1.81h-10.11v-1.55l.95-.13c-.57-.41-1.11-1.05-1.11-2.27,0-1.9,1.61-3.29,3.7-3.29ZM50.01,217.3h.08c1.26-.01,1.95-.92,1.95-1.81,0-.99-.78-1.79-2-1.79s-2,.77-2,1.79c0,.9.7,1.81,1.97,1.81Z" style="fill: #1a1a1a; stroke-width: 0px;"/>
          <path d="M50.6,204.01v4.94c.94-.06,1.6-.7,1.6-1.69,0-.71-.28-1.25-.83-1.44v-1.77c1.5.43,2.38,1.54,2.38,3.25,0,2.1-1.46,3.53-3.7,3.53s-3.71-1.41-3.71-3.53c0-1.88,1.19-3.29,3.68-3.29h.57ZM49.36,205.83c-.92.03-1.51.62-1.51,1.51s.63,1.53,1.51,1.61v-3.12Z" style="fill: #1a1a1a; stroke-width: 0px;"/>
          <path d="M48.67,200.16c.25.34.67.56,1.3.57h3.63v1.82h-7.1v-1.57l1.13-.15c-.62-.25-1.21-.87-1.21-2.09h1.81c0,.57.1,1.01.43,1.41Z" style="fill: #1a1a1a; stroke-width: 0px;"/>
          <path d="M53.6,193.19h-6.81v2.06h-1.62c0-1.51-.32-2.31-1.37-2.58v-1.4h9.81v1.92Z" style="fill: #1a1a1a; stroke-width: 0px;"/>
          <path d="M48.68,182.86c3.14,0,5.1,1.23,5.1,3.47s-1.96,3.47-5.1,3.47-5.07-1.23-5.07-3.47,1.95-3.47,5.07-3.47ZM48.68,187.87c2.09,0,3.31-.52,3.31-1.54s-1.22-1.54-3.31-1.54-3.28.5-3.28,1.54,1.2,1.54,3.28,1.54Z" style="fill: #1a1a1a; stroke-width: 0px;"/>
          <path d="M48.68,174.88c3.14,0,5.1,1.23,5.1,3.47s-1.96,3.47-5.1,3.47-5.07-1.23-5.07-3.47,1.95-3.47,5.07-3.47ZM48.68,179.89c2.09,0,3.31-.52,3.31-1.54s-1.22-1.54-3.31-1.54-3.28.5-3.28,1.54,1.2,1.54,3.28,1.54Z" style="fill: #1a1a1a; stroke-width: 0px;"/>
          <path d="M52.77,171.88c.94,0,1.97.53,2.69,1.16l-.2.52c-.49-.24-.98-.36-1.6-.42-.06.53-.46.92-1.01.92-.6,0-1.06-.48-1.06-1.09s.45-1.09,1.18-1.09Z" style="fill: #1a1a1a; stroke-width: 0px;"/>
          <path d="M48.68,164.12c3.14,0,5.1,1.23,5.1,3.47s-1.96,3.47-5.1,3.47-5.07-1.23-5.07-3.47,1.95-3.47,5.07-3.47ZM48.68,169.14c2.09,0,3.31-.52,3.31-1.54s-1.22-1.54-3.31-1.54-3.28.5-3.28,1.54,1.2,1.54,3.28,1.54Z" style="fill: #1a1a1a; stroke-width: 0px;"/>
          <path d="M48.68,156.14c3.14,0,5.1,1.23,5.1,3.47s-1.96,3.47-5.1,3.47-5.07-1.23-5.07-3.47,1.95-3.47,5.07-3.47ZM48.68,161.16c2.09,0,3.31-.52,3.31-1.54s-1.22-1.54-3.31-1.54-3.28.5-3.28,1.54,1.2,1.54,3.28,1.54Z" style="fill: #1a1a1a; stroke-width: 0px;"/>
          <path d="M48.68,148.16c3.14,0,5.1,1.23,5.1,3.47s-1.96,3.47-5.1,3.47-5.07-1.23-5.07-3.47,1.95-3.47,5.07-3.47ZM48.68,153.18c2.09,0,3.31-.52,3.31-1.54s-1.22-1.54-3.31-1.54-3.28.5-3.28,1.54,1.2,1.54,3.28,1.54Z" style="fill: #1a1a1a; stroke-width: 0px;"/>
        </g>
      </g>
    </g>
  </g>
  <g id="footer-svg">
    <g style="isolation: isolate;">
      <g style="isolation: isolate;">
        <g style="isolation: isolate;">
          <g style="isolation: isolate;">
            <path d="M9.05,452.8h-1.31c-.38-1.05-1.24-1.77-2.73-1.77-1.92,0-3.26,1.53-3.26,3.61s1.34,3.61,3.28,3.61c1.51,0,2.41-.77,2.77-1.81h1.27c-.51,1.83-1.9,2.91-4.04,2.91-2.64,0-4.51-2.01-4.51-4.72s1.87-4.72,4.5-4.72c2.15,0,3.54,1.12,4.04,2.87Z" style="fill: #767676; stroke-width: 0px;"/>
            <path d="M13.33,452.5c1.4,0,2.13,1.01,2.13,2.46v4.24h-1.13v-4.06c0-1.01-.48-1.55-1.27-1.55-.86,0-1.52.75-1.52,2.09v3.51h-1.12v-9.49h1.12v3.76c.25-.51.84-.96,1.79-.96Z" style="fill: #767676; stroke-width: 0px;"/>
            <path d="M21.88,454.86v4.34h-1.01l-.05-.9c-.33.58-1.03,1.04-1.99,1.04-1.14,0-1.91-.7-1.91-1.85s.81-1.7,1.83-1.9l2-.38v-.32c0-.94-.43-1.35-1.21-1.35-.71,0-1.34.39-1.34,1.2h-1.1c.04-1.26,1-2.24,2.44-2.24s2.34.83,2.34,2.35ZM18.04,457.48c0,.52.36.82,1,.82.55,0,1.03-.23,1.33-.65.22-.3.38-.75.38-1.21v-.25l-1.79.39c-.49.12-.91.31-.91.9Z" style="fill: #767676; stroke-width: 0px;"/>
            <path d="M25.49,454.18c-.35.33-.58.83-.6,1.55v3.47h-1.12v-6.55h1l.08,1.14c.22-.6.83-1.21,1.96-1.21v1.12c-.52,0-.96.14-1.33.48Z" style="fill: #767676; stroke-width: 0px;"/>
            <path d="M31.33,452.65v1.04h-1.69l-.03,3.51c0,.71.18,1.07.94,1.07.36,0,.58-.05.78-.12v1c-.2.08-.49.14-.98.14-1.23,0-1.87-.55-1.86-1.88l.03-3.72h-1.22v-1.04h1.22v-1.64h1.14v1.64s1.66,0,1.66,0Z" style="fill: #767676; stroke-width: 0px;"/>
            <path d="M33.93,453.32c0,.46-.36.81-.82.81s-.82-.35-.82-.81.35-.82.82-.82.82.35.82.82ZM33.93,458.54c0,.46-.36.81-.82.81s-.82-.35-.82-.81.35-.81.82-.81.82.34.82.81Z" style="fill: #767676; stroke-width: 0px;"/>
          </g>
        </g>
      </g>
      <g style="isolation: isolate;">
        <g style="isolation: isolate;">
          <g style="isolation: isolate;">
            <path d="M53.25,452.8h-1.31c-.38-1.05-1.24-1.77-2.73-1.77-1.92,0-3.26,1.53-3.26,3.61s1.34,3.61,3.28,3.61c1.51,0,2.41-.77,2.77-1.81h1.27c-.51,1.83-1.9,2.91-4.04,2.91-2.64,0-4.51-2.01-4.51-4.72s1.87-4.72,4.5-4.72c2.15,0,3.54,1.12,4.04,2.87Z" style="fill: #767676; stroke-width: 0px;"/>
            <path d="M55.82,451.2v2.87h3.16v1.12h-3.16v4h-1.18v-9.1h4.9v1.11h-3.72Z" style="fill: #767676; stroke-width: 0px;"/>
            <path d="M65.36,459.2l-1.99-3.69h-1.33v3.69h-1.18v-9.1h2.48c1.82,0,2.98,1.09,2.98,2.74,0,1.2-.64,2.09-1.72,2.47l2.11,3.89h-1.35ZM62.05,454.44h1.3c1.05,0,1.78-.57,1.78-1.6s-.71-1.64-1.78-1.64h-1.3v3.24Z" style="fill: #767676; stroke-width: 0px;"/>
            <path d="M67.01,459.2l3.84-9.1h1.1l-3.83,9.1h-1.11Z" style="fill: #767676; stroke-width: 0px;"/>
            <path d="M79.17,459.2l-.96-2.41h-4.02l-.95,2.41h-1.3l3.65-9.1h1.22l3.65,9.1h-1.3ZM74.59,455.69h3.21l-1.44-3.58-.17-.49-.17.49-1.43,3.58Z" style="fill: #767676; stroke-width: 0px;"/>
            <path d="M81.67,459.2v-9.49h1.12v9.49h-1.12Z" style="fill: #767676; stroke-width: 0px;"/>
            <path d="M84.73,459.2v-9.49h1.12v9.49h-1.12Z" style="fill: #767676; stroke-width: 0px;"/>
            <path d="M89.18,450.63c0,.42-.35.75-.78.75s-.77-.34-.77-.75.34-.77.77-.77.78.34.78.77ZM87.84,459.2v-6.55h1.12v6.55h-1.12Z" style="fill: #767676; stroke-width: 0px;"/>
            <path d="M94.96,454.57h-1.14c-.01-.69-.34-1.03-1.04-1.03s-1,.4-1,.88c0,.51.26.71,1.23.95,1.56.36,2.15.91,2.15,1.96,0,1.27-.99,2-2.3,2-1.52,0-2.37-.86-2.39-2.13h1.14c.01.69.46,1.09,1.27,1.09.75,0,1.13-.38,1.13-.88,0-.55-.29-.81-1.36-1.05-1.37-.31-2.02-.79-2.02-1.87s.75-1.99,2.17-1.99c1.27,0,2.13.83,2.16,2.07Z" style="fill: #767676; stroke-width: 0px;"/>
            <path d="M102.76,455.92c0,1.99-1.37,3.42-3.32,3.42s-3.33-1.43-3.33-3.42,1.37-3.42,3.33-3.42,3.32,1.43,3.32,3.42ZM97.28,455.92c0,1.35.87,2.38,2.18,2.38s2.15-1.03,2.15-2.38-.85-2.38-2.15-2.38-2.18,1.01-2.18,2.38Z" style="fill: #767676; stroke-width: 0px;"/>
            <path d="M109.26,454.96v4.24h-1.13v-4.06c0-1.01-.48-1.55-1.27-1.55-.86,0-1.52.75-1.52,2.09v3.51h-1.12v-6.55h1l.06.9c.3-.57.92-1.04,1.85-1.04,1.4,0,2.13,1.01,2.13,2.46Z" style="fill: #767676; stroke-width: 0px;"/>
            <path d="M121.24,459.2h-1.5l-3.12-4.12-1.57,1.91v2.21h-1.18v-9.1h1.18v5.15l4.04-5.15h1.48l-3.19,4.04,3.85,5.06Z" style="fill: #767676; stroke-width: 0px;"/>
            <path d="M124.11,454.18c-.35.33-.58.83-.6,1.55v3.47h-1.12v-6.55h1l.08,1.14c.22-.6.83-1.21,1.96-1.21v1.12c-.52,0-.96.14-1.33.48Z" style="fill: #767676; stroke-width: 0px;"/>
            <path d="M130.6,459.2l-.06-.9c-.3.62-.9,1.04-1.81,1.04-1.42,0-2.11-1-2.11-2.46v-4.24h1.12v4.06c0,1.03.46,1.56,1.25,1.56.85,0,1.5-.72,1.5-1.98v-3.64h1.12v6.55h-1Z" style="fill: #767676; stroke-width: 0px;"/>
            <path d="M139.14,453.64h-1.13c.2.35.31.77.31,1.22,0,1.3-.98,2.33-2.5,2.33-.55,0-1.03-.13-1.4-.35-.16.14-.27.36-.27.65,0,.43.34.66.83.66h1.74c1.39,0,2.07.69,2.07,1.78,0,1.39-1.05,2.21-2.73,2.21-1.86,0-2.86-.75-2.86-2.04,0-.62.34-.98.71-1.18-.44-.22-.87-.7-.87-1.37,0-.6.3-1.05.68-1.34-.27-.38-.42-.84-.42-1.35,0-1.35.99-2.35,2.52-2.35.34,0,.65.05.94.14h2.38v.99ZM134.3,460.06c0,.71.65,1.09,1.75,1.09,1.01,0,1.63-.39,1.63-1.17,0-.61-.46-.85-1.18-.85h-1.25c-.49.03-.95.29-.95.92ZM137.21,454.86c0-.78-.53-1.37-1.4-1.37s-1.4.58-1.4,1.37.55,1.34,1.4,1.34,1.4-.58,1.4-1.34Z" style="fill: #767676; stroke-width: 0px;"/>
            <path d="M148.93,454.96v4.24h-1.12v-4.06c0-1.01-.47-1.55-1.26-1.55-.86,0-1.51.75-1.51,2.09v3.51h-1.12v-4.06c0-1.01-.47-1.55-1.26-1.55-.86,0-1.51.75-1.51,2.09v3.51h-1.12v-6.55h1l.06.9c.3-.57.92-1.04,1.82-1.04.97,0,1.61.48,1.91,1.25.34-.65.96-1.25,1.98-1.25,1.42,0,2.12,1.01,2.12,2.46Z" style="fill: #767676; stroke-width: 0px;"/>
            <path d="M155.35,454.86v4.34h-1.01l-.05-.9c-.33.58-1.03,1.04-1.99,1.04-1.14,0-1.91-.7-1.91-1.85s.81-1.7,1.83-1.9l2-.38v-.32c0-.94-.43-1.35-1.21-1.35-.71,0-1.34.39-1.34,1.2h-1.1c.04-1.26,1-2.24,2.44-2.24s2.34.83,2.34,2.35ZM151.51,457.48c0,.52.36.82,1,.82.55,0,1.03-.23,1.33-.65.22-.3.38-.75.38-1.21v-.25l-1.79.39c-.49.12-.91.31-.91.9Z" style="fill: #767676; stroke-width: 0px;"/>
            <path d="M162.21,454.96v4.24h-1.13v-4.06c0-1.01-.48-1.55-1.27-1.55-.86,0-1.52.75-1.52,2.09v3.51h-1.12v-6.55h1l.06.9c.3-.57.92-1.04,1.85-1.04,1.4,0,2.13,1.01,2.13,2.46Z" style="fill: #767676; stroke-width: 0px;"/>
            <path d="M169.87,455.83c0,1.04-.81,1.83-1.85,1.83s-1.83-.79-1.83-1.83.79-1.85,1.83-1.85,1.85.81,1.85,1.85Z" style="fill: #767676; stroke-width: 0px;"/>
            <path d="M179.05,452.5h-1.2c-.01-.97-.62-1.51-1.49-1.51s-1.4.51-1.4,1.38.57,1.18,1.81,1.68c1.83.68,2.57,1.34,2.57,2.68,0,1.66-1.17,2.64-2.82,2.64-1.92,0-2.99-1.16-3.02-2.85h1.2c.03,1.16.69,1.79,1.83,1.79,1.07,0,1.61-.65,1.61-1.51,0-.78-.55-1.2-1.91-1.68-1.55-.57-2.47-1.2-2.47-2.67s.94-2.54,2.63-2.54c1.59,0,2.63.88,2.67,2.57Z" style="fill: #767676; stroke-width: 0px;"/>
            <path d="M186.9,455.92c0,1.99-1.37,3.42-3.32,3.42s-3.33-1.43-3.33-3.42,1.37-3.42,3.33-3.42,3.32,1.43,3.32,3.42ZM181.41,455.92c0,1.35.87,2.38,2.18,2.38s2.15-1.03,2.15-2.38-.85-2.38-2.15-2.38-2.18,1.01-2.18,2.38Z" style="fill: #767676; stroke-width: 0px;"/>
            <path d="M192.22,459.2l-.06-.9c-.3.62-.9,1.04-1.81,1.04-1.42,0-2.11-1-2.11-2.46v-4.24h1.12v4.06c0,1.03.46,1.56,1.25,1.56.85,0,1.5-.72,1.5-1.98v-3.64h1.12v6.55h-1Z" style="fill: #767676; stroke-width: 0px;"/>
            <path d="M196.96,454.18c-.35.33-.58.83-.6,1.55v3.47h-1.12v-6.55h1l.08,1.14c.22-.6.83-1.21,1.96-1.21v1.12c-.52,0-.96.14-1.33.48Z" style="fill: #767676; stroke-width: 0px;"/>
            <path d="M204.99,454.69h-1.12c-.26-.73-.94-1.14-1.78-1.14-1.17,0-2.04,1-2.04,2.39s.87,2.37,2.07,2.37c.83,0,1.52-.44,1.76-1.14h1.13c-.35,1.43-1.5,2.18-2.93,2.18-1.85,0-3.19-1.43-3.19-3.41s1.34-3.43,3.19-3.43c1.44,0,2.6.75,2.91,2.18Z" style="fill: #767676; stroke-width: 0px;"/>
            <path d="M212.05,456.37h-4.97c.08,1.21.9,1.94,2.01,1.94.87,0,1.51-.38,1.77-1.07h1.12c-.39,1.3-1.4,2.11-2.91,2.11-1.85,0-3.16-1.34-3.16-3.41s1.25-3.43,3.16-3.43c1.72,0,2.98,1.12,2.98,3.33v.53ZM210.92,455.36c-.01-1.12-.75-1.82-1.85-1.82s-1.86.77-1.99,1.82h3.83Z" style="fill: #767676; stroke-width: 0px;"/>
            <path d="M214.64,453.32c0,.46-.36.81-.82.81s-.82-.35-.82-.81.35-.82.82-.82.82.35.82.82ZM214.64,458.54c0,.46-.36.81-.82.81s-.82-.35-.82-.81.35-.81.82-.81.82.34.82.81Z" style="fill: #767676; stroke-width: 0px;"/>
            <path d="M224,458.09v1.11h-5.24v-9.1h1.18v8h4.06Z" style="fill: #767676; stroke-width: 0px;"/>
            <path d="M231.37,455.92c0,1.99-1.37,3.42-3.32,3.42s-3.33-1.43-3.33-3.42,1.37-3.42,3.33-3.42,3.32,1.43,3.32,3.42ZM225.89,455.92c0,1.35.87,2.38,2.18,2.38s2.15-1.03,2.15-2.38-.85-2.38-2.15-2.38-2.18,1.01-2.18,2.38Z" style="fill: #767676; stroke-width: 0px;"/>
            <path d="M237.87,454.96v4.24h-1.13v-4.06c0-1.01-.48-1.55-1.27-1.55-.86,0-1.52.75-1.52,2.09v3.51h-1.12v-6.55h1l.06.9c.3-.57.92-1.04,1.85-1.04,1.4,0,2.13,1.01,2.13,2.46Z" style="fill: #767676; stroke-width: 0px;"/>
            <path d="M244.55,459.2l-.06-.96c-.4.58-1.07,1.1-2.25,1.1-1.85,0-3.06-1.48-3.06-3.42s1.22-3.42,3.07-3.42c1.09,0,1.82.48,2.18,1.04v-3.83h1.12v9.49h-1ZM240.34,455.92c0,1.39.82,2.37,2.07,2.37,1.07,0,2.04-.88,2.04-2.3v-.07c0-1.46-.99-2.35-2.03-2.35-1.22,0-2.08.97-2.08,2.35Z" style="fill: #767676; stroke-width: 0px;"/>
            <path d="M253.61,455.92c0,1.99-1.37,3.42-3.32,3.42s-3.33-1.43-3.33-3.42,1.37-3.42,3.33-3.42,3.32,1.43,3.32,3.42ZM248.13,455.92c0,1.35.87,2.38,2.18,2.38s2.15-1.03,2.15-2.38-.85-2.38-2.15-2.38-2.18,1.01-2.18,2.38Z" style="fill: #767676; stroke-width: 0px;"/>
            <path d="M260.11,454.96v4.24h-1.13v-4.06c0-1.01-.48-1.55-1.27-1.55-.86,0-1.52.75-1.52,2.09v3.51h-1.12v-6.55h1l.06.9c.3-.57.92-1.04,1.85-1.04,1.4,0,2.13,1.01,2.13,2.46Z" style="fill: #767676; stroke-width: 0px;"/>
            <path d="M269.71,452.5h-1.2c-.01-.97-.62-1.51-1.5-1.51s-1.4.51-1.4,1.38.57,1.18,1.81,1.68c1.83.68,2.57,1.34,2.57,2.68,0,1.66-1.17,2.64-2.82,2.64-1.92,0-2.99-1.16-3.02-2.85h1.2c.03,1.16.69,1.79,1.83,1.79,1.07,0,1.61-.65,1.61-1.51,0-.78-.55-1.2-1.91-1.68-1.55-.57-2.47-1.2-2.47-2.67s.94-2.54,2.63-2.54c1.59,0,2.63.88,2.67,2.57Z" style="fill: #767676; stroke-width: 0px;"/>
            <path d="M277.01,454.69h-1.12c-.26-.73-.94-1.14-1.78-1.14-1.17,0-2.04,1-2.04,2.39s.87,2.37,2.07,2.37c.83,0,1.52-.44,1.76-1.14h1.13c-.35,1.43-1.5,2.18-2.93,2.18-1.85,0-3.19-1.43-3.19-3.41s1.34-3.43,3.19-3.43c1.44,0,2.6.75,2.91,2.18Z" style="fill: #767676; stroke-width: 0px;"/>
            <path d="M281.36,452.5c1.4,0,2.13,1.01,2.13,2.46v4.24h-1.13v-4.06c0-1.01-.48-1.55-1.27-1.55-.86,0-1.52.75-1.52,2.09v3.51h-1.12v-9.49h1.12v3.76c.25-.51.84-.96,1.79-.96Z" style="fill: #767676; stroke-width: 0px;"/>
            <path d="M291.44,455.92c0,1.99-1.37,3.42-3.32,3.42s-3.33-1.43-3.33-3.42,1.37-3.42,3.33-3.42,3.32,1.43,3.32,3.42ZM285.96,455.92c0,1.35.87,2.38,2.18,2.38s2.15-1.03,2.15-2.38-.85-2.38-2.15-2.38-2.18,1.01-2.18,2.38Z" style="fill: #767676; stroke-width: 0px;"/>
            <path d="M299.11,455.92c0,1.99-1.37,3.42-3.32,3.42s-3.33-1.43-3.33-3.42,1.37-3.42,3.33-3.42,3.32,1.43,3.32,3.42ZM293.63,455.92c0,1.35.87,2.38,2.18,2.38s2.15-1.03,2.15-2.38-.85-2.38-2.15-2.38-2.18,1.01-2.18,2.38Z" style="fill: #767676; stroke-width: 0px;"/>
            <path d="M300.54,459.2v-9.49h1.12v9.49h-1.12Z" style="fill: #767676; stroke-width: 0px;"/>
            <path d="M312.37,455.92c0,1.99-1.37,3.42-3.32,3.42s-3.33-1.43-3.33-3.42,1.37-3.42,3.33-3.42,3.32,1.43,3.32,3.42ZM306.89,455.92c0,1.35.87,2.38,2.18,2.38s2.15-1.03,2.15-2.38-.85-2.38-2.15-2.38-2.18,1.01-2.18,2.38Z" style="fill: #767676; stroke-width: 0px;"/>
            <path d="M317.03,449.75v1.01c-.22-.09-.46-.16-.79-.16-.57,0-.92.34-.92,1.07v.97h1.62v1.03h-1.62v5.53h-1.13v-5.53h-1.18v-1.03h1.18v-1c0-1.3.71-2.05,1.96-2.05.39,0,.7.08.88.16Z" style="fill: #767676; stroke-width: 0px;"/>
            <path d="M326.76,459.2v-4.15h-4.81v4.15h-1.18v-9.1h1.18v3.83h4.81v-3.83h1.18v9.1h-1.18Z" style="fill: #767676; stroke-width: 0px;"/>
            <path d="M330.51,461.99l1.09-2.89-2.46-6.46h1.2l1.73,4.71.13.49.13-.49,1.73-4.71h1.21l-3.58,9.35h-1.18Z" style="fill: #767676; stroke-width: 0px;"/>
            <path d="M341.87,453.64h-1.13c.2.35.31.77.31,1.22,0,1.3-.98,2.33-2.5,2.33-.55,0-1.03-.13-1.4-.35-.16.14-.27.36-.27.65,0,.43.34.66.83.66h1.74c1.39,0,2.07.69,2.07,1.78,0,1.39-1.05,2.21-2.73,2.21-1.86,0-2.86-.75-2.86-2.04,0-.62.34-.98.71-1.18-.44-.22-.87-.7-.87-1.37,0-.6.3-1.05.68-1.34-.27-.38-.42-.84-.42-1.35,0-1.35.99-2.35,2.52-2.35.34,0,.65.05.94.14h2.38v.99ZM337.03,460.06c0,.71.65,1.09,1.76,1.09,1.01,0,1.62-.39,1.62-1.17,0-.61-.46-.85-1.18-.85h-1.25c-.49.03-.95.29-.95.92ZM339.95,454.86c0-.78-.53-1.37-1.4-1.37s-1.4.58-1.4,1.37.55,1.34,1.4,1.34,1.4-.58,1.4-1.34Z" style="fill: #767676; stroke-width: 0px;"/>
            <path d="M344.14,450.63c0,.42-.35.75-.78.75s-.77-.34-.77-.75.34-.77.77-.77.78.34.78.77ZM342.81,459.2v-6.55h1.12v6.55h-1.12Z" style="fill: #767676; stroke-width: 0px;"/>
            <path d="M351.52,456.37h-4.97c.08,1.21.9,1.94,2.01,1.94.87,0,1.51-.38,1.77-1.07h1.12c-.39,1.3-1.4,2.11-2.91,2.11-1.85,0-3.16-1.34-3.16-3.41s1.25-3.43,3.16-3.43c1.72,0,2.98,1.12,2.98,3.33v.53ZM350.38,455.36c-.01-1.12-.75-1.82-1.85-1.82s-1.86.77-1.99,1.82h3.83Z" style="fill: #767676; stroke-width: 0px;"/>
            <path d="M358,454.96v4.24h-1.13v-4.06c0-1.01-.48-1.55-1.27-1.55-.86,0-1.52.75-1.52,2.09v3.51h-1.12v-6.55h1l.06.9c.3-.57.92-1.04,1.85-1.04,1.4,0,2.13,1.01,2.13,2.46Z" style="fill: #767676; stroke-width: 0px;"/>
            <path d="M365.45,456.37h-4.97c.08,1.21.9,1.94,2.02,1.94.87,0,1.51-.38,1.77-1.07h1.12c-.39,1.3-1.4,2.11-2.91,2.11-1.85,0-3.16-1.34-3.16-3.41s1.25-3.43,3.16-3.43c1.72,0,2.98,1.12,2.98,3.33v.53ZM364.32,455.36c-.01-1.12-.75-1.82-1.85-1.82s-1.86.77-1.99,1.82h3.84Z" style="fill: #767676; stroke-width: 0px;"/>
            <path d="M374.12,454.86v4.34h-1.01l-.05-.9c-.33.58-1.03,1.04-1.99,1.04-1.14,0-1.91-.7-1.91-1.85s.81-1.7,1.83-1.9l2-.38v-.32c0-.94-.43-1.35-1.21-1.35-.71,0-1.34.39-1.34,1.2h-1.1c.04-1.26,1-2.24,2.44-2.24s2.34.83,2.34,2.35ZM370.29,457.48c0,.52.36.82,1,.82.55,0,1.03-.23,1.33-.65.22-.3.38-.75.38-1.21v-.25l-1.79.39c-.49.12-.91.31-.91.9Z" style="fill: #767676; stroke-width: 0px;"/>
            <path d="M380.99,454.96v4.24h-1.13v-4.06c0-1.01-.48-1.55-1.27-1.55-.86,0-1.52.75-1.52,2.09v3.51h-1.12v-6.55h1l.06.9c.3-.57.92-1.04,1.85-1.04,1.4,0,2.13,1.01,2.13,2.46Z" style="fill: #767676; stroke-width: 0px;"/>
            <path d="M387.67,459.2l-.06-.96c-.4.58-1.07,1.1-2.25,1.1-1.85,0-3.06-1.48-3.06-3.42s1.22-3.42,3.07-3.42c1.09,0,1.82.48,2.18,1.04v-3.83h1.12v9.49h-1ZM383.46,455.92c0,1.39.82,2.37,2.07,2.37,1.07,0,2.04-.88,2.04-2.3v-.07c0-1.46-.99-2.35-2.03-2.35-1.22,0-2.08.97-2.08,2.35Z" style="fill: #767676; stroke-width: 0px;"/>
            <path d="M396.82,451.2v8h-1.18v-8h-3.22v-1.11h7.63v1.11h-3.22Z" style="fill: #767676; stroke-width: 0px;"/>
            <path d="M401.72,454.18c-.35.33-.58.83-.6,1.55v3.47h-1.12v-6.55h1l.08,1.14c.22-.6.83-1.21,1.96-1.21v1.12c-.52,0-.96.14-1.33.48Z" style="fill: #767676; stroke-width: 0px;"/>
            <path d="M410.3,455.92c0,1.99-1.37,3.42-3.32,3.42s-3.33-1.43-3.33-3.42,1.37-3.42,3.33-3.42,3.32,1.43,3.32,3.42ZM404.82,455.92c0,1.35.87,2.38,2.18,2.38s2.15-1.03,2.15-2.38-.85-2.38-2.15-2.38-2.18,1.01-2.18,2.38Z" style="fill: #767676; stroke-width: 0px;"/>
            <path d="M418.19,455.92c0,1.94-1.22,3.42-3.07,3.42-1.09,0-1.82-.48-2.17-1.04v3.69h-1.13v-9.35h1.01l.05.96c.4-.58,1.07-1.11,2.25-1.11,1.85,0,3.06,1.48,3.06,3.42ZM412.93,455.86v.06c0,1.46.99,2.35,2.03,2.35,1.22,0,2.08-.98,2.08-2.35s-.82-2.37-2.07-2.37c-1.07,0-2.04.88-2.04,2.3Z" style="fill: #767676; stroke-width: 0px;"/>
            <path d="M421,450.63c0,.42-.35.75-.78.75s-.77-.34-.77-.75.34-.77.77-.77.78.34.78.77ZM419.66,459.2v-6.55h1.12v6.55h-1.12Z" style="fill: #767676; stroke-width: 0px;"/>
            <path d="M428.33,454.69h-1.12c-.26-.73-.94-1.14-1.78-1.14-1.17,0-2.04,1-2.04,2.39s.87,2.37,2.07,2.37c.83,0,1.52-.44,1.76-1.14h1.13c-.35,1.43-1.5,2.18-2.93,2.18-1.85,0-3.19-1.43-3.19-3.41s1.34-3.43,3.19-3.43c1.44,0,2.6.75,2.91,2.18Z" style="fill: #767676; stroke-width: 0px;"/>
            <path d="M434.34,454.86v4.34h-1.01l-.05-.9c-.33.58-1.03,1.04-1.99,1.04-1.14,0-1.91-.7-1.91-1.85s.81-1.7,1.83-1.9l2-.38v-.32c0-.94-.43-1.35-1.21-1.35-.71,0-1.34.39-1.34,1.2h-1.1c.04-1.26,1-2.24,2.44-2.24s2.34.83,2.34,2.35ZM430.5,457.48c0,.52.36.82,1,.82.55,0,1.03-.23,1.33-.65.22-.3.38-.75.38-1.21v-.25l-1.79.39c-.49.12-.91.31-.91.9Z" style="fill: #767676; stroke-width: 0px;"/>
            <path d="M436.16,459.2v-9.49h1.12v9.49h-1.12Z" style="fill: #767676; stroke-width: 0px;"/>
            <path d="M450.08,459.2v-6.77l-.25.68-2.78,6.1h-.95l-2.77-6.1-.25-.68v6.77h-1.18v-9.1h1.3l3.12,6.68.25.58.26-.58,3.13-6.68h1.3v9.1h-1.18Z" style="fill: #767676; stroke-width: 0px;"/>
            <path d="M458.83,456.37h-4.97c.08,1.21.9,1.94,2.01,1.94.87,0,1.51-.38,1.77-1.07h1.12c-.39,1.3-1.4,2.11-2.91,2.11-1.85,0-3.16-1.34-3.16-3.41s1.25-3.43,3.16-3.43c1.72,0,2.98,1.12,2.98,3.33v.53ZM457.7,455.36c-.01-1.12-.75-1.82-1.85-1.82s-1.86.77-1.99,1.82h3.83Z" style="fill: #767676; stroke-width: 0px;"/>
            <path d="M465.19,459.2l-.06-.96c-.4.58-1.07,1.1-2.25,1.1-1.85,0-3.06-1.48-3.06-3.42s1.22-3.42,3.07-3.42c1.09,0,1.82.48,2.18,1.04v-3.83h1.12v9.49h-1ZM460.97,455.92c0,1.39.82,2.37,2.07,2.37,1.07,0,2.04-.88,2.04-2.3v-.07c0-1.46-.99-2.35-2.03-2.35-1.22,0-2.08.97-2.08,2.35Z" style="fill: #767676; stroke-width: 0px;"/>
            <path d="M469.52,450.63c0,.42-.35.75-.78.75s-.77-.34-.77-.75.34-.77.77-.77.78.34.78.77ZM468.18,459.2v-6.55h1.12v6.55h-1.12Z" style="fill: #767676; stroke-width: 0px;"/>
            <path d="M476.85,454.69h-1.12c-.26-.73-.94-1.14-1.78-1.14-1.17,0-2.04,1-2.04,2.39s.87,2.37,2.07,2.37c.83,0,1.52-.44,1.76-1.14h1.13c-.35,1.43-1.5,2.18-2.93,2.18-1.85,0-3.19-1.43-3.19-3.41s1.34-3.43,3.19-3.43c1.44,0,2.6.75,2.91,2.18Z" style="fill: #767676; stroke-width: 0px;"/>
            <path d="M479.65,450.63c0,.42-.35.75-.78.75s-.77-.34-.77-.75.34-.77.77-.77.78.34.78.77ZM478.32,459.2v-6.55h1.12v6.55h-1.12Z" style="fill: #767676; stroke-width: 0px;"/>
            <path d="M486.47,454.96v4.24h-1.13v-4.06c0-1.01-.48-1.55-1.27-1.55-.86,0-1.52.75-1.52,2.09v3.51h-1.12v-6.55h1l.06.9c.3-.57.92-1.04,1.85-1.04,1.4,0,2.13,1.01,2.13,2.46Z" style="fill: #767676; stroke-width: 0px;"/>
            <path d="M493.92,456.37h-4.97c.08,1.21.9,1.94,2.01,1.94.87,0,1.51-.38,1.77-1.07h1.12c-.39,1.3-1.4,2.11-2.91,2.11-1.85,0-3.16-1.34-3.16-3.41s1.25-3.43,3.16-3.43c1.72,0,2.98,1.12,2.98,3.33v.53ZM492.79,455.36c-.01-1.12-.75-1.82-1.85-1.82s-1.86.77-1.99,1.82h3.83Z" style="fill: #767676; stroke-width: 0px;"/>
            <path d="M496.31,458.61c0,.81-.42,1.69-.95,2.29l-.36-.14c.26-.46.39-.94.46-1.47-.4-.04-.7-.33-.7-.75s.34-.77.78-.77.78.32.78.84Z" style="fill: #767676; stroke-width: 0px;"/>
            <path d="M508.5,452.8h-1.31c-.38-1.05-1.23-1.77-2.73-1.77-1.92,0-3.26,1.53-3.26,3.61s1.34,3.61,3.28,3.61c1.51,0,2.41-.77,2.77-1.81h1.27c-.51,1.83-1.9,2.91-4.04,2.91-2.64,0-4.51-2.01-4.51-4.72s1.87-4.72,4.5-4.72c2.14,0,3.54,1.12,4.04,2.87Z" style="fill: #767676; stroke-width: 0px;"/>
            <path d="M517.78,454.65c0,2.73-1.79,4.55-4.62,4.55h-3.28v-9.1h3.28c2.82,0,4.62,1.83,4.62,4.55ZM511.08,458.09h2.09c2.09,0,3.41-1.29,3.41-3.44s-1.29-3.45-3.41-3.45h-2.09v6.89Z" style="fill: #767676; stroke-width: 0px;"/>
            <path d="M527.51,452.8h-1.31c-.38-1.05-1.24-1.77-2.73-1.77-1.92,0-3.26,1.53-3.26,3.61s1.34,3.61,3.28,3.61c1.51,0,2.41-.77,2.77-1.81h1.27c-.51,1.83-1.9,2.91-4.04,2.91-2.64,0-4.51-2.01-4.51-4.72s1.87-4.72,4.5-4.72c2.15,0,3.54,1.12,4.04,2.87Z" style="fill: #767676; stroke-width: 0px;"/>
          </g>
        </g>
      </g>
    </g>
    <g id="image">
      <path d="M867.9,446.2h-6.7v1.7h2.4v8h2v-8h2.4v-1.7h-.1Z" style="fill: #000; stroke-width: 0px;"/>
      <path d="M868.3,456h2v-4c0-1,.3-1.5.9-1.5s.8.3.8,1.1v4.4h2v-4.6c0-1.6-.6-2.3-1.8-2.3s-1.5.4-1.8,1.3v-4.2h-2v9.8h-.1Z" style="fill: #000; stroke-width: 0px;"/>
      <path d="M874.8,448.2h2v-2h-2v2ZM874.9,456h1.9v-6.7h-1.9v6.7Z" style="fill: #000; stroke-width: 0px;"/>
      <path d="M877.8,456h2v-4c0-1,.3-1.4.9-1.4s.8.3.8,1.1v4.3h2v-4.6c0-1.6-.6-2.3-1.8-2.3s-1.5.5-1.9,1.4v-1.2h-1.9v6.7h-.1Z" style="fill: #000; stroke-width: 0px;"/>
      <path d="M888.2,456h2.2l-2-4.2,1.9-2.5h-2.2l-1.8,2.8v-5.8h-2v9.8h2v-2l.6-.9,1.2,2.9h0l.1-.1Z" style="fill: #000; stroke-width: 0px;"/>
      <path d="M895.2,456.2c1.2,0,2-.6,2.4-1.7v1.5h1.6v-5.3h-3.6v1.6h1.6v.2c0,1.3-.5,2.1-1.4,2.1s-1.6-.8-1.6-3.5.5-3.3,1.6-3.3,1.3.6,1.4,1.8l2-.4c0-1.9-1.3-3-3.4-3s-3.8,1.5-3.8,4.9,1.2,5.1,3.3,5.1h-.1Z" style="fill: #000; stroke-width: 0px;"/>
      <path d="M902,446.2h-2v9.8h2v-9.8Z" style="fill: #000; stroke-width: 0px;"/>
      <path d="M905.8,456.1c1.8,0,3-1,3-3.5s-1.2-3.5-3-3.5-3,1-3,3.5,1.2,3.5,3,3.5ZM905.8,454.7c-.6,0-1-.5-1-2.1s.4-2.1,1-2.1,1,.5,1,2.1-.4,2.1-1,2.1Z" style="fill: #000; stroke-width: 0px;"/>
      <path d="M913.1,456.1c1.5,0,2.3-1.1,2.3-3.5s-.8-3.5-2.2-3.5-1.5.4-1.8,1.1v-4h-2v9.8h1.8v-1.1c.4.7,1,1.2,1.8,1.2h.1ZM912.3,454.7c-.6,0-.9-.5-.9-1.4v-1.4c0-.9.4-1.4.9-1.4s.9.5.9,2.1-.3,2.1-1,2.1h.1Z" style="fill: #000; stroke-width: 0px;"/>
      <path d="M917.8,456.1c.9,0,1.7-.5,1.9-1.2v1.1h1.9v-4.5c0-1.7-.8-2.4-2.7-2.4s-2.8.7-2.9,2.4h2c0-.7.2-1.1.8-1.1s.7.3.7.9v.5l-1.3.2c-.8.1-1.4.4-1.8.7-.4.3-.6.8-.6,1.5,0,1.2.7,2,2,2h0v-.1ZM918.6,454.8c-.5,0-.7-.3-.7-.8s.3-.9.9-1l.8-.2v.9c0,.7-.4,1.1-1,1.1Z" style="fill: #000; stroke-width: 0px;"/>
      <path d="M924.4,446.2h-2v9.8h2v-9.8Z" style="fill: #000; stroke-width: 0px;"/>
      <path d="M933.6,446.2h-2.1v4.1h-2.7v-4.1h-2.1v9.8h2.1v-4.1h2.7v4.1h2.1v-9.8Z" style="fill: #000; stroke-width: 0px;"/>
      <path d="M940.1,452.1c0-1.9-1-3-2.9-3s-3,1.1-3,3.5,1.2,3.5,3,3.5,2.5-.7,2.7-2l-1.7-.5c0,.8-.5,1.1-1,1.1s-1.1-.5-1.1-1.7h3.9v-.9h.1ZM936.3,451.9c0-1.2.4-1.6,1-1.6s.9.3.9,1.6h-1.9Z" style="fill: #000; stroke-width: 0px;"/>
      <path d="M942.4,456.1c.9,0,1.7-.5,1.9-1.2v1.1h1.9v-4.5c0-1.7-.8-2.4-2.7-2.4s-2.8.7-2.9,2.4h2c0-.7.2-1.1.8-1.1s.7.3.7.9v.5l-1.3.2c-.8.1-1.4.4-1.8.7-.4.3-.6.8-.6,1.5,0,1.2.7,2,2,2h0v-.1ZM943.2,454.8c-.5,0-.7-.3-.7-.8s.3-.9.9-1l.8-.2v.9c0,.7-.4,1.1-1,1.1Z" style="fill: #000; stroke-width: 0px;"/>
      <path d="M949,446.2h-2v9.8h2v-9.8Z" style="fill: #000; stroke-width: 0px;"/>
      <path d="M949.4,450.6h1v3.4c0,1.4.7,2.1,2.2,2.1s.7,0,1.1-.1v-1.6h-.5c-.6,0-.8-.3-.8-.9v-2.9h1.4v-1.3h-1.4v-2.3l-2,.7v1.6h-1v1.3h0Z" style="fill: #000; stroke-width: 0px;"/>
      <path d="M954.2,456h2v-4c0-1,.3-1.5.9-1.5s.8.3.8,1.1v4.4h2v-4.6c0-1.6-.6-2.3-1.8-2.3s-1.5.4-1.8,1.3v-4.2h-2v9.8h-.1Z" style="fill: #000; stroke-width: 0px;"/>
    </g>
  </g>
  <g style="isolation: isolate;">
    <g style="isolation: isolate;">
      <g style="isolation: isolate;">
        <path d="M245.27,424.9l-4.66-6.73-.36-.58v7.3h-1.22v-9.38h1.19l4.64,6.7.4.62v-7.31h1.22v9.38h-1.21Z" style="fill: #1a1a1a; stroke-width: 0px;"/>
        <path d="M254.8,421.52c0,2.05-1.41,3.52-3.42,3.52s-3.43-1.47-3.43-3.52,1.41-3.52,3.43-3.52,3.42,1.47,3.42,3.52ZM249.15,421.52c0,1.39.9,2.45,2.25,2.45s2.21-1.06,2.21-2.45-.87-2.45-2.21-2.45-2.25,1.04-2.25,2.45Z" style="fill: #1a1a1a; stroke-width: 0px;"/>
        <path d="M257.83,424.9l-2.57-6.75h1.23l1.78,4.85.13.51.13-.51,1.78-4.85h1.25l-2.59,6.75h-1.15Z" style="fill: #1a1a1a; stroke-width: 0px;"/>
      </g>
    </g>
  </g>
  <g style="isolation: isolate;">
    <g style="isolation: isolate;">
      <g style="isolation: isolate;">
        <path d="M367.66,420.31c0,2.81-1.85,4.69-4.76,4.69h-3.38v-9.38h3.38c2.91,0,4.76,1.89,4.76,4.69ZM360.75,423.86h2.16c2.16,0,3.51-1.33,3.51-3.55s-1.33-3.55-3.51-3.55h-2.16v7.1Z" style="fill: #1a1a1a; stroke-width: 0px;"/>
        <path d="M375.02,422.08h-5.12c.08,1.25.92,2,2.08,2,.9,0,1.55-.39,1.82-1.1h1.15c-.4,1.34-1.45,2.17-3,2.17-1.9,0-3.26-1.38-3.26-3.51s1.29-3.54,3.26-3.54c1.77,0,3.07,1.15,3.07,3.43v.55ZM373.85,421.05c-.01-1.15-.78-1.88-1.9-1.88s-1.92.79-2.05,1.88h3.95Z" style="fill: #1a1a1a; stroke-width: 0px;"/>
        <path d="M382.32,420.35h-1.15c-.27-.75-.96-1.18-1.83-1.18-1.21,0-2.1,1.03-2.1,2.47s.9,2.44,2.13,2.44c.86,0,1.57-.46,1.81-1.18h1.17c-.36,1.47-1.54,2.25-3.01,2.25-1.9,0-3.28-1.47-3.28-3.51s1.38-3.54,3.28-3.54c1.49,0,2.68.78,3,2.25Z" style="fill: #1a1a1a; stroke-width: 0px;"/>
      </g>
    </g>
  </g>
  <g style="isolation: isolate;">
    <g style="isolation: isolate;">
      <g style="isolation: isolate;">
        <path d="M483.04,424.13c-1.89,0-2.72-1.18-2.79-2.97h1.22c.05,1.22.58,1.83,1.57,1.83.91,0,1.41-.62,1.41-1.74v-6.63h1.22v6.69c0,1.86-.95,2.83-2.63,2.83Z" style="fill: #1a1a1a; stroke-width: 0px;"/>
        <path d="M492.29,419.53v4.47h-1.04l-.05-.92c-.33.6-1.06,1.07-2.05,1.07-1.18,0-1.97-.72-1.97-1.9s.83-1.75,1.89-1.96l2.06-.39v-.33c0-.96-.44-1.39-1.25-1.39-.74,0-1.38.4-1.38,1.23h-1.14c.04-1.3,1.03-2.3,2.52-2.3s2.41.86,2.41,2.42ZM488.34,422.23c0,.54.38.84,1.03.84.56,0,1.06-.24,1.37-.67.23-.31.39-.78.39-1.25v-.25l-1.85.4c-.51.12-.94.32-.94.92Z" style="fill: #1a1a1a; stroke-width: 0px;"/>
        <path d="M499.37,419.63v4.37h-1.17v-4.18c0-1.04-.5-1.59-1.31-1.59-.88,0-1.57.78-1.57,2.16v3.62h-1.15v-6.75h1.03l.07.92c.31-.59.95-1.07,1.9-1.07,1.45,0,2.2,1.04,2.2,2.53Z" style="fill: #1a1a1a; stroke-width: 0px;"/>
      </g>
    </g>
  </g>
  <g style="isolation: isolate;">
    <g style="isolation: isolate;">
      <g style="isolation: isolate;">
        <path d="M587.85,416.36v2.96h3.26v1.15h-3.26v4.13h-1.22v-9.38h5.05v1.14h-3.83Z" style="fill: #1a1a1a; stroke-width: 0px;"/>
        <path d="M598.62,421.68h-5.12c.08,1.25.92,2,2.08,2,.9,0,1.55-.39,1.82-1.1h1.15c-.4,1.34-1.45,2.17-3,2.17-1.9,0-3.26-1.38-3.26-3.51s1.29-3.54,3.26-3.54c1.77,0,3.07,1.15,3.07,3.43v.55ZM597.46,420.65c-.01-1.15-.78-1.88-1.9-1.88s-1.92.79-2.05,1.88h3.95Z" style="fill: #1a1a1a; stroke-width: 0px;"/>
        <path d="M603.51,417.7c1.9,0,3.16,1.53,3.16,3.52s-1.25,3.52-3.15,3.52c-1.22,0-1.9-.54-2.32-1.14l-.07.99h-1.03v-9.78h1.15v3.95c.38-.58,1.13-1.07,2.25-1.07ZM601.25,421.22v.07c0,1.46,1,2.37,2.1,2.37,1.29,0,2.13-1,2.13-2.44s-.88-2.42-2.14-2.42c-1.07,0-2.09.92-2.09,2.42Z" style="fill: #1a1a1a; stroke-width: 0px;"/>
      </g>
    </g>
  </g>
  <g style="isolation: isolate;">
    <g style="isolation: isolate;">
      <g style="isolation: isolate;">
        <path d="M693.76,424.4v-6.98l-.25.7-2.87,6.28h-.98l-2.85-6.28-.25-.7v6.98h-1.22v-9.38h1.34l3.22,6.89.25.6.27-.6,3.23-6.89h1.34v9.38h-1.22Z" style="fill: #1a1a1a; stroke-width: 0px;"/>
        <path d="M701.72,419.93v4.47h-1.04l-.05-.92c-.33.6-1.06,1.07-2.05,1.07-1.18,0-1.97-.72-1.97-1.9s.83-1.75,1.89-1.96l2.06-.39v-.33c0-.96-.44-1.39-1.25-1.39-.74,0-1.38.4-1.38,1.23h-1.14c.04-1.3,1.03-2.3,2.52-2.3s2.41.86,2.41,2.42ZM697.77,422.63c0,.54.38.84,1.03.84.56,0,1.06-.24,1.37-.67.23-.31.39-.78.39-1.25v-.25l-1.85.4c-.51.12-.94.32-.94.92Z" style="fill: #1a1a1a; stroke-width: 0px;"/>
        <path d="M705.44,419.23c-.36.33-.6.86-.62,1.59v3.58h-1.15v-6.75h1.03l.08,1.18c.23-.62.86-1.25,2.02-1.25v1.15c-.54,0-.99.15-1.37.5Z" style="fill: #1a1a1a; stroke-width: 0px;"/>
      </g>
    </g>
  </g>
  <g style="isolation: isolate;">
    <g style="isolation: isolate;">
      <g style="isolation: isolate;">
        <path d="M782.98,425.2l-.99-2.48h-4.14l-.98,2.48h-1.34l3.76-9.38h1.26l3.76,9.38h-1.34ZM778.26,421.58h3.31l-1.49-3.68-.17-.51-.17.51-1.47,3.68Z" style="fill: #1a1a1a; stroke-width: 0px;"/>
        <path d="M792.21,421.82c0,2-1.26,3.52-3.16,3.52-1.12,0-1.88-.5-2.24-1.07v3.81h-1.17v-9.63h1.04l.05.99c.42-.6,1.1-1.14,2.32-1.14,1.9,0,3.15,1.53,3.15,3.52ZM786.78,421.76v.07c0,1.5,1.02,2.42,2.09,2.42,1.26,0,2.14-1,2.14-2.42s-.84-2.44-2.13-2.44c-1.1,0-2.1.91-2.1,2.37Z" style="fill: #1a1a1a; stroke-width: 0px;"/>
        <path d="M795.56,420.03c-.36.33-.6.86-.62,1.59v3.58h-1.15v-6.75h1.03l.08,1.18c.23-.62.86-1.25,2.02-1.25v1.15c-.54,0-.99.15-1.37.5Z" style="fill: #1a1a1a; stroke-width: 0px;"/>
      </g>
    </g>
  </g>
  <g style="isolation: isolate;">
    <g style="isolation: isolate;">
      <g style="isolation: isolate;">
        <path d="M873.26,424.1v-6.98l-.25.7-2.87,6.28h-.98l-2.85-6.28-.25-.7v6.98h-1.22v-9.38h1.34l3.22,6.89.25.6.27-.6,3.23-6.89h1.34v9.38h-1.22Z" style="fill: #1a1a1a; stroke-width: 0px;"/>
        <path d="M881.22,419.63v4.47h-1.04l-.05-.92c-.33.6-1.06,1.07-2.05,1.07-1.18,0-1.97-.72-1.97-1.9s.83-1.75,1.89-1.96l2.06-.39v-.33c0-.96-.44-1.39-1.25-1.39-.74,0-1.38.4-1.38,1.23h-1.14c.04-1.3,1.03-2.3,2.52-2.3s2.41.86,2.41,2.42ZM877.27,422.33c0,.54.38.84,1.03.84.56,0,1.06-.24,1.37-.67.23-.31.39-.78.39-1.25v-.25l-1.85.4c-.51.12-.94.32-.94.92Z" style="fill: #1a1a1a; stroke-width: 0px;"/>
        <path d="M883.56,426.98l1.12-2.97-2.53-6.66h1.23l1.78,4.85.13.51.13-.51,1.78-4.85h1.25l-3.68,9.63h-1.22Z" style="fill: #1a1a1a; stroke-width: 0px;"/>
      </g>
    </g>
  </g>
  <g id="area-fills-svg">
    <path d="M119.2,402l25.1-4.3,25.1,1.2,25.1-6.8,25.1,2.1,25.1-5.3,25.1-8.9,25.1-24.1,25.1-20.2,25.1-22.6,25.1-20.6,25.1-14.2,25.1,15.9,25.1,39.7,25.1,30.6,25.1,17.2,25.1,6,25.1-4.8,25.1,6,25.1-.4,25.1,1,25.1-3.7,25.1,2.5,25.1,4.7v-6.8l-25.1,1.1-25.1-1.7-25.1-4.4-25.1-5.1-25.1,9.9-25.1-6.8-25.1-4.1-25.1-1.1-25.1-32.3-25.1-72.2-25.1-77.5-25.1-89.6-25.1,90-25.1,70.9-25.1,58.7-25.1,27.1-25.1,9.7-25.1,16-25.1,4.9-25.1,3.1-25.1,2-25.1,1.5-25.1,5.1v10.6Z" style="fill: #c6ddf4; isolation: isolate; opacity: .7; stroke-width: 0px;"/>
    <path d="M119.2,402.6h576.8v-9.5l-25.1-4.7-25.1-2.5-25.1,3.7-25.1-1-25.1.4-25.1-6-25.1,4.8-25.1-6-25.1-17.2-25.1-30.6-25.1-39.7-25.1-15.9-25.1,14.2-25.1,20.6-25.1,22.6-25.1,20.2-25.1,24.1-25.1,8.9-25.1,5.3-25.1-2.1-25.1,6.8-25.1-1.2-25.1,4.3v.6l.5-.1Z" style="fill: #dbb9e6; isolation: isolate; opacity: .7; stroke-width: 0px;"/>
    <path d="M119.2,400.3l25.1.9,25.1.3,25.1-.7,25.1,1,25.1-.3,25.1-2.9,25.1-1.7,25.1-3.1,25.1-4.1,25.1-8.6,25.1-25.8,25.1-36.6v-19.4l-25.1,19.1-25.1,26.2-25.1,23.3-25.1,19.6-25.1,4.5-25.1,3.9-25.1-.5h-25.1l-25.1,3.5-25.1,1.3-25.1-.9-25.1,1h0Z" style="fill: #04284a; isolation: isolate; opacity: .7; stroke-width: 0px;"/>
    <path d="M119.2,401.9l25.1-.5,25.1.8,25.1-.9h25.1l25.1-1.5,25.1-.3,25.1-.9,25.1-1.8,25.1-2.1,25.1-4.1,25.1-3.8,25.1-19.6,25.1-17.2,25.1-18,25.1-4.2,25.1-13.6,25.1-1,25.1-11.2,25.1,13.5,25.1,26,25.1,30.1,25.1,8.4,25.1.4,25.1,5.3,25.1,1.3,25.1,3,25.1,2.2,25.1,1,25.1-2.1,25.1,7.4,25.1,1.2,25.1-.9v2.3h-25.1l-25.1-.9-25.1-2.6-25.1-5.1-25.1-7.3-25.1-17.8-25.1-7.1-25.1-6.5-25.1-5.6-25.1-8.2-25.1-7.1-25.1-33.4-25.1-.5-25.1,12.5-25.1-2.5-25.1-18.6-25.1-4.2-25.1-14.7-25.1,26-25.1,21.1-25.1,36.6-25.1,25.8-25.1,8.6-25.1,4.1-25.1,3.1-25.1,1.7-25.1,2.9-25.1.3-25.1-1-25.1.7-25.1-.3-25.1-.9v1.7Z" style="fill: #efd952; isolation: isolate; opacity: .7; stroke-width: 0px;"/>
    <path d="M119.2,402.6h802.6v-3.8l-25.1.9-25.1-1.2-25.1-7.4-25.1,2.1-25.1-1-25.1-2.2-25.1-3-25.1-1.3-25.1-5.3-25.1-.4-25.1-8.4-25.1-30.1-25.1-26-25.1-13.5-25.1,11.2-25.1,1-25.1,13.6-25.1,4.2-25.1,18-25.1,17.2-25.1,19.6-25.1,3.8-25.1,4.1-25.1,2.1-25.1,1.8-25.1.9-25.1.3-25.1,1.5h-25.1l-25.1.9-25.1-.8-25.1.5v.6l.6.1Z" style="fill: #f56647; isolation: isolate; opacity: .7; stroke-width: 0px;"/>
  </g>
  <line x1="931" y1="402.6" x2="60" y2="402.6" style="fill: none; stroke: #1a1a1a; stroke-linecap: square;"/>
  <g id="_2022-2023-4" data-name=" 2022-2023-4" style="isolation: isolate;">
    <g style="isolation: isolate;">
      <g style="isolation: isolate;">
        <path d="M318.28,118.63c0,1.13-.5,1.99-1.19,2.87l-2.51,3.21h3.85v1.19h-5.6v-.94l3.15-3.98c.7-.88,1.01-1.46,1.01-2.31,0-1.01-.48-1.57-1.46-1.57-.88,0-1.53.56-1.53,1.82h-1.27c0-1.85,1.09-3.01,2.82-3.01s2.73,1.08,2.73,2.72Z" style="fill: #647a8e; stroke-width: 0px;"/>
        <path d="M326.08,120.98c0,3.1-1.18,5.1-3.29,5.1s-3.29-2-3.29-5.1,1.16-5.07,3.29-5.07,3.29,1.99,3.29,5.07ZM320.78,120.98c0,2.4.67,3.91,2,3.91s1.99-1.51,1.99-3.91-.67-3.88-1.99-3.88-2,1.5-2,3.88Z" style="fill: #647a8e; stroke-width: 0px;"/>
        <path d="M332.84,118.63c0,1.13-.5,1.99-1.19,2.87l-2.51,3.21h3.85v1.19h-5.6v-.94l3.15-3.98c.7-.88,1.01-1.46,1.01-2.31,0-1.01-.48-1.57-1.46-1.57-.88,0-1.53.56-1.53,1.82h-1.27c0-1.85,1.09-3.01,2.82-3.01s2.73,1.08,2.73,2.72Z" style="fill: #647a8e; stroke-width: 0px;"/>
        <path d="M339.63,118.63c0,1.13-.5,1.99-1.19,2.87l-2.51,3.21h3.85v1.19h-5.6v-.94l3.15-3.98c.7-.88,1.01-1.46,1.01-2.31,0-1.01-.48-1.57-1.46-1.57-.88,0-1.53.56-1.53,1.82h-1.27c0-1.85,1.09-3.01,2.82-3.01s2.73,1.08,2.73,2.72Z" style="fill: #647a8e; stroke-width: 0px;"/>
        <path d="M340.49,122.8v-1.08h4.41v1.08h-4.41Z" style="fill: #647a8e; stroke-width: 0px;"/>
        <path d="M351.23,118.63c0,1.13-.5,1.99-1.19,2.87l-2.51,3.21h3.85v1.19h-5.6v-.94l3.15-3.98c.7-.88,1.01-1.46,1.01-2.31,0-1.01-.48-1.57-1.46-1.57-.88,0-1.53.56-1.53,1.82h-1.27c0-1.85,1.09-3.01,2.82-3.01s2.73,1.08,2.73,2.72Z" style="fill: #647a8e; stroke-width: 0px;"/>
        <path d="M359.03,120.98c0,3.1-1.18,5.1-3.29,5.1s-3.29-2-3.29-5.1,1.16-5.07,3.29-5.07,3.29,1.99,3.29,5.07ZM353.74,120.98c0,2.4.67,3.91,2,3.91s1.99-1.51,1.99-3.91-.67-3.88-1.99-3.88-2,1.5-2,3.88Z" style="fill: #647a8e; stroke-width: 0px;"/>
        <path d="M365.79,118.63c0,1.13-.5,1.99-1.19,2.87l-2.51,3.21h3.85v1.19h-5.6v-.94l3.15-3.98c.7-.88,1.01-1.46,1.01-2.31,0-1.01-.48-1.57-1.46-1.57-.88,0-1.53.56-1.53,1.82h-1.27c0-1.85,1.09-3.01,2.82-3.01s2.73,1.08,2.73,2.72Z" style="fill: #647a8e; stroke-width: 0px;"/>
        <path d="M372.81,118.67c0,1.25-.71,1.92-1.37,2.14.85.22,1.71,1.02,1.71,2.42,0,1.68-1.22,2.84-3.04,2.84s-3.1-1.09-3.1-3h1.26c.01,1.27.81,1.81,1.86,1.81s1.72-.66,1.72-1.69c0-1.18-.84-1.81-2.31-1.81h-.32v-1.12h.31c1.37,0,1.99-.48,1.99-1.57,0-.97-.5-1.6-1.47-1.6-.85,0-1.56.53-1.56,1.76h-1.27c0-1.82,1.11-2.96,2.82-2.96s2.77,1.22,2.77,2.76Z" style="fill: #647a8e; stroke-width: 0px;"/>
      </g>
    </g>
  </g>
  <g id="_2017-2018-2" data-name=" 2017-2018-2" style="isolation: isolate;">
    <g style="isolation: isolate;">
      <g style="isolation: isolate;">
        <path d="M513.48,256.13c0,1.13-.5,1.99-1.19,2.87l-2.51,3.21h3.85v1.19h-5.6v-.94l3.15-3.98c.7-.88,1.01-1.46,1.01-2.31,0-1.01-.48-1.57-1.46-1.57-.88,0-1.53.56-1.53,1.82h-1.27c0-1.85,1.09-3.01,2.82-3.01s2.73,1.08,2.73,2.72Z" style="fill: #857700; stroke-width: 0px;"/>
        <path d="M521.28,258.48c0,3.1-1.18,5.1-3.29,5.1s-3.29-2-3.29-5.1,1.16-5.07,3.29-5.07,3.29,1.99,3.29,5.07ZM515.98,258.48c0,2.4.67,3.91,2,3.91s1.99-1.51,1.99-3.91-.67-3.88-1.99-3.88-2,1.5-2,3.88Z" style="fill: #857700; stroke-width: 0px;"/>
        <path d="M524.3,263.4v-7.51h-2.06v-1.09c1.43,0,2.11-.24,2.35-1.21h.98v9.81h-1.27Z" style="fill: #857700; stroke-width: 0px;"/>
        <path d="M529.04,263.4h-1.39l3.87-8.59h-4.38v-1.22h5.84v1.04l-3.94,8.77Z" style="fill: #857700; stroke-width: 0px;"/>
        <path d="M533.48,260.3v-1.08h4.41v1.08h-4.41Z" style="fill: #857700; stroke-width: 0px;"/>
        <path d="M544.22,256.13c0,1.13-.5,1.99-1.19,2.87l-2.51,3.21h3.85v1.19h-5.6v-.94l3.15-3.98c.7-.88,1.01-1.46,1.01-2.31,0-1.01-.48-1.57-1.46-1.57-.88,0-1.53.56-1.53,1.82h-1.27c0-1.85,1.09-3.01,2.82-3.01s2.73,1.08,2.73,2.72Z" style="fill: #857700; stroke-width: 0px;"/>
        <path d="M552.02,258.48c0,3.1-1.18,5.1-3.29,5.1s-3.29-2-3.29-5.1,1.16-5.07,3.29-5.07,3.29,1.99,3.29,5.07ZM546.72,258.48c0,2.4.67,3.91,2,3.91s1.99-1.51,1.99-3.91-.67-3.88-1.99-3.88-2,1.5-2,3.88Z" style="fill: #857700; stroke-width: 0px;"/>
        <path d="M555.04,263.4v-7.51h-2.06v-1.09c1.43,0,2.12-.24,2.35-1.21h.98v9.81h-1.27Z" style="fill: #857700; stroke-width: 0px;"/>
        <path d="M563.99,256.17c0,1.22-.7,1.93-1.2,2.18.63.28,1.51.98,1.51,2.35,0,1.67-1.36,2.87-3.12,2.87s-3.14-1.2-3.14-2.87c0-1.25.73-2.06,1.51-2.35-.52-.27-1.19-.98-1.19-2.18,0-1.53,1.09-2.76,2.82-2.76s2.82,1.23,2.82,2.76ZM559.32,260.68c0,1.09.87,1.72,1.85,1.72s1.83-.63,1.83-1.72-.87-1.75-1.83-1.75-1.85.66-1.85,1.75ZM559.62,256.2c0,.97.64,1.57,1.55,1.57s1.55-.6,1.55-1.57-.66-1.61-1.55-1.61-1.55.63-1.55,1.61Z" style="fill: #857700; stroke-width: 0px;"/>
      </g>
    </g>
  </g>
  <g id="_2019-2020-2" data-name=" 2019-2020-2" style="isolation: isolate;">
    <g style="isolation: isolate;">
      <g style="isolation: isolate;">
        <path d="M265.88,286.43c0,1.13-.5,1.99-1.19,2.87l-2.51,3.21h3.85v1.19h-5.6v-.94l3.15-3.98c.7-.88,1.01-1.46,1.01-2.31,0-1.01-.48-1.57-1.46-1.57-.88,0-1.53.56-1.53,1.82h-1.27c0-1.85,1.09-3.01,2.82-3.01s2.73,1.08,2.73,2.72Z" style="fill: #8b6c96; stroke-width: 0px;"/>
        <path d="M273.68,288.78c0,3.1-1.18,5.1-3.29,5.1s-3.29-2-3.29-5.1,1.16-5.07,3.29-5.07,3.29,1.99,3.29,5.07ZM268.38,288.78c0,2.4.67,3.91,2,3.91s1.99-1.51,1.99-3.91-.67-3.88-1.99-3.88-2,1.5-2,3.88Z" style="fill: #8b6c96; stroke-width: 0px;"/>
        <path d="M276.7,293.7v-7.51h-2.06v-1.09c1.43,0,2.11-.24,2.35-1.21h.98v9.81h-1.27Z" style="fill: #8b6c96; stroke-width: 0px;"/>
        <path d="M285.97,288.55c0,3.46-.99,5.34-3.35,5.34-1.57,0-2.73-1.05-2.8-2.7h1.29c.1,1.06.66,1.51,1.56,1.51,1.29,0,1.98-1.08,2.02-3.73-.35.52-1.12.98-2.05.98-1.92,0-3.03-1.34-3.03-3.07,0-1.82,1.2-3.17,3.07-3.17,1.01,0,1.77.35,2.31.98.78.9.98,2.33.98,3.85ZM284.57,286.88c0-.98-.71-1.99-1.86-1.99-1.08,0-1.79.83-1.79,1.96,0,1.06.71,1.91,1.79,1.91,1.02,0,1.86-.8,1.86-1.88Z" style="fill: #8b6c96; stroke-width: 0px;"/>
        <path d="M286.97,290.6v-1.08h4.41v1.08h-4.41Z" style="fill: #8b6c96; stroke-width: 0px;"/>
        <path d="M297.71,286.43c0,1.13-.5,1.99-1.19,2.87l-2.51,3.21h3.85v1.19h-5.6v-.94l3.15-3.98c.7-.88,1.01-1.46,1.01-2.31,0-1.01-.48-1.57-1.46-1.57-.88,0-1.53.56-1.53,1.82h-1.27c0-1.85,1.09-3.01,2.82-3.01s2.73,1.08,2.73,2.72Z" style="fill: #8b6c96; stroke-width: 0px;"/>
        <path d="M305.51,288.78c0,3.1-1.18,5.1-3.29,5.1s-3.29-2-3.29-5.1,1.16-5.07,3.29-5.07,3.29,1.99,3.29,5.07ZM300.22,288.78c0,2.4.67,3.91,2,3.91s1.99-1.51,1.99-3.91-.67-3.88-1.99-3.88-2,1.5-2,3.88Z" style="fill: #8b6c96; stroke-width: 0px;"/>
        <path d="M312.27,286.43c0,1.13-.5,1.99-1.19,2.87l-2.51,3.21h3.85v1.19h-5.6v-.94l3.15-3.98c.7-.88,1.01-1.46,1.01-2.31,0-1.01-.48-1.57-1.46-1.57-.88,0-1.53.56-1.53,1.82h-1.27c0-1.85,1.09-3.01,2.82-3.01s2.73,1.08,2.73,2.72Z" style="fill: #8b6c96; stroke-width: 0px;"/>
        <path d="M320.07,288.78c0,3.1-1.18,5.1-3.29,5.1s-3.29-2-3.29-5.1,1.16-5.07,3.29-5.07,3.29,1.99,3.29,5.07ZM314.78,288.78c0,2.4.67,3.91,2,3.91s1.99-1.51,1.99-3.91-.67-3.88-1.99-3.88-2,1.5-2,3.88Z" style="fill: #8b6c96; stroke-width: 0px;"/>
      </g>
    </g>
  </g>
  <g id="_2018-2019-2" data-name=" 2018-2019-2" style="isolation: isolate;">
    <g style="isolation: isolate;">
      <g style="isolation: isolate;">
        <path d="M590.68,273.33c0,1.13-.5,1.99-1.19,2.87l-2.51,3.21h3.85v1.19h-5.6v-.94l3.15-3.98c.7-.88,1.01-1.46,1.01-2.31,0-1.01-.48-1.57-1.46-1.57-.88,0-1.53.56-1.53,1.82h-1.27c0-1.85,1.09-3.01,2.81-3.01s2.73,1.08,2.73,2.72Z" style="fill: #d0452b; stroke-width: 0px;"/>
        <path d="M598.48,275.68c0,3.1-1.18,5.1-3.29,5.1s-3.29-2-3.29-5.1,1.16-5.07,3.29-5.07,3.29,1.99,3.29,5.07ZM593.18,275.68c0,2.4.67,3.91,2,3.91s1.99-1.51,1.99-3.91-.67-3.88-1.99-3.88-2,1.5-2,3.88Z" style="fill: #d0452b; stroke-width: 0px;"/>
        <path d="M601.5,280.6v-7.51h-2.06v-1.09c1.43,0,2.12-.24,2.35-1.21h.98v9.81h-1.27Z" style="fill: #d0452b; stroke-width: 0px;"/>
        <path d="M610.45,273.37c0,1.22-.7,1.93-1.21,2.18.63.28,1.51.98,1.51,2.35,0,1.67-1.36,2.87-3.12,2.87s-3.14-1.2-3.14-2.87c0-1.25.73-2.06,1.51-2.35-.52-.27-1.19-.98-1.19-2.18,0-1.53,1.09-2.76,2.82-2.76s2.82,1.23,2.82,2.76ZM605.78,277.88c0,1.09.87,1.72,1.85,1.72s1.83-.63,1.83-1.72-.87-1.75-1.83-1.75-1.85.66-1.85,1.75ZM606.08,273.4c0,.97.64,1.57,1.55,1.57s1.55-.6,1.55-1.57-.66-1.61-1.55-1.61-1.55.63-1.55,1.61Z" style="fill: #d0452b; stroke-width: 0px;"/>
        <path d="M611.77,277.5v-1.08h4.41v1.08h-4.41Z" style="fill: #d0452b; stroke-width: 0px;"/>
        <path d="M622.51,273.33c0,1.13-.5,1.99-1.19,2.87l-2.51,3.21h3.85v1.19h-5.6v-.94l3.15-3.98c.7-.88,1.01-1.46,1.01-2.31,0-1.01-.48-1.57-1.46-1.57-.88,0-1.53.56-1.53,1.82h-1.27c0-1.85,1.09-3.01,2.82-3.01s2.73,1.08,2.73,2.72Z" style="fill: #d0452b; stroke-width: 0px;"/>
        <path d="M630.31,275.68c0,3.1-1.18,5.1-3.29,5.1s-3.29-2-3.29-5.1,1.16-5.07,3.29-5.07,3.29,1.99,3.29,5.07ZM625.02,275.68c0,2.4.67,3.91,2,3.91s1.99-1.51,1.99-3.91-.67-3.88-1.99-3.88-2,1.5-2,3.88Z" style="fill: #d0452b; stroke-width: 0px;"/>
        <path d="M633.33,280.6v-7.51h-2.06v-1.09c1.43,0,2.12-.24,2.35-1.21h.98v9.81h-1.27Z" style="fill: #d0452b; stroke-width: 0px;"/>
        <path d="M642.6,275.45c0,3.46-1,5.34-3.35,5.34-1.57,0-2.73-1.05-2.8-2.7h1.29c.1,1.06.66,1.51,1.55,1.51,1.29,0,1.98-1.08,2.02-3.73-.35.52-1.12.98-2.04.98-1.92,0-3.03-1.34-3.03-3.07,0-1.82,1.2-3.17,3.07-3.17,1.01,0,1.77.35,2.31.98.78.9.98,2.33.98,3.85ZM641.2,273.78c0-.98-.71-1.99-1.86-1.99-1.08,0-1.79.83-1.79,1.96,0,1.06.71,1.91,1.79,1.91,1.02,0,1.86-.8,1.86-1.88Z" style="fill: #d0452b; stroke-width: 0px;"/>
      </g>
    </g>
  </g>
  <g id="svelte-zo497q-svg">
    <g id="callout-line-svg">
      <path d="M374.9,114.6c5.6-2.3,10.9-5.3,15.9-9.1" style="fill: none; stroke: #647a8e;"/>
    </g>
  </g>
  <g id="svelte-zo497q-svg-2">
    <g id="callout-line-svg-2">
      <path d="M456,253.7c-17.7,8.8-29.7,23.5-35.9,44" style="fill: none; stroke: #04284a;"/>
    </g>
  </g>
  <g style="isolation: isolate;">
    <g style="isolation: isolate;">
      <g style="isolation: isolate;">
        <path d="M466.18,246.33c0,1.13-.5,1.99-1.19,2.87l-2.51,3.21h3.85v1.19h-5.6v-.94l3.15-3.98c.7-.88,1.01-1.46,1.01-2.31,0-1.01-.48-1.57-1.46-1.57-.88,0-1.53.56-1.53,1.82h-1.27c0-1.85,1.09-3.01,2.82-3.01s2.73,1.08,2.73,2.72Z" style="fill: #04284a; stroke-width: 0px;"/>
        <path d="M473.98,248.68c0,3.1-1.18,5.1-3.29,5.1s-3.29-2-3.29-5.1,1.16-5.07,3.29-5.07,3.29,1.99,3.29,5.07ZM468.68,248.68c0,2.4.67,3.91,2,3.91s1.99-1.51,1.99-3.91-.67-3.88-1.99-3.88-2,1.5-2,3.88Z" style="fill: #04284a; stroke-width: 0px;"/>
        <path d="M480.74,246.33c0,1.13-.5,1.99-1.19,2.87l-2.51,3.21h3.85v1.19h-5.6v-.94l3.15-3.98c.7-.88,1.01-1.46,1.01-2.31,0-1.01-.48-1.57-1.46-1.57-.88,0-1.53.56-1.53,1.82h-1.27c0-1.85,1.09-3.01,2.82-3.01s2.73,1.08,2.73,2.72Z" style="fill: #04284a; stroke-width: 0px;"/>
        <path d="M487.75,246.37c0,1.25-.71,1.92-1.37,2.14.85.22,1.71,1.02,1.71,2.42,0,1.68-1.22,2.84-3.04,2.84s-3.1-1.09-3.1-3h1.26c.01,1.27.81,1.81,1.86,1.81s1.72-.66,1.72-1.69c0-1.18-.84-1.81-2.31-1.81h-.32v-1.12h.31c1.37,0,1.99-.48,1.99-1.57,0-.97-.5-1.6-1.47-1.6-.86,0-1.56.53-1.56,1.76h-1.27c0-1.82,1.11-2.96,2.82-2.96s2.77,1.22,2.77,2.76Z" style="fill: #04284a; stroke-width: 0px;"/>
      </g>
    </g>
  </g>
  <g id="svelte-zo497q-svg-3">
    <g id="callout-line-svg-3">
      <path d="M502,263.4c-9.8-.2-19.6,2.2-29.5,7.3" style="fill: none; stroke: #857700;"/>
    </g>
  </g>
  <g id="svelte-zo497q-svg-4">
    <g id="callout-line-svg-4">
      <path d="M324.9,282.8c20.5-9.2,40.3-11.9,69.3-5.4" style="fill: none; stroke: #8b6c96;"/>
    </g>
  </g>
  <g id="svelte-zo497q-svg-5">
    <g id="callout-line-svg-5">
      <path d="M584.5,284.6c-4.6,4.1-8.6,9.3-11.8,15.5" style="fill: none; stroke: #f56647;"/>
    </g>
  </g>
  <g id="y-tick-labels-svg_number-axis-svg_grid-y-svg_datawrapper-RtHpC-uu7shf-svg-2" data-name="y-tick-labels-svg number-axis-svg grid-y-svg datawrapper-RtHpC-uu7shf-svg-2">
    <g style="isolation: isolate;">
      <g style="isolation: isolate;">
        <g style="isolation: isolate;">
          <path d="M81.92,319.29v2.84c.32-.2.87-.36,1.6-.36,1.72,0,2.91,1.13,2.91,3.05s-1.15,3.26-3.08,3.26c-1.79,0-3-.97-3-2.86h1.27c.01,1.16.73,1.67,1.74,1.67,1.15,0,1.78-.84,1.78-2.03s-.66-1.9-1.81-1.9c-.71,0-1.23.22-1.57.45h-1.13v-5.31h5.28v1.19h-3.99Z" style="fill: #1a1a1a; stroke-width: 0px;"/>
        </g>
      </g>
    </g>
    <g style="isolation: isolate;">
      <g style="isolation: isolate;">
        <g style="isolation: isolate;">
          <path d="M81.94,245v-7.51h-2.06v-1.09c1.43,0,2.11-.24,2.35-1.21h.98v9.81h-1.27Z" style="fill: #1a1a1a; stroke-width: 0px;"/>
          <path d="M91.45,240.08c0,3.1-1.18,5.1-3.29,5.1s-3.29-2-3.29-5.1,1.16-5.07,3.29-5.07,3.29,1.99,3.29,5.07ZM86.15,240.08c0,2.4.67,3.91,2,3.91s1.99-1.51,1.99-3.91-.67-3.88-1.99-3.88-2,1.5-2,3.88Z" style="fill: #1a1a1a; stroke-width: 0px;"/>
        </g>
      </g>
    </g>
    <g style="isolation: isolate;">
      <g style="isolation: isolate;">
        <g style="isolation: isolate;">
          <path d="M81.94,162.1v-7.51h-2.06v-1.09c1.43,0,2.11-.24,2.35-1.21h.98v9.81h-1.27Z" style="fill: #1a1a1a; stroke-width: 0px;"/>
          <path d="M86.68,153.49v2.84c.32-.2.87-.36,1.6-.36,1.72,0,2.91,1.13,2.91,3.05s-1.15,3.26-3.08,3.26c-1.79,0-3-.97-3-2.86h1.27c.01,1.16.73,1.67,1.74,1.67,1.15,0,1.78-.84,1.78-2.03s-.66-1.9-1.81-1.9c-.71,0-1.23.22-1.57.45h-1.13v-5.31h5.28v1.19h-3.99Z" style="fill: #1a1a1a; stroke-width: 0px;"/>
        </g>
      </g>
    </g>
  </g>
  <g style="isolation: isolate;">
    <g style="isolation: isolate;">
      <path d="M438.32,114.76v1.14h-5.4v-9.38h1.22v8.24h4.18Z" style="fill: #1a1a1a; stroke-width: 0px;"/>
      <path d="M445.91,112.52c0,2.05-1.41,3.52-3.42,3.52s-3.43-1.47-3.43-3.52,1.41-3.52,3.43-3.52,3.42,1.47,3.42,3.52ZM440.26,112.52c0,1.39.9,2.45,2.25,2.45s2.21-1.06,2.21-2.45-.87-2.45-2.21-2.45-2.25,1.04-2.25,2.45Z" style="fill: #1a1a1a; stroke-width: 0px;"/>
      <path d="M452.92,115.9l-1.63-4.82-1.65,4.82h-1.12l-2.14-6.75h1.23l1.41,4.72.13.62.15-.62,1.51-4.72h.99l1.51,4.72.15.62.13-.62,1.41-4.72h1.23l-2.14,6.75h-1.17Z" style="fill: #1a1a1a; stroke-width: 0px;"/>
      <path d="M461.94,115.9l-2.57-6.75h1.23l1.78,4.85.13.51.13-.51,1.78-4.85h1.25l-2.59,6.75h-1.15Z" style="fill: #1a1a1a; stroke-width: 0px;"/>
      <path d="M471.43,111.43v4.47h-1.04l-.05-.92c-.33.6-1.06,1.07-2.05,1.07-1.18,0-1.97-.72-1.97-1.9s.83-1.75,1.89-1.96l2.06-.39v-.33c0-.96-.44-1.39-1.25-1.39-.74,0-1.38.4-1.38,1.23h-1.14c.04-1.3,1.03-2.3,2.52-2.3s2.41.86,2.41,2.42ZM467.48,114.13c0,.54.38.84,1.03.84.56,0,1.06-.24,1.37-.67.23-.31.39-.78.39-1.25v-.25l-1.85.4c-.51.12-.94.32-.94.92Z" style="fill: #1a1a1a; stroke-width: 0px;"/>
      <path d="M479.04,111.25h-1.15c-.27-.75-.96-1.18-1.84-1.18-1.21,0-2.1,1.03-2.1,2.47s.9,2.44,2.13,2.44c.86,0,1.57-.46,1.81-1.18h1.17c-.36,1.47-1.54,2.25-3.01,2.25-1.9,0-3.28-1.47-3.28-3.51s1.38-3.54,3.28-3.54c1.49,0,2.68.78,3,2.25Z" style="fill: #1a1a1a; stroke-width: 0px;"/>
      <path d="M486.28,111.25h-1.15c-.27-.75-.96-1.18-1.83-1.18-1.21,0-2.1,1.03-2.1,2.47s.9,2.44,2.13,2.44c.86,0,1.57-.46,1.81-1.18h1.17c-.36,1.47-1.54,2.25-3.01,2.25-1.9,0-3.28-1.47-3.28-3.51s1.38-3.54,3.28-3.54c1.49,0,2.68.78,3,2.25Z" style="fill: #1a1a1a; stroke-width: 0px;"/>
      <path d="M489.17,107.07c0,.43-.36.78-.8.78s-.79-.35-.79-.78.35-.79.79-.79.8.35.8.79ZM487.79,115.9v-6.75h1.15v6.75h-1.15Z" style="fill: #1a1a1a; stroke-width: 0px;"/>
      <path d="M496.19,111.53v4.37h-1.17v-4.18c0-1.04-.5-1.59-1.31-1.59-.88,0-1.57.78-1.57,2.16v3.62h-1.15v-6.75h1.03l.07.92c.31-.59.95-1.07,1.9-1.07,1.45,0,2.2,1.04,2.2,2.53Z" style="fill: #1a1a1a; stroke-width: 0px;"/>
      <path d="M503.87,112.98h-5.12c.08,1.25.92,2,2.08,2,.9,0,1.55-.39,1.82-1.1h1.15c-.4,1.34-1.45,2.17-3,2.17-1.9,0-3.26-1.38-3.26-3.51s1.29-3.54,3.26-3.54c1.77,0,3.07,1.15,3.07,3.43v.55ZM502.7,111.95c-.01-1.15-.78-1.88-1.9-1.88s-1.92.79-2.05,1.88h3.95Z" style="fill: #1a1a1a; stroke-width: 0px;"/>
      <path d="M513.83,111.25h-1.15c-.27-.75-.96-1.18-1.83-1.18-1.21,0-2.1,1.03-2.1,2.47s.9,2.44,2.13,2.44c.86,0,1.57-.46,1.81-1.18h1.17c-.36,1.47-1.54,2.25-3.01,2.25-1.9,0-3.28-1.47-3.28-3.51s1.38-3.54,3.28-3.54c1.49,0,2.68.78,3,2.25Z" style="fill: #1a1a1a; stroke-width: 0px;"/>
      <path d="M521.62,112.52c0,2.05-1.41,3.52-3.42,3.52s-3.43-1.47-3.43-3.52,1.41-3.52,3.43-3.52,3.42,1.47,3.42,3.52ZM515.97,112.52c0,1.39.9,2.45,2.25,2.45s2.21-1.06,2.21-2.45-.87-2.45-2.21-2.45-2.25,1.04-2.25,2.45Z" style="fill: #1a1a1a; stroke-width: 0px;"/>
      <path d="M524.65,115.9l-2.57-6.75h1.23l1.78,4.85.13.51.13-.51,1.78-4.85h1.25l-2.59,6.75h-1.15Z" style="fill: #1a1a1a; stroke-width: 0px;"/>
      <path d="M535.14,112.98h-5.12c.08,1.25.92,2,2.08,2,.9,0,1.55-.39,1.82-1.1h1.15c-.4,1.34-1.45,2.17-3,2.17-1.9,0-3.25-1.38-3.25-3.51s1.29-3.54,3.25-3.54c1.77,0,3.07,1.15,3.07,3.43v.55ZM533.98,111.95c-.01-1.15-.78-1.88-1.9-1.88s-1.92.79-2.05,1.88h3.95Z" style="fill: #1a1a1a; stroke-width: 0px;"/>
      <path d="M538.48,110.73c-.36.33-.6.86-.62,1.59v3.58h-1.15v-6.75h1.03l.08,1.18c.23-.62.86-1.25,2.02-1.25v1.15c-.54,0-.99.15-1.37.5Z" style="fill: #1a1a1a; stroke-width: 0px;"/>
      <path d="M545.69,111.43v4.47h-1.04l-.05-.92c-.33.6-1.06,1.07-2.05,1.07-1.18,0-1.97-.72-1.97-1.9s.83-1.75,1.89-1.96l2.06-.39v-.33c0-.96-.44-1.39-1.25-1.39-.74,0-1.38.4-1.38,1.23h-1.14c.04-1.3,1.03-2.3,2.52-2.3s2.41.86,2.41,2.42ZM541.74,114.13c0,.54.38.84,1.03.84.56,0,1.06-.24,1.37-.67.23-.31.39-.78.39-1.25v-.25l-1.85.4c-.51.12-.94.32-.94.92Z" style="fill: #1a1a1a; stroke-width: 0px;"/>
      <path d="M553.33,110.17h-1.17c.2.36.32.79.32,1.26,0,1.34-1,2.4-2.57,2.4-.56,0-1.06-.13-1.45-.36-.16.15-.28.38-.28.67,0,.44.35.68.86.68h1.8c1.43,0,2.13.71,2.13,1.83,0,1.43-1.08,2.28-2.81,2.28-1.92,0-2.95-.78-2.95-2.1,0-.64.35-1,.74-1.22-.46-.23-.9-.72-.9-1.41,0-.62.31-1.09.7-1.38-.28-.39-.43-.87-.43-1.39,0-1.39,1.02-2.42,2.6-2.42.35,0,.67.05.96.15h2.45v1.02ZM548.34,116.78c0,.74.67,1.13,1.81,1.13,1.04,0,1.67-.4,1.67-1.21,0-.63-.47-.87-1.22-.87h-1.29c-.51.03-.98.29-.98.95ZM551.35,111.43c0-.8-.55-1.41-1.45-1.41s-1.45.6-1.45,1.41.56,1.38,1.45,1.38,1.45-.6,1.45-1.38Z" style="fill: #1a1a1a; stroke-width: 0px;"/>
      <path d="M560.07,112.98h-5.12c.08,1.25.92,2,2.08,2,.9,0,1.55-.39,1.82-1.1h1.15c-.4,1.34-1.45,2.17-3,2.17-1.9,0-3.25-1.38-3.25-3.51s1.29-3.54,3.25-3.54c1.77,0,3.07,1.15,3.07,3.43v.55ZM558.9,111.95c-.01-1.15-.78-1.88-1.9-1.88s-1.92.79-2.05,1.88h3.95Z" style="fill: #1a1a1a; stroke-width: 0px;"/>
      <path d="M569.01,111.43v4.47h-1.04l-.05-.92c-.33.6-1.06,1.07-2.05,1.07-1.18,0-1.97-.72-1.97-1.9s.83-1.75,1.89-1.96l2.06-.39v-.33c0-.96-.44-1.39-1.25-1.39-.74,0-1.38.4-1.38,1.23h-1.14c.04-1.3,1.03-2.3,2.52-2.3s2.41.86,2.41,2.42ZM565.05,114.13c0,.54.38.84,1.03.84.56,0,1.06-.24,1.37-.67.23-.31.39-.78.39-1.25v-.25l-1.85.4c-.51.12-.94.32-.94.92Z" style="fill: #1a1a1a; stroke-width: 0px;"/>
      <path d="M576.08,111.53v4.37h-1.17v-4.18c0-1.04-.5-1.59-1.31-1.59-.88,0-1.57.78-1.57,2.16v3.62h-1.15v-6.75h1.03l.07.92c.31-.59.95-1.07,1.9-1.07,1.45,0,2.2,1.04,2.2,2.53Z" style="fill: #1a1a1a; stroke-width: 0px;"/>
      <path d="M582.97,115.9l-.07-.99c-.42.6-1.1,1.14-2.32,1.14-1.9,0-3.15-1.53-3.15-3.52s1.26-3.52,3.16-3.52c1.12,0,1.88.5,2.25,1.07v-3.95h1.15v9.78h-1.03ZM578.63,112.52c0,1.43.84,2.44,2.13,2.44,1.1,0,2.1-.91,2.1-2.37v-.07c0-1.5-1.02-2.42-2.09-2.42-1.26,0-2.14,1-2.14,2.42Z" style="fill: #1a1a1a; stroke-width: 0px;"/>
      <path d="M592.75,115.9l-.07-.92c-.31.64-.92,1.07-1.86,1.07-1.46,0-2.17-1.03-2.17-2.53v-4.37h1.15v4.18c0,1.06.47,1.61,1.29,1.61.87,0,1.54-.74,1.54-2.04v-3.75h1.15v6.75h-1.03Z" style="fill: #1a1a1a; stroke-width: 0px;"/>
      <path d="M600.99,111.53v4.37h-1.17v-4.18c0-1.04-.5-1.59-1.31-1.59-.88,0-1.57.78-1.57,2.16v3.62h-1.15v-6.75h1.03l.07.92c.31-.59.95-1.07,1.9-1.07,1.45,0,2.2,1.04,2.2,2.53Z" style="fill: #1a1a1a; stroke-width: 0px;"/>
      <path d="M606.9,115.9l-.07-.92c-.31.64-.92,1.07-1.86,1.07-1.46,0-2.17-1.03-2.17-2.53v-4.37h1.15v4.18c0,1.06.47,1.61,1.29,1.61.87,0,1.54-.74,1.54-2.04v-3.75h1.15v6.75h-1.03Z" style="fill: #1a1a1a; stroke-width: 0px;"/>
      <path d="M614.08,111.13h-1.18c-.01-.71-.35-1.06-1.07-1.06s-1.03.42-1.03.91c0,.52.27.74,1.27.98,1.61.38,2.21.94,2.21,2.02,0,1.31-1.02,2.06-2.37,2.06-1.57,0-2.44-.88-2.46-2.2h1.18c.01.71.47,1.12,1.31,1.12.78,0,1.17-.39,1.17-.91,0-.56-.29-.83-1.41-1.09-1.41-.32-2.08-.82-2.08-1.93s.78-2.05,2.24-2.05c1.31,0,2.2.86,2.22,2.13Z" style="fill: #1a1a1a; stroke-width: 0px;"/>
      <path d="M619.83,115.9l-.07-.92c-.31.64-.92,1.07-1.86,1.07-1.46,0-2.17-1.03-2.17-2.53v-4.37h1.15v4.18c0,1.06.47,1.61,1.29,1.61.87,0,1.54-.74,1.54-2.04v-3.75h1.15v6.75h-1.03Z" style="fill: #1a1a1a; stroke-width: 0px;"/>
      <path d="M627.59,111.43v4.47h-1.04l-.05-.92c-.33.6-1.06,1.07-2.05,1.07-1.18,0-1.97-.72-1.97-1.9s.83-1.75,1.89-1.96l2.06-.39v-.33c0-.96-.44-1.39-1.25-1.39-.74,0-1.38.4-1.38,1.23h-1.14c.04-1.3,1.03-2.3,2.52-2.3s2.41.86,2.41,2.42ZM623.64,114.13c0,.54.38.84,1.03.84.56,0,1.06-.24,1.37-.67.23-.31.39-.78.39-1.25v-.25l-1.85.4c-.51.12-.94.32-.94.92Z" style="fill: #1a1a1a; stroke-width: 0px;"/>
      <path d="M629.47,115.9v-9.78h1.15v9.78h-1.15Z" style="fill: #1a1a1a; stroke-width: 0px;"/>
      <path d="M632.63,115.9v-9.78h1.15v9.78h-1.15Z" style="fill: #1a1a1a; stroke-width: 0px;"/>
      <path d="M636.39,118.78l1.12-2.97-2.53-6.66h1.23l1.78,4.85.13.51.13-.51,1.78-4.85h1.25l-3.68,9.63h-1.22Z" style="fill: #1a1a1a; stroke-width: 0px;"/>
      <path d="M651.03,112.98h-5.12c.08,1.25.92,2,2.08,2,.9,0,1.55-.39,1.82-1.1h1.15c-.4,1.34-1.45,2.17-3,2.17-1.9,0-3.26-1.38-3.26-3.51s1.29-3.54,3.26-3.54c1.77,0,3.07,1.15,3.07,3.43v.55ZM649.86,111.95c-.01-1.15-.78-1.88-1.9-1.88s-1.92.79-2.05,1.88h3.95Z" style="fill: #1a1a1a; stroke-width: 0px;"/>
      <path d="M657.23,111.43v4.47h-1.04l-.05-.92c-.33.6-1.06,1.07-2.05,1.07-1.18,0-1.97-.72-1.97-1.9s.83-1.75,1.89-1.96l2.06-.39v-.33c0-.96-.44-1.39-1.25-1.39-.74,0-1.38.4-1.38,1.23h-1.14c.04-1.3,1.03-2.3,2.52-2.3s2.41.86,2.41,2.42ZM653.28,114.13c0,.54.38.84,1.03.84.56,0,1.06-.24,1.37-.67.23-.31.39-.78.39-1.25v-.25l-1.85.4c-.51.12-.94.32-.94.92Z" style="fill: #1a1a1a; stroke-width: 0px;"/>
      <path d="M660.96,110.73c-.36.33-.6.86-.62,1.59v3.58h-1.15v-6.75h1.03l.08,1.18c.23-.62.86-1.25,2.02-1.25v1.15c-.54,0-.99.15-1.37.5Z" style="fill: #1a1a1a; stroke-width: 0px;"/>
      <path d="M663.64,115.9v-9.78h1.15v9.78h-1.15Z" style="fill: #1a1a1a; stroke-width: 0px;"/>
      <path d="M667.4,118.78l1.12-2.97-2.53-6.66h1.23l1.78,4.85.13.51.13-.51,1.78-4.85h1.25l-3.68,9.63h-1.22Z" style="fill: #1a1a1a; stroke-width: 0px;"/>
    </g>
    <g style="isolation: isolate;">
      <path d="M434.32,123.07c0,.43-.36.78-.8.78s-.79-.35-.79-.78.35-.79.79-.79.8.35.8.79ZM432.94,131.9v-6.75h1.15v6.75h-1.15Z" style="fill: #1a1a1a; stroke-width: 0px;"/>
      <path d="M441.35,127.53v4.37h-1.17v-4.18c0-1.04-.5-1.59-1.31-1.59-.88,0-1.57.78-1.57,2.16v3.62h-1.15v-6.75h1.03l.07.92c.31-.59.95-1.07,1.9-1.07,1.45,0,2.2,1.04,2.2,2.53Z" style="fill: #1a1a1a; stroke-width: 0px;"/>
      <path d="M446.57,122.16v1.05c-.23-.09-.47-.16-.82-.16-.59,0-.95.35-.95,1.1v1h1.67v1.06h-1.67v5.69h-1.17v-5.69h-1.22v-1.06h1.22v-1.03c0-1.34.74-2.12,2.02-2.12.4,0,.72.08.91.16Z" style="fill: #1a1a1a; stroke-width: 0px;"/>
      <path d="M447.67,131.9v-9.78h1.15v9.78h-1.15Z" style="fill: #1a1a1a; stroke-width: 0px;"/>
      <path d="M454.84,131.9l-.07-.92c-.31.64-.92,1.07-1.86,1.07-1.46,0-2.17-1.03-2.17-2.53v-4.37h1.15v4.18c0,1.06.47,1.61,1.29,1.61.87,0,1.54-.74,1.54-2.04v-3.75h1.15v6.75h-1.03Z" style="fill: #1a1a1a; stroke-width: 0px;"/>
      <path d="M463.66,128.98h-5.12c.08,1.25.92,2,2.08,2,.9,0,1.55-.39,1.82-1.1h1.15c-.4,1.34-1.45,2.17-3,2.17-1.9,0-3.26-1.38-3.26-3.51s1.29-3.54,3.26-3.54c1.77,0,3.07,1.15,3.07,3.43v.55ZM462.49,127.95c-.01-1.15-.78-1.88-1.9-1.88s-1.92.79-2.05,1.88h3.95Z" style="fill: #1a1a1a; stroke-width: 0px;"/>
      <path d="M470.34,127.53v4.37h-1.17v-4.18c0-1.04-.5-1.59-1.31-1.59-.88,0-1.57.78-1.57,2.16v3.62h-1.15v-6.75h1.03l.07.92c.31-.59.95-1.07,1.9-1.07,1.45,0,2.2,1.04,2.2,2.53Z" style="fill: #1a1a1a; stroke-width: 0px;"/>
      <path d="M473.24,130.87h3.8v1.03h-5.35v-.88l3.59-4.84h-3.56v-1.03h5.1v.88l-3.59,4.84Z" style="fill: #1a1a1a; stroke-width: 0px;"/>
      <path d="M483.09,127.43v4.47h-1.04l-.05-.92c-.33.6-1.06,1.07-2.05,1.07-1.18,0-1.97-.72-1.97-1.9s.83-1.75,1.89-1.96l2.06-.39v-.33c0-.96-.44-1.39-1.25-1.39-.74,0-1.38.4-1.38,1.23h-1.14c.04-1.3,1.03-2.3,2.52-2.3s2.41.86,2.41,2.42ZM479.13,130.13c0,.54.38.84,1.03.84.56,0,1.06-.24,1.37-.67.23-.31.39-.78.39-1.25v-.25l-1.85.4c-.51.12-.94.32-.94.92Z" style="fill: #1a1a1a; stroke-width: 0px;"/>
      <path d="M492.41,127.43v4.47h-1.04l-.05-.92c-.33.6-1.06,1.07-2.05,1.07-1.18,0-1.97-.72-1.97-1.9s.83-1.75,1.89-1.96l2.06-.39v-.33c0-.96-.44-1.39-1.25-1.39-.74,0-1.38.4-1.38,1.23h-1.14c.04-1.3,1.03-2.3,2.52-2.3s2.41.86,2.41,2.42ZM488.46,130.13c0,.54.38.84,1.03.84.56,0,1.06-.24,1.37-.67.23-.31.39-.78.39-1.25v-.25l-1.85.4c-.51.12-.94.32-.94.92Z" style="fill: #1a1a1a; stroke-width: 0px;"/>
      <path d="M500.02,127.25h-1.15c-.27-.75-.96-1.18-1.83-1.18-1.21,0-2.1,1.03-2.1,2.47s.9,2.44,2.13,2.44c.86,0,1.57-.46,1.81-1.18h1.17c-.36,1.47-1.54,2.25-3.01,2.25-1.9,0-3.28-1.47-3.28-3.51s1.38-3.54,3.28-3.54c1.49,0,2.68.78,3,2.25Z" style="fill: #1a1a1a; stroke-width: 0px;"/>
      <path d="M504.75,125.15v1.07h-1.74l-.03,3.62c0,.74.19,1.1.96,1.1.38,0,.6-.05.8-.12v1.03c-.2.08-.51.15-1,.15-1.27,0-1.93-.56-1.92-1.94l.03-3.83h-1.26v-1.07h1.26v-1.69h1.18v1.69s1.71,0,1.71,0Z" style="fill: #1a1a1a; stroke-width: 0px;"/>
      <path d="M507.58,123.07c0,.43-.36.78-.8.78s-.79-.35-.79-.78.35-.79.79-.79.8.35.8.79ZM506.2,131.9v-6.75h1.15v6.75h-1.15Z" style="fill: #1a1a1a; stroke-width: 0px;"/>
      <path d="M511.17,131.9l-2.57-6.75h1.23l1.78,4.85.13.51.13-.51,1.78-4.85h1.25l-2.59,6.75h-1.15Z" style="fill: #1a1a1a; stroke-width: 0px;"/>
      <path d="M517.52,123.07c0,.43-.36.78-.8.78s-.79-.35-.79-.78.35-.79.79-.79.8.35.8.79ZM516.14,131.9v-6.75h1.15v6.75h-1.15Z" style="fill: #1a1a1a; stroke-width: 0px;"/>
      <path d="M522.6,125.15v1.07h-1.74l-.03,3.62c0,.74.19,1.1.96,1.1.38,0,.6-.05.8-.12v1.03c-.2.08-.51.15-1,.15-1.27,0-1.93-.56-1.92-1.94l.03-3.83h-1.26v-1.07h1.26v-1.69h1.18v1.69s1.71,0,1.71,0Z" style="fill: #1a1a1a; stroke-width: 0px;"/>
      <path d="M524.61,134.78l1.12-2.97-2.53-6.66h1.23l1.78,4.85.13.51.13-.51,1.78-4.85h1.25l-3.68,9.63h-1.22Z" style="fill: #1a1a1a; stroke-width: 0px;"/>
      <path d="M539.2,127.25h-1.15c-.27-.75-.96-1.18-1.83-1.18-1.21,0-2.1,1.03-2.1,2.47s.9,2.44,2.13,2.44c.86,0,1.57-.46,1.81-1.18h1.17c-.36,1.47-1.54,2.25-3.01,2.25-1.9,0-3.28-1.47-3.28-3.51s1.38-3.54,3.28-3.54c1.49,0,2.68.78,3,2.25Z" style="fill: #1a1a1a; stroke-width: 0px;"/>
      <path d="M547,128.52c0,2.05-1.41,3.52-3.42,3.52s-3.43-1.47-3.43-3.52,1.41-3.52,3.43-3.52,3.42,1.47,3.42,3.52ZM541.35,128.52c0,1.39.9,2.45,2.25,2.45s2.21-1.06,2.21-2.45-.87-2.45-2.21-2.45-2.25,1.04-2.25,2.45Z" style="fill: #1a1a1a; stroke-width: 0px;"/>
      <path d="M553.7,127.53v4.37h-1.17v-4.18c0-1.04-.5-1.59-1.31-1.59-.88,0-1.57.78-1.57,2.16v3.62h-1.15v-6.75h1.03l.07.92c.31-.59.95-1.07,1.9-1.07,1.45,0,2.2,1.04,2.2,2.53Z" style="fill: #1a1a1a; stroke-width: 0px;"/>
      <path d="M558.86,125.15v1.07h-1.74l-.03,3.62c0,.74.19,1.1.96,1.1.38,0,.6-.05.8-.12v1.03c-.2.08-.51.15-1,.15-1.27,0-1.93-.56-1.92-1.94l.03-3.83h-1.26v-1.07h1.26v-1.69h1.18v1.69s1.71,0,1.71,0Z" style="fill: #1a1a1a; stroke-width: 0px;"/>
      <path d="M562.12,126.73c-.36.33-.6.86-.62,1.59v3.58h-1.15v-6.75h1.03l.08,1.18c.23-.62.86-1.25,2.02-1.25v1.15c-.54,0-.99.15-1.37.5Z" style="fill: #1a1a1a; stroke-width: 0px;"/>
      <path d="M566.22,123.07c0,.43-.36.78-.8.78s-.79-.35-.79-.78.35-.79.79-.79.8.35.8.79ZM564.84,131.9v-6.75h1.15v6.75h-1.15Z" style="fill: #1a1a1a; stroke-width: 0px;"/>
      <path d="M571.44,125c1.9,0,3.16,1.53,3.16,3.52s-1.25,3.52-3.15,3.52c-1.22,0-1.9-.54-2.32-1.14l-.07.99h-1.03v-9.78h1.15v3.95c.38-.58,1.12-1.07,2.25-1.07ZM569.18,128.52v.07c0,1.46,1,2.37,2.1,2.37,1.29,0,2.13-1,2.13-2.44s-.88-2.42-2.14-2.42c-1.07,0-2.09.92-2.09,2.42Z" style="fill: #1a1a1a; stroke-width: 0px;"/>
      <path d="M580.07,131.9l-.07-.92c-.31.64-.92,1.07-1.86,1.07-1.46,0-2.17-1.03-2.17-2.53v-4.37h1.15v4.18c0,1.06.47,1.61,1.29,1.61.87,0,1.54-.74,1.54-2.04v-3.75h1.15v6.75h-1.03Z" style="fill: #1a1a1a; stroke-width: 0px;"/>
      <path d="M586.37,125.15v1.07h-1.74l-.03,3.62c0,.74.19,1.1.96,1.1.38,0,.6-.05.8-.12v1.03c-.2.08-.51.15-1,.15-1.27,0-1.93-.56-1.92-1.94l.03-3.83h-1.26v-1.07h1.26v-1.69h1.18v1.69s1.71,0,1.71,0Z" style="fill: #1a1a1a; stroke-width: 0px;"/>
      <path d="M593.55,128.98h-5.12c.08,1.25.92,2,2.08,2,.9,0,1.55-.39,1.82-1.1h1.15c-.4,1.34-1.45,2.17-3,2.17-1.9,0-3.26-1.38-3.26-3.51s1.29-3.54,3.26-3.54c1.77,0,3.07,1.15,3.07,3.43v.55ZM592.39,127.95c-.01-1.15-.78-1.88-1.9-1.88s-1.92.79-2.05,1.88h3.95Z" style="fill: #1a1a1a; stroke-width: 0px;"/>
      <path d="M600.11,131.9l-.07-.99c-.42.6-1.1,1.14-2.32,1.14-1.9,0-3.15-1.53-3.15-3.52s1.26-3.52,3.16-3.52c1.13,0,1.88.5,2.25,1.07v-3.95h1.15v9.78h-1.03ZM595.77,128.52c0,1.43.84,2.44,2.13,2.44,1.1,0,2.1-.91,2.1-2.37v-.07c0-1.5-1.02-2.42-2.09-2.42-1.26,0-2.14,1-2.14,2.42Z" style="fill: #1a1a1a; stroke-width: 0px;"/>
      <path d="M609.14,125.15v1.07h-1.74l-.03,3.62c0,.74.19,1.1.96,1.1.38,0,.6-.05.8-.12v1.03c-.2.08-.51.15-1,.15-1.27,0-1.93-.56-1.92-1.94l.03-3.83h-1.26v-1.07h1.26v-1.69h1.18v1.69s1.71,0,1.71,0Z" style="fill: #1a1a1a; stroke-width: 0px;"/>
      <path d="M616.84,128.52c0,2.05-1.41,3.52-3.42,3.52s-3.43-1.47-3.43-3.52,1.41-3.52,3.43-3.52,3.42,1.47,3.42,3.52ZM611.19,128.52c0,1.39.9,2.45,2.25,2.45s2.21-1.06,2.21-2.45-.87-2.45-2.21-2.45-2.25,1.04-2.25,2.45Z" style="fill: #1a1a1a; stroke-width: 0px;"/>
      <path d="M624.05,125c1.45,0,2.2,1.04,2.2,2.53v4.37h-1.17v-4.18c0-1.04-.5-1.59-1.31-1.59-.88,0-1.57.78-1.57,2.16v3.62h-1.15v-9.78h1.15v3.87c.25-.52.87-.99,1.85-.99Z" style="fill: #1a1a1a; stroke-width: 0px;"/>
      <path d="M629.57,123.07c0,.43-.36.78-.8.78s-.79-.35-.79-.78.35-.79.79-.79.8.35.8.79ZM628.19,131.9v-6.75h1.15v6.75h-1.15Z" style="fill: #1a1a1a; stroke-width: 0px;"/>
      <path d="M637.16,126.17h-1.17c.2.36.32.79.32,1.26,0,1.34-1,2.4-2.57,2.4-.56,0-1.06-.13-1.45-.36-.16.15-.28.38-.28.67,0,.44.35.68.86.68h1.79c1.43,0,2.13.71,2.13,1.83,0,1.43-1.08,2.28-2.81,2.28-1.92,0-2.95-.78-2.95-2.1,0-.64.35-1,.74-1.22-.46-.23-.9-.72-.9-1.41,0-.62.31-1.09.7-1.38-.28-.39-.43-.87-.43-1.39,0-1.39,1.02-2.42,2.6-2.42.35,0,.67.05.96.15h2.45v1.02ZM632.17,132.78c0,.74.67,1.13,1.81,1.13,1.04,0,1.67-.4,1.67-1.21,0-.63-.47-.87-1.22-.87h-1.29c-.51.03-.98.29-.98.95ZM635.17,127.43c0-.8-.55-1.41-1.45-1.41s-1.45.6-1.45,1.41.56,1.38,1.45,1.38,1.45-.6,1.45-1.38Z" style="fill: #1a1a1a; stroke-width: 0px;"/>
      <path d="M641.08,125c1.45,0,2.2,1.04,2.2,2.53v4.37h-1.17v-4.18c0-1.04-.5-1.59-1.31-1.59-.88,0-1.57.78-1.57,2.16v3.62h-1.15v-9.78h1.15v3.87c.25-.52.87-.99,1.85-.99Z" style="fill: #1a1a1a; stroke-width: 0px;"/>
      <path d="M653.12,127.53v4.37h-1.17v-4.18c0-1.04-.5-1.59-1.31-1.59-.88,0-1.57.78-1.57,2.16v3.62h-1.15v-6.75h1.03l.07.92c.31-.59.95-1.07,1.9-1.07,1.45,0,2.2,1.04,2.2,2.53Z" style="fill: #1a1a1a; stroke-width: 0px;"/>
      <path d="M659.03,131.9l-.07-.92c-.31.64-.92,1.07-1.86,1.07-1.46,0-2.17-1.03-2.17-2.53v-4.37h1.15v4.18c0,1.06.47,1.61,1.29,1.61.87,0,1.54-.74,1.54-2.04v-3.75h1.15v6.75h-1.03Z" style="fill: #1a1a1a; stroke-width: 0px;"/>
      <path d="M671.23,127.53v4.37h-1.15v-4.18c0-1.04-.48-1.59-1.3-1.59-.88,0-1.55.78-1.55,2.16v3.62h-1.15v-4.18c0-1.04-.48-1.59-1.3-1.59-.88,0-1.55.78-1.55,2.16v3.62h-1.15v-6.75h1.03l.07.92c.31-.59.95-1.07,1.88-1.07,1,0,1.66.5,1.97,1.29.35-.67.99-1.29,2.04-1.29,1.46,0,2.18,1.04,2.18,2.53Z" style="fill: #1a1a1a; stroke-width: 0px;"/>
      <path d="M676.54,125c1.9,0,3.16,1.53,3.16,3.52s-1.25,3.52-3.15,3.52c-1.22,0-1.9-.54-2.32-1.14l-.07.99h-1.03v-9.78h1.15v3.95c.38-.58,1.13-1.07,2.25-1.07ZM674.27,128.52v.07c0,1.46,1,2.37,2.1,2.37,1.29,0,2.13-1,2.13-2.44s-.88-2.42-2.14-2.42c-1.07,0-2.09.92-2.09,2.42Z" style="fill: #1a1a1a; stroke-width: 0px;"/>
      <path d="M687.07,128.98h-5.12c.08,1.25.92,2,2.08,2,.9,0,1.55-.39,1.82-1.1h1.15c-.4,1.34-1.45,2.17-3,2.17-1.9,0-3.25-1.38-3.25-3.51s1.29-3.54,3.25-3.54c1.77,0,3.07,1.15,3.07,3.43v.55ZM685.9,127.95c-.01-1.15-.78-1.88-1.9-1.88s-1.92.79-2.05,1.88h3.95Z" style="fill: #1a1a1a; stroke-width: 0px;"/>
      <path d="M690.41,126.73c-.36.33-.6.86-.62,1.59v3.58h-1.15v-6.75h1.03l.08,1.18c.23-.62.86-1.25,2.02-1.25v1.15c-.54,0-.99.15-1.37.5Z" style="fill: #1a1a1a; stroke-width: 0px;"/>
    </g>
    <g style="isolation: isolate;">
      <path d="M439.2,144.62c0,2.05-1.41,3.52-3.42,3.52s-3.43-1.47-3.43-3.52,1.41-3.52,3.43-3.52,3.42,1.47,3.42,3.52ZM433.55,144.62c0,1.39.9,2.45,2.25,2.45s2.21-1.06,2.21-2.45-.87-2.45-2.21-2.45-2.25,1.04-2.25,2.45Z" style="fill: #1a1a1a; stroke-width: 0px;"/>
      <path d="M444,138.26v1.05c-.23-.09-.47-.16-.82-.16-.59,0-.95.35-.95,1.1v1h1.67v1.06h-1.67v5.69h-1.17v-5.69h-1.22v-1.06h1.22v-1.03c0-1.34.74-2.12,2.02-2.12.4,0,.72.08.91.16Z" style="fill: #1a1a1a; stroke-width: 0px;"/>
      <path d="M450.83,141.1c1.45,0,2.2,1.04,2.2,2.53v4.37h-1.17v-4.18c0-1.04-.5-1.59-1.31-1.59-.88,0-1.57.78-1.57,2.16v3.62h-1.15v-9.78h1.15v3.87c.25-.52.87-.99,1.85-.99Z" style="fill: #1a1a1a; stroke-width: 0px;"/>
      <path d="M461.23,144.62c0,2.05-1.41,3.52-3.42,3.52s-3.43-1.47-3.43-3.52,1.41-3.52,3.43-3.52,3.42,1.47,3.42,3.52ZM455.58,144.62c0,1.39.9,2.45,2.25,2.45s2.21-1.06,2.21-2.45-.87-2.45-2.21-2.45-2.25,1.04-2.25,2.45Z" style="fill: #1a1a1a; stroke-width: 0px;"/>
      <path d="M466.85,143.23h-1.18c-.01-.71-.35-1.06-1.07-1.06s-1.03.42-1.03.91c0,.52.27.74,1.27.98,1.61.38,2.21.94,2.21,2.02,0,1.31-1.02,2.06-2.37,2.06-1.57,0-2.44-.88-2.46-2.2h1.18c.01.71.47,1.12,1.31,1.12.78,0,1.17-.39,1.17-.91,0-.56-.29-.83-1.41-1.09-1.41-.32-2.08-.82-2.08-1.93s.78-2.05,2.24-2.05c1.31,0,2.2.86,2.22,2.13Z" style="fill: #1a1a1a; stroke-width: 0px;"/>
      <path d="M475.25,144.62c0,2-1.26,3.52-3.16,3.52-1.13,0-1.88-.5-2.24-1.07v3.81h-1.17v-9.63h1.04l.05.99c.42-.6,1.1-1.14,2.32-1.14,1.9,0,3.15,1.53,3.15,3.52ZM469.82,144.56v.07c0,1.5,1.02,2.42,2.09,2.42,1.26,0,2.14-1,2.14-2.42s-.84-2.44-2.13-2.44c-1.1,0-2.1.91-2.1,2.37Z" style="fill: #1a1a1a; stroke-width: 0px;"/>
      <path d="M478.14,139.17c0,.43-.36.78-.8.78s-.79-.35-.79-.78.35-.79.79-.79.8.35.8.79ZM476.76,148v-6.75h1.15v6.75h-1.15Z" style="fill: #1a1a1a; stroke-width: 0px;"/>
      <path d="M483.22,141.25v1.07h-1.74l-.03,3.62c0,.74.19,1.1.96,1.1.38,0,.6-.05.8-.12v1.03c-.2.08-.51.15-1,.15-1.27,0-1.93-.56-1.92-1.94l.03-3.83h-1.26v-1.07h1.26v-1.69h1.18v1.69s1.71,0,1.71,0Z" style="fill: #1a1a1a; stroke-width: 0px;"/>
      <path d="M489.34,143.53v4.47h-1.04l-.05-.92c-.33.6-1.06,1.07-2.05,1.07-1.18,0-1.97-.72-1.97-1.9s.83-1.75,1.89-1.96l2.06-.39v-.33c0-.96-.44-1.39-1.25-1.39-.74,0-1.38.4-1.38,1.23h-1.14c.04-1.3,1.03-2.3,2.52-2.3s2.41.86,2.41,2.42ZM485.39,146.23c0,.54.38.84,1.03.84.56,0,1.06-.24,1.37-.67.23-.31.39-.78.39-1.25v-.25l-1.85.4c-.51.12-.94.32-.94.92Z" style="fill: #1a1a1a; stroke-width: 0px;"/>
      <path d="M491.22,148v-9.78h1.15v9.78h-1.15Z" style="fill: #1a1a1a; stroke-width: 0px;"/>
      <path d="M495.8,139.17c0,.43-.36.78-.8.78s-.79-.35-.79-.78.35-.79.79-.79.8.35.8.79ZM494.42,148v-6.75h1.15v6.75h-1.15Z" style="fill: #1a1a1a; stroke-width: 0px;"/>
      <path d="M498.62,146.97h3.8v1.03h-5.35v-.88l3.59-4.84h-3.56v-1.03h5.1v.88l-3.59,4.84Z" style="fill: #1a1a1a; stroke-width: 0px;"/>
      <path d="M508.46,143.53v4.47h-1.04l-.05-.92c-.33.6-1.06,1.07-2.05,1.07-1.18,0-1.97-.72-1.97-1.9s.83-1.75,1.89-1.96l2.06-.39v-.33c0-.96-.44-1.39-1.25-1.39-.74,0-1.38.4-1.38,1.23h-1.14c.04-1.3,1.03-2.3,2.52-2.3s2.41.86,2.41,2.42ZM504.51,146.23c0,.54.38.84,1.03.84.56,0,1.06-.24,1.37-.67.23-.31.39-.78.39-1.25v-.25l-1.85.4c-.51.12-.94.32-.94.92Z" style="fill: #1a1a1a; stroke-width: 0px;"/>
      <path d="M513.58,141.25v1.07h-1.74l-.03,3.62c0,.74.19,1.1.96,1.1.38,0,.6-.05.8-.12v1.03c-.2.08-.51.15-1,.15-1.27,0-1.93-.56-1.92-1.94l.03-3.83h-1.26v-1.07h1.26v-1.69h1.18v1.69s1.71,0,1.71,0Z" style="fill: #1a1a1a; stroke-width: 0px;"/>
      <path d="M516.41,139.17c0,.43-.36.78-.8.78s-.79-.35-.79-.78.35-.79.79-.79.8.35.8.79ZM515.03,148v-6.75h1.15v6.75h-1.15Z" style="fill: #1a1a1a; stroke-width: 0px;"/>
      <path d="M524.53,144.62c0,2.05-1.41,3.52-3.42,3.52s-3.43-1.47-3.43-3.52,1.41-3.52,3.43-3.52,3.42,1.47,3.42,3.52ZM518.88,144.62c0,1.39.9,2.45,2.25,2.45s2.21-1.06,2.21-2.45-.87-2.45-2.21-2.45-2.25,1.04-2.25,2.45Z" style="fill: #1a1a1a; stroke-width: 0px;"/>
      <path d="M531.23,143.63v4.37h-1.17v-4.18c0-1.04-.5-1.59-1.31-1.59-.88,0-1.57.78-1.57,2.16v3.62h-1.15v-6.75h1.03l.07.92c.31-.59.95-1.07,1.9-1.07,1.45,0,2.2,1.04,2.2,2.53Z" style="fill: #1a1a1a; stroke-width: 0px;"/>
      <path d="M537.27,143.23h-1.18c-.01-.71-.35-1.06-1.07-1.06s-1.03.42-1.03.91c0,.52.27.74,1.27.98,1.61.38,2.21.94,2.21,2.02,0,1.31-1.02,2.06-2.37,2.06-1.57,0-2.44-.88-2.46-2.2h1.18c.01.71.47,1.12,1.31,1.12.78,0,1.17-.39,1.17-.91,0-.56-.29-.83-1.41-1.09-1.41-.32-2.08-.82-2.08-1.93s.78-2.05,2.24-2.05c1.31,0,2.2.86,2.22,2.13Z" style="fill: #1a1a1a; stroke-width: 0px;"/>
      <path d="M543.17,139.17c0,.43-.36.78-.8.78s-.79-.35-.79-.78.35-.79.79-.79.8.35.8.79ZM541.79,148v-6.75h1.15v6.75h-1.15Z" style="fill: #1a1a1a; stroke-width: 0px;"/>
      <path d="M550.19,143.63v4.37h-1.17v-4.18c0-1.04-.5-1.59-1.31-1.59-.88,0-1.57.78-1.57,2.16v3.62h-1.15v-6.75h1.03l.07.92c.31-.59.95-1.07,1.9-1.07,1.45,0,2.2,1.04,2.2,2.53Z" style="fill: #1a1a1a; stroke-width: 0px;"/>
      <path d="M558.08,141.25v1.07h-1.74l-.03,3.62c0,.74.19,1.1.96,1.1.38,0,.6-.05.8-.12v1.03c-.2.08-.51.15-1,.15-1.27,0-1.93-.56-1.92-1.94l.03-3.83h-1.26v-1.07h1.26v-1.69h1.18v1.69s1.71,0,1.71,0Z" style="fill: #1a1a1a; stroke-width: 0px;"/>
      <path d="M562.49,141.1c1.45,0,2.2,1.04,2.2,2.53v4.37h-1.17v-4.18c0-1.04-.5-1.59-1.31-1.59-.88,0-1.57.78-1.57,2.16v3.62h-1.15v-9.78h1.15v3.87c.25-.52.87-.99,1.85-.99Z" style="fill: #1a1a1a; stroke-width: 0px;"/>
      <path d="M572.37,145.08h-5.12c.08,1.25.92,2,2.08,2,.9,0,1.55-.39,1.82-1.1h1.15c-.4,1.34-1.45,2.17-3,2.17-1.9,0-3.25-1.38-3.25-3.51s1.29-3.54,3.25-3.54c1.77,0,3.07,1.15,3.07,3.43v.55ZM571.2,144.05c-.01-1.15-.78-1.88-1.9-1.88s-1.92.79-2.05,1.88h3.95Z" style="fill: #1a1a1a; stroke-width: 0px;"/>
      <path d="M581.49,141.05c0,1.08-.48,1.9-1.14,2.75l-2.4,3.07h3.68v1.14h-5.36v-.9l3.01-3.8c.67-.84.96-1.39.96-2.21,0-.96-.46-1.5-1.39-1.5-.84,0-1.46.54-1.46,1.74h-1.22c0-1.77,1.04-2.88,2.69-2.88s2.61,1.03,2.61,2.6Z" style="fill: #1a1a1a; stroke-width: 0px;"/>
      <path d="M588.96,143.3c0,2.96-1.12,4.88-3.15,4.88s-3.15-1.92-3.15-4.88,1.11-4.85,3.15-4.85,3.15,1.9,3.15,4.85ZM583.89,143.3c0,2.29.64,3.74,1.92,3.74s1.9-1.45,1.9-3.74-.64-3.71-1.9-3.71-1.92,1.43-1.92,3.71Z" style="fill: #1a1a1a; stroke-width: 0px;"/>
      <path d="M595.43,141.05c0,1.08-.48,1.9-1.14,2.75l-2.4,3.07h3.68v1.14h-5.36v-.9l3.01-3.8c.67-.84.96-1.39.96-2.21,0-.96-.46-1.5-1.39-1.5-.84,0-1.46.54-1.46,1.74h-1.22c0-1.77,1.04-2.88,2.69-2.88s2.61,1.03,2.61,2.6Z" style="fill: #1a1a1a; stroke-width: 0px;"/>
      <path d="M601.93,141.05c0,1.08-.48,1.9-1.14,2.75l-2.4,3.07h3.68v1.14h-5.36v-.9l3.01-3.8c.67-.84.96-1.39.96-2.21,0-.96-.46-1.5-1.39-1.5-.84,0-1.46.54-1.46,1.74h-1.22c0-1.77,1.04-2.88,2.69-2.88s2.61,1.03,2.61,2.6Z" style="fill: #1a1a1a; stroke-width: 0px;"/>
      <path d="M602.76,145.04v-1.03h4.22v1.03h-4.22Z" style="fill: #1a1a1a; stroke-width: 0px;"/>
      <path d="M613.04,141.05c0,1.08-.48,1.9-1.14,2.75l-2.4,3.07h3.68v1.14h-5.36v-.9l3.01-3.8c.67-.84.96-1.39.96-2.21,0-.96-.46-1.5-1.39-1.5-.84,0-1.46.54-1.46,1.74h-1.22c0-1.77,1.04-2.88,2.69-2.88s2.61,1.03,2.61,2.6Z" style="fill: #1a1a1a; stroke-width: 0px;"/>
      <path d="M620.5,143.3c0,2.96-1.12,4.88-3.15,4.88s-3.15-1.92-3.15-4.88,1.11-4.85,3.15-4.85,3.15,1.9,3.15,4.85ZM615.44,143.3c0,2.29.64,3.74,1.92,3.74s1.9-1.45,1.9-3.74-.64-3.71-1.9-3.71-1.92,1.43-1.92,3.71Z" style="fill: #1a1a1a; stroke-width: 0px;"/>
      <path d="M626.97,141.05c0,1.08-.48,1.9-1.14,2.75l-2.4,3.07h3.68v1.14h-5.36v-.9l3.01-3.8c.67-.84.96-1.39.96-2.21,0-.96-.46-1.5-1.39-1.5-.84,0-1.46.54-1.46,1.74h-1.22c0-1.77,1.04-2.88,2.69-2.88s2.61,1.03,2.61,2.6Z" style="fill: #1a1a1a; stroke-width: 0px;"/>
      <path d="M633.69,141.09c0,1.19-.68,1.84-1.31,2.05.82.21,1.63.98,1.63,2.32,0,1.61-1.17,2.72-2.91,2.72s-2.96-1.04-2.96-2.87h1.21c.01,1.22.78,1.73,1.78,1.73s1.65-.63,1.65-1.62c0-1.12-.8-1.73-2.21-1.73h-.31v-1.07h.29c1.31,0,1.9-.46,1.9-1.5,0-.92-.48-1.53-1.41-1.53-.82,0-1.49.51-1.49,1.69h-1.22c0-1.74,1.06-2.83,2.69-2.83s2.65,1.17,2.65,2.64Z" style="fill: #1a1a1a; stroke-width: 0px;"/>
      <path d="M642.54,143.23h-1.18c-.01-.71-.35-1.06-1.07-1.06s-1.03.42-1.03.91c0,.52.27.74,1.27.98,1.61.38,2.21.94,2.21,2.02,0,1.31-1.02,2.06-2.37,2.06-1.57,0-2.44-.88-2.46-2.2h1.18c.01.71.47,1.12,1.31,1.12.78,0,1.17-.39,1.17-.91,0-.56-.29-.83-1.41-1.09-1.41-.32-2.08-.82-2.08-1.93s.78-2.05,2.24-2.05c1.31,0,2.2.86,2.22,2.13Z" style="fill: #1a1a1a; stroke-width: 0px;"/>
      <path d="M650.06,145.08h-5.12c.08,1.25.92,2,2.08,2,.9,0,1.55-.39,1.82-1.1h1.15c-.4,1.34-1.45,2.17-3,2.17-1.9,0-3.26-1.38-3.26-3.51s1.29-3.54,3.26-3.54c1.77,0,3.07,1.15,3.07,3.43v.55ZM648.89,144.05c-.01-1.15-.78-1.88-1.9-1.88s-1.92.79-2.05,1.88h3.95Z" style="fill: #1a1a1a; stroke-width: 0px;"/>
      <path d="M656.26,143.53v4.47h-1.04l-.05-.92c-.33.6-1.06,1.07-2.05,1.07-1.18,0-1.97-.72-1.97-1.9s.83-1.75,1.89-1.96l2.06-.39v-.33c0-.96-.44-1.39-1.25-1.39-.74,0-1.38.4-1.38,1.23h-1.14c.04-1.3,1.03-2.3,2.52-2.3s2.41.86,2.41,2.42ZM652.31,146.23c0,.54.38.84,1.03.84.56,0,1.06-.24,1.37-.67.23-.31.39-.78.39-1.25v-.25l-1.85.4c-.51.12-.94.32-.94.92Z" style="fill: #1a1a1a; stroke-width: 0px;"/>
      <path d="M662.28,143.23h-1.18c-.01-.71-.35-1.06-1.07-1.06s-1.03.42-1.03.91c0,.52.27.74,1.27.98,1.61.38,2.21.94,2.21,2.02,0,1.31-1.02,2.06-2.37,2.06-1.57,0-2.44-.88-2.46-2.2h1.18c.01.71.47,1.12,1.31,1.12.78,0,1.17-.39,1.17-.91,0-.56-.29-.83-1.41-1.09-1.41-.32-2.08-.82-2.08-1.93s.78-2.05,2.24-2.05c1.31,0,2.2.86,2.22,2.13Z" style="fill: #1a1a1a; stroke-width: 0px;"/>
      <path d="M670.32,144.62c0,2.05-1.41,3.52-3.42,3.52s-3.43-1.47-3.43-3.52,1.41-3.52,3.43-3.52,3.42,1.47,3.42,3.52ZM664.67,144.62c0,1.39.9,2.45,2.25,2.45s2.21-1.06,2.21-2.45-.87-2.45-2.21-2.45-2.25,1.04-2.25,2.45Z" style="fill: #1a1a1a; stroke-width: 0px;"/>
      <path d="M677.02,143.63v4.37h-1.17v-4.18c0-1.04-.5-1.59-1.31-1.59-.88,0-1.57.78-1.57,2.16v3.62h-1.15v-6.75h1.03l.07.92c.31-.59.95-1.07,1.9-1.07,1.45,0,2.2,1.04,2.2,2.53Z" style="fill: #1a1a1a; stroke-width: 0px;"/>
      <path d="M680.04,147.4c0,.83-.43,1.74-.98,2.36l-.38-.15c.27-.47.4-.96.47-1.51-.42-.04-.72-.33-.72-.78s.35-.79.8-.79.8.33.8.87Z" style="fill: #1a1a1a; stroke-width: 0px;"/>
    </g>
    <g style="isolation: isolate;">
      <path d="M439.56,160.62c0,2-1.26,3.52-3.16,3.52-1.13,0-1.88-.5-2.24-1.07v3.81h-1.17v-9.63h1.04l.05.99c.42-.6,1.1-1.14,2.32-1.14,1.9,0,3.15,1.53,3.15,3.52ZM434.14,160.56v.07c0,1.5,1.02,2.42,2.09,2.42,1.26,0,2.14-1,2.14-2.42s-.84-2.44-2.13-2.44c-1.1,0-2.1.91-2.1,2.37Z" style="fill: #1a1a1a; stroke-width: 0px;"/>
      <path d="M445.75,159.53v4.47h-1.04l-.05-.92c-.33.6-1.06,1.07-2.05,1.07-1.18,0-1.97-.72-1.97-1.9s.83-1.75,1.89-1.96l2.06-.39v-.33c0-.96-.44-1.39-1.25-1.39-.74,0-1.38.4-1.38,1.23h-1.14c.04-1.3,1.03-2.3,2.52-2.3s2.41.86,2.41,2.42ZM441.8,162.23c0,.54.38.84,1.03.84.56,0,1.06-.24,1.37-.67.23-.31.39-.78.39-1.25v-.25l-1.85.4c-.51.12-.94.32-.94.92Z" style="fill: #1a1a1a; stroke-width: 0px;"/>
      <path d="M449.48,158.83c-.36.33-.6.86-.62,1.59v3.58h-1.15v-6.75h1.03l.08,1.18c.23-.62.86-1.25,2.02-1.25v1.15c-.54,0-.99.15-1.37.5Z" style="fill: #1a1a1a; stroke-width: 0px;"/>
      <path d="M455.5,157.25v1.07h-1.74l-.03,3.62c0,.74.19,1.1.96,1.1.38,0,.6-.05.8-.12v1.03c-.2.08-.51.15-1,.15-1.27,0-1.93-.56-1.92-1.94l.03-3.83h-1.26v-1.07h1.26v-1.69h1.18v1.69s1.71,0,1.71,0Z" style="fill: #1a1a1a; stroke-width: 0px;"/>
      <path d="M458.32,155.17c0,.43-.36.78-.8.78s-.79-.35-.79-.78.35-.79.79-.79.8.35.8.79ZM456.94,164v-6.75h1.15v6.75h-1.15Z" style="fill: #1a1a1a; stroke-width: 0px;"/>
      <path d="M465.88,159.35h-1.15c-.27-.75-.96-1.18-1.83-1.18-1.21,0-2.1,1.03-2.1,2.47s.9,2.44,2.13,2.44c.86,0,1.57-.46,1.81-1.18h1.17c-.36,1.47-1.54,2.25-3.01,2.25-1.9,0-3.28-1.47-3.28-3.51s1.38-3.54,3.28-3.54c1.49,0,2.68.78,3,2.25Z" style="fill: #1a1a1a; stroke-width: 0px;"/>
      <path d="M471.36,164l-.07-.92c-.31.64-.92,1.07-1.86,1.07-1.46,0-2.17-1.03-2.17-2.53v-4.37h1.15v4.18c0,1.06.47,1.61,1.29,1.61.87,0,1.54-.74,1.54-2.04v-3.75h1.15v6.75h-1.03Z" style="fill: #1a1a1a; stroke-width: 0px;"/>
      <path d="M474.4,164v-9.78h1.15v9.78h-1.15Z" style="fill: #1a1a1a; stroke-width: 0px;"/>
      <path d="M482.28,159.53v4.47h-1.04l-.05-.92c-.34.6-1.06,1.07-2.05,1.07-1.18,0-1.97-.72-1.97-1.9s.83-1.75,1.89-1.96l2.06-.39v-.33c0-.96-.44-1.39-1.25-1.39-.74,0-1.38.4-1.38,1.23h-1.14c.04-1.3,1.03-2.3,2.52-2.3s2.41.86,2.41,2.42ZM478.33,162.23c0,.54.38.84,1.03.84.56,0,1.06-.24,1.37-.67.23-.31.39-.78.39-1.25v-.25l-1.85.4c-.51.12-.94.32-.94.92Z" style="fill: #1a1a1a; stroke-width: 0px;"/>
      <path d="M486.01,158.83c-.36.33-.6.86-.62,1.59v3.58h-1.15v-6.75h1.03l.08,1.18c.23-.62.86-1.25,2.02-1.25v1.15c-.54,0-.99.15-1.37.5Z" style="fill: #1a1a1a; stroke-width: 0px;"/>
      <path d="M488.69,164v-9.78h1.15v9.78h-1.15Z" style="fill: #1a1a1a; stroke-width: 0px;"/>
      <path d="M492.45,166.88l1.12-2.97-2.53-6.66h1.23l1.78,4.85.13.51.13-.51,1.78-4.85h1.25l-3.68,9.63h-1.22Z" style="fill: #1a1a1a; stroke-width: 0px;"/>
      <path d="M506.03,159.53v4.47h-1.04l-.05-.92c-.33.6-1.06,1.07-2.05,1.07-1.18,0-1.97-.72-1.97-1.9s.83-1.75,1.89-1.96l2.06-.39v-.33c0-.96-.44-1.39-1.25-1.39-.74,0-1.38.4-1.38,1.23h-1.14c.04-1.3,1.03-2.3,2.52-2.3s2.41.86,2.41,2.42ZM502.07,162.23c0,.54.38.84,1.03.84.56,0,1.06-.24,1.37-.67.23-.31.39-.78.39-1.25v-.25l-1.85.4c-.51.12-.94.32-.94.92Z" style="fill: #1a1a1a; stroke-width: 0px;"/>
      <path d="M517.07,159.63v4.37h-1.15v-4.18c0-1.04-.48-1.59-1.3-1.59-.88,0-1.55.78-1.55,2.16v3.62h-1.15v-4.18c0-1.04-.48-1.59-1.3-1.59-.88,0-1.55.78-1.55,2.16v3.62h-1.15v-6.75h1.03l.07.92c.31-.59.95-1.07,1.88-1.07,1,0,1.66.5,1.97,1.29.35-.67.99-1.29,2.04-1.29,1.46,0,2.18,1.04,2.18,2.53Z" style="fill: #1a1a1a; stroke-width: 0px;"/>
      <path d="M525.27,160.62c0,2.05-1.41,3.52-3.42,3.52s-3.43-1.47-3.43-3.52,1.41-3.52,3.43-3.52,3.42,1.47,3.42,3.52ZM519.61,160.62c0,1.39.9,2.45,2.25,2.45s2.21-1.06,2.21-2.45-.87-2.45-2.21-2.45-2.25,1.04-2.25,2.45Z" style="fill: #1a1a1a; stroke-width: 0px;"/>
      <path d="M531.97,159.63v4.37h-1.17v-4.18c0-1.04-.5-1.59-1.31-1.59-.88,0-1.57.78-1.57,2.16v3.62h-1.15v-6.75h1.03l.07.92c.31-.59.95-1.07,1.9-1.07,1.45,0,2.2,1.04,2.2,2.53Z" style="fill: #1a1a1a; stroke-width: 0px;"/>
      <path d="M539.63,158.27h-1.17c.2.36.32.79.32,1.26,0,1.34-1,2.4-2.57,2.4-.56,0-1.06-.13-1.45-.36-.16.15-.28.38-.28.67,0,.44.35.68.86.68h1.8c1.43,0,2.13.71,2.13,1.83,0,1.43-1.08,2.28-2.81,2.28-1.92,0-2.95-.78-2.95-2.1,0-.64.35-1,.74-1.22-.46-.23-.9-.72-.9-1.41,0-.62.31-1.09.7-1.38-.28-.39-.43-.87-.43-1.39,0-1.39,1.02-2.42,2.6-2.42.35,0,.67.05.96.15h2.45v1.02ZM534.65,164.88c0,.74.67,1.13,1.81,1.13,1.04,0,1.67-.4,1.67-1.21,0-.63-.47-.87-1.22-.87h-1.29c-.51.03-.98.29-.98.95ZM537.65,159.53c0-.8-.55-1.41-1.45-1.41s-1.45.6-1.45,1.41.56,1.38,1.45,1.38,1.45-.6,1.45-1.38Z" style="fill: #1a1a1a; stroke-width: 0px;"/>
      <path d="M549.03,159.35h-1.15c-.27-.75-.96-1.18-1.83-1.18-1.21,0-2.1,1.03-2.1,2.47s.9,2.44,2.13,2.44c.86,0,1.57-.46,1.81-1.18h1.17c-.36,1.47-1.54,2.25-3.01,2.25-1.9,0-3.28-1.47-3.28-3.51s1.38-3.54,3.28-3.54c1.49,0,2.68.78,3,2.25Z" style="fill: #1a1a1a; stroke-width: 0px;"/>
      <path d="M553.5,157.1c1.45,0,2.2,1.04,2.2,2.53v4.37h-1.17v-4.18c0-1.04-.5-1.59-1.31-1.59-.88,0-1.57.78-1.57,2.16v3.62h-1.15v-9.78h1.15v3.87c.25-.52.87-.99,1.85-.99Z" style="fill: #1a1a1a; stroke-width: 0px;"/>
      <path d="M559.02,155.17c0,.43-.36.78-.8.78s-.79-.35-.79-.78.35-.79.79-.79.8.35.8.79ZM557.64,164v-6.75h1.15v6.75h-1.15Z" style="fill: #1a1a1a; stroke-width: 0px;"/>
      <path d="M560.85,164v-9.78h1.15v9.78h-1.15Z" style="fill: #1a1a1a; stroke-width: 0px;"/>
      <path d="M568.99,164l-.07-.99c-.42.6-1.1,1.14-2.32,1.14-1.9,0-3.15-1.53-3.15-3.52s1.26-3.52,3.16-3.52c1.13,0,1.88.5,2.25,1.07v-3.95h1.15v9.78h-1.03ZM564.65,160.62c0,1.43.84,2.44,2.13,2.44,1.1,0,2.1-.91,2.1-2.37v-.07c0-1.5-1.02-2.42-2.09-2.42-1.26,0-2.14,1-2.14,2.42Z" style="fill: #1a1a1a; stroke-width: 0px;"/>
      <path d="M573.88,158.83c-.36.33-.6.86-.62,1.59v3.58h-1.15v-6.75h1.03l.08,1.18c.23-.62.86-1.25,2.02-1.25v1.15c-.54,0-.99.15-1.37.5Z" style="fill: #1a1a1a; stroke-width: 0px;"/>
      <path d="M582.2,161.08h-5.12c.08,1.25.92,2,2.08,2,.9,0,1.55-.39,1.82-1.1h1.15c-.4,1.34-1.45,2.17-3,2.17-1.9,0-3.25-1.38-3.25-3.51s1.29-3.54,3.25-3.54c1.77,0,3.07,1.15,3.07,3.43v.55ZM581.04,160.05c-.01-1.15-.78-1.88-1.9-1.88s-1.92.79-2.05,1.88h3.95Z" style="fill: #1a1a1a; stroke-width: 0px;"/>
      <path d="M588.89,159.63v4.37h-1.17v-4.18c0-1.04-.5-1.59-1.31-1.59-.88,0-1.57.78-1.57,2.16v3.62h-1.15v-6.75h1.03l.07.92c.31-.59.95-1.07,1.9-1.07,1.45,0,2.2,1.04,2.2,2.53Z" style="fill: #1a1a1a; stroke-width: 0px;"/>
      <path d="M598.24,159.53v4.47h-1.04l-.05-.92c-.33.6-1.06,1.07-2.05,1.07-1.18,0-1.97-.72-1.97-1.9s.83-1.75,1.89-1.96l2.06-.39v-.33c0-.96-.44-1.39-1.25-1.39-.74,0-1.38.4-1.38,1.23h-1.14c.04-1.3,1.03-2.3,2.52-2.3s2.41.86,2.41,2.42ZM594.29,162.23c0,.54.38.84,1.03.84.56,0,1.06-.24,1.37-.67.23-.31.39-.78.39-1.25v-.25l-1.85.4c-.51.12-.94.32-.94.92Z" style="fill: #1a1a1a; stroke-width: 0px;"/>
      <path d="M605.32,159.63v4.37h-1.17v-4.18c0-1.04-.5-1.59-1.31-1.59-.88,0-1.57.78-1.57,2.16v3.62h-1.15v-6.75h1.03l.07.92c.31-.59.95-1.07,1.9-1.07,1.45,0,2.2,1.04,2.2,2.53Z" style="fill: #1a1a1a; stroke-width: 0px;"/>
      <path d="M612.21,164l-.07-.99c-.42.6-1.1,1.14-2.32,1.14-1.9,0-3.15-1.53-3.15-3.52s1.26-3.52,3.16-3.52c1.13,0,1.88.5,2.25,1.07v-3.95h1.15v9.78h-1.03ZM607.87,160.62c0,1.43.84,2.44,2.13,2.44,1.1,0,2.1-.91,2.1-2.37v-.07c0-1.5-1.02-2.42-2.09-2.42-1.26,0-2.14,1-2.14,2.42Z" style="fill: #1a1a1a; stroke-width: 0px;"/>
      <path d="M622.7,159.53v4.47h-1.04l-.05-.92c-.33.6-1.06,1.07-2.05,1.07-1.18,0-1.97-.72-1.97-1.9s.83-1.75,1.89-1.96l2.06-.39v-.33c0-.96-.44-1.39-1.25-1.39-.74,0-1.38.4-1.38,1.23h-1.14c.04-1.3,1.03-2.3,2.52-2.3s2.41.86,2.41,2.42ZM618.75,162.23c0,.54.38.84,1.03.84.56,0,1.06-.24,1.37-.67.23-.31.39-.78.39-1.25v-.25l-1.85.4c-.51.12-.94.32-.94.92Z" style="fill: #1a1a1a; stroke-width: 0px;"/>
      <path d="M629.56,164l-.07-.99c-.42.6-1.1,1.14-2.32,1.14-1.9,0-3.15-1.53-3.15-3.52s1.26-3.52,3.16-3.52c1.13,0,1.88.5,2.25,1.07v-3.95h1.15v9.78h-1.03ZM625.22,160.62c0,1.43.84,2.44,2.13,2.44,1.1,0,2.1-.91,2.1-2.37v-.07c0-1.5-1.02-2.42-2.09-2.42-1.26,0-2.14,1-2.14,2.42Z" style="fill: #1a1a1a; stroke-width: 0px;"/>
      <path d="M638.9,160.62c0,2.05-1.41,3.52-3.42,3.52s-3.43-1.47-3.43-3.52,1.41-3.52,3.43-3.52,3.42,1.47,3.42,3.52ZM633.25,160.62c0,1.39.9,2.45,2.25,2.45s2.21-1.06,2.21-2.45-.87-2.45-2.21-2.45-2.25,1.04-2.25,2.45Z" style="fill: #1a1a1a; stroke-width: 0px;"/>
      <path d="M640.37,164v-9.78h1.15v9.78h-1.15Z" style="fill: #1a1a1a; stroke-width: 0px;"/>
      <path d="M649.31,161.08h-5.12c.08,1.25.92,2,2.08,2,.9,0,1.55-.39,1.82-1.1h1.15c-.4,1.34-1.45,2.17-3,2.17-1.9,0-3.25-1.38-3.25-3.51s1.29-3.54,3.25-3.54c1.77,0,3.07,1.15,3.07,3.43v.55ZM648.14,160.05c-.01-1.15-.78-1.88-1.9-1.88s-1.92.79-2.05,1.88h3.95Z" style="fill: #1a1a1a; stroke-width: 0px;"/>
      <path d="M654.94,159.23h-1.18c-.01-.71-.35-1.06-1.07-1.06s-1.03.42-1.03.91c0,.52.27.74,1.27.98,1.61.38,2.21.94,2.21,2.02,0,1.31-1.02,2.06-2.37,2.06-1.57,0-2.44-.88-2.46-2.2h1.18c.01.71.47,1.12,1.31,1.12.78,0,1.17-.39,1.17-.91,0-.56-.29-.83-1.41-1.09-1.41-.32-2.08-.82-2.08-1.93s.78-2.05,2.24-2.05c1.31,0,2.2.86,2.22,2.13Z" style="fill: #1a1a1a; stroke-width: 0px;"/>
      <path d="M662.42,159.35h-1.15c-.27-.75-.96-1.18-1.83-1.18-1.21,0-2.1,1.03-2.1,2.47s.9,2.44,2.13,2.44c.86,0,1.57-.46,1.81-1.18h1.17c-.36,1.47-1.54,2.25-3.01,2.25-1.9,0-3.28-1.47-3.28-3.51s1.38-3.54,3.28-3.54c1.49,0,2.68.78,3,2.25Z" style="fill: #1a1a1a; stroke-width: 0px;"/>
      <path d="M669.69,161.08h-5.12c.08,1.25.92,2,2.08,2,.9,0,1.55-.39,1.82-1.1h1.15c-.4,1.34-1.45,2.17-3,2.17-1.9,0-3.25-1.38-3.25-3.51s1.29-3.54,3.25-3.54c1.77,0,3.07,1.15,3.07,3.43v.55ZM668.53,160.05c-.01-1.15-.78-1.88-1.9-1.88s-1.92.79-2.05,1.88h3.95Z" style="fill: #1a1a1a; stroke-width: 0px;"/>
      <path d="M676.38,159.63v4.37h-1.17v-4.18c0-1.04-.5-1.59-1.31-1.59-.88,0-1.57.78-1.57,2.16v3.62h-1.15v-6.75h1.03l.07.92c.31-.59.95-1.07,1.9-1.07,1.45,0,2.2,1.04,2.2,2.53Z" style="fill: #1a1a1a; stroke-width: 0px;"/>
      <path d="M681.54,157.25v1.07h-1.74l-.03,3.62c0,.74.19,1.1.96,1.1.38,0,.6-.05.8-.12v1.03c-.2.08-.51.15-1,.15-1.27,0-1.93-.56-1.92-1.94l.03-3.83h-1.26v-1.07h1.26v-1.69h1.18v1.69s1.71,0,1.71,0Z" style="fill: #1a1a1a; stroke-width: 0px;"/>
      <path d="M687.08,159.23h-1.18c-.01-.71-.35-1.06-1.07-1.06s-1.03.42-1.03.91c0,.52.27.74,1.27.98,1.61.38,2.21.94,2.21,2.02,0,1.31-1.02,2.06-2.37,2.06-1.57,0-2.44-.88-2.46-2.2h1.18c.01.71.47,1.12,1.31,1.12.78,0,1.17-.39,1.17-.91,0-.56-.29-.83-1.41-1.09-1.41-.32-2.08-.82-2.08-1.93s.78-2.05,2.24-2.05c1.31,0,2.2.86,2.22,2.13Z" style="fill: #1a1a1a; stroke-width: 0px;"/>
    </g>
  </g>
</svg>