<?xml version="1.0" encoding="UTF-8"?>
<svg id="exportSvg" xmlns="http://www.w3.org/2000/svg" width="800.17" height="628.64" viewBox="0 0 800.17 628.64">
  <rect width="800" height="628.64" style="fill: #fff; stroke-width: 0px;"/>
  <g id="chart-svg">
    <g style="isolation: isolate;">
      <text transform="translate(514.7 44.39)" style="fill: #1a1a1a; font-family: Larsseit-Bold, Larsseit; font-size: 14px; font-weight: 700; isolation: isolate;"><tspan x="0" y="0" style="letter-spacing: 0em;">F</tspan><tspan x="6.83" y="0">emale</tspan></text>
    </g>
    <g style="isolation: isolate;">
      <text transform="translate(464 44.39)" style="fill: #1a1a1a; font-family: Larsseit-Bold, Larsseit; font-size: 14px; font-weight: 700; isolation: isolate;"><tspan x="0" y="0">Male</tspan></text>
    </g>
    <rect x="506.34" y="51.77" width="106.09" height="20" style="fill: #f56647; stroke-width: 0px;"/>
    <rect x="506.34" y="75.77" width="77.23" height="20" style="fill: #f56647; stroke-width: 0px;"/>
    <rect x="506.34" y="99.77" width="73.83" height="20" style="fill: #f56647; stroke-width: 0px;"/>
    <rect x="506.34" y="123.77" width="67.88" height="20" style="fill: #f56647; stroke-width: 0px;"/>
    <rect x="506.34" y="147.77" width="57.48" height="20" style="fill: #f56647; stroke-width: 0px;"/>
    <rect x="506.34" y="171.77" width="36.58" height="20" style="fill: #f56647; stroke-width: 0px;"/>
    <rect x="506.34" y="195.77" width="16.72" height="20" style="fill: #f56647; stroke-width: 0px;"/>
    <rect x="491.69" y="219.77" width="14.67" height="20" style="fill: #c6ddf4; stroke-width: 0px;"/>
    <rect x="474.72" y="243.77" width="31.64" height="20" style="fill: #c6ddf4; stroke-width: 0px;"/>
    <rect x="469.66" y="267.77" width="36.7" height="20" style="fill: #c6ddf4; stroke-width: 0px;"/>
    <rect x="459.3" y="291.77" width="47.06" height="20" style="fill: #c6ddf4; stroke-width: 0px;"/>
    <rect x="455.27" y="315.77" width="51.09" height="20" style="fill: #c6ddf4; stroke-width: 0px;"/>
    <rect x="432.23" y="339.77" width="74.12" height="20" style="fill: #c6ddf4; stroke-width: 0px;"/>
    <rect x="388.98" y="363.77" width="117.38" height="20" style="fill: #c6ddf4; stroke-width: 0px;"/>
    <rect x="388.53" y="387.77" width="117.83" height="20" style="fill: #c6ddf4; stroke-width: 0px;"/>
    <rect x="386.3" y="411.77" width="120.06" height="20" style="fill: #c6ddf4; stroke-width: 0px;"/>
    <rect x="326.88" y="435.77" width="179.48" height="20" style="fill: #c6ddf4; stroke-width: 0px;"/>
    <rect x="281.94" y="459.77" width="224.42" height="20" style="fill: #c6ddf4; stroke-width: 0px;"/>
    <rect x="149.02" y="483.77" width="357.34" height="20" style="fill: #c6ddf4; stroke-width: 0px;"/>
    <rect x="114.44" y="507.77" width="391.92" height="20" style="fill: #c6ddf4; stroke-width: 0px;"/>
    <g id="grid-container-svg">
      <g id="grid-svg">
        <g id="x-base-lines-svg_grid-x-svg_datawrapper-4izvq-1ds6vhq-svg" data-name="x-base-lines-svg grid-x-svg datawrapper-4izvq-1ds6vhq-svg">
          <line x1="506.36" y1="527.77" x2="506.36" y2="51.77" style="fill: none; stroke: #1a1a1a;"/>
        </g>
      </g>
    </g>
    <g style="isolation: isolate;">
      <text transform="translate(618.92 66.77)" style="fill: #000; font-family: Larsseit, Larsseit; font-size: 14px; isolation: isolate;"><tspan x="0" y="0">L</tspan><tspan x="7.04" y="0" style="letter-spacing: -.01em;">o</tspan><tspan x="15.05" y="0">w back pain</tspan></text>
    </g>
    <g style="isolation: isolate;">
      <text transform="translate(588.3 91.92)" style="fill: #1a1a1a; font-family: Larsseit, Larsseit; font-size: 14px; isolation: isolate;"><tspan x="0" y="0">Dep</tspan><tspan x="26.47" y="0" style="letter-spacing: 0em;">r</tspan><tspan x="31.09" y="0">essi</tspan><tspan x="54.6" y="0" style="letter-spacing: 0em;">v</tspan><tspan x="61.49" y="0" style="letter-spacing: 0em;">e diso</tspan><tspan x="98.26" y="0" style="letter-spacing: 0em;">r</tspan><tspan x="102.88" y="0">ders</tspan></text>
    </g>
    <g style="isolation: isolate;">
      <text transform="translate(585.67 117.08)" style="fill: #1a1a1a; font-family: Larsseit, Larsseit; font-size: 14px; isolation: isolate;"><tspan x="0" y="0">Headache diso</tspan><tspan x="91.74" y="0" style="letter-spacing: 0em;">r</tspan><tspan x="96.36" y="0" style="letter-spacing: 0em;">ders</tspan></text>
    </g>
    <g style="isolation: isolate;">
      <text transform="translate(577.85 140.92)" style="fill: #1a1a1a; font-family: Larsseit, Larsseit; font-size: 14px; isolation: isolate;"><tspan x="0" y="0">Anxiety diso</tspan><tspan x="76.44" y="0" style="letter-spacing: 0em;">r</tspan><tspan x="81.06" y="0">ders</tspan></text>
    </g>
    <g style="isolation: isolate;">
      <text transform="translate(568.85 164.77)" style="fill: #1a1a1a; font-family: Larsseit, Larsseit; font-size: 14px; isolation: isolate;"><tspan x="0" y="0">Other musculos</tspan><tspan x="96.77" y="0" style="letter-spacing: -.01em;">k</tspan><tspan x="103.57" y="0" style="letter-spacing: 0em;">eletal diso</tspan><tspan x="166.74" y="0" style="letter-spacing: 0em;">r</tspan><tspan x="171.36" y="0">ders</tspan></text>
    </g>
    <g style="isolation: isolate;">
      <text transform="translate(549.02 188.92)" style="fill: #1a1a1a; font-family: Larsseit, Larsseit; font-size: 14px; isolation: isolate;"><tspan x="0" y="0">Alzheimer&apos;s disease and other dementias</tspan></text>
    </g>
    <g style="isolation: isolate;">
      <text transform="translate(528.06 212.77)" style="fill: #1a1a1a; font-family: Larsseit, Larsseit; font-size: 14px; isolation: isolate;"><tspan x="0" y="0">HIV/AIDS</tspan></text>
    </g>
    <g style="isolation: isolate;">
      <text transform="translate(277.25 236.77)" style="fill: #1a1a1a; font-family: Larsseit, Larsseit; font-size: 14px; isolation: isolate;"><tspan x="0" y="0">A</tspan><tspan x="9.69" y="0" style="letter-spacing: 0em;">g</tspan><tspan x="16.74" y="0">e-</tspan><tspan x="29.6" y="0" style="letter-spacing: 0em;">r</tspan><tspan x="34.22" y="0">elat</tspan><tspan x="57.19" y="0" style="letter-spacing: 0em;">e</tspan><tspan x="65.04" y="0">d and other hearing loss</tspan></text>
    </g>
    <g style="isolation: isolate;">
      <text transform="translate(363.09 260.77)" style="fill: #1a1a1a; font-family: Larsseit, Larsseit; font-size: 14px; isolation: isolate;"><tspan x="0" y="0">Dia</tspan><tspan x="20.54" y="0" style="letter-spacing: .01em;">b</tspan><tspan x="29.12" y="0" style="letter-spacing: 0em;">etes mellitus</tspan></text>
    </g>
    <g style="isolation: isolate;">
      <text transform="translate(322.44 284.77)" style="fill: #1a1a1a; font-family: Larsseit, Larsseit; font-size: 14px; isolation: isolate;"><tspan x="0" y="0">Ch</tspan><tspan x="17.64" y="0" style="letter-spacing: -.01em;">r</tspan><tspan x="22.26" y="0">onic kidn</tspan><tspan x="78.05" y="0" style="letter-spacing: 0em;">e</tspan><tspan x="85.69" y="0" style="letter-spacing: 0em;">y disease</tspan></text>
    </g>
    <g style="isolation: isolate;">
      <text transform="translate(282.38 308.77)" style="fill: #1a1a1a; font-family: Larsseit, Larsseit; font-size: 14px; isolation: isolate;"><tspan x="0" y="0">L</tspan><tspan x="7.04" y="0" style="letter-spacing: -.01em;">ow</tspan><tspan x="25.66" y="0" style="letter-spacing: 0em;">er </tspan><tspan x="41.05" y="0" style="letter-spacing: 0em;">r</tspan><tspan x="45.67" y="0">espi</tspan><tspan x="71.52" y="0" style="letter-spacing: -.01em;">r</tspan><tspan x="76.1" y="0">ato</tspan><tspan x="96.07" y="0" style="letter-spacing: 0em;">r</tspan><tspan x="100.91" y="0">y inf</tspan><tspan x="126.36" y="0" style="letter-spacing: 0em;">e</tspan><tspan x="134.22" y="0" style="letter-spacing: 0em;">ctions</tspan></text>
    </g>
    <g style="isolation: isolate;">
      <text transform="translate(424.92 332.35)" style="fill: #333; font-family: Larsseit, Larsseit; font-size: 14px; isolation: isolate;"><tspan x="0" y="0" style="letter-spacing: -.03em;">F</tspan><tspan x="6.37" y="0" style="letter-spacing: 0em;">alls</tspan></text>
    </g>
    <g style="isolation: isolate;">
      <text transform="translate(349.55 356.77)" style="fill: #1a1a1a; font-family: Larsseit, Larsseit; font-size: 14px; isolation: isolate;"><tspan x="0" y="0" style="letter-spacing: -.11em;">T</tspan><tspan x="7.01" y="0">u</tspan><tspan x="14.41" y="0" style="letter-spacing: .01em;">b</tspan><tspan x="22.99" y="0" style="letter-spacing: 0em;">e</tspan><tspan x="30.73" y="0" style="letter-spacing: 0em;">r</tspan><tspan x="35.35" y="0">culosis</tspan></text>
    </g>
    <g style="isolation: isolate;">
      <text transform="translate(134 380.77)" style="fill: #1a1a1a; font-family: Larsseit, Larsseit; font-size: 14px; isolation: isolate;"><tspan x="0" y="0">Cirrhosis and other ch</tspan><tspan x="133.98" y="0" style="letter-spacing: 0em;">r</tspan><tspan x="138.6" y="0" style="letter-spacing: 0em;">onic li</tspan><tspan x="174.94" y="0" style="letter-spacing: 0em;">v</tspan><tspan x="181.83" y="0">er diseases</tspan></text>
    </g>
    <g style="isolation: isolate;">
      <text transform="translate(143.72 404.77)" style="fill: #1a1a1a; font-family: Larsseit, Larsseit; font-size: 14px; isolation: isolate;"><tspan x="0" y="0">Ch</tspan><tspan x="17.64" y="0" style="letter-spacing: -.01em;">r</tspan><tspan x="22.26" y="0">onic obstructi</tspan><tspan x="107.49" y="0" style="letter-spacing: 0em;">v</tspan><tspan x="114.38" y="0" style="letter-spacing: 0em;">e pulmona</tspan><tspan x="178.44" y="0" style="letter-spacing: 0em;">r</tspan><tspan x="183.29" y="0">y disease</tspan></text>
    </g>
    <g style="isolation: isolate;">
      <text transform="translate(165.06 428.77)" style="fill: #1a1a1a; font-family: Larsseit, Larsseit; font-size: 14px; isolation: isolate;"><tspan x="0" y="0" style="letter-spacing: -.09em;">T</tspan><tspan x="7.2" y="0" style="letter-spacing: -.01em;">r</tspan><tspan x="11.77" y="0" style="letter-spacing: 0em;">acheal, b</tspan><tspan x="65.9" y="0" style="letter-spacing: 0em;">r</tspan><tspan x="70.52" y="0" style="letter-spacing: 0em;">onchu</tspan><tspan x="108.57" y="0" style="letter-spacing: 0em;">s</tspan><tspan x="114.66" y="0">, and lung cancer</tspan></text>
    </g>
    <g style="isolation: isolate;">
      <text transform="translate(282.94 452.77)" style="fill: #333; font-family: Larsseit, Larsseit; font-size: 14px; isolation: isolate;"><tspan x="0" y="0">St</tspan><tspan x="12.29" y="0" style="letter-spacing: 0em;">r</tspan><tspan x="16.91" y="0" style="letter-spacing: 0em;">o</tspan><tspan x="25.06" y="0" style="letter-spacing: -.01em;">k</tspan><tspan x="31.86" y="0">e</tspan></text>
    </g>
    <g style="isolation: isolate;">
      <text transform="translate(198.41 476.77)" style="fill: #333; font-family: Larsseit, Larsseit; font-size: 14px; isolation: isolate;"><tspan x="0" y="0">Road injuries</tspan></text>
    </g>
    <g style="isolation: isolate;">
      <text transform="translate(3 500.77)" style="fill: #333; font-family: Larsseit, Larsseit; font-size: 14px; isolation: isolate;"><tspan x="0" y="0">Ischemic hea</tspan><tspan x="80.05" y="0" style="letter-spacing: 0em;">r</tspan><tspan x="84.89" y="0">t disease</tspan></text>
    </g>
    <g style="isolation: isolate;">
      <text transform="translate(46.08 525.13)" style="fill: #333; font-family: Larsseit, Larsseit; font-size: 14px; isolation: isolate;"><tspan x="0" y="0" style="letter-spacing: 0em;">C</tspan><tspan x="10.11" y="0" style="letter-spacing: -.03em;">O</tspan><tspan x="20.75" y="0">VID-19</tspan></text>
    </g>
  </g>
  <g id="above-footer-svg_datawrapper-4izvq-f9vec7-svg" data-name="above-footer-svg datawrapper-4izvq-f9vec7-svg">
    <g style="isolation: isolate;">
      <text transform="translate(4.61 585.24)" style="fill: #767676; font-family: Larsseit, Larsseit; font-size: 13px; isolation: isolate;"><tspan x="0" y="0">Cha</tspan><tspan x="22.8" y="0" style="letter-spacing: 0em;">r</tspan><tspan x="27.3" y="0">t sh</tspan><tspan x="47.18" y="0" style="letter-spacing: 0em;">o</tspan><tspan x="54.61" y="0">ws the 2021 global absolute di</tspan><tspan x="221.67" y="0" style="letter-spacing: 0em;">f</tspan><tspan x="226.12" y="0">fe</tspan><tspan x="237.62" y="0" style="letter-spacing: 0em;">r</tspan><tspan x="241.91" y="0">ence in disability−adjust</tspan><tspan x="377.98" y="0" style="letter-spacing: 0em;">e</tspan><tspan x="385.27" y="0">d life </tspan><tspan x="416.29" y="0" style="letter-spacing: 0em;">y</tspan><tspan x="422.71" y="0">ear (</tspan><tspan x="446.98" y="0" style="letter-spacing: -.03em;">D</tspan><tspan x="456.03" y="0">A</tspan><tspan x="465.03" y="0" style="letter-spacing: -.14em;">L</tspan><tspan x="469.71" y="0">Y) </tspan><tspan x="484.71" y="0" style="letter-spacing: -.01em;">r</tspan><tspan x="488.96" y="0">ates (</tspan><tspan x="519.09" y="0" style="letter-spacing: .01em;">p</tspan><tspan x="527.17" y="0">er 100,000 </tspan><tspan x="587.36" y="0" style="letter-spacing: .01em;">p</tspan><tspan x="595.43" y="0" style="letter-spacing: 0em;">e</tspan><tspan x="602.72" y="0">ople) </tspan><tspan x="634.8" y="0" style="letter-spacing: .01em;">b</tspan><tspan x="642.77" y="0" style="letter-spacing: 0em;">et</tspan><tspan x="654.51" y="0" style="letter-spacing: 0em;">w</tspan><tspan x="664.37" y="0" style="letter-spacing: 0em;">e</tspan><tspan x="671.66" y="0" style="letter-spacing: 0em;">en females and male</tspan><tspan x="787.28" y="0" style="letter-spacing: 0em;">s</tspan><tspan x="792.93" y="0">.</tspan><tspan x="0" y="15.6" style="letter-spacing: -.03em;">D</tspan><tspan x="9.05" y="15.6" style="letter-spacing: 0em;">A</tspan><tspan x="18.04" y="15.6" style="letter-spacing: -.14em;">L</tspan><tspan x="22.72" y="15.6" style="letter-spacing: 0em;">Ys a</tspan><tspan x="46.32" y="15.6" style="letter-spacing: 0em;">r</tspan><tspan x="50.61" y="15.6">e a</tspan><tspan x="66.9" y="15.6" style="letter-spacing: 0em;">g</tspan><tspan x="73.45" y="15.6">e−standa</tspan><tspan x="124.63" y="15.6" style="letter-spacing: 0em;">r</tspan><tspan x="128.92" y="15.6">diz</tspan><tspan x="145.87" y="15.6" style="letter-spacing: 0em;">e</tspan><tspan x="153.16" y="15.6">d (10 </tspan><tspan x="181.58" y="15.6" style="letter-spacing: 0em;">y</tspan><tspan x="188" y="15.6">ears and older) </tspan></text>
    </g>
  </g>
  <g style="isolation: isolate;">
    <text transform="translate(5.13 624.65) scale(1.02 1)" style="fill: #767676; font-family: Larsseit, Larsseit; font-size: 12.71px; isolation: isolate;"><tspan x="0" y="0" style="letter-spacing: .08em;">Cha</tspan><tspan x="25.2" y="0" style="letter-spacing: .08em;">r</tspan><tspan x="30.56" y="0" style="letter-spacing: .08em;">t:</tspan></text>
    <text transform="translate(49.3 624.65) scale(1.02 1)" style="fill: #767676; font-family: Larsseit, Larsseit; font-size: 12.71px; isolation: isolate; letter-spacing: .08em;"><tspan x="0" y="0">CFR/Allison Krugman</tspan></text>
    <text transform="translate(191.91 624.65) scale(1.02 1)" style="fill: #767676; font-family: Larsseit, Larsseit; font-size: 12.71px; isolation: isolate; letter-spacing: .08em;"><tspan x="0" y="0">•</tspan></text>
    <text transform="translate(201.21 624.65) scale(1.02 1)" style="fill: #767676; font-family: Larsseit, Larsseit; font-size: 12.71px; isolation: isolate;"><tspan x="0" y="0" style="letter-spacing: .08em;">Sou</tspan><tspan x="23.72" y="0" style="letter-spacing: .07em;">r</tspan><tspan x="28.88" y="0" style="letter-spacing: .08em;">ce</tspan></text>
    <text transform="translate(247.05 624.65) scale(1.02 1)" style="fill: #767676; font-family: Larsseit, Larsseit; font-size: 12.71px; isolation: isolate; letter-spacing: .08em;"><tspan x="0" y="0">:</tspan></text>
    <text transform="translate(254.37 624.65) scale(1.02 1)" style="fill: #767676; font-family: Larsseit, Larsseit; font-size: 12.71px; isolation: isolate; letter-spacing: .08em;"><tspan x="0" y="0">Institute for Health Metrics and Evaluation</tspan></text>
  </g>
  <g id="image">
    <path d="M706.77,618.28h-6.74v1.7h2.39v7.87h1.97v-7.87h2.38v-1.7Z" style="fill: #000; stroke-width: 0px;"/>
    <path d="M707.2,627.85h1.97v-3.89c0-.95.31-1.43.91-1.43.51,0,.76.34.76,1.03v4.28h1.98v-4.5c0-1.52-.6-2.26-1.81-2.26-.88,0-1.51.43-1.85,1.27v-4.07h-1.97v9.57Z" style="fill: #000; stroke-width: 0px;"/>
    <path d="M713.69,620.19h2.03v-1.91h-2.03v1.91ZM713.74,627.85h1.94v-6.6h-1.94v6.6Z" style="fill: #000; stroke-width: 0px;"/>
    <path d="M716.69,627.85h1.97v-3.9c0-.94.31-1.4.9-1.4.53,0,.78.34.78,1.09v4.22h1.98v-4.49c0-1.52-.6-2.26-1.82-2.26-.91,0-1.54.44-1.91,1.32v-1.16h-1.89v6.6Z" style="fill: #000; stroke-width: 0px;"/>
    <path d="M727.12,627.85h2.15l-1.99-4.11,1.94-2.49h-2.21l-1.77,2.72v-5.69h-1.97v9.57h1.97v-1.94l.64-.89,1.23,2.83Z" style="fill: #000; stroke-width: 0px;"/>
    <path d="M734.11,628.01c1.22,0,2.03-.63,2.37-1.65l.08,1.48h1.51v-5.21h-3.61v1.52h1.63v.24c0,1.27-.47,2.05-1.44,2.05-1.12,0-1.65-.82-1.65-3.39s.55-3.24,1.61-3.24c.91,0,1.31.61,1.4,1.77l2.05-.38c-.13-1.84-1.31-2.92-3.42-2.92-2.39,0-3.79,1.48-3.79,4.77s1.16,4.96,3.26,4.96Z" style="fill: #000; stroke-width: 0px;"/>
    <path d="M740.9,618.28h-1.97v9.57h1.97v-9.57Z" style="fill: #000; stroke-width: 0px;"/>
    <path d="M744.65,627.95c1.79,0,3.04-.99,3.04-3.43s-1.24-3.43-3.04-3.43-3.04.99-3.04,3.43,1.24,3.43,3.04,3.43ZM744.65,626.61c-.6,0-.99-.44-.99-2.09s.39-2.09.99-2.09.99.44.99,2.09-.39,2.09-.99,2.09Z" style="fill: #000; stroke-width: 0px;"/>
    <path d="M751.95,627.95c1.54,0,2.34-1.09,2.34-3.43s-.79-3.43-2.22-3.43c-.84,0-1.46.41-1.75,1.1v-3.91h-2.01v9.57h1.79l.13-1.04c.27.72.88,1.14,1.71,1.14ZM751.21,626.57c-.59,0-.94-.5-.94-1.39v-1.35c0-.86.36-1.37.95-1.37.66,0,.95.52.95,2.05s-.31,2.05-.96,2.05Z" style="fill: #000; stroke-width: 0px;"/>
    <path d="M756.67,627.95c.95,0,1.69-.47,1.89-1.18,0,.31.04.76.09,1.08h1.93c-.11-.47-.15-.97-.15-1.71v-2.72c0-1.65-.82-2.34-2.7-2.34-1.67,0-2.85.73-2.86,2.37h1.99c.01-.72.21-1.11.84-1.11.5,0,.72.27.72.9v.48l-1.32.22c-.8.14-1.39.37-1.75.67-.39.33-.64.8-.64,1.43,0,1.15.75,1.91,1.97,1.91ZM757.49,626.66c-.47,0-.72-.31-.72-.8,0-.56.32-.86.95-.99l.76-.16v.9c0,.64-.4,1.05-.99,1.05Z" style="fill: #000; stroke-width: 0px;"/>
    <path d="M763.29,618.28h-1.97v9.57h1.97v-9.57Z" style="fill: #000; stroke-width: 0px;"/>
    <path d="M772.52,618.28h-2.07v4h-2.7v-4h-2.06v9.57h2.06v-4.01h2.7v4.01h2.07v-9.57Z" style="fill: #000; stroke-width: 0px;"/>
    <path d="M779.02,624.07c0-1.86-1.02-2.98-2.86-2.98s-2.96,1.07-2.96,3.43,1.19,3.43,3.05,3.43c1.4,0,2.49-.71,2.74-1.99l-1.67-.48c-.13.78-.53,1.07-1.04,1.07-.72,0-1.1-.48-1.12-1.63h3.87v-.84ZM775.16,623.84c.03-1.22.4-1.6.98-1.6s.91.34.91,1.6h-1.89Z" style="fill: #000; stroke-width: 0px;"/>
    <path d="M781.26,627.95c.95,0,1.69-.47,1.89-1.18,0,.31.04.76.09,1.08h1.93c-.11-.47-.15-.97-.15-1.71v-2.72c0-1.65-.82-2.34-2.7-2.34-1.67,0-2.85.73-2.86,2.37h1.99c.01-.72.21-1.11.84-1.11.49,0,.72.27.72.9v.48l-1.32.22c-.8.14-1.39.37-1.75.67-.39.33-.64.8-.64,1.43,0,1.15.75,1.91,1.97,1.91ZM782.07,626.66c-.47,0-.72-.31-.72-.8,0-.56.32-.86.95-.99l.76-.16v.9c0,.64-.4,1.05-.99,1.05Z" style="fill: #000; stroke-width: 0px;"/>
    <path d="M787.86,618.28h-1.97v9.57h1.97v-9.57Z" style="fill: #000; stroke-width: 0px;"/>
    <path d="M788.27,622.56h.96v3.31c0,1.35.67,2.03,2.22,2.03.4,0,.74-.04,1.11-.1v-1.57c-.16.03-.31.04-.52.04-.56,0-.84-.3-.84-.88v-2.83h1.35v-1.31h-1.35v-2.24l-1.97.71v1.53h-.96v1.31Z" style="fill: #000; stroke-width: 0px;"/>
    <path d="M793.07,627.85h1.97v-3.89c0-.95.31-1.43.91-1.43.51,0,.76.34.76,1.03v4.28h1.98v-4.5c0-1.52-.6-2.26-1.81-2.26-.88,0-1.51.43-1.85,1.27v-4.07h-1.97v9.57Z" style="fill: #000; stroke-width: 0px;"/>
  </g>
  <g id="svelte-zo497q-svg">
    <g id="callout-line-svg">
      <path d="M687.28,280.77c6.12-9.36,8.42-20.07,6.91-32.13" style="fill: none; stroke: #1a1a1a;"/>
      <path d="M690.62,253.52l3.57-4.88,3.92,4.61" style="fill: none; stroke: #1a1a1a; stroke-miterlimit: 4; stroke-width: 1px;"/>
    </g>
  </g>
  <g style="isolation: isolate;">
    <text transform="translate(589.39 299.77)" style="fill: #12181e; font-family: Larsseit, Larsseit; font-size: 14px; isolation: isolate;"><tspan x="0" y="0">Morbidity-dri</tspan><tspan x="82.47" y="0" style="letter-spacing: 0em;">v</tspan><tspan x="89.36" y="0">en conditions</tspan></text>
  </g>
  <g id="svelte-zo497q-svg-2" data-name="svelte-zo497q-svg">
    <g id="callout-line-svg-2" data-name="callout-line-svg">
      <path d="M167.79,204.27c-.88,11.43,2.53,21.86,10.25,31.29" style="fill: none; stroke: #1a1a1a;"/>
      <path d="M178.52,229.53l-.48,6.03-5.76-1.87" style="fill: none; stroke: #1a1a1a; stroke-miterlimit: 4; stroke-width: 1px;"/>
    </g>
  </g>
  <g style="isolation: isolate;">
    <text transform="translate(86.34 198.27)" style="fill: #12181e; font-family: Larsseit, Larsseit; font-size: 14px; isolation: isolate;"><tspan x="0" y="0">Mo</tspan><tspan x="20.4" y="0" style="letter-spacing: 0em;">r</tspan><tspan x="25.24" y="0">tality-dri</tspan><tspan x="77.54" y="0" style="letter-spacing: 0em;">v</tspan><tspan x="84.43" y="0">en conditions</tspan></text>
  </g>
</svg>