<?xml version="1.0" encoding="UTF-8"?>
<svg id="exportSvg" xmlns="http://www.w3.org/2000/svg" version="1.1" viewBox="0 0 800.2 628.6">
  <defs>
    <style>
      .cls-1 {
        font-size: 13px;
      }

      .cls-1, .cls-2, .cls-3, .cls-4, .cls-5, .cls-6, .cls-7, .cls-8, .cls-9 {
        isolation: isolate;
      }

      .cls-1, .cls-4, .cls-5, .cls-6, .cls-7, .cls-8, .cls-9 {
        font-family: Larsseit, Larsseit;
      }

      .cls-1, .cls-7, .cls-8 {
        fill: #767676;
      }

      .cls-10, .cls-11, .cls-12, .cls-13 {
        stroke-width: 0px;
      }

      .cls-10, .cls-6 {
        fill: #000;
      }

      .cls-14 {
        stroke-miterlimit: 4;
        stroke-width: 1px;
      }

      .cls-14, .cls-15, .cls-16 {
        fill: none;
        stroke: #1a1a1a;
      }

      .cls-3 {
        font-family: Larsseit-Bold, Larsseit;
        font-weight: 700;
      }

      .cls-3, .cls-4, .cls-5, .cls-6, .cls-9 {
        font-size: 14px;
      }

      .cls-3, .cls-5 {
        fill: #1a1a1a;
      }

      .cls-4 {
        fill: #333;
      }

      .cls-11 {
        fill: #f56647;
      }

      .cls-7 {
        letter-spacing: 0em;
      }

      .cls-7, .cls-8 {
        font-size: 12.7px;
      }

      .cls-15 {
        stroke-miterlimit: 4;
        stroke-width: 1px;
      }

      .cls-8 {
        letter-spacing: 0em;
      }

      .cls-9 {
        fill: #12181e;
      }

      .cls-12 {
        fill: #fff;
      }

      .cls-13 {
        fill: #c6ddf4;
      }
    </style>
  </defs>
  <rect class="cls-12" width="800" height="628.6"/>
  <g id="chart-svg">
    <g class="cls-2">
      <text class="cls-3" transform="translate(514.7 44.4)"><tspan x="0" y="0">Female</tspan></text>
    </g>
    <g class="cls-2">
      <text class="cls-3" transform="translate(464 44.4)"><tspan x="0" y="0">Male</tspan></text>
    </g>
    <rect class="cls-11" x="506.3" y="51.8" width="106.1" height="20"/>
    <rect class="cls-11" x="506.3" y="75.8" width="77.2" height="20"/>
    <rect class="cls-11" x="506.3" y="99.8" width="73.8" height="20"/>
    <rect class="cls-11" x="506.3" y="123.8" width="67.9" height="20"/>
    <rect class="cls-11" x="506.3" y="147.8" width="57.5" height="20"/>
    <rect class="cls-11" x="506.3" y="171.8" width="36.6" height="20"/>
    <rect class="cls-11" x="506.3" y="195.8" width="16.7" height="20"/>
    <rect class="cls-13" x="491.7" y="219.8" width="14.7" height="20"/>
    <rect class="cls-13" x="474.7" y="243.8" width="31.6" height="20"/>
    <rect class="cls-13" x="469.7" y="267.8" width="36.7" height="20"/>
    <rect class="cls-13" x="459.3" y="291.8" width="47.1" height="20"/>
    <rect class="cls-13" x="455.3" y="315.8" width="51.1" height="20"/>
    <rect class="cls-13" x="432.2" y="339.8" width="74.1" height="20"/>
    <rect class="cls-13" x="389" y="363.8" width="117.4" height="20"/>
    <rect class="cls-13" x="388.5" y="387.8" width="117.8" height="20"/>
    <rect class="cls-13" x="386.3" y="411.8" width="120.1" height="20"/>
    <rect class="cls-13" x="326.9" y="435.8" width="179.5" height="20"/>
    <rect class="cls-13" x="281.9" y="459.8" width="224.4" height="20"/>
    <rect class="cls-13" x="149" y="483.8" width="357.3" height="20"/>
    <rect class="cls-13" x="114.4" y="507.8" width="391.9" height="20"/>
    <g id="grid-container-svg">
      <g id="grid-svg">
        <g id="x-base-lines-svg_grid-x-svg_datawrapper-4izvq-1ds6vhq-svg" data-name="x-base-lines-svg grid-x-svg datawrapper-4izvq-1ds6vhq-svg">
          <line class="cls-16" x1="506.4" y1="527.8" x2="506.4" y2="51.8"/>
        </g>
      </g>
    </g>
    <g class="cls-2">
      <text class="cls-6" transform="translate(618.9 66.8)"><tspan x="0" y="0">Low back pain</tspan></text>
    </g>
    <g class="cls-2">
      <text class="cls-5" transform="translate(588.3 91.9)"><tspan x="0" y="0">Depressive disorders</tspan></text>
    </g>
    <g class="cls-2">
      <text class="cls-5" transform="translate(585.7 117.1)"><tspan x="0" y="0">Headache disorders</tspan></text>
    </g>
    <g class="cls-2">
      <text class="cls-5" transform="translate(577.9 140.9)"><tspan x="0" y="0">Anxiety disorders</tspan></text>
    </g>
    <g class="cls-2">
      <text class="cls-5" transform="translate(568.8 164.8)"><tspan x="0" y="0">Other musculoskeletal disorders</tspan></text>
    </g>
    <g class="cls-2">
      <text class="cls-5" transform="translate(549 188.9)"><tspan x="0" y="0">Alzheimer&apos;s disease and other dementias</tspan></text>
    </g>
    <g class="cls-2">
      <text class="cls-5" transform="translate(528.1 212.8)"><tspan x="0" y="0">HIV/AIDS</tspan></text>
    </g>
    <g class="cls-2">
      <text class="cls-5" transform="translate(277.2 236.8)"><tspan x="0" y="0">Age-related and other hearing loss</tspan></text>
    </g>
    <g class="cls-2">
      <text class="cls-5" transform="translate(363.1 260.8)"><tspan x="0" y="0">Diabetes mellitus</tspan></text>
    </g>
    <g class="cls-2">
      <text class="cls-5" transform="translate(322.4 284.8)"><tspan x="0" y="0">Chronic kidney disease</tspan></text>
    </g>
    <g class="cls-2">
      <text class="cls-5" transform="translate(282.4 308.8)"><tspan x="0" y="0">Lower respiratory infections</tspan></text>
    </g>
    <g class="cls-2">
      <text class="cls-4" transform="translate(424.9 332.3)"><tspan x="0" y="0">Falls</tspan></text>
    </g>
    <g class="cls-2">
      <text class="cls-5" transform="translate(349.5 356.8)"><tspan x="0" y="0">Tuberculosis</tspan></text>
    </g>
    <g class="cls-2">
      <text class="cls-5" transform="translate(134 380.8)"><tspan x="0" y="0">Cirrhosis and other chronic liver diseases</tspan></text>
    </g>
    <g class="cls-2">
      <text class="cls-5" transform="translate(143.7 404.8)"><tspan x="0" y="0">Chronic obstructive pulmonary disease</tspan></text>
    </g>
    <g class="cls-2">
      <text class="cls-5" transform="translate(165.1 428.8)"><tspan x="0" y="0">Tracheal, bronchus, and lung cancer</tspan></text>
    </g>
    <g class="cls-2">
      <text class="cls-4" transform="translate(282.9 452.8)"><tspan x="0" y="0">Stroke</tspan></text>
    </g>
    <g class="cls-2">
      <text class="cls-4" transform="translate(198.4 476.8)"><tspan x="0" y="0">Road injuries</tspan></text>
    </g>
    <g class="cls-2">
      <text class="cls-4" transform="translate(3 500.8)"><tspan x="0" y="0">Ischemic heart disease</tspan></text>
    </g>
    <g class="cls-2">
      <text class="cls-4" transform="translate(46.1 525.1)"><tspan x="0" y="0">COVID-19</tspan></text>
    </g>
  </g>
  <g id="above-footer-svg_datawrapper-4izvq-f9vec7-svg" data-name="above-footer-svg datawrapper-4izvq-f9vec7-svg">
    <g class="cls-2">
      <text class="cls-1" transform="translate(4.6 585.2)"><tspan x="0" y="0">Chart shows the 2021 global absolute difference in disability−adjusted life year (DALY) rates (per 100,000 people) between females and males.</tspan><tspan x="0" y="15.6">DALYs are age−standardized (10 years and older) </tspan></text>
      <text/>
      <text/>
    </g>
  </g>
  <g class="cls-2">
    <text class="cls-8" transform="translate(5.1 624.6) scale(1 1)"><tspan x="0" y="0">Chart:</tspan></text>
    <text class="cls-8" transform="translate(49.3 624.6) scale(1 1)"><tspan x="0" y="0">CFR/Allison Krugman</tspan></text>
    <text class="cls-8" transform="translate(191.9 624.6) scale(1 1)"><tspan x="0" y="0">•</tspan></text>
    <text class="cls-8" transform="translate(201.2 624.6) scale(1 1)"><tspan x="0" y="0">Source</tspan></text>
    <text class="cls-7" transform="translate(247.1 624.6) scale(1 1)"><tspan x="0" y="0">:</tspan></text>
    <text class="cls-7" transform="translate(254.4 624.6) scale(1 1)"><tspan x="0" y="0">Institute for Health Metrics and Evaluation</tspan></text>
  </g>
  <g id="image">
    <path class="cls-10" d="M706.8,618.3h-6.7v1.7h2.4v7.9h2v-7.9h2.4v-1.7Z"/>
    <path class="cls-10" d="M707.2,627.8h2v-3.9c0-1,.3-1.4.9-1.4s.8.3.8,1v4.3h2v-4.5c0-1.5-.6-2.3-1.8-2.3s-1.5.4-1.8,1.3v-4.1h-2v9.6Z"/>
    <path class="cls-10" d="M713.7,620.2h2v-1.9h-2v1.9ZM713.7,627.8h1.9v-6.6h-1.9v6.6Z"/>
    <path class="cls-10" d="M716.7,627.8h2v-3.9c0-.9.3-1.4.9-1.4s.8.3.8,1.1v4.2h2v-4.5c0-1.5-.6-2.3-1.8-2.3s-1.5.4-1.9,1.3v-1.2h-1.9v6.6Z"/>
    <path class="cls-10" d="M727.1,627.8h2.2l-2-4.1,1.9-2.5h-2.2l-1.8,2.7v-5.7h-2v9.6h2v-1.9l.6-.9,1.2,2.8Z"/>
    <path class="cls-10" d="M734.1,628c1.2,0,2-.6,2.4-1.6v1.5h1.6v-5.2h-3.6v1.5h1.6v.2c0,1.3-.5,2.1-1.4,2.1s-1.6-.8-1.6-3.4.5-3.2,1.6-3.2,1.3.6,1.4,1.8l2-.4c-.1-1.8-1.3-2.9-3.4-2.9s-3.8,1.5-3.8,4.8,1.2,5,3.3,5Z"/>
    <path class="cls-10" d="M740.9,618.3h-2v9.6h2v-9.6Z"/>
    <path class="cls-10" d="M744.6,627.9c1.8,0,3-1,3-3.4s-1.2-3.4-3-3.4-3,1-3,3.4,1.2,3.4,3,3.4ZM744.6,626.6c-.6,0-1-.4-1-2.1s.4-2.1,1-2.1,1,.4,1,2.1-.4,2.1-1,2.1Z"/>
    <path class="cls-10" d="M751.9,627.9c1.5,0,2.3-1.1,2.3-3.4s-.8-3.4-2.2-3.4-1.5.4-1.8,1.1v-3.9h-2v9.6h1.8v-1c.4.7,1,1.1,1.8,1.1ZM751.2,626.6c-.6,0-.9-.5-.9-1.4v-1.3c0-.9.4-1.4.9-1.4s.9.5.9,2.1-.3,2.1-1,2.1Z"/>
    <path class="cls-10" d="M756.7,627.9c.9,0,1.7-.5,1.9-1.2,0,.3,0,.8,0,1.1h1.9c-.1-.5-.1-1-.1-1.7v-2.7c0-1.6-.8-2.3-2.7-2.3s-2.8.7-2.9,2.4h2c0-.7.2-1.1.8-1.1s.7.3.7.9v.5l-1.3.2c-.8.1-1.4.4-1.8.7-.4.3-.6.8-.6,1.4,0,1.2.7,1.9,2,1.9ZM757.5,626.7c-.5,0-.7-.3-.7-.8s.3-.9.9-1l.8-.2v.9c0,.6-.4,1-1,1Z"/>
    <path class="cls-10" d="M763.3,618.3h-2v9.6h2v-9.6Z"/>
    <path class="cls-10" d="M772.5,618.3h-2.1v4h-2.7v-4h-2.1v9.6h2.1v-4h2.7v4h2.1v-9.6Z"/>
    <path class="cls-10" d="M779,624.1c0-1.9-1-3-2.9-3s-3,1.1-3,3.4,1.2,3.4,3,3.4,2.5-.7,2.7-2l-1.7-.5c-.1.8-.5,1.1-1,1.1-.7,0-1.1-.5-1.1-1.6h3.9v-.8ZM775.2,623.8c0-1.2.4-1.6,1-1.6s.9.3.9,1.6h-1.9Z"/>
    <path class="cls-10" d="M781.3,627.9c.9,0,1.7-.5,1.9-1.2,0,.3,0,.8,0,1.1h1.9c-.1-.5-.1-1-.1-1.7v-2.7c0-1.6-.8-2.3-2.7-2.3s-2.8.7-2.9,2.4h2c0-.7.2-1.1.8-1.1s.7.3.7.9v.5l-1.3.2c-.8.1-1.4.4-1.8.7-.4.3-.6.8-.6,1.4,0,1.2.7,1.9,2,1.9ZM782.1,626.7c-.5,0-.7-.3-.7-.8s.3-.9.9-1l.8-.2v.9c0,.6-.4,1-1,1Z"/>
    <path class="cls-10" d="M787.9,618.3h-2v9.6h2v-9.6Z"/>
    <path class="cls-10" d="M788.3,622.6h1v3.3c0,1.3.7,2,2.2,2s.7,0,1.1-.1v-1.6c-.2,0-.3,0-.5,0-.6,0-.8-.3-.8-.9v-2.8h1.4v-1.3h-1.4v-2.2l-2,.7v1.5h-1v1.3Z"/>
    <path class="cls-10" d="M793.1,627.8h2v-3.9c0-1,.3-1.4.9-1.4s.8.3.8,1v4.3h2v-4.5c0-1.5-.6-2.3-1.8-2.3s-1.5.4-1.8,1.3v-4.1h-2v9.6Z"/>
  </g>
  <g id="svelte-zo497q-svg">
    <g id="callout-line-svg">
      <path class="cls-16" d="M687.3,280.8c6.1-9.4,8.4-20.1,6.9-32.1"/>
      <path class="cls-15" d="M690.6,253.5l3.6-4.9,3.9,4.6"/>
    </g>
  </g>
  <g class="cls-2">
    <text class="cls-9" transform="translate(589.4 299.8)"><tspan x="0" y="0">Morbidity-driven conditions</tspan></text>
  </g>
  <g id="svelte-zo497q-svg-2" data-name="svelte-zo497q-svg">
    <g id="callout-line-svg-2" data-name="callout-line-svg">
      <path class="cls-16" d="M167.8,204.3c-.9,11.4,2.5,21.9,10.3,31.3"/>
      <path class="cls-14" d="M178.5,229.5l-.5,6-5.8-1.9"/>
    </g>
  </g>
  <g class="cls-2">
    <text class="cls-9" transform="translate(86.3 198.3)"><tspan x="0" y="0">Mortality-driven conditions</tspan></text>
  </g>
</svg>