<?xml version="1.0" encoding="UTF-8"?>
<svg id="Layer_1" data-name="Layer 1" xmlns="http://www.w3.org/2000/svg" width="800" height="824.75" viewBox="0 0 800 824.75">
  <g id="Layer_2" data-name="Layer 2">
    <rect x=".52" y=".43" width="799.48" height="823.89" style="fill: #fff; stroke-width: 0px;"/>
  </g>
  <g>
    <path d="M10.39,812.93h-1.41c-.41-1.13-1.33-1.91-2.94-1.91-2.07,0-3.52,1.65-3.52,3.89s1.44,3.89,3.53,3.89c1.62,0,2.59-.83,2.98-1.95h1.37c-.55,1.98-2.04,3.14-4.36,3.14-2.84,0-4.86-2.17-4.86-5.08s2.02-5.08,4.85-5.08c2.31,0,3.81,1.2,4.36,3.1Z" style="fill: #777; stroke-width: 0px;"/>
    <path d="M15,812.6c1.51,0,2.3,1.09,2.3,2.65v4.57h-1.22v-4.37c0-1.09-.52-1.67-1.37-1.67-.92,0-1.64.81-1.64,2.25v3.78h-1.2v-10.23h1.2v4.05c.27-.55.91-1.04,1.93-1.04Z" style="fill: #777; stroke-width: 0px;"/>
    <path d="M24.21,815.14v4.68h-1.09l-.06-.97c-.35.63-1.11,1.12-2.14,1.12-1.23,0-2.06-.76-2.06-1.99s.87-1.83,1.98-2.04l2.16-.41v-.35c0-1.01-.46-1.46-1.3-1.46-.77,0-1.44.42-1.44,1.29h-1.19c.04-1.36,1.08-2.41,2.63-2.41s2.52.9,2.52,2.54ZM20.08,817.97c0,.56.39.88,1.08.88.59,0,1.11-.25,1.43-.7.24-.32.41-.81.41-1.3v-.27l-1.93.42c-.53.13-.98.34-.98.97Z" style="fill: #777; stroke-width: 0px;"/>
    <path d="M28.1,814.41c-.38.35-.63.9-.64,1.67v3.74h-1.2v-7.06h1.08l.08,1.23c.24-.64.9-1.3,2.12-1.3v1.21c-.56,0-1.04.15-1.43.52Z" style="fill: #777; stroke-width: 0px;"/>
    <path d="M34.39,812.76v1.12h-1.82l-.03,3.78c0,.77.2,1.15,1.01,1.15.39,0,.63-.06.84-.13v1.08c-.21.08-.53.15-1.05.15-1.33,0-2.02-.59-2-2.03l.03-4.01h-1.32v-1.12h1.32v-1.77h1.23v1.77s1.79,0,1.79,0Z" style="fill: #777; stroke-width: 0px;"/>
    <path d="M37.19,813.49c0,.49-.39.87-.88.87s-.88-.38-.88-.87.38-.88.88-.88.88.38.88.88ZM37.19,819.1c0,.49-.39.87-.88.87s-.88-.38-.88-.87.38-.87.88-.87.88.36.88.87Z" style="fill: #777; stroke-width: 0px;"/>
    <path d="M50.31,812.93h-1.41c-.41-1.13-1.33-1.91-2.94-1.91-2.07,0-3.52,1.65-3.52,3.89s1.44,3.89,3.53,3.89c1.62,0,2.59-.83,2.98-1.95h1.37c-.55,1.98-2.04,3.14-4.36,3.14-2.84,0-4.86-2.17-4.86-5.08s2.02-5.08,4.85-5.08c2.31,0,3.81,1.2,4.36,3.1Z" style="fill: #777; stroke-width: 0px;"/>
    <path d="M53.08,811.2v3.1h3.4v1.2h-3.4v4.31h-1.27v-9.81h5.28v1.19h-4.01Z" style="fill: #777; stroke-width: 0px;"/>
    <path d="M63.35,819.82l-2.14-3.98h-1.43v3.98h-1.27v-9.81h2.68c1.96,0,3.21,1.18,3.21,2.96,0,1.29-.69,2.25-1.85,2.66l2.27,4.19h-1.46ZM59.78,814.69h1.4c1.13,0,1.92-.62,1.92-1.72s-.77-1.76-1.92-1.76h-1.4v3.49Z" style="fill: #777; stroke-width: 0px;"/>
    <path d="M65.13,819.82l4.13-9.81h1.19l-4.13,9.81h-1.19Z" style="fill: #777; stroke-width: 0px;"/>
    <path d="M78.22,819.82l-1.04-2.59h-4.33l-1.02,2.59h-1.4l3.94-9.81h1.32l3.94,9.81h-1.4ZM73.29,816.03h3.46l-1.56-3.85-.18-.53-.18.53-1.54,3.85Z" style="fill: #777; stroke-width: 0px;"/>
    <path d="M80.91,819.82v-10.23h1.2v10.23h-1.2Z" style="fill: #777; stroke-width: 0px;"/>
    <path d="M84.21,819.82v-10.23h1.2v10.23h-1.2Z" style="fill: #777; stroke-width: 0px;"/>
    <path d="M89,810.59c0,.45-.38.81-.84.81s-.83-.36-.83-.81.36-.83.83-.83.84.36.84.83ZM87.56,819.82v-7.06h1.2v7.06h-1.2Z" style="fill: #777; stroke-width: 0px;"/>
    <path d="M95.23,814.83h-1.23c-.01-.74-.36-1.11-1.12-1.11s-1.08.43-1.08.95c0,.55.28.77,1.33,1.02,1.68.39,2.31.98,2.31,2.12,0,1.37-1.06,2.16-2.48,2.16-1.64,0-2.55-.92-2.58-2.3h1.23c.01.74.49,1.18,1.37,1.18.81,0,1.22-.41,1.22-.95,0-.59-.31-.87-1.47-1.13-1.47-.34-2.17-.85-2.17-2.02s.81-2.14,2.34-2.14c1.37,0,2.3.9,2.33,2.23Z" style="fill: #777; stroke-width: 0px;"/>
    <path d="M103.63,816.29c0,2.14-1.47,3.68-3.57,3.68s-3.59-1.54-3.59-3.68,1.47-3.68,3.59-3.68,3.57,1.54,3.57,3.68ZM97.72,816.29c0,1.46.94,2.56,2.35,2.56s2.31-1.11,2.31-2.56-.91-2.56-2.31-2.56-2.35,1.09-2.35,2.56Z" style="fill: #777; stroke-width: 0px;"/>
    <path d="M110.63,815.25v4.57h-1.22v-4.37c0-1.09-.52-1.67-1.37-1.67-.92,0-1.64.81-1.64,2.25v3.78h-1.2v-7.06h1.08l.07.97c.32-.62.99-1.12,1.99-1.12,1.51,0,2.3,1.09,2.3,2.65Z" style="fill: #777; stroke-width: 0px;"/>
    <path d="M123.53,819.82h-1.61l-3.36-4.44-1.69,2.06v2.38h-1.27v-9.81h1.27v5.55l4.36-5.55h1.6l-3.43,4.36,4.15,5.45Z" style="fill: #777; stroke-width: 0px;"/>
    <path d="M126.62,814.41c-.38.35-.63.9-.64,1.67v3.74h-1.2v-7.06h1.08l.08,1.23c.24-.64.9-1.3,2.12-1.3v1.21c-.56,0-1.04.15-1.43.52Z" style="fill: #777; stroke-width: 0px;"/>
    <path d="M133.6,819.82l-.07-.97c-.32.67-.97,1.12-1.95,1.12-1.53,0-2.27-1.08-2.27-2.65v-4.57h1.2v4.37c0,1.11.49,1.68,1.34,1.68.91,0,1.61-.77,1.61-2.13v-3.92h1.2v7.06h-1.08Z" style="fill: #777; stroke-width: 0px;"/>
    <path d="M142.8,813.82h-1.22c.21.38.34.83.34,1.32,0,1.4-1.05,2.51-2.69,2.51-.59,0-1.11-.14-1.51-.38-.17.15-.29.39-.29.7,0,.46.36.71.9.71h1.88c1.5,0,2.23.74,2.23,1.92,0,1.5-1.13,2.38-2.94,2.38-2,0-3.08-.81-3.08-2.2,0-.67.36-1.05.77-1.28-.48-.24-.94-.76-.94-1.47,0-.64.32-1.13.73-1.44-.29-.41-.45-.91-.45-1.46,0-1.46,1.06-2.54,2.72-2.54.36,0,.7.06,1.01.15h2.56v1.06ZM137.59,820.74c0,.77.7,1.18,1.89,1.18,1.09,0,1.75-.42,1.75-1.26,0-.66-.49-.91-1.27-.91h-1.34c-.53.03-1.02.31-1.02,1ZM140.73,815.14c0-.84-.57-1.47-1.51-1.47s-1.51.63-1.51,1.47.59,1.44,1.51,1.44,1.51-.63,1.51-1.44Z" style="fill: #777; stroke-width: 0px;"/>
    <path d="M153.35,815.25v4.57h-1.2v-4.37c0-1.09-.5-1.67-1.36-1.67-.92,0-1.62.81-1.62,2.25v3.78h-1.2v-4.37c0-1.09-.5-1.67-1.36-1.67-.92,0-1.62.81-1.62,2.25v3.78h-1.2v-7.06h1.08l.07.97c.32-.62.99-1.12,1.96-1.12,1.05,0,1.74.52,2.06,1.34.36-.7,1.04-1.34,2.13-1.34,1.53,0,2.28,1.09,2.28,2.65Z" style="fill: #777; stroke-width: 0px;"/>
    <path d="M160.26,815.14v4.68h-1.09l-.06-.97c-.35.63-1.11,1.12-2.14,1.12-1.23,0-2.06-.76-2.06-1.99s.87-1.83,1.98-2.04l2.16-.41v-.35c0-1.01-.46-1.46-1.3-1.46-.77,0-1.44.42-1.44,1.29h-1.19c.04-1.36,1.08-2.41,2.63-2.41s2.52.9,2.52,2.54ZM156.13,817.97c0,.56.39.88,1.08.88.59,0,1.11-.25,1.43-.7.24-.32.41-.81.41-1.3v-.27l-1.93.42c-.53.13-.98.34-.98.97Z" style="fill: #777; stroke-width: 0px;"/>
    <path d="M167.65,815.25v4.57h-1.22v-4.37c0-1.09-.52-1.67-1.37-1.67-.92,0-1.64.81-1.64,2.25v3.78h-1.2v-7.06h1.08l.07.97c.32-.62.99-1.12,1.99-1.12,1.51,0,2.3,1.09,2.3,2.65Z" style="fill: #777; stroke-width: 0px;"/>
    <path d="M175.9,816.19c0,1.12-.87,1.97-1.99,1.97s-1.98-.85-1.98-1.97.85-1.99,1.98-1.99,1.99.87,1.99,1.99Z" style="fill: #777; stroke-width: 0px;"/>
    <path d="M185.78,812.6h-1.29c-.01-1.05-.67-1.62-1.61-1.62s-1.51.55-1.51,1.49.62,1.27,1.95,1.81c1.98.73,2.77,1.44,2.77,2.89,0,1.79-1.26,2.84-3.04,2.84-2.07,0-3.22-1.25-3.25-3.07h1.29c.03,1.25.74,1.93,1.98,1.93,1.15,0,1.74-.7,1.74-1.62,0-.84-.59-1.29-2.06-1.81-1.67-.62-2.66-1.29-2.66-2.87s1.01-2.73,2.83-2.73c1.71,0,2.83.95,2.87,2.77Z" style="fill: #777; stroke-width: 0px;"/>
    <path d="M194.24,816.29c0,2.14-1.47,3.68-3.57,3.68s-3.59-1.54-3.59-3.68,1.47-3.68,3.59-3.68,3.57,1.54,3.57,3.68ZM188.33,816.29c0,1.46.94,2.56,2.35,2.56s2.31-1.11,2.31-2.56-.91-2.56-2.31-2.56-2.35,1.09-2.35,2.56Z" style="fill: #777; stroke-width: 0px;"/>
    <path d="M199.96,819.82l-.07-.97c-.32.67-.97,1.12-1.95,1.12-1.53,0-2.27-1.08-2.27-2.65v-4.57h1.2v4.37c0,1.11.49,1.68,1.34,1.68.91,0,1.61-.77,1.61-2.13v-3.92h1.2v7.06h-1.08Z" style="fill: #777; stroke-width: 0px;"/>
    <path d="M205.07,814.41c-.38.35-.63.9-.64,1.67v3.74h-1.2v-7.06h1.08l.08,1.23c.24-.64.9-1.3,2.12-1.3v1.21c-.56,0-1.04.15-1.43.52Z" style="fill: #777; stroke-width: 0px;"/>
    <path d="M213.73,814.96h-1.2c-.28-.79-1.01-1.23-1.92-1.23-1.26,0-2.2,1.08-2.2,2.58s.94,2.55,2.23,2.55c.9,0,1.64-.48,1.89-1.23h1.22c-.38,1.54-1.61,2.35-3.15,2.35-1.99,0-3.43-1.54-3.43-3.67s1.44-3.7,3.43-3.7c1.55,0,2.8.81,3.14,2.35Z" style="fill: #777; stroke-width: 0px;"/>
    <path d="M221.33,816.76h-5.35c.08,1.3.97,2.09,2.17,2.09.94,0,1.62-.41,1.9-1.15h1.2c-.42,1.4-1.51,2.27-3.14,2.27-1.99,0-3.4-1.44-3.4-3.67s1.34-3.7,3.4-3.7c1.85,0,3.21,1.21,3.21,3.59v.57ZM220.11,815.69c-.01-1.21-.81-1.96-1.99-1.96s-2,.83-2.14,1.96h4.13Z" style="fill: #777; stroke-width: 0px;"/>
    <path d="M224.11,813.49c0,.49-.39.87-.88.87s-.88-.38-.88-.87.38-.88.88-.88.88.38.88.88ZM224.11,819.1c0,.49-.39.87-.88.87s-.88-.38-.88-.87.38-.87.88-.87.88.36.88.87Z" style="fill: #777; stroke-width: 0px;"/>
    <path d="M233.41,819.82l-2.14-3.98h-1.43v3.98h-1.27v-9.81h2.68c1.96,0,3.21,1.18,3.21,2.96,0,1.29-.69,2.25-1.85,2.66l2.27,4.19h-1.46ZM229.84,814.69h1.4c1.13,0,1.92-.62,1.92-1.72s-.77-1.76-1.92-1.76h-1.4v3.49Z" style="fill: #777; stroke-width: 0px;"/>
    <path d="M243.15,819.82l-1.04-2.59h-4.33l-1.02,2.59h-1.4l3.94-9.81h1.32l3.94,9.81h-1.4ZM238.22,816.03h3.46l-1.56-3.85-.18-.53-.18.53-1.54,3.85Z" style="fill: #777; stroke-width: 0px;"/>
    <path d="M252.39,819.82l-4.87-7.03-.38-.6v7.63h-1.27v-9.81h1.25l4.85,7,.42.64v-7.65h1.27v9.81h-1.26Z" style="fill: #777; stroke-width: 0px;"/>
    <path d="M264.29,814.91c0,2.94-1.93,4.9-4.97,4.9h-3.53v-9.81h3.53c3.04,0,4.97,1.98,4.97,4.9ZM257.07,818.63h2.26c2.26,0,3.67-1.39,3.67-3.71s-1.39-3.71-3.67-3.71h-2.26v7.42Z" style="fill: #777; stroke-width: 0px;"/>
  </g>
  <g id="image">
    <path d="M664.76,806.69h-9.63v2.49h3.42v11.5h2.81v-11.5h3.4v-2.49Z" style="fill: #000; stroke-width: 0px;"/>
    <path d="M665.38,820.68h2.81v-5.69c0-1.4.44-2.08,1.3-2.08.73,0,1.09.5,1.09,1.51v6.26h2.83v-6.59c0-2.22-.86-3.31-2.58-3.31-1.26,0-2.16.63-2.64,1.85v-5.95h-2.81v13.99Z" style="fill: #000; stroke-width: 0px;"/>
    <path d="M674.65,809.49h2.91v-2.8h-2.91v2.8ZM674.73,820.68h2.77v-9.64h-2.77v9.64Z" style="fill: #000; stroke-width: 0px;"/>
    <path d="M678.95,820.68h2.81v-5.71c0-1.38.44-2.05,1.28-2.05.76,0,1.11.5,1.11,1.59v6.16h2.83v-6.57c0-2.22-.86-3.31-2.6-3.31-1.3,0-2.2.65-2.73,1.93v-1.7h-2.7v9.64Z" style="fill: #000; stroke-width: 0px;"/>
    <path d="M693.85,820.68h3.08l-2.85-6.01,2.77-3.63h-3.16l-2.52,3.98v-8.32h-2.81v13.99h2.81v-2.84l.92-1.3,1.76,4.14Z" style="fill: #000; stroke-width: 0px;"/>
    <path d="M703.85,820.92c1.74,0,2.91-.92,3.38-2.41l.11,2.17h2.16v-7.62h-5.16v2.22h2.33v.34c0,1.85-.67,3-2.07,3-1.61,0-2.35-1.2-2.35-4.95s.78-4.74,2.29-4.74c1.3,0,1.87.9,2.01,2.58l2.93-.55c-.19-2.7-1.87-4.26-4.89-4.26-3.42,0-5.41,2.16-5.41,6.98s1.66,7.25,4.67,7.25Z" style="fill: #000; stroke-width: 0px;"/>
    <path d="M713.56,806.69h-2.81v13.99h2.81v-13.99Z" style="fill: #000; stroke-width: 0px;"/>
    <path d="M718.92,820.82c2.56,0,4.34-1.45,4.34-5.01s-1.78-5.01-4.34-5.01-4.34,1.45-4.34,5.01,1.78,5.01,4.34,5.01ZM718.92,818.87c-.86,0-1.42-.65-1.42-3.06s.55-3.06,1.42-3.06,1.42.65,1.42,3.06-.55,3.06-1.42,3.06Z" style="fill: #000; stroke-width: 0px;"/>
    <path d="M729.35,820.82c2.2,0,3.35-1.59,3.35-5.01s-1.13-5.01-3.17-5.01c-1.2,0-2.08.59-2.5,1.61v-5.72h-2.87v13.99h2.56l.19-1.52c.38,1.05,1.26,1.66,2.45,1.66ZM728.3,818.82c-.84,0-1.34-.73-1.34-2.03v-1.97c0-1.26.52-2.01,1.36-2.01.94,0,1.36.76,1.36,3s-.44,3-1.38,3Z" style="fill: #000; stroke-width: 0px;"/>
    <path d="M736.1,820.82c1.36,0,2.41-.69,2.7-1.72,0,.46.06,1.12.13,1.58h2.75c-.15-.69-.21-1.42-.21-2.49v-3.98c0-2.41-1.17-3.42-3.86-3.42-2.39,0-4.07,1.07-4.09,3.46h2.85c.02-1.05.31-1.63,1.2-1.63.71,0,1.03.4,1.03,1.32v.71l-1.89.33c-1.15.21-1.99.54-2.5.98-.55.48-.92,1.17-.92,2.08,0,1.68,1.07,2.79,2.81,2.79ZM737.27,818.95c-.67,0-1.03-.46-1.03-1.17,0-.82.46-1.26,1.36-1.45l1.09-.23v1.32c0,.94-.57,1.53-1.42,1.53Z" style="fill: #000; stroke-width: 0px;"/>
    <path d="M745.57,806.69h-2.81v13.99h2.81v-13.99Z" style="fill: #000; stroke-width: 0px;"/>
    <path d="M758.77,806.69h-2.96v5.85h-3.86v-5.85h-2.94v13.99h2.94v-5.86h3.86v5.86h2.96v-13.99Z" style="fill: #000; stroke-width: 0px;"/>
    <path d="M768.06,815.16c0-2.72-1.45-4.36-4.09-4.36s-4.23,1.57-4.23,5.01,1.7,5.01,4.36,5.01c2.01,0,3.56-1.03,3.92-2.91l-2.39-.71c-.19,1.15-.76,1.57-1.49,1.57-1.03,0-1.57-.71-1.61-2.39h5.53v-1.22ZM762.53,814.82c.04-1.78.57-2.33,1.4-2.33s1.3.5,1.3,2.33h-2.7Z" style="fill: #000; stroke-width: 0px;"/>
    <path d="M771.25,820.82c1.36,0,2.41-.69,2.7-1.72,0,.46.06,1.12.13,1.58h2.75c-.15-.69-.21-1.42-.21-2.49v-3.98c0-2.41-1.17-3.42-3.86-3.42-2.39,0-4.07,1.07-4.09,3.46h2.85c.02-1.05.31-1.63,1.2-1.63.71,0,1.03.4,1.03,1.32v.71l-1.89.33c-1.15.21-1.99.54-2.5.98-.55.48-.92,1.17-.92,2.08,0,1.68,1.07,2.79,2.81,2.79ZM772.42,818.95c-.67,0-1.03-.46-1.03-1.17,0-.82.46-1.26,1.36-1.45l1.09-.23v1.32c0,.94-.57,1.53-1.42,1.53Z" style="fill: #000; stroke-width: 0px;"/>
    <path d="M780.69,806.69h-2.81v13.99h2.81v-13.99Z" style="fill: #000; stroke-width: 0px;"/>
    <path d="M781.28,812.95h1.38v4.84c0,1.97.96,2.96,3.17,2.96.57,0,1.05-.06,1.59-.15v-2.29c-.23.04-.44.06-.75.06-.8,0-1.2-.44-1.2-1.28v-4.13h1.93v-1.91h-1.93v-3.27l-2.81,1.03v2.24h-1.38v1.91Z" style="fill: #000; stroke-width: 0px;"/>
    <path d="M788.14,820.68h2.81v-5.69c0-1.4.44-2.08,1.3-2.08.73,0,1.09.5,1.09,1.51v6.26h2.83v-6.59c0-2.22-.86-3.31-2.58-3.31-1.26,0-2.16.63-2.64,1.85v-5.95h-2.81v13.99Z" style="fill: #000; stroke-width: 0px;"/>
  </g>
  <g id="_1.492537313" data-name="1.492537313" style="opacity: .5;">
    <path id="p_690.1545511851691" data-name="p 690.1545511851691" d="M257.78,694.49c-62.93,0-113.94-51.01-113.94-113.94s51.01-113.94,113.94-113.94,113.94,51.01,113.94,113.94-51.01,113.94-113.94,113.94Z" style="fill: #c6ddf4; stroke-width: 0px;"/>
  </g>
  <g id="_1" data-name="1">
    <path id="p_941.5212014134275" data-name="p 941.5212014134275" d="M257.78,694.49c-51.51,0-93.26-41.76-93.26-93.26s41.76-93.26,93.26-93.26,93.26,41.76,93.26,93.26-41.76,93.26-93.26,93.26Z" style="fill: #c6ddf4; stroke-width: 0px;"/>
  </g>
  <g id="_0.3597122302" data-name="0.3597122302">
    <path id="p_936.5955406542181" data-name="p 936.5955406542181" d="M257.78,207.77c-30.89,0-55.94-25.04-55.94-55.94s25.04-55.94,55.94-55.94,55.94,25.04,55.94,55.94-25.04,55.94-55.94,55.94Z" style="fill: #dbb9e6; stroke-width: 0px;"/>
  </g>
  <g id="_0.2369668246" data-name="0.2369668246">
    <path id="p_613.6949515338912" data-name="p 613.6949515338912" d="M257.78,430.59c-25.07,0-45.4-20.32-45.4-45.4,0-25.07,20.32-45.4,45.4-45.4h0c25.07,0,45.4,20.32,45.4,45.4,0,25.07-20.32,45.4-45.4,45.4h0Z" style="fill: #f56647; stroke-width: 0px;"/>
  </g>
  <g id="_1-2" data-name="1" style="opacity: .5;">
    <path id="p_941.5212014134275-2" data-name="p 941.5212014134275" d="M257.78,430.46c-51.51,0-93.26-41.76-93.26-93.26s41.76-93.26,93.26-93.26,93.26,41.76,93.26,93.26-41.76,93.26-93.26,93.26Z" style="fill: #f56647; stroke-width: 0px;"/>
  </g>
  <g id="_1-3" data-name="1" style="opacity: .5;">
    <path id="p_941.5212014134275-3" data-name="p 941.5212014134275" d="M257.78,207.77c-51.51,0-93.26-41.76-93.26-93.26s41.76-93.26,93.26-93.26,93.26,41.76,93.26,93.26-41.76,93.26-93.26,93.26Z" style="fill: #dbb9e6; stroke-width: 0px;"/>
  </g>
  <g style="isolation: isolate;">
    <path d="M440.7,359.71c0,1.1-.4,1.89-1.1,2.45,1.08.47,1.8,1.48,1.8,2.84,0,2.23-1.64,3.71-4.27,3.71h-4.57v-12.6h4c2.56,0,4.14,1.37,4.14,3.6ZM435.03,361.28h1.57c.99,0,1.6-.54,1.6-1.39,0-.99-.63-1.48-1.64-1.48h-1.53v2.86ZM435.03,366.41h2.11c1.08,0,1.73-.52,1.73-1.49s-.65-1.49-1.73-1.49h-2.11v2.99Z" style="fill: #12181e; stroke-width: 0px;"/>
    <path d="M446.35,362.38c-.43.32-.72.86-.74,1.67v4.66h-2.34v-9.13h2.02l.2,1.46c.32-.79,1.12-1.55,2.68-1.55v2.32c-.74,0-1.3.13-1.82.56Z" style="fill: #12181e; stroke-width: 0px;"/>
    <path d="M456.63,362.72v6h-2l-.14-1.12c-.49.74-1.31,1.31-2.61,1.31-1.62,0-2.77-.99-2.77-2.63,0-1.78,1.21-2.47,2.83-2.74l2.36-.41v-.36c0-.92-.43-1.39-1.28-1.39-.77,0-1.39.47-1.39,1.21h-2.25c.11-1.85,1.48-3.2,3.64-3.2s3.62,1.1,3.62,3.33ZM451.42,366.09c0,.54.38.9,1.08.9.58,0,1.13-.29,1.46-.83.2-.31.32-.76.32-1.21v-.27l-1.82.38c-.61.14-1.04.41-1.04,1.03Z" style="fill: #12181e; stroke-width: 0px;"/>
    <path d="M466.44,362.79v5.92h-2.32v-5.42c0-1.06-.45-1.64-1.33-1.64s-1.6.7-1.6,2.23v4.83h-2.32v-9.13h2l.16,1.19c.41-.76,1.26-1.39,2.47-1.39,1.95,0,2.95,1.33,2.95,3.4Z" style="fill: #12181e; stroke-width: 0px;"/>
    <path d="M475.42,368.71l-.16-1.22c-.52.74-1.35,1.42-2.92,1.42-2.45,0-4.23-2.09-4.23-4.77s1.78-4.75,4.25-4.75c1.31,0,2.27.54,2.74,1.21v-5.02h2.32v13.14h-2ZM470.52,364.14c0,1.58.99,2.59,2.3,2.59,1.15,0,2.32-.9,2.32-2.54v-.11c-.02-1.62-1.19-2.52-2.32-2.52-1.28,0-2.3,1.01-2.3,2.57Z" style="fill: #12181e; stroke-width: 0px;"/>
    <path d="M479.07,365.08v-2.07h5.67v2.07h-5.67Z" style="fill: #12181e; stroke-width: 0px;"/>
    <path d="M493.98,362.79v5.92h-2.32v-5.42c0-1.06-.45-1.64-1.33-1.64s-1.6.7-1.6,2.23v4.83h-2.32v-9.13h2l.16,1.19c.41-.76,1.26-1.39,2.47-1.39,1.94,0,2.95,1.33,2.95,3.4Z" style="fill: #12181e; stroke-width: 0px;"/>
    <path d="M503.3,362.72v6h-2l-.14-1.12c-.49.74-1.31,1.31-2.61,1.31-1.62,0-2.77-.99-2.77-2.63,0-1.78,1.21-2.47,2.83-2.74l2.36-.41v-.36c0-.92-.43-1.39-1.28-1.39-.77,0-1.39.47-1.39,1.21h-2.25c.11-1.85,1.48-3.2,3.64-3.2s3.62,1.1,3.62,3.33ZM498.1,366.09c0,.54.38.9,1.08.9.58,0,1.13-.29,1.46-.83.2-.31.32-.76.32-1.21v-.27l-1.82.38c-.61.14-1.04.41-1.04,1.03Z" style="fill: #12181e; stroke-width: 0px;"/>
    <path d="M518.3,362.79v5.92h-2.32v-5.42c0-1.06-.43-1.64-1.3-1.64s-1.6.7-1.6,2.23v4.83h-2.32v-5.42c0-1.06-.43-1.64-1.31-1.64s-1.58.7-1.58,2.23v4.83h-2.32v-9.13h2l.16,1.19c.41-.76,1.24-1.39,2.45-1.39,1.3,0,2.18.59,2.61,1.6.43-.86,1.31-1.6,2.63-1.6,1.94,0,2.92,1.33,2.92,3.4Z" style="fill: #12181e; stroke-width: 0px;"/>
    <path d="M528.72,364.86h-6.36c.07,1.21.9,2.05,2.18,2.05.92,0,1.6-.36,1.85-1.06h2.27c-.56,1.93-1.98,3.06-4.18,3.06-2.7,0-4.54-1.87-4.54-4.75s1.82-4.77,4.54-4.77c2.41,0,4.23,1.53,4.23,4.74v.74ZM526.38,363.26c-.04-1.19-.79-1.94-1.94-1.94s-1.96.81-2.07,1.94h4.01Z" style="fill: #12181e; stroke-width: 0px;"/>
    <path d="M540.72,368.71l-.16-1.22c-.52.74-1.35,1.42-2.92,1.42-2.45,0-4.23-2.09-4.23-4.77s1.78-4.75,4.25-4.75c1.31,0,2.27.54,2.74,1.21v-5.02h2.32v13.14h-2ZM535.82,364.14c0,1.58.99,2.59,2.3,2.59,1.15,0,2.32-.9,2.32-2.54v-.11c-.02-1.62-1.19-2.52-2.32-2.52-1.28,0-2.3,1.01-2.3,2.57Z" style="fill: #12181e; stroke-width: 0px;"/>
    <path d="M548.28,362.38c-.43.32-.72.86-.74,1.67v4.66h-2.34v-9.13h2.02l.2,1.46c.32-.79,1.12-1.55,2.68-1.55v2.32c-.74,0-1.3.13-1.82.56Z" style="fill: #12181e; stroke-width: 0px;"/>
    <path d="M557.17,368.71l-.18-1.19c-.41.79-1.22,1.39-2.41,1.39-1.96,0-2.93-1.33-2.93-3.4v-5.92h2.32v5.4c0,1.08.43,1.66,1.3,1.66s1.58-.68,1.58-2.16v-4.9h2.32v9.13h-2Z" style="fill: #12181e; stroke-width: 0px;"/>
    <path d="M569.77,361.57h-1.35c.11.32.16.68.16,1.06,0,1.84-1.48,3.17-3.58,3.17-.54,0-1.06-.09-1.51-.23-.13.16-.23.38-.23.67,0,.49.36.76.92.76h2.16c1.87,0,2.99.92,2.99,2.63,0,2.05-1.6,3.17-4.03,3.17-2.72,0-4.14-1.01-4.14-2.81,0-.79.47-1.31.92-1.6-.56-.38-1.06-1.08-1.06-1.96s.4-1.49.95-1.93c-.41-.5-.63-1.13-.63-1.85,0-1.89,1.51-3.24,3.67-3.24.47,0,.92.05,1.31.2h3.46v1.98ZM563.44,369.79c0,.83.72,1.24,1.85,1.24s1.75-.43,1.75-1.28c0-.68-.49-1.01-1.3-1.01h-1.37c-.52.07-.94.41-.94,1.04ZM566.35,362.63c0-.88-.56-1.48-1.37-1.48s-1.37.59-1.37,1.48.54,1.46,1.37,1.46,1.37-.61,1.37-1.46Z" style="fill: #12181e; stroke-width: 0px;"/>
    <path d="M577.24,362.27h-2.3c-.02-.67-.34-1.04-1.04-1.04s-1.01.38-1.01.9c0,.56.31.83,1.58,1.06,2.21.36,2.99,1.28,2.99,2.75,0,2.07-1.64,2.97-3.53,2.97-2.25,0-3.49-1.17-3.57-2.97h2.3c.02.74.5,1.13,1.31,1.13.72,0,1.13-.34,1.13-.88s-.29-.88-1.66-1.13c-2-.34-2.9-1.21-2.9-2.72s1.1-2.95,3.35-2.95c1.93,0,3.28,1.15,3.33,2.88Z" style="fill: #12181e; stroke-width: 0px;"/>
    <path d="M589.39,362.7v6.01h-1.4l-.07-1.24c-.45.81-1.42,1.44-2.75,1.44-1.58,0-2.65-.97-2.65-2.56s1.12-2.36,2.54-2.63l2.77-.52v-.45c0-1.3-.59-1.87-1.67-1.87-.99,0-1.85.54-1.85,1.66h-1.53c.05-1.75,1.39-3.1,3.38-3.1s3.24,1.15,3.24,3.26ZM584.08,366.34c0,.72.5,1.13,1.39,1.13.76,0,1.42-.32,1.84-.9.31-.41.52-1.04.52-1.67v-.34l-2.49.54c-.68.16-1.26.43-1.26,1.24Z" style="fill: #12181e; stroke-width: 0px;"/>
    <path d="M594.4,361.76c-.49.45-.81,1.15-.83,2.14v4.81h-1.55v-9.07h1.39l.11,1.58c.31-.83,1.15-1.67,2.72-1.67v1.55c-.72,0-1.33.2-1.84.67Z" style="fill: #12181e; stroke-width: 0px;"/>
    <path d="M605.57,364.79h-6.88c.11,1.67,1.24,2.68,2.79,2.68,1.21,0,2.09-.52,2.45-1.48h1.55c-.54,1.8-1.94,2.92-4.03,2.92-2.56,0-4.38-1.85-4.38-4.72s1.73-4.75,4.38-4.75c2.38,0,4.12,1.55,4.12,4.61v.74ZM604.01,363.4c-.02-1.55-1.04-2.52-2.56-2.52s-2.57,1.06-2.75,2.52h5.31Z" style="fill: #12181e; stroke-width: 0px;"/>
    <path d="M440.48,386.25v1.49h-1.76v2.57h-1.64v-2.57h-5.28v-1.35l4.97-8.68h1.94v8.53h1.76ZM433.6,386.26h3.49v-6.21l-.4.77-3.1,5.44Z" style="fill: #12181e; stroke-width: 0px;"/>
    <path d="M443.94,389.4c0,.63-.5,1.12-1.13,1.12s-1.13-.49-1.13-1.12.49-1.12,1.13-1.12,1.13.47,1.13,1.12Z" style="fill: #12181e; stroke-width: 0px;"/>
    <path d="M452.6,380.97c0,1.46-.65,2.56-1.53,3.69l-3.22,4.12h4.95v1.53h-7.2v-1.21l4.05-5.11c.9-1.13,1.3-1.87,1.3-2.97,0-1.3-.61-2.02-1.87-2.02-1.13,0-1.96.72-1.96,2.34h-1.64c0-2.38,1.41-3.87,3.62-3.87s3.51,1.39,3.51,3.49Z" style="fill: #12181e; stroke-width: 0px;"/>
    <path d="M461.32,380.97c0,1.46-.65,2.56-1.53,3.69l-3.22,4.12h4.95v1.53h-7.2v-1.21l4.05-5.11c.9-1.13,1.3-1.87,1.3-2.97,0-1.3-.61-2.02-1.87-2.02-1.13,0-1.96.72-1.96,2.34h-1.64c0-2.38,1.4-3.87,3.62-3.87s3.51,1.39,3.51,3.49Z" style="fill: #12181e; stroke-width: 0px;"/>
    <path d="M470.88,390.31h-1.84l-2.36-3.46-2.34,3.46h-1.84l3.13-4.68-2.93-4.39h1.84l2.14,3.17,2.16-3.17h1.84l-2.95,4.39,3.15,4.68Z" style="fill: #12181e; stroke-width: 0px;"/>
    <path d="M488.61,384.44v5.87h-1.55v-5.62c0-1.4-.65-2.14-1.75-2.14-1.19,0-2.09,1.04-2.09,2.9v4.86h-1.55v-5.62c0-1.4-.65-2.14-1.75-2.14-1.19,0-2.09,1.04-2.09,2.9v4.86h-1.55v-9.07h1.39l.09,1.24c.42-.79,1.28-1.44,2.52-1.44,1.35,0,2.23.67,2.65,1.73.47-.9,1.33-1.73,2.74-1.73,1.96,0,2.93,1.4,2.93,3.4Z" style="fill: #12181e; stroke-width: 0px;"/>
    <path d="M499.63,385.78c0,2.75-1.89,4.74-4.59,4.74s-4.61-1.98-4.61-4.74,1.89-4.74,4.61-4.74,4.59,1.98,4.59,4.74ZM492.03,385.78c0,1.87,1.21,3.3,3.02,3.3s2.97-1.42,2.97-3.3-1.17-3.29-2.97-3.29-3.02,1.4-3.02,3.29Z" style="fill: #12181e; stroke-width: 0px;"/>
    <path d="M504.13,383.36c-.49.45-.81,1.15-.83,2.14v4.81h-1.55v-9.07h1.39l.11,1.58c.31-.83,1.15-1.67,2.72-1.67v1.55c-.72,0-1.33.2-1.84.67Z" style="fill: #12181e; stroke-width: 0px;"/>
    <path d="M515.31,386.39h-6.88c.11,1.67,1.24,2.68,2.79,2.68,1.21,0,2.09-.52,2.45-1.48h1.55c-.54,1.8-1.94,2.92-4.03,2.92-2.56,0-4.38-1.85-4.38-4.72s1.73-4.75,4.38-4.75c2.38,0,4.12,1.55,4.12,4.61v.74ZM513.74,385c-.02-1.55-1.04-2.52-2.56-2.52s-2.57,1.06-2.75,2.52h5.31Z" style="fill: #12181e; stroke-width: 0px;"/>
    <path d="M528.73,386.39h-6.88c.11,1.67,1.24,2.68,2.79,2.68,1.21,0,2.09-.52,2.45-1.48h1.55c-.54,1.8-1.94,2.92-4.03,2.92-2.56,0-4.38-1.85-4.38-4.72s1.73-4.75,4.38-4.75c2.38,0,4.12,1.55,4.12,4.61v.74ZM527.17,385c-.02-1.55-1.04-2.52-2.56-2.52s-2.57,1.06-2.75,2.52h5.31Z" style="fill: #12181e; stroke-width: 0px;"/>
    <path d="M537.72,390.31h-1.84l-2.36-3.46-2.34,3.46h-1.84l3.13-4.68-2.94-4.39h1.84l2.14,3.17,2.16-3.17h1.84l-2.95,4.39,3.15,4.68Z" style="fill: #12181e; stroke-width: 0px;"/>
    <path d="M548.41,385.78c0,2.68-1.69,4.74-4.25,4.74-1.51,0-2.52-.67-3.01-1.44v5.11h-1.57v-12.95h1.4l.07,1.33c.56-.81,1.48-1.53,3.11-1.53,2.56,0,4.23,2.05,4.23,4.74ZM541.12,385.69v.09c0,2.02,1.37,3.26,2.81,3.26,1.69,0,2.88-1.35,2.88-3.26s-1.13-3.28-2.86-3.28c-1.48,0-2.83,1.22-2.83,3.19Z" style="fill: #12181e; stroke-width: 0px;"/>
    <path d="M558.33,386.39h-6.88c.11,1.67,1.24,2.68,2.79,2.68,1.21,0,2.09-.52,2.45-1.48h1.55c-.54,1.8-1.94,2.92-4.03,2.92-2.56,0-4.38-1.85-4.38-4.72s1.73-4.75,4.38-4.75c2.38,0,4.12,1.55,4.12,4.61v.74ZM556.76,385c-.02-1.55-1.04-2.52-2.56-2.52s-2.57,1.06-2.75,2.52h5.31Z" style="fill: #12181e; stroke-width: 0px;"/>
    <path d="M567.31,384.44v5.87h-1.57v-5.62c0-1.4-.67-2.14-1.76-2.14-1.19,0-2.11,1.04-2.11,2.9v4.86h-1.55v-9.07h1.39l.09,1.24c.41-.79,1.28-1.44,2.56-1.44,1.94,0,2.95,1.4,2.95,3.4Z" style="fill: #12181e; stroke-width: 0px;"/>
    <path d="M575.43,383.9h-1.58c-.02-.95-.47-1.42-1.44-1.42s-1.39.56-1.39,1.22c0,.7.36.99,1.71,1.31,2.16.5,2.97,1.26,2.97,2.72,0,1.76-1.37,2.77-3.19,2.77-2.11,0-3.28-1.19-3.31-2.95h1.58c.02.95.63,1.51,1.76,1.51,1.04,0,1.57-.52,1.57-1.22,0-.76-.4-1.12-1.89-1.46-1.89-.43-2.79-1.1-2.79-2.59s1.04-2.75,3.01-2.75c1.76,0,2.95,1.15,2.99,2.86Z" style="fill: #12181e; stroke-width: 0px;"/>
    <path d="M579.67,378.45c0,.58-.49,1.04-1.08,1.04s-1.06-.47-1.06-1.04.47-1.06,1.06-1.06,1.08.47,1.08,1.06ZM577.82,390.31v-9.07h1.55v9.07h-1.55Z" style="fill: #12181e; stroke-width: 0px;"/>
    <path d="M584.5,390.31l-3.46-9.07h1.66l2.39,6.52.18.68.18-.68,2.39-6.52h1.67l-3.48,9.07h-1.55Z" style="fill: #12181e; stroke-width: 0px;"/>
    <path d="M598.59,386.39h-6.88c.11,1.67,1.24,2.68,2.79,2.68,1.21,0,2.09-.52,2.45-1.48h1.55c-.54,1.8-1.94,2.92-4.03,2.92-2.56,0-4.38-1.85-4.38-4.72s1.73-4.75,4.38-4.75c2.38,0,4.12,1.55,4.12,4.61v.74ZM597.02,385c-.02-1.55-1.04-2.52-2.56-2.52s-2.57,1.06-2.75,2.52h5.31Z" style="fill: #12181e; stroke-width: 0px;"/>
    <path d="M434.56,400.05c0,.58-.49,1.04-1.08,1.04s-1.06-.47-1.06-1.04.47-1.06,1.06-1.06,1.08.47,1.08,1.06ZM432.7,411.91v-9.07h1.55v9.07h-1.55Z" style="fill: #12181e; stroke-width: 0px;"/>
    <path d="M443.99,406.05v5.87h-1.57v-5.62c0-1.4-.67-2.14-1.76-2.14-1.19,0-2.11,1.04-2.11,2.9v4.86h-1.55v-9.07h1.39l.09,1.24c.41-.79,1.28-1.44,2.56-1.44,1.94,0,2.95,1.4,2.95,3.4Z" style="fill: #12181e; stroke-width: 0px;"/>
    <path d="M454.59,402.84v1.44h-2.34l-.04,4.86c0,.99.25,1.48,1.3,1.48.5,0,.81-.07,1.08-.16v1.39c-.27.11-.68.2-1.35.2-1.71,0-2.59-.76-2.58-2.61l.04-5.15h-1.69v-1.44h1.69l.02-2.27h1.57l-.02,2.27h2.32Z" style="fill: #12181e; stroke-width: 0px;"/>
    <path d="M460.51,402.64c1.94,0,2.95,1.4,2.95,3.4v5.87h-1.57v-5.62c0-1.4-.67-2.14-1.76-2.14-1.19,0-2.11,1.04-2.11,2.9v4.86h-1.55v-13.14h1.55v5.2c.34-.7,1.17-1.33,2.48-1.33Z" style="fill: #12181e; stroke-width: 0px;"/>
    <path d="M473.78,407.99h-6.88c.11,1.67,1.24,2.68,2.79,2.68,1.21,0,2.09-.52,2.45-1.48h1.55c-.54,1.8-1.94,2.92-4.03,2.92-2.56,0-4.38-1.85-4.38-4.72s1.73-4.75,4.38-4.75c2.38,0,4.12,1.55,4.12,4.61v.74ZM472.22,406.6c-.02-1.55-1.04-2.52-2.56-2.52s-2.57,1.06-2.75,2.52h5.31Z" style="fill: #12181e; stroke-width: 0px;"/>
    <path d="M484.27,412.15c-3.11,0-4.95-1.82-4.95-5.22v-7.62h1.64v7.62c0,2.41,1.1,3.69,3.31,3.69s3.29-1.26,3.29-3.69v-7.62h1.64v7.62c0,3.4-1.82,5.22-4.93,5.22Z" style="fill: #12181e; stroke-width: 0px;"/>
    <path d="M498.77,406.05v5.87h-1.57v-5.62c0-1.4-.67-2.14-1.76-2.14-1.19,0-2.11,1.04-2.11,2.9v4.86h-1.55v-9.07h1.39l.09,1.24c.41-.79,1.28-1.44,2.56-1.44,1.95,0,2.95,1.4,2.95,3.4Z" style="fill: #12181e; stroke-width: 0px;"/>
    <path d="M503.23,400.05c0,.58-.49,1.04-1.08,1.04s-1.06-.47-1.06-1.04.47-1.06,1.06-1.06,1.08.47,1.08,1.06ZM501.37,411.91v-9.07h1.55v9.07h-1.55Z" style="fill: #12181e; stroke-width: 0px;"/>
    <path d="M510.05,402.84v1.44h-2.34l-.04,4.86c0,.99.25,1.48,1.3,1.48.5,0,.81-.07,1.08-.16v1.39c-.27.11-.68.2-1.35.2-1.71,0-2.59-.76-2.57-2.61l.04-5.15h-1.69v-1.44h1.69l.02-2.27h1.57l-.02,2.27h2.32Z" style="fill: #12181e; stroke-width: 0px;"/>
    <path d="M519.7,407.99h-6.88c.11,1.67,1.24,2.68,2.79,2.68,1.21,0,2.09-.52,2.45-1.48h1.55c-.54,1.8-1.94,2.92-4.03,2.92-2.56,0-4.38-1.85-4.38-4.72s1.73-4.75,4.38-4.75c2.38,0,4.12,1.55,4.12,4.61v.74ZM518.13,406.6c-.02-1.55-1.04-2.52-2.56-2.52s-2.57,1.06-2.75,2.52h5.31Z" style="fill: #12181e; stroke-width: 0px;"/>
    <path d="M528.5,411.91l-.09-1.33c-.56.81-1.48,1.53-3.11,1.53-2.56,0-4.23-2.05-4.23-4.74s1.69-4.74,4.25-4.74c1.51,0,2.52.67,3.03,1.44v-5.31h1.55v13.14h-1.39ZM522.67,407.38c0,1.93,1.13,3.28,2.86,3.28,1.48,0,2.83-1.22,2.83-3.19v-.09c0-2.02-1.37-3.26-2.81-3.26-1.69,0-2.88,1.35-2.88,3.26Z" style="fill: #12181e; stroke-width: 0px;"/>
    <path d="M543.31,402.64h-1.66c-.02-1.35-.86-2.09-2.07-2.09s-1.95.7-1.95,1.91.79,1.64,2.5,2.32c2.54.94,3.57,1.85,3.57,3.71,0,2.3-1.62,3.65-3.91,3.65-2.67,0-4.14-1.6-4.18-3.94h1.66c.04,1.6.95,2.48,2.54,2.48,1.48,0,2.23-.9,2.23-2.09,0-1.08-.76-1.66-2.65-2.32-2.14-.79-3.42-1.66-3.42-3.69s1.3-3.51,3.64-3.51c2.2,0,3.64,1.22,3.69,3.56Z" style="fill: #12181e; stroke-width: 0px;"/>
    <path d="M550.1,402.84v1.44h-2.34l-.04,4.86c0,.99.25,1.48,1.3,1.48.5,0,.81-.07,1.08-.16v1.39c-.27.11-.68.2-1.35.2-1.71,0-2.59-.76-2.57-2.61l.04-5.15h-1.69v-1.44h1.69l.02-2.27h1.57l-.02,2.27h2.32Z" style="fill: #12181e; stroke-width: 0px;"/>
    <path d="M558.33,405.9v6.01h-1.4l-.07-1.24c-.45.81-1.42,1.44-2.75,1.44-1.58,0-2.65-.97-2.65-2.56s1.12-2.36,2.54-2.63l2.77-.52v-.45c0-1.3-.59-1.87-1.67-1.87-.99,0-1.85.54-1.85,1.66h-1.53c.05-1.75,1.39-3.1,3.38-3.1s3.24,1.15,3.24,3.26ZM553.01,409.54c0,.72.5,1.13,1.39,1.13.76,0,1.42-.32,1.84-.9.31-.41.52-1.04.52-1.67v-.34l-2.49.54c-.68.16-1.26.43-1.26,1.24Z" style="fill: #12181e; stroke-width: 0px;"/>
    <path d="M565.2,402.84v1.44h-2.34l-.04,4.86c0,.99.25,1.48,1.3,1.48.5,0,.81-.07,1.08-.16v1.39c-.27.11-.68.2-1.35.2-1.71,0-2.59-.76-2.57-2.61l.04-5.15h-1.69v-1.44h1.69l.02-2.27h1.57l-.02,2.27h2.32Z" style="fill: #12181e; stroke-width: 0px;"/>
    <path d="M574.85,407.99h-6.88c.11,1.67,1.24,2.68,2.79,2.68,1.21,0,2.09-.52,2.45-1.48h1.55c-.54,1.8-1.94,2.92-4.03,2.92-2.56,0-4.38-1.85-4.38-4.72s1.73-4.75,4.38-4.75c2.38,0,4.12,1.55,4.12,4.61v.74ZM573.28,406.6c-.02-1.55-1.04-2.52-2.56-2.52s-2.57,1.06-2.75,2.52h5.31Z" style="fill: #12181e; stroke-width: 0px;"/>
    <path d="M582.41,405.5h-1.58c-.02-.95-.47-1.42-1.44-1.42s-1.39.56-1.39,1.22c0,.7.36.99,1.71,1.31,2.16.5,2.97,1.26,2.97,2.72,0,1.76-1.37,2.77-3.19,2.77-2.11,0-3.28-1.19-3.31-2.95h1.58c.02.95.63,1.51,1.76,1.51,1.04,0,1.57-.52,1.57-1.22,0-.76-.4-1.12-1.89-1.46-1.89-.43-2.79-1.1-2.79-2.59s1.04-2.75,3.01-2.75c1.76,0,2.95,1.15,2.99,2.86Z" style="fill: #12181e; stroke-width: 0px;"/>
  </g>
  <g id="callout-line-svg">
    <path d="M413.37,101.26c-13.84-7.17-29.06-11.94-45.66-14.3" style="fill: none; stroke: #12181e;"/>
    <path d="M373.17,83.69l-5.46,3.27,4.74,4.76" style="fill: none; stroke: #12181e; stroke-miterlimit: 4; stroke-width: 1px;"/>
  </g>
  <g style="isolation: isolate;">
    <path d="M445,107.04c0,3.78-2.7,6.55-6.52,6.55s-6.54-2.77-6.54-6.55,2.7-6.52,6.54-6.52,6.52,2.75,6.52,6.52ZM434.5,107.04c0,2.45,1.57,4.25,3.98,4.25s3.96-1.8,3.96-4.25-1.57-4.21-3.96-4.21-3.98,1.78-3.98,4.21Z" style="fill: #12181e; stroke-width: 0px;"/>
    <path d="M449.08,113.36l-3.29-9.13h2.5l1.8,5.62.18.79.18-.79,1.8-5.62h2.5l-3.29,9.13h-2.38Z" style="fill: #12181e; stroke-width: 0px;"/>
    <path d="M464.01,109.51h-6.36c.07,1.21.9,2.05,2.18,2.05.92,0,1.6-.36,1.85-1.06h2.27c-.56,1.93-1.98,3.06-4.18,3.06-2.7,0-4.54-1.87-4.54-4.75s1.82-4.77,4.54-4.77c2.41,0,4.23,1.53,4.23,4.74v.74ZM461.67,107.91c-.04-1.19-.79-1.94-1.94-1.94s-1.96.81-2.07,1.94h4.01Z" style="fill: #12181e; stroke-width: 0px;"/>
    <path d="M468.96,107.03c-.43.32-.72.86-.74,1.67v4.66h-2.34v-9.13h2.02l.2,1.46c.32-.79,1.12-1.55,2.68-1.55v2.32c-.74,0-1.3.13-1.82.56Z" style="fill: #12181e; stroke-width: 0px;"/>
    <path d="M479.23,107.37v6h-2l-.14-1.12c-.49.74-1.31,1.31-2.61,1.31-1.62,0-2.77-.99-2.77-2.63,0-1.78,1.21-2.47,2.83-2.74l2.36-.41v-.36c0-.92-.43-1.39-1.28-1.39-.77,0-1.39.47-1.39,1.21h-2.25c.11-1.85,1.48-3.21,3.64-3.21s3.62,1.1,3.62,3.33ZM474.03,110.73c0,.54.38.9,1.08.9.58,0,1.13-.29,1.46-.83.2-.31.32-.76.32-1.21v-.27l-1.82.38c-.61.14-1.04.41-1.04,1.03Z" style="fill: #12181e; stroke-width: 0px;"/>
    <path d="M481.46,113.36v-13.14h2.32v13.14h-2.32Z" style="fill: #12181e; stroke-width: 0px;"/>
    <path d="M486.23,113.36v-13.14h2.32v13.14h-2.32Z" style="fill: #12181e; stroke-width: 0px;"/>
    <path d="M492.62,112.55c0,1.12-.58,2.34-1.31,3.17l-.5-.2c.36-.63.54-1.3.63-2.03-.56-.05-.97-.45-.97-1.04s.47-1.06,1.08-1.06,1.08.45,1.08,1.17Z" style="fill: #12181e; stroke-width: 0px;"/>
    <path d="M505.03,113.36l-.09-1.33c-.56.81-1.48,1.53-3.11,1.53-2.56,0-4.23-2.05-4.23-4.74s1.69-4.74,4.25-4.74c1.51,0,2.52.67,3.03,1.44v-5.31h1.55v13.14h-1.39ZM499.19,108.83c0,1.93,1.13,3.28,2.86,3.28,1.48,0,2.83-1.22,2.83-3.19v-.09c0-2.02-1.37-3.26-2.81-3.26-1.69,0-2.88,1.35-2.88,3.26Z" style="fill: #12181e; stroke-width: 0px;"/>
    <path d="M511.6,106.41c-.49.45-.81,1.15-.83,2.14v4.81h-1.55v-9.07h1.39l.11,1.58c.31-.83,1.15-1.67,2.72-1.67v1.55c-.72,0-1.33.2-1.84.67Z" style="fill: #12181e; stroke-width: 0px;"/>
    <path d="M520.58,113.36l-.09-1.24c-.41.86-1.24,1.44-2.5,1.44-1.96,0-2.92-1.39-2.92-3.4v-5.87h1.55v5.62c0,1.42.63,2.16,1.73,2.16,1.17,0,2.07-.99,2.07-2.74v-5.04h1.55v9.07h-1.39Z" style="fill: #12181e; stroke-width: 0px;"/>
    <path d="M532.41,105.66h-1.57c.27.49.43,1.06.43,1.69,0,1.8-1.35,3.22-3.46,3.22-.76,0-1.42-.18-1.94-.49-.22.2-.38.5-.38.9,0,.59.47.92,1.15.92h2.41c1.93,0,2.86.95,2.86,2.47,0,1.93-1.46,3.06-3.78,3.06-2.57,0-3.96-1.04-3.96-2.83,0-.86.47-1.35.99-1.64-.61-.31-1.21-.97-1.21-1.89,0-.83.41-1.46.94-1.85-.38-.52-.58-1.17-.58-1.87,0-1.87,1.37-3.26,3.49-3.26.47,0,.9.07,1.3.2h3.29v1.37ZM525.71,114.55c0,.99.9,1.51,2.43,1.51,1.4,0,2.25-.54,2.25-1.62,0-.85-.63-1.17-1.64-1.17h-1.73c-.68.04-1.31.4-1.31,1.28ZM529.74,107.35c0-1.08-.74-1.89-1.94-1.89s-1.94.81-1.94,1.89.76,1.85,1.94,1.85,1.94-.81,1.94-1.85Z" style="fill: #12181e; stroke-width: 0px;"/>
    <path d="M539.21,106.95h-1.58c-.02-.95-.47-1.42-1.44-1.42s-1.39.56-1.39,1.22c0,.7.36.99,1.71,1.31,2.16.5,2.97,1.26,2.97,2.72,0,1.76-1.37,2.77-3.19,2.77-2.11,0-3.28-1.19-3.31-2.95h1.58c.02.95.63,1.51,1.76,1.51,1.04,0,1.57-.52,1.57-1.22,0-.76-.4-1.12-1.89-1.46-1.89-.43-2.79-1.1-2.79-2.59s1.04-2.75,3.01-2.75c1.76,0,2.95,1.15,2.99,2.86Z" style="fill: #12181e; stroke-width: 0px;"/>
    <path d="M551.56,107.35v6.01h-1.4l-.07-1.24c-.45.81-1.42,1.44-2.75,1.44-1.58,0-2.65-.97-2.65-2.56s1.12-2.36,2.54-2.63l2.77-.52v-.45c0-1.3-.59-1.87-1.67-1.87-.99,0-1.85.54-1.85,1.66h-1.53c.05-1.75,1.39-3.1,3.38-3.1s3.24,1.15,3.24,3.26ZM546.25,110.99c0,.72.5,1.13,1.39,1.13.76,0,1.42-.32,1.84-.9.31-.41.52-1.04.52-1.67v-.34l-2.49.54c-.68.16-1.26.43-1.26,1.24Z" style="fill: #12181e; stroke-width: 0px;"/>
    <path d="M556.56,106.41c-.49.45-.81,1.15-.83,2.14v4.81h-1.55v-9.07h1.39l.11,1.58c.31-.83,1.15-1.67,2.72-1.67v1.55c-.72,0-1.33.2-1.84.67Z" style="fill: #12181e; stroke-width: 0px;"/>
    <path d="M567.74,109.44h-6.88c.11,1.67,1.24,2.68,2.79,2.68,1.21,0,2.09-.52,2.45-1.48h1.55c-.54,1.8-1.94,2.92-4.03,2.92-2.56,0-4.38-1.85-4.38-4.72s1.73-4.75,4.38-4.75c2.38,0,4.12,1.55,4.12,4.61v.74ZM566.17,108.05c-.02-1.55-1.04-2.52-2.56-2.52s-2.57,1.06-2.75,2.52h5.31Z" style="fill: #12181e; stroke-width: 0px;"/>
    <path d="M580,104.02c0,1.46-.65,2.56-1.53,3.69l-3.22,4.12h4.95v1.53h-7.2v-1.21l4.05-5.11c.9-1.13,1.3-1.87,1.3-2.97,0-1.3-.61-2.02-1.87-2.02-1.13,0-1.96.72-1.96,2.34h-1.64c0-2.38,1.4-3.87,3.62-3.87s3.51,1.39,3.51,3.49Z" style="fill: #12181e; stroke-width: 0px;"/>
    <path d="M583.81,112.44c0,.63-.5,1.12-1.13,1.12s-1.13-.49-1.13-1.12.49-1.12,1.13-1.12,1.13.47,1.13,1.12Z" style="fill: #12181e; stroke-width: 0px;"/>
    <path d="M587.59,113.36h-1.78l4.97-11.04h-5.64v-1.57h7.51v1.33l-5.06,11.27Z" style="fill: #12181e; stroke-width: 0px;"/>
    <path d="M601.53,104.07c0,1.57-.9,2.48-1.55,2.81.81.36,1.95,1.26,1.95,3.02,0,2.14-1.75,3.69-4.02,3.69s-4.03-1.55-4.03-3.69c0-1.6.94-2.65,1.94-3.02-.67-.34-1.53-1.26-1.53-2.81,0-1.96,1.4-3.55,3.62-3.55s3.62,1.58,3.62,3.55ZM595.53,109.87c0,1.4,1.12,2.21,2.38,2.21s2.36-.81,2.36-2.21-1.12-2.25-2.36-2.25-2.38.85-2.38,2.25ZM595.91,104.11c0,1.24.83,2.02,2,2.02s2-.77,2-2.02-.85-2.07-2-2.07-2,.81-2,2.07Z" style="fill: #12181e; stroke-width: 0px;"/>
    <path d="M611.57,113.36h-1.84l-2.36-3.46-2.34,3.46h-1.84l3.13-4.68-2.94-4.39h1.84l2.14,3.17,2.16-3.17h1.84l-2.95,4.39,3.15,4.68Z" style="fill: #12181e; stroke-width: 0px;"/>
    <path d="M444.96,129.09v5.87h-1.55v-5.62c0-1.4-.65-2.14-1.75-2.14-1.19,0-2.09,1.04-2.09,2.9v4.86h-1.55v-5.62c0-1.4-.65-2.14-1.75-2.14-1.19,0-2.09,1.04-2.09,2.9v4.86h-1.55v-9.07h1.39l.09,1.24c.41-.79,1.28-1.44,2.52-1.44,1.35,0,2.23.67,2.65,1.73.47-.9,1.33-1.73,2.74-1.73,1.96,0,2.93,1.4,2.93,3.4Z" style="fill: #12181e; stroke-width: 0px;"/>
    <path d="M455.98,130.43c0,2.75-1.89,4.74-4.59,4.74s-4.61-1.98-4.61-4.74,1.89-4.74,4.61-4.74,4.59,1.98,4.59,4.74ZM448.38,130.43c0,1.87,1.21,3.29,3.02,3.29s2.97-1.42,2.97-3.29-1.17-3.3-2.97-3.3-3.02,1.4-3.02,3.3Z" style="fill: #12181e; stroke-width: 0px;"/>
    <path d="M460.48,128.01c-.49.45-.81,1.15-.83,2.14v4.81h-1.55v-9.07h1.39l.11,1.58c.31-.83,1.15-1.67,2.72-1.67v1.55c-.72,0-1.33.2-1.84.67Z" style="fill: #12181e; stroke-width: 0px;"/>
    <path d="M471.66,131.04h-6.88c.11,1.67,1.24,2.68,2.79,2.68,1.21,0,2.09-.52,2.45-1.48h1.55c-.54,1.8-1.94,2.92-4.03,2.92-2.56,0-4.38-1.85-4.38-4.72s1.73-4.75,4.38-4.75c2.38,0,4.12,1.55,4.12,4.61v.74ZM470.09,129.65c-.02-1.55-1.04-2.52-2.56-2.52s-2.58,1.06-2.75,2.52h5.31Z" style="fill: #12181e; stroke-width: 0px;"/>
    <path d="M485.08,131.04h-6.88c.11,1.67,1.24,2.68,2.79,2.68,1.21,0,2.09-.52,2.45-1.48h1.55c-.54,1.8-1.94,2.92-4.03,2.92-2.56,0-4.38-1.85-4.38-4.72s1.73-4.75,4.38-4.75c2.38,0,4.12,1.55,4.12,4.61v.74ZM483.52,129.65c-.02-1.55-1.04-2.52-2.56-2.52s-2.58,1.06-2.75,2.52h5.31Z" style="fill: #12181e; stroke-width: 0px;"/>
    <path d="M494.07,134.96h-1.84l-2.36-3.46-2.34,3.46h-1.84l3.13-4.68-2.94-4.39h1.84l2.14,3.17,2.16-3.17h1.84l-2.95,4.39,3.15,4.68Z" style="fill: #12181e; stroke-width: 0px;"/>
    <path d="M504.76,130.43c0,2.68-1.69,4.74-4.25,4.74-1.51,0-2.52-.67-3.01-1.44v5.11h-1.57v-12.95h1.4l.07,1.33c.56-.81,1.48-1.53,3.11-1.53,2.56,0,4.23,2.05,4.23,4.74ZM497.47,130.34v.09c0,2.02,1.37,3.26,2.81,3.26,1.69,0,2.88-1.35,2.88-3.26s-1.13-3.28-2.86-3.28c-1.48,0-2.83,1.22-2.83,3.19Z" style="fill: #12181e; stroke-width: 0px;"/>
    <path d="M514.68,131.04h-6.88c.11,1.67,1.24,2.68,2.79,2.68,1.21,0,2.09-.52,2.45-1.48h1.55c-.54,1.8-1.94,2.92-4.03,2.92-2.56,0-4.38-1.85-4.38-4.72s1.73-4.75,4.38-4.75c2.38,0,4.12,1.55,4.12,4.61v.74ZM513.11,129.65c-.02-1.55-1.04-2.52-2.56-2.52s-2.57,1.06-2.75,2.52h5.31Z" style="fill: #12181e; stroke-width: 0px;"/>
    <path d="M523.66,129.09v5.87h-1.57v-5.62c0-1.4-.67-2.14-1.76-2.14-1.19,0-2.11,1.04-2.11,2.9v4.86h-1.55v-9.07h1.39l.09,1.24c.41-.79,1.28-1.44,2.56-1.44,1.94,0,2.95,1.4,2.95,3.4Z" style="fill: #12181e; stroke-width: 0px;"/>
    <path d="M531.78,128.55h-1.58c-.02-.95-.47-1.42-1.44-1.42s-1.39.56-1.39,1.22c0,.7.36.99,1.71,1.31,2.16.5,2.97,1.26,2.97,2.72,0,1.76-1.37,2.77-3.19,2.77-2.11,0-3.28-1.19-3.31-2.95h1.58c.02.95.63,1.51,1.76,1.51,1.04,0,1.57-.52,1.57-1.22,0-.76-.4-1.12-1.89-1.46-1.89-.43-2.79-1.1-2.79-2.59s1.04-2.75,3.01-2.75c1.76,0,2.95,1.15,2.99,2.86Z" style="fill: #12181e; stroke-width: 0px;"/>
    <path d="M536.02,123.1c0,.58-.49,1.04-1.08,1.04s-1.06-.47-1.06-1.04.47-1.06,1.06-1.06,1.08.47,1.08,1.06ZM534.17,134.96v-9.07h1.55v9.07h-1.55Z" style="fill: #12181e; stroke-width: 0px;"/>
    <path d="M540.85,134.96l-3.46-9.07h1.66l2.39,6.52.18.68.18-.68,2.39-6.52h1.67l-3.48,9.07h-1.55Z" style="fill: #12181e; stroke-width: 0px;"/>
    <path d="M554.94,131.04h-6.88c.11,1.67,1.24,2.68,2.79,2.68,1.21,0,2.09-.52,2.45-1.48h1.55c-.54,1.8-1.94,2.92-4.03,2.92-2.56,0-4.38-1.85-4.38-4.72s1.73-4.75,4.38-4.75c2.38,0,4.12,1.55,4.12,4.61v.74ZM553.38,129.65c-.02-1.55-1.04-2.52-2.56-2.52s-2.57,1.06-2.75,2.52h5.31Z" style="fill: #12181e; stroke-width: 0px;"/>
    <path d="M562.52,123.1c0,.58-.49,1.04-1.08,1.04s-1.06-.47-1.06-1.04.47-1.06,1.06-1.06,1.08.47,1.08,1.06ZM560.66,134.96v-9.07h1.55v9.07h-1.55Z" style="fill: #12181e; stroke-width: 0px;"/>
    <path d="M571.95,129.09v5.87h-1.57v-5.62c0-1.4-.67-2.14-1.76-2.14-1.19,0-2.11,1.04-2.11,2.9v4.86h-1.55v-9.07h1.39l.09,1.24c.41-.79,1.28-1.44,2.56-1.44,1.94,0,2.95,1.4,2.95,3.4Z" style="fill: #12181e; stroke-width: 0px;"/>
    <path d="M582.55,125.89v1.44h-2.34l-.04,4.86c0,.99.25,1.48,1.3,1.48.5,0,.81-.07,1.08-.16v1.39c-.27.11-.68.2-1.35.2-1.71,0-2.59-.76-2.57-2.61l.04-5.15h-1.69v-1.44h1.69l.02-2.27h1.57l-.02,2.27h2.32Z" style="fill: #12181e; stroke-width: 0px;"/>
    <path d="M588.48,125.69c1.94,0,2.95,1.4,2.95,3.4v5.87h-1.57v-5.62c0-1.4-.67-2.14-1.76-2.14-1.19,0-2.11,1.04-2.11,2.9v4.86h-1.55v-13.14h1.55v5.2c.34-.7,1.17-1.33,2.49-1.33Z" style="fill: #12181e; stroke-width: 0px;"/>
    <path d="M601.74,131.04h-6.88c.11,1.67,1.24,2.68,2.79,2.68,1.21,0,2.09-.52,2.45-1.48h1.55c-.54,1.8-1.94,2.92-4.03,2.92-2.56,0-4.38-1.85-4.38-4.72s1.73-4.75,4.38-4.75c2.38,0,4.12,1.55,4.12,4.61v.74ZM600.17,129.65c-.02-1.55-1.04-2.52-2.56-2.52s-2.57,1.06-2.75,2.52h5.31Z" style="fill: #12181e; stroke-width: 0px;"/>
    <path d="M437.47,156.8c-3.11,0-4.95-1.82-4.95-5.22v-7.62h1.64v7.62c0,2.41,1.1,3.69,3.31,3.69s3.29-1.26,3.29-3.69v-7.62h1.64v7.62c0,3.4-1.82,5.22-4.93,5.22Z" style="fill: #12181e; stroke-width: 0px;"/>
    <path d="M451.97,150.69v5.87h-1.57v-5.62c0-1.4-.67-2.14-1.76-2.14-1.19,0-2.11,1.04-2.11,2.9v4.86h-1.55v-9.07h1.39l.09,1.24c.41-.79,1.28-1.44,2.56-1.44,1.94,0,2.95,1.4,2.95,3.4Z" style="fill: #12181e; stroke-width: 0px;"/>
    <path d="M456.43,144.7c0,.58-.49,1.04-1.08,1.04s-1.06-.47-1.06-1.04.47-1.06,1.06-1.06,1.08.47,1.08,1.06ZM454.57,156.56v-9.07h1.55v9.07h-1.55Z" style="fill: #12181e; stroke-width: 0px;"/>
    <path d="M463.25,147.49v1.44h-2.34l-.04,4.86c0,.99.25,1.48,1.3,1.48.5,0,.81-.07,1.08-.16v1.39c-.27.11-.68.2-1.35.2-1.71,0-2.59-.76-2.58-2.61l.04-5.15h-1.69v-1.44h1.69l.02-2.27h1.57l-.02,2.27h2.32Z" style="fill: #12181e; stroke-width: 0px;"/>
    <path d="M472.9,152.64h-6.88c.11,1.67,1.24,2.68,2.79,2.68,1.21,0,2.09-.52,2.45-1.48h1.55c-.54,1.8-1.94,2.92-4.03,2.92-2.56,0-4.38-1.85-4.38-4.72s1.73-4.75,4.38-4.75c2.38,0,4.12,1.55,4.12,4.61v.74ZM471.33,151.25c-.02-1.55-1.04-2.52-2.56-2.52s-2.58,1.06-2.75,2.52h5.31Z" style="fill: #12181e; stroke-width: 0px;"/>
    <path d="M481.7,156.56l-.09-1.33c-.56.81-1.48,1.53-3.12,1.53-2.56,0-4.23-2.05-4.23-4.74s1.69-4.74,4.25-4.74c1.51,0,2.52.67,3.03,1.44v-5.31h1.55v13.14h-1.39ZM475.87,152.03c0,1.93,1.13,3.28,2.86,3.28,1.48,0,2.83-1.22,2.83-3.19v-.09c0-2.02-1.37-3.26-2.81-3.26-1.69,0-2.88,1.35-2.88,3.26Z" style="fill: #12181e; stroke-width: 0px;"/>
    <path d="M496.51,147.29h-1.66c-.02-1.35-.86-2.09-2.07-2.09s-1.95.7-1.95,1.91.79,1.64,2.5,2.32c2.54.94,3.57,1.85,3.57,3.71,0,2.3-1.62,3.65-3.91,3.65-2.67,0-4.14-1.6-4.18-3.94h1.66c.04,1.6.95,2.48,2.54,2.48,1.48,0,2.23-.9,2.23-2.09,0-1.08-.76-1.66-2.65-2.32-2.14-.79-3.42-1.66-3.42-3.69s1.3-3.51,3.64-3.51c2.2,0,3.64,1.22,3.69,3.56Z" style="fill: #12181e; stroke-width: 0px;"/>
    <path d="M503.3,147.49v1.44h-2.34l-.04,4.86c0,.99.25,1.48,1.3,1.48.5,0,.81-.07,1.08-.16v1.39c-.27.11-.68.2-1.35.2-1.71,0-2.59-.76-2.57-2.61l.04-5.15h-1.69v-1.44h1.69l.02-2.27h1.57l-.02,2.27h2.32Z" style="fill: #12181e; stroke-width: 0px;"/>
    <path d="M511.53,150.55v6.01h-1.4l-.07-1.24c-.45.81-1.42,1.44-2.75,1.44-1.58,0-2.65-.97-2.65-2.56s1.12-2.36,2.54-2.63l2.77-.52v-.45c0-1.3-.59-1.87-1.67-1.87-.99,0-1.85.54-1.85,1.66h-1.53c.05-1.75,1.39-3.1,3.38-3.1s3.24,1.15,3.24,3.26ZM506.21,154.19c0,.72.5,1.13,1.39,1.13.76,0,1.42-.32,1.84-.9.31-.41.52-1.04.52-1.67v-.34l-2.49.54c-.68.16-1.26.43-1.26,1.24Z" style="fill: #12181e; stroke-width: 0px;"/>
    <path d="M518.4,147.49v1.44h-2.34l-.04,4.86c0,.99.25,1.48,1.3,1.48.5,0,.81-.07,1.08-.16v1.39c-.27.11-.68.2-1.35.2-1.71,0-2.59-.76-2.57-2.61l.04-5.15h-1.69v-1.44h1.69l.02-2.27h1.57l-.02,2.27h2.32Z" style="fill: #12181e; stroke-width: 0px;"/>
    <path d="M528.05,152.64h-6.88c.11,1.67,1.24,2.68,2.79,2.68,1.21,0,2.09-.52,2.45-1.48h1.55c-.54,1.8-1.94,2.92-4.03,2.92-2.56,0-4.38-1.85-4.38-4.72s1.73-4.75,4.38-4.75c2.38,0,4.12,1.55,4.12,4.61v.74ZM526.48,151.25c-.02-1.55-1.04-2.52-2.56-2.52s-2.57,1.06-2.75,2.52h5.31Z" style="fill: #12181e; stroke-width: 0px;"/>
    <path d="M535.61,150.15h-1.58c-.02-.95-.47-1.42-1.44-1.42s-1.39.56-1.39,1.22c0,.7.36.99,1.71,1.31,2.16.5,2.97,1.26,2.97,2.72,0,1.76-1.37,2.77-3.19,2.77-2.11,0-3.28-1.19-3.31-2.95h1.58c.02.95.63,1.51,1.76,1.51,1.04,0,1.57-.52,1.57-1.22,0-.76-.4-1.12-1.89-1.46-1.89-.43-2.79-1.1-2.79-2.59s1.04-2.75,3.01-2.75c1.76,0,2.95,1.15,2.99,2.86Z" style="fill: #12181e; stroke-width: 0px;"/>
  </g>
  <g style="isolation: isolate;">
    <path d="M444.03,620.44h-2.7c-.47-1.24-1.39-1.98-3.13-1.98-2.18,0-3.69,1.78-3.69,4.21s1.51,4.25,3.8,4.25c1.84,0,3.04-.85,3.19-2.43h-3.02v-2.3h5.65v1.1c0,3.78-2.36,5.94-5.82,5.94-3.75,0-6.36-2.77-6.36-6.55s2.61-6.52,6.3-6.52c3.19,0,5.09,1.76,5.78,4.29Z" style="fill: #12181e; stroke-width: 0px;"/>
    <path d="M454.18,625.14h-6.36c.07,1.21.9,2.05,2.18,2.05.92,0,1.6-.36,1.85-1.06h2.27c-.56,1.93-1.98,3.06-4.18,3.06-2.7,0-4.54-1.87-4.54-4.75s1.82-4.77,4.54-4.77c2.41,0,4.23,1.53,4.23,4.74v.74ZM451.84,623.54c-.04-1.19-.79-1.94-1.94-1.94s-1.96.81-2.07,1.94h4.02Z" style="fill: #12181e; stroke-width: 0px;"/>
    <path d="M463.59,623.07v5.92h-2.32v-5.42c0-1.06-.45-1.64-1.33-1.64s-1.6.7-1.6,2.23v4.83h-2.32v-9.13h2l.16,1.19c.41-.76,1.26-1.39,2.47-1.39,1.95,0,2.95,1.33,2.95,3.4Z" style="fill: #12181e; stroke-width: 0px;"/>
    <path d="M474.03,625.14h-6.36c.07,1.21.9,2.05,2.18,2.05.92,0,1.6-.36,1.85-1.06h2.27c-.56,1.93-1.98,3.06-4.18,3.06-2.7,0-4.54-1.87-4.54-4.75s1.82-4.77,4.54-4.77c2.41,0,4.23,1.53,4.23,4.74v.74ZM471.69,623.54c-.04-1.19-.79-1.94-1.94-1.94s-1.96.81-2.07,1.94h4.02Z" style="fill: #12181e; stroke-width: 0px;"/>
    <path d="M478.98,622.66c-.43.32-.72.86-.74,1.67v4.66h-2.34v-9.13h2.02l.2,1.46c.32-.79,1.12-1.55,2.68-1.55v2.32c-.74,0-1.3.13-1.82.56Z" style="fill: #12181e; stroke-width: 0px;"/>
    <path d="M485.07,617.18c0,.79-.63,1.39-1.42,1.39s-1.4-.59-1.4-1.39.63-1.39,1.4-1.39,1.42.61,1.42,1.39ZM482.49,629v-9.13h2.32v9.13h-2.32Z" style="fill: #12181e; stroke-width: 0px;"/>
    <path d="M495.4,623.09h-2.23c-.29-.83-.97-1.3-1.93-1.3-1.24,0-2.2,1.1-2.2,2.65s.94,2.63,2.27,2.63c.94,0,1.64-.54,1.85-1.3h2.27c-.43,2.27-2.12,3.42-4.23,3.42-2.66,0-4.57-1.93-4.57-4.75s1.91-4.77,4.57-4.77c2.14,0,3.85,1.12,4.2,3.42Z" style="fill: #12181e; stroke-width: 0px;"/>
    <path d="M507.4,629l-.16-1.22c-.52.74-1.35,1.42-2.92,1.42-2.45,0-4.23-2.09-4.23-4.77s1.78-4.75,4.25-4.75c1.31,0,2.27.54,2.74,1.21v-5.02h2.32v13.14h-2ZM502.51,624.42c0,1.58.99,2.59,2.3,2.59,1.15,0,2.32-.9,2.32-2.54v-.11c-.02-1.62-1.19-2.52-2.32-2.52-1.28,0-2.3,1.01-2.3,2.58Z" style="fill: #12181e; stroke-width: 0px;"/>
    <path d="M514.96,622.66c-.43.32-.72.86-.74,1.67v4.66h-2.34v-9.13h2.02l.2,1.46c.32-.79,1.12-1.55,2.68-1.55v2.32c-.74,0-1.3.13-1.82.56Z" style="fill: #12181e; stroke-width: 0px;"/>
    <path d="M523.86,629l-.18-1.19c-.41.79-1.22,1.39-2.41,1.39-1.96,0-2.93-1.33-2.93-3.4v-5.92h2.32v5.4c0,1.08.43,1.66,1.3,1.66s1.58-.68,1.58-2.16v-4.9h2.32v9.13h-2Z" style="fill: #12181e; stroke-width: 0px;"/>
    <path d="M536.46,621.85h-1.35c.11.32.16.68.16,1.06,0,1.84-1.48,3.17-3.58,3.17-.54,0-1.06-.09-1.51-.23-.13.16-.23.38-.23.67,0,.49.36.76.92.76h2.16c1.87,0,2.99.92,2.99,2.63,0,2.05-1.6,3.17-4.03,3.17-2.72,0-4.14-1.01-4.14-2.81,0-.79.47-1.31.92-1.6-.56-.38-1.06-1.08-1.06-1.96s.4-1.49.95-1.93c-.41-.5-.63-1.13-.63-1.85,0-1.89,1.51-3.24,3.67-3.24.47,0,.92.05,1.31.2h3.46v1.98ZM530.12,630.08c0,.83.72,1.24,1.85,1.24s1.75-.43,1.75-1.28c0-.68-.49-1.01-1.3-1.01h-1.37c-.52.07-.94.41-.94,1.04ZM533.04,622.91c0-.88-.56-1.48-1.37-1.48s-1.37.59-1.37,1.48.54,1.46,1.37,1.46,1.37-.61,1.37-1.46Z" style="fill: #12181e; stroke-width: 0px;"/>
    <path d="M543.93,622.55h-2.3c-.02-.67-.34-1.04-1.04-1.04s-1.01.38-1.01.9c0,.56.31.83,1.58,1.06,2.21.36,2.99,1.28,2.99,2.75,0,2.07-1.64,2.97-3.53,2.97-2.25,0-3.49-1.17-3.57-2.97h2.3c.02.74.5,1.13,1.31,1.13.72,0,1.13-.34,1.13-.88s-.29-.88-1.66-1.13c-2-.34-2.9-1.21-2.9-2.72s1.1-2.95,3.35-2.95c1.93,0,3.28,1.15,3.33,2.88Z" style="fill: #12181e; stroke-width: 0px;"/>
    <path d="M551.65,617.13c0,.58-.49,1.04-1.08,1.04s-1.06-.47-1.06-1.04.47-1.06,1.06-1.06,1.08.47,1.08,1.06ZM549.79,629v-9.08h1.55v9.08h-1.55Z" style="fill: #12181e; stroke-width: 0px;"/>
    <path d="M561.08,623.13v5.87h-1.57v-5.62c0-1.4-.67-2.14-1.76-2.14-1.19,0-2.11,1.04-2.11,2.9v4.86h-1.55v-9.08h1.39l.09,1.24c.41-.79,1.28-1.44,2.56-1.44,1.94,0,2.95,1.4,2.95,3.4Z" style="fill: #12181e; stroke-width: 0px;"/>
    <path d="M437.02,641.52v1.44h-2.34l-.04,4.86c0,.99.25,1.48,1.3,1.48.5,0,.81-.07,1.08-.16v1.39c-.27.11-.68.2-1.35.2-1.71,0-2.59-.76-2.57-2.61l.04-5.15h-1.69v-1.44h1.69l.02-2.27h1.57l-.02,2.27h2.32Z" style="fill: #12181e; stroke-width: 0px;"/>
    <path d="M442.95,641.32c1.94,0,2.95,1.4,2.95,3.4v5.87h-1.57v-5.62c0-1.4-.67-2.14-1.76-2.14-1.19,0-2.11,1.04-2.11,2.9v4.86h-1.55v-13.14h1.55v5.2c.34-.7,1.17-1.33,2.49-1.33Z" style="fill: #12181e; stroke-width: 0px;"/>
    <path d="M456.21,646.67h-6.88c.11,1.67,1.24,2.68,2.79,2.68,1.21,0,2.09-.52,2.45-1.48h1.55c-.54,1.8-1.94,2.92-4.03,2.92-2.56,0-4.38-1.85-4.38-4.72s1.73-4.75,4.38-4.75c2.38,0,4.12,1.55,4.12,4.61v.74ZM454.65,645.28c-.02-1.55-1.04-2.52-2.56-2.52s-2.58,1.06-2.75,2.52h5.31Z" style="fill: #12181e; stroke-width: 0px;"/>
    <path d="M466.71,650.83c-3.12,0-4.95-1.82-4.95-5.22v-7.62h1.64v7.62c0,2.41,1.1,3.69,3.31,3.69s3.29-1.26,3.29-3.69v-7.62h1.64v7.62c0,3.4-1.82,5.22-4.93,5.22Z" style="fill: #12181e; stroke-width: 0px;"/>
    <path d="M481.2,644.73v5.87h-1.57v-5.62c0-1.4-.67-2.14-1.76-2.14-1.19,0-2.11,1.04-2.11,2.9v4.86h-1.55v-9.08h1.39l.09,1.24c.42-.79,1.28-1.44,2.56-1.44,1.94,0,2.95,1.4,2.95,3.4Z" style="fill: #12181e; stroke-width: 0px;"/>
    <path d="M485.66,638.73c0,.58-.49,1.04-1.08,1.04s-1.06-.47-1.06-1.04.47-1.06,1.06-1.06,1.08.47,1.08,1.06ZM483.81,650.6v-9.08h1.55v9.08h-1.55Z" style="fill: #12181e; stroke-width: 0px;"/>
    <path d="M492.48,641.52v1.44h-2.34l-.04,4.86c0,.99.25,1.48,1.3,1.48.5,0,.81-.07,1.08-.16v1.39c-.27.11-.68.2-1.35.2-1.71,0-2.59-.76-2.58-2.61l.04-5.15h-1.69v-1.44h1.69l.02-2.27h1.57l-.02,2.27h2.32Z" style="fill: #12181e; stroke-width: 0px;"/>
    <path d="M502.13,646.67h-6.88c.11,1.67,1.24,2.68,2.79,2.68,1.21,0,2.09-.52,2.45-1.48h1.55c-.54,1.8-1.95,2.92-4.03,2.92-2.56,0-4.38-1.85-4.38-4.72s1.73-4.75,4.38-4.75c2.38,0,4.12,1.55,4.12,4.61v.74ZM500.57,645.28c-.02-1.55-1.04-2.52-2.56-2.52s-2.58,1.06-2.75,2.52h5.31Z" style="fill: #12181e; stroke-width: 0px;"/>
    <path d="M510.93,650.6l-.09-1.33c-.56.81-1.48,1.53-3.11,1.53-2.56,0-4.23-2.05-4.23-4.74s1.69-4.74,4.25-4.74c1.51,0,2.52.67,3.03,1.44v-5.31h1.55v13.14h-1.39ZM505.1,646.06c0,1.93,1.13,3.28,2.86,3.28,1.48,0,2.83-1.22,2.83-3.19v-.09c0-2.02-1.37-3.26-2.81-3.26-1.69,0-2.88,1.35-2.88,3.26Z" style="fill: #12181e; stroke-width: 0px;"/>
    <path d="M525.75,641.32h-1.66c-.02-1.35-.86-2.09-2.07-2.09s-1.94.7-1.94,1.91.79,1.64,2.5,2.32c2.54.94,3.57,1.85,3.57,3.71,0,2.3-1.62,3.66-3.91,3.66-2.67,0-4.14-1.6-4.18-3.94h1.66c.04,1.6.95,2.48,2.54,2.48,1.48,0,2.23-.9,2.23-2.09,0-1.08-.76-1.66-2.65-2.32-2.14-.79-3.42-1.66-3.42-3.69s1.3-3.51,3.64-3.51c2.2,0,3.64,1.22,3.69,3.57Z" style="fill: #12181e; stroke-width: 0px;"/>
    <path d="M532.53,641.52v1.44h-2.34l-.04,4.86c0,.99.25,1.48,1.3,1.48.5,0,.81-.07,1.08-.16v1.39c-.27.11-.68.2-1.35.2-1.71,0-2.59-.76-2.57-2.61l.04-5.15h-1.69v-1.44h1.69l.02-2.27h1.57l-.02,2.27h2.32Z" style="fill: #12181e; stroke-width: 0px;"/>
    <path d="M540.76,644.58v6.01h-1.4l-.07-1.24c-.45.81-1.42,1.44-2.75,1.44-1.58,0-2.65-.97-2.65-2.56s1.12-2.36,2.54-2.63l2.77-.52v-.45c0-1.3-.59-1.87-1.67-1.87-.99,0-1.85.54-1.85,1.66h-1.53c.05-1.75,1.39-3.1,3.38-3.1s3.24,1.15,3.24,3.26ZM535.45,648.22c0,.72.5,1.13,1.39,1.13.76,0,1.42-.32,1.84-.9.31-.41.52-1.04.52-1.67v-.34l-2.49.54c-.68.16-1.26.43-1.26,1.24Z" style="fill: #12181e; stroke-width: 0px;"/>
    <path d="M547.63,641.52v1.44h-2.34l-.04,4.86c0,.99.25,1.48,1.3,1.48.5,0,.81-.07,1.08-.16v1.39c-.27.11-.68.2-1.35.2-1.71,0-2.59-.76-2.57-2.61l.04-5.15h-1.69v-1.44h1.69l.02-2.27h1.57l-.02,2.27h2.32Z" style="fill: #12181e; stroke-width: 0px;"/>
    <path d="M557.28,646.67h-6.88c.11,1.67,1.24,2.68,2.79,2.68,1.21,0,2.09-.52,2.45-1.48h1.55c-.54,1.8-1.94,2.92-4.03,2.92-2.56,0-4.38-1.85-4.38-4.72s1.73-4.75,4.38-4.75c2.38,0,4.12,1.55,4.12,4.61v.74ZM555.72,645.28c-.02-1.55-1.04-2.52-2.56-2.52s-2.57,1.06-2.75,2.52h5.31Z" style="fill: #12181e; stroke-width: 0px;"/>
    <path d="M564.84,644.19h-1.58c-.02-.95-.47-1.42-1.44-1.42s-1.39.56-1.39,1.22c0,.7.36.99,1.71,1.31,2.16.5,2.97,1.26,2.97,2.72,0,1.76-1.37,2.77-3.19,2.77-2.11,0-3.28-1.19-3.31-2.95h1.58c.02.95.63,1.51,1.76,1.51,1.04,0,1.57-.52,1.57-1.22,0-.76-.4-1.12-1.89-1.46-1.89-.43-2.79-1.1-2.79-2.59s1.04-2.75,3.01-2.75c1.76,0,2.95,1.15,2.99,2.86Z" style="fill: #12181e; stroke-width: 0px;"/>
    <path d="M577.19,644.58v6.01h-1.4l-.07-1.24c-.45.81-1.42,1.44-2.75,1.44-1.58,0-2.65-.97-2.65-2.56s1.12-2.36,2.54-2.63l2.77-.52v-.45c0-1.3-.59-1.87-1.67-1.87-.99,0-1.85.54-1.85,1.66h-1.53c.05-1.75,1.39-3.1,3.38-3.1s3.24,1.15,3.24,3.26ZM571.88,648.22c0,.72.5,1.13,1.39,1.13.76,0,1.42-.32,1.84-.9.31-.41.52-1.04.52-1.67v-.34l-2.49.54c-.68.16-1.26.43-1.26,1.24Z" style="fill: #12181e; stroke-width: 0px;"/>
    <path d="M582.19,643.65c-.49.45-.81,1.15-.83,2.14v4.81h-1.55v-9.08h1.39l.11,1.58c.31-.83,1.15-1.67,2.72-1.67v1.55c-.72,0-1.33.2-1.84.67Z" style="fill: #12181e; stroke-width: 0px;"/>
    <path d="M593.37,646.67h-6.88c.11,1.67,1.24,2.68,2.79,2.68,1.21,0,2.09-.52,2.45-1.48h1.55c-.54,1.8-1.94,2.92-4.03,2.92-2.56,0-4.38-1.85-4.38-4.72s1.73-4.75,4.38-4.75c2.38,0,4.12,1.55,4.12,4.61v.74ZM591.81,645.28c-.02-1.55-1.04-2.52-2.56-2.52s-2.57,1.06-2.75,2.52h5.31Z" style="fill: #12181e; stroke-width: 0px;"/>
    <path d="M440.54,665.88c0,3.98-1.51,6.55-4.23,6.55s-4.23-2.58-4.23-6.55,1.49-6.52,4.23-6.52,4.23,2.56,4.23,6.52ZM433.73,665.88c0,3.08.86,5.02,2.57,5.02s2.56-1.94,2.56-5.02-.86-4.99-2.56-4.99-2.57,1.93-2.57,4.99Z" style="fill: #12181e; stroke-width: 0px;"/>
    <path d="M444.04,671.28c0,.63-.5,1.12-1.13,1.12s-1.13-.49-1.13-1.12.49-1.12,1.13-1.12,1.13.47,1.13,1.12Z" style="fill: #12181e; stroke-width: 0px;"/>
    <path d="M453.59,668.36c0,2.34-1.55,4.07-3.94,4.07-1.3,0-2.27-.45-2.97-1.26-1.01-1.15-1.26-2.99-1.26-4.95,0-4.45,1.28-6.86,4.3-6.86,2.02,0,3.51,1.35,3.6,3.47h-1.66c-.13-1.37-.85-1.94-2-1.94-1.66,0-2.54,1.39-2.59,4.79.45-.67,1.44-1.26,2.63-1.26,2.47,0,3.89,1.73,3.89,3.94ZM451.91,668.4c0-1.37-.92-2.45-2.3-2.45-1.31,0-2.4,1.03-2.4,2.41,0,1.26.92,2.56,2.4,2.56,1.39,0,2.3-1.06,2.3-2.52Z" style="fill: #12181e; stroke-width: 0px;"/>
    <path d="M457.26,672.2h-1.78l4.97-11.04h-5.64v-1.57h7.51v1.33l-5.06,11.27Z" style="fill: #12181e; stroke-width: 0px;"/>
    <path d="M471.64,672.2h-1.84l-2.36-3.46-2.34,3.46h-1.84l3.13-4.68-2.93-4.39h1.84l2.14,3.17,2.16-3.17h1.84l-2.95,4.39,3.15,4.68Z" style="fill: #12181e; stroke-width: 0px;"/>
    <path d="M481.43,663.12v1.44h-2.34l-.04,4.86c0,.99.25,1.48,1.3,1.48.5,0,.81-.07,1.08-.16v1.39c-.27.11-.68.2-1.35.2-1.71,0-2.59-.76-2.57-2.61l.04-5.15h-1.69v-1.44h1.69l.02-2.27h1.57l-.02,2.27h2.32Z" style="fill: #12181e; stroke-width: 0px;"/>
    <path d="M487.35,662.92c1.94,0,2.95,1.4,2.95,3.4v5.87h-1.57v-5.62c0-1.41-.67-2.14-1.76-2.14-1.19,0-2.11,1.04-2.11,2.9v4.86h-1.55v-13.14h1.55v5.2c.34-.7,1.17-1.33,2.48-1.33Z" style="fill: #12181e; stroke-width: 0px;"/>
    <path d="M500.62,668.27h-6.88c.11,1.67,1.24,2.68,2.79,2.68,1.21,0,2.09-.52,2.45-1.48h1.55c-.54,1.8-1.94,2.92-4.03,2.92-2.56,0-4.38-1.85-4.38-4.72s1.73-4.75,4.38-4.75c2.38,0,4.12,1.55,4.12,4.61v.74ZM499.05,666.88c-.02-1.55-1.04-2.52-2.56-2.52s-2.57,1.06-2.75,2.52h5.31Z" style="fill: #12181e; stroke-width: 0px;"/>
    <path d="M513.99,665.95h-1.55c-.36-1.01-1.3-1.58-2.47-1.58-1.62,0-2.83,1.39-2.83,3.31s1.21,3.28,2.86,3.28c1.15,0,2.11-.61,2.43-1.58h1.57c-.49,1.98-2.07,3.03-4.05,3.03-2.56,0-4.41-1.98-4.41-4.72s1.85-4.75,4.41-4.75c2,0,3.6,1.04,4.03,3.02Z" style="fill: #12181e; stroke-width: 0px;"/>
    <path d="M524.47,667.66c0,2.75-1.89,4.74-4.59,4.74s-4.61-1.98-4.61-4.74,1.89-4.74,4.61-4.74,4.59,1.98,4.59,4.74ZM516.87,667.66c0,1.87,1.21,3.29,3.02,3.29s2.97-1.42,2.97-3.29-1.17-3.29-2.97-3.29-3.02,1.4-3.02,3.29Z" style="fill: #12181e; stroke-width: 0px;"/>
    <path d="M532.01,665.79h-1.58c-.02-.95-.47-1.42-1.44-1.42s-1.39.56-1.39,1.22c0,.7.36.99,1.71,1.31,2.16.5,2.97,1.26,2.97,2.72,0,1.76-1.37,2.77-3.19,2.77-2.11,0-3.28-1.19-3.31-2.95h1.58c.02.95.63,1.51,1.76,1.51,1.04,0,1.57-.52,1.57-1.22,0-.76-.4-1.12-1.89-1.46-1.89-.43-2.79-1.1-2.79-2.59s1.04-2.75,3.01-2.75c1.76,0,2.95,1.15,2.99,2.86Z" style="fill: #12181e; stroke-width: 0px;"/>
    <path d="M538.72,663.12v1.44h-2.34l-.04,4.86c0,.99.25,1.48,1.3,1.48.5,0,.81-.07,1.08-.16v1.39c-.27.11-.68.2-1.35.2-1.71,0-2.59-.76-2.57-2.61l.04-5.15h-1.69v-1.44h1.69l.02-2.27h1.57l-.02,2.27h2.32Z" style="fill: #12181e; stroke-width: 0px;"/>
    <path d="M552.75,667.66c0,2.75-1.89,4.74-4.59,4.74s-4.61-1.98-4.61-4.74,1.89-4.74,4.61-4.74,4.59,1.98,4.59,4.74ZM545.15,667.66c0,1.87,1.21,3.29,3.02,3.29s2.97-1.42,2.97-3.29-1.17-3.29-2.97-3.29-3.02,1.4-3.02,3.29Z" style="fill: #12181e; stroke-width: 0px;"/>
    <path d="M559.19,659.11v1.4c-.31-.13-.63-.22-1.1-.22-.79,0-1.28.47-1.28,1.48v1.35h2.25v1.42h-2.25v7.65h-1.57v-7.65h-1.64v-1.42h1.64v-1.39c0-1.8.99-2.84,2.72-2.84.54,0,.97.11,1.22.22Z" style="fill: #12181e; stroke-width: 0px;"/>
    <path d="M568.71,663.12v1.44h-2.34l-.04,4.86c0,.99.25,1.48,1.3,1.48.5,0,.81-.07,1.08-.16v1.39c-.27.11-.68.2-1.35.2-1.71,0-2.59-.76-2.57-2.61l.04-5.15h-1.69v-1.44h1.69l.02-2.27h1.57l-.02,2.27h2.32Z" style="fill: #12181e; stroke-width: 0px;"/>
    <path d="M574.63,662.92c1.94,0,2.95,1.4,2.95,3.4v5.87h-1.57v-5.62c0-1.41-.67-2.14-1.76-2.14-1.19,0-2.11,1.04-2.11,2.9v4.86h-1.55v-13.14h1.55v5.2c.34-.7,1.17-1.33,2.49-1.33Z" style="fill: #12181e; stroke-width: 0px;"/>
    <path d="M588.6,667.66c0,2.75-1.89,4.74-4.59,4.74s-4.61-1.98-4.61-4.74,1.89-4.74,4.61-4.74,4.59,1.98,4.59,4.74ZM581,667.66c0,1.87,1.21,3.29,3.02,3.29s2.97-1.42,2.97-3.29-1.17-3.29-2.97-3.29-3.02,1.4-3.02,3.29Z" style="fill: #12181e; stroke-width: 0px;"/>
    <path d="M596.14,665.79h-1.58c-.02-.95-.47-1.42-1.44-1.42s-1.39.56-1.39,1.22c0,.7.36.99,1.71,1.31,2.16.5,2.97,1.26,2.97,2.72,0,1.76-1.37,2.77-3.19,2.77-2.11,0-3.28-1.19-3.31-2.95h1.58c.02.95.63,1.51,1.76,1.51,1.04,0,1.57-.52,1.57-1.22,0-.76-.4-1.12-1.89-1.46-1.89-.43-2.79-1.1-2.79-2.59s1.04-2.75,3.01-2.75c1.76,0,2.95,1.15,2.99,2.86Z" style="fill: #12181e; stroke-width: 0px;"/>
    <path d="M606.24,668.27h-6.88c.11,1.67,1.24,2.68,2.79,2.68,1.21,0,2.09-.52,2.45-1.48h1.55c-.54,1.8-1.94,2.92-4.03,2.92-2.56,0-4.38-1.85-4.38-4.72s1.73-4.75,4.38-4.75c2.38,0,4.12,1.55,4.12,4.61v.74ZM604.67,666.88c-.02-1.55-1.04-2.52-2.56-2.52s-2.57,1.06-2.75,2.52h5.31Z" style="fill: #12181e; stroke-width: 0px;"/>
    <path d="M434.56,681.93c0,.58-.49,1.04-1.08,1.04s-1.06-.47-1.06-1.04.47-1.06,1.06-1.06,1.08.47,1.08,1.06ZM432.7,693.8v-9.07h1.55v9.07h-1.55Z" style="fill: #12181e; stroke-width: 0px;"/>
    <path d="M443.99,687.93v5.87h-1.57v-5.62c0-1.41-.67-2.14-1.76-2.14-1.19,0-2.11,1.04-2.11,2.9v4.86h-1.55v-9.07h1.39l.09,1.24c.41-.79,1.28-1.44,2.56-1.44,1.94,0,2.95,1.4,2.95,3.4Z" style="fill: #12181e; stroke-width: 0px;"/>
    <path d="M458.68,689.26c0,2.75-1.89,4.74-4.59,4.74s-4.61-1.98-4.61-4.74,1.89-4.74,4.61-4.74,4.59,1.98,4.59,4.74ZM451.08,689.26c0,1.87,1.21,3.29,3.03,3.29s2.97-1.42,2.97-3.29-1.17-3.29-2.97-3.29-3.03,1.4-3.03,3.29Z" style="fill: #12181e; stroke-width: 0px;"/>
    <path d="M465.03,684.72v1.44h-2.34l-.04,4.86c0,.99.25,1.48,1.3,1.48.5,0,.81-.07,1.08-.16v1.39c-.27.11-.68.2-1.35.2-1.71,0-2.59-.76-2.58-2.61l.04-5.15h-1.69v-1.44h1.69l.02-2.27h1.57l-.02,2.27h2.32Z" style="fill: #12181e; stroke-width: 0px;"/>
    <path d="M470.95,684.52c1.94,0,2.95,1.4,2.95,3.4v5.87h-1.57v-5.62c0-1.41-.67-2.14-1.76-2.14-1.19,0-2.11,1.04-2.11,2.9v4.86h-1.55v-13.14h1.55v5.2c.34-.7,1.17-1.33,2.49-1.33Z" style="fill: #12181e; stroke-width: 0px;"/>
    <path d="M484.22,689.87h-6.88c.11,1.67,1.24,2.68,2.79,2.68,1.21,0,2.09-.52,2.45-1.48h1.55c-.54,1.8-1.94,2.92-4.03,2.92-2.56,0-4.38-1.85-4.38-4.72s1.73-4.75,4.38-4.75c2.38,0,4.12,1.55,4.12,4.61v.74ZM482.65,688.48c-.02-1.55-1.04-2.52-2.56-2.52s-2.58,1.06-2.75,2.52h5.31Z" style="fill: #12181e; stroke-width: 0px;"/>
    <path d="M488.7,686.85c-.49.45-.81,1.15-.83,2.14v4.81h-1.55v-9.07h1.39l.11,1.58c.31-.83,1.15-1.67,2.72-1.67v1.55c-.72,0-1.33.2-1.84.67Z" style="fill: #12181e; stroke-width: 0px;"/>
    <path d="M503.68,687.55h-1.55c-.36-1.01-1.3-1.58-2.47-1.58-1.62,0-2.83,1.39-2.83,3.31s1.21,3.28,2.86,3.28c1.15,0,2.11-.61,2.43-1.58h1.57c-.49,1.98-2.07,3.03-4.05,3.03-2.56,0-4.41-1.98-4.41-4.72s1.85-4.75,4.41-4.75c2,0,3.6,1.04,4.03,3.02Z" style="fill: #12181e; stroke-width: 0px;"/>
    <path d="M514.15,689.26c0,2.75-1.89,4.74-4.59,4.74s-4.61-1.98-4.61-4.74,1.89-4.74,4.61-4.74,4.59,1.98,4.59,4.74ZM506.56,689.26c0,1.87,1.21,3.29,3.02,3.29s2.97-1.42,2.97-3.29-1.17-3.29-2.97-3.29-3.02,1.4-3.02,3.29Z" style="fill: #12181e; stroke-width: 0px;"/>
    <path d="M521.52,693.8l-.09-1.24c-.41.86-1.24,1.44-2.5,1.44-1.96,0-2.92-1.39-2.92-3.4v-5.87h1.55v5.62c0,1.42.63,2.16,1.73,2.16,1.17,0,2.07-.99,2.07-2.74v-5.04h1.55v9.07h-1.39Z" style="fill: #12181e; stroke-width: 0px;"/>
    <path d="M532.59,687.93v5.87h-1.57v-5.62c0-1.41-.67-2.14-1.76-2.14-1.19,0-2.11,1.04-2.11,2.9v4.86h-1.55v-9.07h1.39l.09,1.24c.41-.79,1.28-1.44,2.56-1.44,1.94,0,2.95,1.4,2.95,3.4Z" style="fill: #12181e; stroke-width: 0px;"/>
    <path d="M539.52,684.72v1.44h-2.34l-.04,4.86c0,.99.25,1.48,1.3,1.48.5,0,.81-.07,1.08-.16v1.39c-.27.11-.68.2-1.35.2-1.71,0-2.59-.76-2.57-2.61l.04-5.15h-1.69v-1.44h1.69l.02-2.27h1.57l-.02,2.27h2.32Z" style="fill: #12181e; stroke-width: 0px;"/>
    <path d="M543.89,686.85c-.49.45-.81,1.15-.83,2.14v4.81h-1.55v-9.07h1.39l.11,1.58c.31-.83,1.15-1.67,2.72-1.67v1.55c-.72,0-1.33.2-1.84.67Z" style="fill: #12181e; stroke-width: 0px;"/>
    <path d="M549.4,681.93c0,.58-.49,1.04-1.08,1.04s-1.06-.47-1.06-1.04.47-1.06,1.06-1.06,1.08.47,1.08,1.06ZM547.54,693.8v-9.07h1.55v9.07h-1.55Z" style="fill: #12181e; stroke-width: 0px;"/>
    <path d="M559.6,689.87h-6.88c.11,1.67,1.24,2.68,2.79,2.68,1.21,0,2.09-.52,2.45-1.48h1.55c-.54,1.8-1.94,2.92-4.03,2.92-2.56,0-4.38-1.85-4.38-4.72s1.73-4.75,4.38-4.75c2.38,0,4.12,1.55,4.12,4.61v.74ZM558.04,688.48c-.02-1.55-1.04-2.52-2.56-2.52s-2.57,1.06-2.75,2.52h5.31Z" style="fill: #12181e; stroke-width: 0px;"/>
    <path d="M567.16,687.39h-1.58c-.02-.95-.47-1.42-1.44-1.42s-1.39.56-1.39,1.22c0,.7.36.99,1.71,1.31,2.16.5,2.97,1.26,2.97,2.72,0,1.76-1.37,2.77-3.19,2.77-2.11,0-3.28-1.19-3.31-2.95h1.58c.02.95.63,1.51,1.76,1.51,1.04,0,1.57-.52,1.57-1.22,0-.76-.4-1.12-1.89-1.46-1.89-.43-2.79-1.1-2.79-2.59s1.04-2.75,3.01-2.75c1.76,0,2.95,1.15,2.99,2.86Z" style="fill: #12181e; stroke-width: 0px;"/>
  </g>
  <g id="United_States" data-name="United States">
    <g style="isolation: isolate;">
      <g style="isolation: isolate;">
        <path d="M216.85,78.49c-2.72,0-4.32-1.59-4.32-4.55v-6.64h1.43v6.64c0,2.1.96,3.22,2.89,3.22s2.87-1.1,2.87-3.22v-6.64h1.43v6.64c0,2.97-1.59,4.55-4.3,4.55Z" style="fill: #000; stroke-width: 0px;"/>
        <path d="M229.49,73.16v5.12h-1.37v-4.9c0-1.22-.58-1.87-1.54-1.87-1.04,0-1.84.91-1.84,2.53v4.24h-1.35v-7.91h1.21l.08,1.08c.36-.69,1.11-1.26,2.23-1.26,1.7,0,2.57,1.22,2.57,2.97Z" style="fill: #000; stroke-width: 0px;"/>
        <path d="M233.39,67.93c0,.5-.42.91-.94.91s-.93-.41-.93-.91.41-.93.93-.93.94.41.94.93ZM231.77,78.28v-7.91h1.35v7.91h-1.35Z" style="fill: #000; stroke-width: 0px;"/>
        <path d="M239.34,70.37v1.26h-2.04l-.03,4.24c0,.86.22,1.29,1.13,1.29.44,0,.71-.06.94-.14v1.21c-.24.09-.6.17-1.18.17-1.49,0-2.26-.66-2.25-2.28l.03-4.49h-1.48v-1.26h1.48l.02-1.98h1.37l-.02,1.98h2.03Z" style="fill: #000; stroke-width: 0px;"/>
        <path d="M247.76,74.86h-6c.09,1.46,1.08,2.34,2.43,2.34,1.05,0,1.82-.46,2.14-1.29h1.35c-.47,1.57-1.7,2.54-3.52,2.54-2.23,0-3.82-1.62-3.82-4.11s1.51-4.15,3.82-4.15c2.07,0,3.6,1.35,3.6,4.02v.64ZM246.39,73.65c-.02-1.35-.91-2.2-2.23-2.2s-2.25.93-2.4,2.2h4.63Z" style="fill: #000; stroke-width: 0px;"/>
        <path d="M255.44,78.28l-.08-1.16c-.49.71-1.29,1.33-2.72,1.33-2.23,0-3.69-1.79-3.69-4.13s1.48-4.13,3.71-4.13c1.32,0,2.2.58,2.64,1.26v-4.63h1.35v11.46h-1.21ZM250.35,74.32c0,1.68.99,2.86,2.5,2.86,1.29,0,2.47-1.07,2.47-2.78v-.08c0-1.76-1.19-2.84-2.45-2.84-1.48,0-2.51,1.18-2.51,2.84Z" style="fill: #000; stroke-width: 0px;"/>
        <path d="M268.37,70.19h-1.44c-.02-1.18-.75-1.82-1.81-1.82s-1.7.61-1.7,1.66.69,1.43,2.18,2.03c2.21.82,3.11,1.62,3.11,3.23,0,2.01-1.41,3.19-3.41,3.19-2.32,0-3.61-1.4-3.64-3.44h1.44c.03,1.4.83,2.17,2.21,2.17,1.29,0,1.95-.78,1.95-1.82,0-.94-.66-1.44-2.31-2.03-1.87-.69-2.98-1.44-2.98-3.22s1.13-3.06,3.17-3.06c1.92,0,3.17,1.07,3.22,3.11Z" style="fill: #000; stroke-width: 0px;"/>
        <path d="M274.29,70.37v1.26h-2.04l-.03,4.24c0,.86.22,1.29,1.13,1.29.44,0,.71-.06.94-.14v1.21c-.24.09-.6.17-1.18.17-1.49,0-2.26-.66-2.25-2.28l.03-4.49h-1.48v-1.26h1.48l.02-1.98h1.37l-.02,1.98h2.03Z" style="fill: #000; stroke-width: 0px;"/>
        <path d="M281.47,73.04v5.24h-1.22l-.06-1.08c-.39.71-1.24,1.26-2.4,1.26-1.38,0-2.31-.85-2.31-2.23s.97-2.06,2.21-2.29l2.42-.46v-.39c0-1.13-.52-1.63-1.46-1.63-.86,0-1.62.47-1.62,1.44h-1.33c.05-1.52,1.21-2.7,2.95-2.7s2.83,1,2.83,2.84ZM276.84,76.21c0,.63.44.99,1.21.99.66,0,1.24-.28,1.6-.79.27-.36.46-.91.46-1.46v-.3l-2.17.47c-.6.14-1.1.38-1.1,1.08Z" style="fill: #000; stroke-width: 0px;"/>
        <path d="M287.47,70.37v1.26h-2.04l-.03,4.24c0,.86.22,1.29,1.13,1.29.44,0,.71-.06.94-.14v1.21c-.24.09-.6.17-1.18.17-1.49,0-2.26-.66-2.25-2.28l.03-4.49h-1.48v-1.26h1.48l.02-1.98h1.37l-.02,1.98h2.03Z" style="fill: #000; stroke-width: 0px;"/>
        <path d="M295.89,74.86h-6c.09,1.46,1.08,2.34,2.43,2.34,1.05,0,1.82-.46,2.14-1.29h1.35c-.47,1.57-1.7,2.54-3.52,2.54-2.23,0-3.82-1.62-3.82-4.11s1.51-4.15,3.82-4.15c2.07,0,3.6,1.35,3.6,4.02v.64ZM294.52,73.65c-.02-1.35-.91-2.2-2.23-2.2s-2.25.93-2.4,2.2h4.63Z" style="fill: #000; stroke-width: 0px;"/>
        <path d="M302.48,72.69h-1.38c-.02-.83-.41-1.24-1.26-1.24s-1.21.49-1.21,1.07c0,.61.31.86,1.49,1.15,1.88.44,2.59,1.1,2.59,2.37,0,1.54-1.19,2.42-2.78,2.42-1.84,0-2.86-1.04-2.89-2.58h1.38c.02.83.55,1.32,1.54,1.32.91,0,1.37-.46,1.37-1.07,0-.66-.35-.97-1.65-1.27-1.65-.38-2.43-.96-2.43-2.26s.91-2.4,2.62-2.4c1.54,0,2.58,1,2.61,2.5Z" style="fill: #000; stroke-width: 0px;"/>
      </g>
    </g>
  </g>
  <g id="United_States-2" data-name="United States">
    <g style="isolation: isolate;">
      <g style="isolation: isolate;">
        <path d="M216.85,308.26c-2.72,0-4.32-1.59-4.32-4.55v-6.64h1.43v6.64c0,2.1.96,3.22,2.89,3.22s2.87-1.1,2.87-3.22v-6.64h1.43v6.64c0,2.97-1.59,4.55-4.3,4.55Z" style="fill: #000; stroke-width: 0px;"/>
        <path d="M229.49,302.94v5.12h-1.37v-4.9c0-1.22-.58-1.87-1.54-1.87-1.04,0-1.84.91-1.84,2.53v4.24h-1.35v-7.91h1.21l.08,1.08c.36-.69,1.11-1.26,2.23-1.26,1.7,0,2.57,1.22,2.57,2.97Z" style="fill: #000; stroke-width: 0px;"/>
        <path d="M233.39,297.71c0,.5-.42.91-.94.91s-.93-.41-.93-.91.41-.93.93-.93.94.41.94.93ZM231.77,308.06v-7.91h1.35v7.91h-1.35Z" style="fill: #000; stroke-width: 0px;"/>
        <path d="M239.34,300.14v1.26h-2.04l-.03,4.24c0,.86.22,1.29,1.13,1.29.44,0,.71-.06.94-.14v1.21c-.24.09-.6.17-1.18.17-1.49,0-2.26-.66-2.25-2.28l.03-4.49h-1.48v-1.26h1.48l.02-1.98h1.37l-.02,1.98h2.03Z" style="fill: #000; stroke-width: 0px;"/>
        <path d="M247.76,304.63h-6c.09,1.46,1.08,2.34,2.43,2.34,1.05,0,1.82-.46,2.14-1.29h1.35c-.47,1.57-1.7,2.54-3.52,2.54-2.23,0-3.82-1.62-3.82-4.11s1.51-4.15,3.82-4.15c2.07,0,3.6,1.35,3.6,4.02v.64ZM246.39,303.42c-.02-1.35-.91-2.2-2.23-2.2s-2.25.93-2.4,2.2h4.63Z" style="fill: #000; stroke-width: 0px;"/>
        <path d="M255.44,308.06l-.08-1.16c-.49.71-1.29,1.33-2.72,1.33-2.23,0-3.69-1.79-3.69-4.13s1.48-4.13,3.71-4.13c1.32,0,2.2.58,2.64,1.26v-4.63h1.35v11.46h-1.21ZM250.35,304.1c0,1.68.99,2.86,2.5,2.86,1.29,0,2.47-1.07,2.47-2.78v-.08c0-1.76-1.19-2.84-2.45-2.84-1.48,0-2.51,1.18-2.51,2.84Z" style="fill: #000; stroke-width: 0px;"/>
        <path d="M268.37,299.97h-1.44c-.02-1.18-.75-1.82-1.81-1.82s-1.7.61-1.7,1.66.69,1.43,2.18,2.03c2.21.82,3.11,1.62,3.11,3.23,0,2.01-1.41,3.19-3.41,3.19-2.32,0-3.61-1.4-3.64-3.44h1.44c.03,1.4.83,2.17,2.21,2.17,1.29,0,1.95-.78,1.95-1.82,0-.94-.66-1.44-2.31-2.03-1.87-.69-2.98-1.44-2.98-3.22s1.13-3.06,3.17-3.06c1.92,0,3.17,1.07,3.22,3.11Z" style="fill: #000; stroke-width: 0px;"/>
        <path d="M274.29,300.14v1.26h-2.04l-.03,4.24c0,.86.22,1.29,1.13,1.29.44,0,.71-.06.94-.14v1.21c-.24.09-.6.17-1.18.17-1.49,0-2.26-.66-2.25-2.28l.03-4.49h-1.48v-1.26h1.48l.02-1.98h1.37l-.02,1.98h2.03Z" style="fill: #000; stroke-width: 0px;"/>
        <path d="M281.47,302.81v5.24h-1.22l-.06-1.08c-.39.71-1.24,1.26-2.4,1.26-1.38,0-2.31-.85-2.31-2.23s.97-2.06,2.21-2.29l2.42-.46v-.39c0-1.13-.52-1.63-1.46-1.63-.86,0-1.62.47-1.62,1.44h-1.33c.05-1.52,1.21-2.7,2.95-2.7s2.83,1,2.83,2.84ZM276.84,305.98c0,.63.44.99,1.21.99.66,0,1.24-.28,1.6-.79.27-.36.46-.91.46-1.46v-.3l-2.17.47c-.6.14-1.1.38-1.1,1.08Z" style="fill: #000; stroke-width: 0px;"/>
        <path d="M287.47,300.14v1.26h-2.04l-.03,4.24c0,.86.22,1.29,1.13,1.29.44,0,.71-.06.94-.14v1.21c-.24.09-.6.17-1.18.17-1.49,0-2.26-.66-2.25-2.28l.03-4.49h-1.48v-1.26h1.48l.02-1.98h1.37l-.02,1.98h2.03Z" style="fill: #000; stroke-width: 0px;"/>
        <path d="M295.89,304.63h-6c.09,1.46,1.08,2.34,2.43,2.34,1.05,0,1.82-.46,2.14-1.29h1.35c-.47,1.57-1.7,2.54-3.52,2.54-2.23,0-3.82-1.62-3.82-4.11s1.51-4.15,3.82-4.15c2.07,0,3.6,1.35,3.6,4.02v.64ZM294.52,303.42c-.02-1.35-.91-2.2-2.23-2.2s-2.25.93-2.4,2.2h4.63Z" style="fill: #000; stroke-width: 0px;"/>
        <path d="M302.48,302.47h-1.38c-.02-.83-.41-1.24-1.26-1.24s-1.21.49-1.21,1.07c0,.61.31.86,1.49,1.15,1.88.44,2.59,1.1,2.59,2.37,0,1.54-1.19,2.42-2.78,2.42-1.84,0-2.86-1.04-2.89-2.58h1.38c.02.83.55,1.32,1.54,1.32.91,0,1.37-.46,1.37-1.07,0-.66-.35-.97-1.65-1.27-1.65-.38-2.43-.96-2.43-2.26s.91-2.4,2.62-2.4c1.54,0,2.58,1,2.61,2.5Z" style="fill: #000; stroke-width: 0px;"/>
      </g>
    </g>
  </g>
  <g id="United_States-3" data-name="United States">
    <g style="isolation: isolate;">
      <g style="isolation: isolate;">
        <path d="M216.85,606.79c-2.72,0-4.32-1.59-4.32-4.55v-6.64h1.43v6.64c0,2.1.96,3.22,2.89,3.22s2.87-1.1,2.87-3.22v-6.64h1.43v6.64c0,2.97-1.59,4.55-4.3,4.55Z" style="fill: #000; stroke-width: 0px;"/>
        <path d="M229.49,601.47v5.12h-1.37v-4.9c0-1.22-.58-1.87-1.54-1.87-1.04,0-1.84.91-1.84,2.53v4.24h-1.35v-7.91h1.21l.08,1.08c.36-.69,1.11-1.26,2.23-1.26,1.7,0,2.57,1.22,2.57,2.97Z" style="fill: #000; stroke-width: 0px;"/>
        <path d="M233.39,596.24c0,.5-.42.91-.94.91s-.93-.41-.93-.91.41-.93.93-.93.94.41.94.93ZM231.77,606.58v-7.91h1.35v7.91h-1.35Z" style="fill: #000; stroke-width: 0px;"/>
        <path d="M239.34,598.67v1.26h-2.04l-.03,4.24c0,.86.22,1.29,1.13,1.29.44,0,.71-.06.94-.14v1.21c-.24.09-.6.17-1.18.17-1.49,0-2.26-.66-2.25-2.28l.03-4.49h-1.48v-1.26h1.48l.02-1.98h1.37l-.02,1.98h2.03Z" style="fill: #000; stroke-width: 0px;"/>
        <path d="M247.76,603.16h-6c.09,1.46,1.08,2.34,2.43,2.34,1.05,0,1.82-.46,2.14-1.29h1.35c-.47,1.57-1.7,2.54-3.52,2.54-2.23,0-3.82-1.62-3.82-4.11s1.51-4.14,3.82-4.14c2.07,0,3.6,1.35,3.6,4.02v.64ZM246.39,601.95c-.02-1.35-.91-2.2-2.23-2.2s-2.25.93-2.4,2.2h4.63Z" style="fill: #000; stroke-width: 0px;"/>
        <path d="M255.44,606.58l-.08-1.16c-.49.71-1.29,1.33-2.72,1.33-2.23,0-3.69-1.79-3.69-4.13s1.48-4.13,3.71-4.13c1.32,0,2.2.58,2.64,1.26v-4.63h1.35v11.46h-1.21ZM250.35,602.63c0,1.68.99,2.86,2.5,2.86,1.29,0,2.47-1.07,2.47-2.78v-.08c0-1.76-1.19-2.84-2.45-2.84-1.48,0-2.51,1.18-2.51,2.84Z" style="fill: #000; stroke-width: 0px;"/>
        <path d="M268.37,598.5h-1.44c-.02-1.18-.75-1.82-1.81-1.82s-1.7.61-1.7,1.66.69,1.43,2.18,2.03c2.21.82,3.11,1.62,3.11,3.23,0,2.01-1.41,3.19-3.41,3.19-2.32,0-3.61-1.4-3.64-3.44h1.44c.03,1.4.83,2.17,2.21,2.17,1.29,0,1.95-.79,1.95-1.82,0-.94-.66-1.45-2.31-2.03-1.87-.69-2.98-1.45-2.98-3.22s1.13-3.06,3.17-3.06c1.92,0,3.17,1.07,3.22,3.11Z" style="fill: #000; stroke-width: 0px;"/>
        <path d="M274.29,598.67v1.26h-2.04l-.03,4.24c0,.86.22,1.29,1.13,1.29.44,0,.71-.06.94-.14v1.21c-.24.09-.6.17-1.18.17-1.49,0-2.26-.66-2.25-2.28l.03-4.49h-1.48v-1.26h1.48l.02-1.98h1.37l-.02,1.98h2.03Z" style="fill: #000; stroke-width: 0px;"/>
        <path d="M281.47,601.34v5.24h-1.22l-.06-1.08c-.39.71-1.24,1.26-2.4,1.26-1.38,0-2.31-.85-2.31-2.23s.97-2.06,2.21-2.29l2.42-.46v-.39c0-1.13-.52-1.63-1.46-1.63-.86,0-1.62.47-1.62,1.44h-1.33c.05-1.52,1.21-2.7,2.95-2.7s2.83,1,2.83,2.84ZM276.84,604.51c0,.63.44.99,1.21.99.66,0,1.24-.28,1.6-.79.27-.36.46-.91.46-1.46v-.3l-2.17.47c-.6.14-1.1.38-1.1,1.08Z" style="fill: #000; stroke-width: 0px;"/>
        <path d="M287.47,598.67v1.26h-2.04l-.03,4.24c0,.86.22,1.29,1.13,1.29.44,0,.71-.06.94-.14v1.21c-.24.09-.6.17-1.18.17-1.49,0-2.26-.66-2.25-2.28l.03-4.49h-1.48v-1.26h1.48l.02-1.98h1.37l-.02,1.98h2.03Z" style="fill: #000; stroke-width: 0px;"/>
        <path d="M295.89,603.16h-6c.09,1.46,1.08,2.34,2.43,2.34,1.05,0,1.82-.46,2.14-1.29h1.35c-.47,1.57-1.7,2.54-3.52,2.54-2.23,0-3.82-1.62-3.82-4.11s1.51-4.14,3.82-4.14c2.07,0,3.6,1.35,3.6,4.02v.64ZM294.52,601.95c-.02-1.35-.91-2.2-2.23-2.2s-2.25.93-2.4,2.2h4.63Z" style="fill: #000; stroke-width: 0px;"/>
        <path d="M302.48,600.99h-1.38c-.02-.83-.41-1.24-1.26-1.24s-1.21.49-1.21,1.07c0,.61.31.86,1.49,1.15,1.88.44,2.59,1.1,2.59,2.37,0,1.54-1.19,2.42-2.78,2.42-1.84,0-2.86-1.04-2.89-2.58h1.38c.02.83.55,1.32,1.54,1.32.91,0,1.37-.46,1.37-1.07,0-.66-.35-.97-1.65-1.27-1.65-.38-2.43-.96-2.43-2.26s.91-2.4,2.62-2.4c1.54,0,2.58,1,2.61,2.5Z" style="fill: #000; stroke-width: 0px;"/>
      </g>
    </g>
  </g>
  <g id="United_States-4" data-name="United States">
    <g style="isolation: isolate;">
      <g style="isolation: isolate;">
        <path d="M248.68,140.73c0,3.27-2.34,5.72-5.61,5.72s-5.62-2.45-5.62-5.72,2.34-5.68,5.62-5.68,5.61,2.43,5.61,5.68ZM238.94,140.73c0,2.51,1.68,4.38,4.13,4.38s4.11-1.87,4.11-4.38-1.68-4.35-4.11-4.35-4.13,1.85-4.13,4.35Z" style="fill: #000; stroke-width: 0px;"/>
        <path d="M254.29,138.32v1.26h-2.04l-.03,4.24c0,.86.22,1.29,1.13,1.29.44,0,.71-.06.94-.14v1.21c-.24.09-.6.17-1.18.17-1.49,0-2.26-.66-2.25-2.28l.03-4.49h-1.48v-1.26h1.48l.02-1.98h1.37l-.02,1.98h2.03Z" style="fill: #000; stroke-width: 0px;"/>
        <path d="M259.46,138.15c1.7,0,2.57,1.22,2.57,2.97v5.12h-1.37v-4.9c0-1.22-.58-1.87-1.54-1.87-1.04,0-1.84.91-1.84,2.53v4.24h-1.35v-11.46h1.35v4.54c.3-.61,1.02-1.16,2.17-1.16Z" style="fill: #000; stroke-width: 0px;"/>
        <path d="M271.03,142.82h-6c.09,1.46,1.08,2.34,2.43,2.34,1.05,0,1.82-.46,2.14-1.29h1.35c-.47,1.57-1.7,2.54-3.52,2.54-2.23,0-3.82-1.62-3.82-4.11s1.51-4.15,3.82-4.15c2.07,0,3.6,1.35,3.6,4.02v.64ZM269.66,141.61c-.02-1.35-.91-2.2-2.23-2.2s-2.25.93-2.4,2.2h4.63Z" style="fill: #000; stroke-width: 0px;"/>
        <path d="M274.94,140.18c-.42.39-.71,1-.72,1.87v4.19h-1.35v-7.91h1.21l.09,1.38c.27-.72,1-1.46,2.37-1.46v1.35c-.63,0-1.16.17-1.6.58Z" style="fill: #000; stroke-width: 0px;"/>
        <path d="M234.95,157.36h-1.59c-.46-1.27-1.49-2.14-3.3-2.14-2.32,0-3.94,1.85-3.94,4.36s1.62,4.37,3.96,4.37c1.82,0,2.9-.93,3.34-2.18h1.54c-.61,2.21-2.29,3.52-4.88,3.52-3.19,0-5.45-2.43-5.45-5.7s2.26-5.7,5.43-5.7c2.59,0,4.27,1.35,4.88,3.47Z" style="fill: #000; stroke-width: 0px;"/>
        <path d="M243.98,161.13c0,2.4-1.65,4.13-4,4.13s-4.02-1.73-4.02-4.13,1.65-4.13,4.02-4.13,4,1.73,4,4.13ZM237.36,161.13c0,1.63,1.05,2.87,2.64,2.87s2.59-1.24,2.59-2.87-1.02-2.87-2.59-2.87-2.64,1.22-2.64,2.87Z" style="fill: #000; stroke-width: 0px;"/>
        <path d="M250.41,165.09l-.08-1.08c-.36.75-1.08,1.26-2.18,1.26-1.71,0-2.54-1.21-2.54-2.97v-5.12h1.35v4.9c0,1.24.55,1.88,1.51,1.88,1.02,0,1.81-.86,1.81-2.39v-4.4h1.35v7.91h-1.21Z" style="fill: #000; stroke-width: 0px;"/>
        <path d="M260.07,159.97v5.12h-1.37v-4.9c0-1.22-.58-1.87-1.54-1.87-1.04,0-1.84.91-1.84,2.53v4.24h-1.35v-7.91h1.21l.08,1.08c.36-.69,1.11-1.26,2.23-1.26,1.7,0,2.57,1.22,2.57,2.97Z" style="fill: #000; stroke-width: 0px;"/>
        <path d="M266.11,157.17v1.26h-2.04l-.03,4.24c0,.86.22,1.29,1.13,1.29.44,0,.71-.06.94-.14v1.21c-.24.09-.6.17-1.18.17-1.49,0-2.26-.66-2.25-2.28l.03-4.49h-1.48v-1.26h1.48l.02-1.98h1.37l-.02,1.98h2.03Z" style="fill: #000; stroke-width: 0px;"/>
        <path d="M269.93,159.03c-.42.39-.71,1-.72,1.87v4.19h-1.35v-7.91h1.21l.09,1.38c.27-.72,1-1.46,2.37-1.46v1.35c-.63,0-1.16.17-1.6.58Z" style="fill: #000; stroke-width: 0px;"/>
        <path d="M274.74,154.74c0,.5-.42.91-.94.91s-.93-.41-.93-.91.41-.93.93-.93.94.41.94.93ZM273.12,165.09v-7.91h1.35v7.91h-1.35Z" style="fill: #000; stroke-width: 0px;"/>
        <path d="M283.64,161.66h-6c.09,1.46,1.08,2.34,2.43,2.34,1.05,0,1.82-.46,2.14-1.29h1.35c-.47,1.57-1.7,2.54-3.52,2.54-2.23,0-3.82-1.62-3.82-4.11s1.51-4.15,3.82-4.15c2.07,0,3.6,1.35,3.6,4.02v.64ZM282.28,160.45c-.02-1.35-.91-2.2-2.23-2.2s-2.25.93-2.4,2.2h4.63Z" style="fill: #000; stroke-width: 0px;"/>
        <path d="M290.24,159.5h-1.38c-.02-.83-.41-1.24-1.26-1.24s-1.21.49-1.21,1.07c0,.61.31.86,1.49,1.15,1.88.44,2.59,1.1,2.59,2.37,0,1.54-1.19,2.42-2.78,2.42-1.84,0-2.86-1.04-2.89-2.58h1.38c.02.83.55,1.32,1.54,1.32.91,0,1.37-.46,1.37-1.07,0-.66-.35-.97-1.65-1.27-1.65-.38-2.43-.96-2.43-2.26s.91-2.4,2.62-2.4c1.54,0,2.58,1,2.61,2.5Z" style="fill: #000; stroke-width: 0px;"/>
      </g>
    </g>
  </g>
  <g id="United_States-5" data-name="United States">
    <g style="isolation: isolate;">
      <g style="isolation: isolate;">
        <path d="M248.68,373.64c0,3.27-2.34,5.72-5.61,5.72s-5.62-2.45-5.62-5.72,2.34-5.68,5.62-5.68,5.61,2.43,5.61,5.68ZM238.94,373.64c0,2.51,1.68,4.38,4.13,4.38s4.11-1.87,4.11-4.38-1.68-4.35-4.11-4.35-4.13,1.85-4.13,4.35Z" style="fill: #000; stroke-width: 0px;"/>
        <path d="M254.29,371.24v1.26h-2.04l-.03,4.24c0,.86.22,1.29,1.13,1.29.44,0,.71-.06.94-.14v1.21c-.24.09-.6.17-1.18.17-1.49,0-2.26-.66-2.25-2.28l.03-4.49h-1.48v-1.26h1.48l.02-1.98h1.37l-.02,1.98h2.03Z" style="fill: #000; stroke-width: 0px;"/>
        <path d="M259.46,371.06c1.7,0,2.57,1.22,2.57,2.97v5.12h-1.37v-4.9c0-1.22-.58-1.87-1.54-1.87-1.04,0-1.84.91-1.84,2.53v4.24h-1.35v-11.46h1.35v4.54c.3-.61,1.02-1.16,2.17-1.16Z" style="fill: #000; stroke-width: 0px;"/>
        <path d="M271.03,375.73h-6c.09,1.46,1.08,2.34,2.43,2.34,1.05,0,1.82-.46,2.14-1.29h1.35c-.47,1.57-1.7,2.54-3.52,2.54-2.23,0-3.82-1.62-3.82-4.11s1.51-4.15,3.82-4.15c2.07,0,3.6,1.35,3.6,4.02v.64ZM269.66,374.52c-.02-1.35-.91-2.2-2.23-2.2s-2.25.93-2.4,2.2h4.63Z" style="fill: #000; stroke-width: 0px;"/>
        <path d="M274.94,373.09c-.42.39-.71,1-.72,1.87v4.19h-1.35v-7.91h1.21l.09,1.38c.27-.72,1-1.46,2.37-1.46v1.35c-.63,0-1.16.17-1.6.58Z" style="fill: #000; stroke-width: 0px;"/>
        <path d="M234.95,390.27h-1.59c-.46-1.27-1.49-2.14-3.3-2.14-2.32,0-3.94,1.85-3.94,4.36s1.62,4.37,3.96,4.37c1.82,0,2.9-.93,3.34-2.18h1.54c-.61,2.21-2.29,3.52-4.88,3.52-3.19,0-5.45-2.43-5.45-5.7s2.26-5.7,5.43-5.7c2.59,0,4.27,1.35,4.88,3.47Z" style="fill: #000; stroke-width: 0px;"/>
        <path d="M243.98,394.04c0,2.4-1.65,4.13-4,4.13s-4.02-1.73-4.02-4.13,1.65-4.13,4.02-4.13,4,1.73,4,4.13ZM237.36,394.04c0,1.63,1.05,2.87,2.64,2.87s2.59-1.24,2.59-2.87-1.02-2.87-2.59-2.87-2.64,1.22-2.64,2.87Z" style="fill: #000; stroke-width: 0px;"/>
        <path d="M250.41,398l-.08-1.08c-.36.75-1.08,1.26-2.18,1.26-1.71,0-2.54-1.21-2.54-2.97v-5.12h1.35v4.9c0,1.24.55,1.88,1.51,1.88,1.02,0,1.81-.86,1.81-2.39v-4.4h1.35v7.91h-1.21Z" style="fill: #000; stroke-width: 0px;"/>
        <path d="M260.07,392.88v5.12h-1.37v-4.9c0-1.22-.58-1.87-1.54-1.87-1.04,0-1.84.91-1.84,2.53v4.24h-1.35v-7.91h1.21l.08,1.08c.36-.69,1.11-1.26,2.23-1.26,1.7,0,2.57,1.22,2.57,2.97Z" style="fill: #000; stroke-width: 0px;"/>
        <path d="M266.11,390.08v1.26h-2.04l-.03,4.24c0,.86.22,1.29,1.13,1.29.44,0,.71-.06.94-.14v1.21c-.24.09-.6.17-1.18.17-1.49,0-2.26-.66-2.25-2.28l.03-4.49h-1.48v-1.26h1.48l.02-1.98h1.37l-.02,1.98h2.03Z" style="fill: #000; stroke-width: 0px;"/>
        <path d="M269.93,391.94c-.42.39-.71,1-.72,1.87v4.19h-1.35v-7.91h1.21l.09,1.38c.27-.72,1-1.46,2.37-1.46v1.35c-.63,0-1.16.17-1.6.58Z" style="fill: #000; stroke-width: 0px;"/>
        <path d="M274.74,387.65c0,.5-.42.91-.94.91s-.93-.41-.93-.91.41-.93.93-.93.94.41.94.93ZM273.12,398v-7.91h1.35v7.91h-1.35Z" style="fill: #000; stroke-width: 0px;"/>
        <path d="M283.64,394.57h-6c.09,1.46,1.08,2.34,2.43,2.34,1.05,0,1.82-.46,2.14-1.29h1.35c-.47,1.57-1.7,2.54-3.52,2.54-2.23,0-3.82-1.62-3.82-4.11s1.51-4.15,3.82-4.15c2.07,0,3.6,1.35,3.6,4.02v.64ZM282.28,393.36c-.02-1.35-.91-2.2-2.23-2.2s-2.25.93-2.4,2.2h4.63Z" style="fill: #000; stroke-width: 0px;"/>
        <path d="M290.24,392.41h-1.38c-.02-.83-.41-1.24-1.26-1.24s-1.21.49-1.21,1.07c0,.61.31.86,1.49,1.15,1.88.44,2.59,1.1,2.59,2.37,0,1.54-1.19,2.42-2.78,2.42-1.84,0-2.86-1.04-2.89-2.58h1.38c.02.83.55,1.32,1.54,1.32.91,0,1.37-.46,1.37-1.07,0-.66-.35-.97-1.65-1.27-1.65-.38-2.43-.96-2.43-2.26s.91-2.4,2.62-2.4c1.54,0,2.58,1,2.61,2.5Z" style="fill: #000; stroke-width: 0px;"/>
      </g>
    </g>
  </g>
  <g id="United_States-6" data-name="United States">
    <g style="isolation: isolate;">
      <g style="isolation: isolate;">
        <path d="M248.68,479.79c0,3.27-2.34,5.72-5.61,5.72s-5.62-2.45-5.62-5.72,2.34-5.68,5.62-5.68,5.61,2.43,5.61,5.68ZM238.94,479.79c0,2.51,1.68,4.38,4.13,4.38s4.11-1.87,4.11-4.38-1.68-4.35-4.11-4.35-4.13,1.85-4.13,4.35Z" style="fill: #000; stroke-width: 0px;"/>
        <path d="M254.29,477.39v1.26h-2.04l-.03,4.24c0,.86.22,1.29,1.13,1.29.44,0,.71-.06.94-.14v1.21c-.24.09-.6.17-1.18.17-1.49,0-2.26-.66-2.25-2.28l.03-4.49h-1.48v-1.26h1.48l.02-1.98h1.37l-.02,1.98h2.03Z" style="fill: #000; stroke-width: 0px;"/>
        <path d="M259.46,477.22c1.7,0,2.57,1.22,2.57,2.97v5.12h-1.37v-4.9c0-1.22-.58-1.87-1.54-1.87-1.04,0-1.84.91-1.84,2.53v4.24h-1.35v-11.46h1.35v4.54c.3-.61,1.02-1.16,2.17-1.16Z" style="fill: #000; stroke-width: 0px;"/>
        <path d="M271.03,481.88h-6c.09,1.46,1.08,2.34,2.43,2.34,1.05,0,1.82-.46,2.14-1.29h1.35c-.47,1.57-1.7,2.54-3.52,2.54-2.23,0-3.82-1.62-3.82-4.11s1.51-4.15,3.82-4.15c2.07,0,3.6,1.35,3.6,4.02v.64ZM269.66,480.67c-.02-1.35-.91-2.2-2.23-2.2s-2.25.93-2.4,2.2h4.63Z" style="fill: #000; stroke-width: 0px;"/>
        <path d="M274.94,479.24c-.42.39-.71,1-.72,1.87v4.19h-1.35v-7.91h1.21l.09,1.38c.27-.72,1-1.46,2.37-1.46v1.35c-.63,0-1.16.17-1.6.58Z" style="fill: #000; stroke-width: 0px;"/>
        <path d="M234.95,496.43h-1.59c-.46-1.27-1.49-2.14-3.3-2.14-2.32,0-3.94,1.85-3.94,4.37s1.62,4.36,3.96,4.36c1.82,0,2.9-.93,3.34-2.18h1.54c-.61,2.21-2.29,3.52-4.88,3.52-3.19,0-5.45-2.43-5.45-5.7s2.26-5.7,5.43-5.7c2.59,0,4.27,1.35,4.88,3.47Z" style="fill: #000; stroke-width: 0px;"/>
        <path d="M243.98,500.19c0,2.4-1.65,4.13-4,4.13s-4.02-1.73-4.02-4.13,1.65-4.13,4.02-4.13,4,1.73,4,4.13ZM237.36,500.19c0,1.63,1.05,2.87,2.64,2.87s2.59-1.24,2.59-2.87-1.02-2.87-2.59-2.87-2.64,1.22-2.64,2.87Z" style="fill: #000; stroke-width: 0px;"/>
        <path d="M250.41,504.15l-.08-1.08c-.36.75-1.08,1.26-2.18,1.26-1.71,0-2.54-1.21-2.54-2.97v-5.12h1.35v4.9c0,1.24.55,1.88,1.51,1.88,1.02,0,1.81-.86,1.81-2.39v-4.4h1.35v7.91h-1.21Z" style="fill: #000; stroke-width: 0px;"/>
        <path d="M260.07,499.03v5.12h-1.37v-4.9c0-1.22-.58-1.87-1.54-1.87-1.04,0-1.84.91-1.84,2.53v4.24h-1.35v-7.91h1.21l.08,1.08c.36-.69,1.11-1.26,2.23-1.26,1.7,0,2.57,1.22,2.57,2.97Z" style="fill: #000; stroke-width: 0px;"/>
        <path d="M266.11,496.24v1.26h-2.04l-.03,4.24c0,.86.22,1.29,1.13,1.29.44,0,.71-.06.94-.14v1.21c-.24.09-.6.17-1.18.17-1.49,0-2.26-.66-2.25-2.28l.03-4.49h-1.48v-1.26h1.48l.02-1.98h1.37l-.02,1.98h2.03Z" style="fill: #000; stroke-width: 0px;"/>
        <path d="M269.93,498.09c-.42.39-.71,1-.72,1.87v4.19h-1.35v-7.91h1.21l.09,1.38c.27-.72,1-1.46,2.37-1.46v1.35c-.63,0-1.16.17-1.6.58Z" style="fill: #000; stroke-width: 0px;"/>
        <path d="M274.74,493.8c0,.5-.42.91-.94.91s-.93-.41-.93-.91.41-.93.93-.93.94.41.94.93ZM273.12,504.15v-7.91h1.35v7.91h-1.35Z" style="fill: #000; stroke-width: 0px;"/>
        <path d="M283.64,500.73h-6c.09,1.46,1.08,2.34,2.43,2.34,1.05,0,1.82-.46,2.14-1.29h1.35c-.47,1.57-1.7,2.54-3.52,2.54-2.23,0-3.82-1.62-3.82-4.11s1.51-4.14,3.82-4.14c2.07,0,3.6,1.35,3.6,4.02v.64ZM282.28,499.52c-.02-1.35-.91-2.2-2.23-2.2s-2.25.93-2.4,2.2h4.63Z" style="fill: #000; stroke-width: 0px;"/>
        <path d="M290.24,498.56h-1.38c-.02-.83-.41-1.24-1.26-1.24s-1.21.49-1.21,1.07c0,.61.31.86,1.49,1.15,1.88.44,2.59,1.1,2.59,2.37,0,1.54-1.19,2.42-2.78,2.42-1.84,0-2.86-1.04-2.89-2.58h1.38c.02.83.55,1.32,1.54,1.32.91,0,1.37-.46,1.37-1.07,0-.66-.35-.97-1.65-1.27-1.65-.38-2.43-.96-2.43-2.26s.91-2.4,2.62-2.4c1.54,0,2.58,1,2.61,2.5Z" style="fill: #000; stroke-width: 0px;"/>
      </g>
    </g>
  </g>
  <g id="callout-line-svg-2" data-name="callout-line-svg">
    <path d="M417.37,357.36c-13.84-7.17-29.06-11.94-45.66-14.3" style="fill: none; stroke: #12181e;"/>
    <path d="M377.17,339.79l-5.46,3.27,4.74,4.76" style="fill: none; stroke: #12181e; stroke-miterlimit: 4; stroke-width: 1px;"/>
  </g>
  <g id="callout-line-svg-3" data-name="callout-line-svg">
    <path d="M422.83,615.57c-13.84-7.17-29.06-11.94-45.66-14.3" style="fill: none; stroke: #12181e;"/>
    <path d="M382.63,598l-5.46,3.27,4.74,4.76" style="fill: none; stroke: #12181e; stroke-miterlimit: 4; stroke-width: 1px;"/>
  </g>
</svg>