<?xml version="1.0" encoding="UTF-8"?>
<svg id="Layer_1" data-name="Layer 1" xmlns="http://www.w3.org/2000/svg" width="800" height="824.75" viewBox="0 0 800 824.75">
  <g id="Layer_2" data-name="Layer 2">
    <rect x=".52" y=".43" width="799.48" height="823.89" style="fill: #fff; stroke-width: 0px;"/>
  </g>
  <g>
    <path d="M10.39,812.93h-1.41c-.41-1.13-1.33-1.91-2.94-1.91-2.07,0-3.52,1.65-3.52,3.89s1.44,3.89,3.53,3.89c1.62,0,2.59-.83,2.98-1.95h1.37c-.55,1.98-2.04,3.14-4.36,3.14-2.84,0-4.86-2.17-4.86-5.08s2.02-5.08,4.85-5.08c2.31,0,3.81,1.2,4.36,3.1Z" style="fill: #777; stroke-width: 0px;"/>
    <path d="M15,812.6c1.51,0,2.3,1.09,2.3,2.65v4.57h-1.22v-4.37c0-1.09-.52-1.67-1.37-1.67-.92,0-1.64.81-1.64,2.25v3.78h-1.2v-10.23h1.2v4.05c.27-.55.91-1.04,1.93-1.04Z" style="fill: #777; stroke-width: 0px;"/>
    <path d="M24.21,815.14v4.68h-1.09l-.06-.97c-.35.63-1.11,1.12-2.14,1.12-1.23,0-2.06-.76-2.06-1.99s.87-1.83,1.98-2.04l2.16-.41v-.35c0-1.01-.46-1.46-1.3-1.46-.77,0-1.44.42-1.44,1.29h-1.19c.04-1.36,1.08-2.41,2.63-2.41s2.52.9,2.52,2.54ZM20.08,817.97c0,.56.39.88,1.08.88.59,0,1.11-.25,1.43-.7.24-.32.41-.81.41-1.3v-.27l-1.93.42c-.53.13-.98.34-.98.97Z" style="fill: #777; stroke-width: 0px;"/>
    <path d="M28.1,814.41c-.38.35-.63.9-.64,1.67v3.74h-1.2v-7.06h1.08l.08,1.23c.24-.64.9-1.3,2.12-1.3v1.21c-.56,0-1.04.15-1.43.52Z" style="fill: #777; stroke-width: 0px;"/>
    <path d="M34.39,812.76v1.12h-1.82l-.03,3.78c0,.77.2,1.15,1.01,1.15.39,0,.63-.06.84-.13v1.08c-.21.08-.53.15-1.05.15-1.33,0-2.02-.59-2-2.03l.03-4.01h-1.32v-1.12h1.32v-1.77h1.23v1.77s1.79,0,1.79,0Z" style="fill: #777; stroke-width: 0px;"/>
    <path d="M37.19,813.49c0,.49-.39.87-.88.87s-.88-.38-.88-.87.38-.88.88-.88.88.38.88.88ZM37.19,819.1c0,.49-.39.87-.88.87s-.88-.38-.88-.87.38-.87.88-.87.88.36.88.87Z" style="fill: #777; stroke-width: 0px;"/>
    <path d="M50.31,812.93h-1.41c-.41-1.13-1.33-1.91-2.94-1.91-2.07,0-3.52,1.65-3.52,3.89s1.44,3.89,3.53,3.89c1.62,0,2.59-.83,2.98-1.95h1.37c-.55,1.98-2.04,3.14-4.36,3.14-2.84,0-4.86-2.17-4.86-5.08s2.02-5.08,4.85-5.08c2.31,0,3.81,1.2,4.36,3.1Z" style="fill: #777; stroke-width: 0px;"/>
    <path d="M53.08,811.2v3.1h3.4v1.2h-3.4v4.31h-1.27v-9.81h5.28v1.19h-4.01Z" style="fill: #777; stroke-width: 0px;"/>
    <path d="M63.35,819.82l-2.14-3.98h-1.43v3.98h-1.27v-9.81h2.68c1.96,0,3.21,1.18,3.21,2.96,0,1.29-.69,2.25-1.85,2.66l2.27,4.19h-1.46ZM59.78,814.69h1.4c1.13,0,1.92-.62,1.92-1.72s-.77-1.76-1.92-1.76h-1.4v3.49Z" style="fill: #777; stroke-width: 0px;"/>
    <path d="M65.13,819.82l4.13-9.81h1.19l-4.13,9.81h-1.19Z" style="fill: #777; stroke-width: 0px;"/>
    <path d="M78.22,819.82l-1.04-2.59h-4.33l-1.02,2.59h-1.4l3.94-9.81h1.32l3.94,9.81h-1.4ZM73.29,816.03h3.46l-1.56-3.85-.18-.53-.18.53-1.54,3.85Z" style="fill: #777; stroke-width: 0px;"/>
    <path d="M80.91,819.82v-10.23h1.2v10.23h-1.2Z" style="fill: #777; stroke-width: 0px;"/>
    <path d="M84.21,819.82v-10.23h1.2v10.23h-1.2Z" style="fill: #777; stroke-width: 0px;"/>
    <path d="M89,810.59c0,.45-.38.81-.84.81s-.83-.36-.83-.81.36-.83.83-.83.84.36.84.83ZM87.56,819.82v-7.06h1.2v7.06h-1.2Z" style="fill: #777; stroke-width: 0px;"/>
    <path d="M95.23,814.83h-1.23c-.01-.74-.36-1.11-1.12-1.11s-1.08.43-1.08.95c0,.55.28.77,1.33,1.02,1.68.39,2.31.98,2.31,2.12,0,1.37-1.06,2.16-2.48,2.16-1.64,0-2.55-.92-2.58-2.3h1.23c.01.74.49,1.18,1.37,1.18.81,0,1.22-.41,1.22-.95,0-.59-.31-.87-1.47-1.13-1.47-.34-2.17-.85-2.17-2.02s.81-2.14,2.34-2.14c1.37,0,2.3.9,2.33,2.23Z" style="fill: #777; stroke-width: 0px;"/>
    <path d="M103.63,816.29c0,2.14-1.47,3.68-3.57,3.68s-3.59-1.54-3.59-3.68,1.47-3.68,3.59-3.68,3.57,1.54,3.57,3.68ZM97.72,816.29c0,1.46.94,2.56,2.35,2.56s2.31-1.11,2.31-2.56-.91-2.56-2.31-2.56-2.35,1.09-2.35,2.56Z" style="fill: #777; stroke-width: 0px;"/>
    <path d="M110.63,815.25v4.57h-1.22v-4.37c0-1.09-.52-1.67-1.37-1.67-.92,0-1.64.81-1.64,2.25v3.78h-1.2v-7.06h1.08l.07.97c.32-.62.99-1.12,1.99-1.12,1.51,0,2.3,1.09,2.3,2.65Z" style="fill: #777; stroke-width: 0px;"/>
    <path d="M123.53,819.82h-1.61l-3.36-4.44-1.69,2.06v2.38h-1.27v-9.81h1.27v5.55l4.36-5.55h1.6l-3.43,4.36,4.15,5.45Z" style="fill: #777; stroke-width: 0px;"/>
    <path d="M126.62,814.41c-.38.35-.63.9-.64,1.67v3.74h-1.2v-7.06h1.08l.08,1.23c.24-.64.9-1.3,2.12-1.3v1.21c-.56,0-1.04.15-1.43.52Z" style="fill: #777; stroke-width: 0px;"/>
    <path d="M133.6,819.82l-.07-.97c-.32.67-.97,1.12-1.95,1.12-1.53,0-2.27-1.08-2.27-2.65v-4.57h1.2v4.37c0,1.11.49,1.68,1.34,1.68.91,0,1.61-.77,1.61-2.13v-3.92h1.2v7.06h-1.08Z" style="fill: #777; stroke-width: 0px;"/>
    <path d="M142.8,813.82h-1.22c.21.38.34.83.34,1.32,0,1.4-1.05,2.51-2.69,2.51-.59,0-1.11-.14-1.51-.38-.17.15-.29.39-.29.7,0,.46.36.71.9.71h1.88c1.5,0,2.23.74,2.23,1.92,0,1.5-1.13,2.38-2.94,2.38-2,0-3.08-.81-3.08-2.2,0-.67.36-1.05.77-1.28-.48-.24-.94-.76-.94-1.47,0-.64.32-1.13.73-1.44-.29-.41-.45-.91-.45-1.46,0-1.46,1.06-2.54,2.72-2.54.36,0,.7.06,1.01.15h2.56v1.06ZM137.59,820.74c0,.77.7,1.18,1.89,1.18,1.09,0,1.75-.42,1.75-1.26,0-.66-.49-.91-1.27-.91h-1.34c-.53.03-1.02.31-1.02,1ZM140.73,815.14c0-.84-.57-1.47-1.51-1.47s-1.51.63-1.51,1.47.59,1.44,1.51,1.44,1.51-.63,1.51-1.44Z" style="fill: #777; stroke-width: 0px;"/>
    <path d="M153.35,815.25v4.57h-1.2v-4.37c0-1.09-.5-1.67-1.36-1.67-.92,0-1.62.81-1.62,2.25v3.78h-1.2v-4.37c0-1.09-.5-1.67-1.36-1.67-.92,0-1.62.81-1.62,2.25v3.78h-1.2v-7.06h1.08l.07.97c.32-.62.99-1.12,1.96-1.12,1.05,0,1.74.52,2.06,1.34.36-.7,1.04-1.34,2.13-1.34,1.53,0,2.28,1.09,2.28,2.65Z" style="fill: #777; stroke-width: 0px;"/>
    <path d="M160.26,815.14v4.68h-1.09l-.06-.97c-.35.63-1.11,1.12-2.14,1.12-1.23,0-2.06-.76-2.06-1.99s.87-1.83,1.98-2.04l2.16-.41v-.35c0-1.01-.46-1.46-1.3-1.46-.77,0-1.44.42-1.44,1.29h-1.19c.04-1.36,1.08-2.41,2.63-2.41s2.52.9,2.52,2.54ZM156.13,817.97c0,.56.39.88,1.08.88.59,0,1.11-.25,1.43-.7.24-.32.41-.81.41-1.3v-.27l-1.93.42c-.53.13-.98.34-.98.97Z" style="fill: #777; stroke-width: 0px;"/>
    <path d="M167.65,815.25v4.57h-1.22v-4.37c0-1.09-.52-1.67-1.37-1.67-.92,0-1.64.81-1.64,2.25v3.78h-1.2v-7.06h1.08l.07.97c.32-.62.99-1.12,1.99-1.12,1.51,0,2.3,1.09,2.3,2.65Z" style="fill: #777; stroke-width: 0px;"/>
    <path d="M175.9,816.19c0,1.12-.87,1.97-1.99,1.97s-1.98-.85-1.98-1.97.85-1.99,1.98-1.99,1.99.87,1.99,1.99Z" style="fill: #777; stroke-width: 0px;"/>
    <path d="M185.78,812.6h-1.29c-.01-1.05-.67-1.62-1.61-1.62s-1.51.55-1.51,1.49.62,1.27,1.95,1.81c1.98.73,2.77,1.44,2.77,2.89,0,1.79-1.26,2.84-3.04,2.84-2.07,0-3.22-1.25-3.25-3.07h1.29c.03,1.25.74,1.93,1.98,1.93,1.15,0,1.74-.7,1.74-1.62,0-.84-.59-1.29-2.06-1.81-1.67-.62-2.66-1.29-2.66-2.87s1.01-2.73,2.83-2.73c1.71,0,2.83.95,2.87,2.77Z" style="fill: #777; stroke-width: 0px;"/>
    <path d="M194.24,816.29c0,2.14-1.47,3.68-3.57,3.68s-3.59-1.54-3.59-3.68,1.47-3.68,3.59-3.68,3.57,1.54,3.57,3.68ZM188.33,816.29c0,1.46.94,2.56,2.35,2.56s2.31-1.11,2.31-2.56-.91-2.56-2.31-2.56-2.35,1.09-2.35,2.56Z" style="fill: #777; stroke-width: 0px;"/>
    <path d="M199.96,819.82l-.07-.97c-.32.67-.97,1.12-1.95,1.12-1.53,0-2.27-1.08-2.27-2.65v-4.57h1.2v4.37c0,1.11.49,1.68,1.34,1.68.91,0,1.61-.77,1.61-2.13v-3.92h1.2v7.06h-1.08Z" style="fill: #777; stroke-width: 0px;"/>
    <path d="M205.07,814.41c-.38.35-.63.9-.64,1.67v3.74h-1.2v-7.06h1.08l.08,1.23c.24-.64.9-1.3,2.12-1.3v1.21c-.56,0-1.04.15-1.43.52Z" style="fill: #777; stroke-width: 0px;"/>
    <path d="M213.73,814.96h-1.2c-.28-.79-1.01-1.23-1.92-1.23-1.26,0-2.2,1.08-2.2,2.58s.94,2.55,2.23,2.55c.9,0,1.64-.48,1.89-1.23h1.22c-.38,1.54-1.61,2.35-3.15,2.35-1.99,0-3.43-1.54-3.43-3.67s1.44-3.7,3.43-3.7c1.55,0,2.8.81,3.14,2.35Z" style="fill: #777; stroke-width: 0px;"/>
    <path d="M221.33,816.76h-5.35c.08,1.3.97,2.09,2.17,2.09.94,0,1.62-.41,1.9-1.15h1.2c-.42,1.4-1.51,2.27-3.14,2.27-1.99,0-3.4-1.44-3.4-3.67s1.34-3.7,3.4-3.7c1.85,0,3.21,1.21,3.21,3.59v.57ZM220.11,815.69c-.01-1.21-.81-1.96-1.99-1.96s-2,.83-2.14,1.96h4.13Z" style="fill: #777; stroke-width: 0px;"/>
    <path d="M224.11,813.49c0,.49-.39.87-.88.87s-.88-.38-.88-.87.38-.88.88-.88.88.38.88.88ZM224.11,819.1c0,.49-.39.87-.88.87s-.88-.38-.88-.87.38-.87.88-.87.88.36.88.87Z" style="fill: #777; stroke-width: 0px;"/>
    <path d="M233.41,819.82l-2.14-3.98h-1.43v3.98h-1.27v-9.81h2.68c1.96,0,3.21,1.18,3.21,2.96,0,1.29-.69,2.25-1.85,2.66l2.27,4.19h-1.46ZM229.84,814.69h1.4c1.13,0,1.92-.62,1.92-1.72s-.77-1.76-1.92-1.76h-1.4v3.49Z" style="fill: #777; stroke-width: 0px;"/>
    <path d="M243.15,819.82l-1.04-2.59h-4.33l-1.02,2.59h-1.4l3.94-9.81h1.32l3.94,9.81h-1.4ZM238.22,816.03h3.46l-1.56-3.85-.18-.53-.18.53-1.54,3.85Z" style="fill: #777; stroke-width: 0px;"/>
    <path d="M252.39,819.82l-4.87-7.03-.38-.6v7.63h-1.27v-9.81h1.25l4.85,7,.42.64v-7.65h1.27v9.81h-1.26Z" style="fill: #777; stroke-width: 0px;"/>
    <path d="M264.29,814.91c0,2.94-1.93,4.9-4.97,4.9h-3.53v-9.81h3.53c3.04,0,4.97,1.98,4.97,4.9ZM257.07,818.63h2.26c2.26,0,3.67-1.39,3.67-3.71s-1.39-3.71-3.67-3.71h-2.26v7.42Z" style="fill: #777; stroke-width: 0px;"/>
  </g>
  <g id="image">
    <path d="M664.76,806.69h-9.63v2.49h3.42v11.5h2.81v-11.5h3.4v-2.49Z" style="fill: #000; stroke-width: 0px;"/>
    <path d="M665.38,820.68h2.81v-5.69c0-1.4.44-2.08,1.3-2.08.73,0,1.09.5,1.09,1.51v6.26h2.83v-6.59c0-2.22-.86-3.31-2.58-3.31-1.26,0-2.16.63-2.64,1.85v-5.95h-2.81v13.99Z" style="fill: #000; stroke-width: 0px;"/>
    <path d="M674.65,809.49h2.91v-2.8h-2.91v2.8ZM674.73,820.68h2.77v-9.64h-2.77v9.64Z" style="fill: #000; stroke-width: 0px;"/>
    <path d="M678.95,820.68h2.81v-5.71c0-1.38.44-2.05,1.28-2.05.76,0,1.11.5,1.11,1.59v6.16h2.83v-6.57c0-2.22-.86-3.31-2.6-3.31-1.3,0-2.2.65-2.73,1.93v-1.7h-2.7v9.64Z" style="fill: #000; stroke-width: 0px;"/>
    <path d="M693.85,820.68h3.08l-2.85-6.01,2.77-3.63h-3.16l-2.52,3.98v-8.32h-2.81v13.99h2.81v-2.84l.92-1.3,1.76,4.14Z" style="fill: #000; stroke-width: 0px;"/>
    <path d="M703.85,820.92c1.74,0,2.91-.92,3.38-2.41l.11,2.17h2.16v-7.62h-5.16v2.22h2.33v.34c0,1.85-.67,3-2.07,3-1.61,0-2.35-1.2-2.35-4.95s.78-4.74,2.29-4.74c1.3,0,1.87.9,2.01,2.58l2.93-.55c-.19-2.7-1.87-4.26-4.89-4.26-3.42,0-5.41,2.16-5.41,6.98s1.66,7.25,4.67,7.25Z" style="fill: #000; stroke-width: 0px;"/>
    <path d="M713.56,806.69h-2.81v13.99h2.81v-13.99Z" style="fill: #000; stroke-width: 0px;"/>
    <path d="M718.92,820.82c2.56,0,4.34-1.45,4.34-5.01s-1.78-5.01-4.34-5.01-4.34,1.45-4.34,5.01,1.78,5.01,4.34,5.01ZM718.92,818.87c-.86,0-1.42-.65-1.42-3.06s.55-3.06,1.42-3.06,1.42.65,1.42,3.06-.55,3.06-1.42,3.06Z" style="fill: #000; stroke-width: 0px;"/>
    <path d="M729.35,820.82c2.2,0,3.35-1.59,3.35-5.01s-1.13-5.01-3.17-5.01c-1.2,0-2.08.59-2.5,1.61v-5.72h-2.87v13.99h2.56l.19-1.52c.38,1.05,1.26,1.66,2.45,1.66ZM728.3,818.82c-.84,0-1.34-.73-1.34-2.03v-1.97c0-1.26.52-2.01,1.36-2.01.94,0,1.36.76,1.36,3s-.44,3-1.38,3Z" style="fill: #000; stroke-width: 0px;"/>
    <path d="M736.1,820.82c1.36,0,2.41-.69,2.7-1.72,0,.46.06,1.12.13,1.58h2.75c-.15-.69-.21-1.42-.21-2.49v-3.98c0-2.41-1.17-3.42-3.86-3.42-2.39,0-4.07,1.07-4.09,3.46h2.85c.02-1.05.31-1.63,1.2-1.63.71,0,1.03.4,1.03,1.32v.71l-1.89.33c-1.15.21-1.99.54-2.5.98-.55.48-.92,1.17-.92,2.08,0,1.68,1.07,2.79,2.81,2.79ZM737.27,818.95c-.67,0-1.03-.46-1.03-1.17,0-.82.46-1.26,1.36-1.45l1.09-.23v1.32c0,.94-.57,1.53-1.42,1.53Z" style="fill: #000; stroke-width: 0px;"/>
    <path d="M745.57,806.69h-2.81v13.99h2.81v-13.99Z" style="fill: #000; stroke-width: 0px;"/>
    <path d="M758.77,806.69h-2.96v5.85h-3.86v-5.85h-2.94v13.99h2.94v-5.86h3.86v5.86h2.96v-13.99Z" style="fill: #000; stroke-width: 0px;"/>
    <path d="M768.06,815.16c0-2.72-1.45-4.36-4.09-4.36s-4.23,1.57-4.23,5.01,1.7,5.01,4.36,5.01c2.01,0,3.56-1.03,3.92-2.91l-2.39-.71c-.19,1.15-.76,1.57-1.49,1.57-1.03,0-1.57-.71-1.61-2.39h5.53v-1.22ZM762.53,814.82c.04-1.78.57-2.33,1.4-2.33s1.3.5,1.3,2.33h-2.7Z" style="fill: #000; stroke-width: 0px;"/>
    <path d="M771.25,820.82c1.36,0,2.41-.69,2.7-1.72,0,.46.06,1.12.13,1.58h2.75c-.15-.69-.21-1.42-.21-2.49v-3.98c0-2.41-1.17-3.42-3.86-3.42-2.39,0-4.07,1.07-4.09,3.46h2.85c.02-1.05.31-1.63,1.2-1.63.71,0,1.03.4,1.03,1.32v.71l-1.89.33c-1.15.21-1.99.54-2.5.98-.55.48-.92,1.17-.92,2.08,0,1.68,1.07,2.79,2.81,2.79ZM772.42,818.95c-.67,0-1.03-.46-1.03-1.17,0-.82.46-1.26,1.36-1.45l1.09-.23v1.32c0,.94-.57,1.53-1.42,1.53Z" style="fill: #000; stroke-width: 0px;"/>
    <path d="M780.69,806.69h-2.81v13.99h2.81v-13.99Z" style="fill: #000; stroke-width: 0px;"/>
    <path d="M781.28,812.95h1.38v4.84c0,1.97.96,2.96,3.17,2.96.57,0,1.05-.06,1.59-.15v-2.29c-.23.04-.44.06-.75.06-.8,0-1.2-.44-1.2-1.28v-4.13h1.93v-1.91h-1.93v-3.27l-2.81,1.03v2.24h-1.38v1.91Z" style="fill: #000; stroke-width: 0px;"/>
    <path d="M788.14,820.68h2.81v-5.69c0-1.4.44-2.08,1.3-2.08.73,0,1.09.5,1.09,1.51v6.26h2.83v-6.59c0-2.22-.86-3.31-2.58-3.31-1.26,0-2.16.63-2.64,1.85v-5.95h-2.81v13.99Z" style="fill: #000; stroke-width: 0px;"/>
  </g>
  <g>
    <g id="_1.492537313" data-name="1.492537313" style="opacity: .5;">
      <path id="p_690.1545511851691" data-name="p 690.1545511851691" d="M257.78,694.49c-62.93,0-113.94-51.01-113.94-113.94s51.01-113.94,113.94-113.94,113.94,51.01,113.94,113.94-51.01,113.94-113.94,113.94Z" style="fill: #c6ddf4; stroke-width: 0px;"/>
    </g>
    <g id="_1" data-name="1">
      <path id="p_941.5212014134275" data-name="p 941.5212014134275" d="M257.78,694.49c-51.51,0-93.26-41.76-93.26-93.26s41.76-93.26,93.26-93.26,93.26,41.76,93.26,93.26-41.76,93.26-93.26,93.26Z" style="fill: #c6ddf4; stroke-width: 0px;"/>
    </g>
    <g id="_0.3597122302" data-name="0.3597122302">
      <path id="p_936.5955406542181" data-name="p 936.5955406542181" d="M257.78,207.77c-30.89,0-55.94-25.04-55.94-55.94s25.04-55.94,55.94-55.94,55.94,25.04,55.94,55.94-25.04,55.94-55.94,55.94Z" style="fill: #dbb9e6; stroke-width: 0px;"/>
    </g>
    <g id="_0.2369668246" data-name="0.2369668246">
      <path id="p_613.6949515338912" data-name="p 613.6949515338912" d="M257.78,430.59c-25.07,0-45.4-20.32-45.4-45.4,0-25.07,20.32-45.4,45.4-45.4h0c25.07,0,45.4,20.32,45.4,45.4,0,25.07-20.32,45.4-45.4,45.4h0Z" style="fill: #f56647; stroke-width: 0px;"/>
    </g>
    <g id="_1-2" data-name="1" style="opacity: .5;">
      <path id="p_941.5212014134275-2" data-name="p 941.5212014134275" d="M257.78,430.46c-51.51,0-93.26-41.76-93.26-93.26s41.76-93.26,93.26-93.26,93.26,41.76,93.26,93.26-41.76,93.26-93.26,93.26Z" style="fill: #f56647; stroke-width: 0px;"/>
    </g>
    <g id="_1-3" data-name="1" style="opacity: .5;">
      <path id="p_941.5212014134275-3" data-name="p 941.5212014134275" d="M257.78,207.77c-51.51,0-93.26-41.76-93.26-93.26s41.76-93.26,93.26-93.26,93.26,41.76,93.26,93.26-41.76,93.26-93.26,93.26Z" style="fill: #dbb9e6; stroke-width: 0px;"/>
    </g>
    <g style="isolation: isolate;">
      <path d="M442.6,357.89c0,1.32-.48,2.27-1.32,2.94,1.3.56,2.17,1.78,2.17,3.42,0,2.69-1.97,4.46-5.13,4.46h-5.5v-15.16h4.81c3.07,0,4.98,1.65,4.98,4.33ZM435.78,359.77h1.88c1.19,0,1.93-.65,1.93-1.67,0-1.19-.76-1.78-1.97-1.78h-1.84v3.44ZM435.78,365.94h2.53c1.3,0,2.08-.63,2.08-1.8s-.78-1.8-2.08-1.8h-2.53v3.59Z" style="fill: #12181e; stroke-width: 0px;"/>
      <path d="M449.4,361.09c-.52.39-.87,1.04-.89,2.01v5.61h-2.81v-10.98h2.42l.24,1.75c.39-.95,1.34-1.86,3.23-1.86v2.79c-.89,0-1.56.15-2.19.67Z" style="fill: #12181e; stroke-width: 0px;"/>
      <path d="M461.76,361.5v7.21h-2.4l-.17-1.34c-.58.89-1.58,1.58-3.14,1.58-1.95,0-3.33-1.19-3.33-3.16,0-2.14,1.45-2.97,3.4-3.29l2.84-.5v-.43c0-1.1-.52-1.67-1.54-1.67-.93,0-1.67.56-1.67,1.45h-2.71c.13-2.23,1.78-3.85,4.37-3.85s4.35,1.32,4.35,4.01ZM455.5,365.55c0,.65.45,1.08,1.3,1.08.69,0,1.36-.35,1.75-1,.24-.37.39-.91.39-1.45v-.32l-2.19.45c-.74.17-1.26.5-1.26,1.23Z" style="fill: #12181e; stroke-width: 0px;"/>
      <path d="M473.56,361.59v7.12h-2.79v-6.52c0-1.28-.54-1.97-1.6-1.97s-1.93.84-1.93,2.69v5.8h-2.79v-10.98h2.4l.19,1.43c.5-.91,1.52-1.67,2.97-1.67,2.34,0,3.55,1.6,3.55,4.09Z" style="fill: #12181e; stroke-width: 0px;"/>
      <path d="M484.36,368.71l-.2-1.47c-.63.89-1.62,1.71-3.51,1.71-2.94,0-5.09-2.51-5.09-5.74s2.14-5.72,5.11-5.72c1.58,0,2.73.65,3.29,1.45v-6.04h2.79v15.81h-2.4ZM478.47,363.21c0,1.91,1.19,3.12,2.77,3.12,1.39,0,2.79-1.08,2.79-3.05v-.13c-.02-1.95-1.43-3.03-2.79-3.03-1.54,0-2.77,1.21-2.77,3.1Z" style="fill: #12181e; stroke-width: 0px;"/>
      <path d="M488.75,364.34v-2.49h6.82v2.49h-6.82Z" style="fill: #12181e; stroke-width: 0px;"/>
      <path d="M506.68,361.59v7.12h-2.79v-6.52c0-1.28-.54-1.97-1.6-1.97s-1.93.84-1.93,2.69v5.8h-2.79v-10.98h2.4l.19,1.43c.5-.91,1.52-1.67,2.97-1.67,2.34,0,3.55,1.6,3.55,4.09Z" style="fill: #12181e; stroke-width: 0px;"/>
      <path d="M517.89,361.5v7.21h-2.4l-.17-1.34c-.58.89-1.58,1.58-3.14,1.58-1.95,0-3.33-1.19-3.33-3.16,0-2.14,1.45-2.97,3.4-3.29l2.84-.5v-.43c0-1.1-.52-1.67-1.54-1.67-.93,0-1.67.56-1.67,1.45h-2.71c.13-2.23,1.78-3.85,4.37-3.85s4.35,1.32,4.35,4.01ZM511.63,365.55c0,.65.45,1.08,1.3,1.08.69,0,1.36-.35,1.75-1,.24-.37.39-.91.39-1.45v-.32l-2.19.45c-.74.17-1.26.5-1.26,1.23Z" style="fill: #12181e; stroke-width: 0px;"/>
      <path d="M535.92,361.59v7.12h-2.79v-6.52c0-1.28-.52-1.97-1.56-1.97s-1.93.84-1.93,2.69v5.8h-2.79v-6.52c0-1.28-.52-1.97-1.58-1.97s-1.91.84-1.91,2.69v5.8h-2.79v-10.98h2.4l.19,1.43c.5-.91,1.49-1.67,2.95-1.67,1.56,0,2.62.71,3.14,1.93.52-1.04,1.58-1.93,3.16-1.93,2.34,0,3.51,1.6,3.51,4.09Z" style="fill: #12181e; stroke-width: 0px;"/>
      <path d="M548.45,364.08h-7.64c.09,1.45,1.08,2.47,2.62,2.47,1.1,0,1.93-.43,2.23-1.28h2.73c-.67,2.32-2.38,3.68-5.02,3.68-3.25,0-5.46-2.25-5.46-5.72s2.19-5.74,5.46-5.74c2.9,0,5.09,1.84,5.09,5.69v.89ZM545.64,362.15c-.04-1.43-.95-2.34-2.34-2.34s-2.36.97-2.49,2.34h4.83Z" style="fill: #12181e; stroke-width: 0px;"/>
      <path d="M562.89,368.71l-.19-1.47c-.63.89-1.62,1.71-3.51,1.71-2.94,0-5.09-2.51-5.09-5.74s2.14-5.72,5.11-5.72c1.58,0,2.73.65,3.29,1.45v-6.04h2.79v15.81h-2.4ZM557,363.21c0,1.91,1.19,3.12,2.77,3.12,1.39,0,2.79-1.08,2.79-3.05v-.13c-.02-1.95-1.43-3.03-2.79-3.03-1.54,0-2.77,1.21-2.77,3.1Z" style="fill: #12181e; stroke-width: 0px;"/>
      <path d="M571.98,361.09c-.52.39-.87,1.04-.89,2.01v5.61h-2.81v-10.98h2.42l.24,1.75c.39-.95,1.34-1.86,3.23-1.86v2.79c-.89,0-1.56.15-2.19.67Z" style="fill: #12181e; stroke-width: 0px;"/>
      <path d="M582.68,368.71l-.22-1.43c-.5.95-1.47,1.67-2.9,1.67-2.36,0-3.53-1.6-3.53-4.09v-7.12h2.79v6.5c0,1.3.52,1.99,1.56,1.99s1.91-.82,1.91-2.6v-5.89h2.79v10.98h-2.4Z" style="fill: #12181e; stroke-width: 0px;"/>
      <path d="M597.83,360.12h-1.62c.13.39.19.82.19,1.28,0,2.21-1.78,3.81-4.31,3.81-.65,0-1.28-.11-1.82-.28-.15.19-.28.45-.28.8,0,.58.43.91,1.1.91h2.6c2.25,0,3.59,1.1,3.59,3.16,0,2.47-1.93,3.81-4.85,3.81-3.27,0-4.98-1.21-4.98-3.38,0-.95.56-1.58,1.1-1.93-.67-.45-1.28-1.3-1.28-2.36s.48-1.8,1.15-2.32c-.5-.61-.76-1.36-.76-2.23,0-2.27,1.82-3.9,4.42-3.9.56,0,1.1.06,1.58.24h4.16v2.38ZM590.21,370.01c0,1,.87,1.49,2.23,1.49s2.1-.52,2.1-1.54c0-.82-.58-1.21-1.56-1.21h-1.65c-.63.09-1.13.5-1.13,1.26ZM593.72,361.4c0-1.06-.67-1.78-1.65-1.78s-1.65.71-1.65,1.78.65,1.75,1.65,1.75,1.65-.74,1.65-1.75Z" style="fill: #12181e; stroke-width: 0px;"/>
      <path d="M606.81,360.96h-2.77c-.02-.8-.41-1.26-1.26-1.26s-1.21.45-1.21,1.08c0,.67.37,1,1.91,1.28,2.66.43,3.59,1.54,3.59,3.31,0,2.49-1.97,3.57-4.24,3.57-2.71,0-4.2-1.41-4.29-3.57h2.77c.02.89.61,1.36,1.58,1.36.87,0,1.36-.41,1.36-1.06s-.35-1.06-1.99-1.36c-2.4-.41-3.49-1.45-3.49-3.27s1.32-3.55,4.03-3.55c2.32,0,3.94,1.39,4.01,3.46Z" style="fill: #12181e; stroke-width: 0px;"/>
      <path d="M621.42,361.48v7.23h-1.69l-.09-1.49c-.54.97-1.71,1.73-3.31,1.73-1.91,0-3.18-1.17-3.18-3.07s1.34-2.84,3.05-3.16l3.33-.63v-.54c0-1.56-.71-2.25-2.01-2.25-1.19,0-2.23.65-2.23,1.99h-1.84c.07-2.1,1.67-3.72,4.07-3.72s3.9,1.39,3.9,3.92ZM615.04,365.86c0,.87.61,1.36,1.67,1.36.91,0,1.71-.39,2.21-1.08.37-.5.63-1.26.63-2.01v-.41l-2.99.65c-.82.19-1.52.52-1.52,1.49Z" style="fill: #12181e; stroke-width: 0px;"/>
      <path d="M627.44,360.36c-.58.54-.97,1.39-1,2.58v5.78h-1.86v-10.91h1.67l.13,1.91c.37-1,1.39-2.01,3.27-2.01v1.86c-.87,0-1.6.24-2.21.8Z" style="fill: #12181e; stroke-width: 0px;"/>
      <path d="M640.89,363.99h-8.27c.13,2.01,1.49,3.23,3.36,3.23,1.45,0,2.51-.63,2.94-1.78h1.86c-.65,2.17-2.34,3.51-4.85,3.51-3.08,0-5.26-2.23-5.26-5.67s2.08-5.72,5.26-5.72c2.86,0,4.96,1.86,4.96,5.54v.89ZM639,362.33c-.02-1.86-1.26-3.03-3.07-3.03s-3.1,1.28-3.31,3.03h6.39Z" style="fill: #12181e; stroke-width: 0px;"/>
      <path d="M442.34,389.8v1.8h-2.12v3.1h-1.97v-3.1h-6.34v-1.62l5.98-10.44h2.34v10.26h2.12ZM434.07,389.82h4.2v-7.47l-.48.93-3.72,6.54Z" style="fill: #12181e; stroke-width: 0px;"/>
      <path d="M446.5,393.59c0,.76-.61,1.34-1.36,1.34s-1.36-.58-1.36-1.34.58-1.34,1.36-1.34,1.36.56,1.36,1.34Z" style="fill: #12181e; stroke-width: 0px;"/>
      <path d="M456.91,383.45c0,1.75-.78,3.07-1.84,4.44l-3.88,4.96h5.95v1.84h-8.66v-1.45l4.87-6.15c1.08-1.36,1.56-2.25,1.56-3.57,0-1.56-.74-2.43-2.25-2.43-1.36,0-2.36.87-2.36,2.81h-1.97c0-2.86,1.69-4.66,4.35-4.66s4.22,1.67,4.22,4.2Z" style="fill: #12181e; stroke-width: 0px;"/>
      <path d="M467.41,383.45c0,1.75-.78,3.07-1.84,4.44l-3.88,4.96h5.95v1.84h-8.66v-1.45l4.87-6.15c1.08-1.36,1.56-2.25,1.56-3.57,0-1.56-.74-2.43-2.25-2.43-1.36,0-2.36.87-2.36,2.81h-1.97c0-2.86,1.69-4.66,4.35-4.66s4.22,1.67,4.22,4.2Z" style="fill: #12181e; stroke-width: 0px;"/>
      <path d="M478.9,394.69h-2.21l-2.84-4.16-2.81,4.16h-2.21l3.77-5.63-3.53-5.28h2.21l2.58,3.81,2.6-3.81h2.21l-3.55,5.28,3.79,5.63Z" style="fill: #12181e; stroke-width: 0px;"/>
      <path d="M500.23,387.63v7.06h-1.86v-6.76c0-1.69-.78-2.58-2.1-2.58-1.43,0-2.51,1.26-2.51,3.49v5.85h-1.86v-6.76c0-1.69-.78-2.58-2.1-2.58-1.43,0-2.51,1.26-2.51,3.49v5.85h-1.86v-10.91h1.67l.11,1.49c.5-.95,1.54-1.73,3.03-1.73,1.62,0,2.69.8,3.18,2.08.56-1.08,1.6-2.08,3.29-2.08,2.36,0,3.53,1.69,3.53,4.09Z" style="fill: #12181e; stroke-width: 0px;"/>
      <path d="M513.47,389.23c0,3.31-2.27,5.69-5.52,5.69s-5.54-2.38-5.54-5.69,2.27-5.69,5.54-5.69,5.52,2.38,5.52,5.69ZM504.34,389.23c0,2.25,1.45,3.96,3.64,3.96s3.57-1.71,3.57-3.96-1.41-3.96-3.57-3.96-3.64,1.69-3.64,3.96Z" style="fill: #12181e; stroke-width: 0px;"/>
      <path d="M518.88,386.33c-.58.54-.97,1.39-1,2.58v5.78h-1.86v-10.91h1.67l.13,1.91c.37-1,1.39-2.01,3.27-2.01v1.86c-.87,0-1.6.24-2.21.8Z" style="fill: #12181e; stroke-width: 0px;"/>
      <path d="M532.33,389.97h-8.27c.13,2.01,1.49,3.23,3.36,3.23,1.45,0,2.51-.63,2.94-1.78h1.86c-.65,2.17-2.34,3.51-4.85,3.51-3.08,0-5.26-2.23-5.26-5.67s2.08-5.72,5.26-5.72c2.86,0,4.96,1.86,4.96,5.54v.89ZM530.44,388.3c-.02-1.86-1.26-3.03-3.07-3.03s-3.1,1.28-3.31,3.03h6.39Z" style="fill: #12181e; stroke-width: 0px;"/>
      <path d="M548.48,389.97h-8.27c.13,2.01,1.49,3.23,3.36,3.23,1.45,0,2.51-.63,2.94-1.78h1.86c-.65,2.17-2.34,3.51-4.85,3.51-3.08,0-5.26-2.23-5.26-5.67s2.08-5.72,5.26-5.72c2.86,0,4.96,1.86,4.96,5.54v.89ZM546.59,388.3c-.02-1.86-1.26-3.03-3.07-3.03s-3.1,1.28-3.31,3.03h6.39Z" style="fill: #12181e; stroke-width: 0px;"/>
      <path d="M559.28,394.69h-2.21l-2.84-4.16-2.82,4.16h-2.21l3.77-5.63-3.53-5.28h2.21l2.58,3.81,2.6-3.81h2.21l-3.55,5.28,3.79,5.63Z" style="fill: #12181e; stroke-width: 0px;"/>
      <path d="M572.14,389.23c0,3.23-2.04,5.69-5.11,5.69-1.82,0-3.03-.8-3.62-1.73v6.15h-1.88v-15.57h1.69l.09,1.6c.67-.97,1.78-1.84,3.75-1.84,3.07,0,5.09,2.47,5.09,5.69ZM563.37,389.13v.11c0,2.43,1.65,3.92,3.38,3.92,2.04,0,3.46-1.62,3.46-3.92s-1.36-3.94-3.44-3.94c-1.78,0-3.4,1.47-3.4,3.83Z" style="fill: #12181e; stroke-width: 0px;"/>
      <path d="M584.06,389.97h-8.27c.13,2.01,1.49,3.23,3.36,3.23,1.45,0,2.51-.63,2.94-1.78h1.86c-.65,2.17-2.34,3.51-4.85,3.51-3.08,0-5.26-2.23-5.26-5.67s2.08-5.72,5.26-5.72c2.86,0,4.96,1.86,4.96,5.54v.89ZM582.18,388.3c-.02-1.86-1.26-3.03-3.07-3.03s-3.1,1.28-3.31,3.03h6.39Z" style="fill: #12181e; stroke-width: 0px;"/>
      <path d="M594.86,387.63v7.06h-1.88v-6.76c0-1.69-.8-2.58-2.12-2.58-1.43,0-2.53,1.26-2.53,3.49v5.85h-1.86v-10.91h1.67l.11,1.49c.5-.95,1.54-1.73,3.07-1.73,2.34,0,3.55,1.69,3.55,4.09Z" style="fill: #12181e; stroke-width: 0px;"/>
      <path d="M604.63,386.98h-1.91c-.02-1.15-.56-1.71-1.73-1.71s-1.67.67-1.67,1.47c0,.84.43,1.19,2.06,1.58,2.6.61,3.57,1.52,3.57,3.27,0,2.12-1.65,3.33-3.83,3.33-2.53,0-3.94-1.43-3.98-3.55h1.91c.02,1.15.76,1.82,2.12,1.82,1.26,0,1.88-.63,1.88-1.47,0-.91-.48-1.34-2.27-1.75-2.27-.52-3.36-1.32-3.36-3.12s1.26-3.31,3.62-3.31c2.12,0,3.55,1.39,3.59,3.44Z" style="fill: #12181e; stroke-width: 0px;"/>
      <path d="M609.73,380.42c0,.69-.58,1.26-1.3,1.26s-1.28-.56-1.28-1.26.56-1.28,1.28-1.28,1.3.56,1.3,1.28ZM607.5,394.69v-10.91h1.86v10.91h-1.86Z" style="fill: #12181e; stroke-width: 0px;"/>
      <path d="M615.54,394.69l-4.16-10.91h1.99l2.88,7.84.22.82.22-.82,2.88-7.84h2.01l-4.18,10.91h-1.86Z" style="fill: #12181e; stroke-width: 0px;"/>
      <path d="M632.49,389.97h-8.27c.13,2.01,1.49,3.23,3.36,3.23,1.45,0,2.51-.63,2.94-1.78h1.86c-.65,2.17-2.34,3.51-4.85,3.51-3.08,0-5.26-2.23-5.26-5.67s2.08-5.72,5.26-5.72c2.86,0,4.96,1.86,4.96,5.54v.89ZM630.6,388.3c-.02-1.86-1.26-3.03-3.07-3.03s-3.1,1.28-3.31,3.03h6.39Z" style="fill: #12181e; stroke-width: 0px;"/>
      <path d="M435.22,406.4c0,.69-.58,1.26-1.3,1.26s-1.28-.56-1.28-1.26.56-1.28,1.28-1.28,1.3.56,1.3,1.28ZM432.99,420.67v-10.91h1.86v10.91h-1.86Z" style="fill: #12181e; stroke-width: 0px;"/>
      <path d="M446.56,413.61v7.06h-1.88v-6.76c0-1.69-.8-2.58-2.12-2.58-1.43,0-2.53,1.26-2.53,3.49v5.85h-1.86v-10.91h1.67l.11,1.49c.5-.95,1.54-1.73,3.07-1.73,2.34,0,3.55,1.69,3.55,4.09Z" style="fill: #12181e; stroke-width: 0px;"/>
      <path d="M459.31,409.76v1.73h-2.81l-.04,5.85c0,1.19.3,1.78,1.56,1.78.61,0,.97-.09,1.3-.19v1.67c-.32.13-.82.24-1.62.24-2.06,0-3.12-.91-3.1-3.14l.04-6.19h-2.04v-1.73h2.04l.02-2.73h1.88l-.02,2.73h2.79Z" style="fill: #12181e; stroke-width: 0px;"/>
      <path d="M466.43,409.52c2.34,0,3.55,1.69,3.55,4.09v7.06h-1.88v-6.76c0-1.69-.8-2.58-2.12-2.58-1.43,0-2.53,1.26-2.53,3.49v5.85h-1.86v-15.81h1.86v6.26c.41-.84,1.41-1.6,2.99-1.6Z" style="fill: #12181e; stroke-width: 0px;"/>
      <path d="M482.39,415.95h-8.27c.13,2.01,1.49,3.23,3.36,3.23,1.45,0,2.51-.63,2.95-1.78h1.86c-.65,2.17-2.34,3.51-4.85,3.51-3.08,0-5.26-2.23-5.26-5.67s2.08-5.72,5.26-5.72c2.86,0,4.96,1.86,4.96,5.54v.89ZM480.5,414.28c-.02-1.86-1.26-3.03-3.07-3.03s-3.1,1.28-3.31,3.03h6.39Z" style="fill: #12181e; stroke-width: 0px;"/>
      <path d="M495.01,420.95c-3.75,0-5.96-2.19-5.96-6.28v-9.16h1.97v9.16c0,2.9,1.32,4.44,3.98,4.44s3.96-1.52,3.96-4.44v-9.16h1.97v9.16c0,4.09-2.19,6.28-5.93,6.28Z" style="fill: #12181e; stroke-width: 0px;"/>
      <path d="M512.43,413.61v7.06h-1.88v-6.76c0-1.69-.8-2.58-2.12-2.58-1.43,0-2.53,1.26-2.53,3.49v5.85h-1.86v-10.91h1.67l.11,1.49c.5-.95,1.54-1.73,3.07-1.73,2.34,0,3.55,1.69,3.55,4.09Z" style="fill: #12181e; stroke-width: 0px;"/>
      <path d="M517.8,406.4c0,.69-.58,1.26-1.3,1.26s-1.28-.56-1.28-1.26.56-1.28,1.28-1.28,1.3.56,1.3,1.28ZM515.57,420.67v-10.91h1.86v10.91h-1.86Z" style="fill: #12181e; stroke-width: 0px;"/>
      <path d="M526.01,409.76v1.73h-2.82l-.04,5.85c0,1.19.3,1.78,1.56,1.78.61,0,.97-.09,1.3-.19v1.67c-.33.13-.82.24-1.62.24-2.06,0-3.12-.91-3.1-3.14l.04-6.19h-2.04v-1.73h2.04l.02-2.73h1.88l-.02,2.73h2.79Z" style="fill: #12181e; stroke-width: 0px;"/>
      <path d="M537.61,415.95h-8.27c.13,2.01,1.49,3.23,3.36,3.23,1.45,0,2.51-.63,2.94-1.78h1.86c-.65,2.17-2.34,3.51-4.85,3.51-3.08,0-5.26-2.23-5.26-5.67s2.08-5.72,5.26-5.72c2.86,0,4.96,1.86,4.96,5.54v.89ZM535.73,414.28c-.02-1.86-1.26-3.03-3.07-3.03s-3.1,1.28-3.31,3.03h6.39Z" style="fill: #12181e; stroke-width: 0px;"/>
      <path d="M548.19,420.67l-.11-1.6c-.67.97-1.78,1.84-3.75,1.84-3.07,0-5.09-2.47-5.09-5.69s2.04-5.69,5.11-5.69c1.82,0,3.03.8,3.64,1.73v-6.39h1.86v15.81h-1.67ZM541.18,415.21c0,2.32,1.36,3.94,3.44,3.94,1.78,0,3.4-1.47,3.4-3.83v-.11c0-2.42-1.65-3.92-3.38-3.92-2.04,0-3.46,1.62-3.46,3.92Z" style="fill: #12181e; stroke-width: 0px;"/>
      <path d="M566.01,409.52h-1.99c-.02-1.62-1.04-2.51-2.49-2.51s-2.34.84-2.34,2.3.95,1.97,3.01,2.79c3.05,1.13,4.29,2.23,4.29,4.46,0,2.77-1.95,4.4-4.7,4.4-3.21,0-4.98-1.93-5.02-4.74h1.99c.04,1.93,1.15,2.99,3.05,2.99,1.78,0,2.68-1.08,2.68-2.51,0-1.3-.91-1.99-3.18-2.79-2.58-.95-4.11-1.99-4.11-4.44s1.56-4.22,4.37-4.22c2.64,0,4.37,1.47,4.44,4.29Z" style="fill: #12181e; stroke-width: 0px;"/>
      <path d="M574.17,409.76v1.73h-2.82l-.04,5.85c0,1.19.3,1.78,1.56,1.78.61,0,.97-.09,1.3-.19v1.67c-.33.13-.82.24-1.62.24-2.06,0-3.12-.91-3.1-3.14l.04-6.19h-2.04v-1.73h2.04l.02-2.73h1.88l-.02,2.73h2.79Z" style="fill: #12181e; stroke-width: 0px;"/>
      <path d="M584.06,413.44v7.23h-1.69l-.09-1.49c-.54.97-1.71,1.73-3.31,1.73-1.91,0-3.18-1.17-3.18-3.07s1.34-2.84,3.05-3.16l3.33-.63v-.54c0-1.56-.71-2.25-2.01-2.25-1.19,0-2.23.65-2.23,1.99h-1.84c.07-2.1,1.67-3.72,4.07-3.72s3.9,1.39,3.9,3.92ZM577.68,417.81c0,.87.61,1.36,1.67,1.36.91,0,1.71-.39,2.21-1.08.37-.5.63-1.26.63-2.01v-.41l-2.99.65c-.82.19-1.52.52-1.52,1.49Z" style="fill: #12181e; stroke-width: 0px;"/>
      <path d="M592.33,409.76v1.73h-2.82l-.04,5.85c0,1.19.3,1.78,1.56,1.78.61,0,.97-.09,1.3-.19v1.67c-.33.13-.82.24-1.62.24-2.06,0-3.12-.91-3.1-3.14l.04-6.19h-2.04v-1.73h2.04l.02-2.73h1.88l-.02,2.73h2.79Z" style="fill: #12181e; stroke-width: 0px;"/>
      <path d="M603.94,415.95h-8.27c.13,2.01,1.49,3.23,3.36,3.23,1.45,0,2.51-.63,2.94-1.78h1.86c-.65,2.17-2.34,3.51-4.85,3.51-3.08,0-5.26-2.23-5.26-5.67s2.08-5.72,5.26-5.72c2.86,0,4.96,1.86,4.96,5.54v.89ZM602.05,414.28c-.02-1.86-1.26-3.03-3.07-3.03s-3.1,1.28-3.31,3.03h6.39Z" style="fill: #12181e; stroke-width: 0px;"/>
      <path d="M613.03,412.96h-1.91c-.02-1.15-.56-1.71-1.73-1.71s-1.67.67-1.67,1.47c0,.84.43,1.19,2.06,1.58,2.6.61,3.57,1.52,3.57,3.27,0,2.12-1.65,3.33-3.83,3.33-2.53,0-3.94-1.43-3.98-3.55h1.91c.02,1.15.76,1.82,2.12,1.82,1.25,0,1.88-.63,1.88-1.47,0-.91-.48-1.34-2.27-1.75-2.27-.52-3.36-1.32-3.36-3.12s1.26-3.31,3.62-3.31c2.12,0,3.55,1.39,3.59,3.44Z" style="fill: #12181e; stroke-width: 0px;"/>
    </g>
    <g id="callout-line-svg">
      <path d="M413.37,101.26c-13.84-7.17-29.06-11.94-45.66-14.3" style="fill: none; stroke: #12181e;"/>
      <path d="M373.17,83.69l-5.46,3.27,4.74,4.76" style="fill: none; stroke: #12181e; stroke-miterlimit: 4; stroke-width: 1px;"/>
    </g>
    <g style="isolation: isolate;">
      <path d="M447.78,105.76c0,4.55-3.25,7.88-7.84,7.88s-7.86-3.33-7.86-7.88,3.25-7.84,7.86-7.84,7.84,3.31,7.84,7.84ZM435.15,105.76c0,2.94,1.88,5.11,4.79,5.11s4.76-2.17,4.76-5.11-1.88-5.07-4.76-5.07-4.79,2.14-4.79,5.07Z" style="fill: #12181e; stroke-width: 0px;"/>
      <path d="M452.69,113.36l-3.96-10.98h3.01l2.17,6.76.22.95.22-.95,2.17-6.76h3.01l-3.96,10.98h-2.86Z" style="fill: #12181e; stroke-width: 0px;"/>
      <path d="M470.63,108.73h-7.64c.09,1.45,1.08,2.47,2.62,2.47,1.1,0,1.93-.43,2.23-1.28h2.73c-.67,2.32-2.38,3.68-5.02,3.68-3.25,0-5.46-2.25-5.46-5.72s2.19-5.74,5.46-5.74c2.9,0,5.09,1.84,5.09,5.69v.89ZM467.82,106.8c-.04-1.43-.95-2.34-2.34-2.34s-2.36.97-2.49,2.34h4.83Z" style="fill: #12181e; stroke-width: 0px;"/>
      <path d="M476.59,105.74c-.52.39-.87,1.04-.89,2.01v5.61h-2.81v-10.98h2.42l.24,1.75c.39-.95,1.34-1.86,3.23-1.86v2.79c-.89,0-1.56.15-2.19.67Z" style="fill: #12181e; stroke-width: 0px;"/>
      <path d="M488.95,106.15v7.21h-2.4l-.17-1.34c-.58.89-1.58,1.58-3.14,1.58-1.95,0-3.33-1.19-3.33-3.16,0-2.14,1.45-2.97,3.4-3.29l2.84-.5v-.43c0-1.1-.52-1.67-1.54-1.67-.93,0-1.67.56-1.67,1.45h-2.71c.13-2.23,1.78-3.85,4.37-3.85s4.35,1.32,4.35,4.01ZM482.69,110.2c0,.65.45,1.08,1.3,1.08.69,0,1.36-.35,1.75-1,.24-.37.39-.91.39-1.45v-.32l-2.19.45c-.74.17-1.26.5-1.26,1.23Z" style="fill: #12181e; stroke-width: 0px;"/>
      <path d="M491.63,113.36v-15.81h2.79v15.81h-2.79Z" style="fill: #12181e; stroke-width: 0px;"/>
      <path d="M497.37,113.36v-15.81h2.79v15.81h-2.79Z" style="fill: #12181e; stroke-width: 0px;"/>
      <path d="M505.05,112.39c0,1.34-.69,2.81-1.58,3.81l-.61-.24c.43-.76.65-1.56.76-2.45-.67-.06-1.17-.54-1.17-1.26s.56-1.28,1.3-1.28,1.3.54,1.3,1.41Z" style="fill: #12181e; stroke-width: 0px;"/>
      <path d="M519.97,113.36l-.11-1.6c-.67.97-1.78,1.84-3.75,1.84-3.07,0-5.09-2.47-5.09-5.69s2.04-5.69,5.11-5.69c1.82,0,3.03.8,3.64,1.73v-6.39h1.86v15.81h-1.67ZM512.95,107.91c0,2.32,1.36,3.94,3.44,3.94,1.78,0,3.4-1.47,3.4-3.83v-.11c0-2.42-1.65-3.92-3.38-3.92-2.04,0-3.46,1.62-3.46,3.92Z" style="fill: #12181e; stroke-width: 0px;"/>
      <path d="M527.87,105.01c-.58.54-.97,1.39-1,2.58v5.78h-1.86v-10.91h1.67l.13,1.91c.37-1,1.39-2.01,3.27-2.01v1.86c-.87,0-1.6.24-2.21.8Z" style="fill: #12181e; stroke-width: 0px;"/>
      <path d="M538.67,113.36l-.11-1.49c-.5,1.04-1.49,1.73-3.01,1.73-2.36,0-3.51-1.67-3.51-4.09v-7.06h1.86v6.76c0,1.71.76,2.6,2.08,2.6,1.41,0,2.49-1.19,2.49-3.29v-6.06h1.86v10.91h-1.67Z" style="fill: #12181e; stroke-width: 0px;"/>
      <path d="M552.89,104.1h-1.88c.32.58.52,1.28.52,2.04,0,2.17-1.62,3.88-4.16,3.88-.91,0-1.71-.22-2.34-.58-.26.24-.45.61-.45,1.08,0,.71.56,1.1,1.39,1.1h2.9c2.32,0,3.44,1.15,3.44,2.97,0,2.32-1.75,3.68-4.55,3.68-3.1,0-4.76-1.26-4.76-3.4,0-1.04.56-1.62,1.19-1.97-.74-.37-1.45-1.17-1.45-2.27,0-1,.5-1.75,1.13-2.23-.45-.63-.69-1.41-.69-2.25,0-2.25,1.65-3.92,4.2-3.92.56,0,1.08.09,1.56.24h3.96v1.65ZM544.84,114.79c0,1.19,1.08,1.82,2.92,1.82,1.69,0,2.71-.65,2.71-1.95,0-1.02-.76-1.41-1.97-1.41h-2.08c-.82.04-1.58.48-1.58,1.54ZM549.69,106.13c0-1.3-.89-2.27-2.34-2.27s-2.34.97-2.34,2.27.91,2.23,2.34,2.23,2.34-.97,2.34-2.23Z" style="fill: #12181e; stroke-width: 0px;"/>
      <path d="M561.07,105.66h-1.91c-.02-1.15-.56-1.71-1.73-1.71s-1.67.67-1.67,1.47c0,.84.43,1.19,2.06,1.58,2.6.61,3.57,1.52,3.57,3.27,0,2.12-1.65,3.33-3.83,3.33-2.53,0-3.94-1.43-3.98-3.55h1.91c.02,1.15.76,1.82,2.12,1.82,1.26,0,1.88-.63,1.88-1.47,0-.91-.48-1.34-2.27-1.75-2.27-.52-3.36-1.32-3.36-3.12s1.26-3.31,3.62-3.31c2.12,0,3.55,1.39,3.59,3.44Z" style="fill: #12181e; stroke-width: 0px;"/>
      <path d="M575.92,106.13v7.23h-1.69l-.09-1.49c-.54.97-1.71,1.73-3.31,1.73-1.91,0-3.18-1.17-3.18-3.07s1.34-2.84,3.05-3.16l3.33-.63v-.54c0-1.56-.71-2.25-2.01-2.25-1.19,0-2.23.65-2.23,1.99h-1.84c.07-2.1,1.67-3.72,4.07-3.72s3.9,1.39,3.9,3.92ZM569.54,110.51c0,.87.61,1.36,1.67,1.36.91,0,1.71-.39,2.21-1.08.37-.5.63-1.26.63-2.01v-.41l-2.99.65c-.82.19-1.52.52-1.52,1.49Z" style="fill: #12181e; stroke-width: 0px;"/>
      <path d="M581.94,105.01c-.58.54-.97,1.39-1,2.58v5.78h-1.86v-10.91h1.67l.13,1.91c.37-1,1.39-2.01,3.27-2.01v1.86c-.87,0-1.6.24-2.21.8Z" style="fill: #12181e; stroke-width: 0px;"/>
      <path d="M595.38,108.64h-8.27c.13,2.01,1.49,3.23,3.36,3.23,1.45,0,2.51-.63,2.94-1.78h1.86c-.65,2.17-2.34,3.51-4.85,3.51-3.08,0-5.26-2.23-5.26-5.67s2.08-5.72,5.26-5.72c2.86,0,4.96,1.86,4.96,5.54v.89ZM593.5,106.98c-.02-1.86-1.26-3.03-3.07-3.03s-3.1,1.28-3.31,3.03h6.39Z" style="fill: #12181e; stroke-width: 0px;"/>
      <path d="M610.13,102.13c0,1.75-.78,3.07-1.84,4.44l-3.88,4.96h5.96v1.84h-8.66v-1.45l4.87-6.15c1.08-1.36,1.56-2.25,1.56-3.57,0-1.56-.74-2.43-2.25-2.43-1.36,0-2.36.87-2.36,2.81h-1.97c0-2.86,1.69-4.66,4.35-4.66s4.22,1.67,4.22,4.2Z" style="fill: #12181e; stroke-width: 0px;"/>
      <path d="M614.71,112.26c0,.76-.61,1.34-1.36,1.34s-1.36-.58-1.36-1.34.58-1.34,1.36-1.34,1.36.56,1.36,1.34Z" style="fill: #12181e; stroke-width: 0px;"/>
      <path d="M619.26,113.36h-2.14l5.98-13.27h-6.78v-1.88h9.03v1.6l-6.08,13.55Z" style="fill: #12181e; stroke-width: 0px;"/>
      <path d="M636.02,102.19c0,1.88-1.08,2.99-1.86,3.38.97.43,2.34,1.52,2.34,3.64,0,2.58-2.1,4.44-4.83,4.44s-4.85-1.86-4.85-4.44c0-1.93,1.13-3.18,2.34-3.64-.8-.41-1.84-1.52-1.84-3.38,0-2.36,1.69-4.27,4.35-4.27s4.35,1.91,4.35,4.27ZM628.81,109.16c0,1.69,1.34,2.66,2.86,2.66s2.84-.97,2.84-2.66-1.34-2.71-2.84-2.71-2.86,1.02-2.86,2.71ZM629.26,102.23c0,1.49,1,2.43,2.4,2.43s2.4-.93,2.4-2.43-1.02-2.49-2.4-2.49-2.4.97-2.4,2.49Z" style="fill: #12181e; stroke-width: 0px;"/>
      <path d="M648.09,113.36h-2.21l-2.84-4.16-2.82,4.16h-2.21l3.77-5.63-3.53-5.28h2.21l2.58,3.81,2.6-3.81h2.21l-3.55,5.28,3.79,5.63Z" style="fill: #12181e; stroke-width: 0px;"/>
      <path d="M447.73,132.28v7.06h-1.86v-6.76c0-1.69-.78-2.58-2.1-2.58-1.43,0-2.51,1.26-2.51,3.49v5.85h-1.86v-6.76c0-1.69-.78-2.58-2.1-2.58-1.43,0-2.51,1.26-2.51,3.49v5.85h-1.86v-10.91h1.67l.11,1.49c.5-.95,1.54-1.73,3.03-1.73,1.62,0,2.69.8,3.18,2.08.56-1.08,1.6-2.08,3.29-2.08,2.36,0,3.53,1.69,3.53,4.09Z" style="fill: #12181e; stroke-width: 0px;"/>
      <path d="M460.98,133.88c0,3.31-2.27,5.69-5.52,5.69s-5.54-2.38-5.54-5.69,2.27-5.69,5.54-5.69,5.52,2.38,5.52,5.69ZM451.84,133.88c0,2.25,1.45,3.96,3.64,3.96s3.57-1.71,3.57-3.96-1.41-3.96-3.57-3.96-3.64,1.69-3.64,3.96Z" style="fill: #12181e; stroke-width: 0px;"/>
      <path d="M466.39,130.98c-.58.54-.97,1.39-1,2.58v5.78h-1.86v-10.91h1.67l.13,1.91c.37-1,1.39-2.01,3.27-2.01v1.86c-.87,0-1.6.24-2.21.8Z" style="fill: #12181e; stroke-width: 0px;"/>
      <path d="M479.83,134.62h-8.27c.13,2.01,1.49,3.23,3.36,3.23,1.45,0,2.51-.63,2.94-1.78h1.86c-.65,2.17-2.34,3.51-4.85,3.51-3.07,0-5.26-2.23-5.26-5.67s2.08-5.72,5.26-5.72c2.86,0,4.96,1.86,4.96,5.54v.89ZM477.95,132.95c-.02-1.86-1.26-3.03-3.08-3.03s-3.1,1.28-3.31,3.03h6.39Z" style="fill: #12181e; stroke-width: 0px;"/>
      <path d="M495.98,134.62h-8.27c.13,2.01,1.49,3.23,3.36,3.23,1.45,0,2.51-.63,2.94-1.78h1.86c-.65,2.17-2.34,3.51-4.85,3.51-3.07,0-5.26-2.23-5.26-5.67s2.08-5.72,5.26-5.72c2.86,0,4.96,1.86,4.96,5.54v.89ZM494.1,132.95c-.02-1.86-1.26-3.03-3.08-3.03s-3.1,1.28-3.31,3.03h6.39Z" style="fill: #12181e; stroke-width: 0px;"/>
      <path d="M506.78,139.34h-2.21l-2.84-4.16-2.82,4.16h-2.21l3.77-5.63-3.53-5.28h2.21l2.58,3.81,2.6-3.81h2.21l-3.55,5.28,3.79,5.63Z" style="fill: #12181e; stroke-width: 0px;"/>
      <path d="M519.64,133.88c0,3.23-2.04,5.69-5.11,5.69-1.82,0-3.03-.8-3.62-1.73v6.15h-1.88v-15.57h1.69l.09,1.6c.67-.97,1.78-1.84,3.75-1.84,3.07,0,5.09,2.47,5.09,5.69ZM510.87,133.78v.11c0,2.43,1.65,3.92,3.38,3.92,2.04,0,3.46-1.62,3.46-3.92s-1.36-3.94-3.44-3.94c-1.78,0-3.4,1.47-3.4,3.83Z" style="fill: #12181e; stroke-width: 0px;"/>
      <path d="M531.57,134.62h-8.27c.13,2.01,1.49,3.23,3.36,3.23,1.45,0,2.51-.63,2.94-1.78h1.86c-.65,2.17-2.34,3.51-4.85,3.51-3.08,0-5.26-2.23-5.26-5.67s2.08-5.72,5.26-5.72c2.86,0,4.96,1.86,4.96,5.54v.89ZM529.69,132.95c-.02-1.86-1.26-3.03-3.07-3.03s-3.1,1.28-3.31,3.03h6.39Z" style="fill: #12181e; stroke-width: 0px;"/>
      <path d="M542.37,132.28v7.06h-1.88v-6.76c0-1.69-.8-2.58-2.12-2.58-1.43,0-2.53,1.26-2.53,3.49v5.85h-1.86v-10.91h1.67l.11,1.49c.5-.95,1.54-1.73,3.07-1.73,2.34,0,3.55,1.69,3.55,4.09Z" style="fill: #12181e; stroke-width: 0px;"/>
      <path d="M552.13,131.63h-1.91c-.02-1.15-.56-1.71-1.73-1.71s-1.67.67-1.67,1.47c0,.84.43,1.19,2.06,1.58,2.6.61,3.57,1.52,3.57,3.27,0,2.12-1.65,3.33-3.83,3.33-2.53,0-3.94-1.43-3.98-3.55h1.91c.02,1.15.76,1.82,2.12,1.82,1.25,0,1.88-.63,1.88-1.47,0-.91-.48-1.34-2.27-1.75-2.27-.52-3.36-1.32-3.36-3.12s1.26-3.31,3.62-3.31c2.12,0,3.55,1.39,3.59,3.44Z" style="fill: #12181e; stroke-width: 0px;"/>
      <path d="M557.24,125.07c0,.69-.58,1.26-1.3,1.26s-1.28-.56-1.28-1.26.56-1.28,1.28-1.28,1.3.56,1.3,1.28ZM555.01,139.34v-10.91h1.86v10.91h-1.86Z" style="fill: #12181e; stroke-width: 0px;"/>
      <path d="M563.04,139.34l-4.16-10.91h1.99l2.88,7.84.22.82.22-.82,2.88-7.84h2.01l-4.18,10.91h-1.86Z" style="fill: #12181e; stroke-width: 0px;"/>
      <path d="M579.99,134.62h-8.27c.13,2.01,1.49,3.23,3.36,3.23,1.45,0,2.51-.63,2.94-1.78h1.86c-.65,2.17-2.34,3.51-4.85,3.51-3.08,0-5.26-2.23-5.26-5.67s2.08-5.72,5.26-5.72c2.86,0,4.96,1.86,4.96,5.54v.89ZM578.11,132.95c-.02-1.86-1.26-3.03-3.07-3.03s-3.1,1.28-3.31,3.03h6.39Z" style="fill: #12181e; stroke-width: 0px;"/>
      <path d="M589.11,125.07c0,.69-.58,1.26-1.3,1.26s-1.28-.56-1.28-1.26.56-1.28,1.28-1.28,1.3.56,1.3,1.28ZM586.87,139.34v-10.91h1.86v10.91h-1.86Z" style="fill: #12181e; stroke-width: 0px;"/>
      <path d="M600.45,132.28v7.06h-1.88v-6.76c0-1.69-.8-2.58-2.12-2.58-1.43,0-2.53,1.26-2.53,3.49v5.85h-1.86v-10.91h1.67l.11,1.49c.5-.95,1.54-1.73,3.07-1.73,2.34,0,3.55,1.69,3.55,4.09Z" style="fill: #12181e; stroke-width: 0px;"/>
      <path d="M613.2,128.43v1.73h-2.82l-.04,5.85c0,1.19.3,1.78,1.56,1.78.61,0,.97-.09,1.3-.19v1.67c-.33.13-.82.24-1.62.24-2.06,0-3.12-.91-3.1-3.14l.04-6.19h-2.04v-1.73h2.04l.02-2.73h1.88l-.02,2.73h2.79Z" style="fill: #12181e; stroke-width: 0px;"/>
      <path d="M620.32,128.19c2.34,0,3.55,1.69,3.55,4.09v7.06h-1.88v-6.76c0-1.69-.8-2.58-2.12-2.58-1.43,0-2.53,1.26-2.53,3.49v5.85h-1.86v-15.81h1.86v6.26c.41-.84,1.41-1.6,2.99-1.6Z" style="fill: #12181e; stroke-width: 0px;"/>
      <path d="M636.27,134.62h-8.27c.13,2.01,1.49,3.23,3.36,3.23,1.45,0,2.51-.63,2.94-1.78h1.86c-.65,2.17-2.34,3.51-4.85,3.51-3.08,0-5.26-2.23-5.26-5.67s2.08-5.72,5.26-5.72c2.86,0,4.96,1.86,4.96,5.54v.89ZM634.39,132.95c-.02-1.86-1.26-3.03-3.07-3.03s-3.1,1.28-3.31,3.03h6.39Z" style="fill: #12181e; stroke-width: 0px;"/>
      <path d="M438.73,165.6c-3.75,0-5.95-2.19-5.95-6.28v-9.16h1.97v9.16c0,2.9,1.32,4.44,3.98,4.44s3.96-1.52,3.96-4.44v-9.16h1.97v9.16c0,4.09-2.19,6.28-5.93,6.28Z" style="fill: #12181e; stroke-width: 0px;"/>
      <path d="M456.15,158.26v7.06h-1.88v-6.76c0-1.69-.8-2.58-2.12-2.58-1.43,0-2.53,1.26-2.53,3.49v5.85h-1.86v-10.91h1.67l.11,1.49c.5-.95,1.54-1.73,3.08-1.73,2.34,0,3.55,1.69,3.55,4.09Z" style="fill: #12181e; stroke-width: 0px;"/>
      <path d="M461.52,151.05c0,.69-.58,1.26-1.3,1.26s-1.28-.56-1.28-1.26.56-1.28,1.28-1.28,1.3.56,1.3,1.28ZM459.29,165.32v-10.91h1.86v10.91h-1.86Z" style="fill: #12181e; stroke-width: 0px;"/>
      <path d="M469.72,154.4v1.73h-2.81l-.04,5.85c0,1.19.3,1.78,1.56,1.78.61,0,.97-.09,1.3-.19v1.67c-.32.13-.82.24-1.62.24-2.06,0-3.12-.91-3.1-3.14l.04-6.19h-2.04v-1.73h2.04l.02-2.73h1.88l-.02,2.73h2.79Z" style="fill: #12181e; stroke-width: 0px;"/>
      <path d="M481.33,160.6h-8.27c.13,2.01,1.49,3.23,3.36,3.23,1.45,0,2.51-.63,2.95-1.78h1.86c-.65,2.17-2.34,3.51-4.85,3.51-3.08,0-5.26-2.23-5.26-5.67s2.08-5.72,5.26-5.72c2.86,0,4.96,1.86,4.96,5.54v.89ZM479.44,158.93c-.02-1.86-1.26-3.03-3.07-3.03s-3.1,1.28-3.31,3.03h6.39Z" style="fill: #12181e; stroke-width: 0px;"/>
      <path d="M491.91,165.32l-.11-1.6c-.67.97-1.78,1.84-3.75,1.84-3.07,0-5.09-2.47-5.09-5.69s2.04-5.69,5.11-5.69c1.82,0,3.03.8,3.64,1.73v-6.39h1.86v15.81h-1.67ZM484.9,159.86c0,2.32,1.36,3.94,3.44,3.94,1.78,0,3.4-1.47,3.4-3.83v-.11c0-2.42-1.65-3.92-3.38-3.92-2.04,0-3.46,1.62-3.46,3.92Z" style="fill: #12181e; stroke-width: 0px;"/>
      <path d="M509.73,154.17h-1.99c-.02-1.62-1.04-2.51-2.49-2.51s-2.34.84-2.34,2.3.95,1.97,3.01,2.79c3.05,1.13,4.29,2.23,4.29,4.46,0,2.77-1.95,4.4-4.7,4.4-3.21,0-4.98-1.93-5.02-4.74h1.99c.04,1.93,1.15,2.99,3.05,2.99,1.78,0,2.68-1.08,2.68-2.51,0-1.3-.91-1.99-3.18-2.79-2.58-.95-4.11-1.99-4.11-4.44s1.56-4.22,4.37-4.22c2.64,0,4.37,1.47,4.44,4.29Z" style="fill: #12181e; stroke-width: 0px;"/>
      <path d="M517.89,154.4v1.73h-2.82l-.04,5.85c0,1.19.3,1.78,1.56,1.78.61,0,.97-.09,1.3-.19v1.67c-.33.13-.82.24-1.62.24-2.06,0-3.12-.91-3.1-3.14l.04-6.19h-2.04v-1.73h2.04l.02-2.73h1.88l-.02,2.73h2.79Z" style="fill: #12181e; stroke-width: 0px;"/>
      <path d="M527.78,158.08v7.23h-1.69l-.09-1.49c-.54.97-1.71,1.73-3.31,1.73-1.91,0-3.18-1.17-3.18-3.07s1.34-2.84,3.05-3.16l3.33-.63v-.54c0-1.56-.71-2.25-2.01-2.25-1.19,0-2.23.65-2.23,1.99h-1.84c.07-2.1,1.67-3.72,4.07-3.72s3.9,1.39,3.9,3.92ZM521.39,162.46c0,.87.61,1.36,1.67,1.36.91,0,1.71-.39,2.21-1.08.37-.5.63-1.26.63-2.01v-.41l-2.99.65c-.82.19-1.52.52-1.52,1.49Z" style="fill: #12181e; stroke-width: 0px;"/>
      <path d="M536.05,154.4v1.73h-2.82l-.04,5.85c0,1.19.3,1.78,1.56,1.78.61,0,.97-.09,1.3-.19v1.67c-.33.13-.82.24-1.62.24-2.06,0-3.12-.91-3.1-3.14l.04-6.19h-2.04v-1.73h2.04l.02-2.73h1.88l-.02,2.73h2.79Z" style="fill: #12181e; stroke-width: 0px;"/>
      <path d="M547.65,160.6h-8.27c.13,2.01,1.49,3.23,3.36,3.23,1.45,0,2.51-.63,2.94-1.78h1.86c-.65,2.17-2.34,3.51-4.85,3.51-3.08,0-5.26-2.23-5.26-5.67s2.08-5.72,5.26-5.72c2.86,0,4.96,1.86,4.96,5.54v.89ZM545.77,158.93c-.02-1.86-1.26-3.03-3.07-3.03s-3.1,1.28-3.31,3.03h6.39Z" style="fill: #12181e; stroke-width: 0px;"/>
      <path d="M556.74,157.61h-1.91c-.02-1.15-.56-1.71-1.73-1.71s-1.67.67-1.67,1.47c0,.84.43,1.19,2.06,1.58,2.6.61,3.57,1.52,3.57,3.27,0,2.12-1.65,3.33-3.83,3.33-2.53,0-3.94-1.43-3.98-3.55h1.91c.02,1.15.76,1.82,2.12,1.82,1.26,0,1.88-.63,1.88-1.47,0-.91-.48-1.34-2.27-1.75-2.27-.52-3.36-1.32-3.36-3.12s1.26-3.31,3.62-3.31c2.12,0,3.55,1.39,3.59,3.44Z" style="fill: #12181e; stroke-width: 0px;"/>
    </g>
    <g style="isolation: isolate;">
      <path d="M446.61,618.71h-3.25c-.56-1.49-1.67-2.38-3.77-2.38-2.62,0-4.44,2.14-4.44,5.07s1.82,5.11,4.57,5.11c2.21,0,3.66-1.02,3.83-2.92h-3.64v-2.77h6.8v1.32c0,4.55-2.84,7.14-6.99,7.14-4.5,0-7.64-3.33-7.64-7.88s3.14-7.84,7.58-7.84c3.83,0,6.13,2.12,6.95,5.15Z" style="fill: #12181e; stroke-width: 0px;"/>
      <path d="M458.82,624.36h-7.64c.09,1.45,1.08,2.47,2.62,2.47,1.1,0,1.93-.43,2.23-1.28h2.73c-.67,2.32-2.38,3.68-5.02,3.68-3.25,0-5.46-2.25-5.46-5.72s2.19-5.74,5.46-5.74c2.9,0,5.09,1.84,5.09,5.69v.89ZM456,622.44c-.04-1.43-.95-2.34-2.34-2.34s-2.36.97-2.49,2.34h4.83Z" style="fill: #12181e; stroke-width: 0px;"/>
      <path d="M470.14,621.87v7.12h-2.79v-6.52c0-1.28-.54-1.97-1.6-1.97s-1.93.84-1.93,2.68v5.8h-2.79v-10.98h2.4l.19,1.43c.5-.91,1.52-1.67,2.97-1.67,2.34,0,3.55,1.6,3.55,4.09Z" style="fill: #12181e; stroke-width: 0px;"/>
      <path d="M482.69,624.36h-7.64c.09,1.45,1.08,2.47,2.62,2.47,1.1,0,1.93-.43,2.23-1.28h2.73c-.67,2.32-2.38,3.68-5.02,3.68-3.25,0-5.46-2.25-5.46-5.72s2.19-5.74,5.46-5.74c2.9,0,5.09,1.84,5.09,5.69v.89ZM479.88,622.44c-.04-1.43-.95-2.34-2.34-2.34s-2.36.97-2.49,2.34h4.83Z" style="fill: #12181e; stroke-width: 0px;"/>
      <path d="M488.64,621.37c-.52.39-.87,1.04-.89,2.01v5.61h-2.82v-10.98h2.43l.24,1.75c.39-.95,1.34-1.86,3.23-1.86v2.79c-.89,0-1.56.15-2.19.67Z" style="fill: #12181e; stroke-width: 0px;"/>
      <path d="M495.96,614.79c0,.95-.76,1.67-1.71,1.67s-1.69-.71-1.69-1.67.76-1.67,1.69-1.67,1.71.74,1.71,1.67ZM492.86,629v-10.98h2.79v10.98h-2.79Z" style="fill: #12181e; stroke-width: 0px;"/>
      <path d="M508.39,621.89h-2.68c-.35-1-1.17-1.56-2.32-1.56-1.49,0-2.64,1.32-2.64,3.18s1.12,3.16,2.73,3.16c1.13,0,1.97-.65,2.23-1.56h2.73c-.52,2.73-2.56,4.11-5.09,4.11-3.2,0-5.5-2.32-5.5-5.72s2.3-5.74,5.5-5.74c2.58,0,4.63,1.34,5.04,4.11Z" style="fill: #12181e; stroke-width: 0px;"/>
      <path d="M522.82,629l-.19-1.47c-.63.89-1.62,1.71-3.51,1.71-2.94,0-5.09-2.51-5.09-5.74s2.14-5.72,5.11-5.72c1.58,0,2.73.65,3.29,1.45v-6.04h2.79v15.81h-2.4ZM516.94,623.5c0,1.91,1.19,3.12,2.77,3.12,1.39,0,2.79-1.08,2.79-3.05v-.13c-.02-1.95-1.43-3.03-2.79-3.03-1.54,0-2.77,1.21-2.77,3.1Z" style="fill: #12181e; stroke-width: 0px;"/>
      <path d="M531.91,621.37c-.52.39-.87,1.04-.89,2.01v5.61h-2.81v-10.98h2.42l.24,1.75c.39-.95,1.34-1.86,3.23-1.86v2.79c-.89,0-1.56.15-2.19.67Z" style="fill: #12181e; stroke-width: 0px;"/>
      <path d="M542.61,629l-.22-1.43c-.5.95-1.47,1.67-2.9,1.67-2.36,0-3.53-1.6-3.53-4.09v-7.12h2.79v6.5c0,1.3.52,1.99,1.56,1.99s1.91-.82,1.91-2.6v-5.89h2.79v10.98h-2.4Z" style="fill: #12181e; stroke-width: 0px;"/>
      <path d="M557.76,620.4h-1.62c.13.39.19.82.19,1.28,0,2.21-1.78,3.81-4.31,3.81-.65,0-1.28-.11-1.82-.28-.15.19-.28.46-.28.8,0,.58.43.91,1.1.91h2.6c2.25,0,3.59,1.1,3.59,3.16,0,2.47-1.93,3.81-4.85,3.81-3.27,0-4.98-1.21-4.98-3.38,0-.95.56-1.58,1.1-1.93-.67-.46-1.28-1.3-1.28-2.36s.48-1.8,1.15-2.32c-.5-.61-.76-1.36-.76-2.23,0-2.27,1.82-3.9,4.42-3.9.56,0,1.1.06,1.58.24h4.16v2.38ZM550.14,630.29c0,1,.87,1.49,2.23,1.49s2.1-.52,2.1-1.54c0-.82-.58-1.21-1.56-1.21h-1.65c-.63.09-1.13.5-1.13,1.26ZM553.65,621.68c0-1.06-.67-1.78-1.65-1.78s-1.65.71-1.65,1.78.65,1.75,1.65,1.75,1.65-.74,1.65-1.75Z" style="fill: #12181e; stroke-width: 0px;"/>
      <path d="M566.74,621.24h-2.77c-.02-.8-.41-1.25-1.26-1.25s-1.21.45-1.21,1.08c0,.67.37,1,1.91,1.28,2.66.43,3.59,1.54,3.59,3.31,0,2.49-1.97,3.57-4.24,3.57-2.71,0-4.2-1.41-4.29-3.57h2.77c.02.89.61,1.36,1.58,1.36.87,0,1.36-.41,1.36-1.06s-.35-1.06-1.99-1.36c-2.4-.41-3.49-1.45-3.49-3.27s1.32-3.55,4.03-3.55c2.32,0,3.94,1.39,4.01,3.46Z" style="fill: #12181e; stroke-width: 0px;"/>
      <path d="M576.03,614.73c0,.69-.58,1.26-1.3,1.26s-1.28-.56-1.28-1.26.56-1.28,1.28-1.28,1.3.56,1.3,1.28ZM573.8,629v-10.91h1.86v10.91h-1.86Z" style="fill: #12181e; stroke-width: 0px;"/>
      <path d="M587.37,621.94v7.06h-1.88v-6.76c0-1.69-.8-2.58-2.12-2.58-1.43,0-2.53,1.26-2.53,3.49v5.85h-1.86v-10.91h1.67l.11,1.49c.5-.95,1.54-1.73,3.07-1.73,2.34,0,3.55,1.69,3.55,4.09Z" style="fill: #12181e; stroke-width: 0px;"/>
      <path d="M438.18,644.06v1.73h-2.81l-.04,5.85c0,1.19.3,1.78,1.56,1.78.61,0,.97-.09,1.3-.2v1.67c-.32.13-.82.24-1.62.24-2.06,0-3.12-.91-3.1-3.14l.04-6.19h-2.04v-1.73h2.04l.02-2.73h1.88l-.02,2.73h2.79Z" style="fill: #12181e; stroke-width: 0px;"/>
      <path d="M445.31,643.82c2.34,0,3.55,1.69,3.55,4.09v7.06h-1.88v-6.76c0-1.69-.8-2.58-2.12-2.58-1.43,0-2.53,1.26-2.53,3.49v5.85h-1.86v-15.81h1.86v6.26c.41-.84,1.41-1.6,2.99-1.6Z" style="fill: #12181e; stroke-width: 0px;"/>
      <path d="M461.26,650.25h-8.27c.13,2.01,1.49,3.23,3.36,3.23,1.45,0,2.51-.63,2.94-1.78h1.86c-.65,2.17-2.34,3.51-4.85,3.51-3.07,0-5.26-2.23-5.26-5.67s2.08-5.72,5.26-5.72c2.86,0,4.96,1.86,4.96,5.54v.89ZM459.38,648.58c-.02-1.86-1.26-3.03-3.08-3.03s-3.1,1.28-3.31,3.03h6.39Z" style="fill: #12181e; stroke-width: 0px;"/>
      <path d="M473.88,655.25c-3.75,0-5.96-2.19-5.96-6.28v-9.16h1.97v9.16c0,2.9,1.32,4.44,3.98,4.44s3.96-1.52,3.96-4.44v-9.16h1.97v9.16c0,4.09-2.19,6.28-5.93,6.28Z" style="fill: #12181e; stroke-width: 0px;"/>
      <path d="M491.31,647.91v7.06h-1.88v-6.76c0-1.69-.8-2.58-2.12-2.58-1.43,0-2.53,1.26-2.53,3.49v5.85h-1.86v-10.91h1.67l.11,1.49c.5-.95,1.54-1.73,3.07-1.73,2.34,0,3.55,1.69,3.55,4.09Z" style="fill: #12181e; stroke-width: 0px;"/>
      <path d="M496.67,640.7c0,.69-.58,1.26-1.3,1.26s-1.28-.56-1.28-1.26.56-1.28,1.28-1.28,1.3.56,1.3,1.28ZM494.44,654.97v-10.91h1.86v10.91h-1.86Z" style="fill: #12181e; stroke-width: 0px;"/>
      <path d="M504.88,644.06v1.73h-2.82l-.04,5.85c0,1.19.3,1.78,1.56,1.78.61,0,.97-.09,1.3-.2v1.67c-.33.13-.82.24-1.62.24-2.06,0-3.12-.91-3.1-3.14l.04-6.19h-2.04v-1.73h2.04l.02-2.73h1.88l-.02,2.73h2.79Z" style="fill: #12181e; stroke-width: 0px;"/>
      <path d="M516.48,650.25h-8.27c.13,2.01,1.49,3.23,3.36,3.23,1.45,0,2.51-.63,2.94-1.78h1.86c-.65,2.17-2.34,3.51-4.85,3.51-3.08,0-5.26-2.23-5.26-5.67s2.08-5.72,5.26-5.72c2.86,0,4.96,1.86,4.96,5.54v.89ZM514.6,648.58c-.02-1.86-1.26-3.03-3.07-3.03s-3.1,1.28-3.31,3.03h6.39Z" style="fill: #12181e; stroke-width: 0px;"/>
      <path d="M527.07,654.97l-.11-1.6c-.67.97-1.78,1.84-3.75,1.84-3.07,0-5.09-2.47-5.09-5.69s2.04-5.7,5.11-5.7c1.82,0,3.03.8,3.64,1.73v-6.39h1.86v15.81h-1.67ZM520.05,649.52c0,2.32,1.36,3.94,3.44,3.94,1.78,0,3.4-1.47,3.4-3.83v-.11c0-2.43-1.65-3.92-3.38-3.92-2.04,0-3.46,1.62-3.46,3.92Z" style="fill: #12181e; stroke-width: 0px;"/>
      <path d="M544.88,643.82h-1.99c-.02-1.62-1.04-2.51-2.49-2.51s-2.34.84-2.34,2.29.95,1.97,3.01,2.79c3.05,1.13,4.29,2.23,4.29,4.46,0,2.77-1.95,4.4-4.7,4.4-3.21,0-4.98-1.93-5.02-4.74h1.99c.04,1.93,1.15,2.99,3.05,2.99,1.78,0,2.68-1.08,2.68-2.51,0-1.3-.91-1.99-3.18-2.79-2.58-.95-4.11-1.99-4.11-4.44s1.56-4.22,4.37-4.22c2.64,0,4.37,1.47,4.44,4.29Z" style="fill: #12181e; stroke-width: 0px;"/>
      <path d="M553.04,644.06v1.73h-2.82l-.04,5.85c0,1.19.3,1.78,1.56,1.78.61,0,.97-.09,1.3-.2v1.67c-.33.13-.82.24-1.62.24-2.06,0-3.12-.91-3.1-3.14l.04-6.19h-2.04v-1.73h2.04l.02-2.73h1.88l-.02,2.73h2.79Z" style="fill: #12181e; stroke-width: 0px;"/>
      <path d="M562.94,647.74v7.23h-1.69l-.09-1.49c-.54.97-1.71,1.73-3.31,1.73-1.91,0-3.18-1.17-3.18-3.08s1.34-2.84,3.05-3.16l3.33-.63v-.54c0-1.56-.71-2.25-2.01-2.25-1.19,0-2.23.65-2.23,1.99h-1.84c.07-2.1,1.67-3.72,4.07-3.72s3.9,1.39,3.9,3.92ZM556.55,652.11c0,.87.61,1.36,1.67,1.36.91,0,1.71-.39,2.21-1.08.37-.5.63-1.26.63-2.01v-.41l-2.99.65c-.82.2-1.52.52-1.52,1.49Z" style="fill: #12181e; stroke-width: 0px;"/>
      <path d="M571.2,644.06v1.73h-2.82l-.04,5.85c0,1.19.3,1.78,1.56,1.78.61,0,.97-.09,1.3-.2v1.67c-.33.13-.82.24-1.62.24-2.06,0-3.12-.91-3.1-3.14l.04-6.19h-2.04v-1.73h2.04l.02-2.73h1.88l-.02,2.73h2.79Z" style="fill: #12181e; stroke-width: 0px;"/>
      <path d="M582.81,650.25h-8.27c.13,2.01,1.49,3.23,3.36,3.23,1.45,0,2.51-.63,2.94-1.78h1.86c-.65,2.17-2.34,3.51-4.85,3.51-3.08,0-5.26-2.23-5.26-5.67s2.08-5.72,5.26-5.72c2.86,0,4.96,1.86,4.96,5.54v.89ZM580.92,648.58c-.02-1.86-1.26-3.03-3.07-3.03s-3.1,1.28-3.31,3.03h6.39Z" style="fill: #12181e; stroke-width: 0px;"/>
      <path d="M591.9,647.26h-1.91c-.02-1.15-.56-1.71-1.73-1.71s-1.67.67-1.67,1.47c0,.84.43,1.19,2.06,1.58,2.6.61,3.57,1.52,3.57,3.27,0,2.12-1.65,3.33-3.83,3.33-2.53,0-3.94-1.43-3.98-3.55h1.91c.02,1.15.76,1.82,2.12,1.82,1.25,0,1.88-.63,1.88-1.47,0-.91-.48-1.34-2.27-1.75-2.27-.52-3.36-1.32-3.36-3.12s1.26-3.31,3.62-3.31c2.12,0,3.55,1.39,3.59,3.44Z" style="fill: #12181e; stroke-width: 0px;"/>
      <path d="M606.75,647.74v7.23h-1.69l-.09-1.49c-.54.97-1.71,1.73-3.31,1.73-1.91,0-3.18-1.17-3.18-3.08s1.34-2.84,3.05-3.16l3.33-.63v-.54c0-1.56-.71-2.25-2.01-2.25-1.19,0-2.23.65-2.23,1.99h-1.84c.07-2.1,1.67-3.72,4.07-3.72s3.9,1.39,3.9,3.92ZM600.36,652.11c0,.87.61,1.36,1.67,1.36.91,0,1.71-.39,2.21-1.08.37-.5.63-1.26.63-2.01v-.41l-2.99.65c-.82.2-1.52.52-1.52,1.49Z" style="fill: #12181e; stroke-width: 0px;"/>
      <path d="M612.77,646.61c-.58.54-.97,1.39-1,2.58v5.78h-1.86v-10.91h1.67l.13,1.91c.37-1,1.39-2.01,3.27-2.01v1.86c-.87,0-1.6.24-2.21.8Z" style="fill: #12181e; stroke-width: 0px;"/>
      <path d="M626.21,650.25h-8.27c.13,2.01,1.49,3.23,3.36,3.23,1.45,0,2.51-.63,2.94-1.78h1.86c-.65,2.17-2.34,3.51-4.85,3.51-3.08,0-5.26-2.23-5.26-5.67s2.08-5.72,5.26-5.72c2.86,0,4.96,1.86,4.96,5.54v.89ZM624.33,648.58c-.02-1.86-1.26-3.03-3.07-3.03s-3.1,1.28-3.31,3.03h6.39Z" style="fill: #12181e; stroke-width: 0px;"/>
      <path d="M442.41,673.35c0,4.79-1.82,7.88-5.09,7.88s-5.09-3.1-5.09-7.88,1.8-7.84,5.09-7.84,5.09,3.08,5.09,7.84ZM434.22,673.35c0,3.7,1.04,6.04,3.1,6.04s3.07-2.34,3.07-6.04-1.04-6-3.07-6-3.1,2.32-3.1,6Z" style="fill: #12181e; stroke-width: 0px;"/>
      <path d="M446.63,679.84c0,.76-.61,1.34-1.36,1.34s-1.36-.58-1.36-1.34.58-1.34,1.36-1.34,1.36.56,1.36,1.34Z" style="fill: #12181e; stroke-width: 0px;"/>
      <path d="M458.1,676.34c0,2.82-1.86,4.89-4.74,4.89-1.56,0-2.73-.54-3.57-1.52-1.21-1.39-1.52-3.59-1.52-5.95,0-5.35,1.54-8.25,5.17-8.25,2.42,0,4.22,1.62,4.33,4.18h-1.99c-.15-1.65-1.02-2.34-2.4-2.34-1.99,0-3.05,1.67-3.12,5.76.54-.8,1.73-1.52,3.16-1.52,2.97,0,4.68,2.08,4.68,4.74ZM456.09,676.38c0-1.65-1.1-2.95-2.77-2.95-1.58,0-2.88,1.23-2.88,2.9,0,1.52,1.1,3.08,2.88,3.08,1.67,0,2.77-1.28,2.77-3.03Z" style="fill: #12181e; stroke-width: 0px;"/>
      <path d="M462.52,680.95h-2.14l5.98-13.27h-6.78v-1.88h9.03v1.6l-6.08,13.55Z" style="fill: #12181e; stroke-width: 0px;"/>
      <path d="M479.81,680.95h-2.21l-2.84-4.16-2.81,4.16h-2.21l3.77-5.63-3.53-5.28h2.21l2.58,3.81,2.6-3.81h2.21l-3.55,5.28,3.79,5.63Z" style="fill: #12181e; stroke-width: 0px;"/>
      <path d="M491.59,670.04v1.73h-2.81l-.04,5.85c0,1.19.3,1.78,1.56,1.78.61,0,.97-.09,1.3-.2v1.67c-.32.13-.82.24-1.62.24-2.06,0-3.12-.91-3.1-3.14l.04-6.19h-2.04v-1.73h2.04l.02-2.73h1.88l-.02,2.73h2.79Z" style="fill: #12181e; stroke-width: 0px;"/>
      <path d="M498.71,669.8c2.34,0,3.55,1.69,3.55,4.09v7.06h-1.88v-6.76c0-1.69-.8-2.58-2.12-2.58-1.43,0-2.53,1.26-2.53,3.49v5.85h-1.86v-15.81h1.86v6.26c.41-.84,1.41-1.6,2.99-1.6Z" style="fill: #12181e; stroke-width: 0px;"/>
      <path d="M514.66,676.23h-8.27c.13,2.01,1.49,3.23,3.36,3.23,1.45,0,2.51-.63,2.94-1.78h1.86c-.65,2.17-2.34,3.51-4.85,3.51-3.08,0-5.26-2.23-5.26-5.67s2.08-5.72,5.26-5.72c2.86,0,4.96,1.86,4.96,5.54v.89ZM512.78,674.56c-.02-1.86-1.26-3.03-3.07-3.03s-3.1,1.28-3.31,3.03h6.39Z" style="fill: #12181e; stroke-width: 0px;"/>
      <path d="M530.75,673.44h-1.86c-.43-1.21-1.56-1.91-2.97-1.91-1.95,0-3.4,1.67-3.4,3.98s1.45,3.94,3.44,3.94c1.39,0,2.53-.74,2.92-1.91h1.88c-.58,2.38-2.49,3.64-4.87,3.64-3.07,0-5.3-2.38-5.3-5.67s2.23-5.72,5.3-5.72c2.4,0,4.33,1.26,4.85,3.64Z" style="fill: #12181e; stroke-width: 0px;"/>
      <path d="M543.35,675.49c0,3.31-2.27,5.69-5.52,5.69s-5.54-2.38-5.54-5.69,2.27-5.7,5.54-5.7,5.52,2.38,5.52,5.7ZM534.21,675.49c0,2.25,1.45,3.96,3.64,3.96s3.57-1.71,3.57-3.96-1.41-3.96-3.57-3.96-3.64,1.69-3.64,3.96Z" style="fill: #12181e; stroke-width: 0px;"/>
      <path d="M552.41,673.24h-1.91c-.02-1.15-.56-1.71-1.73-1.71s-1.67.67-1.67,1.47c0,.84.43,1.19,2.06,1.58,2.6.61,3.57,1.52,3.57,3.27,0,2.12-1.65,3.33-3.83,3.33-2.53,0-3.94-1.43-3.98-3.55h1.91c.02,1.15.76,1.82,2.12,1.82,1.25,0,1.88-.63,1.88-1.47,0-.91-.48-1.34-2.27-1.75-2.27-.52-3.36-1.32-3.36-3.12s1.26-3.31,3.62-3.31c2.12,0,3.55,1.39,3.59,3.44Z" style="fill: #12181e; stroke-width: 0px;"/>
      <path d="M560.49,670.04v1.73h-2.82l-.04,5.85c0,1.19.3,1.78,1.56,1.78.61,0,.97-.09,1.3-.2v1.67c-.33.13-.82.24-1.62.24-2.06,0-3.12-.91-3.1-3.14l.04-6.19h-2.04v-1.73h2.04l.02-2.73h1.88l-.02,2.73h2.79Z" style="fill: #12181e; stroke-width: 0px;"/>
      <path d="M577.35,675.49c0,3.31-2.27,5.69-5.52,5.69s-5.54-2.38-5.54-5.69,2.27-5.7,5.54-5.7,5.52,2.38,5.52,5.7ZM568.22,675.49c0,2.25,1.45,3.96,3.64,3.96s3.57-1.71,3.57-3.96-1.41-3.96-3.57-3.96-3.64,1.69-3.64,3.96Z" style="fill: #12181e; stroke-width: 0px;"/>
      <path d="M585.1,665.21v1.69c-.37-.15-.76-.26-1.32-.26-.95,0-1.54.56-1.54,1.78v1.62h2.71v1.71h-2.71v9.2h-1.88v-9.2h-1.97v-1.71h1.97v-1.67c0-2.17,1.19-3.42,3.27-3.42.65,0,1.17.13,1.47.26Z" style="fill: #12181e; stroke-width: 0px;"/>
      <path d="M596.55,670.04v1.73h-2.82l-.04,5.85c0,1.19.3,1.78,1.56,1.78.61,0,.97-.09,1.3-.2v1.67c-.33.13-.82.24-1.62.24-2.06,0-3.12-.91-3.1-3.14l.04-6.19h-2.04v-1.73h2.04l.02-2.73h1.88l-.02,2.73h2.79Z" style="fill: #12181e; stroke-width: 0px;"/>
      <path d="M603.67,669.8c2.34,0,3.55,1.69,3.55,4.09v7.06h-1.88v-6.76c0-1.69-.8-2.58-2.12-2.58-1.43,0-2.53,1.26-2.53,3.49v5.85h-1.86v-15.81h1.86v6.26c.41-.84,1.41-1.6,2.99-1.6Z" style="fill: #12181e; stroke-width: 0px;"/>
      <path d="M620.47,675.49c0,3.31-2.27,5.69-5.52,5.69s-5.54-2.38-5.54-5.69,2.27-5.7,5.54-5.7,5.52,2.38,5.52,5.7ZM611.34,675.49c0,2.25,1.45,3.96,3.64,3.96s3.57-1.71,3.57-3.96-1.41-3.96-3.57-3.96-3.64,1.69-3.64,3.96Z" style="fill: #12181e; stroke-width: 0px;"/>
      <path d="M629.54,673.24h-1.91c-.02-1.15-.56-1.71-1.73-1.71s-1.67.67-1.67,1.47c0,.84.43,1.19,2.06,1.58,2.6.61,3.57,1.52,3.57,3.27,0,2.12-1.65,3.33-3.83,3.33-2.53,0-3.94-1.43-3.98-3.55h1.91c.02,1.15.76,1.82,2.12,1.82,1.25,0,1.88-.63,1.88-1.47,0-.91-.48-1.34-2.27-1.75-2.27-.52-3.36-1.32-3.36-3.12s1.26-3.31,3.62-3.31c2.12,0,3.55,1.39,3.59,3.44Z" style="fill: #12181e; stroke-width: 0px;"/>
      <path d="M641.69,676.23h-8.27c.13,2.01,1.49,3.23,3.36,3.23,1.45,0,2.51-.63,2.94-1.78h1.86c-.65,2.17-2.34,3.51-4.85,3.51-3.08,0-5.26-2.23-5.26-5.67s2.08-5.72,5.26-5.72c2.86,0,4.96,1.86,4.96,5.54v.89ZM639.8,674.56c-.02-1.86-1.26-3.03-3.07-3.03s-3.1,1.28-3.31,3.03h6.39Z" style="fill: #12181e; stroke-width: 0px;"/>
      <path d="M435.22,692.66c0,.69-.58,1.26-1.3,1.26s-1.28-.56-1.28-1.26.56-1.28,1.28-1.28,1.3.56,1.3,1.28ZM432.99,706.93v-10.91h1.86v10.91h-1.86Z" style="fill: #12181e; stroke-width: 0px;"/>
      <path d="M446.56,699.87v7.06h-1.88v-6.76c0-1.69-.8-2.58-2.12-2.58-1.43,0-2.53,1.26-2.53,3.49v5.85h-1.86v-10.91h1.67l.11,1.49c.5-.95,1.54-1.73,3.07-1.73,2.34,0,3.55,1.69,3.55,4.09Z" style="fill: #12181e; stroke-width: 0px;"/>
      <path d="M464.23,701.47c0,3.31-2.27,5.69-5.52,5.69s-5.54-2.38-5.54-5.69,2.27-5.7,5.54-5.7,5.52,2.38,5.52,5.7ZM455.09,701.47c0,2.25,1.45,3.96,3.64,3.96s3.57-1.71,3.57-3.96-1.41-3.96-3.57-3.96-3.64,1.69-3.64,3.96Z" style="fill: #12181e; stroke-width: 0px;"/>
      <path d="M471.87,696.01v1.73h-2.81l-.04,5.85c0,1.19.3,1.78,1.56,1.78.61,0,.97-.09,1.3-.2v1.67c-.33.13-.82.24-1.62.24-2.06,0-3.12-.91-3.1-3.14l.04-6.19h-2.04v-1.73h2.04l.02-2.73h1.88l-.02,2.73h2.79Z" style="fill: #12181e; stroke-width: 0px;"/>
      <path d="M478.99,695.77c2.34,0,3.55,1.69,3.55,4.09v7.06h-1.88v-6.76c0-1.69-.8-2.58-2.12-2.58-1.43,0-2.53,1.26-2.53,3.49v5.85h-1.86v-15.81h1.86v6.26c.41-.84,1.41-1.6,2.99-1.6Z" style="fill: #12181e; stroke-width: 0px;"/>
      <path d="M494.94,702.21h-8.27c.13,2.01,1.49,3.23,3.36,3.23,1.45,0,2.51-.63,2.95-1.78h1.86c-.65,2.17-2.34,3.51-4.85,3.51-3.08,0-5.26-2.23-5.26-5.67s2.08-5.72,5.26-5.72c2.86,0,4.96,1.86,4.96,5.54v.89ZM493.06,700.54c-.02-1.86-1.26-3.03-3.07-3.03s-3.1,1.28-3.31,3.03h6.39Z" style="fill: #12181e; stroke-width: 0px;"/>
      <path d="M500.33,698.57c-.58.54-.97,1.39-1,2.58v5.78h-1.86v-10.91h1.67l.13,1.91c.37-1,1.39-2.01,3.27-2.01v1.86c-.87,0-1.6.24-2.21.8Z" style="fill: #12181e; stroke-width: 0px;"/>
      <path d="M518.34,699.41h-1.86c-.43-1.21-1.56-1.91-2.97-1.91-1.95,0-3.4,1.67-3.4,3.98s1.45,3.94,3.44,3.94c1.39,0,2.53-.74,2.92-1.91h1.88c-.58,2.38-2.49,3.64-4.87,3.64-3.07,0-5.3-2.38-5.3-5.67s2.23-5.72,5.3-5.72c2.4,0,4.33,1.26,4.85,3.64Z" style="fill: #12181e; stroke-width: 0px;"/>
      <path d="M530.94,701.47c0,3.31-2.27,5.69-5.52,5.69s-5.54-2.38-5.54-5.69,2.27-5.7,5.54-5.7,5.52,2.38,5.52,5.7ZM521.81,701.47c0,2.25,1.45,3.96,3.64,3.96s3.57-1.71,3.57-3.96-1.41-3.96-3.57-3.96-3.64,1.69-3.64,3.96Z" style="fill: #12181e; stroke-width: 0px;"/>
      <path d="M539.79,706.93l-.11-1.49c-.5,1.04-1.49,1.73-3.01,1.73-2.36,0-3.51-1.67-3.51-4.09v-7.06h1.86v6.76c0,1.71.76,2.6,2.08,2.6,1.41,0,2.49-1.19,2.49-3.29v-6.06h1.86v10.91h-1.67Z" style="fill: #12181e; stroke-width: 0px;"/>
      <path d="M553.11,699.87v7.06h-1.88v-6.76c0-1.69-.8-2.58-2.12-2.58-1.43,0-2.53,1.26-2.53,3.49v5.85h-1.86v-10.91h1.67l.11,1.49c.5-.95,1.54-1.73,3.07-1.73,2.34,0,3.55,1.69,3.55,4.09Z" style="fill: #12181e; stroke-width: 0px;"/>
      <path d="M561.44,696.01v1.73h-2.82l-.04,5.85c0,1.19.3,1.78,1.56,1.78.61,0,.97-.09,1.3-.2v1.67c-.33.13-.82.24-1.62.24-2.06,0-3.12-.91-3.1-3.14l.04-6.19h-2.04v-1.73h2.04l.02-2.73h1.88l-.02,2.73h2.79Z" style="fill: #12181e; stroke-width: 0px;"/>
      <path d="M566.7,698.57c-.58.54-.97,1.39-1,2.58v5.78h-1.86v-10.91h1.67l.13,1.91c.37-1,1.39-2.01,3.27-2.01v1.86c-.87,0-1.6.24-2.21.8Z" style="fill: #12181e; stroke-width: 0px;"/>
      <path d="M573.32,692.66c0,.69-.58,1.26-1.3,1.26s-1.28-.56-1.28-1.26.56-1.28,1.28-1.28,1.3.56,1.3,1.28ZM571.09,706.93v-10.91h1.86v10.91h-1.86Z" style="fill: #12181e; stroke-width: 0px;"/>
      <path d="M585.6,702.21h-8.27c.13,2.01,1.49,3.23,3.36,3.23,1.45,0,2.51-.63,2.94-1.78h1.86c-.65,2.17-2.34,3.51-4.85,3.51-3.08,0-5.26-2.23-5.26-5.67s2.08-5.72,5.26-5.72c2.86,0,4.96,1.86,4.96,5.54v.89ZM583.72,700.54c-.02-1.86-1.26-3.03-3.07-3.03s-3.1,1.28-3.31,3.03h6.39Z" style="fill: #12181e; stroke-width: 0px;"/>
      <path d="M594.69,699.22h-1.91c-.02-1.15-.56-1.71-1.73-1.71s-1.67.67-1.67,1.47c0,.84.43,1.19,2.06,1.58,2.6.61,3.57,1.52,3.57,3.27,0,2.12-1.65,3.33-3.83,3.33-2.53,0-3.94-1.43-3.98-3.55h1.91c.02,1.15.76,1.82,2.12,1.82,1.26,0,1.88-.63,1.88-1.47,0-.91-.48-1.34-2.27-1.75-2.27-.52-3.36-1.32-3.36-3.12s1.26-3.31,3.62-3.31c2.12,0,3.55,1.39,3.59,3.44Z" style="fill: #12181e; stroke-width: 0px;"/>
    </g>
    <g id="United_States" data-name="United States">
      <g style="isolation: isolate;">
        <g style="isolation: isolate;">
          <path d="M216.85,78.49c-2.72,0-4.32-1.59-4.32-4.55v-6.64h1.43v6.64c0,2.1.96,3.22,2.89,3.22s2.87-1.1,2.87-3.22v-6.64h1.43v6.64c0,2.97-1.59,4.55-4.3,4.55Z" style="fill: #000; stroke-width: 0px;"/>
          <path d="M229.49,73.16v5.12h-1.37v-4.9c0-1.22-.58-1.87-1.54-1.87-1.04,0-1.84.91-1.84,2.53v4.24h-1.35v-7.91h1.21l.08,1.08c.36-.69,1.11-1.26,2.23-1.26,1.7,0,2.57,1.22,2.57,2.97Z" style="fill: #000; stroke-width: 0px;"/>
          <path d="M233.39,67.93c0,.5-.42.91-.94.91s-.93-.41-.93-.91.41-.93.93-.93.94.41.94.93ZM231.77,78.28v-7.91h1.35v7.91h-1.35Z" style="fill: #000; stroke-width: 0px;"/>
          <path d="M239.34,70.37v1.26h-2.04l-.03,4.24c0,.86.22,1.29,1.13,1.29.44,0,.71-.06.94-.14v1.21c-.24.09-.6.17-1.18.17-1.49,0-2.26-.66-2.25-2.28l.03-4.49h-1.48v-1.26h1.48l.02-1.98h1.37l-.02,1.98h2.03Z" style="fill: #000; stroke-width: 0px;"/>
          <path d="M247.76,74.86h-6c.09,1.46,1.08,2.34,2.43,2.34,1.05,0,1.82-.46,2.14-1.29h1.35c-.47,1.57-1.7,2.54-3.52,2.54-2.23,0-3.82-1.62-3.82-4.11s1.51-4.15,3.82-4.15c2.07,0,3.6,1.35,3.6,4.02v.64ZM246.39,73.65c-.02-1.35-.91-2.2-2.23-2.2s-2.25.93-2.4,2.2h4.63Z" style="fill: #000; stroke-width: 0px;"/>
          <path d="M255.44,78.28l-.08-1.16c-.49.71-1.29,1.33-2.72,1.33-2.23,0-3.69-1.79-3.69-4.13s1.48-4.13,3.71-4.13c1.32,0,2.2.58,2.64,1.26v-4.63h1.35v11.46h-1.21ZM250.35,74.32c0,1.68.99,2.86,2.5,2.86,1.29,0,2.47-1.07,2.47-2.78v-.08c0-1.76-1.19-2.84-2.45-2.84-1.48,0-2.51,1.18-2.51,2.84Z" style="fill: #000; stroke-width: 0px;"/>
          <path d="M268.37,70.19h-1.44c-.02-1.18-.75-1.82-1.81-1.82s-1.7.61-1.7,1.66.69,1.43,2.18,2.03c2.21.82,3.11,1.62,3.11,3.23,0,2.01-1.41,3.19-3.41,3.19-2.32,0-3.61-1.4-3.64-3.44h1.44c.03,1.4.83,2.17,2.21,2.17,1.29,0,1.95-.78,1.95-1.82,0-.94-.66-1.44-2.31-2.03-1.87-.69-2.98-1.44-2.98-3.22s1.13-3.06,3.17-3.06c1.92,0,3.17,1.07,3.22,3.11Z" style="fill: #000; stroke-width: 0px;"/>
          <path d="M274.29,70.37v1.26h-2.04l-.03,4.24c0,.86.22,1.29,1.13,1.29.44,0,.71-.06.94-.14v1.21c-.24.09-.6.17-1.18.17-1.49,0-2.26-.66-2.25-2.28l.03-4.49h-1.48v-1.26h1.48l.02-1.98h1.37l-.02,1.98h2.03Z" style="fill: #000; stroke-width: 0px;"/>
          <path d="M281.47,73.04v5.24h-1.22l-.06-1.08c-.39.71-1.24,1.26-2.4,1.26-1.38,0-2.31-.85-2.31-2.23s.97-2.06,2.21-2.29l2.42-.46v-.39c0-1.13-.52-1.63-1.46-1.63-.86,0-1.62.47-1.62,1.44h-1.33c.05-1.52,1.21-2.7,2.95-2.7s2.83,1,2.83,2.84ZM276.84,76.21c0,.63.44.99,1.21.99.66,0,1.24-.28,1.6-.79.27-.36.46-.91.46-1.46v-.3l-2.17.47c-.6.14-1.1.38-1.1,1.08Z" style="fill: #000; stroke-width: 0px;"/>
          <path d="M287.47,70.37v1.26h-2.04l-.03,4.24c0,.86.22,1.29,1.13,1.29.44,0,.71-.06.94-.14v1.21c-.24.09-.6.17-1.18.17-1.49,0-2.26-.66-2.25-2.28l.03-4.49h-1.48v-1.26h1.48l.02-1.98h1.37l-.02,1.98h2.03Z" style="fill: #000; stroke-width: 0px;"/>
          <path d="M295.89,74.86h-6c.09,1.46,1.08,2.34,2.43,2.34,1.05,0,1.82-.46,2.14-1.29h1.35c-.47,1.57-1.7,2.54-3.52,2.54-2.23,0-3.82-1.62-3.82-4.11s1.51-4.15,3.82-4.15c2.07,0,3.6,1.35,3.6,4.02v.64ZM294.52,73.65c-.02-1.35-.91-2.2-2.23-2.2s-2.25.93-2.4,2.2h4.63Z" style="fill: #000; stroke-width: 0px;"/>
          <path d="M302.48,72.69h-1.38c-.02-.83-.41-1.24-1.26-1.24s-1.21.49-1.21,1.07c0,.61.31.86,1.49,1.15,1.88.44,2.59,1.1,2.59,2.37,0,1.54-1.19,2.42-2.78,2.42-1.84,0-2.86-1.04-2.89-2.58h1.38c.02.83.55,1.32,1.54,1.32.91,0,1.37-.46,1.37-1.07,0-.66-.35-.97-1.65-1.27-1.65-.38-2.43-.96-2.43-2.26s.91-2.4,2.62-2.4c1.54,0,2.58,1,2.61,2.5Z" style="fill: #000; stroke-width: 0px;"/>
        </g>
      </g>
    </g>
    <g id="United_States-2" data-name="United States">
      <g style="isolation: isolate;">
        <g style="isolation: isolate;">
          <path d="M216.85,308.26c-2.72,0-4.32-1.59-4.32-4.55v-6.64h1.43v6.64c0,2.1.96,3.22,2.89,3.22s2.87-1.1,2.87-3.22v-6.64h1.43v6.64c0,2.97-1.59,4.55-4.3,4.55Z" style="fill: #000; stroke-width: 0px;"/>
          <path d="M229.49,302.94v5.12h-1.37v-4.9c0-1.22-.58-1.87-1.54-1.87-1.04,0-1.84.91-1.84,2.53v4.24h-1.35v-7.91h1.21l.08,1.08c.36-.69,1.11-1.26,2.23-1.26,1.7,0,2.57,1.22,2.57,2.97Z" style="fill: #000; stroke-width: 0px;"/>
          <path d="M233.39,297.71c0,.5-.42.91-.94.91s-.93-.41-.93-.91.41-.93.93-.93.94.41.94.93ZM231.77,308.06v-7.91h1.35v7.91h-1.35Z" style="fill: #000; stroke-width: 0px;"/>
          <path d="M239.34,300.14v1.26h-2.04l-.03,4.24c0,.86.22,1.29,1.13,1.29.44,0,.71-.06.94-.14v1.21c-.24.09-.6.17-1.18.17-1.49,0-2.26-.66-2.25-2.28l.03-4.49h-1.48v-1.26h1.48l.02-1.98h1.37l-.02,1.98h2.03Z" style="fill: #000; stroke-width: 0px;"/>
          <path d="M247.76,304.63h-6c.09,1.46,1.08,2.34,2.43,2.34,1.05,0,1.82-.46,2.14-1.29h1.35c-.47,1.57-1.7,2.54-3.52,2.54-2.23,0-3.82-1.62-3.82-4.11s1.51-4.15,3.82-4.15c2.07,0,3.6,1.35,3.6,4.02v.64ZM246.39,303.42c-.02-1.35-.91-2.2-2.23-2.2s-2.25.93-2.4,2.2h4.63Z" style="fill: #000; stroke-width: 0px;"/>
          <path d="M255.44,308.06l-.08-1.16c-.49.71-1.29,1.33-2.72,1.33-2.23,0-3.69-1.79-3.69-4.13s1.48-4.13,3.71-4.13c1.32,0,2.2.58,2.64,1.26v-4.63h1.35v11.46h-1.21ZM250.35,304.1c0,1.68.99,2.86,2.5,2.86,1.29,0,2.47-1.07,2.47-2.78v-.08c0-1.76-1.19-2.84-2.45-2.84-1.48,0-2.51,1.18-2.51,2.84Z" style="fill: #000; stroke-width: 0px;"/>
          <path d="M268.37,299.97h-1.44c-.02-1.18-.75-1.82-1.81-1.82s-1.7.61-1.7,1.66.69,1.43,2.18,2.03c2.21.82,3.11,1.62,3.11,3.23,0,2.01-1.41,3.19-3.41,3.19-2.32,0-3.61-1.4-3.64-3.44h1.44c.03,1.4.83,2.17,2.21,2.17,1.29,0,1.95-.78,1.95-1.82,0-.94-.66-1.44-2.31-2.03-1.87-.69-2.98-1.44-2.98-3.22s1.13-3.06,3.17-3.06c1.92,0,3.17,1.07,3.22,3.11Z" style="fill: #000; stroke-width: 0px;"/>
          <path d="M274.29,300.14v1.26h-2.04l-.03,4.24c0,.86.22,1.29,1.13,1.29.44,0,.71-.06.94-.14v1.21c-.24.09-.6.17-1.18.17-1.49,0-2.26-.66-2.25-2.28l.03-4.49h-1.48v-1.26h1.48l.02-1.98h1.37l-.02,1.98h2.03Z" style="fill: #000; stroke-width: 0px;"/>
          <path d="M281.47,302.81v5.24h-1.22l-.06-1.08c-.39.71-1.24,1.26-2.4,1.26-1.38,0-2.31-.85-2.31-2.23s.97-2.06,2.21-2.29l2.42-.46v-.39c0-1.13-.52-1.63-1.46-1.63-.86,0-1.62.47-1.62,1.44h-1.33c.05-1.52,1.21-2.7,2.95-2.7s2.83,1,2.83,2.84ZM276.84,305.98c0,.63.44.99,1.21.99.66,0,1.24-.28,1.6-.79.27-.36.46-.91.46-1.46v-.3l-2.17.47c-.6.14-1.1.38-1.1,1.08Z" style="fill: #000; stroke-width: 0px;"/>
          <path d="M287.47,300.14v1.26h-2.04l-.03,4.24c0,.86.22,1.29,1.13,1.29.44,0,.71-.06.94-.14v1.21c-.24.09-.6.17-1.18.17-1.49,0-2.26-.66-2.25-2.28l.03-4.49h-1.48v-1.26h1.48l.02-1.98h1.37l-.02,1.98h2.03Z" style="fill: #000; stroke-width: 0px;"/>
          <path d="M295.89,304.63h-6c.09,1.46,1.08,2.34,2.43,2.34,1.05,0,1.82-.46,2.14-1.29h1.35c-.47,1.57-1.7,2.54-3.52,2.54-2.23,0-3.82-1.62-3.82-4.11s1.51-4.15,3.82-4.15c2.07,0,3.6,1.35,3.6,4.02v.64ZM294.52,303.42c-.02-1.35-.91-2.2-2.23-2.2s-2.25.93-2.4,2.2h4.63Z" style="fill: #000; stroke-width: 0px;"/>
          <path d="M302.48,302.47h-1.38c-.02-.83-.41-1.24-1.26-1.24s-1.21.49-1.21,1.07c0,.61.31.86,1.49,1.15,1.88.44,2.59,1.1,2.59,2.37,0,1.54-1.19,2.42-2.78,2.42-1.84,0-2.86-1.04-2.89-2.58h1.38c.02.83.55,1.32,1.54,1.32.91,0,1.37-.46,1.37-1.07,0-.66-.35-.97-1.65-1.27-1.65-.38-2.43-.96-2.43-2.26s.91-2.4,2.62-2.4c1.54,0,2.58,1,2.61,2.5Z" style="fill: #000; stroke-width: 0px;"/>
        </g>
      </g>
    </g>
    <g id="United_States-3" data-name="United States">
      <g style="isolation: isolate;">
        <g style="isolation: isolate;">
          <path d="M216.85,606.79c-2.72,0-4.32-1.59-4.32-4.55v-6.64h1.43v6.64c0,2.1.96,3.22,2.89,3.22s2.87-1.1,2.87-3.22v-6.64h1.43v6.64c0,2.97-1.59,4.55-4.3,4.55Z" style="fill: #000; stroke-width: 0px;"/>
          <path d="M229.49,601.47v5.12h-1.37v-4.9c0-1.22-.58-1.87-1.54-1.87-1.04,0-1.84.91-1.84,2.53v4.24h-1.35v-7.91h1.21l.08,1.08c.36-.69,1.11-1.26,2.23-1.26,1.7,0,2.57,1.22,2.57,2.97Z" style="fill: #000; stroke-width: 0px;"/>
          <path d="M233.39,596.24c0,.5-.42.91-.94.91s-.93-.41-.93-.91.41-.93.93-.93.94.41.94.93ZM231.77,606.58v-7.91h1.35v7.91h-1.35Z" style="fill: #000; stroke-width: 0px;"/>
          <path d="M239.34,598.67v1.26h-2.04l-.03,4.24c0,.86.22,1.29,1.13,1.29.44,0,.71-.06.94-.14v1.21c-.24.09-.6.17-1.18.17-1.49,0-2.26-.66-2.25-2.28l.03-4.49h-1.48v-1.26h1.48l.02-1.98h1.37l-.02,1.98h2.03Z" style="fill: #000; stroke-width: 0px;"/>
          <path d="M247.76,603.16h-6c.09,1.46,1.08,2.34,2.43,2.34,1.05,0,1.82-.46,2.14-1.29h1.35c-.47,1.57-1.7,2.54-3.52,2.54-2.23,0-3.82-1.62-3.82-4.11s1.51-4.14,3.82-4.14c2.07,0,3.6,1.35,3.6,4.02v.64ZM246.39,601.95c-.02-1.35-.91-2.2-2.23-2.2s-2.25.93-2.4,2.2h4.63Z" style="fill: #000; stroke-width: 0px;"/>
          <path d="M255.44,606.58l-.08-1.16c-.49.71-1.29,1.33-2.72,1.33-2.23,0-3.69-1.79-3.69-4.13s1.48-4.13,3.71-4.13c1.32,0,2.2.58,2.64,1.26v-4.63h1.35v11.46h-1.21ZM250.35,602.63c0,1.68.99,2.86,2.5,2.86,1.29,0,2.47-1.07,2.47-2.78v-.08c0-1.76-1.19-2.84-2.45-2.84-1.48,0-2.51,1.18-2.51,2.84Z" style="fill: #000; stroke-width: 0px;"/>
          <path d="M268.37,598.5h-1.44c-.02-1.18-.75-1.82-1.81-1.82s-1.7.61-1.7,1.66.69,1.43,2.18,2.03c2.21.82,3.11,1.62,3.11,3.23,0,2.01-1.41,3.19-3.41,3.19-2.32,0-3.61-1.4-3.64-3.44h1.44c.03,1.4.83,2.17,2.21,2.17,1.29,0,1.95-.79,1.95-1.82,0-.94-.66-1.45-2.31-2.03-1.87-.69-2.98-1.45-2.98-3.22s1.13-3.06,3.17-3.06c1.92,0,3.17,1.07,3.22,3.11Z" style="fill: #000; stroke-width: 0px;"/>
          <path d="M274.29,598.67v1.26h-2.04l-.03,4.24c0,.86.22,1.29,1.13,1.29.44,0,.71-.06.94-.14v1.21c-.24.09-.6.17-1.18.17-1.49,0-2.26-.66-2.25-2.28l.03-4.49h-1.48v-1.26h1.48l.02-1.98h1.37l-.02,1.98h2.03Z" style="fill: #000; stroke-width: 0px;"/>
          <path d="M281.47,601.34v5.24h-1.22l-.06-1.08c-.39.71-1.24,1.26-2.4,1.26-1.38,0-2.31-.85-2.31-2.23s.97-2.06,2.21-2.29l2.42-.46v-.39c0-1.13-.52-1.63-1.46-1.63-.86,0-1.62.47-1.62,1.44h-1.33c.05-1.52,1.21-2.7,2.95-2.7s2.83,1,2.83,2.84ZM276.84,604.51c0,.63.44.99,1.21.99.66,0,1.24-.28,1.6-.79.27-.36.46-.91.46-1.46v-.3l-2.17.47c-.6.14-1.1.38-1.1,1.08Z" style="fill: #000; stroke-width: 0px;"/>
          <path d="M287.47,598.67v1.26h-2.04l-.03,4.24c0,.86.22,1.29,1.13,1.29.44,0,.71-.06.94-.14v1.21c-.24.09-.6.17-1.18.17-1.49,0-2.26-.66-2.25-2.28l.03-4.49h-1.48v-1.26h1.48l.02-1.98h1.37l-.02,1.98h2.03Z" style="fill: #000; stroke-width: 0px;"/>
          <path d="M295.89,603.16h-6c.09,1.46,1.08,2.34,2.43,2.34,1.05,0,1.82-.46,2.14-1.29h1.35c-.47,1.57-1.7,2.54-3.52,2.54-2.23,0-3.82-1.62-3.82-4.11s1.51-4.14,3.82-4.14c2.07,0,3.6,1.35,3.6,4.02v.64ZM294.52,601.95c-.02-1.35-.91-2.2-2.23-2.2s-2.25.93-2.4,2.2h4.63Z" style="fill: #000; stroke-width: 0px;"/>
          <path d="M302.48,600.99h-1.38c-.02-.83-.41-1.24-1.26-1.24s-1.21.49-1.21,1.07c0,.61.31.86,1.49,1.15,1.88.44,2.59,1.1,2.59,2.37,0,1.54-1.19,2.42-2.78,2.42-1.84,0-2.86-1.04-2.89-2.58h1.38c.02.83.55,1.32,1.54,1.32.91,0,1.37-.46,1.37-1.07,0-.66-.35-.97-1.65-1.27-1.65-.38-2.43-.96-2.43-2.26s.91-2.4,2.62-2.4c1.54,0,2.58,1,2.61,2.5Z" style="fill: #000; stroke-width: 0px;"/>
        </g>
      </g>
    </g>
    <g id="United_States-4" data-name="United States">
      <g style="isolation: isolate;">
        <g style="isolation: isolate;">
          <path d="M248.68,140.73c0,3.27-2.34,5.72-5.61,5.72s-5.62-2.45-5.62-5.72,2.34-5.68,5.62-5.68,5.61,2.43,5.61,5.68ZM238.94,140.73c0,2.51,1.68,4.38,4.13,4.38s4.11-1.87,4.11-4.38-1.68-4.35-4.11-4.35-4.13,1.85-4.13,4.35Z" style="fill: #000; stroke-width: 0px;"/>
          <path d="M254.29,138.32v1.26h-2.04l-.03,4.24c0,.86.22,1.29,1.13,1.29.44,0,.71-.06.94-.14v1.21c-.24.09-.6.17-1.18.17-1.49,0-2.26-.66-2.25-2.28l.03-4.49h-1.48v-1.26h1.48l.02-1.98h1.37l-.02,1.98h2.03Z" style="fill: #000; stroke-width: 0px;"/>
          <path d="M259.46,138.15c1.7,0,2.57,1.22,2.57,2.97v5.12h-1.37v-4.9c0-1.22-.58-1.87-1.54-1.87-1.04,0-1.84.91-1.84,2.53v4.24h-1.35v-11.46h1.35v4.54c.3-.61,1.02-1.16,2.17-1.16Z" style="fill: #000; stroke-width: 0px;"/>
          <path d="M271.03,142.82h-6c.09,1.46,1.08,2.34,2.43,2.34,1.05,0,1.82-.46,2.14-1.29h1.35c-.47,1.57-1.7,2.54-3.52,2.54-2.23,0-3.82-1.62-3.82-4.11s1.51-4.15,3.82-4.15c2.07,0,3.6,1.35,3.6,4.02v.64ZM269.66,141.61c-.02-1.35-.91-2.2-2.23-2.2s-2.25.93-2.4,2.2h4.63Z" style="fill: #000; stroke-width: 0px;"/>
          <path d="M274.94,140.18c-.42.39-.71,1-.72,1.87v4.19h-1.35v-7.91h1.21l.09,1.38c.27-.72,1-1.46,2.37-1.46v1.35c-.63,0-1.16.17-1.6.58Z" style="fill: #000; stroke-width: 0px;"/>
          <path d="M234.95,157.36h-1.59c-.46-1.27-1.49-2.14-3.3-2.14-2.32,0-3.94,1.85-3.94,4.36s1.62,4.37,3.96,4.37c1.82,0,2.9-.93,3.34-2.18h1.54c-.61,2.21-2.29,3.52-4.88,3.52-3.19,0-5.45-2.43-5.45-5.7s2.26-5.7,5.43-5.7c2.59,0,4.27,1.35,4.88,3.47Z" style="fill: #000; stroke-width: 0px;"/>
          <path d="M243.98,161.13c0,2.4-1.65,4.13-4,4.13s-4.02-1.73-4.02-4.13,1.65-4.13,4.02-4.13,4,1.73,4,4.13ZM237.36,161.13c0,1.63,1.05,2.87,2.64,2.87s2.59-1.24,2.59-2.87-1.02-2.87-2.59-2.87-2.64,1.22-2.64,2.87Z" style="fill: #000; stroke-width: 0px;"/>
          <path d="M250.41,165.09l-.08-1.08c-.36.75-1.08,1.26-2.18,1.26-1.71,0-2.54-1.21-2.54-2.97v-5.12h1.35v4.9c0,1.24.55,1.88,1.51,1.88,1.02,0,1.81-.86,1.81-2.39v-4.4h1.35v7.91h-1.21Z" style="fill: #000; stroke-width: 0px;"/>
          <path d="M260.07,159.97v5.12h-1.37v-4.9c0-1.22-.58-1.87-1.54-1.87-1.04,0-1.84.91-1.84,2.53v4.24h-1.35v-7.91h1.21l.08,1.08c.36-.69,1.11-1.26,2.23-1.26,1.7,0,2.57,1.22,2.57,2.97Z" style="fill: #000; stroke-width: 0px;"/>
          <path d="M266.11,157.17v1.26h-2.04l-.03,4.24c0,.86.22,1.29,1.13,1.29.44,0,.71-.06.94-.14v1.21c-.24.09-.6.17-1.18.17-1.49,0-2.26-.66-2.25-2.28l.03-4.49h-1.48v-1.26h1.48l.02-1.98h1.37l-.02,1.98h2.03Z" style="fill: #000; stroke-width: 0px;"/>
          <path d="M269.93,159.03c-.42.39-.71,1-.72,1.87v4.19h-1.35v-7.91h1.21l.09,1.38c.27-.72,1-1.46,2.37-1.46v1.35c-.63,0-1.16.17-1.6.58Z" style="fill: #000; stroke-width: 0px;"/>
          <path d="M274.74,154.74c0,.5-.42.91-.94.91s-.93-.41-.93-.91.41-.93.93-.93.94.41.94.93ZM273.12,165.09v-7.91h1.35v7.91h-1.35Z" style="fill: #000; stroke-width: 0px;"/>
          <path d="M283.64,161.66h-6c.09,1.46,1.08,2.34,2.43,2.34,1.05,0,1.82-.46,2.14-1.29h1.35c-.47,1.57-1.7,2.54-3.52,2.54-2.23,0-3.82-1.62-3.82-4.11s1.51-4.15,3.82-4.15c2.07,0,3.6,1.35,3.6,4.02v.64ZM282.28,160.45c-.02-1.35-.91-2.2-2.23-2.2s-2.25.93-2.4,2.2h4.63Z" style="fill: #000; stroke-width: 0px;"/>
          <path d="M290.24,159.5h-1.38c-.02-.83-.41-1.24-1.26-1.24s-1.21.49-1.21,1.07c0,.61.31.86,1.49,1.15,1.88.44,2.59,1.1,2.59,2.37,0,1.54-1.19,2.42-2.78,2.42-1.84,0-2.86-1.04-2.89-2.58h1.38c.02.83.55,1.32,1.54,1.32.91,0,1.37-.46,1.37-1.07,0-.66-.35-.97-1.65-1.27-1.65-.38-2.43-.96-2.43-2.26s.91-2.4,2.62-2.4c1.54,0,2.58,1,2.61,2.5Z" style="fill: #000; stroke-width: 0px;"/>
        </g>
      </g>
    </g>
    <g id="United_States-5" data-name="United States">
      <g style="isolation: isolate;">
        <g style="isolation: isolate;">
          <path d="M248.68,373.64c0,3.27-2.34,5.72-5.61,5.72s-5.62-2.45-5.62-5.72,2.34-5.68,5.62-5.68,5.61,2.43,5.61,5.68ZM238.94,373.64c0,2.51,1.68,4.38,4.13,4.38s4.11-1.87,4.11-4.38-1.68-4.35-4.11-4.35-4.13,1.85-4.13,4.35Z" style="fill: #000; stroke-width: 0px;"/>
          <path d="M254.29,371.24v1.26h-2.04l-.03,4.24c0,.86.22,1.29,1.13,1.29.44,0,.71-.06.94-.14v1.21c-.24.09-.6.17-1.18.17-1.49,0-2.26-.66-2.25-2.28l.03-4.49h-1.48v-1.26h1.48l.02-1.98h1.37l-.02,1.98h2.03Z" style="fill: #000; stroke-width: 0px;"/>
          <path d="M259.46,371.06c1.7,0,2.57,1.22,2.57,2.97v5.12h-1.37v-4.9c0-1.22-.58-1.87-1.54-1.87-1.04,0-1.84.91-1.84,2.53v4.24h-1.35v-11.46h1.35v4.54c.3-.61,1.02-1.16,2.17-1.16Z" style="fill: #000; stroke-width: 0px;"/>
          <path d="M271.03,375.73h-6c.09,1.46,1.08,2.34,2.43,2.34,1.05,0,1.82-.46,2.14-1.29h1.35c-.47,1.57-1.7,2.54-3.52,2.54-2.23,0-3.82-1.62-3.82-4.11s1.51-4.15,3.82-4.15c2.07,0,3.6,1.35,3.6,4.02v.64ZM269.66,374.52c-.02-1.35-.91-2.2-2.23-2.2s-2.25.93-2.4,2.2h4.63Z" style="fill: #000; stroke-width: 0px;"/>
          <path d="M274.94,373.09c-.42.39-.71,1-.72,1.87v4.19h-1.35v-7.91h1.21l.09,1.38c.27-.72,1-1.46,2.37-1.46v1.35c-.63,0-1.16.17-1.6.58Z" style="fill: #000; stroke-width: 0px;"/>
          <path d="M234.95,390.27h-1.59c-.46-1.27-1.49-2.14-3.3-2.14-2.32,0-3.94,1.85-3.94,4.36s1.62,4.37,3.96,4.37c1.82,0,2.9-.93,3.34-2.18h1.54c-.61,2.21-2.29,3.52-4.88,3.52-3.19,0-5.45-2.43-5.45-5.7s2.26-5.7,5.43-5.7c2.59,0,4.27,1.35,4.88,3.47Z" style="fill: #000; stroke-width: 0px;"/>
          <path d="M243.98,394.04c0,2.4-1.65,4.13-4,4.13s-4.02-1.73-4.02-4.13,1.65-4.13,4.02-4.13,4,1.73,4,4.13ZM237.36,394.04c0,1.63,1.05,2.87,2.64,2.87s2.59-1.24,2.59-2.87-1.02-2.87-2.59-2.87-2.64,1.22-2.64,2.87Z" style="fill: #000; stroke-width: 0px;"/>
          <path d="M250.41,398l-.08-1.08c-.36.75-1.08,1.26-2.18,1.26-1.71,0-2.54-1.21-2.54-2.97v-5.12h1.35v4.9c0,1.24.55,1.88,1.51,1.88,1.02,0,1.81-.86,1.81-2.39v-4.4h1.35v7.91h-1.21Z" style="fill: #000; stroke-width: 0px;"/>
          <path d="M260.07,392.88v5.12h-1.37v-4.9c0-1.22-.58-1.87-1.54-1.87-1.04,0-1.84.91-1.84,2.53v4.24h-1.35v-7.91h1.21l.08,1.08c.36-.69,1.11-1.26,2.23-1.26,1.7,0,2.57,1.22,2.57,2.97Z" style="fill: #000; stroke-width: 0px;"/>
          <path d="M266.11,390.08v1.26h-2.04l-.03,4.24c0,.86.22,1.29,1.13,1.29.44,0,.71-.06.94-.14v1.21c-.24.09-.6.17-1.18.17-1.49,0-2.26-.66-2.25-2.28l.03-4.49h-1.48v-1.26h1.48l.02-1.98h1.37l-.02,1.98h2.03Z" style="fill: #000; stroke-width: 0px;"/>
          <path d="M269.93,391.94c-.42.39-.71,1-.72,1.87v4.19h-1.35v-7.91h1.21l.09,1.38c.27-.72,1-1.46,2.37-1.46v1.35c-.63,0-1.16.17-1.6.58Z" style="fill: #000; stroke-width: 0px;"/>
          <path d="M274.74,387.65c0,.5-.42.91-.94.91s-.93-.41-.93-.91.41-.93.93-.93.94.41.94.93ZM273.12,398v-7.91h1.35v7.91h-1.35Z" style="fill: #000; stroke-width: 0px;"/>
          <path d="M283.64,394.57h-6c.09,1.46,1.08,2.34,2.43,2.34,1.05,0,1.82-.46,2.14-1.29h1.35c-.47,1.57-1.7,2.54-3.52,2.54-2.23,0-3.82-1.62-3.82-4.11s1.51-4.15,3.82-4.15c2.07,0,3.6,1.35,3.6,4.02v.64ZM282.28,393.36c-.02-1.35-.91-2.2-2.23-2.2s-2.25.93-2.4,2.2h4.63Z" style="fill: #000; stroke-width: 0px;"/>
          <path d="M290.24,392.41h-1.38c-.02-.83-.41-1.24-1.26-1.24s-1.21.49-1.21,1.07c0,.61.31.86,1.49,1.15,1.88.44,2.59,1.1,2.59,2.37,0,1.54-1.19,2.42-2.78,2.42-1.84,0-2.86-1.04-2.89-2.58h1.38c.02.83.55,1.32,1.54,1.32.91,0,1.37-.46,1.37-1.07,0-.66-.35-.97-1.65-1.27-1.65-.38-2.43-.96-2.43-2.26s.91-2.4,2.62-2.4c1.54,0,2.58,1,2.61,2.5Z" style="fill: #000; stroke-width: 0px;"/>
        </g>
      </g>
    </g>
    <g id="United_States-6" data-name="United States">
      <g style="isolation: isolate;">
        <g style="isolation: isolate;">
          <path d="M248.68,479.79c0,3.27-2.34,5.72-5.61,5.72s-5.62-2.45-5.62-5.72,2.34-5.68,5.62-5.68,5.61,2.43,5.61,5.68ZM238.94,479.79c0,2.51,1.68,4.38,4.13,4.38s4.11-1.87,4.11-4.38-1.68-4.35-4.11-4.35-4.13,1.85-4.13,4.35Z" style="fill: #000; stroke-width: 0px;"/>
          <path d="M254.29,477.39v1.26h-2.04l-.03,4.24c0,.86.22,1.29,1.13,1.29.44,0,.71-.06.94-.14v1.21c-.24.09-.6.17-1.18.17-1.49,0-2.26-.66-2.25-2.28l.03-4.49h-1.48v-1.26h1.48l.02-1.98h1.37l-.02,1.98h2.03Z" style="fill: #000; stroke-width: 0px;"/>
          <path d="M259.46,477.22c1.7,0,2.57,1.22,2.57,2.97v5.12h-1.37v-4.9c0-1.22-.58-1.87-1.54-1.87-1.04,0-1.84.91-1.84,2.53v4.24h-1.35v-11.46h1.35v4.54c.3-.61,1.02-1.16,2.17-1.16Z" style="fill: #000; stroke-width: 0px;"/>
          <path d="M271.03,481.88h-6c.09,1.46,1.08,2.34,2.43,2.34,1.05,0,1.82-.46,2.14-1.29h1.35c-.47,1.57-1.7,2.54-3.52,2.54-2.23,0-3.82-1.62-3.82-4.11s1.51-4.15,3.82-4.15c2.07,0,3.6,1.35,3.6,4.02v.64ZM269.66,480.67c-.02-1.35-.91-2.2-2.23-2.2s-2.25.93-2.4,2.2h4.63Z" style="fill: #000; stroke-width: 0px;"/>
          <path d="M274.94,479.24c-.42.39-.71,1-.72,1.87v4.19h-1.35v-7.91h1.21l.09,1.38c.27-.72,1-1.46,2.37-1.46v1.35c-.63,0-1.16.17-1.6.58Z" style="fill: #000; stroke-width: 0px;"/>
          <path d="M234.95,496.43h-1.59c-.46-1.27-1.49-2.14-3.3-2.14-2.32,0-3.94,1.85-3.94,4.37s1.62,4.36,3.96,4.36c1.82,0,2.9-.93,3.34-2.18h1.54c-.61,2.21-2.29,3.52-4.88,3.52-3.19,0-5.45-2.43-5.45-5.7s2.26-5.7,5.43-5.7c2.59,0,4.27,1.35,4.88,3.47Z" style="fill: #000; stroke-width: 0px;"/>
          <path d="M243.98,500.19c0,2.4-1.65,4.13-4,4.13s-4.02-1.73-4.02-4.13,1.65-4.13,4.02-4.13,4,1.73,4,4.13ZM237.36,500.19c0,1.63,1.05,2.87,2.64,2.87s2.59-1.24,2.59-2.87-1.02-2.87-2.59-2.87-2.64,1.22-2.64,2.87Z" style="fill: #000; stroke-width: 0px;"/>
          <path d="M250.41,504.15l-.08-1.08c-.36.75-1.08,1.26-2.18,1.26-1.71,0-2.54-1.21-2.54-2.97v-5.12h1.35v4.9c0,1.24.55,1.88,1.51,1.88,1.02,0,1.81-.86,1.81-2.39v-4.4h1.35v7.91h-1.21Z" style="fill: #000; stroke-width: 0px;"/>
          <path d="M260.07,499.03v5.12h-1.37v-4.9c0-1.22-.58-1.87-1.54-1.87-1.04,0-1.84.91-1.84,2.53v4.24h-1.35v-7.91h1.21l.08,1.08c.36-.69,1.11-1.26,2.23-1.26,1.7,0,2.57,1.22,2.57,2.97Z" style="fill: #000; stroke-width: 0px;"/>
          <path d="M266.11,496.24v1.26h-2.04l-.03,4.24c0,.86.22,1.29,1.13,1.29.44,0,.71-.06.94-.14v1.21c-.24.09-.6.17-1.18.17-1.49,0-2.26-.66-2.25-2.28l.03-4.49h-1.48v-1.26h1.48l.02-1.98h1.37l-.02,1.98h2.03Z" style="fill: #000; stroke-width: 0px;"/>
          <path d="M269.93,498.09c-.42.39-.71,1-.72,1.87v4.19h-1.35v-7.91h1.21l.09,1.38c.27-.72,1-1.46,2.37-1.46v1.35c-.63,0-1.16.17-1.6.58Z" style="fill: #000; stroke-width: 0px;"/>
          <path d="M274.74,493.8c0,.5-.42.91-.94.91s-.93-.41-.93-.91.41-.93.93-.93.94.41.94.93ZM273.12,504.15v-7.91h1.35v7.91h-1.35Z" style="fill: #000; stroke-width: 0px;"/>
          <path d="M283.64,500.73h-6c.09,1.46,1.08,2.34,2.43,2.34,1.05,0,1.82-.46,2.14-1.29h1.35c-.47,1.57-1.7,2.54-3.52,2.54-2.23,0-3.82-1.62-3.82-4.11s1.51-4.14,3.82-4.14c2.07,0,3.6,1.35,3.6,4.02v.64ZM282.28,499.52c-.02-1.35-.91-2.2-2.23-2.2s-2.25.93-2.4,2.2h4.63Z" style="fill: #000; stroke-width: 0px;"/>
          <path d="M290.24,498.56h-1.38c-.02-.83-.41-1.24-1.26-1.24s-1.21.49-1.21,1.07c0,.61.31.86,1.49,1.15,1.88.44,2.59,1.1,2.59,2.37,0,1.54-1.19,2.42-2.78,2.42-1.84,0-2.86-1.04-2.89-2.58h1.38c.02.83.55,1.32,1.54,1.32.91,0,1.37-.46,1.37-1.07,0-.66-.35-.97-1.65-1.27-1.65-.38-2.43-.96-2.43-2.26s.91-2.4,2.62-2.4c1.54,0,2.58,1,2.61,2.5Z" style="fill: #000; stroke-width: 0px;"/>
        </g>
      </g>
    </g>
    <g id="callout-line-svg-2" data-name="callout-line-svg">
      <path d="M417.37,357.36c-13.84-7.17-29.06-11.94-45.66-14.3" style="fill: none; stroke: #12181e;"/>
      <path d="M377.17,339.79l-5.46,3.27,4.74,4.76" style="fill: none; stroke: #12181e; stroke-miterlimit: 4; stroke-width: 1px;"/>
    </g>
    <g id="callout-line-svg-3" data-name="callout-line-svg">
      <path d="M422.83,615.57c-13.84-7.17-29.06-11.94-45.66-14.3" style="fill: none; stroke: #12181e;"/>
      <path d="M382.63,598l-5.46,3.27,4.74,4.76" style="fill: none; stroke: #12181e; stroke-miterlimit: 4; stroke-width: 1px;"/>
    </g>
  </g>
</svg>